<?xml version="1.0" encoding="UTF-8" standalone="no"?>
<!DOCTYPE svg PUBLIC "-//W3C//DTD SVG 1.1//EN"
 "http://www.w3.org/Graphics/SVG/1.1/DTD/svg11.dtd">
<!-- Generated by graphviz version 2.40.1 (20161225.0304)
 -->
<!-- Title: /mnt/hdd/C0de/Engines/SFML/SFML_Engine/src/AssetManager.cpp Pages: 1 -->
<svg width="224pt" height="162pt"
 viewBox="0.00 0.00 223.50 162.00" xmlns="http://www.w3.org/2000/svg" xmlns:xlink="http://www.w3.org/1999/xlink">
<g id="graph0" class="graph" transform="scale(1 1) rotate(0) translate(4 158)">
<title>/mnt/hdd/C0de/Engines/SFML/SFML_Engine/src/AssetManager.cpp</title>
<!-- Node0 -->
<g id="node1" class="node">
<title>Node0</title>
<polygon fill="#bfbfbf" stroke="#000000" points="31.5,-112.5 31.5,-153.5 158.5,-153.5 158.5,-112.5 31.5,-112.5"/>
<text text-anchor="start" x="39.5" y="-141.5" font-family="Helvetica,sans-Serif" font-size="10.00" fill="#000000">/mnt/hdd/C0de/Engines</text>
<text text-anchor="start" x="39.5" y="-130.5" font-family="Helvetica,sans-Serif" font-size="10.00" fill="#000000">/SFML/SFML_Engine/src</text>
<text text-anchor="middle" x="95" y="-119.5" font-family="Helvetica,sans-Serif" font-size="10.00" fill="#000000">/AssetManager.cpp</text>
</g>
<!-- Node1 -->
<g id="node2" class="node">
<title>Node1</title>
<polygon fill="none" stroke="#bfbfbf" points="0,-.5 0,-19.5 104,-19.5 104,-.5 0,-.5"/>
<text text-anchor="middle" x="52" y="-7.5" font-family="Helvetica,sans-Serif" font-size="10.00" fill="#000000">SFML/Graphics.hpp</text>
</g>
<!-- Node0&#45;&gt;Node1 -->
<g id="edge1" class="edge">
<title>Node0&#45;&gt;Node1</title>
<path fill="none" stroke="#191970" d="M82.9026,-112.4673C77.0908,-101.8711 70.4411,-88.5616 66,-76 60.6315,-60.8153 56.9911,-42.9022 54.7712,-29.5722"/>
<polygon fill="#191970" stroke="#191970" points="58.2186,-28.9623 53.2339,-19.6134 51.3006,-30.0303 58.2186,-28.9623"/>
</g>
<!-- Node2 -->
<g id="node3" class="node">
<title>Node2</title>
<g id="a_node3"><a xlink:href="AssetManager_8hpp.html" target="_top" xlink:title="../include/AssetManager.hpp">
<polygon fill="none" stroke="#000000" points="74.5,-56.5 74.5,-75.5 215.5,-75.5 215.5,-56.5 74.5,-56.5"/>
<text text-anchor="middle" x="145" y="-63.5" font-family="Helvetica,sans-Serif" font-size="10.00" fill="#000000">../include/AssetManager.hpp</text>
</a>
</g>
</g>
<!-- Node0&#45;&gt;Node2 -->
<g id="edge2" class="edge">
<title>Node0&#45;&gt;Node2</title>
<path fill="none" stroke="#191970" d="M110.5462,-112.168C117.2696,-103.1587 125.0628,-92.7159 131.5349,-84.0432"/>
<polygon fill="#191970" stroke="#191970" points="134.5253,-85.8881 137.7011,-75.7805 128.9152,-81.7015 134.5253,-85.8881"/>
</g>
<!-- Node2&#45;&gt;Node1 -->
<g id="edge4" class="edge">
<title>Node2&#45;&gt;Node1</title>
<path fill="none" stroke="#191970" d="M128.8006,-56.2455C114.3982,-47.5731 93.1268,-34.7645 76.6201,-24.825"/>
<polygon fill="#191970" stroke="#191970" points="78.386,-21.8028 68.0137,-19.6427 74.775,-27.7996 78.386,-21.8028"/>
</g>
<!-- Node3 -->
<g id="node4" class="node">
<title>Node3</title>
<polygon fill="none" stroke="#bfbfbf" points="127.5,-.5 127.5,-19.5 162.5,-19.5 162.5,-.5 127.5,-.5"/>
<text text-anchor="middle" x="145" y="-7.5" font-family="Helvetica,sans-Serif" font-size="10.00" fill="#000000">map</text>
</g>
<!-- Node2&#45;&gt;Node3 -->
<g id="edge3" class="edge">
<title>Node2&#45;&gt;Node3</title>
<path fill="none" stroke="#191970" d="M145,-56.2455C145,-48.9382 145,-38.6944 145,-29.7046"/>
<polygon fill="#191970" stroke="#191970" points="148.5001,-29.6426 145,-19.6427 141.5001,-29.6427 148.5001,-29.6426"/>
</g>
</g>
</svg>
