<?xml version="1.0" encoding="UTF-8" standalone="no"?>
<!DOCTYPE svg PUBLIC "-//W3C//DTD SVG 1.1//EN"
 "http://www.w3.org/Graphics/SVG/1.1/DTD/svg11.dtd">
<!-- Generated by graphviz version 2.40.1 (20161225.0304)
 -->
<!-- Title: /mnt/hdd/C0de/Engines/SFML/SFML_Engine/include/Bullet.hpp Pages: 1 -->
<svg width="737pt" height="330pt"
 viewBox="0.00 0.00 736.62 330.00" xmlns="http://www.w3.org/2000/svg" xmlns:xlink="http://www.w3.org/1999/xlink">
<g id="graph0" class="graph" transform="scale(1 1) rotate(0) translate(4 326)">
<title>/mnt/hdd/C0de/Engines/SFML/SFML_Engine/include/Bullet.hpp</title>
<!-- Node0 -->
<g id="node1" class="node">
<title>Node0</title>
<polygon fill="#bfbfbf" stroke="#000000" points="559.6194,-280.5 559.6194,-321.5 703.6194,-321.5 703.6194,-280.5 559.6194,-280.5"/>
<text text-anchor="start" x="567.6194" y="-309.5" font-family="Helvetica,sans-Serif" font-size="10.00" fill="#000000">/mnt/hdd/C0de/Engines</text>
<text text-anchor="start" x="567.6194" y="-298.5" font-family="Helvetica,sans-Serif" font-size="10.00" fill="#000000">/SFML/SFML_Engine/include</text>
<text text-anchor="middle" x="631.6194" y="-287.5" font-family="Helvetica,sans-Serif" font-size="10.00" fill="#000000">/Bullet.hpp</text>
</g>
<!-- Node1 -->
<g id="node2" class="node">
<title>Node1</title>
<g id="a_node2"><a xlink:href="GameWorld_8hpp.html" target="_top" xlink:title="GameWorld.hpp">
<polygon fill="none" stroke="#000000" points="510.1194,-224.5 510.1194,-243.5 597.1194,-243.5 597.1194,-224.5 510.1194,-224.5"/>
<text text-anchor="middle" x="553.6194" y="-231.5" font-family="Helvetica,sans-Serif" font-size="10.00" fill="#000000">GameWorld.hpp</text>
</a>
</g>
</g>
<!-- Node0&#45;&gt;Node1 -->
<g id="edge1" class="edge">
<title>Node0&#45;&gt;Node1</title>
<path fill="none" stroke="#191970" d="M607.3673,-280.168C596.2164,-270.5897 583.1792,-259.3911 572.7375,-250.422"/>
<polygon fill="#191970" stroke="#191970" points="574.8719,-247.6414 565.0056,-243.7805 570.3107,-252.9514 574.8719,-247.6414"/>
</g>
<!-- Node18 -->
<g id="node19" class="node">
<title>Node18</title>
<polygon fill="none" stroke="#bfbfbf" points="642.6194,-.5 642.6194,-19.5 696.6194,-19.5 696.6194,-.5 642.6194,-.5"/>
<text text-anchor="middle" x="669.6194" y="-7.5" font-family="Helvetica,sans-Serif" font-size="10.00" fill="#000000">iostream</text>
</g>
<!-- Node0&#45;&gt;Node18 -->
<g id="edge28" class="edge">
<title>Node0&#45;&gt;Node18</title>
<path fill="none" stroke="#191970" d="M662.3108,-280.439C690.7288,-258.6815 728.6194,-221.5128 728.6194,-178 728.6194,-178 728.6194,-178 728.6194,-122 728.6194,-91.4754 724.2007,-82.8168 709.6194,-56 703.7961,-45.2903 695.115,-34.9053 687.3268,-26.7211"/>
<polygon fill="#191970" stroke="#191970" points="689.7886,-24.2331 680.2557,-19.6099 684.8249,-29.1688 689.7886,-24.2331"/>
</g>
<!-- Node2 -->
<g id="node3" class="node">
<title>Node2</title>
<polygon fill="none" stroke="#bfbfbf" points="6.6194,-.5 6.6194,-19.5 110.6194,-19.5 110.6194,-.5 6.6194,-.5"/>
<text text-anchor="middle" x="58.6194" y="-7.5" font-family="Helvetica,sans-Serif" font-size="10.00" fill="#000000">SFML/Graphics.hpp</text>
</g>
<!-- Node1&#45;&gt;Node2 -->
<g id="edge2" class="edge">
<title>Node1&#45;&gt;Node2</title>
<path fill="none" stroke="#191970" d="M509.7966,-232.8306C391.3948,-228.6468 69.7393,-210.1624 6.6194,-132 -1.6062,-121.8141 -4.0468,-89.0538 11.6194,-56 17.2169,-44.1899 27.2057,-33.7443 36.5395,-25.8042"/>
<polygon fill="#191970" stroke="#191970" points="38.8093,-28.4709 44.4466,-19.5002 34.4456,-22.9975 38.8093,-28.4709"/>
</g>
<!-- Node3 -->
<g id="node4" class="node">
<title>Node3</title>
<g id="a_node4"><a xlink:href="DEFINITIONS_8hpp.html" target="_top" xlink:title="DEFINITIONS.hpp">
<polygon fill="none" stroke="#000000" points="600.6194,-168.5 600.6194,-187.5 700.6194,-187.5 700.6194,-168.5 600.6194,-168.5"/>
<text text-anchor="middle" x="650.6194" y="-175.5" font-family="Helvetica,sans-Serif" font-size="10.00" fill="#000000">DEFINITIONS.hpp</text>
</a>
</g>
</g>
<!-- Node1&#45;&gt;Node3 -->
<g id="edge3" class="edge">
<title>Node1&#45;&gt;Node3</title>
<path fill="none" stroke="#191970" d="M570.5155,-224.2455C585.5374,-215.5731 607.7237,-202.7645 624.9404,-192.825"/>
<polygon fill="#191970" stroke="#191970" points="627.0065,-195.6737 633.9169,-187.6427 623.5066,-189.6114 627.0065,-195.6737"/>
</g>
<!-- Node4 -->
<g id="node5" class="node">
<title>Node4</title>
<g id="a_node5"><a xlink:href="Game_8hpp.html" target="_top" xlink:title="Game.hpp">
<polygon fill="none" stroke="#000000" points="275.6194,-168.5 275.6194,-187.5 337.6194,-187.5 337.6194,-168.5 275.6194,-168.5"/>
<text text-anchor="middle" x="306.6194" y="-175.5" font-family="Helvetica,sans-Serif" font-size="10.00" fill="#000000">Game.hpp</text>
</a>
</g>
</g>
<!-- Node1&#45;&gt;Node4 -->
<g id="edge4" class="edge">
<title>Node1&#45;&gt;Node4</title>
<path fill="none" stroke="#191970" d="M511.4392,-224.4369C465.5804,-214.0397 392.7921,-197.5371 347.4642,-187.2604"/>
<polygon fill="#191970" stroke="#191970" points="348.2009,-183.8386 337.6744,-185.0408 346.653,-190.6654 348.2009,-183.8386"/>
</g>
<!-- Node13 -->
<g id="node14" class="node">
<title>Node13</title>
<g id="a_node14"><a xlink:href="entity__manager_8h.html" target="_top" xlink:title="entity_manager.h">
<polygon fill="none" stroke="#000000" points="452.6194,-112.5 452.6194,-131.5 544.6194,-131.5 544.6194,-112.5 452.6194,-112.5"/>
<text text-anchor="middle" x="498.6194" y="-119.5" font-family="Helvetica,sans-Serif" font-size="10.00" fill="#000000">entity_manager.h</text>
</a>
</g>
</g>
<!-- Node1&#45;&gt;Node13 -->
<g id="edge26" class="edge">
<title>Node1&#45;&gt;Node13</title>
<path fill="none" stroke="#191970" d="M548.9301,-224.4509C539.838,-205.936 519.6663,-164.8591 507.8116,-140.7187"/>
<polygon fill="#191970" stroke="#191970" points="510.8464,-138.9582 503.2968,-131.5249 504.5631,-142.0438 510.8464,-138.9582"/>
</g>
<!-- Node15 -->
<g id="node16" class="node">
<title>Node15</title>
<polygon fill="none" stroke="#bfbfbf" points="656.6194,-56.5 656.6194,-75.5 700.6194,-75.5 700.6194,-56.5 656.6194,-56.5"/>
<text text-anchor="middle" x="678.6194" y="-63.5" font-family="Helvetica,sans-Serif" font-size="10.00" fill="#000000">vector</text>
</g>
<!-- Node1&#45;&gt;Node15 -->
<g id="edge27" class="edge">
<title>Node1&#45;&gt;Node15</title>
<path fill="none" stroke="#191970" d="M558.5033,-224.2635C565.2755,-211.0803 578.2066,-187.016 591.6194,-168 613.9224,-136.3798 643.9489,-102.8114 662.2614,-83.1607"/>
<polygon fill="#191970" stroke="#191970" points="665.0352,-85.3201 669.3357,-75.6374 659.9356,-80.5249 665.0352,-85.3201"/>
</g>
<!-- Node4&#45;&gt;Node2 -->
<g id="edge7" class="edge">
<title>Node4&#45;&gt;Node2</title>
<path fill="none" stroke="#191970" d="M275.3774,-175.2635C204.4494,-168.7357 36.1108,-151.3451 19.6194,-132 -6.4316,-101.4411 23.6776,-53.2873 43.6779,-27.5683"/>
<polygon fill="#191970" stroke="#191970" points="46.4197,-29.7439 49.9773,-19.7641 40.9728,-25.3472 46.4197,-29.7439"/>
</g>
<!-- Node5 -->
<g id="node6" class="node">
<title>Node5</title>
<polygon fill="none" stroke="#bfbfbf" points="203.6194,-56.5 203.6194,-75.5 255.6194,-75.5 255.6194,-56.5 203.6194,-56.5"/>
<text text-anchor="middle" x="229.6194" y="-63.5" font-family="Helvetica,sans-Serif" font-size="10.00" fill="#000000">memory</text>
</g>
<!-- Node4&#45;&gt;Node5 -->
<g id="edge5" class="edge">
<title>Node4&#45;&gt;Node5</title>
<path fill="none" stroke="#191970" d="M300.0544,-168.4509C287.2117,-149.7707 258.5795,-108.1238 242.0467,-84.0761"/>
<polygon fill="#191970" stroke="#191970" points="244.7172,-81.7825 236.1678,-75.5249 238.9489,-85.7482 244.7172,-81.7825"/>
</g>
<!-- Node6 -->
<g id="node7" class="node">
<title>Node6</title>
<polygon fill="none" stroke="#bfbfbf" points="407.1194,-.5 407.1194,-19.5 448.1194,-19.5 448.1194,-.5 407.1194,-.5"/>
<text text-anchor="middle" x="427.6194" y="-7.5" font-family="Helvetica,sans-Serif" font-size="10.00" fill="#000000">string</text>
</g>
<!-- Node4&#45;&gt;Node6 -->
<g id="edge6" class="edge">
<title>Node4&#45;&gt;Node6</title>
<path fill="none" stroke="#191970" d="M337.7093,-170.6609C358.8627,-164.054 385.7906,-152.1895 401.6194,-132 425.0144,-102.1599 428.5699,-56.0685 428.4805,-29.9145"/>
<polygon fill="#191970" stroke="#191970" points="431.9755,-29.6501 428.2537,-19.7306 424.9773,-29.806 431.9755,-29.6501"/>
</g>
<!-- Node7 -->
<g id="node8" class="node">
<title>Node7</title>
<g id="a_node8"><a xlink:href="StateMachine_8hpp.html" target="_top" xlink:title="StateMachine.hpp">
<polygon fill="none" stroke="#000000" points="297.1194,-112.5 297.1194,-131.5 392.1194,-131.5 392.1194,-112.5 297.1194,-112.5"/>
<text text-anchor="middle" x="344.6194" y="-119.5" font-family="Helvetica,sans-Serif" font-size="10.00" fill="#000000">StateMachine.hpp</text>
</a>
</g>
</g>
<!-- Node4&#45;&gt;Node7 -->
<g id="edge8" class="edge">
<title>Node4&#45;&gt;Node7</title>
<path fill="none" stroke="#191970" d="M313.2385,-168.2455C318.524,-160.4564 326.0735,-149.3308 332.4431,-139.9439"/>
<polygon fill="#191970" stroke="#191970" points="335.3573,-141.8827 338.0761,-131.6427 329.5649,-137.9522 335.3573,-141.8827"/>
</g>
<!-- Node10 -->
<g id="node11" class="node">
<title>Node10</title>
<g id="a_node11"><a xlink:href="AssetManager_8hpp.html" target="_top" xlink:title="AssetManager.hpp">
<polygon fill="none" stroke="#000000" points="28.6194,-112.5 28.6194,-131.5 126.6194,-131.5 126.6194,-112.5 28.6194,-112.5"/>
<text text-anchor="middle" x="77.6194" y="-119.5" font-family="Helvetica,sans-Serif" font-size="10.00" fill="#000000">AssetManager.hpp</text>
</a>
</g>
</g>
<!-- Node4&#45;&gt;Node10 -->
<g id="edge12" class="edge">
<title>Node4&#45;&gt;Node10</title>
<path fill="none" stroke="#191970" d="M275.2581,-170.3309C236.8799,-160.9458 171.4649,-144.9491 126.4727,-133.9467"/>
<polygon fill="#191970" stroke="#191970" points="127.1806,-130.5167 116.6354,-131.541 125.5177,-137.3163 127.1806,-130.5167"/>
</g>
<!-- Node12 -->
<g id="node13" class="node">
<title>Node12</title>
<g id="a_node13"><a xlink:href="InputManager_8hpp.html" target="_top" xlink:title="InputManager.hpp">
<polygon fill="none" stroke="#000000" points="145.1194,-112.5 145.1194,-131.5 240.1194,-131.5 240.1194,-112.5 145.1194,-112.5"/>
<text text-anchor="middle" x="192.6194" y="-119.5" font-family="Helvetica,sans-Serif" font-size="10.00" fill="#000000">InputManager.hpp</text>
</a>
</g>
</g>
<!-- Node4&#45;&gt;Node12 -->
<g id="edge15" class="edge">
<title>Node4&#45;&gt;Node12</title>
<path fill="none" stroke="#191970" d="M287.0221,-168.3733C268.8863,-159.4644 241.7059,-146.1127 221.1607,-136.0203"/>
<polygon fill="#191970" stroke="#191970" points="222.4797,-132.7688 211.961,-131.5011 219.3933,-139.0517 222.4797,-132.7688"/>
</g>
<!-- Node4&#45;&gt;Node13 -->
<g id="edge17" class="edge">
<title>Node4&#45;&gt;Node13</title>
<path fill="none" stroke="#191970" d="M337.8948,-168.878C370.0445,-159.501 420.3221,-144.8367 456.0766,-134.4083"/>
<polygon fill="#191970" stroke="#191970" points="457.129,-137.7473 465.749,-131.5872 455.1689,-131.0273 457.129,-137.7473"/>
</g>
<!-- Node7&#45;&gt;Node5 -->
<g id="edge9" class="edge">
<title>Node7&#45;&gt;Node5</title>
<path fill="none" stroke="#191970" d="M324.8502,-112.3733C306.4725,-103.4241 278.8881,-89.9917 258.1301,-79.8835"/>
<polygon fill="#191970" stroke="#191970" points="259.6537,-76.7325 249.1306,-75.5011 256.589,-83.026 259.6537,-76.7325"/>
</g>
<!-- Node8 -->
<g id="node9" class="node">
<title>Node8</title>
<polygon fill="none" stroke="#bfbfbf" points="274.1194,-56.5 274.1194,-75.5 315.1194,-75.5 315.1194,-56.5 274.1194,-56.5"/>
<text text-anchor="middle" x="294.6194" y="-63.5" font-family="Helvetica,sans-Serif" font-size="10.00" fill="#000000">stack</text>
</g>
<!-- Node7&#45;&gt;Node8 -->
<g id="edge10" class="edge">
<title>Node7&#45;&gt;Node8</title>
<path fill="none" stroke="#191970" d="M335.9101,-112.2455C328.8121,-104.2958 318.611,-92.8706 310.1244,-83.3656"/>
<polygon fill="#191970" stroke="#191970" points="312.4999,-80.771 303.2289,-75.6427 307.2783,-85.4331 312.4999,-80.771"/>
</g>
<!-- Node9 -->
<g id="node10" class="node">
<title>Node9</title>
<g id="a_node10"><a xlink:href="State_8hpp.html" target="_top" xlink:title="State.hpp">
<polygon fill="none" stroke="#000000" points="333.1194,-56.5 333.1194,-75.5 392.1194,-75.5 392.1194,-56.5 333.1194,-56.5"/>
<text text-anchor="middle" x="362.6194" y="-63.5" font-family="Helvetica,sans-Serif" font-size="10.00" fill="#000000">State.hpp</text>
</a>
</g>
</g>
<!-- Node7&#45;&gt;Node9 -->
<g id="edge11" class="edge">
<title>Node7&#45;&gt;Node9</title>
<path fill="none" stroke="#191970" d="M347.7548,-112.2455C350.1293,-104.8579 353.4687,-94.4689 356.3809,-85.4087"/>
<polygon fill="#191970" stroke="#191970" points="359.7919,-86.234 359.52,-75.6427 353.1277,-84.0919 359.7919,-86.234"/>
</g>
<!-- Node10&#45;&gt;Node2 -->
<g id="edge14" class="edge">
<title>Node10&#45;&gt;Node2</title>
<path fill="none" stroke="#191970" d="M75.9995,-112.4509C72.9006,-94.184 66.0761,-53.9553 61.961,-29.6976"/>
<polygon fill="#191970" stroke="#191970" points="65.3585,-28.7986 60.2352,-19.5249 58.4571,-29.9694 65.3585,-28.7986"/>
</g>
<!-- Node11 -->
<g id="node12" class="node">
<title>Node11</title>
<polygon fill="none" stroke="#bfbfbf" points="87.1194,-56.5 87.1194,-75.5 122.1194,-75.5 122.1194,-56.5 87.1194,-56.5"/>
<text text-anchor="middle" x="104.6194" y="-63.5" font-family="Helvetica,sans-Serif" font-size="10.00" fill="#000000">map</text>
</g>
<!-- Node10&#45;&gt;Node11 -->
<g id="edge13" class="edge">
<title>Node10&#45;&gt;Node11</title>
<path fill="none" stroke="#191970" d="M82.3224,-112.2455C85.9618,-104.6973 91.1118,-94.0158 95.5456,-84.8197"/>
<polygon fill="#191970" stroke="#191970" points="98.7799,-86.1704 99.9702,-75.6427 92.4745,-83.1303 98.7799,-86.1704"/>
</g>
<!-- Node12&#45;&gt;Node2 -->
<g id="edge16" class="edge">
<title>Node12&#45;&gt;Node2</title>
<path fill="none" stroke="#191970" d="M184.8575,-112.3288C173.7175,-98.7968 152.1556,-73.8683 130.6194,-56 116.479,-44.268 99.1661,-33.1198 85.0612,-24.7371"/>
<polygon fill="#191970" stroke="#191970" points="86.7243,-21.6555 76.3211,-19.6495 83.2027,-27.7052 86.7243,-21.6555"/>
</g>
<!-- Node14 -->
<g id="node15" class="node">
<title>Node14</title>
<polygon fill="none" stroke="#bfbfbf" points="555.1194,-56.5 555.1194,-75.5 638.1194,-75.5 638.1194,-56.5 555.1194,-56.5"/>
<text text-anchor="middle" x="596.6194" y="-63.5" font-family="Helvetica,sans-Serif" font-size="10.00" fill="#000000">unordered_map</text>
</g>
<!-- Node13&#45;&gt;Node14 -->
<g id="edge18" class="edge">
<title>Node13&#45;&gt;Node14</title>
<path fill="none" stroke="#191970" d="M515.6897,-112.2455C530.8664,-103.5731 553.2815,-90.7645 570.6757,-80.825"/>
<polygon fill="#191970" stroke="#191970" points="572.7988,-83.643 579.7447,-75.6427 569.3258,-77.5653 572.7988,-83.643"/>
</g>
<!-- Node13&#45;&gt;Node15 -->
<g id="edge19" class="edge">
<title>Node13&#45;&gt;Node15</title>
<path fill="none" stroke="#191970" d="M530.0489,-112.4227C558.2835,-103.7911 601.1154,-90.6289 647.0751,-76.1469"/>
<polygon fill="#191970" stroke="#191970" points="648.132,-79.4836 656.6149,-73.136 646.0251,-72.8082 648.132,-79.4836"/>
</g>
<!-- Node16 -->
<g id="node17" class="node">
<title>Node16</title>
<polygon fill="none" stroke="#bfbfbf" points="479.6194,-.5 479.6194,-19.5 559.6194,-19.5 559.6194,-.5 479.6194,-.5"/>
<text text-anchor="middle" x="519.6194" y="-7.5" font-family="Helvetica,sans-Serif" font-size="10.00" fill="#000000">box2d/box2d.h</text>
</g>
<!-- Node13&#45;&gt;Node16 -->
<g id="edge20" class="edge">
<title>Node13&#45;&gt;Node16</title>
<path fill="none" stroke="#191970" d="M500.5181,-112.4924C502.3655,-103.1954 505.235,-88.6343 507.6194,-76 510.526,-60.5987 513.6929,-43.1507 516.0432,-30.0641"/>
<polygon fill="#191970" stroke="#191970" points="519.5551,-30.3077 517.8713,-19.8476 512.6645,-29.0747 519.5551,-30.3077"/>
</g>
<!-- Node17 -->
<g id="node18" class="node">
<title>Node17</title>
<g id="a_node18"><a xlink:href="entity_8h.html" target="_top" xlink:title="entity.h">
<polygon fill="none" stroke="#000000" points="449.1194,-56.5 449.1194,-75.5 498.1194,-75.5 498.1194,-56.5 449.1194,-56.5"/>
<text text-anchor="middle" x="473.6194" y="-63.5" font-family="Helvetica,sans-Serif" font-size="10.00" fill="#000000">entity.h</text>
</a>
</g>
</g>
<!-- Node13&#45;&gt;Node17 -->
<g id="edge21" class="edge">
<title>Node13&#45;&gt;Node17</title>
<path fill="none" stroke="#191970" d="M494.2647,-112.2455C490.895,-104.6973 486.1264,-94.0158 482.0211,-84.8197"/>
<polygon fill="#191970" stroke="#191970" points="485.1967,-83.3473 477.9242,-75.6427 478.8047,-86.2009 485.1967,-83.3473"/>
</g>
<!-- Node17&#45;&gt;Node2 -->
<g id="edge22" class="edge">
<title>Node17&#45;&gt;Node2</title>
<path fill="none" stroke="#191970" d="M448.9642,-62.5465C435.0625,-60.6066 417.3745,-58.1506 401.6194,-56 303.5201,-42.6095 189.5887,-27.3974 120.8569,-18.2575"/>
<polygon fill="#191970" stroke="#191970" points="121.0116,-14.7473 110.6375,-16.899 120.0891,-21.6863 121.0116,-14.7473"/>
</g>
<!-- Node17&#45;&gt;Node6 -->
<g id="edge23" class="edge">
<title>Node17&#45;&gt;Node6</title>
<path fill="none" stroke="#191970" d="M465.6068,-56.2455C459.1426,-48.3761 449.8809,-37.101 442.121,-27.6542"/>
<polygon fill="#191970" stroke="#191970" points="444.5921,-25.1484 435.5402,-19.6427 439.183,-29.5916 444.5921,-25.1484"/>
</g>
<!-- Node17&#45;&gt;Node16 -->
<g id="edge24" class="edge">
<title>Node17&#45;&gt;Node16</title>
<path fill="none" stroke="#191970" d="M481.632,-56.2455C488.0961,-48.3761 497.3578,-37.101 505.1177,-27.6542"/>
<polygon fill="#191970" stroke="#191970" points="508.0557,-29.5916 511.6986,-19.6427 502.6466,-25.1484 508.0557,-29.5916"/>
</g>
<!-- Node17&#45;&gt;Node18 -->
<g id="edge25" class="edge">
<title>Node17&#45;&gt;Node18</title>
<path fill="none" stroke="#191970" d="M498.4429,-58.9076C532.3672,-49.2149 593.4722,-31.7564 632.7552,-20.5326"/>
<polygon fill="#191970" stroke="#191970" points="633.8318,-23.8652 642.4855,-17.7525 631.9087,-17.1345 633.8318,-23.8652"/>
</g>
</g>
</svg>
