<?xml version="1.0" encoding="UTF-8" standalone="no"?>
<!DOCTYPE svg PUBLIC "-//W3C//DTD SVG 1.1//EN"
 "http://www.w3.org/Graphics/SVG/1.1/DTD/svg11.dtd">
<!-- Generated by graphviz version 2.40.1 (20161225.0304)
 -->
<!-- Title: /mnt/hdd/C0de/Engines/SFML/SFML_Engine/include/Bullet.hpp Pages: 1 -->
<svg width="827pt" height="440pt"
 viewBox="0.00 0.00 826.50 440.00" xmlns="http://www.w3.org/2000/svg" xmlns:xlink="http://www.w3.org/1999/xlink">
<g id="graph0" class="graph" transform="scale(1 1) rotate(0) translate(4 436)">
<title>/mnt/hdd/C0de/Engines/SFML/SFML_Engine/include/Bullet.hpp</title>
<!-- Node19 -->
<g id="node1" class="node">
<title>Node19</title>
<polygon fill="#bfbfbf" stroke="#000000" points="348,-390.5 348,-431.5 492,-431.5 492,-390.5 348,-390.5"/>
<text text-anchor="start" x="356" y="-419.5" font-family="Helvetica,sans-Serif" font-size="10.00" fill="#000000">/mnt/hdd/C0de/Engines</text>
<text text-anchor="start" x="356" y="-408.5" font-family="Helvetica,sans-Serif" font-size="10.00" fill="#000000">/SFML/SFML_Engine/include</text>
<text text-anchor="middle" x="420" y="-397.5" font-family="Helvetica,sans-Serif" font-size="10.00" fill="#000000">/Bullet.hpp</text>
</g>
<!-- Node20 -->
<g id="node2" class="node">
<title>Node20</title>
<g id="a_node2"><a xlink:href="Gun_8hpp.html" target="_top" xlink:title="/mnt/hdd/C0de/Engines\l/SFML/SFML_Engine/include\l/Gun.hpp">
<polygon fill="none" stroke="#000000" points="271,-312.5 271,-353.5 415,-353.5 415,-312.5 271,-312.5"/>
<text text-anchor="start" x="279" y="-341.5" font-family="Helvetica,sans-Serif" font-size="10.00" fill="#000000">/mnt/hdd/C0de/Engines</text>
<text text-anchor="start" x="279" y="-330.5" font-family="Helvetica,sans-Serif" font-size="10.00" fill="#000000">/SFML/SFML_Engine/include</text>
<text text-anchor="middle" x="343" y="-319.5" font-family="Helvetica,sans-Serif" font-size="10.00" fill="#000000">/Gun.hpp</text>
</a>
</g>
</g>
<!-- Node19&#45;&gt;Node20 -->
<g id="edge1" class="edge">
<title>Node19&#45;&gt;Node20</title>
<path fill="none" stroke="#191970" d="M392.3049,-382.9452C382.7702,-373.2866 372.2734,-362.6535 363.4245,-353.6898"/>
<polygon fill="#191970" stroke="#191970" points="389.8493,-385.4397 399.3654,-390.0974 394.8309,-380.522 389.8493,-385.4397"/>
</g>
<!-- Node21 -->
<g id="node3" class="node">
<title>Node21</title>
<g id="a_node3"><a xlink:href="Enemy_8hpp.html" target="_top" xlink:title="/mnt/hdd/C0de/Engines\l/SFML/SFML_Engine/include\l/Enemy.hpp">
<polygon fill="none" stroke="#000000" points="104,-234.5 104,-275.5 248,-275.5 248,-234.5 104,-234.5"/>
<text text-anchor="start" x="112" y="-263.5" font-family="Helvetica,sans-Serif" font-size="10.00" fill="#000000">/mnt/hdd/C0de/Engines</text>
<text text-anchor="start" x="112" y="-252.5" font-family="Helvetica,sans-Serif" font-size="10.00" fill="#000000">/SFML/SFML_Engine/include</text>
<text text-anchor="middle" x="176" y="-241.5" font-family="Helvetica,sans-Serif" font-size="10.00" fill="#000000">/Enemy.hpp</text>
</a>
</g>
</g>
<!-- Node19&#45;&gt;Node21 -->
<g id="edge25" class="edge">
<title>Node19&#45;&gt;Node21</title>
<path fill="none" stroke="#191970" d="M338.1411,-390.274C312.4292,-381.5198 284.8212,-369.6426 262,-354 231.0149,-332.7614 204.2453,-297.774 189.1291,-275.5839"/>
<polygon fill="#191970" stroke="#191970" points="337.2958,-393.6803 347.8887,-393.4775 339.4814,-387.0302 337.2958,-393.6803"/>
</g>
<!-- Node22 -->
<g id="node4" class="node">
<title>Node22</title>
<g id="a_node4"><a xlink:href="LoadingGameObjects_8hpp.html" target="_top" xlink:title="/mnt/hdd/C0de/Engines\l/SFML/SFML_Engine/include\l/LoadingGameObjects.hpp">
<polygon fill="none" stroke="#000000" points="228,-156.5 228,-197.5 372,-197.5 372,-156.5 228,-156.5"/>
<text text-anchor="start" x="236" y="-185.5" font-family="Helvetica,sans-Serif" font-size="10.00" fill="#000000">/mnt/hdd/C0de/Engines</text>
<text text-anchor="start" x="236" y="-174.5" font-family="Helvetica,sans-Serif" font-size="10.00" fill="#000000">/SFML/SFML_Engine/include</text>
<text text-anchor="middle" x="300" y="-163.5" font-family="Helvetica,sans-Serif" font-size="10.00" fill="#000000">/LoadingGameObjects.hpp</text>
</a>
</g>
</g>
<!-- Node19&#45;&gt;Node22 -->
<g id="edge27" class="edge">
<title>Node19&#45;&gt;Node22</title>
<path fill="none" stroke="#191970" d="M337.4325,-394.5786C298.6581,-385.2915 252.4094,-371.9022 213,-354 155.7623,-327.9991 124.7727,-331.3695 95,-276 86.1597,-259.5594 83.7062,-248.8625 95,-234 97.1337,-231.1921 169.7066,-211.4415 227.8998,-195.9666"/>
<polygon fill="#191970" stroke="#191970" points="337.1033,-398.0962 347.6381,-396.9703 338.7006,-391.2808 337.1033,-398.0962"/>
</g>
<!-- Node26 -->
<g id="node8" class="node">
<title>Node26</title>
<g id="a_node8"><a xlink:href="GameState_8hpp.html" target="_top" xlink:title="/mnt/hdd/C0de/Engines\l/SFML/SFML_Engine/include\l/GameState.hpp">
<polygon fill="none" stroke="#000000" points="474,-78.5 474,-119.5 618,-119.5 618,-78.5 474,-78.5"/>
<text text-anchor="start" x="482" y="-107.5" font-family="Helvetica,sans-Serif" font-size="10.00" fill="#000000">/mnt/hdd/C0de/Engines</text>
<text text-anchor="start" x="482" y="-96.5" font-family="Helvetica,sans-Serif" font-size="10.00" fill="#000000">/SFML/SFML_Engine/include</text>
<text text-anchor="middle" x="546" y="-85.5" font-family="Helvetica,sans-Serif" font-size="10.00" fill="#000000">/GameState.hpp</text>
</a>
</g>
</g>
<!-- Node19&#45;&gt;Node26 -->
<g id="edge28" class="edge">
<title>Node19&#45;&gt;Node26</title>
<path fill="none" stroke="#191970" d="M463.8586,-384.7525C498.5702,-361.1888 544.4988,-323.0985 565,-276 587.9428,-223.2922 567.5169,-153.7384 554.6311,-119.642"/>
<polygon fill="#191970" stroke="#191970" points="461.6992,-381.9847 455.2976,-390.4269 465.5666,-387.8194 461.6992,-381.9847"/>
</g>
<!-- Node34 -->
<g id="node16" class="node">
<title>Node34</title>
<g id="a_node16"><a xlink:href="Main__Player_8hpp.html" target="_top" xlink:title="/mnt/hdd/C0de/Engines\l/SFML/SFML_Engine/include\l/Main_Player.hpp">
<polygon fill="none" stroke="#000000" points="412,-234.5 412,-275.5 556,-275.5 556,-234.5 412,-234.5"/>
<text text-anchor="start" x="420" y="-263.5" font-family="Helvetica,sans-Serif" font-size="10.00" fill="#000000">/mnt/hdd/C0de/Engines</text>
<text text-anchor="start" x="420" y="-252.5" font-family="Helvetica,sans-Serif" font-size="10.00" fill="#000000">/SFML/SFML_Engine/include</text>
<text text-anchor="middle" x="484" y="-241.5" font-family="Helvetica,sans-Serif" font-size="10.00" fill="#000000">/Main_Player.hpp</text>
</a>
</g>
</g>
<!-- Node19&#45;&gt;Node34 -->
<g id="edge26" class="edge">
<title>Node19&#45;&gt;Node34</title>
<path fill="none" stroke="#191970" d="M432.3584,-380.8763C445.0302,-349.9889 464.403,-302.7676 475.4661,-275.8013"/>
<polygon fill="#191970" stroke="#191970" points="429.0562,-379.7042 428.4987,-390.2844 435.5324,-382.3612 429.0562,-379.7042"/>
</g>
<!-- Node37 -->
<g id="node19" class="node">
<title>Node37</title>
<g id="a_node19"><a xlink:href="Bullet_8cpp.html" target="_top" xlink:title="/mnt/hdd/C0de/Engines\l/SFML/SFML_Engine/src\l/Bullet.cpp">
<polygon fill="none" stroke="#000000" points="612.5,-312.5 612.5,-353.5 739.5,-353.5 739.5,-312.5 612.5,-312.5"/>
<text text-anchor="start" x="620.5" y="-341.5" font-family="Helvetica,sans-Serif" font-size="10.00" fill="#000000">/mnt/hdd/C0de/Engines</text>
<text text-anchor="start" x="620.5" y="-330.5" font-family="Helvetica,sans-Serif" font-size="10.00" fill="#000000">/SFML/SFML_Engine/src</text>
<text text-anchor="middle" x="676" y="-319.5" font-family="Helvetica,sans-Serif" font-size="10.00" fill="#000000">/Bullet.cpp</text>
</a>
</g>
</g>
<!-- Node19&#45;&gt;Node37 -->
<g id="edge29" class="edge">
<title>Node19&#45;&gt;Node37</title>
<path fill="none" stroke="#191970" d="M497.2923,-387.45C534.0987,-376.2355 577.5777,-362.988 612.4332,-352.368"/>
<polygon fill="#191970" stroke="#191970" points="496.1416,-384.1417 487.5959,-390.4044 498.1818,-390.8378 496.1416,-384.1417"/>
</g>
<!-- Node20&#45;&gt;Node21 -->
<g id="edge2" class="edge">
<title>Node20&#45;&gt;Node21</title>
<path fill="none" stroke="#191970" d="M289.6069,-308.0619C267.1299,-297.5637 241.2923,-285.4958 219.9421,-275.5239"/>
<polygon fill="#191970" stroke="#191970" points="288.1439,-311.2415 298.6855,-312.3022 291.1062,-304.8992 288.1439,-311.2415"/>
</g>
<!-- Node20&#45;&gt;Node34 -->
<g id="edge20" class="edge">
<title>Node20&#45;&gt;Node34</title>
<path fill="none" stroke="#191970" d="M389.3497,-307.3597C408.0257,-297.0283 429.2736,-285.2742 446.8992,-275.5239"/>
<polygon fill="#191970" stroke="#191970" points="387.4713,-304.3989 380.4152,-312.3022 390.8598,-310.5242 387.4713,-304.3989"/>
</g>
<!-- Node36 -->
<g id="node18" class="node">
<title>Node36</title>
<g id="a_node18"><a xlink:href="Gun_8cpp.html" target="_top" xlink:title="/mnt/hdd/C0de/Engines\l/SFML/SFML_Engine/src\l/Gun.cpp">
<polygon fill="none" stroke="#000000" points="266.5,-234.5 266.5,-275.5 393.5,-275.5 393.5,-234.5 266.5,-234.5"/>
<text text-anchor="start" x="274.5" y="-263.5" font-family="Helvetica,sans-Serif" font-size="10.00" fill="#000000">/mnt/hdd/C0de/Engines</text>
<text text-anchor="start" x="274.5" y="-252.5" font-family="Helvetica,sans-Serif" font-size="10.00" fill="#000000">/SFML/SFML_Engine/src</text>
<text text-anchor="middle" x="330" y="-241.5" font-family="Helvetica,sans-Serif" font-size="10.00" fill="#000000">/Gun.cpp</text>
</a>
</g>
</g>
<!-- Node20&#45;&gt;Node36 -->
<g id="edge24" class="edge">
<title>Node20&#45;&gt;Node36</title>
<path fill="none" stroke="#191970" d="M337.8465,-302.0789C336.3696,-293.2178 334.7958,-283.7747 333.4483,-275.6898"/>
<polygon fill="#191970" stroke="#191970" points="334.4198,-302.8089 339.5162,-312.0974 341.3245,-301.6581 334.4198,-302.8089"/>
</g>
<!-- Node21&#45;&gt;Node22 -->
<g id="edge3" class="edge">
<title>Node21&#45;&gt;Node22</title>
<path fill="none" stroke="#191970" d="M217.6595,-228.7948C233.8642,-218.6016 252.1536,-207.0969 267.3723,-197.5239"/>
<polygon fill="#191970" stroke="#191970" points="215.5052,-226.015 208.9042,-234.3022 219.2324,-231.9403 215.5052,-226.015"/>
</g>
<!-- Node33 -->
<g id="node15" class="node">
<title>Node33</title>
<g id="a_node15"><a xlink:href="Enemy_8cpp.html" target="_top" xlink:title="/mnt/hdd/C0de/Engines\l/SFML/SFML_Engine/src\l/Enemy.cpp">
<polygon fill="none" stroke="#000000" points="82.5,-156.5 82.5,-197.5 209.5,-197.5 209.5,-156.5 82.5,-156.5"/>
<text text-anchor="start" x="90.5" y="-185.5" font-family="Helvetica,sans-Serif" font-size="10.00" fill="#000000">/mnt/hdd/C0de/Engines</text>
<text text-anchor="start" x="90.5" y="-174.5" font-family="Helvetica,sans-Serif" font-size="10.00" fill="#000000">/SFML/SFML_Engine/src</text>
<text text-anchor="middle" x="146" y="-163.5" font-family="Helvetica,sans-Serif" font-size="10.00" fill="#000000">/Enemy.cpp</text>
</a>
</g>
</g>
<!-- Node21&#45;&gt;Node33 -->
<g id="edge19" class="edge">
<title>Node21&#45;&gt;Node33</title>
<path fill="none" stroke="#191970" d="M164.3292,-224.6559C160.8573,-215.629 157.1348,-205.9505 153.9576,-197.6898"/>
<polygon fill="#191970" stroke="#191970" points="161.104,-226.0204 167.9606,-234.0974 167.6374,-223.5075 161.104,-226.0204"/>
</g>
<!-- Node23 -->
<g id="node5" class="node">
<title>Node23</title>
<g id="a_node5"><a xlink:href="GameOverState_8hpp.html" target="_top" xlink:title="/mnt/hdd/C0de/Engines\l/SFML/SFML_Engine/include\l/GameOverState.hpp">
<polygon fill="none" stroke="#000000" points="636,-78.5 636,-119.5 780,-119.5 780,-78.5 636,-78.5"/>
<text text-anchor="start" x="644" y="-107.5" font-family="Helvetica,sans-Serif" font-size="10.00" fill="#000000">/mnt/hdd/C0de/Engines</text>
<text text-anchor="start" x="644" y="-96.5" font-family="Helvetica,sans-Serif" font-size="10.00" fill="#000000">/SFML/SFML_Engine/include</text>
<text text-anchor="middle" x="708" y="-85.5" font-family="Helvetica,sans-Serif" font-size="10.00" fill="#000000">/GameOverState.hpp</text>
</a>
</g>
</g>
<!-- Node22&#45;&gt;Node23 -->
<g id="edge4" class="edge">
<title>Node22&#45;&gt;Node23</title>
<path fill="none" stroke="#191970" d="M382.4515,-156.0295C491.6814,-134.7337 522.2912,-141.202 627,-120 629.8477,-119.4234 632.7448,-118.8087 635.6663,-118.1654"/>
<polygon fill="#191970" stroke="#191970" points="381.4702,-152.6559 372.3425,-158.0351 382.8324,-159.5221 381.4702,-152.6559"/>
</g>
<!-- Node22&#45;&gt;Node26 -->
<g id="edge7" class="edge">
<title>Node22&#45;&gt;Node26</title>
<path fill="none" stroke="#191970" d="M374.8185,-153.277C408.7396,-142.5216 448.4676,-129.9249 481.1075,-119.5757"/>
<polygon fill="#191970" stroke="#191970" points="373.4298,-150.0456 364.9554,-156.4044 375.5456,-156.7182 373.4298,-150.0456"/>
</g>
<!-- Node29 -->
<g id="node11" class="node">
<title>Node29</title>
<g id="a_node11"><a xlink:href="MainMenuState_8hpp.html" target="_top" xlink:title="/mnt/hdd/C0de/Engines\l/SFML/SFML_Engine/include\l/MainMenuState.hpp">
<polygon fill="none" stroke="#000000" points="312,-78.5 312,-119.5 456,-119.5 456,-78.5 312,-78.5"/>
<text text-anchor="start" x="320" y="-107.5" font-family="Helvetica,sans-Serif" font-size="10.00" fill="#000000">/mnt/hdd/C0de/Engines</text>
<text text-anchor="start" x="320" y="-96.5" font-family="Helvetica,sans-Serif" font-size="10.00" fill="#000000">/SFML/SFML_Engine/include</text>
<text text-anchor="middle" x="384" y="-85.5" font-family="Helvetica,sans-Serif" font-size="10.00" fill="#000000">/MainMenuState.hpp</text>
</a>
</g>
</g>
<!-- Node22&#45;&gt;Node29 -->
<g id="edge12" class="edge">
<title>Node22&#45;&gt;Node29</title>
<path fill="none" stroke="#191970" d="M329.9072,-149.229C340.3897,-139.4953 351.9708,-128.7414 361.7187,-119.6898"/>
<polygon fill="#191970" stroke="#191970" points="327.4568,-146.7281 322.5105,-156.0974 332.22,-151.8577 327.4568,-146.7281"/>
</g>
<!-- Node31 -->
<g id="node13" class="node">
<title>Node31</title>
<g id="a_node13"><a xlink:href="SplashState_8hpp.html" target="_top" xlink:title="/mnt/hdd/C0de/Engines\l/SFML/SFML_Engine/include\l/SplashState.hpp">
<polygon fill="none" stroke="#000000" points="150,-78.5 150,-119.5 294,-119.5 294,-78.5 150,-78.5"/>
<text text-anchor="start" x="158" y="-107.5" font-family="Helvetica,sans-Serif" font-size="10.00" fill="#000000">/mnt/hdd/C0de/Engines</text>
<text text-anchor="start" x="158" y="-96.5" font-family="Helvetica,sans-Serif" font-size="10.00" fill="#000000">/SFML/SFML_Engine/include</text>
<text text-anchor="middle" x="222" y="-85.5" font-family="Helvetica,sans-Serif" font-size="10.00" fill="#000000">/SplashState.hpp</text>
</a>
</g>
</g>
<!-- Node22&#45;&gt;Node31 -->
<g id="edge15" class="edge">
<title>Node22&#45;&gt;Node31</title>
<path fill="none" stroke="#191970" d="M271.9452,-148.9452C262.2866,-139.2866 251.6535,-128.6535 242.6898,-119.6898"/>
<polygon fill="#191970" stroke="#191970" points="269.5515,-151.5012 279.0974,-156.0974 274.5012,-146.5515 269.5515,-151.5012"/>
</g>
<!-- Node32 -->
<g id="node14" class="node">
<title>Node32</title>
<g id="a_node14"><a xlink:href="LoadingGameObjects_8cpp.html" target="_top" xlink:title="/mnt/hdd/C0de/Engines\l/SFML/SFML_Engine/src\l/LoadingGameObjects.cpp">
<polygon fill="none" stroke="#000000" points="0,-78.5 0,-119.5 132,-119.5 132,-78.5 0,-78.5"/>
<text text-anchor="start" x="8" y="-107.5" font-family="Helvetica,sans-Serif" font-size="10.00" fill="#000000">/mnt/hdd/C0de/Engines</text>
<text text-anchor="start" x="8" y="-96.5" font-family="Helvetica,sans-Serif" font-size="10.00" fill="#000000">/SFML/SFML_Engine/src</text>
<text text-anchor="middle" x="66" y="-85.5" font-family="Helvetica,sans-Serif" font-size="10.00" fill="#000000">/LoadingGameObjects.cpp</text>
</a>
</g>
</g>
<!-- Node22&#45;&gt;Node32 -->
<g id="edge18" class="edge">
<title>Node22&#45;&gt;Node32</title>
<path fill="none" stroke="#191970" d="M228.4154,-153.1385C196.2405,-142.4135 158.6415,-129.8805 127.727,-119.5757"/>
<polygon fill="#191970" stroke="#191970" points="227.6195,-156.5624 238.2132,-156.4044 229.8331,-149.9217 227.6195,-156.5624"/>
</g>
<!-- Node24 -->
<g id="node6" class="node">
<title>Node24</title>
<g id="a_node6"><a xlink:href="GameOverState_8cpp.html" target="_top" xlink:title="/mnt/hdd/C0de/Engines\l/SFML/SFML_Engine/src\l/GameOverState.cpp">
<polygon fill="none" stroke="#000000" points="546.5,-.5 546.5,-41.5 673.5,-41.5 673.5,-.5 546.5,-.5"/>
<text text-anchor="start" x="554.5" y="-29.5" font-family="Helvetica,sans-Serif" font-size="10.00" fill="#000000">/mnt/hdd/C0de/Engines</text>
<text text-anchor="start" x="554.5" y="-18.5" font-family="Helvetica,sans-Serif" font-size="10.00" fill="#000000">/SFML/SFML_Engine/src</text>
<text text-anchor="middle" x="610" y="-7.5" font-family="Helvetica,sans-Serif" font-size="10.00" fill="#000000">/GameOverState.cpp</text>
</a>
</g>
</g>
<!-- Node23&#45;&gt;Node24 -->
<g id="edge5" class="edge">
<title>Node23&#45;&gt;Node24</title>
<path fill="none" stroke="#191970" d="M674.0046,-71.9424C661.4675,-61.9639 647.48,-50.831 635.7864,-41.5239"/>
<polygon fill="#191970" stroke="#191970" points="671.9912,-74.8132 681.9951,-78.3022 676.3504,-69.3362 671.9912,-74.8132"/>
</g>
<!-- Node25 -->
<g id="node7" class="node">
<title>Node25</title>
<g id="a_node7"><a xlink:href="GameState_8cpp.html" target="_top" xlink:title="/mnt/hdd/C0de/Engines\l/SFML/SFML_Engine/src\l/GameState.cpp">
<polygon fill="none" stroke="#000000" points="691.5,-.5 691.5,-41.5 818.5,-41.5 818.5,-.5 691.5,-.5"/>
<text text-anchor="start" x="699.5" y="-29.5" font-family="Helvetica,sans-Serif" font-size="10.00" fill="#000000">/mnt/hdd/C0de/Engines</text>
<text text-anchor="start" x="699.5" y="-18.5" font-family="Helvetica,sans-Serif" font-size="10.00" fill="#000000">/SFML/SFML_Engine/src</text>
<text text-anchor="middle" x="755" y="-7.5" font-family="Helvetica,sans-Serif" font-size="10.00" fill="#000000">/GameState.cpp</text>
</a>
</g>
</g>
<!-- Node23&#45;&gt;Node25 -->
<g id="edge6" class="edge">
<title>Node23&#45;&gt;Node25</title>
<path fill="none" stroke="#191970" d="M725.7647,-69.5181C731.3504,-60.2482 737.3966,-50.2141 742.5331,-41.6898"/>
<polygon fill="#191970" stroke="#191970" points="722.7584,-67.7258 720.5951,-78.0974 728.7541,-71.3386 722.7584,-67.7258"/>
</g>
<!-- Node26&#45;&gt;Node24 -->
<g id="edge9" class="edge">
<title>Node26&#45;&gt;Node24</title>
<path fill="none" stroke="#191970" d="M569.7206,-70.0905C577.4563,-60.6626 585.8852,-50.3899 593.0238,-41.6898"/>
<polygon fill="#191970" stroke="#191970" points="566.7883,-68.1466 563.1508,-78.0974 572.1998,-72.5868 566.7883,-68.1466"/>
</g>
<!-- Node26&#45;&gt;Node25 -->
<g id="edge10" class="edge">
<title>Node26&#45;&gt;Node25</title>
<path fill="none" stroke="#191970" d="M610.681,-74.8607C639.2527,-64.1976 672.4941,-51.7917 699.8678,-41.5757"/>
<polygon fill="#191970" stroke="#191970" points="609.3307,-71.6287 601.1857,-78.4044 611.7783,-78.1869 609.3307,-71.6287"/>
</g>
<!-- Node27 -->
<g id="node9" class="node">
<title>Node27</title>
<g id="a_node9"><a xlink:href="Game_8cpp.html" target="_top" xlink:title="/mnt/hdd/C0de/Engines\l/SFML/SFML_Engine/src\l/Game.cpp">
<polygon fill="none" stroke="#000000" points="256.5,-.5 256.5,-41.5 383.5,-41.5 383.5,-.5 256.5,-.5"/>
<text text-anchor="start" x="264.5" y="-29.5" font-family="Helvetica,sans-Serif" font-size="10.00" fill="#000000">/mnt/hdd/C0de/Engines</text>
<text text-anchor="start" x="264.5" y="-18.5" font-family="Helvetica,sans-Serif" font-size="10.00" fill="#000000">/SFML/SFML_Engine/src</text>
<text text-anchor="middle" x="320" y="-7.5" font-family="Helvetica,sans-Serif" font-size="10.00" fill="#000000">/Game.cpp</text>
</a>
</g>
</g>
<!-- Node26&#45;&gt;Node27 -->
<g id="edge8" class="edge">
<title>Node26&#45;&gt;Node27</title>
<path fill="none" stroke="#191970" d="M476.8627,-75.1385C445.7878,-64.4135 409.4743,-51.8805 379.6167,-41.5757"/>
<polygon fill="#191970" stroke="#191970" points="475.7308,-78.4503 486.3255,-78.4044 478.0146,-71.8333 475.7308,-78.4503"/>
</g>
<!-- Node28 -->
<g id="node10" class="node">
<title>Node28</title>
<g id="a_node10"><a xlink:href="MainMenuState_8cpp.html" target="_top" xlink:title="/mnt/hdd/C0de/Engines\l/SFML/SFML_Engine/src\l/MainMenuState.cpp">
<polygon fill="none" stroke="#000000" points="401.5,-.5 401.5,-41.5 528.5,-41.5 528.5,-.5 401.5,-.5"/>
<text text-anchor="start" x="409.5" y="-29.5" font-family="Helvetica,sans-Serif" font-size="10.00" fill="#000000">/mnt/hdd/C0de/Engines</text>
<text text-anchor="start" x="409.5" y="-18.5" font-family="Helvetica,sans-Serif" font-size="10.00" fill="#000000">/SFML/SFML_Engine/src</text>
<text text-anchor="middle" x="465" y="-7.5" font-family="Helvetica,sans-Serif" font-size="10.00" fill="#000000">/MainMenuState.cpp</text>
</a>
</g>
</g>
<!-- Node26&#45;&gt;Node28 -->
<g id="edge11" class="edge">
<title>Node26&#45;&gt;Node28</title>
<path fill="none" stroke="#191970" d="M516.8662,-70.9452C506.8361,-61.2866 495.7941,-50.6535 486.4856,-41.6898"/>
<polygon fill="#191970" stroke="#191970" points="514.6625,-73.6821 524.2935,-78.0974 519.518,-68.6399 514.6625,-73.6821"/>
</g>
<!-- Node29&#45;&gt;Node28 -->
<g id="edge13" class="edge">
<title>Node29&#45;&gt;Node28</title>
<path fill="none" stroke="#191970" d="M413.1338,-70.9452C423.1639,-61.2866 434.2059,-50.6535 443.5144,-41.6898"/>
<polygon fill="#191970" stroke="#191970" points="410.482,-68.6399 405.7065,-78.0974 415.3375,-73.6821 410.482,-68.6399"/>
</g>
<!-- Node30 -->
<g id="node12" class="node">
<title>Node30</title>
<g id="a_node12"><a xlink:href="SplashState_8cpp.html" target="_top" xlink:title="/mnt/hdd/C0de/Engines\l/SFML/SFML_Engine/src\l/SplashState.cpp">
<polygon fill="none" stroke="#000000" points="111.5,-.5 111.5,-41.5 238.5,-41.5 238.5,-.5 111.5,-.5"/>
<text text-anchor="start" x="119.5" y="-29.5" font-family="Helvetica,sans-Serif" font-size="10.00" fill="#000000">/mnt/hdd/C0de/Engines</text>
<text text-anchor="start" x="119.5" y="-18.5" font-family="Helvetica,sans-Serif" font-size="10.00" fill="#000000">/SFML/SFML_Engine/src</text>
<text text-anchor="middle" x="175" y="-7.5" font-family="Helvetica,sans-Serif" font-size="10.00" fill="#000000">/SplashState.cpp</text>
</a>
</g>
</g>
<!-- Node29&#45;&gt;Node30 -->
<g id="edge14" class="edge">
<title>Node29&#45;&gt;Node30</title>
<path fill="none" stroke="#191970" d="M319.319,-74.8607C290.7473,-64.1976 257.5059,-51.7917 230.1322,-41.5757"/>
<polygon fill="#191970" stroke="#191970" points="318.2217,-78.1869 328.8143,-78.4044 320.6693,-71.6287 318.2217,-78.1869"/>
</g>
<!-- Node31&#45;&gt;Node27 -->
<g id="edge16" class="edge">
<title>Node31&#45;&gt;Node27</title>
<path fill="none" stroke="#191970" d="M255.9954,-71.9424C268.5325,-61.9639 282.52,-50.831 294.2136,-41.5239"/>
<polygon fill="#191970" stroke="#191970" points="253.6496,-69.3362 248.0049,-78.3022 258.0088,-74.8132 253.6496,-69.3362"/>
</g>
<!-- Node31&#45;&gt;Node30 -->
<g id="edge17" class="edge">
<title>Node31&#45;&gt;Node30</title>
<path fill="none" stroke="#191970" d="M204.2353,-69.5181C198.6496,-60.2482 192.6034,-50.2141 187.4669,-41.6898"/>
<polygon fill="#191970" stroke="#191970" points="201.2459,-71.3386 209.4049,-78.0974 207.2416,-67.7258 201.2459,-71.3386"/>
</g>
<!-- Node34&#45;&gt;Node22 -->
<g id="edge21" class="edge">
<title>Node34&#45;&gt;Node22</title>
<path fill="none" stroke="#191970" d="M425.8312,-230.3415C400.913,-219.7784 372.1479,-207.5844 348.4153,-197.5239"/>
<polygon fill="#191970" stroke="#191970" points="424.6015,-233.6216 435.1745,-234.3022 427.3336,-227.1768 424.6015,-233.6216"/>
</g>
<!-- Node34&#45;&gt;Node26 -->
<g id="edge22" class="edge">
<title>Node34&#45;&gt;Node26</title>
<path fill="none" stroke="#191970" d="M509.5506,-226.4283C516.1214,-217.7992 522.5771,-207.9588 527,-198 538.3658,-172.4085 542.9462,-140.1345 544.7832,-119.5278"/>
<polygon fill="#191970" stroke="#191970" points="506.776,-224.2939 503.278,-234.2947 512.2491,-228.6581 506.776,-224.2939"/>
</g>
<!-- Node35 -->
<g id="node17" class="node">
<title>Node35</title>
<g id="a_node17"><a xlink:href="Main__Player_8cpp.html" target="_top" xlink:title="/mnt/hdd/C0de/Engines\l/SFML/SFML_Engine/src\l/Main_Player.cpp">
<polygon fill="none" stroke="#000000" points="390.5,-156.5 390.5,-197.5 517.5,-197.5 517.5,-156.5 390.5,-156.5"/>
<text text-anchor="start" x="398.5" y="-185.5" font-family="Helvetica,sans-Serif" font-size="10.00" fill="#000000">/mnt/hdd/C0de/Engines</text>
<text text-anchor="start" x="398.5" y="-174.5" font-family="Helvetica,sans-Serif" font-size="10.00" fill="#000000">/SFML/SFML_Engine/src</text>
<text text-anchor="middle" x="454" y="-163.5" font-family="Helvetica,sans-Serif" font-size="10.00" fill="#000000">/Main_Player.cpp</text>
</a>
</g>
</g>
<!-- Node34&#45;&gt;Node35 -->
<g id="edge23" class="edge">
<title>Node34&#45;&gt;Node35</title>
<path fill="none" stroke="#191970" d="M472.3292,-224.6559C468.8573,-215.629 465.1348,-205.9505 461.9576,-197.6898"/>
<polygon fill="#191970" stroke="#191970" points="469.104,-226.0204 475.9606,-234.0974 475.6374,-223.5075 469.104,-226.0204"/>
</g>
</g>
</svg>
