<?xml version="1.0" encoding="UTF-8" standalone="no"?>
<!DOCTYPE svg PUBLIC "-//W3C//DTD SVG 1.1//EN"
 "http://www.w3.org/Graphics/SVG/1.1/DTD/svg11.dtd">
<!-- Generated by graphviz version 2.40.1 (20161225.0304)
 -->
<!-- Title: /mnt/hdd/C0de/Engines/SFML/SFML_Engine/include/Button.hpp Pages: 1 -->
<!--zoomable 274 -->
<svg id="main" version="1.1" xmlns="http://www.w3.org/2000/svg" xmlns:xlink="http://www.w3.org/1999/xlink" xml:space="preserve" onload="init(evt)">
<style type="text/css"><![CDATA[
.edge:hover path { stroke: red; }
.edge:hover polygon { stroke: red; fill: red; }
]]></style>
<script type="text/javascript"><![CDATA[
var edges = document.getElementsByTagName('g');
if (edges && edges.length) {
  for (var i=0;i<edges.length;i++) {
    if (edges[i].id.substr(0,4)=='edge') {
      edges[i].setAttribute('class','edge');
    }
  }
}
]]></script>
        <defs>
                <circle id="rim" cx="0" cy="0" r="7"/>
                <circle id="rim2" cx="0" cy="0" r="3.5"/>
                <g id="zoomPlus">
                        <use xlink:href="#rim" fill="#404040">
                                <set attributeName="fill" to="#808080" begin="zoomplus.mouseover" end="zoomplus.mouseout"/>
                        </use>
                        <path d="M-4,0h8M0,-4v8" fill="none" stroke="white" stroke-width="1.5" pointer-events="none"/>
                </g>
                <g id="zoomMin">
                        <use xlink:href="#rim" fill="#404040">
                                <set attributeName="fill" to="#808080" begin="zoomminus.mouseover" end="zoomminus.mouseout"/>
                        </use>
                        <path d="M-4,0h8" fill="none" stroke="white" stroke-width="1.5" pointer-events="none"/>
                </g>
                <g id="dirArrow">
                        <path fill="none" stroke="white" stroke-width="1.5" d="M0,-3.0v7 M-2.5,-0.5L0,-3.0L2.5,-0.5"/>
                </g>
               <g id="resetDef">
                       <use xlink:href="#rim2" fill="#404040">
                               <set attributeName="fill" to="#808080" begin="reset.mouseover" end="reset.mouseout"/>
                       </use>
               </g>
        </defs>

<script type="text/javascript">
var viewWidth = 771;
var viewHeight = 274;
var sectionId = 'dynsection-0';
</script>
<script xlink:href="svgpan.js"/>
<svg id="graph" class="graph">
<g id="viewport">
<title>/mnt/hdd/C0de/Engines/SFML/SFML_Engine/include/Button.hpp</title>
<!-- Node0 -->
<g id="node1" class="node">
<title>Node0</title>
<polygon fill="#bfbfbf" stroke="#000000" points="0,-224.5 0,-265.5 144,-265.5 144,-224.5 0,-224.5"/>
<text text-anchor="start" x="8" y="-253.5" font-family="Helvetica,sans-Serif" font-size="10.00" fill="#000000">/mnt/hdd/C0de/Engines</text>
<text text-anchor="start" x="8" y="-242.5" font-family="Helvetica,sans-Serif" font-size="10.00" fill="#000000">/SFML/SFML_Engine/include</text>
<text text-anchor="middle" x="72" y="-231.5" font-family="Helvetica,sans-Serif" font-size="10.00" fill="#000000">/Button.hpp</text>
</g>
<!-- Node1 -->
<g id="node2" class="node">
<title>Node1</title>
<polygon fill="none" stroke="#bfbfbf" points="227,-.5 227,-19.5 331,-19.5 331,-.5 227,-.5"/>
<text text-anchor="middle" x="279" y="-7.5" font-family="Helvetica,sans-Serif" font-size="10.00" fill="#000000">SFML/Graphics.hpp</text>
</g>
<!-- Node0&#45;&gt;Node1 -->
<g id="edge1" class="edge">
<title>Node0&#45;&gt;Node1</title>
<path fill="none" stroke="#191970" d="M59.2009,-224.4104C37.4565,-186.5207 -.5827,-105.1384 40,-56 62.0155,-29.3431 153.5413,-17.9697 216.7171,-13.2329"/>
<polygon fill="#191970" stroke="#191970" points="217.2614,-16.7031 226.9877,-12.502 216.7644,-9.7208 217.2614,-16.7031"/>
</g>
<!-- Node2 -->
<g id="node3" class="node">
<title>Node2</title>
<g id="a_node3"><a xlink:href="Game_8hpp.html" target="_top" xlink:title="Game.hpp">
<polygon fill="none" stroke="#000000" points="173,-168.5 173,-187.5 235,-187.5 235,-168.5 173,-168.5"/>
<text text-anchor="middle" x="204" y="-175.5" font-family="Helvetica,sans-Serif" font-size="10.00" fill="#000000">Game.hpp</text>
</a>
</g>
</g>
<!-- Node0&#45;&gt;Node2 -->
<g id="edge2" class="edge">
<title>Node0&#45;&gt;Node2</title>
<path fill="none" stroke="#191970" d="M112.6814,-224.3511C133.1947,-213.9391 157.554,-201.5748 175.9528,-192.2361"/>
<polygon fill="#191970" stroke="#191970" points="177.646,-195.3018 184.9789,-187.6546 174.4777,-189.0598 177.646,-195.3018"/>
</g>
<!-- Node2&#45;&gt;Node1 -->
<g id="edge5" class="edge">
<title>Node2&#45;&gt;Node1</title>
<path fill="none" stroke="#191970" d="M172.8185,-173.1917C145.4552,-167.5359 106.0662,-155.7236 80,-132 53.4898,-107.8723 30.3212,-83.7599 53,-56 73.3551,-31.0844 157.2134,-19.3231 216.8258,-14.0194"/>
<polygon fill="#191970" stroke="#191970" points="217.2436,-17.4966 226.9113,-13.1625 216.6509,-10.5218 217.2436,-17.4966"/>
</g>
<!-- Node3 -->
<g id="node4" class="node">
<title>Node3</title>
<polygon fill="none" stroke="#bfbfbf" points="62,-56.5 62,-75.5 114,-75.5 114,-56.5 62,-56.5"/>
<text text-anchor="middle" x="88" y="-63.5" font-family="Helvetica,sans-Serif" font-size="10.00" fill="#000000">memory</text>
</g>
<!-- Node2&#45;&gt;Node3 -->
<g id="edge3" class="edge">
<title>Node2&#45;&gt;Node3</title>
<path fill="none" stroke="#191970" d="M172.9202,-174.509C146.4046,-169.7333 109.6927,-158.473 91,-132 81.6031,-118.692 81.7098,-99.8351 83.6671,-85.6829"/>
<polygon fill="#191970" stroke="#191970" points="87.1663,-85.9985 85.4875,-75.5376 80.2763,-84.7622 87.1663,-85.9985"/>
</g>
<!-- Node4 -->
<g id="node5" class="node">
<title>Node4</title>
<polygon fill="none" stroke="#bfbfbf" points="491.5,-.5 491.5,-19.5 532.5,-19.5 532.5,-.5 491.5,-.5"/>
<text text-anchor="middle" x="512" y="-7.5" font-family="Helvetica,sans-Serif" font-size="10.00" fill="#000000">string</text>
</g>
<!-- Node2&#45;&gt;Node4 -->
<g id="edge4" class="edge">
<title>Node2&#45;&gt;Node4</title>
<path fill="none" stroke="#191970" d="M235.4117,-175.1307C290.8652,-169.5199 403.1757,-155.5435 434,-132 464.0119,-109.0771 450.9987,-87.3866 472,-56 478.8684,-45.7351 487.7874,-35.2694 495.4599,-26.9194"/>
<polygon fill="#191970" stroke="#191970" points="498.0124,-29.3142 502.3265,-19.6374 492.9195,-24.5118 498.0124,-29.3142"/>
</g>
<!-- Node5 -->
<g id="node6" class="node">
<title>Node5</title>
<g id="a_node6"><a xlink:href="StateMachine_8hpp.html" target="_top" xlink:title="StateMachine.hpp">
<polygon fill="none" stroke="#000000" points="100.5,-112.5 100.5,-131.5 195.5,-131.5 195.5,-112.5 100.5,-112.5"/>
<text text-anchor="middle" x="148" y="-119.5" font-family="Helvetica,sans-Serif" font-size="10.00" fill="#000000">StateMachine.hpp</text>
</a>
</g>
</g>
<!-- Node2&#45;&gt;Node5 -->
<g id="edge6" class="edge">
<title>Node2&#45;&gt;Node5</title>
<path fill="none" stroke="#191970" d="M194.2455,-168.2455C186.1352,-160.1352 174.4075,-148.4075 164.7919,-138.7919"/>
<polygon fill="#191970" stroke="#191970" points="167.1887,-136.2389 157.6427,-131.6427 162.2389,-141.1887 167.1887,-136.2389"/>
</g>
<!-- Node8 -->
<g id="node9" class="node">
<title>Node8</title>
<g id="a_node9"><a xlink:href="AssetManager_8hpp.html" target="_top" xlink:title="AssetManager.hpp">
<polygon fill="none" stroke="#000000" points="327,-112.5 327,-131.5 425,-131.5 425,-112.5 327,-112.5"/>
<text text-anchor="middle" x="376" y="-119.5" font-family="Helvetica,sans-Serif" font-size="10.00" fill="#000000">AssetManager.hpp</text>
</a>
</g>
</g>
<!-- Node2&#45;&gt;Node8 -->
<g id="edge10" class="edge">
<title>Node2&#45;&gt;Node8</title>
<path fill="none" stroke="#191970" d="M233.5679,-168.3733C262.1688,-159.0613 305.6788,-144.8953 337.0819,-134.671"/>
<polygon fill="#191970" stroke="#191970" points="338.3928,-137.9251 346.818,-131.5011 336.2257,-131.269 338.3928,-137.9251"/>
</g>
<!-- Node10 -->
<g id="node11" class="node">
<title>Node10</title>
<g id="a_node11"><a xlink:href="InputManager_8hpp.html" target="_top" xlink:title="InputManager.hpp">
<polygon fill="none" stroke="#000000" points="213.5,-112.5 213.5,-131.5 308.5,-131.5 308.5,-112.5 213.5,-112.5"/>
<text text-anchor="middle" x="261" y="-119.5" font-family="Helvetica,sans-Serif" font-size="10.00" fill="#000000">InputManager.hpp</text>
</a>
</g>
</g>
<!-- Node2&#45;&gt;Node10 -->
<g id="edge13" class="edge">
<title>Node2&#45;&gt;Node10</title>
<path fill="none" stroke="#191970" d="M213.9286,-168.2455C222.1838,-160.1352 234.1209,-148.4075 243.9082,-138.7919"/>
<polygon fill="#191970" stroke="#191970" points="246.5046,-141.1476 251.1851,-131.6427 241.5989,-136.1542 246.5046,-141.1476"/>
</g>
<!-- Node11 -->
<g id="node12" class="node">
<title>Node11</title>
<g id="a_node12"><a xlink:href="entity__manager_8h.html" target="_top" xlink:title="entity_manager.h">
<polygon fill="none" stroke="#000000" points="559,-112.5 559,-131.5 651,-131.5 651,-112.5 559,-112.5"/>
<text text-anchor="middle" x="605" y="-119.5" font-family="Helvetica,sans-Serif" font-size="10.00" fill="#000000">entity_manager.h</text>
</a>
</g>
</g>
<!-- Node2&#45;&gt;Node11 -->
<g id="edge15" class="edge">
<title>Node2&#45;&gt;Node11</title>
<path fill="none" stroke="#191970" d="M235.1321,-173.6524C302.5923,-164.2315 463.0689,-141.8208 548.7753,-129.8518"/>
<polygon fill="#191970" stroke="#191970" points="549.4256,-133.2951 558.8454,-128.4455 548.4574,-126.3623 549.4256,-133.2951"/>
</g>
<!-- Node5&#45;&gt;Node3 -->
<g id="edge7" class="edge">
<title>Node5&#45;&gt;Node3</title>
<path fill="none" stroke="#191970" d="M137.5488,-112.2455C128.7731,-104.0549 116.0446,-92.1749 105.686,-82.5069"/>
<polygon fill="#191970" stroke="#191970" points="108.0301,-79.9072 98.3314,-75.6427 103.2539,-85.0246 108.0301,-79.9072"/>
</g>
<!-- Node6 -->
<g id="node7" class="node">
<title>Node6</title>
<polygon fill="none" stroke="#bfbfbf" points="209.5,-56.5 209.5,-75.5 250.5,-75.5 250.5,-56.5 209.5,-56.5"/>
<text text-anchor="middle" x="230" y="-63.5" font-family="Helvetica,sans-Serif" font-size="10.00" fill="#000000">stack</text>
</g>
<!-- Node5&#45;&gt;Node6 -->
<g id="edge8" class="edge">
<title>Node5&#45;&gt;Node6</title>
<path fill="none" stroke="#191970" d="M162.2833,-112.2455C174.747,-103.7337 193.0451,-91.2375 207.4792,-81.3801"/>
<polygon fill="#191970" stroke="#191970" points="209.5962,-84.1726 215.8804,-75.6427 205.6485,-78.392 209.5962,-84.1726"/>
</g>
<!-- Node7 -->
<g id="node8" class="node">
<title>Node7</title>
<g id="a_node8"><a xlink:href="State_8hpp.html" target="_top" xlink:title="State.hpp">
<polygon fill="none" stroke="#000000" points="132.5,-56.5 132.5,-75.5 191.5,-75.5 191.5,-56.5 132.5,-56.5"/>
<text text-anchor="middle" x="162" y="-63.5" font-family="Helvetica,sans-Serif" font-size="10.00" fill="#000000">State.hpp</text>
</a>
</g>
</g>
<!-- Node5&#45;&gt;Node7 -->
<g id="edge9" class="edge">
<title>Node5&#45;&gt;Node7</title>
<path fill="none" stroke="#191970" d="M150.4386,-112.2455C152.2855,-104.8579 154.8828,-94.4689 157.1478,-85.4087"/>
<polygon fill="#191970" stroke="#191970" points="160.5594,-86.193 159.5893,-75.6427 153.7684,-84.4952 160.5594,-86.193"/>
</g>
<!-- Node8&#45;&gt;Node1 -->
<g id="edge12" class="edge">
<title>Node8&#45;&gt;Node1</title>
<path fill="none" stroke="#191970" d="M367.7298,-112.4509C351.3366,-93.5227 314.5211,-51.014 293.834,-27.1279"/>
<polygon fill="#191970" stroke="#191970" points="296.4417,-24.7927 287.2492,-19.5249 291.1503,-29.3754 296.4417,-24.7927"/>
</g>
<!-- Node9 -->
<g id="node10" class="node">
<title>Node9</title>
<polygon fill="none" stroke="#bfbfbf" points="358.5,-56.5 358.5,-75.5 393.5,-75.5 393.5,-56.5 358.5,-56.5"/>
<text text-anchor="middle" x="376" y="-63.5" font-family="Helvetica,sans-Serif" font-size="10.00" fill="#000000">map</text>
</g>
<!-- Node8&#45;&gt;Node9 -->
<g id="edge11" class="edge">
<title>Node8&#45;&gt;Node9</title>
<path fill="none" stroke="#191970" d="M376,-112.2455C376,-104.9382 376,-94.6944 376,-85.7046"/>
<polygon fill="#191970" stroke="#191970" points="379.5001,-85.6426 376,-75.6427 372.5001,-85.6427 379.5001,-85.6426"/>
</g>
<!-- Node10&#45;&gt;Node1 -->
<g id="edge14" class="edge">
<title>Node10&#45;&gt;Node1</title>
<path fill="none" stroke="#191970" d="M262.5347,-112.4509C265.4704,-94.184 271.9358,-53.9553 275.8343,-29.6976"/>
<polygon fill="#191970" stroke="#191970" points="279.338,-29.9536 277.4692,-19.5249 272.4267,-28.8428 279.338,-29.9536"/>
</g>
<!-- Node12 -->
<g id="node13" class="node">
<title>Node12</title>
<polygon fill="none" stroke="#bfbfbf" points="481.5,-56.5 481.5,-75.5 564.5,-75.5 564.5,-56.5 481.5,-56.5"/>
<text text-anchor="middle" x="523" y="-63.5" font-family="Helvetica,sans-Serif" font-size="10.00" fill="#000000">unordered_map</text>
</g>
<!-- Node11&#45;&gt;Node12 -->
<g id="edge16" class="edge">
<title>Node11&#45;&gt;Node12</title>
<path fill="none" stroke="#191970" d="M590.7167,-112.2455C578.253,-103.7337 559.9549,-91.2375 545.5208,-81.3801"/>
<polygon fill="#191970" stroke="#191970" points="547.3515,-78.392 537.1196,-75.6427 543.4038,-84.1726 547.3515,-78.392"/>
</g>
<!-- Node13 -->
<g id="node14" class="node">
<title>Node13</title>
<polygon fill="none" stroke="#bfbfbf" points="583,-56.5 583,-75.5 627,-75.5 627,-56.5 583,-56.5"/>
<text text-anchor="middle" x="605" y="-63.5" font-family="Helvetica,sans-Serif" font-size="10.00" fill="#000000">vector</text>
</g>
<!-- Node11&#45;&gt;Node13 -->
<g id="edge17" class="edge">
<title>Node11&#45;&gt;Node13</title>
<path fill="none" stroke="#191970" d="M605,-112.2455C605,-104.9382 605,-94.6944 605,-85.7046"/>
<polygon fill="#191970" stroke="#191970" points="608.5001,-85.6426 605,-75.6427 601.5001,-85.6427 608.5001,-85.6426"/>
</g>
<!-- Node14 -->
<g id="node15" class="node">
<title>Node14</title>
<polygon fill="none" stroke="#bfbfbf" points="683,-.5 683,-19.5 763,-19.5 763,-.5 683,-.5"/>
<text text-anchor="middle" x="723" y="-7.5" font-family="Helvetica,sans-Serif" font-size="10.00" fill="#000000">box2d/box2d.h</text>
</g>
<!-- Node11&#45;&gt;Node14 -->
<g id="edge18" class="edge">
<title>Node11&#45;&gt;Node14</title>
<path fill="none" stroke="#191970" d="M643.6453,-112.4942C664.2441,-105.5665 688.4694,-94.1397 704,-76 715.0142,-63.1355 719.6553,-44.23 721.6047,-29.9466"/>
<polygon fill="#191970" stroke="#191970" points="725.1184,-29.9922 722.6613,-19.6862 718.1552,-29.275 725.1184,-29.9922"/>
</g>
<!-- Node15 -->
<g id="node16" class="node">
<title>Node15</title>
<g id="a_node16"><a xlink:href="entity_8h.html" target="_top" xlink:title="entity.h">
<polygon fill="none" stroke="#000000" points="645.5,-56.5 645.5,-75.5 694.5,-75.5 694.5,-56.5 645.5,-56.5"/>
<text text-anchor="middle" x="670" y="-63.5" font-family="Helvetica,sans-Serif" font-size="10.00" fill="#000000">entity.h</text>
</a>
</g>
</g>
<!-- Node11&#45;&gt;Node15 -->
<g id="edge19" class="edge">
<title>Node11&#45;&gt;Node15</title>
<path fill="none" stroke="#191970" d="M616.3221,-112.2455C625.9223,-103.9746 639.8892,-91.9416 651.1695,-82.2232"/>
<polygon fill="#191970" stroke="#191970" points="653.516,-84.8214 658.8076,-75.6427 648.947,-79.5182 653.516,-84.8214"/>
</g>
<!-- Node15&#45;&gt;Node1 -->
<g id="edge20" class="edge">
<title>Node15&#45;&gt;Node1</title>
<path fill="none" stroke="#191970" d="M645.2328,-58.2242C642.1423,-57.3995 639.0107,-56.6326 636,-56 533.8476,-34.5367 413.0141,-21.4985 341.367,-15.0286"/>
<polygon fill="#191970" stroke="#191970" points="341.4318,-11.5207 331.1612,-14.1215 340.812,-18.4932 341.4318,-11.5207"/>
</g>
<!-- Node15&#45;&gt;Node4 -->
<g id="edge21" class="edge">
<title>Node15&#45;&gt;Node4</title>
<path fill="none" stroke="#191970" d="M645.3125,-57.25C617.5526,-47.4111 572.4513,-31.4258 542.5079,-20.8129"/>
<polygon fill="#191970" stroke="#191970" points="543.5759,-17.4782 532.9812,-17.4364 541.2374,-24.076 543.5759,-17.4782"/>
</g>
<!-- Node15&#45;&gt;Node14 -->
<g id="edge22" class="edge">
<title>Node15&#45;&gt;Node14</title>
<path fill="none" stroke="#191970" d="M679.2319,-56.2455C686.8317,-48.2155 697.7877,-36.6394 706.8368,-27.0781"/>
<polygon fill="#191970" stroke="#191970" points="709.5421,-29.3115 713.8739,-19.6427 704.458,-24.4998 709.5421,-29.3115"/>
</g>
<!-- Node16 -->
<g id="node17" class="node">
<title>Node16</title>
<polygon fill="none" stroke="#bfbfbf" points="611,-.5 611,-19.5 665,-19.5 665,-.5 611,-.5"/>
<text text-anchor="middle" x="638" y="-7.5" font-family="Helvetica,sans-Serif" font-size="10.00" fill="#000000">iostream</text>
</g>
<!-- Node15&#45;&gt;Node16 -->
<g id="edge23" class="edge">
<title>Node15&#45;&gt;Node16</title>
<path fill="none" stroke="#191970" d="M664.426,-56.2455C660.0669,-48.617 653.8789,-37.7881 648.5867,-28.5267"/>
<polygon fill="#191970" stroke="#191970" points="651.5104,-26.5886 643.5101,-19.6427 645.4327,-30.0616 651.5104,-26.5886"/>
</g>
</g>
</svg>
        <g id="navigator" transform="translate(0 0)" fill="#404254">
                <rect fill="#f2f5e9" fill-opacity="0.5" stroke="#606060" stroke-width=".5" x="0" y="0" width="60" height="60"/>
                <use id="zoomplus" xlink:href="#zoomPlus" x="17" y="9" onmousedown="handleZoom(evt,'in')"/>
                <use id="zoomminus" xlink:href="#zoomMin" x="42" y="9" onmousedown="handleZoom(evt,'out')"/>
                <use id="reset" xlink:href="#resetDef" x="30" y="36" onmousedown="handleReset()"/>
                <g id="arrowUp" xlink:href="#dirArrow" transform="translate(30 24)" onmousedown="handlePan(0,-1)">
                  <use xlink:href="#rim" fill="#404040">
                        <set attributeName="fill" to="#808080" begin="arrowUp.mouseover" end="arrowUp.mouseout"/>
                  </use>
                  <path fill="none" stroke="white" stroke-width="1.5" d="M0,-3.0v7 M-2.5,-0.5L0,-3.0L2.5,-0.5"/>
                </g>
                <g id="arrowRight" xlink:href="#dirArrow" transform="rotate(90) translate(36 -43)" onmousedown="handlePan(1,0)">
                  <use xlink:href="#rim" fill="#404040">
                        <set attributeName="fill" to="#808080" begin="arrowRight.mouseover" end="arrowRight.mouseout"/>
                  </use>
                  <path fill="none" stroke="white" stroke-width="1.5" d="M0,-3.0v7 M-2.5,-0.5L0,-3.0L2.5,-0.5"/>
                </g>
                <g id="arrowDown" xlink:href="#dirArrow" transform="rotate(180) translate(-30 -48)" onmousedown="handlePan(0,1)">
                  <use xlink:href="#rim" fill="#404040">
                        <set attributeName="fill" to="#808080" begin="arrowDown.mouseover" end="arrowDown.mouseout"/>
                  </use>
                  <path fill="none" stroke="white" stroke-width="1.5" d="M0,-3.0v7 M-2.5,-0.5L0,-3.0L2.5,-0.5"/>
                </g>
                <g id="arrowLeft" xlink:href="#dirArrow" transform="rotate(270) translate(-36 17)" onmousedown="handlePan(-1,0)">
                  <use xlink:href="#rim" fill="#404040">
                        <set attributeName="fill" to="#808080" begin="arrowLeft.mouseover" end="arrowLeft.mouseout"/>
                  </use>
                  <path fill="none" stroke="white" stroke-width="1.5" d="M0,-3.0v7 M-2.5,-0.5L0,-3.0L2.5,-0.5"/>
                </g>
        </g>
        <svg viewBox="0 0 15 15" width="100%" height="30px" preserveAspectRatio="xMaxYMin meet">
         <g id="arrow_out" transform="scale(0.3 0.3)">
          <a xlink:href="Button_8hpp__incl_org.svg" target="_base">
           <rect id="button" ry="5" rx="5" y="6" x="6" height="38" width="38"
                fill="#f2f5e9" fill-opacity="0.5" stroke="#606060" stroke-width="1.0"/>
           <path id="arrow"
             d="M 11.500037,31.436501 C 11.940474,20.09759 22.043105,11.32322 32.158766,21.979434 L 37.068811,17.246167 C 37.068811,17.246167 37.088388,32 37.088388,32 L 22.160133,31.978069 C 22.160133,31.978069 26.997745,27.140456 26.997745,27.140456 C 18.528582,18.264221 13.291696,25.230495 11.500037,31.436501 z"
             style="fill:#404040;"/>
          </a>
         </g>
        </svg>
</svg>
