<?xml version="1.0" encoding="UTF-8" standalone="no"?>
<!DOCTYPE svg PUBLIC "-//W3C//DTD SVG 1.1//EN"
 "http://www.w3.org/Graphics/SVG/1.1/DTD/svg11.dtd">
<!-- Generated by graphviz version 2.40.1 (20161225.0304)
 -->
<!-- Title: MapLayer::Chunk Pages: 1 -->
<svg width="163pt" height="369pt"
 viewBox="0.00 0.00 162.50 369.00" xmlns="http://www.w3.org/2000/svg" xmlns:xlink="http://www.w3.org/1999/xlink">
<g id="graph0" class="graph" transform="scale(1 1) rotate(0) translate(4 365)">
<title>MapLayer::Chunk</title>
<!-- Node0 -->
<g id="node1" class="node">
<title>Node0</title>
<polygon fill="#bfbfbf" stroke="#000000" points="21.5,-.5 21.5,-266.5 143.5,-266.5 143.5,-.5 21.5,-.5"/>
<text text-anchor="middle" x="82.5" y="-254.5" font-family="Helvetica,sans-Serif" font-size="10.00" fill="#000000">MapLayer::Chunk</text>
<polyline fill="none" stroke="#000000" points="21.5,-247.5 143.5,-247.5 "/>
<text text-anchor="start" x="29.5" y="-235.5" font-family="Helvetica,sans-Serif" font-size="10.00" fill="#000000">&#45; layerOpacity</text>
<text text-anchor="start" x="29.5" y="-224.5" font-family="Helvetica,sans-Serif" font-size="10.00" fill="#000000">&#45; layerOffset</text>
<text text-anchor="start" x="29.5" y="-213.5" font-family="Helvetica,sans-Serif" font-size="10.00" fill="#000000">&#45; mapTileSize</text>
<text text-anchor="start" x="29.5" y="-202.5" font-family="Helvetica,sans-Serif" font-size="10.00" fill="#000000">&#45; chunkTileCount</text>
<text text-anchor="start" x="29.5" y="-191.5" font-family="Helvetica,sans-Serif" font-size="10.00" fill="#000000">&#45; m_chunkTileIDs</text>
<text text-anchor="start" x="29.5" y="-180.5" font-family="Helvetica,sans-Serif" font-size="10.00" fill="#000000">&#45; m_chunkColors</text>
<text text-anchor="start" x="29.5" y="-169.5" font-family="Helvetica,sans-Serif" font-size="10.00" fill="#000000">&#45; m_animTiles</text>
<text text-anchor="start" x="29.5" y="-158.5" font-family="Helvetica,sans-Serif" font-size="10.00" fill="#000000">&#45; m_activeAnimations</text>
<text text-anchor="start" x="29.5" y="-147.5" font-family="Helvetica,sans-Serif" font-size="10.00" fill="#000000">&#45; m_chunkArrays</text>
<polyline fill="none" stroke="#000000" points="21.5,-140.5 143.5,-140.5 "/>
<text text-anchor="start" x="29.5" y="-128.5" font-family="Helvetica,sans-Serif" font-size="10.00" fill="#000000">+ Chunk()</text>
<text text-anchor="start" x="29.5" y="-117.5" font-family="Helvetica,sans-Serif" font-size="10.00" fill="#000000">+ generateTiles()</text>
<text text-anchor="start" x="29.5" y="-106.5" font-family="Helvetica,sans-Serif" font-size="10.00" fill="#000000">+ ~Chunk()</text>
<text text-anchor="start" x="29.5" y="-95.5" font-family="Helvetica,sans-Serif" font-size="10.00" fill="#000000">+ Chunk()</text>
<text text-anchor="start" x="29.5" y="-84.5" font-family="Helvetica,sans-Serif" font-size="10.00" fill="#000000">+ operator=()</text>
<text text-anchor="start" x="29.5" y="-73.5" font-family="Helvetica,sans-Serif" font-size="10.00" fill="#000000">+ getActiveAnimations()</text>
<text text-anchor="start" x="29.5" y="-62.5" font-family="Helvetica,sans-Serif" font-size="10.00" fill="#000000">+ getTile()</text>
<text text-anchor="start" x="29.5" y="-51.5" font-family="Helvetica,sans-Serif" font-size="10.00" fill="#000000">+ setTile()</text>
<text text-anchor="start" x="29.5" y="-40.5" font-family="Helvetica,sans-Serif" font-size="10.00" fill="#000000">+ getColor()</text>
<text text-anchor="start" x="29.5" y="-29.5" font-family="Helvetica,sans-Serif" font-size="10.00" fill="#000000">+ setColor()</text>
<text text-anchor="start" x="29.5" y="-18.5" font-family="Helvetica,sans-Serif" font-size="10.00" fill="#000000">and 7 more...</text>
<text text-anchor="start" x="29.5" y="-7.5" font-family="Helvetica,sans-Serif" font-size="10.00" fill="#000000">&#45; draw()</text>
</g>
<!-- Node1 -->
<g id="node2" class="node">
<title>Node1</title>
<polygon fill="none" stroke="#bfbfbf" points="0,-303.5 0,-360.5 79,-360.5 79,-303.5 0,-303.5"/>
<text text-anchor="middle" x="39.5" y="-348.5" font-family="Helvetica,sans-Serif" font-size="10.00" fill="#000000">Transformable</text>
<polyline fill="none" stroke="#bfbfbf" points="0,-341.5 79,-341.5 "/>
<text text-anchor="middle" x="39.5" y="-329.5" font-family="Helvetica,sans-Serif" font-size="10.00" fill="#000000"> </text>
<polyline fill="none" stroke="#bfbfbf" points="0,-322.5 79,-322.5 "/>
<text text-anchor="middle" x="39.5" y="-310.5" font-family="Helvetica,sans-Serif" font-size="10.00" fill="#000000"> </text>
</g>
<!-- Node1&#45;&gt;Node0 -->
<g id="edge1" class="edge">
<title>Node1&#45;&gt;Node0</title>
<path fill="none" stroke="#191970" d="M47.8805,-293.3132C49.6465,-285.1609 51.6037,-276.126 53.6629,-266.6202"/>
<polygon fill="none" stroke="#191970" points="44.4491,-292.6221 45.7526,-303.1364 51.2905,-294.1041 44.4491,-292.6221"/>
</g>
<!-- Node2 -->
<g id="node3" class="node">
<title>Node2</title>
<polygon fill="none" stroke="#bfbfbf" points="96.5,-303.5 96.5,-360.5 154.5,-360.5 154.5,-303.5 96.5,-303.5"/>
<text text-anchor="middle" x="125.5" y="-348.5" font-family="Helvetica,sans-Serif" font-size="10.00" fill="#000000">Drawable</text>
<polyline fill="none" stroke="#bfbfbf" points="96.5,-341.5 154.5,-341.5 "/>
<text text-anchor="middle" x="125.5" y="-329.5" font-family="Helvetica,sans-Serif" font-size="10.00" fill="#000000"> </text>
<polyline fill="none" stroke="#bfbfbf" points="96.5,-322.5 154.5,-322.5 "/>
<text text-anchor="middle" x="125.5" y="-310.5" font-family="Helvetica,sans-Serif" font-size="10.00" fill="#000000"> </text>
</g>
<!-- Node2&#45;&gt;Node0 -->
<g id="edge2" class="edge">
<title>Node2&#45;&gt;Node0</title>
<path fill="none" stroke="#191970" d="M117.1195,-293.3132C115.3535,-285.1609 113.3963,-276.126 111.3371,-266.6202"/>
<polygon fill="none" stroke="#191970" points="113.7095,-294.1041 119.2474,-303.1364 120.5509,-292.6221 113.7095,-294.1041"/>
</g>
</g>
</svg>
