<?xml version="1.0" encoding="UTF-8" standalone="no"?>
<!DOCTYPE svg PUBLIC "-//W3C//DTD SVG 1.1//EN"
 "http://www.w3.org/Graphics/SVG/1.1/DTD/svg11.dtd">
<!-- Generated by graphviz version 2.40.1 (20161225.0304)
 -->
<!-- Title: TileMap Pages: 1 -->
<svg width="192pt" height="182pt"
 viewBox="0.00 0.00 191.50 182.00" xmlns="http://www.w3.org/2000/svg" xmlns:xlink="http://www.w3.org/1999/xlink">
<g id="graph0" class="graph" transform="scale(1 1) rotate(0) translate(4 178)">
<title>TileMap</title>
<!-- Node0 -->
<g id="node1" class="node">
<title>Node0</title>
<polygon fill="#bfbfbf" stroke="#000000" points="50.5,-.5 50.5,-79.5 121.5,-79.5 121.5,-.5 50.5,-.5"/>
<text text-anchor="middle" x="86" y="-67.5" font-family="Helvetica,sans-Serif" font-size="10.00" fill="#000000">TileMap</text>
<polyline fill="none" stroke="#000000" points="50.5,-60.5 121.5,-60.5 "/>
<text text-anchor="start" x="58.5" y="-48.5" font-family="Helvetica,sans-Serif" font-size="10.00" fill="#000000">&#45; m_vertices</text>
<text text-anchor="start" x="58.5" y="-37.5" font-family="Helvetica,sans-Serif" font-size="10.00" fill="#000000">&#45; m_tileset</text>
<polyline fill="none" stroke="#000000" points="50.5,-30.5 121.5,-30.5 "/>
<text text-anchor="start" x="58.5" y="-18.5" font-family="Helvetica,sans-Serif" font-size="10.00" fill="#000000">+ load()</text>
<text text-anchor="start" x="58.5" y="-7.5" font-family="Helvetica,sans-Serif" font-size="10.00" fill="#000000">&#45; draw()</text>
</g>
<!-- Node1 -->
<g id="node2" class="node">
<title>Node1</title>
<polygon fill="none" stroke="#bfbfbf" points="0,-116.5 0,-173.5 72,-173.5 72,-116.5 0,-116.5"/>
<text text-anchor="middle" x="36" y="-161.5" font-family="Helvetica,sans-Serif" font-size="10.00" fill="#000000">sf::Drawable</text>
<polyline fill="none" stroke="#bfbfbf" points="0,-154.5 72,-154.5 "/>
<text text-anchor="middle" x="36" y="-142.5" font-family="Helvetica,sans-Serif" font-size="10.00" fill="#000000"> </text>
<polyline fill="none" stroke="#bfbfbf" points="0,-135.5 72,-135.5 "/>
<text text-anchor="middle" x="36" y="-123.5" font-family="Helvetica,sans-Serif" font-size="10.00" fill="#000000"> </text>
</g>
<!-- Node1&#45;&gt;Node0 -->
<g id="edge1" class="edge">
<title>Node1&#45;&gt;Node0</title>
<path fill="none" stroke="#191970" d="M53.9762,-107.2501C58.2407,-98.2946 62.802,-88.7159 67.1061,-79.6773"/>
<polygon fill="none" stroke="#191970" points="50.8021,-105.7749 49.6627,-116.3083 57.1221,-108.7845 50.8021,-105.7749"/>
</g>
<!-- Node2 -->
<g id="node3" class="node">
<title>Node2</title>
<polygon fill="none" stroke="#bfbfbf" points="90.5,-116.5 90.5,-173.5 183.5,-173.5 183.5,-116.5 90.5,-116.5"/>
<text text-anchor="middle" x="137" y="-161.5" font-family="Helvetica,sans-Serif" font-size="10.00" fill="#000000">sf::Transformable</text>
<polyline fill="none" stroke="#bfbfbf" points="90.5,-154.5 183.5,-154.5 "/>
<text text-anchor="middle" x="137" y="-142.5" font-family="Helvetica,sans-Serif" font-size="10.00" fill="#000000"> </text>
<polyline fill="none" stroke="#bfbfbf" points="90.5,-135.5 183.5,-135.5 "/>
<text text-anchor="middle" x="137" y="-123.5" font-family="Helvetica,sans-Serif" font-size="10.00" fill="#000000"> </text>
</g>
<!-- Node2&#45;&gt;Node0 -->
<g id="edge2" class="edge">
<title>Node2&#45;&gt;Node0</title>
<path fill="none" stroke="#191970" d="M118.6643,-107.2501C114.3145,-98.2946 109.662,-88.7159 105.2718,-79.6773"/>
<polygon fill="none" stroke="#191970" points="115.5466,-108.8424 123.064,-116.3083 121.8432,-105.784 115.5466,-108.8424"/>
</g>
</g>
</svg>
