<?xml version="1.0" encoding="UTF-8" standalone="no"?>
<!DOCTYPE svg PUBLIC "-//W3C//DTD SVG 1.1//EN"
 "http://www.w3.org/Graphics/SVG/1.1/DTD/svg11.dtd">
<!-- Generated by graphviz version 2.40.1 (20161225.0304)
 -->
<!-- Title: /mnt/hdd/C0de/Engines/SFML/SFML_Engine/include/DEFINITIONS.hpp Pages: 1 -->
<svg width="1229pt" height="596pt"
 viewBox="0.00 0.00 1228.50 596.00" xmlns="http://www.w3.org/2000/svg" xmlns:xlink="http://www.w3.org/1999/xlink">
<g id="graph0" class="graph" transform="scale(1 1) rotate(0) translate(4 592)">
<title>/mnt/hdd/C0de/Engines/SFML/SFML_Engine/include/DEFINITIONS.hpp</title>
<!-- Node1 -->
<g id="node1" class="node">
<title>Node1</title>
<polygon fill="#bfbfbf" stroke="#000000" points="733,-546.5 733,-587.5 877,-587.5 877,-546.5 733,-546.5"/>
<text text-anchor="start" x="741" y="-575.5" font-family="Helvetica,sans-Serif" font-size="10.00" fill="#000000">/mnt/hdd/C0de/Engines</text>
<text text-anchor="start" x="741" y="-564.5" font-family="Helvetica,sans-Serif" font-size="10.00" fill="#000000">/SFML/SFML_Engine/include</text>
<text text-anchor="middle" x="805" y="-553.5" font-family="Helvetica,sans-Serif" font-size="10.00" fill="#000000">/DEFINITIONS.hpp</text>
</g>
<!-- Node2 -->
<g id="node2" class="node">
<title>Node2</title>
<g id="a_node2"><a xlink:href="GameWorld_8hpp.html" target="_top" xlink:title="/mnt/hdd/C0de/Engines\l/SFML/SFML_Engine/include\l/GameWorld.hpp">
<polygon fill="none" stroke="#000000" points="489,-468.5 489,-509.5 633,-509.5 633,-468.5 489,-468.5"/>
<text text-anchor="start" x="497" y="-497.5" font-family="Helvetica,sans-Serif" font-size="10.00" fill="#000000">/mnt/hdd/C0de/Engines</text>
<text text-anchor="start" x="497" y="-486.5" font-family="Helvetica,sans-Serif" font-size="10.00" fill="#000000">/SFML/SFML_Engine/include</text>
<text text-anchor="middle" x="561" y="-475.5" font-family="Helvetica,sans-Serif" font-size="10.00" fill="#000000">/GameWorld.hpp</text>
</a>
</g>
</g>
<!-- Node1&#45;&gt;Node2 -->
<g id="edge1" class="edge">
<title>Node1&#45;&gt;Node2</title>
<path fill="none" stroke="#191970" d="M730.7897,-543.277C697.1444,-532.5216 657.7395,-519.9249 625.3649,-509.5757"/>
<polygon fill="#191970" stroke="#191970" points="729.9818,-546.6932 740.5727,-546.4044 732.1133,-540.0256 729.9818,-546.6932"/>
</g>
<!-- Node6 -->
<g id="node6" class="node">
<title>Node6</title>
<g id="a_node6"><a xlink:href="LoadingGameObjects_8hpp.html" target="_top" xlink:title="/mnt/hdd/C0de/Engines\l/SFML/SFML_Engine/include\l/LoadingGameObjects.hpp">
<polygon fill="none" stroke="#000000" points="335,-156.5 335,-197.5 479,-197.5 479,-156.5 335,-156.5"/>
<text text-anchor="start" x="343" y="-185.5" font-family="Helvetica,sans-Serif" font-size="10.00" fill="#000000">/mnt/hdd/C0de/Engines</text>
<text text-anchor="start" x="343" y="-174.5" font-family="Helvetica,sans-Serif" font-size="10.00" fill="#000000">/SFML/SFML_Engine/include</text>
<text text-anchor="middle" x="407" y="-163.5" font-family="Helvetica,sans-Serif" font-size="10.00" fill="#000000">/LoadingGameObjects.hpp</text>
</a>
</g>
</g>
<!-- Node1&#45;&gt;Node6 -->
<g id="edge37" class="edge">
<title>Node1&#45;&gt;Node6</title>
<path fill="none" stroke="#191970" d="M722.7476,-565.3244C541.5645,-559.4036 124,-532.5707 124,-411 124,-411 124,-411 124,-333 124,-288.197 111.6864,-266.0432 143,-234 146.4206,-230.4997 257.7242,-207.3097 334.7016,-191.6085"/>
<polygon fill="#191970" stroke="#191970" points="722.6611,-568.8233 732.7658,-565.6383 722.8803,-561.8268 722.6611,-568.8233"/>
</g>
<!-- Node8 -->
<g id="node8" class="node">
<title>Node8</title>
<g id="a_node8"><a xlink:href="GameOverState_8cpp.html" target="_top" xlink:title="/mnt/hdd/C0de/Engines\l/SFML/SFML_Engine/src\l/GameOverState.cpp">
<polygon fill="none" stroke="#000000" points="236.5,-.5 236.5,-41.5 363.5,-41.5 363.5,-.5 236.5,-.5"/>
<text text-anchor="start" x="244.5" y="-29.5" font-family="Helvetica,sans-Serif" font-size="10.00" fill="#000000">/mnt/hdd/C0de/Engines</text>
<text text-anchor="start" x="244.5" y="-18.5" font-family="Helvetica,sans-Serif" font-size="10.00" fill="#000000">/SFML/SFML_Engine/src</text>
<text text-anchor="middle" x="300" y="-7.5" font-family="Helvetica,sans-Serif" font-size="10.00" fill="#000000">/GameOverState.cpp</text>
</a>
</g>
</g>
<!-- Node1&#45;&gt;Node8 -->
<g id="edge42" class="edge">
<title>Node1&#45;&gt;Node8</title>
<path fill="none" stroke="#191970" d="M722.742,-565.3342C573.918,-561.387 266.1895,-548.6818 167,-510 99.6678,-483.7419 38,-483.2711 38,-411 38,-411 38,-411 38,-177 38,-132.197 25.9721,-110.32 57,-78 57.1993,-77.7924 164.2918,-52.7247 236.2221,-35.9058"/>
<polygon fill="#191970" stroke="#191970" points="722.6573,-568.8331 732.7444,-565.5926 722.8382,-561.8354 722.6573,-568.8331"/>
</g>
<!-- Node9 -->
<g id="node9" class="node">
<title>Node9</title>
<g id="a_node9"><a xlink:href="GameState_8cpp.html" target="_top" xlink:title="/mnt/hdd/C0de/Engines\l/SFML/SFML_Engine/src\l/GameState.cpp">
<polygon fill="none" stroke="#000000" points="710.5,-.5 710.5,-41.5 837.5,-41.5 837.5,-.5 710.5,-.5"/>
<text text-anchor="start" x="718.5" y="-29.5" font-family="Helvetica,sans-Serif" font-size="10.00" fill="#000000">/mnt/hdd/C0de/Engines</text>
<text text-anchor="start" x="718.5" y="-18.5" font-family="Helvetica,sans-Serif" font-size="10.00" fill="#000000">/SFML/SFML_Engine/src</text>
<text text-anchor="middle" x="774" y="-7.5" font-family="Helvetica,sans-Serif" font-size="10.00" fill="#000000">/GameState.cpp</text>
</a>
</g>
</g>
<!-- Node1&#45;&gt;Node9 -->
<g id="edge43" class="edge">
<title>Node1&#45;&gt;Node9</title>
<path fill="none" stroke="#191970" d="M810.137,-536.0681C826.6507,-435 876.1008,-118.6504 855,-78 847.0779,-62.7382 832.9853,-50.7022 818.7518,-41.7006"/>
<polygon fill="#191970" stroke="#191970" points="806.6343,-535.7999 808.468,-546.2348 813.5418,-536.9339 806.6343,-535.7999"/>
</g>
<!-- Node11 -->
<g id="node11" class="node">
<title>Node11</title>
<g id="a_node11"><a xlink:href="Game_8cpp.html" target="_top" xlink:title="/mnt/hdd/C0de/Engines\l/SFML/SFML_Engine/src\l/Game.cpp">
<polygon fill="none" stroke="#000000" points="855.5,-.5 855.5,-41.5 982.5,-41.5 982.5,-.5 855.5,-.5"/>
<text text-anchor="start" x="863.5" y="-29.5" font-family="Helvetica,sans-Serif" font-size="10.00" fill="#000000">/mnt/hdd/C0de/Engines</text>
<text text-anchor="start" x="863.5" y="-18.5" font-family="Helvetica,sans-Serif" font-size="10.00" fill="#000000">/SFML/SFML_Engine/src</text>
<text text-anchor="middle" x="919" y="-7.5" font-family="Helvetica,sans-Serif" font-size="10.00" fill="#000000">/Game.cpp</text>
</a>
</g>
</g>
<!-- Node1&#45;&gt;Node11 -->
<g id="edge41" class="edge">
<title>Node1&#45;&gt;Node11</title>
<path fill="none" stroke="#191970" d="M887.3089,-556.3469C946.4349,-547.0396 1019.3666,-531.615 1041,-510 1073.0275,-477.9997 1065,-456.2745 1065,-411 1065,-411 1065,-411 1065,-177 1065,-131.7255 1069.6712,-113.0391 1041,-78 1026.0471,-59.726 1003.903,-46.999 982.5696,-38.2865"/>
<polygon fill="#191970" stroke="#191970" points="886.5508,-552.9222 877.1986,-557.9008 887.6142,-559.841 886.5508,-552.9222"/>
</g>
<!-- Node12 -->
<g id="node12" class="node">
<title>Node12</title>
<g id="a_node12"><a xlink:href="MainMenuState_8cpp.html" target="_top" xlink:title="/mnt/hdd/C0de/Engines\l/SFML/SFML_Engine/src\l/MainMenuState.cpp">
<polygon fill="none" stroke="#000000" points="565.5,-.5 565.5,-41.5 692.5,-41.5 692.5,-.5 565.5,-.5"/>
<text text-anchor="start" x="573.5" y="-29.5" font-family="Helvetica,sans-Serif" font-size="10.00" fill="#000000">/mnt/hdd/C0de/Engines</text>
<text text-anchor="start" x="573.5" y="-18.5" font-family="Helvetica,sans-Serif" font-size="10.00" fill="#000000">/SFML/SFML_Engine/src</text>
<text text-anchor="middle" x="629" y="-7.5" font-family="Helvetica,sans-Serif" font-size="10.00" fill="#000000">/MainMenuState.cpp</text>
</a>
</g>
</g>
<!-- Node1&#45;&gt;Node12 -->
<g id="edge45" class="edge">
<title>Node1&#45;&gt;Node12</title>
<path fill="none" stroke="#191970" d="M887.0177,-556.7354C921.09,-548.8231 958.915,-534.8117 986,-510 1021.1167,-477.8307 1027,-458.624 1027,-411 1027,-411 1027,-411 1027,-177 1027,-20.5897 853.3289,-81.5445 702,-42 698.9378,-41.1998 695.8082,-40.3651 692.6507,-39.5093"/>
<polygon fill="#191970" stroke="#191970" points="886.078,-553.3579 877.0512,-558.9047 887.5668,-560.1977 886.078,-553.3579"/>
</g>
<!-- Node14 -->
<g id="node14" class="node">
<title>Node14</title>
<g id="a_node14"><a xlink:href="SplashState_8cpp.html" target="_top" xlink:title="/mnt/hdd/C0de/Engines\l/SFML/SFML_Engine/src\l/SplashState.cpp">
<polygon fill="none" stroke="#000000" points="74.5,-.5 74.5,-41.5 201.5,-41.5 201.5,-.5 74.5,-.5"/>
<text text-anchor="start" x="82.5" y="-29.5" font-family="Helvetica,sans-Serif" font-size="10.00" fill="#000000">/mnt/hdd/C0de/Engines</text>
<text text-anchor="start" x="82.5" y="-18.5" font-family="Helvetica,sans-Serif" font-size="10.00" fill="#000000">/SFML/SFML_Engine/src</text>
<text text-anchor="middle" x="138" y="-7.5" font-family="Helvetica,sans-Serif" font-size="10.00" fill="#000000">/SplashState.cpp</text>
</a>
</g>
</g>
<!-- Node1&#45;&gt;Node14 -->
<g id="edge46" class="edge">
<title>Node1&#45;&gt;Node14</title>
<path fill="none" stroke="#191970" d="M722.6316,-564.878C540.7258,-559.5954 116.3973,-543.7757 61,-510 16.8731,-483.0959 0,-462.6818 0,-411 0,-411 0,-411 0,-177 0,-130.6199 3.2063,-113.545 33,-78 46.0578,-62.4216 64.5055,-50.4173 82.3029,-41.5337"/>
<polygon fill="#191970" stroke="#191970" points="722.5883,-568.3781 732.6846,-565.1663 722.7891,-561.3809 722.5883,-568.3781"/>
</g>
<!-- Node23 -->
<g id="node23" class="node">
<title>Node23</title>
<g id="a_node23"><a xlink:href="HUD_8hpp.html" target="_top" xlink:title="/mnt/hdd/C0de/Engines\l/SFML/SFML_Engine/include\l/HUD.hpp">
<polygon fill="none" stroke="#000000" points="833,-468.5 833,-509.5 977,-509.5 977,-468.5 833,-468.5"/>
<text text-anchor="start" x="841" y="-497.5" font-family="Helvetica,sans-Serif" font-size="10.00" fill="#000000">/mnt/hdd/C0de/Engines</text>
<text text-anchor="start" x="841" y="-486.5" font-family="Helvetica,sans-Serif" font-size="10.00" fill="#000000">/SFML/SFML_Engine/include</text>
<text text-anchor="middle" x="905" y="-475.5" font-family="Helvetica,sans-Serif" font-size="10.00" fill="#000000">/HUD.hpp</text>
</a>
</g>
</g>
<!-- Node1&#45;&gt;Node23 -->
<g id="edge38" class="edge">
<title>Node1&#45;&gt;Node23</title>
<path fill="none" stroke="#191970" d="M839.6892,-539.9424C852.4822,-529.9639 866.7551,-518.831 878.6874,-509.5239"/>
<polygon fill="#191970" stroke="#191970" points="837.268,-537.3921 831.5356,-546.3022 841.5733,-542.9116 837.268,-537.3921"/>
</g>
<!-- Node25 -->
<g id="node25" class="node">
<title>Node25</title>
<g id="a_node25"><a xlink:href="main_8cpp.html" target="_top" xlink:title="/mnt/hdd/C0de/Engines\l/SFML/SFML_Engine/src\l/main.cpp">
<polygon fill="none" stroke="#000000" points="1093.5,-468.5 1093.5,-509.5 1220.5,-509.5 1220.5,-468.5 1093.5,-468.5"/>
<text text-anchor="start" x="1101.5" y="-497.5" font-family="Helvetica,sans-Serif" font-size="10.00" fill="#000000">/mnt/hdd/C0de/Engines</text>
<text text-anchor="start" x="1101.5" y="-486.5" font-family="Helvetica,sans-Serif" font-size="10.00" fill="#000000">/SFML/SFML_Engine/src</text>
<text text-anchor="middle" x="1157" y="-475.5" font-family="Helvetica,sans-Serif" font-size="10.00" fill="#000000">/main.cpp</text>
</a>
</g>
</g>
<!-- Node1&#45;&gt;Node25 -->
<g id="edge44" class="edge">
<title>Node1&#45;&gt;Node25</title>
<path fill="none" stroke="#191970" d="M887.046,-551.2221C941.6274,-540.4092 1014.8177,-525.3023 1079,-510 1083.6381,-508.8942 1088.4201,-507.7117 1093.2259,-506.4924"/>
<polygon fill="#191970" stroke="#191970" points="886.21,-547.8195 877.0773,-553.1902 887.5659,-554.6869 886.21,-547.8195"/>
</g>
<!-- Node3 -->
<g id="node3" class="node">
<title>Node3</title>
<g id="a_node3"><a xlink:href="Bullet_8hpp.html" target="_top" xlink:title="/mnt/hdd/C0de/Engines\l/SFML/SFML_Engine/include\l/Bullet.hpp">
<polygon fill="none" stroke="#000000" points="489,-390.5 489,-431.5 633,-431.5 633,-390.5 489,-390.5"/>
<text text-anchor="start" x="497" y="-419.5" font-family="Helvetica,sans-Serif" font-size="10.00" fill="#000000">/mnt/hdd/C0de/Engines</text>
<text text-anchor="start" x="497" y="-408.5" font-family="Helvetica,sans-Serif" font-size="10.00" fill="#000000">/SFML/SFML_Engine/include</text>
<text text-anchor="middle" x="561" y="-397.5" font-family="Helvetica,sans-Serif" font-size="10.00" fill="#000000">/Bullet.hpp</text>
</a>
</g>
</g>
<!-- Node2&#45;&gt;Node3 -->
<g id="edge2" class="edge">
<title>Node2&#45;&gt;Node3</title>
<path fill="none" stroke="#191970" d="M561,-458.0789C561,-449.2178 561,-439.7747 561,-431.6898"/>
<polygon fill="#191970" stroke="#191970" points="557.5001,-458.0974 561,-468.0974 564.5001,-458.0975 557.5001,-458.0974"/>
</g>
<!-- Node4 -->
<g id="node4" class="node">
<title>Node4</title>
<g id="a_node4"><a xlink:href="Gun_8hpp.html" target="_top" xlink:title="/mnt/hdd/C0de/Engines\l/SFML/SFML_Engine/include\l/Gun.hpp">
<polygon fill="none" stroke="#000000" points="297,-312.5 297,-353.5 441,-353.5 441,-312.5 297,-312.5"/>
<text text-anchor="start" x="305" y="-341.5" font-family="Helvetica,sans-Serif" font-size="10.00" fill="#000000">/mnt/hdd/C0de/Engines</text>
<text text-anchor="start" x="305" y="-330.5" font-family="Helvetica,sans-Serif" font-size="10.00" fill="#000000">/SFML/SFML_Engine/include</text>
<text text-anchor="middle" x="369" y="-319.5" font-family="Helvetica,sans-Serif" font-size="10.00" fill="#000000">/Gun.hpp</text>
</a>
</g>
</g>
<!-- Node2&#45;&gt;Node4 -->
<g id="edge33" class="edge">
<title>Node2&#45;&gt;Node4</title>
<path fill="none" stroke="#191970" d="M519.7675,-462.611C506.5909,-453.499 492.2551,-442.8417 480,-432 461.1461,-415.3204 460.4334,-407.1432 442,-390 428.1061,-377.0786 411.5108,-363.9587 397.6564,-353.5686"/>
<polygon fill="#191970" stroke="#191970" points="517.9879,-465.6334 528.2254,-468.3621 521.924,-459.8448 517.9879,-465.6334"/>
</g>
<!-- Node5 -->
<g id="node5" class="node">
<title>Node5</title>
<g id="a_node5"><a xlink:href="Enemy_8hpp.html" target="_top" xlink:title="/mnt/hdd/C0de/Engines\l/SFML/SFML_Engine/include\l/Enemy.hpp">
<polygon fill="none" stroke="#000000" points="152,-234.5 152,-275.5 296,-275.5 296,-234.5 152,-234.5"/>
<text text-anchor="start" x="160" y="-263.5" font-family="Helvetica,sans-Serif" font-size="10.00" fill="#000000">/mnt/hdd/C0de/Engines</text>
<text text-anchor="start" x="160" y="-252.5" font-family="Helvetica,sans-Serif" font-size="10.00" fill="#000000">/SFML/SFML_Engine/include</text>
<text text-anchor="middle" x="224" y="-241.5" font-family="Helvetica,sans-Serif" font-size="10.00" fill="#000000">/Enemy.hpp</text>
</a>
</g>
</g>
<!-- Node2&#45;&gt;Node5 -->
<g id="edge32" class="edge">
<title>Node2&#45;&gt;Node5</title>
<path fill="none" stroke="#191970" d="M478.8246,-478.3525C412.6297,-468.4974 325.9907,-452.317 297,-432 244.7358,-395.3726 229.8054,-314.1238 225.6067,-275.7886"/>
<polygon fill="#191970" stroke="#191970" points="478.4451,-481.8341 488.8467,-479.8199 479.4593,-474.908 478.4451,-481.8341"/>
</g>
<!-- Node10 -->
<g id="node10" class="node">
<title>Node10</title>
<g id="a_node10"><a xlink:href="GameState_8hpp.html" target="_top" xlink:title="/mnt/hdd/C0de/Engines\l/SFML/SFML_Engine/include\l/GameState.hpp">
<polygon fill="none" stroke="#000000" points="702,-78.5 702,-119.5 846,-119.5 846,-78.5 702,-78.5"/>
<text text-anchor="start" x="710" y="-107.5" font-family="Helvetica,sans-Serif" font-size="10.00" fill="#000000">/mnt/hdd/C0de/Engines</text>
<text text-anchor="start" x="710" y="-96.5" font-family="Helvetica,sans-Serif" font-size="10.00" fill="#000000">/SFML/SFML_Engine/include</text>
<text text-anchor="middle" x="774" y="-85.5" font-family="Helvetica,sans-Serif" font-size="10.00" fill="#000000">/GameState.hpp</text>
</a>
</g>
</g>
<!-- Node2&#45;&gt;Node10 -->
<g id="edge35" class="edge">
<title>Node2&#45;&gt;Node10</title>
<path fill="none" stroke="#191970" d="M639.765,-464.7004C697.9189,-441.2999 767,-399.506 767,-333 767,-333 767,-333 767,-255 767,-206.4721 770.4223,-149.5379 772.4811,-119.6788"/>
<polygon fill="#191970" stroke="#191970" points="638.2158,-461.5476 630.1681,-468.4386 640.7565,-468.0702 638.2158,-461.5476"/>
</g>
<!-- Node18 -->
<g id="node18" class="node">
<title>Node18</title>
<g id="a_node18"><a xlink:href="Main__Player_8hpp.html" target="_top" xlink:title="/mnt/hdd/C0de/Engines\l/SFML/SFML_Engine/include\l/Main_Player.hpp">
<polygon fill="none" stroke="#000000" points="509,-234.5 509,-275.5 653,-275.5 653,-234.5 509,-234.5"/>
<text text-anchor="start" x="517" y="-263.5" font-family="Helvetica,sans-Serif" font-size="10.00" fill="#000000">/mnt/hdd/C0de/Engines</text>
<text text-anchor="start" x="517" y="-252.5" font-family="Helvetica,sans-Serif" font-size="10.00" fill="#000000">/SFML/SFML_Engine/include</text>
<text text-anchor="middle" x="581" y="-241.5" font-family="Helvetica,sans-Serif" font-size="10.00" fill="#000000">/Main_Player.hpp</text>
</a>
</g>
</g>
<!-- Node2&#45;&gt;Node18 -->
<g id="edge34" class="edge">
<title>Node2&#45;&gt;Node18</title>
<path fill="none" stroke="#191970" d="M612.482,-462.6836C623.9806,-454.4065 634.8663,-444.1781 642,-432 659.614,-401.9306 648.2199,-388.803 650,-354 650.9535,-335.3577 657.9538,-328.8873 650,-312 643.0483,-297.2403 630.1914,-284.9992 617.4429,-275.6936"/>
<polygon fill="#191970" stroke="#191970" points="610.3847,-459.8763 604.0458,-468.3657 614.2952,-465.6822 610.3847,-459.8763"/>
</g>
<!-- Node22 -->
<g id="node22" class="node">
<title>Node22</title>
<g id="a_node22"><a xlink:href="GameWorld_8cpp.html" target="_top" xlink:title="/mnt/hdd/C0de/Engines\l/SFML/SFML_Engine/src\l/GameWorld.cpp">
<polygon fill="none" stroke="#000000" points="305.5,-390.5 305.5,-431.5 432.5,-431.5 432.5,-390.5 305.5,-390.5"/>
<text text-anchor="start" x="313.5" y="-419.5" font-family="Helvetica,sans-Serif" font-size="10.00" fill="#000000">/mnt/hdd/C0de/Engines</text>
<text text-anchor="start" x="313.5" y="-408.5" font-family="Helvetica,sans-Serif" font-size="10.00" fill="#000000">/SFML/SFML_Engine/src</text>
<text text-anchor="middle" x="369" y="-397.5" font-family="Helvetica,sans-Serif" font-size="10.00" fill="#000000">/GameWorld.cpp</text>
</a>
</g>
</g>
<!-- Node2&#45;&gt;Node22 -->
<g id="edge36" class="edge">
<title>Node2&#45;&gt;Node22</title>
<path fill="none" stroke="#191970" d="M500.8945,-464.5821C474.8018,-453.982 444.5762,-441.7028 419.6478,-431.5757"/>
<polygon fill="#191970" stroke="#191970" points="499.7211,-467.8832 510.3031,-468.4044 502.3558,-461.3979 499.7211,-467.8832"/>
</g>
<!-- Node3&#45;&gt;Node4 -->
<g id="edge3" class="edge">
<title>Node3&#45;&gt;Node4</title>
<path fill="none" stroke="#191970" d="M500.8945,-386.5821C474.8018,-375.982 444.5762,-363.7028 419.6478,-353.5757"/>
<polygon fill="#191970" stroke="#191970" points="499.7211,-389.8832 510.3031,-390.4044 502.3558,-383.3979 499.7211,-389.8832"/>
</g>
<!-- Node3&#45;&gt;Node5 -->
<g id="edge27" class="edge">
<title>Node3&#45;&gt;Node5</title>
<path fill="none" stroke="#191970" d="M478.4285,-395.3607C401.0255,-380.4538 295.9998,-359.4891 288,-354 259.8177,-334.6626 241.1691,-298.4248 231.6088,-275.5654"/>
<polygon fill="#191970" stroke="#191970" points="478.195,-398.8798 488.6758,-397.33 479.5161,-392.0056 478.195,-398.8798"/>
</g>
<!-- Node3&#45;&gt;Node6 -->
<g id="edge29" class="edge">
<title>Node3&#45;&gt;Node6</title>
<path fill="none" stroke="#191970" d="M518.5399,-384.1602C507.6801,-375.624 496.8638,-365.3985 489,-354 457.2313,-307.9519 476.9344,-283.569 451,-234 444.2195,-221.0402 434.4462,-208.0205 425.8319,-197.7026"/>
<polygon fill="#191970" stroke="#191970" points="516.7026,-387.157 526.8048,-390.3501 520.8988,-381.5541 516.7026,-387.157"/>
</g>
<!-- Node3&#45;&gt;Node10 -->
<g id="edge30" class="edge">
<title>Node3&#45;&gt;Node10</title>
<path fill="none" stroke="#191970" d="M611.9218,-385.0978C625.4713,-376.5174 639.2973,-366.0346 650,-354 683.7772,-316.0193 743.7452,-173.3915 765.6732,-119.6547"/>
<polygon fill="#191970" stroke="#191970" points="609.8243,-382.2768 603.0934,-390.4589 613.4576,-388.26 609.8243,-382.2768"/>
</g>
<!-- Node3&#45;&gt;Node18 -->
<g id="edge28" class="edge">
<title>Node3&#45;&gt;Node18</title>
<path fill="none" stroke="#191970" d="M607.9846,-384.4851C618.4461,-376.1721 628.1566,-365.9763 634,-354 642.1853,-337.2237 640.8288,-329.3727 634,-312 628.5129,-298.0406 617.8199,-285.4704 607.4672,-275.7092"/>
<polygon fill="#191970" stroke="#191970" points="605.8477,-381.7123 599.89,-390.4734 610.0108,-387.3398 605.8477,-381.7123"/>
</g>
<!-- Node21 -->
<g id="node21" class="node">
<title>Node21</title>
<g id="a_node21"><a xlink:href="Bullet_8cpp.html" target="_top" xlink:title="/mnt/hdd/C0de/Engines\l/SFML/SFML_Engine/src\l/Bullet.cpp">
<polygon fill="none" stroke="#000000" points="497.5,-312.5 497.5,-353.5 624.5,-353.5 624.5,-312.5 497.5,-312.5"/>
<text text-anchor="start" x="505.5" y="-341.5" font-family="Helvetica,sans-Serif" font-size="10.00" fill="#000000">/mnt/hdd/C0de/Engines</text>
<text text-anchor="start" x="505.5" y="-330.5" font-family="Helvetica,sans-Serif" font-size="10.00" fill="#000000">/SFML/SFML_Engine/src</text>
<text text-anchor="middle" x="561" y="-319.5" font-family="Helvetica,sans-Serif" font-size="10.00" fill="#000000">/Bullet.cpp</text>
</a>
</g>
</g>
<!-- Node3&#45;&gt;Node21 -->
<g id="edge31" class="edge">
<title>Node3&#45;&gt;Node21</title>
<path fill="none" stroke="#191970" d="M561,-380.0789C561,-371.2178 561,-361.7747 561,-353.6898"/>
<polygon fill="#191970" stroke="#191970" points="557.5001,-380.0974 561,-390.0974 564.5001,-380.0975 557.5001,-380.0974"/>
</g>
<!-- Node4&#45;&gt;Node5 -->
<g id="edge4" class="edge">
<title>Node4&#45;&gt;Node5</title>
<path fill="none" stroke="#191970" d="M321.5971,-307.5005C302.3283,-297.1352 280.3614,-285.3185 262.1533,-275.5239"/>
<polygon fill="#191970" stroke="#191970" points="320.0586,-310.6471 330.5233,-312.3022 323.3748,-304.4825 320.0586,-310.6471"/>
</g>
<!-- Node4&#45;&gt;Node18 -->
<g id="edge22" class="edge">
<title>Node4&#45;&gt;Node18</title>
<path fill="none" stroke="#191970" d="M434.6094,-308.8607C463.5912,-298.1976 497.3098,-285.7917 525.0764,-275.5757"/>
<polygon fill="#191970" stroke="#191970" points="433.1542,-305.6666 424.9778,-312.4044 435.5713,-312.2361 433.1542,-305.6666"/>
</g>
<!-- Node20 -->
<g id="node20" class="node">
<title>Node20</title>
<g id="a_node20"><a xlink:href="Gun_8cpp.html" target="_top" xlink:title="/mnt/hdd/C0de/Engines\l/SFML/SFML_Engine/src\l/Gun.cpp">
<polygon fill="none" stroke="#000000" points="314.5,-234.5 314.5,-275.5 441.5,-275.5 441.5,-234.5 314.5,-234.5"/>
<text text-anchor="start" x="322.5" y="-263.5" font-family="Helvetica,sans-Serif" font-size="10.00" fill="#000000">/mnt/hdd/C0de/Engines</text>
<text text-anchor="start" x="322.5" y="-252.5" font-family="Helvetica,sans-Serif" font-size="10.00" fill="#000000">/SFML/SFML_Engine/src</text>
<text text-anchor="middle" x="378" y="-241.5" font-family="Helvetica,sans-Serif" font-size="10.00" fill="#000000">/Gun.cpp</text>
</a>
</g>
</g>
<!-- Node4&#45;&gt;Node20 -->
<g id="edge26" class="edge">
<title>Node4&#45;&gt;Node20</title>
<path fill="none" stroke="#191970" d="M372.5678,-302.0789C373.5903,-293.2178 374.6798,-283.7747 375.6127,-275.6898"/>
<polygon fill="#191970" stroke="#191970" points="369.0812,-301.7621 371.4118,-312.0974 376.0351,-302.5646 369.0812,-301.7621"/>
</g>
<!-- Node5&#45;&gt;Node6 -->
<g id="edge5" class="edge">
<title>Node5&#45;&gt;Node6</title>
<path fill="none" stroke="#191970" d="M281.8527,-230.3415C306.6354,-219.7784 335.2442,-207.5844 358.8479,-197.5239"/>
<polygon fill="#191970" stroke="#191970" points="280.3871,-227.1614 272.5602,-234.3022 283.1318,-233.6009 280.3871,-227.1614"/>
</g>
<!-- Node17 -->
<g id="node17" class="node">
<title>Node17</title>
<g id="a_node17"><a xlink:href="Enemy_8cpp.html" target="_top" xlink:title="/mnt/hdd/C0de/Engines\l/SFML/SFML_Engine/src\l/Enemy.cpp">
<polygon fill="none" stroke="#000000" points="160.5,-156.5 160.5,-197.5 287.5,-197.5 287.5,-156.5 160.5,-156.5"/>
<text text-anchor="start" x="168.5" y="-185.5" font-family="Helvetica,sans-Serif" font-size="10.00" fill="#000000">/mnt/hdd/C0de/Engines</text>
<text text-anchor="start" x="168.5" y="-174.5" font-family="Helvetica,sans-Serif" font-size="10.00" fill="#000000">/SFML/SFML_Engine/src</text>
<text text-anchor="middle" x="224" y="-163.5" font-family="Helvetica,sans-Serif" font-size="10.00" fill="#000000">/Enemy.cpp</text>
</a>
</g>
</g>
<!-- Node5&#45;&gt;Node17 -->
<g id="edge21" class="edge">
<title>Node5&#45;&gt;Node17</title>
<path fill="none" stroke="#191970" d="M224,-224.0789C224,-215.2178 224,-205.7747 224,-197.6898"/>
<polygon fill="#191970" stroke="#191970" points="220.5001,-224.0974 224,-234.0974 227.5001,-224.0975 220.5001,-224.0974"/>
</g>
<!-- Node7 -->
<g id="node7" class="node">
<title>Node7</title>
<g id="a_node7"><a xlink:href="GameOverState_8hpp.html" target="_top" xlink:title="/mnt/hdd/C0de/Engines\l/SFML/SFML_Engine/include\l/GameOverState.hpp">
<polygon fill="none" stroke="#000000" points="228,-78.5 228,-119.5 372,-119.5 372,-78.5 228,-78.5"/>
<text text-anchor="start" x="236" y="-107.5" font-family="Helvetica,sans-Serif" font-size="10.00" fill="#000000">/mnt/hdd/C0de/Engines</text>
<text text-anchor="start" x="236" y="-96.5" font-family="Helvetica,sans-Serif" font-size="10.00" fill="#000000">/SFML/SFML_Engine/include</text>
<text text-anchor="middle" x="300" y="-85.5" font-family="Helvetica,sans-Serif" font-size="10.00" fill="#000000">/GameOverState.hpp</text>
</a>
</g>
</g>
<!-- Node6&#45;&gt;Node7 -->
<g id="edge6" class="edge">
<title>Node6&#45;&gt;Node7</title>
<path fill="none" stroke="#191970" d="M370.2732,-150.2272C356.4852,-140.1761 341.0436,-128.9196 328.1545,-119.5239"/>
<polygon fill="#191970" stroke="#191970" points="368.4643,-153.2398 378.6069,-156.3022 372.5878,-147.5832 368.4643,-153.2398"/>
</g>
<!-- Node6&#45;&gt;Node10 -->
<g id="edge9" class="edge">
<title>Node6&#45;&gt;Node10</title>
<path fill="none" stroke="#191970" d="M489.3226,-156.0203C580.7136,-136.7443 606.1109,-138.8992 693,-120 695.8391,-119.3825 698.729,-118.7333 701.6444,-118.0611"/>
<polygon fill="#191970" stroke="#191970" points="488.4133,-152.6355 479.3663,-158.1492 489.8771,-159.4808 488.4133,-152.6355"/>
</g>
<!-- Node13 -->
<g id="node13" class="node">
<title>Node13</title>
<g id="a_node13"><a xlink:href="MainMenuState_8hpp.html" target="_top" xlink:title="/mnt/hdd/C0de/Engines\l/SFML/SFML_Engine/include\l/MainMenuState.hpp">
<polygon fill="none" stroke="#000000" points="66,-78.5 66,-119.5 210,-119.5 210,-78.5 66,-78.5"/>
<text text-anchor="start" x="74" y="-107.5" font-family="Helvetica,sans-Serif" font-size="10.00" fill="#000000">/mnt/hdd/C0de/Engines</text>
<text text-anchor="start" x="74" y="-96.5" font-family="Helvetica,sans-Serif" font-size="10.00" fill="#000000">/SFML/SFML_Engine/include</text>
<text text-anchor="middle" x="138" y="-85.5" font-family="Helvetica,sans-Serif" font-size="10.00" fill="#000000">/MainMenuState.hpp</text>
</a>
</g>
</g>
<!-- Node6&#45;&gt;Node13 -->
<g id="edge14" class="edge">
<title>Node6&#45;&gt;Node13</title>
<path fill="none" stroke="#191970" d="M326.14,-153.5536C288.84,-142.738 244.9577,-130.0138 208.9597,-119.5757"/>
<polygon fill="#191970" stroke="#191970" points="325.3924,-156.9809 335.9715,-156.4044 327.3419,-150.2579 325.3924,-156.9809"/>
</g>
<!-- Node15 -->
<g id="node15" class="node">
<title>Node15</title>
<g id="a_node15"><a xlink:href="SplashState_8hpp.html" target="_top" xlink:title="/mnt/hdd/C0de/Engines\l/SFML/SFML_Engine/include\l/SplashState.hpp">
<polygon fill="none" stroke="#000000" points="540,-78.5 540,-119.5 684,-119.5 684,-78.5 540,-78.5"/>
<text text-anchor="start" x="548" y="-107.5" font-family="Helvetica,sans-Serif" font-size="10.00" fill="#000000">/mnt/hdd/C0de/Engines</text>
<text text-anchor="start" x="548" y="-96.5" font-family="Helvetica,sans-Serif" font-size="10.00" fill="#000000">/SFML/SFML_Engine/include</text>
<text text-anchor="middle" x="612" y="-85.5" font-family="Helvetica,sans-Serif" font-size="10.00" fill="#000000">/SplashState.hpp</text>
</a>
</g>
</g>
<!-- Node6&#45;&gt;Node15 -->
<g id="edge17" class="edge">
<title>Node6&#45;&gt;Node15</title>
<path fill="none" stroke="#191970" d="M470.8089,-152.7215C498.7513,-142.0897 531.1899,-129.7473 557.9229,-119.5757"/>
<polygon fill="#191970" stroke="#191970" points="469.2311,-149.577 461.1295,-156.4044 471.7205,-156.1194 469.2311,-149.577"/>
</g>
<!-- Node16 -->
<g id="node16" class="node">
<title>Node16</title>
<g id="a_node16"><a xlink:href="LoadingGameObjects_8cpp.html" target="_top" xlink:title="/mnt/hdd/C0de/Engines\l/SFML/SFML_Engine/src\l/LoadingGameObjects.cpp">
<polygon fill="none" stroke="#000000" points="390,-78.5 390,-119.5 522,-119.5 522,-78.5 390,-78.5"/>
<text text-anchor="start" x="398" y="-107.5" font-family="Helvetica,sans-Serif" font-size="10.00" fill="#000000">/mnt/hdd/C0de/Engines</text>
<text text-anchor="start" x="398" y="-96.5" font-family="Helvetica,sans-Serif" font-size="10.00" fill="#000000">/SFML/SFML_Engine/src</text>
<text text-anchor="middle" x="456" y="-85.5" font-family="Helvetica,sans-Serif" font-size="10.00" fill="#000000">/LoadingGameObjects.cpp</text>
</a>
</g>
</g>
<!-- Node6&#45;&gt;Node16 -->
<g id="edge20" class="edge">
<title>Node6&#45;&gt;Node16</title>
<path fill="none" stroke="#191970" d="M425.5207,-147.5181C431.3441,-138.2482 437.6475,-128.2141 443.0026,-119.6898"/>
<polygon fill="#191970" stroke="#191970" points="422.4869,-145.7678 420.1311,-156.0974 428.4144,-149.4915 422.4869,-145.7678"/>
</g>
<!-- Node7&#45;&gt;Node8 -->
<g id="edge7" class="edge">
<title>Node7&#45;&gt;Node8</title>
<path fill="none" stroke="#191970" d="M300,-68.0789C300,-59.2178 300,-49.7747 300,-41.6898"/>
<polygon fill="#191970" stroke="#191970" points="296.5001,-68.0974 300,-78.0974 303.5001,-68.0975 296.5001,-68.0974"/>
</g>
<!-- Node7&#45;&gt;Node9 -->
<g id="edge8" class="edge">
<title>Node7&#45;&gt;Node9</title>
<path fill="none" stroke="#191970" d="M382.2425,-77.9063C523.9784,-52.718 564.3981,-69.5694 702,-42 704.6811,-41.4628 707.4068,-40.8725 710.1518,-40.2413"/>
<polygon fill="#191970" stroke="#191970" points="381.5233,-74.4796 372.3096,-79.7102 382.7741,-81.3669 381.5233,-74.4796"/>
</g>
<!-- Node10&#45;&gt;Node8 -->
<g id="edge11" class="edge">
<title>Node10&#45;&gt;Node8</title>
<path fill="none" stroke="#191970" d="M691.8429,-77.8621C570.6335,-53.858 439.6457,-36.9639 363.6695,-28.0566"/>
<polygon fill="#191970" stroke="#191970" points="691.1753,-81.2978 701.6676,-79.8279 692.5487,-74.4338 691.1753,-81.2978"/>
</g>
<!-- Node10&#45;&gt;Node9 -->
<g id="edge12" class="edge">
<title>Node10&#45;&gt;Node9</title>
<path fill="none" stroke="#191970" d="M774,-68.0789C774,-59.2178 774,-49.7747 774,-41.6898"/>
<polygon fill="#191970" stroke="#191970" points="770.5001,-68.0974 774,-78.0974 777.5001,-68.0975 770.5001,-68.0974"/>
</g>
<!-- Node10&#45;&gt;Node11 -->
<g id="edge10" class="edge">
<title>Node10&#45;&gt;Node11</title>
<path fill="none" stroke="#191970" d="M821.4029,-73.5005C840.6717,-63.1352 862.6386,-51.3185 880.8467,-41.5239"/>
<polygon fill="#191970" stroke="#191970" points="819.6252,-70.4825 812.4767,-78.3022 822.9414,-76.6471 819.6252,-70.4825"/>
</g>
<!-- Node10&#45;&gt;Node12 -->
<g id="edge13" class="edge">
<title>Node10&#45;&gt;Node12</title>
<path fill="none" stroke="#191970" d="M726.5971,-73.5005C707.3283,-63.1352 685.3614,-51.3185 667.1533,-41.5239"/>
<polygon fill="#191970" stroke="#191970" points="725.0586,-76.6471 735.5233,-78.3022 728.3748,-70.4825 725.0586,-76.6471"/>
</g>
<!-- Node13&#45;&gt;Node12 -->
<g id="edge15" class="edge">
<title>Node13&#45;&gt;Node12</title>
<path fill="none" stroke="#191970" d="M220.2759,-77.8471C347.8621,-52.9864 486.5354,-36.1533 565.4064,-27.5347"/>
<polygon fill="#191970" stroke="#191970" points="219.4632,-74.4398 210.3281,-79.8064 220.816,-81.3079 219.4632,-74.4398"/>
</g>
<!-- Node13&#45;&gt;Node14 -->
<g id="edge16" class="edge">
<title>Node13&#45;&gt;Node14</title>
<path fill="none" stroke="#191970" d="M138,-68.0789C138,-59.2178 138,-49.7747 138,-41.6898"/>
<polygon fill="#191970" stroke="#191970" points="134.5001,-68.0974 138,-78.0974 141.5001,-68.0975 134.5001,-68.0974"/>
</g>
<!-- Node15&#45;&gt;Node11 -->
<g id="edge18" class="edge">
<title>Node15&#45;&gt;Node11</title>
<path fill="none" stroke="#191970" d="M694.41,-77.6859C762.9448,-61.0258 782.0679,-59.0454 847,-42 849.7707,-41.2727 852.5969,-40.5152 855.4487,-39.7383"/>
<polygon fill="#191970" stroke="#191970" points="693.2819,-74.3587 684.4016,-80.1373 694.9472,-81.1577 693.2819,-74.3587"/>
</g>
<!-- Node15&#45;&gt;Node14 -->
<g id="edge19" class="edge">
<title>Node15&#45;&gt;Node14</title>
<path fill="none" stroke="#191970" d="M529.8459,-77.9083C395.5304,-53.4493 357.8418,-65.1062 227,-42 218.7141,-40.5367 210.0444,-38.7793 201.5049,-36.9121"/>
<polygon fill="#191970" stroke="#191970" points="529.2157,-81.351 539.6862,-79.7327 530.4918,-74.4683 529.2157,-81.351"/>
</g>
<!-- Node18&#45;&gt;Node6 -->
<g id="edge23" class="edge">
<title>Node18&#45;&gt;Node6</title>
<path fill="none" stroke="#191970" d="M525.6809,-230.2018C502.1891,-219.671 475.128,-207.5401 452.784,-197.5239"/>
<polygon fill="#191970" stroke="#191970" points="524.2712,-233.4054 534.828,-234.3022 527.1346,-227.0178 524.2712,-233.4054"/>
</g>
<!-- Node18&#45;&gt;Node10 -->
<g id="edge24" class="edge">
<title>Node18&#45;&gt;Node10</title>
<path fill="none" stroke="#191970" d="M607.3416,-227.076C633.0526,-199.9453 669.3859,-161.9832 677,-156 694.3547,-142.3625 715.2879,-129.6585 733.259,-119.7211"/>
<polygon fill="#191970" stroke="#191970" points="604.7364,-224.7368 600.4041,-234.4054 609.8203,-229.5488 604.7364,-224.7368"/>
</g>
<!-- Node19 -->
<g id="node19" class="node">
<title>Node19</title>
<g id="a_node19"><a xlink:href="Main__Player_8cpp.html" target="_top" xlink:title="/mnt/hdd/C0de/Engines\l/SFML/SFML_Engine/src\l/Main_Player.cpp">
<polygon fill="none" stroke="#000000" points="497.5,-156.5 497.5,-197.5 624.5,-197.5 624.5,-156.5 497.5,-156.5"/>
<text text-anchor="start" x="505.5" y="-185.5" font-family="Helvetica,sans-Serif" font-size="10.00" fill="#000000">/mnt/hdd/C0de/Engines</text>
<text text-anchor="start" x="505.5" y="-174.5" font-family="Helvetica,sans-Serif" font-size="10.00" fill="#000000">/SFML/SFML_Engine/src</text>
<text text-anchor="middle" x="561" y="-163.5" font-family="Helvetica,sans-Serif" font-size="10.00" fill="#000000">/Main_Player.cpp</text>
</a>
</g>
</g>
<!-- Node18&#45;&gt;Node19 -->
<g id="edge25" class="edge">
<title>Node18&#45;&gt;Node19</title>
<path fill="none" stroke="#191970" d="M573.1455,-224.3676C570.8521,-215.4232 568.4007,-205.8626 566.3051,-197.6898"/>
<polygon fill="#191970" stroke="#191970" points="569.7662,-225.2801 575.6404,-234.0974 576.5469,-223.5414 569.7662,-225.2801"/>
</g>
<!-- Node23&#45;&gt;Node10 -->
<g id="edge39" class="edge">
<title>Node23&#45;&gt;Node10</title>
<path fill="none" stroke="#191970" d="M880.6769,-460.3667C874.211,-451.6787 867.7218,-441.8227 863,-432 809.7213,-321.1661 784.6298,-173.6932 776.8038,-119.8235"/>
<polygon fill="#191970" stroke="#191970" points="877.9247,-462.5293 886.8105,-468.2993 883.4624,-458.2474 877.9247,-462.5293"/>
</g>
<!-- Node24 -->
<g id="node24" class="node">
<title>Node24</title>
<g id="a_node24"><a xlink:href="HUD_8cpp.html" target="_top" xlink:title="/mnt/hdd/C0de/Engines\l/SFML/SFML_Engine/src\l/HUD.cpp">
<polygon fill="none" stroke="#000000" points="871.5,-390.5 871.5,-431.5 998.5,-431.5 998.5,-390.5 871.5,-390.5"/>
<text text-anchor="start" x="879.5" y="-419.5" font-family="Helvetica,sans-Serif" font-size="10.00" fill="#000000">/mnt/hdd/C0de/Engines</text>
<text text-anchor="start" x="879.5" y="-408.5" font-family="Helvetica,sans-Serif" font-size="10.00" fill="#000000">/SFML/SFML_Engine/src</text>
<text text-anchor="middle" x="935" y="-397.5" font-family="Helvetica,sans-Serif" font-size="10.00" fill="#000000">/HUD.cpp</text>
</a>
</g>
</g>
<!-- Node23&#45;&gt;Node24 -->
<g id="edge40" class="edge">
<title>Node23&#45;&gt;Node24</title>
<path fill="none" stroke="#191970" d="M916.6708,-458.6559C920.1427,-449.629 923.8652,-439.9505 927.0424,-431.6898"/>
<polygon fill="#191970" stroke="#191970" points="913.3626,-457.5075 913.0394,-468.0974 919.896,-460.0204 913.3626,-457.5075"/>
</g>
</g>
</svg>
