<?xml version="1.0" encoding="UTF-8" standalone="no"?>
<!DOCTYPE svg PUBLIC "-//W3C//DTD SVG 1.1//EN"
 "http://www.w3.org/Graphics/SVG/1.1/DTD/svg11.dtd">
<!-- Generated by graphviz version 2.40.1 (20161225.0304)
 -->
<!-- Title: /mnt/hdd/C0de/Engines/SFML/SFML_Engine/include/Enemy.hpp Pages: 1 -->
<!--zoomable 284 -->
<svg id="main" version="1.1" xmlns="http://www.w3.org/2000/svg" xmlns:xlink="http://www.w3.org/1999/xlink" xml:space="preserve" onload="init(evt)">
<style type="text/css"><![CDATA[
.edge:hover path { stroke: red; }
.edge:hover polygon { stroke: red; fill: red; }
]]></style>
<script type="text/javascript"><![CDATA[
var edges = document.getElementsByTagName('g');
if (edges && edges.length) {
  for (var i=0;i<edges.length;i++) {
    if (edges[i].id.substr(0,4)=='edge') {
      edges[i].setAttribute('class','edge');
    }
  }
}
]]></script>
        <defs>
                <circle id="rim" cx="0" cy="0" r="7"/>
                <circle id="rim2" cx="0" cy="0" r="3.5"/>
                <g id="zoomPlus">
                        <use xlink:href="#rim" fill="#404040">
                                <set attributeName="fill" to="#808080" begin="zoomplus.mouseover" end="zoomplus.mouseout"/>
                        </use>
                        <path d="M-4,0h8M0,-4v8" fill="none" stroke="white" stroke-width="1.5" pointer-events="none"/>
                </g>
                <g id="zoomMin">
                        <use xlink:href="#rim" fill="#404040">
                                <set attributeName="fill" to="#808080" begin="zoomminus.mouseover" end="zoomminus.mouseout"/>
                        </use>
                        <path d="M-4,0h8" fill="none" stroke="white" stroke-width="1.5" pointer-events="none"/>
                </g>
                <g id="dirArrow">
                        <path fill="none" stroke="white" stroke-width="1.5" d="M0,-3.0v7 M-2.5,-0.5L0,-3.0L2.5,-0.5"/>
                </g>
               <g id="resetDef">
                       <use xlink:href="#rim2" fill="#404040">
                               <set attributeName="fill" to="#808080" begin="reset.mouseover" end="reset.mouseout"/>
                       </use>
               </g>
        </defs>

<script type="text/javascript">
var viewWidth = 827;
var viewHeight = 284;
var sectionId = 'dynsection-1';
</script>
<script xlink:href="svgpan.js"/>
<svg id="graph" class="graph">
<g id="viewport">
<title>/mnt/hdd/C0de/Engines/SFML/SFML_Engine/include/Enemy.hpp</title>
<!-- Node22 -->
<g id="node1" class="node">
<title>Node22</title>
<polygon fill="#bfbfbf" stroke="#000000" points="439.5,-234.5 439.5,-275.5 583.5,-275.5 583.5,-234.5 439.5,-234.5"/>
<text text-anchor="start" x="447.5" y="-263.5" font-family="Helvetica,sans-Serif" font-size="10.00" fill="#000000">/mnt/hdd/C0de/Engines</text>
<text text-anchor="start" x="447.5" y="-252.5" font-family="Helvetica,sans-Serif" font-size="10.00" fill="#000000">/SFML/SFML_Engine/include</text>
<text text-anchor="middle" x="511.5" y="-241.5" font-family="Helvetica,sans-Serif" font-size="10.00" fill="#000000">/Enemy.hpp</text>
</g>
<!-- Node23 -->
<g id="node2" class="node">
<title>Node23</title>
<g id="a_node2"><a xlink:href="LoadingGameObjects_8hpp.html" target="_top" xlink:title="/mnt/hdd/C0de/Engines\l/SFML/SFML_Engine/include\l/LoadingGameObjects.hpp">
<polygon fill="none" stroke="#000000" points="362.5,-156.5 362.5,-197.5 506.5,-197.5 506.5,-156.5 362.5,-156.5"/>
<text text-anchor="start" x="370.5" y="-185.5" font-family="Helvetica,sans-Serif" font-size="10.00" fill="#000000">/mnt/hdd/C0de/Engines</text>
<text text-anchor="start" x="370.5" y="-174.5" font-family="Helvetica,sans-Serif" font-size="10.00" fill="#000000">/SFML/SFML_Engine/include</text>
<text text-anchor="middle" x="434.5" y="-163.5" font-family="Helvetica,sans-Serif" font-size="10.00" fill="#000000">/LoadingGameObjects.hpp</text>
</a>
</g>
</g>
<!-- Node22&#45;&gt;Node23 -->
<g id="edge1" class="edge">
<title>Node22&#45;&gt;Node23</title>
<path fill="none" stroke="#191970" d="M483.8049,-226.9452C474.2702,-217.2866 463.7734,-206.6535 454.9245,-197.6898"/>
<polygon fill="#191970" stroke="#191970" points="481.3493,-229.4397 490.8654,-234.0974 486.3309,-224.522 481.3493,-229.4397"/>
</g>
<!-- Node34 -->
<g id="node13" class="node">
<title>Node34</title>
<g id="a_node13"><a xlink:href="Enemy_8cpp.html" target="_top" xlink:title="/mnt/hdd/C0de/Engines\l/SFML/SFML_Engine/src\l/Enemy.cpp">
<polygon fill="none" stroke="#000000" points="525,-156.5 525,-197.5 652,-197.5 652,-156.5 525,-156.5"/>
<text text-anchor="start" x="533" y="-185.5" font-family="Helvetica,sans-Serif" font-size="10.00" fill="#000000">/mnt/hdd/C0de/Engines</text>
<text text-anchor="start" x="533" y="-174.5" font-family="Helvetica,sans-Serif" font-size="10.00" fill="#000000">/SFML/SFML_Engine/src</text>
<text text-anchor="middle" x="588.5" y="-163.5" font-family="Helvetica,sans-Serif" font-size="10.00" fill="#000000">/Enemy.cpp</text>
</a>
</g>
</g>
<!-- Node22&#45;&gt;Node34 -->
<g id="edge17" class="edge">
<title>Node22&#45;&gt;Node34</title>
<path fill="none" stroke="#191970" d="M539.1951,-226.9452C548.7298,-217.2866 559.2266,-206.6535 568.0755,-197.6898"/>
<polygon fill="#191970" stroke="#191970" points="536.6691,-224.522 532.1346,-234.0974 541.6507,-229.4397 536.6691,-224.522"/>
</g>
<!-- Node24 -->
<g id="node3" class="node">
<title>Node24</title>
<g id="a_node3"><a xlink:href="GameOverState_8hpp.html" target="_top" xlink:title="/mnt/hdd/C0de/Engines\l/SFML/SFML_Engine/include\l/GameOverState.hpp">
<polygon fill="none" stroke="#000000" points="38.5,-78.5 38.5,-119.5 182.5,-119.5 182.5,-78.5 38.5,-78.5"/>
<text text-anchor="start" x="46.5" y="-107.5" font-family="Helvetica,sans-Serif" font-size="10.00" fill="#000000">/mnt/hdd/C0de/Engines</text>
<text text-anchor="start" x="46.5" y="-96.5" font-family="Helvetica,sans-Serif" font-size="10.00" fill="#000000">/SFML/SFML_Engine/include</text>
<text text-anchor="middle" x="110.5" y="-85.5" font-family="Helvetica,sans-Serif" font-size="10.00" fill="#000000">/GameOverState.hpp</text>
</a>
</g>
</g>
<!-- Node23&#45;&gt;Node24 -->
<g id="edge2" class="edge">
<title>Node23&#45;&gt;Node24</title>
<path fill="none" stroke="#191970" d="M352.5009,-158.2659C305.3419,-147.3665 245.0133,-133.2113 191.5,-120 188.6792,-119.3036 185.8048,-118.5879 182.9023,-117.86"/>
<polygon fill="#191970" stroke="#191970" points="351.826,-161.7021 362.357,-160.5408 353.4004,-154.8814 351.826,-161.7021"/>
</g>
<!-- Node27 -->
<g id="node6" class="node">
<title>Node27</title>
<g id="a_node6"><a xlink:href="GameState_8hpp.html" target="_top" xlink:title="/mnt/hdd/C0de/Engines\l/SFML/SFML_Engine/include\l/GameState.hpp">
<polygon fill="none" stroke="#000000" points="200.5,-78.5 200.5,-119.5 344.5,-119.5 344.5,-78.5 200.5,-78.5"/>
<text text-anchor="start" x="208.5" y="-107.5" font-family="Helvetica,sans-Serif" font-size="10.00" fill="#000000">/mnt/hdd/C0de/Engines</text>
<text text-anchor="start" x="208.5" y="-96.5" font-family="Helvetica,sans-Serif" font-size="10.00" fill="#000000">/SFML/SFML_Engine/include</text>
<text text-anchor="middle" x="272.5" y="-85.5" font-family="Helvetica,sans-Serif" font-size="10.00" fill="#000000">/GameState.hpp</text>
</a>
</g>
</g>
<!-- Node23&#45;&gt;Node27 -->
<g id="edge5" class="edge">
<title>Node23&#45;&gt;Node27</title>
<path fill="none" stroke="#191970" d="M382.4146,-151.9218C360.6787,-141.4564 335.7454,-129.4515 315.1265,-119.5239"/>
<polygon fill="#191970" stroke="#191970" points="380.9839,-155.1175 391.5123,-156.3022 384.0206,-148.8105 380.9839,-155.1175"/>
</g>
<!-- Node30 -->
<g id="node9" class="node">
<title>Node30</title>
<g id="a_node9"><a xlink:href="MainMenuState_8hpp.html" target="_top" xlink:title="/mnt/hdd/C0de/Engines\l/SFML/SFML_Engine/include\l/MainMenuState.hpp">
<polygon fill="none" stroke="#000000" points="524.5,-78.5 524.5,-119.5 668.5,-119.5 668.5,-78.5 524.5,-78.5"/>
<text text-anchor="start" x="532.5" y="-107.5" font-family="Helvetica,sans-Serif" font-size="10.00" fill="#000000">/mnt/hdd/C0de/Engines</text>
<text text-anchor="start" x="532.5" y="-96.5" font-family="Helvetica,sans-Serif" font-size="10.00" fill="#000000">/SFML/SFML_Engine/include</text>
<text text-anchor="middle" x="596.5" y="-85.5" font-family="Helvetica,sans-Serif" font-size="10.00" fill="#000000">/MainMenuState.hpp</text>
</a>
</g>
</g>
<!-- Node23&#45;&gt;Node30 -->
<g id="edge10" class="edge">
<title>Node23&#45;&gt;Node30</title>
<path fill="none" stroke="#191970" d="M486.5854,-151.9218C508.3213,-141.4564 533.2546,-129.4515 553.8735,-119.5239"/>
<polygon fill="#191970" stroke="#191970" points="484.9794,-148.8105 477.4877,-156.3022 488.0161,-155.1175 484.9794,-148.8105"/>
</g>
<!-- Node32 -->
<g id="node11" class="node">
<title>Node32</title>
<g id="a_node11"><a xlink:href="SplashState_8hpp.html" target="_top" xlink:title="/mnt/hdd/C0de/Engines\l/SFML/SFML_Engine/include\l/SplashState.hpp">
<polygon fill="none" stroke="#000000" points="362.5,-78.5 362.5,-119.5 506.5,-119.5 506.5,-78.5 362.5,-78.5"/>
<text text-anchor="start" x="370.5" y="-107.5" font-family="Helvetica,sans-Serif" font-size="10.00" fill="#000000">/mnt/hdd/C0de/Engines</text>
<text text-anchor="start" x="370.5" y="-96.5" font-family="Helvetica,sans-Serif" font-size="10.00" fill="#000000">/SFML/SFML_Engine/include</text>
<text text-anchor="middle" x="434.5" y="-85.5" font-family="Helvetica,sans-Serif" font-size="10.00" fill="#000000">/SplashState.hpp</text>
</a>
</g>
</g>
<!-- Node23&#45;&gt;Node32 -->
<g id="edge13" class="edge">
<title>Node23&#45;&gt;Node32</title>
<path fill="none" stroke="#191970" d="M434.5,-146.0789C434.5,-137.2178 434.5,-127.7747 434.5,-119.6898"/>
<polygon fill="#191970" stroke="#191970" points="431.0001,-146.0974 434.5,-156.0974 438.0001,-146.0975 431.0001,-146.0974"/>
</g>
<!-- Node33 -->
<g id="node12" class="node">
<title>Node33</title>
<g id="a_node12"><a xlink:href="LoadingGameObjects_8cpp.html" target="_top" xlink:title="/mnt/hdd/C0de/Engines\l/SFML/SFML_Engine/src\l/LoadingGameObjects.cpp">
<polygon fill="none" stroke="#000000" points="686.5,-78.5 686.5,-119.5 818.5,-119.5 818.5,-78.5 686.5,-78.5"/>
<text text-anchor="start" x="694.5" y="-107.5" font-family="Helvetica,sans-Serif" font-size="10.00" fill="#000000">/mnt/hdd/C0de/Engines</text>
<text text-anchor="start" x="694.5" y="-96.5" font-family="Helvetica,sans-Serif" font-size="10.00" fill="#000000">/SFML/SFML_Engine/src</text>
<text text-anchor="middle" x="752.5" y="-85.5" font-family="Helvetica,sans-Serif" font-size="10.00" fill="#000000">/LoadingGameObjects.cpp</text>
</a>
</g>
</g>
<!-- Node23&#45;&gt;Node33 -->
<g id="edge16" class="edge">
<title>Node23&#45;&gt;Node33</title>
<path fill="none" stroke="#191970" d="M516.9134,-155.7027C588.9179,-138.6426 609.0352,-137.1788 677.5,-120 680.3853,-119.276 683.3286,-118.5214 686.2986,-117.7467"/>
<polygon fill="#191970" stroke="#191970" points="515.8045,-152.3691 506.892,-158.0978 517.4317,-159.1774 515.8045,-152.3691"/>
</g>
<!-- Node25 -->
<g id="node4" class="node">
<title>Node25</title>
<g id="a_node4"><a xlink:href="GameOverState_8cpp.html" target="_top" xlink:title="/mnt/hdd/C0de/Engines\l/SFML/SFML_Engine/src\l/GameOverState.cpp">
<polygon fill="none" stroke="#000000" points="145,-.5 145,-41.5 272,-41.5 272,-.5 145,-.5"/>
<text text-anchor="start" x="153" y="-29.5" font-family="Helvetica,sans-Serif" font-size="10.00" fill="#000000">/mnt/hdd/C0de/Engines</text>
<text text-anchor="start" x="153" y="-18.5" font-family="Helvetica,sans-Serif" font-size="10.00" fill="#000000">/SFML/SFML_Engine/src</text>
<text text-anchor="middle" x="208.5" y="-7.5" font-family="Helvetica,sans-Serif" font-size="10.00" fill="#000000">/GameOverState.cpp</text>
</a>
</g>
</g>
<!-- Node24&#45;&gt;Node25 -->
<g id="edge3" class="edge">
<title>Node24&#45;&gt;Node25</title>
<path fill="none" stroke="#191970" d="M144.4954,-71.9424C157.0325,-61.9639 171.02,-50.831 182.7136,-41.5239"/>
<polygon fill="#191970" stroke="#191970" points="142.1496,-69.3362 136.5049,-78.3022 146.5088,-74.8132 142.1496,-69.3362"/>
</g>
<!-- Node26 -->
<g id="node5" class="node">
<title>Node26</title>
<g id="a_node5"><a xlink:href="GameState_8cpp.html" target="_top" xlink:title="/mnt/hdd/C0de/Engines\l/SFML/SFML_Engine/src\l/GameState.cpp">
<polygon fill="none" stroke="#000000" points="0,-.5 0,-41.5 127,-41.5 127,-.5 0,-.5"/>
<text text-anchor="start" x="8" y="-29.5" font-family="Helvetica,sans-Serif" font-size="10.00" fill="#000000">/mnt/hdd/C0de/Engines</text>
<text text-anchor="start" x="8" y="-18.5" font-family="Helvetica,sans-Serif" font-size="10.00" fill="#000000">/SFML/SFML_Engine/src</text>
<text text-anchor="middle" x="63.5" y="-7.5" font-family="Helvetica,sans-Serif" font-size="10.00" fill="#000000">/GameState.cpp</text>
</a>
</g>
</g>
<!-- Node24&#45;&gt;Node26 -->
<g id="edge4" class="edge">
<title>Node24&#45;&gt;Node26</title>
<path fill="none" stroke="#191970" d="M92.7353,-69.5181C87.1496,-60.2482 81.1034,-50.2141 75.9669,-41.6898"/>
<polygon fill="#191970" stroke="#191970" points="89.7459,-71.3386 97.9049,-78.0974 95.7416,-67.7258 89.7459,-71.3386"/>
</g>
<!-- Node27&#45;&gt;Node25 -->
<g id="edge7" class="edge">
<title>Node27&#45;&gt;Node25</title>
<path fill="none" stroke="#191970" d="M248.7794,-70.0905C241.0437,-60.6626 232.6148,-50.3899 225.4762,-41.6898"/>
<polygon fill="#191970" stroke="#191970" points="246.3002,-72.5868 255.3492,-78.0974 251.7117,-68.1466 246.3002,-72.5868"/>
</g>
<!-- Node27&#45;&gt;Node26 -->
<g id="edge8" class="edge">
<title>Node27&#45;&gt;Node26</title>
<path fill="none" stroke="#191970" d="M207.819,-74.8607C179.2473,-64.1976 146.0059,-51.7917 118.6322,-41.5757"/>
<polygon fill="#191970" stroke="#191970" points="206.7217,-78.1869 217.3143,-78.4044 209.1693,-71.6287 206.7217,-78.1869"/>
</g>
<!-- Node28 -->
<g id="node7" class="node">
<title>Node28</title>
<g id="a_node7"><a xlink:href="Game_8cpp.html" target="_top" xlink:title="/mnt/hdd/C0de/Engines\l/SFML/SFML_Engine/src\l/Game.cpp">
<polygon fill="none" stroke="#000000" points="290,-.5 290,-41.5 417,-41.5 417,-.5 290,-.5"/>
<text text-anchor="start" x="298" y="-29.5" font-family="Helvetica,sans-Serif" font-size="10.00" fill="#000000">/mnt/hdd/C0de/Engines</text>
<text text-anchor="start" x="298" y="-18.5" font-family="Helvetica,sans-Serif" font-size="10.00" fill="#000000">/SFML/SFML_Engine/src</text>
<text text-anchor="middle" x="353.5" y="-7.5" font-family="Helvetica,sans-Serif" font-size="10.00" fill="#000000">/Game.cpp</text>
</a>
</g>
</g>
<!-- Node27&#45;&gt;Node28 -->
<g id="edge6" class="edge">
<title>Node27&#45;&gt;Node28</title>
<path fill="none" stroke="#191970" d="M301.6338,-70.9452C311.6639,-61.2866 322.7059,-50.6535 332.0144,-41.6898"/>
<polygon fill="#191970" stroke="#191970" points="298.982,-68.6399 294.2065,-78.0974 303.8375,-73.6821 298.982,-68.6399"/>
</g>
<!-- Node29 -->
<g id="node8" class="node">
<title>Node29</title>
<g id="a_node8"><a xlink:href="MainMenuState_8cpp.html" target="_top" xlink:title="/mnt/hdd/C0de/Engines\l/SFML/SFML_Engine/src\l/MainMenuState.cpp">
<polygon fill="none" stroke="#000000" points="435,-.5 435,-41.5 562,-41.5 562,-.5 435,-.5"/>
<text text-anchor="start" x="443" y="-29.5" font-family="Helvetica,sans-Serif" font-size="10.00" fill="#000000">/mnt/hdd/C0de/Engines</text>
<text text-anchor="start" x="443" y="-18.5" font-family="Helvetica,sans-Serif" font-size="10.00" fill="#000000">/SFML/SFML_Engine/src</text>
<text text-anchor="middle" x="498.5" y="-7.5" font-family="Helvetica,sans-Serif" font-size="10.00" fill="#000000">/MainMenuState.cpp</text>
</a>
</g>
</g>
<!-- Node27&#45;&gt;Node29 -->
<g id="edge9" class="edge">
<title>Node27&#45;&gt;Node29</title>
<path fill="none" stroke="#191970" d="M341.6373,-75.1385C372.7122,-64.4135 409.0257,-51.8805 438.8833,-41.5757"/>
<polygon fill="#191970" stroke="#191970" points="340.4854,-71.8333 332.1745,-78.4044 342.7692,-78.4503 340.4854,-71.8333"/>
</g>
<!-- Node30&#45;&gt;Node29 -->
<g id="edge11" class="edge">
<title>Node30&#45;&gt;Node29</title>
<path fill="none" stroke="#191970" d="M562.5046,-71.9424C549.9675,-61.9639 535.98,-50.831 524.2864,-41.5239"/>
<polygon fill="#191970" stroke="#191970" points="560.4912,-74.8132 570.4951,-78.3022 564.8504,-69.3362 560.4912,-74.8132"/>
</g>
<!-- Node31 -->
<g id="node10" class="node">
<title>Node31</title>
<g id="a_node10"><a xlink:href="SplashState_8cpp.html" target="_top" xlink:title="/mnt/hdd/C0de/Engines\l/SFML/SFML_Engine/src\l/SplashState.cpp">
<polygon fill="none" stroke="#000000" points="580,-.5 580,-41.5 707,-41.5 707,-.5 580,-.5"/>
<text text-anchor="start" x="588" y="-29.5" font-family="Helvetica,sans-Serif" font-size="10.00" fill="#000000">/mnt/hdd/C0de/Engines</text>
<text text-anchor="start" x="588" y="-18.5" font-family="Helvetica,sans-Serif" font-size="10.00" fill="#000000">/SFML/SFML_Engine/src</text>
<text text-anchor="middle" x="643.5" y="-7.5" font-family="Helvetica,sans-Serif" font-size="10.00" fill="#000000">/SplashState.cpp</text>
</a>
</g>
</g>
<!-- Node30&#45;&gt;Node31 -->
<g id="edge12" class="edge">
<title>Node30&#45;&gt;Node31</title>
<path fill="none" stroke="#191970" d="M614.2647,-69.5181C619.8504,-60.2482 625.8966,-50.2141 631.0331,-41.6898"/>
<polygon fill="#191970" stroke="#191970" points="611.2584,-67.7258 609.0951,-78.0974 617.2541,-71.3386 611.2584,-67.7258"/>
</g>
<!-- Node32&#45;&gt;Node28 -->
<g id="edge14" class="edge">
<title>Node32&#45;&gt;Node28</title>
<path fill="none" stroke="#191970" d="M405.3662,-70.9452C395.3361,-61.2866 384.2941,-50.6535 374.9856,-41.6898"/>
<polygon fill="#191970" stroke="#191970" points="403.1625,-73.6821 412.7935,-78.0974 408.018,-68.6399 403.1625,-73.6821"/>
</g>
<!-- Node32&#45;&gt;Node31 -->
<g id="edge15" class="edge">
<title>Node32&#45;&gt;Node31</title>
<path fill="none" stroke="#191970" d="M499.181,-74.8607C527.7527,-64.1976 560.9941,-51.7917 588.3678,-41.5757"/>
<polygon fill="#191970" stroke="#191970" points="497.8307,-71.6287 489.6857,-78.4044 500.2783,-78.1869 497.8307,-71.6287"/>
</g>
</g>
</svg>
        <g id="navigator" transform="translate(0 0)" fill="#404254">
                <rect fill="#f2f5e9" fill-opacity="0.5" stroke="#606060" stroke-width=".5" x="0" y="0" width="60" height="60"/>
                <use id="zoomplus" xlink:href="#zoomPlus" x="17" y="9" onmousedown="handleZoom(evt,'in')"/>
                <use id="zoomminus" xlink:href="#zoomMin" x="42" y="9" onmousedown="handleZoom(evt,'out')"/>
                <use id="reset" xlink:href="#resetDef" x="30" y="36" onmousedown="handleReset()"/>
                <g id="arrowUp" xlink:href="#dirArrow" transform="translate(30 24)" onmousedown="handlePan(0,-1)">
                  <use xlink:href="#rim" fill="#404040">
                        <set attributeName="fill" to="#808080" begin="arrowUp.mouseover" end="arrowUp.mouseout"/>
                  </use>
                  <path fill="none" stroke="white" stroke-width="1.5" d="M0,-3.0v7 M-2.5,-0.5L0,-3.0L2.5,-0.5"/>
                </g>
                <g id="arrowRight" xlink:href="#dirArrow" transform="rotate(90) translate(36 -43)" onmousedown="handlePan(1,0)">
                  <use xlink:href="#rim" fill="#404040">
                        <set attributeName="fill" to="#808080" begin="arrowRight.mouseover" end="arrowRight.mouseout"/>
                  </use>
                  <path fill="none" stroke="white" stroke-width="1.5" d="M0,-3.0v7 M-2.5,-0.5L0,-3.0L2.5,-0.5"/>
                </g>
                <g id="arrowDown" xlink:href="#dirArrow" transform="rotate(180) translate(-30 -48)" onmousedown="handlePan(0,1)">
                  <use xlink:href="#rim" fill="#404040">
                        <set attributeName="fill" to="#808080" begin="arrowDown.mouseover" end="arrowDown.mouseout"/>
                  </use>
                  <path fill="none" stroke="white" stroke-width="1.5" d="M0,-3.0v7 M-2.5,-0.5L0,-3.0L2.5,-0.5"/>
                </g>
                <g id="arrowLeft" xlink:href="#dirArrow" transform="rotate(270) translate(-36 17)" onmousedown="handlePan(-1,0)">
                  <use xlink:href="#rim" fill="#404040">
                        <set attributeName="fill" to="#808080" begin="arrowLeft.mouseover" end="arrowLeft.mouseout"/>
                  </use>
                  <path fill="none" stroke="white" stroke-width="1.5" d="M0,-3.0v7 M-2.5,-0.5L0,-3.0L2.5,-0.5"/>
                </g>
        </g>
        <svg viewBox="0 0 15 15" width="100%" height="30px" preserveAspectRatio="xMaxYMin meet">
         <g id="arrow_out" transform="scale(0.3 0.3)">
          <a xlink:href="Enemy_8hpp__dep__incl_org.svg" target="_base">
           <rect id="button" ry="5" rx="5" y="6" x="6" height="38" width="38"
                fill="#f2f5e9" fill-opacity="0.5" stroke="#606060" stroke-width="1.0"/>
           <path id="arrow"
             d="M 11.500037,31.436501 C 11.940474,20.09759 22.043105,11.32322 32.158766,21.979434 L 37.068811,17.246167 C 37.068811,17.246167 37.088388,32 37.088388,32 L 22.160133,31.978069 C 22.160133,31.978069 26.997745,27.140456 26.997745,27.140456 C 18.528582,18.264221 13.291696,25.230495 11.500037,31.436501 z"
             style="fill:#404040;"/>
          </a>
         </g>
        </svg>
</svg>
