<?xml version="1.0" encoding="UTF-8" standalone="no"?>
<!DOCTYPE svg PUBLIC "-//W3C//DTD SVG 1.1//EN"
 "http://www.w3.org/Graphics/SVG/1.1/DTD/svg11.dtd">
<!-- Generated by graphviz version 2.40.1 (20161225.0304)
 -->
<!-- Title: /mnt/hdd/C0de/Engines/SFML/SFML_Engine/src/Enemy.cpp Pages: 1 -->
<svg width="960pt" height="498pt"
 viewBox="0.00 0.00 960.31 498.00" xmlns="http://www.w3.org/2000/svg" xmlns:xlink="http://www.w3.org/1999/xlink">
<g id="graph0" class="graph" transform="scale(1 1) rotate(0) translate(4 494)">
<title>/mnt/hdd/C0de/Engines/SFML/SFML_Engine/src/Enemy.cpp</title>
<!-- Node0 -->
<g id="node1" class="node">
<title>Node0</title>
<polygon fill="#bfbfbf" stroke="#000000" points="771.8134,-448.5 771.8134,-489.5 898.8134,-489.5 898.8134,-448.5 771.8134,-448.5"/>
<text text-anchor="start" x="779.8134" y="-477.5" font-family="Helvetica,sans-Serif" font-size="10.00" fill="#000000">/mnt/hdd/C0de/Engines</text>
<text text-anchor="start" x="779.8134" y="-466.5" font-family="Helvetica,sans-Serif" font-size="10.00" fill="#000000">/SFML/SFML_Engine/src</text>
<text text-anchor="middle" x="835.3134" y="-455.5" font-family="Helvetica,sans-Serif" font-size="10.00" fill="#000000">/Enemy.cpp</text>
</g>
<!-- Node1 -->
<g id="node2" class="node">
<title>Node1</title>
<g id="a_node2"><a xlink:href="Enemy_8hpp.html" target="_top" xlink:title="../include/Enemy.hpp">
<polygon fill="none" stroke="#000000" points="780.8134,-392.5 780.8134,-411.5 889.8134,-411.5 889.8134,-392.5 780.8134,-392.5"/>
<text text-anchor="middle" x="835.3134" y="-399.5" font-family="Helvetica,sans-Serif" font-size="10.00" fill="#000000">../include/Enemy.hpp</text>
</a>
</g>
</g>
<!-- Node0&#45;&gt;Node1 -->
<g id="edge1" class="edge">
<title>Node0&#45;&gt;Node1</title>
<path fill="none" stroke="#191970" d="M835.3134,-448.168C835.3134,-439.8226 835.3134,-430.2471 835.3134,-421.9879"/>
<polygon fill="#191970" stroke="#191970" points="838.8135,-421.7804 835.3134,-411.7805 831.8135,-421.7805 838.8135,-421.7804"/>
</g>
<!-- Node2 -->
<g id="node3" class="node">
<title>Node2</title>
<g id="a_node3"><a xlink:href="GameWorld_8hpp.html" target="_top" xlink:title="GameWorld.hpp">
<polygon fill="none" stroke="#000000" points="516.8134,-224.5 516.8134,-243.5 603.8134,-243.5 603.8134,-224.5 516.8134,-224.5"/>
<text text-anchor="middle" x="560.3134" y="-231.5" font-family="Helvetica,sans-Serif" font-size="10.00" fill="#000000">GameWorld.hpp</text>
</a>
</g>
</g>
<!-- Node1&#45;&gt;Node2 -->
<g id="edge2" class="edge">
<title>Node1&#45;&gt;Node2</title>
<path fill="none" stroke="#191970" d="M815.4422,-392.3392C797.0659,-383.2887 769.0875,-369.2125 745.3134,-356 703.1403,-332.5622 692.6144,-326.528 652.3134,-300 627.3381,-283.5601 599.562,-263.3555 581.1309,-249.6641"/>
<polygon fill="#191970" stroke="#191970" points="582.9943,-246.6875 572.8869,-243.5111 578.8074,-252.2974 582.9943,-246.6875"/>
</g>
<!-- Node19 -->
<g id="node20" class="node">
<title>Node19</title>
<polygon fill="none" stroke="#bfbfbf" points="792.3134,-.5 792.3134,-19.5 846.3134,-19.5 846.3134,-.5 792.3134,-.5"/>
<text text-anchor="middle" x="819.3134" y="-7.5" font-family="Helvetica,sans-Serif" font-size="10.00" fill="#000000">iostream</text>
</g>
<!-- Node1&#45;&gt;Node19 -->
<g id="edge29" class="edge">
<title>Node1&#45;&gt;Node19</title>
<path fill="none" stroke="#191970" d="M841.5404,-392.2504C853.01,-373.3274 876.3134,-329.9633 876.3134,-290 876.3134,-290 876.3134,-290 876.3134,-122 876.3134,-85.1826 851.5459,-48.2377 834.6633,-27.3313"/>
<polygon fill="#191970" stroke="#191970" points="837.3265,-25.06 828.2197,-19.6456 831.9623,-29.5574 837.3265,-25.06"/>
</g>
<!-- Node20 -->
<g id="node21" class="node">
<title>Node20</title>
<polygon fill="none" stroke="#bfbfbf" points="904.3134,-336.5 904.3134,-355.5 952.3134,-355.5 952.3134,-336.5 904.3134,-336.5"/>
<text text-anchor="middle" x="928.3134" y="-343.5" font-family="Helvetica,sans-Serif" font-size="10.00" fill="#000000">stdlib.h</text>
</g>
<!-- Node1&#45;&gt;Node20 -->
<g id="edge30" class="edge">
<title>Node1&#45;&gt;Node20</title>
<path fill="none" stroke="#191970" d="M851.5128,-392.2455C865.9152,-383.5731 887.1866,-370.7645 903.6934,-360.825"/>
<polygon fill="#191970" stroke="#191970" points="905.5384,-363.7996 912.2997,-355.6427 901.9274,-357.8028 905.5384,-363.7996"/>
</g>
<!-- Node21 -->
<g id="node22" class="node">
<title>Node21</title>
<g id="a_node22"><a xlink:href="Gun_8hpp.html" target="_top" xlink:title="Gun.hpp">
<polygon fill="none" stroke="#000000" points="753.8134,-336.5 753.8134,-355.5 806.8134,-355.5 806.8134,-336.5 753.8134,-336.5"/>
<text text-anchor="middle" x="780.3134" y="-343.5" font-family="Helvetica,sans-Serif" font-size="10.00" fill="#000000">Gun.hpp</text>
</a>
</g>
</g>
<!-- Node1&#45;&gt;Node21 -->
<g id="edge31" class="edge">
<title>Node1&#45;&gt;Node21</title>
<path fill="none" stroke="#191970" d="M825.7331,-392.2455C817.7676,-384.1352 806.2494,-372.4075 796.8055,-362.7919"/>
<polygon fill="#191970" stroke="#191970" points="799.2881,-360.3247 789.7839,-355.6427 794.2939,-365.2297 799.2881,-360.3247"/>
</g>
<!-- Node22 -->
<g id="node23" class="node">
<title>Node22</title>
<g id="a_node23"><a xlink:href="Bullet_8hpp.html" target="_top" xlink:title="Bullet.hpp">
<polygon fill="none" stroke="#000000" points="750.3134,-280.5 750.3134,-299.5 810.3134,-299.5 810.3134,-280.5 750.3134,-280.5"/>
<text text-anchor="middle" x="780.3134" y="-287.5" font-family="Helvetica,sans-Serif" font-size="10.00" fill="#000000">Bullet.hpp</text>
</a>
</g>
</g>
<!-- Node1&#45;&gt;Node22 -->
<g id="edge37" class="edge">
<title>Node1&#45;&gt;Node22</title>
<path fill="none" stroke="#191970" d="M833.703,-392.1678C831.2593,-378.8762 825.8582,-354.6895 816.3134,-336 811.1101,-325.8114 803.5017,-315.6696 796.6185,-307.5119"/>
<polygon fill="#191970" stroke="#191970" points="799.0736,-305.0039 789.8391,-299.8102 793.8192,-309.629 799.0736,-305.0039"/>
</g>
<!-- Node3 -->
<g id="node4" class="node">
<title>Node3</title>
<polygon fill="none" stroke="#bfbfbf" points="90.3134,-.5 90.3134,-19.5 194.3134,-19.5 194.3134,-.5 90.3134,-.5"/>
<text text-anchor="middle" x="142.3134" y="-7.5" font-family="Helvetica,sans-Serif" font-size="10.00" fill="#000000">SFML/Graphics.hpp</text>
</g>
<!-- Node2&#45;&gt;Node3 -->
<g id="edge3" class="edge">
<title>Node2&#45;&gt;Node3</title>
<path fill="none" stroke="#191970" d="M516.6168,-232.8879C397.7443,-228.8423 73.1388,-210.6613 9.3134,-132 -26.7605,-87.5408 56.4202,-44.3943 106.9944,-23.3368"/>
<polygon fill="#191970" stroke="#191970" points="108.3783,-26.5524 116.3258,-19.5462 105.7437,-20.0671 108.3783,-26.5524"/>
</g>
<!-- Node4 -->
<g id="node5" class="node">
<title>Node4</title>
<g id="a_node5"><a xlink:href="DEFINITIONS_8hpp.html" target="_top" xlink:title="DEFINITIONS.hpp">
<polygon fill="none" stroke="#000000" points="414.3134,-168.5 414.3134,-187.5 514.3134,-187.5 514.3134,-168.5 414.3134,-168.5"/>
<text text-anchor="middle" x="464.3134" y="-175.5" font-family="Helvetica,sans-Serif" font-size="10.00" fill="#000000">DEFINITIONS.hpp</text>
</a>
</g>
</g>
<!-- Node2&#45;&gt;Node4 -->
<g id="edge4" class="edge">
<title>Node2&#45;&gt;Node4</title>
<path fill="none" stroke="#191970" d="M543.5915,-224.2455C528.7245,-215.5731 506.7669,-202.7645 489.7277,-192.825"/>
<polygon fill="#191970" stroke="#191970" points="491.2451,-189.6582 480.8437,-187.6427 487.7179,-195.7047 491.2451,-189.6582"/>
</g>
<!-- Node5 -->
<g id="node6" class="node">
<title>Node5</title>
<g id="a_node6"><a xlink:href="Game_8hpp.html" target="_top" xlink:title="Game.hpp">
<polygon fill="none" stroke="#000000" points="284.3134,-168.5 284.3134,-187.5 346.3134,-187.5 346.3134,-168.5 284.3134,-168.5"/>
<text text-anchor="middle" x="315.3134" y="-175.5" font-family="Helvetica,sans-Serif" font-size="10.00" fill="#000000">Game.hpp</text>
</a>
</g>
</g>
<!-- Node2&#45;&gt;Node5 -->
<g id="edge5" class="edge">
<title>Node2&#45;&gt;Node5</title>
<path fill="none" stroke="#191970" d="M518.4748,-224.4369C473.2096,-214.0906 401.4935,-197.6983 356.4888,-187.4115"/>
<polygon fill="#191970" stroke="#191970" points="357.0117,-183.9408 346.4832,-185.1245 355.4519,-190.7649 357.0117,-183.9408"/>
</g>
<!-- Node14 -->
<g id="node15" class="node">
<title>Node14</title>
<g id="a_node15"><a xlink:href="entity__manager_8h.html" target="_top" xlink:title="entity_manager.h">
<polygon fill="none" stroke="#000000" points="570.3134,-112.5 570.3134,-131.5 662.3134,-131.5 662.3134,-112.5 570.3134,-112.5"/>
<text text-anchor="middle" x="616.3134" y="-119.5" font-family="Helvetica,sans-Serif" font-size="10.00" fill="#000000">entity_manager.h</text>
</a>
</g>
</g>
<!-- Node2&#45;&gt;Node14 -->
<g id="edge27" class="edge">
<title>Node2&#45;&gt;Node14</title>
<path fill="none" stroke="#191970" d="M565.0879,-224.4509C574.3454,-205.936 594.8839,-164.8591 606.9541,-140.7187"/>
<polygon fill="#191970" stroke="#191970" points="610.2093,-142.0344 611.551,-131.5249 603.9483,-138.9039 610.2093,-142.0344"/>
</g>
<!-- Node16 -->
<g id="node17" class="node">
<title>Node16</title>
<polygon fill="none" stroke="#bfbfbf" points="520.3134,-56.5 520.3134,-75.5 564.3134,-75.5 564.3134,-56.5 520.3134,-56.5"/>
<text text-anchor="middle" x="542.3134" y="-63.5" font-family="Helvetica,sans-Serif" font-size="10.00" fill="#000000">vector</text>
</g>
<!-- Node2&#45;&gt;Node16 -->
<g id="edge28" class="edge">
<title>Node2&#45;&gt;Node16</title>
<path fill="none" stroke="#191970" d="M559.2941,-224.4862C556.4487,-197.9293 548.374,-122.5651 544.474,-86.1655"/>
<polygon fill="#191970" stroke="#191970" points="547.9119,-85.3981 543.3664,-75.8279 540.9517,-86.1439 547.9119,-85.3981"/>
</g>
<!-- Node5&#45;&gt;Node3 -->
<g id="edge8" class="edge">
<title>Node5&#45;&gt;Node3</title>
<path fill="none" stroke="#191970" d="M283.983,-172.6876C243.8145,-165.221 177.4128,-150.4482 161.3134,-132 136.4016,-103.4536 136.8323,-56.1692 139.4864,-29.6292"/>
<polygon fill="#191970" stroke="#191970" points="142.9685,-29.9876 140.6926,-19.6401 136.0189,-29.1484 142.9685,-29.9876"/>
</g>
<!-- Node6 -->
<g id="node7" class="node">
<title>Node6</title>
<polygon fill="none" stroke="#bfbfbf" points="313.3134,-56.5 313.3134,-75.5 365.3134,-75.5 365.3134,-56.5 313.3134,-56.5"/>
<text text-anchor="middle" x="339.3134" y="-63.5" font-family="Helvetica,sans-Serif" font-size="10.00" fill="#000000">memory</text>
</g>
<!-- Node5&#45;&gt;Node6 -->
<g id="edge6" class="edge">
<title>Node5&#45;&gt;Node6</title>
<path fill="none" stroke="#191970" d="M317.3596,-168.4509C321.2917,-150.1013 329.9725,-109.5908 335.1628,-85.3693"/>
<polygon fill="#191970" stroke="#191970" points="338.5993,-86.0363 337.2724,-75.5249 331.7547,-84.5695 338.5993,-86.0363"/>
</g>
<!-- Node7 -->
<g id="node8" class="node">
<title>Node7</title>
<polygon fill="none" stroke="#bfbfbf" points="385.8134,-.5 385.8134,-19.5 426.8134,-19.5 426.8134,-.5 385.8134,-.5"/>
<text text-anchor="middle" x="406.3134" y="-7.5" font-family="Helvetica,sans-Serif" font-size="10.00" fill="#000000">string</text>
</g>
<!-- Node5&#45;&gt;Node7 -->
<g id="edge7" class="edge">
<title>Node5&#45;&gt;Node7</title>
<path fill="none" stroke="#191970" d="M310.7965,-168.4978C301.128,-146.6374 281.1184,-91.9051 304.3134,-56 319.9232,-31.8366 351.6046,-20.236 375.5407,-14.7495"/>
<polygon fill="#191970" stroke="#191970" points="376.4859,-18.1286 385.581,-12.6945 375.0823,-11.2708 376.4859,-18.1286"/>
</g>
<!-- Node8 -->
<g id="node9" class="node">
<title>Node8</title>
<g id="a_node9"><a xlink:href="StateMachine_8hpp.html" target="_top" xlink:title="StateMachine.hpp">
<polygon fill="none" stroke="#000000" points="362.8134,-112.5 362.8134,-131.5 457.8134,-131.5 457.8134,-112.5 362.8134,-112.5"/>
<text text-anchor="middle" x="410.3134" y="-119.5" font-family="Helvetica,sans-Serif" font-size="10.00" fill="#000000">StateMachine.hpp</text>
</a>
</g>
</g>
<!-- Node5&#45;&gt;Node8 -->
<g id="edge9" class="edge">
<title>Node5&#45;&gt;Node8</title>
<path fill="none" stroke="#191970" d="M331.8611,-168.2455C346.5733,-159.5731 368.3022,-146.7645 385.1639,-136.825"/>
<polygon fill="#191970" stroke="#191970" points="387.118,-139.736 393.9553,-131.6427 383.5632,-133.7057 387.118,-139.736"/>
</g>
<!-- Node11 -->
<g id="node12" class="node">
<title>Node11</title>
<g id="a_node12"><a xlink:href="AssetManager_8hpp.html" target="_top" xlink:title="AssetManager.hpp">
<polygon fill="none" stroke="#000000" points="170.3134,-112.5 170.3134,-131.5 268.3134,-131.5 268.3134,-112.5 170.3134,-112.5"/>
<text text-anchor="middle" x="219.3134" y="-119.5" font-family="Helvetica,sans-Serif" font-size="10.00" fill="#000000">AssetManager.hpp</text>
</a>
</g>
</g>
<!-- Node5&#45;&gt;Node11 -->
<g id="edge13" class="edge">
<title>Node5&#45;&gt;Node11</title>
<path fill="none" stroke="#191970" d="M298.5915,-168.2455C283.7245,-159.5731 261.7669,-146.7645 244.7277,-136.825"/>
<polygon fill="#191970" stroke="#191970" points="246.2451,-133.6582 235.8437,-131.6427 242.7179,-139.7047 246.2451,-133.6582"/>
</g>
<!-- Node13 -->
<g id="node14" class="node">
<title>Node13</title>
<g id="a_node14"><a xlink:href="InputManager_8hpp.html" target="_top" xlink:title="InputManager.hpp">
<polygon fill="none" stroke="#000000" points="18.8134,-112.5 18.8134,-131.5 113.8134,-131.5 113.8134,-112.5 18.8134,-112.5"/>
<text text-anchor="middle" x="66.3134" y="-119.5" font-family="Helvetica,sans-Serif" font-size="10.00" fill="#000000">InputManager.hpp</text>
</a>
</g>
</g>
<!-- Node5&#45;&gt;Node13 -->
<g id="edge16" class="edge">
<title>Node5&#45;&gt;Node13</title>
<path fill="none" stroke="#191970" d="M284.2808,-171.0208C242.8124,-161.6945 168.7414,-145.036 118.5827,-133.7554"/>
<polygon fill="#191970" stroke="#191970" points="119.0992,-130.2841 108.5749,-131.5046 117.5632,-137.1136 119.0992,-130.2841"/>
</g>
<!-- Node5&#45;&gt;Node14 -->
<g id="edge18" class="edge">
<title>Node5&#45;&gt;Node14</title>
<path fill="none" stroke="#191970" d="M346.392,-172.2179C396.7606,-162.847 496.9355,-144.2098 560.0702,-132.4639"/>
<polygon fill="#191970" stroke="#191970" points="561.0639,-135.8391 570.2549,-130.569 559.7834,-128.9572 561.0639,-135.8391"/>
</g>
<!-- Node8&#45;&gt;Node6 -->
<g id="edge10" class="edge">
<title>Node8&#45;&gt;Node6</title>
<path fill="none" stroke="#191970" d="M397.9461,-112.2455C387.358,-103.8943 371.907,-91.7076 359.5241,-81.9408"/>
<polygon fill="#191970" stroke="#191970" points="361.5581,-79.0875 351.5389,-75.6427 357.2231,-84.5837 361.5581,-79.0875"/>
</g>
<!-- Node9 -->
<g id="node10" class="node">
<title>Node9</title>
<polygon fill="none" stroke="#bfbfbf" points="383.8134,-56.5 383.8134,-75.5 424.8134,-75.5 424.8134,-56.5 383.8134,-56.5"/>
<text text-anchor="middle" x="404.3134" y="-63.5" font-family="Helvetica,sans-Serif" font-size="10.00" fill="#000000">stack</text>
</g>
<!-- Node8&#45;&gt;Node9 -->
<g id="edge11" class="edge">
<title>Node8&#45;&gt;Node9</title>
<path fill="none" stroke="#191970" d="M409.2683,-112.2455C408.4854,-104.9382 407.3878,-94.6944 406.4246,-85.7046"/>
<polygon fill="#191970" stroke="#191970" points="409.8921,-85.2129 405.3465,-75.6427 402.9319,-85.9587 409.8921,-85.2129"/>
</g>
<!-- Node10 -->
<g id="node11" class="node">
<title>Node10</title>
<g id="a_node11"><a xlink:href="State_8hpp.html" target="_top" xlink:title="State.hpp">
<polygon fill="none" stroke="#000000" points="442.8134,-56.5 442.8134,-75.5 501.8134,-75.5 501.8134,-56.5 442.8134,-56.5"/>
<text text-anchor="middle" x="472.3134" y="-63.5" font-family="Helvetica,sans-Serif" font-size="10.00" fill="#000000">State.hpp</text>
</a>
</g>
</g>
<!-- Node8&#45;&gt;Node10 -->
<g id="edge12" class="edge">
<title>Node8&#45;&gt;Node10</title>
<path fill="none" stroke="#191970" d="M421.113,-112.2455C430.1812,-104.0549 443.334,-92.1749 454.0379,-82.5069"/>
<polygon fill="#191970" stroke="#191970" points="456.5625,-84.9429 461.6376,-75.6427 451.8705,-79.7482 456.5625,-84.9429"/>
</g>
<!-- Node11&#45;&gt;Node3 -->
<g id="edge15" class="edge">
<title>Node11&#45;&gt;Node3</title>
<path fill="none" stroke="#191970" d="M212.7484,-112.4509C199.9057,-93.7707 171.2735,-52.1238 154.7408,-28.0761"/>
<polygon fill="#191970" stroke="#191970" points="157.4112,-25.7825 148.8618,-19.5249 151.6429,-29.7482 157.4112,-25.7825"/>
</g>
<!-- Node12 -->
<g id="node13" class="node">
<title>Node12</title>
<polygon fill="none" stroke="#bfbfbf" points="208.8134,-56.5 208.8134,-75.5 243.8134,-75.5 243.8134,-56.5 208.8134,-56.5"/>
<text text-anchor="middle" x="226.3134" y="-63.5" font-family="Helvetica,sans-Serif" font-size="10.00" fill="#000000">map</text>
</g>
<!-- Node11&#45;&gt;Node12 -->
<g id="edge14" class="edge">
<title>Node11&#45;&gt;Node12</title>
<path fill="none" stroke="#191970" d="M220.5327,-112.2455C221.4461,-104.9382 222.7266,-94.6944 223.8503,-85.7046"/>
<polygon fill="#191970" stroke="#191970" points="227.3406,-85.9996 225.1081,-75.6427 220.3947,-85.1313 227.3406,-85.9996"/>
</g>
<!-- Node13&#45;&gt;Node3 -->
<g id="edge17" class="edge">
<title>Node13&#45;&gt;Node3</title>
<path fill="none" stroke="#191970" d="M72.7931,-112.4509C85.469,-93.7707 113.7294,-52.1238 130.0474,-28.0761"/>
<polygon fill="#191970" stroke="#191970" points="133.1312,-29.7649 135.8501,-19.5249 127.3389,-25.8344 133.1312,-29.7649"/>
</g>
<!-- Node15 -->
<g id="node16" class="node">
<title>Node15</title>
<polygon fill="none" stroke="#bfbfbf" points="688.8134,-56.5 688.8134,-75.5 771.8134,-75.5 771.8134,-56.5 688.8134,-56.5"/>
<text text-anchor="middle" x="730.3134" y="-63.5" font-family="Helvetica,sans-Serif" font-size="10.00" fill="#000000">unordered_map</text>
</g>
<!-- Node14&#45;&gt;Node15 -->
<g id="edge19" class="edge">
<title>Node14&#45;&gt;Node15</title>
<path fill="none" stroke="#191970" d="M635.9107,-112.3733C654.0465,-103.4644 681.2269,-90.1127 701.7721,-80.0203"/>
<polygon fill="#191970" stroke="#191970" points="703.5395,-83.0517 710.9718,-75.5011 700.4531,-76.7688 703.5395,-83.0517"/>
</g>
<!-- Node14&#45;&gt;Node16 -->
<g id="edge20" class="edge">
<title>Node14&#45;&gt;Node16</title>
<path fill="none" stroke="#191970" d="M603.4236,-112.2455C592.388,-103.8943 576.2842,-91.7076 563.3781,-81.9408"/>
<polygon fill="#191970" stroke="#191970" points="565.1417,-78.8862 555.0555,-75.6427 560.9175,-84.4681 565.1417,-78.8862"/>
</g>
<!-- Node17 -->
<g id="node18" class="node">
<title>Node17</title>
<polygon fill="none" stroke="#bfbfbf" points="593.3134,-.5 593.3134,-19.5 673.3134,-19.5 673.3134,-.5 593.3134,-.5"/>
<text text-anchor="middle" x="633.3134" y="-7.5" font-family="Helvetica,sans-Serif" font-size="10.00" fill="#000000">box2d/box2d.h</text>
</g>
<!-- Node14&#45;&gt;Node17 -->
<g id="edge21" class="edge">
<title>Node14&#45;&gt;Node17</title>
<path fill="none" stroke="#191970" d="M623.4149,-112.3724C629.5186,-103.4569 637.8651,-89.5662 641.3134,-76 645.2231,-60.6186 642.625,-42.7201 639.3821,-29.4457"/>
<polygon fill="#191970" stroke="#191970" points="642.6801,-28.2406 636.635,-19.5396 635.9346,-30.1112 642.6801,-28.2406"/>
</g>
<!-- Node18 -->
<g id="node19" class="node">
<title>Node18</title>
<g id="a_node19"><a xlink:href="entity_8h.html" target="_top" xlink:title="entity.h">
<polygon fill="none" stroke="#000000" points="582.8134,-56.5 582.8134,-75.5 631.8134,-75.5 631.8134,-56.5 582.8134,-56.5"/>
<text text-anchor="middle" x="607.3134" y="-63.5" font-family="Helvetica,sans-Serif" font-size="10.00" fill="#000000">entity.h</text>
</a>
</g>
</g>
<!-- Node14&#45;&gt;Node18 -->
<g id="edge22" class="edge">
<title>Node14&#45;&gt;Node18</title>
<path fill="none" stroke="#191970" d="M614.7457,-112.2455C613.5713,-104.9382 611.925,-94.6944 610.4802,-85.7046"/>
<polygon fill="#191970" stroke="#191970" points="613.9056,-84.9606 608.8631,-75.6427 606.9943,-86.0714 613.9056,-84.9606"/>
</g>
<!-- Node18&#45;&gt;Node3 -->
<g id="edge23" class="edge">
<title>Node18&#45;&gt;Node3</title>
<path fill="none" stroke="#191970" d="M582.5592,-58.1603C579.4665,-57.3466 576.3308,-56.5997 573.3134,-56 443.6532,-30.2306 288.9861,-18.1669 204.6899,-13.1333"/>
<polygon fill="#191970" stroke="#191970" points="204.7032,-9.6282 194.5163,-12.5397 204.2954,-16.6164 204.7032,-9.6282"/>
</g>
<!-- Node18&#45;&gt;Node7 -->
<g id="edge24" class="edge">
<title>Node18&#45;&gt;Node7</title>
<path fill="none" stroke="#191970" d="M582.4454,-58.6321C579.3722,-57.7374 576.2722,-56.8425 573.3134,-56 525.8141,-42.4741 470.531,-27.3716 436.9985,-18.2817"/>
<polygon fill="#191970" stroke="#191970" points="437.4802,-14.7861 426.913,-15.5513 435.6509,-21.5429 437.4802,-14.7861"/>
</g>
<!-- Node18&#45;&gt;Node17 -->
<g id="edge25" class="edge">
<title>Node18&#45;&gt;Node17</title>
<path fill="none" stroke="#191970" d="M611.8423,-56.2455C615.3468,-48.6973 620.3061,-38.0158 624.5757,-28.8197"/>
<polygon fill="#191970" stroke="#191970" points="627.7998,-30.1867 628.8364,-19.6427 621.4507,-27.2389 627.7998,-30.1867"/>
</g>
<!-- Node18&#45;&gt;Node19 -->
<g id="edge26" class="edge">
<title>Node18&#45;&gt;Node19</title>
<path fill="none" stroke="#191970" d="M632.0474,-59.4665C669.0568,-49.6904 739.0973,-31.1892 782.2408,-19.7928"/>
<polygon fill="#191970" stroke="#191970" points="783.2931,-23.1349 792.0676,-17.197 781.5053,-16.3671 783.2931,-23.1349"/>
</g>
<!-- Node21&#45;&gt;Node2 -->
<g id="edge32" class="edge">
<title>Node21&#45;&gt;Node2</title>
<path fill="none" stroke="#191970" d="M761.5563,-336.4509C722.7523,-316.6961 633.4959,-271.2565 588.027,-248.1088"/>
<polygon fill="#191970" stroke="#191970" points="589.5226,-244.9427 579.023,-243.5249 586.3467,-251.1808 589.5226,-244.9427"/>
</g>
<!-- Node21&#45;&gt;Node19 -->
<g id="edge36" class="edge">
<title>Node21&#45;&gt;Node19</title>
<path fill="none" stroke="#191970" d="M790.6727,-336.3388C799.4588,-327.6151 811.7989,-314.0286 819.3134,-300 833.7266,-273.0925 838.3134,-264.5246 838.3134,-234 838.3134,-234 838.3134,-234 838.3134,-122 838.3134,-89.2688 830.3282,-51.9052 824.7112,-29.6716"/>
<polygon fill="#191970" stroke="#191970" points="828.0423,-28.5763 822.1169,-19.7934 821.2719,-30.3545 828.0423,-28.5763"/>
</g>
<!-- Node21&#45;&gt;Node22 -->
<g id="edge33" class="edge">
<title>Node21&#45;&gt;Node22</title>
<path fill="none" stroke="#191970" d="M780.3134,-336.2455C780.3134,-328.9382 780.3134,-318.6944 780.3134,-309.7046"/>
<polygon fill="#191970" stroke="#191970" points="783.8135,-309.6426 780.3134,-299.6427 776.8135,-309.6427 783.8135,-309.6426"/>
</g>
<!-- Node22&#45;&gt;Node2 -->
<g id="edge34" class="edge">
<title>Node22&#45;&gt;Node2</title>
<path fill="none" stroke="#191970" d="M750.1846,-282.3309C713.3922,-272.9655 650.7346,-257.0163 607.5194,-246.0161"/>
<polygon fill="#191970" stroke="#191970" points="608.3504,-242.6161 597.796,-243.541 606.6236,-249.3997 608.3504,-242.6161"/>
</g>
<!-- Node22&#45;&gt;Node19 -->
<g id="edge35" class="edge">
<title>Node22&#45;&gt;Node19</title>
<path fill="none" stroke="#191970" d="M783.2645,-280.2168C788.8278,-260.8801 800.3134,-216.3189 800.3134,-178 800.3134,-178 800.3134,-178 800.3134,-122 800.3134,-89.2688 808.2986,-51.9052 813.9156,-29.6716"/>
<polygon fill="#191970" stroke="#191970" points="817.3549,-30.3545 816.5099,-19.7934 810.5845,-28.5763 817.3549,-30.3545"/>
</g>
</g>
</svg>
