<?xml version="1.0" encoding="UTF-8" standalone="no"?>
<!DOCTYPE svg PUBLIC "-//W3C//DTD SVG 1.1//EN"
 "http://www.w3.org/Graphics/SVG/1.1/DTD/svg11.dtd">
<!-- Generated by graphviz version 2.40.1 (20161225.0304)
 -->
<!-- Title: /mnt/hdd/C0de/Engines/SFML/SFML_Engine/include/entity_manager.h Pages: 1 -->
<svg width="447pt" height="162pt"
 viewBox="0.00 0.00 446.50 162.00" xmlns="http://www.w3.org/2000/svg" xmlns:xlink="http://www.w3.org/1999/xlink">
<g id="graph0" class="graph" transform="scale(1 1) rotate(0) translate(4 158)">
<title>/mnt/hdd/C0de/Engines/SFML/SFML_Engine/include/entity_manager.h</title>
<!-- Node0 -->
<g id="node1" class="node">
<title>Node0</title>
<polygon fill="#bfbfbf" stroke="#000000" points="76.5,-112.5 76.5,-153.5 220.5,-153.5 220.5,-112.5 76.5,-112.5"/>
<text text-anchor="start" x="84.5" y="-141.5" font-family="Helvetica,sans-Serif" font-size="10.00" fill="#000000">/mnt/hdd/C0de/Engines</text>
<text text-anchor="start" x="84.5" y="-130.5" font-family="Helvetica,sans-Serif" font-size="10.00" fill="#000000">/SFML/SFML_Engine/include</text>
<text text-anchor="middle" x="148.5" y="-119.5" font-family="Helvetica,sans-Serif" font-size="10.00" fill="#000000">/entity_manager.h</text>
</g>
<!-- Node1 -->
<g id="node2" class="node">
<title>Node1</title>
<polygon fill="none" stroke="#bfbfbf" points="0,-56.5 0,-75.5 83,-75.5 83,-56.5 0,-56.5"/>
<text text-anchor="middle" x="41.5" y="-63.5" font-family="Helvetica,sans-Serif" font-size="10.00" fill="#000000">unordered_map</text>
</g>
<!-- Node0&#45;&gt;Node1 -->
<g id="edge1" class="edge">
<title>Node0&#45;&gt;Node1</title>
<path fill="none" stroke="#191970" d="M115.5234,-112.3511C99.3529,-102.2256 80.2339,-90.254 65.4775,-81.0139"/>
<polygon fill="#191970" stroke="#191970" points="67.2516,-77.9954 56.9186,-75.6546 63.5366,-83.9282 67.2516,-77.9954"/>
</g>
<!-- Node2 -->
<g id="node3" class="node">
<title>Node2</title>
<polygon fill="none" stroke="#bfbfbf" points="101.5,-56.5 101.5,-75.5 145.5,-75.5 145.5,-56.5 101.5,-56.5"/>
<text text-anchor="middle" x="123.5" y="-63.5" font-family="Helvetica,sans-Serif" font-size="10.00" fill="#000000">vector</text>
</g>
<!-- Node0&#45;&gt;Node2 -->
<g id="edge2" class="edge">
<title>Node0&#45;&gt;Node2</title>
<path fill="none" stroke="#191970" d="M140.7269,-112.168C137.5421,-103.6329 133.8773,-93.8112 130.7488,-85.4268"/>
<polygon fill="#191970" stroke="#191970" points="133.9246,-83.9259 127.1494,-75.7805 127.3662,-86.3731 133.9246,-83.9259"/>
</g>
<!-- Node3 -->
<g id="node4" class="node">
<title>Node3</title>
<polygon fill="none" stroke="#bfbfbf" points="104.5,-.5 104.5,-19.5 184.5,-19.5 184.5,-.5 104.5,-.5"/>
<text text-anchor="middle" x="144.5" y="-7.5" font-family="Helvetica,sans-Serif" font-size="10.00" fill="#000000">box2d/box2d.h</text>
</g>
<!-- Node0&#45;&gt;Node3 -->
<g id="edge3" class="edge">
<title>Node0&#45;&gt;Node3</title>
<path fill="none" stroke="#191970" d="M152.1723,-112.3802C154.4361,-96.8565 156.5483,-75.0645 154.5,-56 153.5637,-47.285 151.6567,-37.7985 149.7568,-29.7166"/>
<polygon fill="#191970" stroke="#191970" points="153.0899,-28.6187 147.2621,-19.7707 146.3002,-30.3218 153.0899,-28.6187"/>
</g>
<!-- Node4 -->
<g id="node5" class="node">
<title>Node4</title>
<g id="a_node5"><a xlink:href="entity_8h.html" target="_top" xlink:title="entity.h">
<polygon fill="none" stroke="#000000" points="230,-56.5 230,-75.5 279,-75.5 279,-56.5 230,-56.5"/>
<text text-anchor="middle" x="254.5" y="-63.5" font-family="Helvetica,sans-Serif" font-size="10.00" fill="#000000">entity.h</text>
</a>
</g>
</g>
<!-- Node0&#45;&gt;Node4 -->
<g id="edge4" class="edge">
<title>Node0&#45;&gt;Node4</title>
<path fill="none" stroke="#191970" d="M181.1684,-112.3511C197.1878,-102.2256 216.1281,-90.254 230.7466,-81.0139"/>
<polygon fill="#191970" stroke="#191970" points="232.6425,-83.9562 239.2255,-75.6546 228.9024,-78.0391 232.6425,-83.9562"/>
</g>
<!-- Node4&#45;&gt;Node3 -->
<g id="edge7" class="edge">
<title>Node4&#45;&gt;Node3</title>
<path fill="none" stroke="#191970" d="M235.3395,-56.2455C217.9889,-47.4125 192.2099,-34.2887 172.5417,-24.2758"/>
<polygon fill="#191970" stroke="#191970" points="173.9405,-21.0605 163.441,-19.6427 170.7647,-27.2986 173.9405,-21.0605"/>
</g>
<!-- Node5 -->
<g id="node6" class="node">
<title>Node5</title>
<polygon fill="none" stroke="#bfbfbf" points="202.5,-.5 202.5,-19.5 306.5,-19.5 306.5,-.5 202.5,-.5"/>
<text text-anchor="middle" x="254.5" y="-7.5" font-family="Helvetica,sans-Serif" font-size="10.00" fill="#000000">SFML/Graphics.hpp</text>
</g>
<!-- Node4&#45;&gt;Node5 -->
<g id="edge5" class="edge">
<title>Node4&#45;&gt;Node5</title>
<path fill="none" stroke="#191970" d="M254.5,-56.2455C254.5,-48.9382 254.5,-38.6944 254.5,-29.7046"/>
<polygon fill="#191970" stroke="#191970" points="258.0001,-29.6426 254.5,-19.6427 251.0001,-29.6427 258.0001,-29.6426"/>
</g>
<!-- Node6 -->
<g id="node7" class="node">
<title>Node6</title>
<polygon fill="none" stroke="#bfbfbf" points="325,-.5 325,-19.5 366,-19.5 366,-.5 325,-.5"/>
<text text-anchor="middle" x="345.5" y="-7.5" font-family="Helvetica,sans-Serif" font-size="10.00" fill="#000000">string</text>
</g>
<!-- Node4&#45;&gt;Node6 -->
<g id="edge6" class="edge">
<title>Node4&#45;&gt;Node6</title>
<path fill="none" stroke="#191970" d="M270.351,-56.2455C284.3132,-47.6534 304.8728,-35.0014 320.9596,-25.1018"/>
<polygon fill="#191970" stroke="#191970" points="323.1484,-27.8645 329.8307,-19.6427 319.4797,-21.9029 323.1484,-27.8645"/>
</g>
<!-- Node7 -->
<g id="node8" class="node">
<title>Node7</title>
<polygon fill="none" stroke="#bfbfbf" points="384.5,-.5 384.5,-19.5 438.5,-19.5 438.5,-.5 384.5,-.5"/>
<text text-anchor="middle" x="411.5" y="-7.5" font-family="Helvetica,sans-Serif" font-size="10.00" fill="#000000">iostream</text>
</g>
<!-- Node4&#45;&gt;Node7 -->
<g id="edge8" class="edge">
<title>Node4&#45;&gt;Node7</title>
<path fill="none" stroke="#191970" d="M279.0313,-57.25C304.8333,-48.0467 345.7124,-33.4656 375.2384,-22.9341"/>
<polygon fill="#191970" stroke="#191970" points="376.5353,-26.1876 384.7782,-19.5314 374.1835,-19.5944 376.5353,-26.1876"/>
</g>
</g>
</svg>
