<?xml version="1.0" encoding="UTF-8" standalone="no"?>
<!DOCTYPE svg PUBLIC "-//W3C//DTD SVG 1.1//EN"
 "http://www.w3.org/Graphics/SVG/1.1/DTD/svg11.dtd">
<!-- Generated by graphviz version 2.40.1 (20161225.0304)
 -->
<!-- Title: /mnt/hdd/C0de/Engines/SFML/SFML_Engine/src/entity.cpp Pages: 1 -->
<svg width="342pt" height="162pt"
 viewBox="0.00 0.00 342.00 162.00" xmlns="http://www.w3.org/2000/svg" xmlns:xlink="http://www.w3.org/1999/xlink">
<g id="graph0" class="graph" transform="scale(1 1) rotate(0) translate(4 158)">
<title>/mnt/hdd/C0de/Engines/SFML/SFML_Engine/src/entity.cpp</title>
<!-- Node0 -->
<g id="node1" class="node">
<title>Node0</title>
<polygon fill="#bfbfbf" stroke="#000000" points="118.5,-112.5 118.5,-153.5 245.5,-153.5 245.5,-112.5 118.5,-112.5"/>
<text text-anchor="start" x="126.5" y="-141.5" font-family="Helvetica,sans-Serif" font-size="10.00" fill="#000000">/mnt/hdd/C0de/Engines</text>
<text text-anchor="start" x="126.5" y="-130.5" font-family="Helvetica,sans-Serif" font-size="10.00" fill="#000000">/SFML/SFML_Engine/src</text>
<text text-anchor="middle" x="182" y="-119.5" font-family="Helvetica,sans-Serif" font-size="10.00" fill="#000000">/entity.cpp</text>
</g>
<!-- Node1 -->
<g id="node2" class="node">
<title>Node1</title>
<g id="a_node2"><a xlink:href="entity_8h.html" target="_top" xlink:title="../include/entity.h">
<polygon fill="none" stroke="#000000" points="136,-56.5 136,-75.5 228,-75.5 228,-56.5 136,-56.5"/>
<text text-anchor="middle" x="182" y="-63.5" font-family="Helvetica,sans-Serif" font-size="10.00" fill="#000000">../include/entity.h</text>
</a>
</g>
</g>
<!-- Node0&#45;&gt;Node1 -->
<g id="edge1" class="edge">
<title>Node0&#45;&gt;Node1</title>
<path fill="none" stroke="#191970" d="M182,-112.168C182,-103.8226 182,-94.2471 182,-85.9879"/>
<polygon fill="#191970" stroke="#191970" points="185.5001,-85.7804 182,-75.7805 178.5001,-85.7805 185.5001,-85.7804"/>
</g>
<!-- Node2 -->
<g id="node3" class="node">
<title>Node2</title>
<polygon fill="none" stroke="#bfbfbf" points="0,-.5 0,-19.5 104,-19.5 104,-.5 0,-.5"/>
<text text-anchor="middle" x="52" y="-7.5" font-family="Helvetica,sans-Serif" font-size="10.00" fill="#000000">SFML/Graphics.hpp</text>
</g>
<!-- Node1&#45;&gt;Node2 -->
<g id="edge2" class="edge">
<title>Node1&#45;&gt;Node2</title>
<path fill="none" stroke="#191970" d="M159.6522,-56.3733C138.5967,-47.3032 106.8505,-33.6279 83.2825,-23.4755"/>
<polygon fill="#191970" stroke="#191970" points="84.625,-20.243 74.0562,-19.5011 81.8556,-26.6719 84.625,-20.243"/>
</g>
<!-- Node3 -->
<g id="node4" class="node">
<title>Node3</title>
<polygon fill="none" stroke="#bfbfbf" points="122.5,-.5 122.5,-19.5 163.5,-19.5 163.5,-.5 122.5,-.5"/>
<text text-anchor="middle" x="143" y="-7.5" font-family="Helvetica,sans-Serif" font-size="10.00" fill="#000000">string</text>
</g>
<!-- Node1&#45;&gt;Node3 -->
<g id="edge3" class="edge">
<title>Node1&#45;&gt;Node3</title>
<path fill="none" stroke="#191970" d="M175.2067,-56.2455C169.7822,-48.4564 162.0339,-37.3308 155.4967,-27.9439"/>
<polygon fill="#191970" stroke="#191970" points="158.3025,-25.8485 149.7154,-19.6427 152.5583,-29.849 158.3025,-25.8485"/>
</g>
<!-- Node4 -->
<g id="node5" class="node">
<title>Node4</title>
<polygon fill="none" stroke="#bfbfbf" points="182,-.5 182,-19.5 262,-19.5 262,-.5 182,-.5"/>
<text text-anchor="middle" x="222" y="-7.5" font-family="Helvetica,sans-Serif" font-size="10.00" fill="#000000">box2d/box2d.h</text>
</g>
<!-- Node1&#45;&gt;Node4 -->
<g id="edge4" class="edge">
<title>Node1&#45;&gt;Node4</title>
<path fill="none" stroke="#191970" d="M188.9675,-56.2455C194.5311,-48.4564 202.478,-37.3308 209.1829,-27.9439"/>
<polygon fill="#191970" stroke="#191970" points="212.148,-29.8144 215.1124,-19.6427 206.4519,-25.7457 212.148,-29.8144"/>
</g>
<!-- Node5 -->
<g id="node6" class="node">
<title>Node5</title>
<polygon fill="none" stroke="#bfbfbf" points="280,-.5 280,-19.5 334,-19.5 334,-.5 280,-.5"/>
<text text-anchor="middle" x="307" y="-7.5" font-family="Helvetica,sans-Serif" font-size="10.00" fill="#000000">iostream</text>
</g>
<!-- Node1&#45;&gt;Node5 -->
<g id="edge5" class="edge">
<title>Node1&#45;&gt;Node5</title>
<path fill="none" stroke="#191970" d="M203.4883,-56.3733C223.644,-47.3435 253.988,-33.7494 276.618,-23.6111"/>
<polygon fill="#191970" stroke="#191970" points="278.0971,-26.7838 285.7921,-19.5011 275.2351,-20.3955 278.0971,-26.7838"/>
</g>
</g>
</svg>
