<?xml version="1.0" encoding="UTF-8" standalone="no"?>
<!DOCTYPE svg PUBLIC "-//W3C//DTD SVG 1.1//EN"
 "http://www.w3.org/Graphics/SVG/1.1/DTD/svg11.dtd">
<!-- Generated by graphviz version 2.40.1 (20161225.0304)
 -->
<!-- Title: /mnt/hdd/C0de/Engines/SFML/SFML_Engine/include/entity_manager.h Pages: 1 -->
<!--zoomable 674 -->
<svg id="main" version="1.1" xmlns="http://www.w3.org/2000/svg" xmlns:xlink="http://www.w3.org/1999/xlink" xml:space="preserve" onload="init(evt)">
<style type="text/css"><![CDATA[
.edge:hover path { stroke: red; }
.edge:hover polygon { stroke: red; fill: red; }
]]></style>
<script type="text/javascript"><![CDATA[
var edges = document.getElementsByTagName('g');
if (edges && edges.length) {
  for (var i=0;i<edges.length;i++) {
    if (edges[i].id.substr(0,4)=='edge') {
      edges[i].setAttribute('class','edge');
    }
  }
}
]]></script>
        <defs>
                <circle id="rim" cx="0" cy="0" r="7"/>
                <circle id="rim2" cx="0" cy="0" r="3.5"/>
                <g id="zoomPlus">
                        <use xlink:href="#rim" fill="#404040">
                                <set attributeName="fill" to="#808080" begin="zoomplus.mouseover" end="zoomplus.mouseout"/>
                        </use>
                        <path d="M-4,0h8M0,-4v8" fill="none" stroke="white" stroke-width="1.5" pointer-events="none"/>
                </g>
                <g id="zoomMin">
                        <use xlink:href="#rim" fill="#404040">
                                <set attributeName="fill" to="#808080" begin="zoomminus.mouseover" end="zoomminus.mouseout"/>
                        </use>
                        <path d="M-4,0h8" fill="none" stroke="white" stroke-width="1.5" pointer-events="none"/>
                </g>
                <g id="dirArrow">
                        <path fill="none" stroke="white" stroke-width="1.5" d="M0,-3.0v7 M-2.5,-0.5L0,-3.0L2.5,-0.5"/>
                </g>
               <g id="resetDef">
                       <use xlink:href="#rim2" fill="#404040">
                               <set attributeName="fill" to="#808080" begin="reset.mouseover" end="reset.mouseout"/>
                       </use>
               </g>
        </defs>

<script type="text/javascript">
var viewWidth = 1315;
var viewHeight = 674;
var sectionId = 'dynsection-1';
</script>
<script xlink:href="svgpan.js"/>
<svg id="graph" class="graph">
<g id="viewport">
<title>/mnt/hdd/C0de/Engines/SFML/SFML_Engine/include/entity_manager.h</title>
<!-- Node8 -->
<g id="node1" class="node">
<title>Node8</title>
<polygon fill="#bfbfbf" stroke="#000000" points="791,-624.5 791,-665.5 935,-665.5 935,-624.5 791,-624.5"/>
<text text-anchor="start" x="799" y="-653.5" font-family="Helvetica,sans-Serif" font-size="10.00" fill="#000000">/mnt/hdd/C0de/Engines</text>
<text text-anchor="start" x="799" y="-642.5" font-family="Helvetica,sans-Serif" font-size="10.00" fill="#000000">/SFML/SFML_Engine/include</text>
<text text-anchor="middle" x="863" y="-631.5" font-family="Helvetica,sans-Serif" font-size="10.00" fill="#000000">/entity_manager.h</text>
</g>
<!-- Node9 -->
<g id="node2" class="node">
<title>Node9</title>
<g id="a_node2"><a xlink:href="Game_8hpp.html" target="_top" xlink:title="/mnt/hdd/C0de/Engines\l/SFML/SFML_Engine/include\l/Game.hpp">
<polygon fill="none" stroke="#000000" points="791,-546.5 791,-587.5 935,-587.5 935,-546.5 791,-546.5"/>
<text text-anchor="start" x="799" y="-575.5" font-family="Helvetica,sans-Serif" font-size="10.00" fill="#000000">/mnt/hdd/C0de/Engines</text>
<text text-anchor="start" x="799" y="-564.5" font-family="Helvetica,sans-Serif" font-size="10.00" fill="#000000">/SFML/SFML_Engine/include</text>
<text text-anchor="middle" x="863" y="-553.5" font-family="Helvetica,sans-Serif" font-size="10.00" fill="#000000">/Game.hpp</text>
</a>
</g>
</g>
<!-- Node8&#45;&gt;Node9 -->
<g id="edge1" class="edge">
<title>Node8&#45;&gt;Node9</title>
<path fill="none" stroke="#191970" d="M863,-614.0789C863,-605.2178 863,-595.7747 863,-587.6898"/>
<polygon fill="#191970" stroke="#191970" points="859.5001,-614.0974 863,-624.0974 866.5001,-614.0975 859.5001,-614.0974"/>
</g>
<!-- Node10 -->
<g id="node3" class="node">
<title>Node10</title>
<g id="a_node3"><a xlink:href="GameWorld_8hpp.html" target="_top" xlink:title="/mnt/hdd/C0de/Engines\l/SFML/SFML_Engine/include\l/GameWorld.hpp">
<polygon fill="none" stroke="#000000" points="343,-468.5 343,-509.5 487,-509.5 487,-468.5 343,-468.5"/>
<text text-anchor="start" x="351" y="-497.5" font-family="Helvetica,sans-Serif" font-size="10.00" fill="#000000">/mnt/hdd/C0de/Engines</text>
<text text-anchor="start" x="351" y="-486.5" font-family="Helvetica,sans-Serif" font-size="10.00" fill="#000000">/SFML/SFML_Engine/include</text>
<text text-anchor="middle" x="415" y="-475.5" font-family="Helvetica,sans-Serif" font-size="10.00" fill="#000000">/GameWorld.hpp</text>
</a>
</g>
</g>
<!-- Node8&#45;&gt;Node10 -->
<g id="edge50" class="edge">
<title>Node8&#45;&gt;Node10</title>
<path fill="none" stroke="#191970" d="M794.3966,-621.1113C706.8601,-590.6299 556.9049,-538.4133 474.1596,-509.6002"/>
<polygon fill="#191970" stroke="#191970" points="793.3763,-624.4621 803.9711,-624.4453 795.6783,-617.8514 793.3763,-624.4621"/>
</g>
<!-- Node35 -->
<g id="node28" class="node">
<title>Node35</title>
<g id="a_node28"><a xlink:href="entity__manager_8cpp.html" target="_top" xlink:title="/mnt/hdd/C0de/Engines\l/SFML/SFML_Engine/src\l/entity_manager.cpp">
<polygon fill="none" stroke="#000000" points="953.5,-546.5 953.5,-587.5 1080.5,-587.5 1080.5,-546.5 953.5,-546.5"/>
<text text-anchor="start" x="961.5" y="-575.5" font-family="Helvetica,sans-Serif" font-size="10.00" fill="#000000">/mnt/hdd/C0de/Engines</text>
<text text-anchor="start" x="961.5" y="-564.5" font-family="Helvetica,sans-Serif" font-size="10.00" fill="#000000">/SFML/SFML_Engine/src</text>
<text text-anchor="middle" x="1017" y="-553.5" font-family="Helvetica,sans-Serif" font-size="10.00" fill="#000000">/entity_manager.cpp</text>
</a>
</g>
</g>
<!-- Node8&#45;&gt;Node35 -->
<g id="edge51" class="edge">
<title>Node8&#45;&gt;Node35</title>
<path fill="none" stroke="#191970" d="M912.7902,-619.7816C933.3873,-609.3493 956.9653,-597.4072 976.4785,-587.5239"/>
<polygon fill="#191970" stroke="#191970" points="911.2044,-616.6614 903.8649,-624.3022 914.3673,-622.9061 911.2044,-616.6614"/>
</g>
<!-- Node9&#45;&gt;Node10 -->
<g id="edge2" class="edge">
<title>Node9&#45;&gt;Node10</title>
<path fill="none" stroke="#191970" d="M780.4924,-552.6348C696.3555,-537.986 567.1232,-515.4857 487.0018,-501.536"/>
<polygon fill="#191970" stroke="#191970" points="780.071,-556.114 790.5231,-554.3813 781.2717,-549.2178 780.071,-556.114"/>
</g>
<!-- Node14 -->
<g id="node7" class="node">
<title>Node14</title>
<g id="a_node7"><a xlink:href="LoadingGameObjects_8hpp.html" target="_top" xlink:title="/mnt/hdd/C0de/Engines\l/SFML/SFML_Engine/include\l/LoadingGameObjects.hpp">
<polygon fill="none" stroke="#000000" points="650,-156.5 650,-197.5 794,-197.5 794,-156.5 650,-156.5"/>
<text text-anchor="start" x="658" y="-185.5" font-family="Helvetica,sans-Serif" font-size="10.00" fill="#000000">/mnt/hdd/C0de/Engines</text>
<text text-anchor="start" x="658" y="-174.5" font-family="Helvetica,sans-Serif" font-size="10.00" fill="#000000">/SFML/SFML_Engine/include</text>
<text text-anchor="middle" x="722" y="-163.5" font-family="Helvetica,sans-Serif" font-size="10.00" fill="#000000">/LoadingGameObjects.hpp</text>
</a>
</g>
</g>
<!-- Node9&#45;&gt;Node14 -->
<g id="edge40" class="edge">
<title>Node9&#45;&gt;Node14</title>
<path fill="none" stroke="#191970" d="M843.9105,-537.7368C838.8512,-529.0641 833.7583,-519.3737 830,-510 813.1515,-467.9773 806,-456.2745 806,-411 806,-411 806,-411 806,-333 806,-279.1699 766.7468,-226.0368 741.9068,-197.8026"/>
<polygon fill="#191970" stroke="#191970" points="840.9471,-539.6003 849.1133,-546.3504 846.9389,-535.9811 840.9471,-539.6003"/>
</g>
<!-- Node15 -->
<g id="node8" class="node">
<title>Node15</title>
<g id="a_node8"><a xlink:href="GameOverState_8hpp.html" target="_top" xlink:title="/mnt/hdd/C0de/Engines\l/SFML/SFML_Engine/include\l/GameOverState.hpp">
<polygon fill="none" stroke="#000000" points="779,-78.5 779,-119.5 923,-119.5 923,-78.5 779,-78.5"/>
<text text-anchor="start" x="787" y="-107.5" font-family="Helvetica,sans-Serif" font-size="10.00" fill="#000000">/mnt/hdd/C0de/Engines</text>
<text text-anchor="start" x="787" y="-96.5" font-family="Helvetica,sans-Serif" font-size="10.00" fill="#000000">/SFML/SFML_Engine/include</text>
<text text-anchor="middle" x="851" y="-85.5" font-family="Helvetica,sans-Serif" font-size="10.00" fill="#000000">/GameOverState.hpp</text>
</a>
</g>
</g>
<!-- Node9&#45;&gt;Node15 -->
<g id="edge39" class="edge">
<title>Node9&#45;&gt;Node15</title>
<path fill="none" stroke="#191970" d="M868.9263,-536.5381C874.5018,-505.1908 882,-454.8774 882,-411 882,-411 882,-411 882,-255 882,-205.849 867.0128,-149.629 857.8799,-119.9327"/>
<polygon fill="#191970" stroke="#191970" points="865.4779,-535.9388 867.1227,-546.4052 872.3638,-537.1975 865.4779,-535.9388"/>
</g>
<!-- Node17 -->
<g id="node10" class="node">
<title>Node17</title>
<g id="a_node10"><a xlink:href="GameState_8cpp.html" target="_top" xlink:title="/mnt/hdd/C0de/Engines\l/SFML/SFML_Engine/src\l/GameState.cpp">
<polygon fill="none" stroke="#000000" points="742.5,-.5 742.5,-41.5 869.5,-41.5 869.5,-.5 742.5,-.5"/>
<text text-anchor="start" x="750.5" y="-29.5" font-family="Helvetica,sans-Serif" font-size="10.00" fill="#000000">/mnt/hdd/C0de/Engines</text>
<text text-anchor="start" x="750.5" y="-18.5" font-family="Helvetica,sans-Serif" font-size="10.00" fill="#000000">/SFML/SFML_Engine/src</text>
<text text-anchor="middle" x="806" y="-7.5" font-family="Helvetica,sans-Serif" font-size="10.00" fill="#000000">/GameState.cpp</text>
</a>
</g>
</g>
<!-- Node9&#45;&gt;Node17 -->
<g id="edge48" class="edge">
<title>Node9&#45;&gt;Node17</title>
<path fill="none" stroke="#191970" d="M880.9081,-537.3364C897.6212,-506.7899 920,-457.2525 920,-411 920,-411 920,-411 920,-255 920,-176.1527 974.7463,-144.2544 932,-78 924.0926,-65.7439 895.309,-52.282 867.2465,-41.5197"/>
<polygon fill="#191970" stroke="#191970" points="877.7847,-535.7501 875.9342,-546.182 883.8863,-539.181 877.7847,-535.7501"/>
</g>
<!-- Node18 -->
<g id="node11" class="node">
<title>Node18</title>
<g id="a_node11"><a xlink:href="GameState_8hpp.html" target="_top" xlink:title="/mnt/hdd/C0de/Engines\l/SFML/SFML_Engine/include\l/GameState.hpp">
<polygon fill="none" stroke="#000000" points="305,-78.5 305,-119.5 449,-119.5 449,-78.5 305,-78.5"/>
<text text-anchor="start" x="313" y="-107.5" font-family="Helvetica,sans-Serif" font-size="10.00" fill="#000000">/mnt/hdd/C0de/Engines</text>
<text text-anchor="start" x="313" y="-96.5" font-family="Helvetica,sans-Serif" font-size="10.00" fill="#000000">/SFML/SFML_Engine/include</text>
<text text-anchor="middle" x="377" y="-85.5" font-family="Helvetica,sans-Serif" font-size="10.00" fill="#000000">/GameState.hpp</text>
</a>
</g>
</g>
<!-- Node9&#45;&gt;Node18 -->
<g id="edge41" class="edge">
<title>Node9&#45;&gt;Node18</title>
<path fill="none" stroke="#191970" d="M780.6214,-555.3979C721.5387,-545.6018 648.4071,-529.9816 625,-510 588.7788,-479.0795 584,-458.624 584,-411 584,-411 584,-411 584,-255 584,-184.6873 506.8865,-142.091 446.7922,-119.5711"/>
<polygon fill="#191970" stroke="#191970" points="780.29,-558.8899 790.722,-557.0392 781.4129,-551.9805 780.29,-558.8899"/>
</g>
<!-- Node19 -->
<g id="node12" class="node">
<title>Node19</title>
<g id="a_node12"><a xlink:href="Game_8cpp.html" target="_top" xlink:title="/mnt/hdd/C0de/Engines\l/SFML/SFML_Engine/src\l/Game.cpp">
<polygon fill="none" stroke="#000000" points="1032.5,-.5 1032.5,-41.5 1159.5,-41.5 1159.5,-.5 1032.5,-.5"/>
<text text-anchor="start" x="1040.5" y="-29.5" font-family="Helvetica,sans-Serif" font-size="10.00" fill="#000000">/mnt/hdd/C0de/Engines</text>
<text text-anchor="start" x="1040.5" y="-18.5" font-family="Helvetica,sans-Serif" font-size="10.00" fill="#000000">/SFML/SFML_Engine/src</text>
<text text-anchor="middle" x="1096" y="-7.5" font-family="Helvetica,sans-Serif" font-size="10.00" fill="#000000">/Game.cpp</text>
</a>
</g>
</g>
<!-- Node9&#45;&gt;Node19 -->
<g id="edge47" class="edge">
<title>Node9&#45;&gt;Node19</title>
<path fill="none" stroke="#191970" d="M945.2166,-546.3434C1035.098,-534.5725 1231.1397,-559.5098 1285,-510 1317.9846,-479.6797 1304,-455.803 1304,-411 1304,-411 1304,-411 1304,-177 1304,-103.875 1220.7061,-60.8284 1159.5371,-39.0752"/>
<polygon fill="#191970" stroke="#191970" points="944.6599,-542.8878 935.3118,-547.8743 945.7291,-549.8056 944.6599,-542.8878"/>
</g>
<!-- Node21 -->
<g id="node14" class="node">
<title>Node21</title>
<g id="a_node14"><a xlink:href="MainMenuState_8hpp.html" target="_top" xlink:title="/mnt/hdd/C0de/Engines\l/SFML/SFML_Engine/include\l/MainMenuState.hpp">
<polygon fill="none" stroke="#000000" points="617,-78.5 617,-119.5 761,-119.5 761,-78.5 617,-78.5"/>
<text text-anchor="start" x="625" y="-107.5" font-family="Helvetica,sans-Serif" font-size="10.00" fill="#000000">/mnt/hdd/C0de/Engines</text>
<text text-anchor="start" x="625" y="-96.5" font-family="Helvetica,sans-Serif" font-size="10.00" fill="#000000">/SFML/SFML_Engine/include</text>
<text text-anchor="middle" x="689" y="-85.5" font-family="Helvetica,sans-Serif" font-size="10.00" fill="#000000">/MainMenuState.hpp</text>
</a>
</g>
</g>
<!-- Node9&#45;&gt;Node21 -->
<g id="edge45" class="edge">
<title>Node9&#45;&gt;Node21</title>
<path fill="none" stroke="#191970" d="M857.0737,-536.5381C851.4982,-505.1908 844,-454.8774 844,-411 844,-411 844,-411 844,-255 844,-207.376 835.4587,-190.8495 803,-156 788.4464,-140.3745 768.6662,-128.4298 749.6677,-119.6112"/>
<polygon fill="#191970" stroke="#191970" points="853.6362,-537.1975 858.8773,-546.4052 860.5221,-535.9388 853.6362,-537.1975"/>
</g>
<!-- Node23 -->
<g id="node16" class="node">
<title>Node23</title>
<g id="a_node16"><a xlink:href="SplashState_8hpp.html" target="_top" xlink:title="/mnt/hdd/C0de/Engines\l/SFML/SFML_Engine/include\l/SplashState.hpp">
<polygon fill="none" stroke="#000000" points="979,-78.5 979,-119.5 1123,-119.5 1123,-78.5 979,-78.5"/>
<text text-anchor="start" x="987" y="-107.5" font-family="Helvetica,sans-Serif" font-size="10.00" fill="#000000">/mnt/hdd/C0de/Engines</text>
<text text-anchor="start" x="987" y="-96.5" font-family="Helvetica,sans-Serif" font-size="10.00" fill="#000000">/SFML/SFML_Engine/include</text>
<text text-anchor="middle" x="1051" y="-85.5" font-family="Helvetica,sans-Serif" font-size="10.00" fill="#000000">/SplashState.hpp</text>
</a>
</g>
</g>
<!-- Node9&#45;&gt;Node23 -->
<g id="edge46" class="edge">
<title>Node9&#45;&gt;Node23</title>
<path fill="none" stroke="#191970" d="M905.6769,-540.1734C916.2888,-531.6858 926.7037,-521.4819 934,-510 958.2823,-471.7881 958,-456.2745 958,-411 958,-411 958,-411 958,-255 958,-200.1363 1000.9637,-147.7848 1028.4873,-119.8762"/>
<polygon fill="#191970" stroke="#191970" points="903.4234,-537.4897 897.5718,-546.322 907.6541,-543.0666 903.4234,-537.4897"/>
</g>
<!-- Node31 -->
<g id="node24" class="node">
<title>Node31</title>
<g id="a_node24"><a xlink:href="Button_8hpp.html" target="_top" xlink:title="/mnt/hdd/C0de/Engines\l/SFML/SFML_Engine/include\l/Button.hpp">
<polygon fill="none" stroke="#000000" points="986,-468.5 986,-509.5 1130,-509.5 1130,-468.5 986,-468.5"/>
<text text-anchor="start" x="994" y="-497.5" font-family="Helvetica,sans-Serif" font-size="10.00" fill="#000000">/mnt/hdd/C0de/Engines</text>
<text text-anchor="start" x="994" y="-486.5" font-family="Helvetica,sans-Serif" font-size="10.00" fill="#000000">/SFML/SFML_Engine/include</text>
<text text-anchor="middle" x="1058" y="-475.5" font-family="Helvetica,sans-Serif" font-size="10.00" fill="#000000">/Button.hpp</text>
</a>
</g>
</g>
<!-- Node9&#45;&gt;Node31 -->
<g id="edge38" class="edge">
<title>Node9&#45;&gt;Node31</title>
<path fill="none" stroke="#191970" d="M924.0447,-542.5821C950.545,-531.982 981.2429,-519.7028 1006.5608,-509.5757"/>
<polygon fill="#191970" stroke="#191970" points="922.4739,-539.4408 914.489,-546.4044 925.0737,-545.9401 922.4739,-539.4408"/>
</g>
<!-- Node32 -->
<g id="node25" class="node">
<title>Node32</title>
<g id="a_node25"><a xlink:href="HUD_8hpp.html" target="_top" xlink:title="/mnt/hdd/C0de/Engines\l/SFML/SFML_Engine/include\l/HUD.hpp">
<polygon fill="none" stroke="#000000" points="634,-468.5 634,-509.5 778,-509.5 778,-468.5 634,-468.5"/>
<text text-anchor="start" x="642" y="-497.5" font-family="Helvetica,sans-Serif" font-size="10.00" fill="#000000">/mnt/hdd/C0de/Engines</text>
<text text-anchor="start" x="642" y="-486.5" font-family="Helvetica,sans-Serif" font-size="10.00" fill="#000000">/SFML/SFML_Engine/include</text>
<text text-anchor="middle" x="706" y="-475.5" font-family="Helvetica,sans-Serif" font-size="10.00" fill="#000000">/HUD.hpp</text>
</a>
</g>
</g>
<!-- Node9&#45;&gt;Node32 -->
<g id="edge42" class="edge">
<title>Node9&#45;&gt;Node32</title>
<path fill="none" stroke="#191970" d="M812.2399,-541.7816C791.2415,-531.3493 767.2042,-519.4072 747.3108,-509.5239"/>
<polygon fill="#191970" stroke="#191970" points="810.8261,-544.9873 821.3391,-546.3022 813.9407,-538.7184 810.8261,-544.9873"/>
</g>
<!-- Node34 -->
<g id="node27" class="node">
<title>Node34</title>
<g id="a_node27"><a xlink:href="main_8cpp.html" target="_top" xlink:title="/mnt/hdd/C0de/Engines\l/SFML/SFML_Engine/src\l/main.cpp">
<polygon fill="none" stroke="#000000" points="1148.5,-468.5 1148.5,-509.5 1275.5,-509.5 1275.5,-468.5 1148.5,-468.5"/>
<text text-anchor="start" x="1156.5" y="-497.5" font-family="Helvetica,sans-Serif" font-size="10.00" fill="#000000">/mnt/hdd/C0de/Engines</text>
<text text-anchor="start" x="1156.5" y="-486.5" font-family="Helvetica,sans-Serif" font-size="10.00" fill="#000000">/SFML/SFML_Engine/src</text>
<text text-anchor="middle" x="1212" y="-475.5" font-family="Helvetica,sans-Serif" font-size="10.00" fill="#000000">/main.cpp</text>
</a>
</g>
</g>
<!-- Node9&#45;&gt;Node34 -->
<g id="edge49" class="edge">
<title>Node9&#45;&gt;Node34</title>
<path fill="none" stroke="#191970" d="M945.159,-546.0489C1032.3311,-527.2959 1056.6517,-529.4372 1139,-510 1142.0804,-509.2729 1145.2248,-508.4976 1148.3941,-507.6895"/>
<polygon fill="#191970" stroke="#191970" points="944.3978,-542.6326 935.3739,-548.1841 945.8902,-549.4716 944.3978,-542.6326"/>
</g>
<!-- Node11 -->
<g id="node4" class="node">
<title>Node11</title>
<g id="a_node4"><a xlink:href="Bullet_8hpp.html" target="_top" xlink:title="/mnt/hdd/C0de/Engines\l/SFML/SFML_Engine/include\l/Bullet.hpp">
<polygon fill="none" stroke="#000000" points="143,-390.5 143,-431.5 287,-431.5 287,-390.5 143,-390.5"/>
<text text-anchor="start" x="151" y="-419.5" font-family="Helvetica,sans-Serif" font-size="10.00" fill="#000000">/mnt/hdd/C0de/Engines</text>
<text text-anchor="start" x="151" y="-408.5" font-family="Helvetica,sans-Serif" font-size="10.00" fill="#000000">/SFML/SFML_Engine/include</text>
<text text-anchor="middle" x="215" y="-397.5" font-family="Helvetica,sans-Serif" font-size="10.00" fill="#000000">/Bullet.hpp</text>
</a>
</g>
</g>
<!-- Node10&#45;&gt;Node11 -->
<g id="edge3" class="edge">
<title>Node10&#45;&gt;Node11</title>
<path fill="none" stroke="#191970" d="M352.7475,-464.7215C325.4865,-454.0897 293.8391,-441.7473 267.7581,-431.5757"/>
<polygon fill="#191970" stroke="#191970" points="351.6025,-468.0317 362.1907,-468.4044 354.1459,-461.5101 351.6025,-468.0317"/>
</g>
<!-- Node12 -->
<g id="node5" class="node">
<title>Node12</title>
<g id="a_node5"><a xlink:href="Gun_8hpp.html" target="_top" xlink:title="/mnt/hdd/C0de/Engines\l/SFML/SFML_Engine/include\l/Gun.hpp">
<polygon fill="none" stroke="#000000" points="293,-312.5 293,-353.5 437,-353.5 437,-312.5 293,-312.5"/>
<text text-anchor="start" x="301" y="-341.5" font-family="Helvetica,sans-Serif" font-size="10.00" fill="#000000">/mnt/hdd/C0de/Engines</text>
<text text-anchor="start" x="301" y="-330.5" font-family="Helvetica,sans-Serif" font-size="10.00" fill="#000000">/SFML/SFML_Engine/include</text>
<text text-anchor="middle" x="365" y="-319.5" font-family="Helvetica,sans-Serif" font-size="10.00" fill="#000000">/Gun.hpp</text>
</a>
</g>
</g>
<!-- Node10&#45;&gt;Node12 -->
<g id="edge34" class="edge">
<title>Node10&#45;&gt;Node12</title>
<path fill="none" stroke="#191970" d="M433.4425,-459.3247C443.5397,-439.0378 451.977,-411.954 441,-390 433.4766,-374.9531 419.8832,-362.8478 406.2512,-353.7288"/>
<polygon fill="#191970" stroke="#191970" points="430.2168,-457.9351 428.5909,-468.4044 436.3907,-461.2341 430.2168,-457.9351"/>
</g>
<!-- Node13 -->
<g id="node6" class="node">
<title>Node13</title>
<g id="a_node6"><a xlink:href="Enemy_8hpp.html" target="_top" xlink:title="/mnt/hdd/C0de/Engines\l/SFML/SFML_Engine/include\l/Enemy.hpp">
<polygon fill="none" stroke="#000000" points="66,-234.5 66,-275.5 210,-275.5 210,-234.5 66,-234.5"/>
<text text-anchor="start" x="74" y="-263.5" font-family="Helvetica,sans-Serif" font-size="10.00" fill="#000000">/mnt/hdd/C0de/Engines</text>
<text text-anchor="start" x="74" y="-252.5" font-family="Helvetica,sans-Serif" font-size="10.00" fill="#000000">/SFML/SFML_Engine/include</text>
<text text-anchor="middle" x="138" y="-241.5" font-family="Helvetica,sans-Serif" font-size="10.00" fill="#000000">/Enemy.hpp</text>
</a>
</g>
</g>
<!-- Node10&#45;&gt;Node13 -->
<g id="edge33" class="edge">
<title>Node10&#45;&gt;Node13</title>
<path fill="none" stroke="#191970" d="M332.692,-482.9579C259.5211,-475.7599 160.184,-460.8824 134,-432 94.7753,-388.7331 115.9781,-312.1914 129.518,-275.6005"/>
<polygon fill="#191970" stroke="#191970" points="332.5461,-486.4597 342.8328,-483.9233 333.2095,-479.4913 332.5461,-486.4597"/>
</g>
<!-- Node10&#45;&gt;Node18 -->
<g id="edge36" class="edge">
<title>Node10&#45;&gt;Node18</title>
<path fill="none" stroke="#191970" d="M332.7585,-478.6402C256.4741,-468.1243 149.1646,-450.7583 111,-432 51.6744,-402.8409 0,-399.1043 0,-333 0,-333 0,-333 0,-255 0,-204.8801 13.2979,-185.2461 54,-156 93.191,-127.8397 222.0841,-111.9816 304.7133,-104.4801"/>
<polygon fill="#191970" stroke="#191970" points="332.4556,-482.1312 342.8369,-480.0147 333.4016,-475.1954 332.4556,-482.1312"/>
</g>
<!-- Node26 -->
<g id="node19" class="node">
<title>Node26</title>
<g id="a_node19"><a xlink:href="Main__Player_8hpp.html" target="_top" xlink:title="/mnt/hdd/C0de/Engines\l/SFML/SFML_Engine/include\l/Main_Player.hpp">
<polygon fill="none" stroke="#000000" points="374,-234.5 374,-275.5 518,-275.5 518,-234.5 374,-234.5"/>
<text text-anchor="start" x="382" y="-263.5" font-family="Helvetica,sans-Serif" font-size="10.00" fill="#000000">/mnt/hdd/C0de/Engines</text>
<text text-anchor="start" x="382" y="-252.5" font-family="Helvetica,sans-Serif" font-size="10.00" fill="#000000">/SFML/SFML_Engine/include</text>
<text text-anchor="middle" x="446" y="-241.5" font-family="Helvetica,sans-Serif" font-size="10.00" fill="#000000">/Main_Player.hpp</text>
</a>
</g>
</g>
<!-- Node10&#45;&gt;Node26 -->
<g id="edge35" class="edge">
<title>Node10&#45;&gt;Node26</title>
<path fill="none" stroke="#191970" d="M441.0358,-460.633C447.6141,-452.007 453.9522,-442.117 458,-432 477.8673,-382.3438 476.3906,-364.6523 467,-312 464.778,-299.5413 460.0248,-286.2382 455.6018,-275.6199"/>
<polygon fill="#191970" stroke="#191970" points="438.2627,-458.4963 434.7222,-468.4821 443.7172,-462.8838 438.2627,-458.4963"/>
</g>
<!-- Node30 -->
<g id="node23" class="node">
<title>Node30</title>
<g id="a_node23"><a xlink:href="GameWorld_8cpp.html" target="_top" xlink:title="/mnt/hdd/C0de/Engines\l/SFML/SFML_Engine/src\l/GameWorld.cpp">
<polygon fill="none" stroke="#000000" points="305.5,-390.5 305.5,-431.5 432.5,-431.5 432.5,-390.5 305.5,-390.5"/>
<text text-anchor="start" x="313.5" y="-419.5" font-family="Helvetica,sans-Serif" font-size="10.00" fill="#000000">/mnt/hdd/C0de/Engines</text>
<text text-anchor="start" x="313.5" y="-408.5" font-family="Helvetica,sans-Serif" font-size="10.00" fill="#000000">/SFML/SFML_Engine/src</text>
<text text-anchor="middle" x="369" y="-397.5" font-family="Helvetica,sans-Serif" font-size="10.00" fill="#000000">/GameWorld.cpp</text>
</a>
</g>
</g>
<!-- Node10&#45;&gt;Node30 -->
<g id="edge37" class="edge">
<title>Node10&#45;&gt;Node30</title>
<path fill="none" stroke="#191970" d="M397.444,-459.2312C392.0245,-450.0415 386.177,-440.1263 381.2017,-431.6898"/>
<polygon fill="#191970" stroke="#191970" points="394.5782,-461.2617 402.6728,-468.0974 400.6077,-457.7058 394.5782,-461.2617"/>
</g>
<!-- Node11&#45;&gt;Node12 -->
<g id="edge4" class="edge">
<title>Node11&#45;&gt;Node12</title>
<path fill="none" stroke="#191970" d="M263.767,-385.6411C283.765,-375.2422 306.6099,-363.3628 325.531,-353.5239"/>
<polygon fill="#191970" stroke="#191970" points="262.0609,-382.5834 254.8034,-390.3022 265.2904,-388.7939 262.0609,-382.5834"/>
</g>
<!-- Node11&#45;&gt;Node13 -->
<g id="edge28" class="edge">
<title>Node11&#45;&gt;Node13</title>
<path fill="none" stroke="#191970" d="M164.8591,-384.4599C154.0665,-376.2252 144.0837,-366.0727 138,-354 125.5473,-329.2884 128.7578,-296.5026 132.8554,-275.5724"/>
<polygon fill="#191970" stroke="#191970" points="163.0361,-387.4577 173.219,-390.3832 167.083,-381.7461 163.0361,-387.4577"/>
</g>
<!-- Node11&#45;&gt;Node14 -->
<g id="edge30" class="edge">
<title>Node11&#45;&gt;Node14</title>
<path fill="none" stroke="#191970" d="M297.4502,-389.7781C373.6645,-373.2026 398.6076,-383.4925 467,-354 561.5174,-313.2417 656.9443,-234.7743 699.31,-197.5553"/>
<polygon fill="#191970" stroke="#191970" points="296.3627,-386.4356 287.3824,-392.0575 297.9085,-393.2628 296.3627,-386.4356"/>
</g>
<!-- Node11&#45;&gt;Node18 -->
<g id="edge31" class="edge">
<title>Node11&#45;&gt;Node18</title>
<path fill="none" stroke="#191970" d="M163.4718,-385.2715C124.9202,-362.6153 75.7554,-325.5087 57,-276 48.2726,-252.9624 61.2782,-160.026 65,-156 96.631,-121.7834 222.8116,-107.8957 304.6962,-102.4127"/>
<polygon fill="#191970" stroke="#191970" points="162.0989,-388.5182 172.5179,-390.4408 165.572,-382.4405 162.0989,-388.5182"/>
</g>
<!-- Node11&#45;&gt;Node26 -->
<g id="edge29" class="edge">
<title>Node11&#45;&gt;Node26</title>
<path fill="none" stroke="#191970" d="M297.3263,-389.9393C366.2084,-376.3127 405.4598,-405.421 446,-354 463.4515,-331.8645 458.5433,-297.4605 452.7616,-275.5914"/>
<polygon fill="#191970" stroke="#191970" points="296.4015,-386.5596 287.4069,-392.1585 297.9298,-393.3907 296.4015,-386.5596"/>
</g>
<!-- Node29 -->
<g id="node22" class="node">
<title>Node29</title>
<g id="a_node22"><a xlink:href="Bullet_8cpp.html" target="_top" xlink:title="/mnt/hdd/C0de/Engines\l/SFML/SFML_Engine/src\l/Bullet.cpp">
<polygon fill="none" stroke="#000000" points="147.5,-312.5 147.5,-353.5 274.5,-353.5 274.5,-312.5 147.5,-312.5"/>
<text text-anchor="start" x="155.5" y="-341.5" font-family="Helvetica,sans-Serif" font-size="10.00" fill="#000000">/mnt/hdd/C0de/Engines</text>
<text text-anchor="start" x="155.5" y="-330.5" font-family="Helvetica,sans-Serif" font-size="10.00" fill="#000000">/SFML/SFML_Engine/src</text>
<text text-anchor="middle" x="211" y="-319.5" font-family="Helvetica,sans-Serif" font-size="10.00" fill="#000000">/Bullet.cpp</text>
</a>
</g>
</g>
<!-- Node11&#45;&gt;Node29 -->
<g id="edge32" class="edge">
<title>Node11&#45;&gt;Node29</title>
<path fill="none" stroke="#191970" d="M213.4143,-380.0789C212.9599,-371.2178 212.4756,-361.7747 212.061,-353.6898"/>
<polygon fill="#191970" stroke="#191970" points="209.9204,-380.2898 213.9281,-390.0974 216.9112,-379.9313 209.9204,-380.2898"/>
</g>
<!-- Node12&#45;&gt;Node13 -->
<g id="edge5" class="edge">
<title>Node12&#45;&gt;Node13</title>
<path fill="none" stroke="#191970" d="M295.5568,-309.1385C264.3444,-298.4135 227.8702,-285.8805 197.8805,-275.5757"/>
<polygon fill="#191970" stroke="#191970" points="294.4668,-312.4647 305.0615,-312.4044 296.7416,-305.8446 294.4668,-312.4647"/>
</g>
<!-- Node12&#45;&gt;Node26 -->
<g id="edge23" class="edge">
<title>Node12&#45;&gt;Node26</title>
<path fill="none" stroke="#191970" d="M394.1338,-304.9452C404.1639,-295.2866 415.2059,-284.6535 424.5144,-275.6898"/>
<polygon fill="#191970" stroke="#191970" points="391.482,-302.6399 386.7065,-312.0974 396.3375,-307.6821 391.482,-302.6399"/>
</g>
<!-- Node28 -->
<g id="node21" class="node">
<title>Node28</title>
<g id="a_node21"><a xlink:href="Gun_8cpp.html" target="_top" xlink:title="/mnt/hdd/C0de/Engines\l/SFML/SFML_Engine/src\l/Gun.cpp">
<polygon fill="none" stroke="#000000" points="228.5,-234.5 228.5,-275.5 355.5,-275.5 355.5,-234.5 228.5,-234.5"/>
<text text-anchor="start" x="236.5" y="-263.5" font-family="Helvetica,sans-Serif" font-size="10.00" fill="#000000">/mnt/hdd/C0de/Engines</text>
<text text-anchor="start" x="236.5" y="-252.5" font-family="Helvetica,sans-Serif" font-size="10.00" fill="#000000">/SFML/SFML_Engine/src</text>
<text text-anchor="middle" x="292" y="-241.5" font-family="Helvetica,sans-Serif" font-size="10.00" fill="#000000">/Gun.cpp</text>
</a>
</g>
</g>
<!-- Node12&#45;&gt;Node28 -->
<g id="edge27" class="edge">
<title>Node12&#45;&gt;Node28</title>
<path fill="none" stroke="#191970" d="M338.4775,-304.6609C329.5092,-295.0783 319.6704,-284.5657 311.3635,-275.6898"/>
<polygon fill="#191970" stroke="#191970" points="336.0487,-307.1878 345.4373,-312.0974 341.1596,-302.4046 336.0487,-307.1878"/>
</g>
<!-- Node13&#45;&gt;Node14 -->
<g id="edge6" class="edge">
<title>Node13&#45;&gt;Node14</title>
<path fill="none" stroke="#191970" d="M220.2263,-233.8918C378.4654,-205.1449 553.8128,-189.2881 649.8945,-181.9622"/>
<polygon fill="#191970" stroke="#191970" points="219.5129,-230.4642 210.3104,-235.7144 220.7784,-237.3489 219.5129,-230.4642"/>
</g>
<!-- Node25 -->
<g id="node18" class="node">
<title>Node25</title>
<g id="a_node18"><a xlink:href="Enemy_8cpp.html" target="_top" xlink:title="/mnt/hdd/C0de/Engines\l/SFML/SFML_Engine/src\l/Enemy.cpp">
<polygon fill="none" stroke="#000000" points="74.5,-156.5 74.5,-197.5 201.5,-197.5 201.5,-156.5 74.5,-156.5"/>
<text text-anchor="start" x="82.5" y="-185.5" font-family="Helvetica,sans-Serif" font-size="10.00" fill="#000000">/mnt/hdd/C0de/Engines</text>
<text text-anchor="start" x="82.5" y="-174.5" font-family="Helvetica,sans-Serif" font-size="10.00" fill="#000000">/SFML/SFML_Engine/src</text>
<text text-anchor="middle" x="138" y="-163.5" font-family="Helvetica,sans-Serif" font-size="10.00" fill="#000000">/Enemy.cpp</text>
</a>
</g>
</g>
<!-- Node13&#45;&gt;Node25 -->
<g id="edge22" class="edge">
<title>Node13&#45;&gt;Node25</title>
<path fill="none" stroke="#191970" d="M138,-224.0789C138,-215.2178 138,-205.7747 138,-197.6898"/>
<polygon fill="#191970" stroke="#191970" points="134.5001,-224.0974 138,-234.0974 141.5001,-224.0975 134.5001,-224.0974"/>
</g>
<!-- Node14&#45;&gt;Node15 -->
<g id="edge7" class="edge">
<title>Node14&#45;&gt;Node15</title>
<path fill="none" stroke="#191970" d="M764.8716,-151.0776C781.8448,-140.8148 801.0777,-129.1856 817.0567,-119.5239"/>
<polygon fill="#191970" stroke="#191970" points="762.9773,-148.1329 756.231,-156.3022 766.5993,-154.123 762.9773,-148.1329"/>
</g>
<!-- Node14&#45;&gt;Node18 -->
<g id="edge10" class="edge">
<title>Node14&#45;&gt;Node18</title>
<path fill="none" stroke="#191970" d="M639.8249,-156.8592C638.5413,-156.569 637.2657,-156.2824 636,-156 557.2242,-138.4233 536.6493,-138.1346 458,-120 455.1688,-119.3472 452.2856,-118.6682 449.3758,-117.9711"/>
<polygon fill="#191970" stroke="#191970" points="639.2584,-160.3201 649.7879,-159.1452 640.8239,-153.4974 639.2584,-160.3201"/>
</g>
<!-- Node14&#45;&gt;Node21 -->
<g id="edge15" class="edge">
<title>Node14&#45;&gt;Node21</title>
<path fill="none" stroke="#191970" d="M709.1621,-146.6559C705.343,-137.629 701.2483,-127.9505 697.7534,-119.6898"/>
<polygon fill="#191970" stroke="#191970" points="706.0368,-148.2515 713.1566,-156.0974 712.4835,-145.524 706.0368,-148.2515"/>
</g>
<!-- Node14&#45;&gt;Node23 -->
<g id="edge18" class="edge">
<title>Node14&#45;&gt;Node23</title>
<path fill="none" stroke="#191970" d="M804.0432,-157.549C857.7861,-144.8076 927.3667,-128.3112 978.968,-116.0775"/>
<polygon fill="#191970" stroke="#191970" points="803.1233,-154.17 794.2004,-159.8826 804.7382,-160.9812 803.1233,-154.17"/>
</g>
<!-- Node24 -->
<g id="node17" class="node">
<title>Node24</title>
<g id="a_node17"><a xlink:href="LoadingGameObjects_8cpp.html" target="_top" xlink:title="/mnt/hdd/C0de/Engines\l/SFML/SFML_Engine/src\l/LoadingGameObjects.cpp">
<polygon fill="none" stroke="#000000" points="467,-78.5 467,-119.5 599,-119.5 599,-78.5 467,-78.5"/>
<text text-anchor="start" x="475" y="-107.5" font-family="Helvetica,sans-Serif" font-size="10.00" fill="#000000">/mnt/hdd/C0de/Engines</text>
<text text-anchor="start" x="475" y="-96.5" font-family="Helvetica,sans-Serif" font-size="10.00" fill="#000000">/SFML/SFML_Engine/src</text>
<text text-anchor="middle" x="533" y="-85.5" font-family="Helvetica,sans-Serif" font-size="10.00" fill="#000000">/LoadingGameObjects.cpp</text>
</a>
</g>
</g>
<!-- Node14&#45;&gt;Node24 -->
<g id="edge21" class="edge">
<title>Node14&#45;&gt;Node24</title>
<path fill="none" stroke="#191970" d="M662.5886,-152.481C636.9157,-141.8858 607.2158,-129.6288 582.7309,-119.5239"/>
<polygon fill="#191970" stroke="#191970" points="661.2687,-155.7226 671.8477,-156.3022 663.9392,-149.252 661.2687,-155.7226"/>
</g>
<!-- Node16 -->
<g id="node9" class="node">
<title>Node16</title>
<g id="a_node9"><a xlink:href="GameOverState_8cpp.html" target="_top" xlink:title="/mnt/hdd/C0de/Engines\l/SFML/SFML_Engine/src\l/GameOverState.cpp">
<polygon fill="none" stroke="#000000" points="574.5,-.5 574.5,-41.5 701.5,-41.5 701.5,-.5 574.5,-.5"/>
<text text-anchor="start" x="582.5" y="-29.5" font-family="Helvetica,sans-Serif" font-size="10.00" fill="#000000">/mnt/hdd/C0de/Engines</text>
<text text-anchor="start" x="582.5" y="-18.5" font-family="Helvetica,sans-Serif" font-size="10.00" fill="#000000">/SFML/SFML_Engine/src</text>
<text text-anchor="middle" x="638" y="-7.5" font-family="Helvetica,sans-Serif" font-size="10.00" fill="#000000">/GameOverState.cpp</text>
</a>
</g>
</g>
<!-- Node15&#45;&gt;Node16 -->
<g id="edge8" class="edge">
<title>Node15&#45;&gt;Node16</title>
<path fill="none" stroke="#191970" d="M785.0811,-74.8607C755.9626,-64.1976 722.0849,-51.7917 694.1874,-41.5757"/>
<polygon fill="#191970" stroke="#191970" points="784.1644,-78.2522 794.7581,-78.4044 786.5715,-71.6791 784.1644,-78.2522"/>
</g>
<!-- Node15&#45;&gt;Node17 -->
<g id="edge9" class="edge">
<title>Node15&#45;&gt;Node17</title>
<path fill="none" stroke="#191970" d="M833.8257,-69.2312C828.5239,-60.0415 822.8036,-50.1263 817.9364,-41.6898"/>
<polygon fill="#191970" stroke="#191970" points="830.9119,-71.1846 838.9408,-78.0974 836.9752,-67.6865 830.9119,-71.1846"/>
</g>
<!-- Node18&#45;&gt;Node16 -->
<g id="edge12" class="edge">
<title>Node18&#45;&gt;Node16</title>
<path fill="none" stroke="#191970" d="M455.8791,-75.427C493.7013,-64.1238 538.4201,-50.7595 574.0798,-40.1026"/>
<polygon fill="#191970" stroke="#191970" points="454.4952,-72.1875 445.9161,-78.4044 456.4996,-78.8944 454.4952,-72.1875"/>
</g>
<!-- Node18&#45;&gt;Node17 -->
<g id="edge13" class="edge">
<title>Node18&#45;&gt;Node17</title>
<path fill="none" stroke="#191970" d="M459.2798,-77.8485C570.6809,-56.1062 601.8162,-61.5328 710,-42 720.4933,-40.1054 731.585,-37.8842 742.3574,-35.6088"/>
<polygon fill="#191970" stroke="#191970" points="458.4597,-74.4429 449.3308,-79.8201 459.8204,-81.3093 458.4597,-74.4429"/>
</g>
<!-- Node18&#45;&gt;Node19 -->
<g id="edge11" class="edge">
<title>Node18&#45;&gt;Node19</title>
<path fill="none" stroke="#191970" d="M459.3709,-77.9451C708.7464,-39.424 779.0004,-84.9786 1024,-42 1026.6932,-41.5275 1029.4291,-40.9913 1032.1825,-40.4049"/>
<polygon fill="#191970" stroke="#191970" points="458.6131,-74.5212 449.2794,-79.5344 459.7021,-81.436 458.6131,-74.5212"/>
</g>
<!-- Node20 -->
<g id="node13" class="node">
<title>Node20</title>
<g id="a_node13"><a xlink:href="MainMenuState_8cpp.html" target="_top" xlink:title="/mnt/hdd/C0de/Engines\l/SFML/SFML_Engine/src\l/MainMenuState.cpp">
<polygon fill="none" stroke="#000000" points="382.5,-.5 382.5,-41.5 509.5,-41.5 509.5,-.5 382.5,-.5"/>
<text text-anchor="start" x="390.5" y="-29.5" font-family="Helvetica,sans-Serif" font-size="10.00" fill="#000000">/mnt/hdd/C0de/Engines</text>
<text text-anchor="start" x="390.5" y="-18.5" font-family="Helvetica,sans-Serif" font-size="10.00" fill="#000000">/SFML/SFML_Engine/src</text>
<text text-anchor="middle" x="446" y="-7.5" font-family="Helvetica,sans-Serif" font-size="10.00" fill="#000000">/MainMenuState.cpp</text>
</a>
</g>
</g>
<!-- Node18&#45;&gt;Node20 -->
<g id="edge14" class="edge">
<title>Node18&#45;&gt;Node20</title>
<path fill="none" stroke="#191970" d="M402.3213,-70.376C410.7301,-60.8703 419.9235,-50.4778 427.6975,-41.6898"/>
<polygon fill="#191970" stroke="#191970" points="399.495,-68.2884 395.4907,-78.0974 404.738,-72.9265 399.495,-68.2884"/>
</g>
<!-- Node21&#45;&gt;Node20 -->
<g id="edge16" class="edge">
<title>Node21&#45;&gt;Node20</title>
<path fill="none" stroke="#191970" d="M615.0545,-75.2644C581.4096,-64.4648 541.9881,-51.811 509.6798,-41.4404"/>
<polygon fill="#191970" stroke="#191970" points="614.2455,-78.6806 624.8368,-78.4044 616.385,-72.0155 614.2455,-78.6806"/>
</g>
<!-- Node22 -->
<g id="node15" class="node">
<title>Node22</title>
<g id="a_node15"><a xlink:href="SplashState_8cpp.html" target="_top" xlink:title="/mnt/hdd/C0de/Engines\l/SFML/SFML_Engine/src\l/SplashState.cpp">
<polygon fill="none" stroke="#000000" points="887.5,-.5 887.5,-41.5 1014.5,-41.5 1014.5,-.5 887.5,-.5"/>
<text text-anchor="start" x="895.5" y="-29.5" font-family="Helvetica,sans-Serif" font-size="10.00" fill="#000000">/mnt/hdd/C0de/Engines</text>
<text text-anchor="start" x="895.5" y="-18.5" font-family="Helvetica,sans-Serif" font-size="10.00" fill="#000000">/SFML/SFML_Engine/src</text>
<text text-anchor="middle" x="951" y="-7.5" font-family="Helvetica,sans-Serif" font-size="10.00" fill="#000000">/SplashState.cpp</text>
</a>
</g>
</g>
<!-- Node21&#45;&gt;Node22 -->
<g id="edge17" class="edge">
<title>Node21&#45;&gt;Node22</title>
<path fill="none" stroke="#191970" d="M768.22,-75.4154C806.3362,-64.0679 851.4227,-50.6451 887.2792,-39.9703"/>
<polygon fill="#191970" stroke="#191970" points="766.7657,-72.1965 758.1801,-78.4044 768.7631,-78.9055 766.7657,-72.1965"/>
</g>
<!-- Node23&#45;&gt;Node19 -->
<g id="edge19" class="edge">
<title>Node23&#45;&gt;Node19</title>
<path fill="none" stroke="#191970" d="M1068.1743,-69.2312C1073.4761,-60.0415 1079.1964,-50.1263 1084.0636,-41.6898"/>
<polygon fill="#191970" stroke="#191970" points="1065.0248,-67.6865 1063.0592,-78.0974 1071.0881,-71.1846 1065.0248,-67.6865"/>
</g>
<!-- Node23&#45;&gt;Node22 -->
<g id="edge20" class="edge">
<title>Node23&#45;&gt;Node22</title>
<path fill="none" stroke="#191970" d="M1016.3108,-71.9424C1003.5178,-61.9639 989.2449,-50.831 977.3126,-41.5239"/>
<polygon fill="#191970" stroke="#191970" points="1014.4267,-74.9116 1024.4644,-78.3022 1018.732,-69.3921 1014.4267,-74.9116"/>
</g>
<!-- Node26&#45;&gt;Node14 -->
<g id="edge24" class="edge">
<title>Node26&#45;&gt;Node14</title>
<path fill="none" stroke="#191970" d="M527.8357,-231.8725C566.5518,-220.931 612.3791,-207.9798 649.7871,-197.408"/>
<polygon fill="#191970" stroke="#191970" points="526.8265,-228.5206 518.1552,-234.6083 528.7302,-235.2567 526.8265,-228.5206"/>
</g>
<!-- Node26&#45;&gt;Node18 -->
<g id="edge25" class="edge">
<title>Node26&#45;&gt;Node18</title>
<path fill="none" stroke="#191970" d="M443.8205,-224.0894C441.436,-203.8789 436.4447,-177.3651 426,-156 419.4089,-142.5177 408.8514,-129.6459 399.2212,-119.5569"/>
<polygon fill="#191970" stroke="#191970" points="440.3667,-224.719 444.8702,-234.3091 447.3301,-224.0038 440.3667,-224.719"/>
</g>
<!-- Node27 -->
<g id="node20" class="node">
<title>Node27</title>
<g id="a_node20"><a xlink:href="Main__Player_8cpp.html" target="_top" xlink:title="/mnt/hdd/C0de/Engines\l/SFML/SFML_Engine/src\l/Main_Player.cpp">
<polygon fill="none" stroke="#000000" points="290.5,-156.5 290.5,-197.5 417.5,-197.5 417.5,-156.5 290.5,-156.5"/>
<text text-anchor="start" x="298.5" y="-185.5" font-family="Helvetica,sans-Serif" font-size="10.00" fill="#000000">/mnt/hdd/C0de/Engines</text>
<text text-anchor="start" x="298.5" y="-174.5" font-family="Helvetica,sans-Serif" font-size="10.00" fill="#000000">/SFML/SFML_Engine/src</text>
<text text-anchor="middle" x="354" y="-163.5" font-family="Helvetica,sans-Serif" font-size="10.00" fill="#000000">/Main_Player.cpp</text>
</a>
</g>
</g>
<!-- Node26&#45;&gt;Node27 -->
<g id="edge26" class="edge">
<title>Node26&#45;&gt;Node27</title>
<path fill="none" stroke="#191970" d="M413.5785,-227.5122C402.0102,-217.7043 389.1833,-206.8293 378.4034,-197.6898"/>
<polygon fill="#191970" stroke="#191970" points="411.4547,-230.3002 421.3457,-234.0974 415.9815,-224.9609 411.4547,-230.3002"/>
</g>
<!-- Node32&#45;&gt;Node18 -->
<g id="edge43" class="edge">
<title>Node32&#45;&gt;Node18</title>
<path fill="none" stroke="#191970" d="M666.5691,-461.7954C656.859,-453.3096 647.417,-443.2011 641,-432 618.7287,-393.1246 622,-377.803 622,-333 622,-333 622,-333 622,-255 622,-209.7255 629.7914,-188.2349 598,-156 552.8867,-110.2573 520.2063,-136.0617 458,-120 455.1868,-119.2736 452.3187,-118.5326 449.4216,-117.7836"/>
<polygon fill="#191970" stroke="#191970" points="664.4254,-464.5644 674.3612,-468.2428 668.8879,-459.1712 664.4254,-464.5644"/>
</g>
<!-- Node33 -->
<g id="node26" class="node">
<title>Node33</title>
<g id="a_node26"><a xlink:href="HUD_8cpp.html" target="_top" xlink:title="/mnt/hdd/C0de/Engines\l/SFML/SFML_Engine/src\l/HUD.cpp">
<polygon fill="none" stroke="#000000" points="650.5,-390.5 650.5,-431.5 777.5,-431.5 777.5,-390.5 650.5,-390.5"/>
<text text-anchor="start" x="658.5" y="-419.5" font-family="Helvetica,sans-Serif" font-size="10.00" fill="#000000">/mnt/hdd/C0de/Engines</text>
<text text-anchor="start" x="658.5" y="-408.5" font-family="Helvetica,sans-Serif" font-size="10.00" fill="#000000">/SFML/SFML_Engine/src</text>
<text text-anchor="middle" x="714" y="-397.5" font-family="Helvetica,sans-Serif" font-size="10.00" fill="#000000">/HUD.cpp</text>
</a>
</g>
</g>
<!-- Node32&#45;&gt;Node33 -->
<g id="edge44" class="edge">
<title>Node32&#45;&gt;Node33</title>
<path fill="none" stroke="#191970" d="M709.1714,-458.0789C710.0802,-449.2178 711.0487,-439.7747 711.878,-431.6898"/>
<polygon fill="#191970" stroke="#191970" points="705.6825,-457.7925 708.1439,-468.0974 712.646,-458.5067 705.6825,-457.7925"/>
</g>
</g>
</svg>
        <g id="navigator" transform="translate(0 0)" fill="#404254">
                <rect fill="#f2f5e9" fill-opacity="0.5" stroke="#606060" stroke-width=".5" x="0" y="0" width="60" height="60"/>
                <use id="zoomplus" xlink:href="#zoomPlus" x="17" y="9" onmousedown="handleZoom(evt,'in')"/>
                <use id="zoomminus" xlink:href="#zoomMin" x="42" y="9" onmousedown="handleZoom(evt,'out')"/>
                <use id="reset" xlink:href="#resetDef" x="30" y="36" onmousedown="handleReset()"/>
                <g id="arrowUp" xlink:href="#dirArrow" transform="translate(30 24)" onmousedown="handlePan(0,-1)">
                  <use xlink:href="#rim" fill="#404040">
                        <set attributeName="fill" to="#808080" begin="arrowUp.mouseover" end="arrowUp.mouseout"/>
                  </use>
                  <path fill="none" stroke="white" stroke-width="1.5" d="M0,-3.0v7 M-2.5,-0.5L0,-3.0L2.5,-0.5"/>
                </g>
                <g id="arrowRight" xlink:href="#dirArrow" transform="rotate(90) translate(36 -43)" onmousedown="handlePan(1,0)">
                  <use xlink:href="#rim" fill="#404040">
                        <set attributeName="fill" to="#808080" begin="arrowRight.mouseover" end="arrowRight.mouseout"/>
                  </use>
                  <path fill="none" stroke="white" stroke-width="1.5" d="M0,-3.0v7 M-2.5,-0.5L0,-3.0L2.5,-0.5"/>
                </g>
                <g id="arrowDown" xlink:href="#dirArrow" transform="rotate(180) translate(-30 -48)" onmousedown="handlePan(0,1)">
                  <use xlink:href="#rim" fill="#404040">
                        <set attributeName="fill" to="#808080" begin="arrowDown.mouseover" end="arrowDown.mouseout"/>
                  </use>
                  <path fill="none" stroke="white" stroke-width="1.5" d="M0,-3.0v7 M-2.5,-0.5L0,-3.0L2.5,-0.5"/>
                </g>
                <g id="arrowLeft" xlink:href="#dirArrow" transform="rotate(270) translate(-36 17)" onmousedown="handlePan(-1,0)">
                  <use xlink:href="#rim" fill="#404040">
                        <set attributeName="fill" to="#808080" begin="arrowLeft.mouseover" end="arrowLeft.mouseout"/>
                  </use>
                  <path fill="none" stroke="white" stroke-width="1.5" d="M0,-3.0v7 M-2.5,-0.5L0,-3.0L2.5,-0.5"/>
                </g>
        </g>
        <svg viewBox="0 0 15 15" width="100%" height="30px" preserveAspectRatio="xMaxYMin meet">
         <g id="arrow_out" transform="scale(0.3 0.3)">
          <a xlink:href="entity__manager_8h__dep__incl_org.svg" target="_base">
           <rect id="button" ry="5" rx="5" y="6" x="6" height="38" width="38"
                fill="#f2f5e9" fill-opacity="0.5" stroke="#606060" stroke-width="1.0"/>
           <path id="arrow"
             d="M 11.500037,31.436501 C 11.940474,20.09759 22.043105,11.32322 32.158766,21.979434 L 37.068811,17.246167 C 37.068811,17.246167 37.088388,32 37.088388,32 L 22.160133,31.978069 C 22.160133,31.978069 26.997745,27.140456 26.997745,27.140456 C 18.528582,18.264221 13.291696,25.230495 11.500037,31.436501 z"
             style="fill:#404040;"/>
          </a>
         </g>
        </svg>
</svg>
