<?xml version="1.0" encoding="UTF-8" standalone="no"?>
<!DOCTYPE svg PUBLIC "-//W3C//DTD SVG 1.1//EN"
 "http://www.w3.org/Graphics/SVG/1.1/DTD/svg11.dtd">
<!-- Generated by graphviz version 2.40.1 (20161225.0304)
 -->
<!-- Title: /mnt/hdd/C0de/Engines/SFML/SFML_Engine/src/entity_manager.cpp Pages: 1 -->
<svg width="393pt" height="218pt"
 viewBox="0.00 0.00 392.50 218.00" xmlns="http://www.w3.org/2000/svg" xmlns:xlink="http://www.w3.org/1999/xlink">
<g id="graph0" class="graph" transform="scale(1 1) rotate(0) translate(4 214)">
<title>/mnt/hdd/C0de/Engines/SFML/SFML_Engine/src/entity_manager.cpp</title>
<!-- Node0 -->
<g id="node1" class="node">
<title>Node0</title>
<polygon fill="#bfbfbf" stroke="#000000" points="163,-168.5 163,-209.5 290,-209.5 290,-168.5 163,-168.5"/>
<text text-anchor="start" x="171" y="-197.5" font-family="Helvetica,sans-Serif" font-size="10.00" fill="#000000">/mnt/hdd/C0de/Engines</text>
<text text-anchor="start" x="171" y="-186.5" font-family="Helvetica,sans-Serif" font-size="10.00" fill="#000000">/SFML/SFML_Engine/src</text>
<text text-anchor="middle" x="226.5" y="-175.5" font-family="Helvetica,sans-Serif" font-size="10.00" fill="#000000">/entity_manager.cpp</text>
</g>
<!-- Node1 -->
<g id="node2" class="node">
<title>Node1</title>
<g id="a_node2"><a xlink:href="entity__manager_8h.html" target="_top" xlink:title="../include/entity_manager.h">
<polygon fill="none" stroke="#000000" points="106.5,-112.5 106.5,-131.5 240.5,-131.5 240.5,-112.5 106.5,-112.5"/>
<text text-anchor="middle" x="173.5" y="-119.5" font-family="Helvetica,sans-Serif" font-size="10.00" fill="#000000">../include/entity_manager.h</text>
</a>
</g>
</g>
<!-- Node0&#45;&gt;Node1 -->
<g id="edge1" class="edge">
<title>Node0&#45;&gt;Node1</title>
<path fill="none" stroke="#191970" d="M210.021,-168.168C202.8192,-159.0639 194.4594,-148.4959 187.5568,-139.7699"/>
<polygon fill="#191970" stroke="#191970" points="190.1859,-137.4519 181.2368,-131.7805 184.6959,-141.7947 190.1859,-137.4519"/>
</g>
<!-- Node8 -->
<g id="node9" class="node">
<title>Node8</title>
<polygon fill="none" stroke="#bfbfbf" points="330.5,-.5 330.5,-19.5 384.5,-19.5 384.5,-.5 330.5,-.5"/>
<text text-anchor="middle" x="357.5" y="-7.5" font-family="Helvetica,sans-Serif" font-size="10.00" fill="#000000">iostream</text>
</g>
<!-- Node0&#45;&gt;Node8 -->
<g id="edge10" class="edge">
<title>Node0&#45;&gt;Node8</title>
<path fill="none" stroke="#191970" d="M241.5274,-168.4664C267.3282,-133.2119 319.64,-61.7324 344.2001,-28.1731"/>
<polygon fill="#191970" stroke="#191970" points="347.2649,-29.9117 350.3463,-19.7749 341.6161,-25.7776 347.2649,-29.9117"/>
</g>
<!-- Node2 -->
<g id="node3" class="node">
<title>Node2</title>
<polygon fill="none" stroke="#bfbfbf" points="0,-56.5 0,-75.5 83,-75.5 83,-56.5 0,-56.5"/>
<text text-anchor="middle" x="41.5" y="-63.5" font-family="Helvetica,sans-Serif" font-size="10.00" fill="#000000">unordered_map</text>
</g>
<!-- Node1&#45;&gt;Node2 -->
<g id="edge2" class="edge">
<title>Node1&#45;&gt;Node2</title>
<path fill="none" stroke="#191970" d="M150.8084,-112.3733C129.4289,-103.3032 97.1943,-89.6279 73.2638,-79.4755"/>
<polygon fill="#191970" stroke="#191970" points="74.4683,-76.1846 63.8955,-75.5011 71.7344,-82.6287 74.4683,-76.1846"/>
</g>
<!-- Node3 -->
<g id="node4" class="node">
<title>Node3</title>
<polygon fill="none" stroke="#bfbfbf" points="101.5,-56.5 101.5,-75.5 145.5,-75.5 145.5,-56.5 101.5,-56.5"/>
<text text-anchor="middle" x="123.5" y="-63.5" font-family="Helvetica,sans-Serif" font-size="10.00" fill="#000000">vector</text>
</g>
<!-- Node1&#45;&gt;Node3 -->
<g id="edge3" class="edge">
<title>Node1&#45;&gt;Node3</title>
<path fill="none" stroke="#191970" d="M164.7907,-112.2455C157.6927,-104.2958 147.4916,-92.8706 139.005,-83.3656"/>
<polygon fill="#191970" stroke="#191970" points="141.3805,-80.771 132.1095,-75.6427 136.1589,-85.4331 141.3805,-80.771"/>
</g>
<!-- Node4 -->
<g id="node5" class="node">
<title>Node4</title>
<polygon fill="none" stroke="#bfbfbf" points="50.5,-.5 50.5,-19.5 130.5,-19.5 130.5,-.5 50.5,-.5"/>
<text text-anchor="middle" x="90.5" y="-7.5" font-family="Helvetica,sans-Serif" font-size="10.00" fill="#000000">box2d/box2d.h</text>
</g>
<!-- Node1&#45;&gt;Node4 -->
<g id="edge4" class="edge">
<title>Node1&#45;&gt;Node4</title>
<path fill="none" stroke="#191970" d="M172.6886,-112.184C171.1367,-98.4799 166.7272,-73.3482 154.5,-56 145.429,-43.1299 131.5819,-32.5359 119.0851,-24.772"/>
<polygon fill="#191970" stroke="#191970" points="120.7083,-21.6665 110.3117,-19.6268 117.1672,-27.7048 120.7083,-21.6665"/>
</g>
<!-- Node5 -->
<g id="node6" class="node">
<title>Node5</title>
<g id="a_node6"><a xlink:href="entity_8h.html" target="_top" xlink:title="entity.h">
<polygon fill="none" stroke="#000000" points="202,-56.5 202,-75.5 251,-75.5 251,-56.5 202,-56.5"/>
<text text-anchor="middle" x="226.5" y="-63.5" font-family="Helvetica,sans-Serif" font-size="10.00" fill="#000000">entity.h</text>
</a>
</g>
</g>
<!-- Node1&#45;&gt;Node5 -->
<g id="edge5" class="edge">
<title>Node1&#45;&gt;Node5</title>
<path fill="none" stroke="#191970" d="M182.7319,-112.2455C190.3317,-104.2155 201.2877,-92.6394 210.3368,-83.0781"/>
<polygon fill="#191970" stroke="#191970" points="213.0421,-85.3115 217.3739,-75.6427 207.958,-80.4998 213.0421,-85.3115"/>
</g>
<!-- Node5&#45;&gt;Node4 -->
<g id="edge8" class="edge">
<title>Node5&#45;&gt;Node4</title>
<path fill="none" stroke="#191970" d="M203.1208,-56.3733C180.9955,-47.2629 147.5866,-33.5062 122.8981,-23.3404"/>
<polygon fill="#191970" stroke="#191970" points="124.1536,-20.0723 113.5742,-19.5011 121.4883,-26.5451 124.1536,-20.0723"/>
</g>
<!-- Node6 -->
<g id="node7" class="node">
<title>Node6</title>
<polygon fill="none" stroke="#bfbfbf" points="148.5,-.5 148.5,-19.5 252.5,-19.5 252.5,-.5 148.5,-.5"/>
<text text-anchor="middle" x="200.5" y="-7.5" font-family="Helvetica,sans-Serif" font-size="10.00" fill="#000000">SFML/Graphics.hpp</text>
</g>
<!-- Node5&#45;&gt;Node6 -->
<g id="edge6" class="edge">
<title>Node5&#45;&gt;Node6</title>
<path fill="none" stroke="#191970" d="M221.9711,-56.2455C218.4666,-48.6973 213.5073,-38.0158 209.2377,-28.8197"/>
<polygon fill="#191970" stroke="#191970" points="212.3627,-27.2389 204.977,-19.6427 206.0136,-30.1867 212.3627,-27.2389"/>
</g>
<!-- Node7 -->
<g id="node8" class="node">
<title>Node7</title>
<polygon fill="none" stroke="#bfbfbf" points="271,-.5 271,-19.5 312,-19.5 312,-.5 271,-.5"/>
<text text-anchor="middle" x="291.5" y="-7.5" font-family="Helvetica,sans-Serif" font-size="10.00" fill="#000000">string</text>
</g>
<!-- Node5&#45;&gt;Node7 -->
<g id="edge7" class="edge">
<title>Node5&#45;&gt;Node7</title>
<path fill="none" stroke="#191970" d="M237.8221,-56.2455C247.4223,-47.9746 261.3892,-35.9416 272.6695,-26.2232"/>
<polygon fill="#191970" stroke="#191970" points="275.016,-28.8214 280.3076,-19.6427 270.447,-23.5182 275.016,-28.8214"/>
</g>
<!-- Node5&#45;&gt;Node8 -->
<g id="edge9" class="edge">
<title>Node5&#45;&gt;Node8</title>
<path fill="none" stroke="#191970" d="M249.0197,-56.3733C270.2372,-47.3032 302.2276,-33.6279 325.9769,-23.4755"/>
<polygon fill="#191970" stroke="#191970" points="327.4548,-26.6502 335.2742,-19.5011 324.7033,-20.2136 327.4548,-26.6502"/>
</g>
</g>
</svg>
