<?xml version="1.0" encoding="UTF-8" standalone="no"?>
<!DOCTYPE svg PUBLIC "-//W3C//DTD SVG 1.1//EN"
 "http://www.w3.org/Graphics/SVG/1.1/DTD/svg11.dtd">
<!-- Generated by graphviz version 2.40.1 (20161225.0304)
 -->
<!-- Title: /mnt/hdd/C0de/Engines/SFML/SFML_Engine/include/entity.h Pages: 1 -->
<svg width="342pt" height="106pt"
 viewBox="0.00 0.00 342.00 106.00" xmlns="http://www.w3.org/2000/svg" xmlns:xlink="http://www.w3.org/1999/xlink">
<g id="graph0" class="graph" transform="scale(1 1) rotate(0) translate(4 102)">
<title>/mnt/hdd/C0de/Engines/SFML/SFML_Engine/include/entity.h</title>
<!-- Node0 -->
<g id="node1" class="node">
<title>Node0</title>
<polygon fill="#bfbfbf" stroke="#000000" points="110,-56.5 110,-97.5 254,-97.5 254,-56.5 110,-56.5"/>
<text text-anchor="start" x="118" y="-85.5" font-family="Helvetica,sans-Serif" font-size="10.00" fill="#000000">/mnt/hdd/C0de/Engines</text>
<text text-anchor="start" x="118" y="-74.5" font-family="Helvetica,sans-Serif" font-size="10.00" fill="#000000">/SFML/SFML_Engine/include</text>
<text text-anchor="middle" x="182" y="-63.5" font-family="Helvetica,sans-Serif" font-size="10.00" fill="#000000">/entity.h</text>
</g>
<!-- Node1 -->
<g id="node2" class="node">
<title>Node1</title>
<polygon fill="none" stroke="#bfbfbf" points="0,-.5 0,-19.5 104,-19.5 104,-.5 0,-.5"/>
<text text-anchor="middle" x="52" y="-7.5" font-family="Helvetica,sans-Serif" font-size="10.00" fill="#000000">SFML/Graphics.hpp</text>
</g>
<!-- Node0&#45;&gt;Node1 -->
<g id="edge1" class="edge">
<title>Node0&#45;&gt;Node1</title>
<path fill="none" stroke="#191970" d="M141.935,-56.3511C121.7325,-45.9391 97.7422,-33.5748 79.6222,-24.2361"/>
<polygon fill="#191970" stroke="#191970" points="81.2252,-21.1248 70.7329,-19.6546 78.0184,-27.347 81.2252,-21.1248"/>
</g>
<!-- Node2 -->
<g id="node3" class="node">
<title>Node2</title>
<polygon fill="none" stroke="#bfbfbf" points="122.5,-.5 122.5,-19.5 163.5,-19.5 163.5,-.5 122.5,-.5"/>
<text text-anchor="middle" x="143" y="-7.5" font-family="Helvetica,sans-Serif" font-size="10.00" fill="#000000">string</text>
</g>
<!-- Node0&#45;&gt;Node2 -->
<g id="edge2" class="edge">
<title>Node0&#45;&gt;Node2</title>
<path fill="none" stroke="#191970" d="M169.8739,-56.168C164.7401,-47.3484 158.8066,-37.155 153.823,-28.5933"/>
<polygon fill="#191970" stroke="#191970" points="156.7487,-26.6622 148.6931,-19.7805 150.699,-30.1837 156.7487,-26.6622"/>
</g>
<!-- Node3 -->
<g id="node4" class="node">
<title>Node3</title>
<polygon fill="none" stroke="#bfbfbf" points="182,-.5 182,-19.5 262,-19.5 262,-.5 182,-.5"/>
<text text-anchor="middle" x="222" y="-7.5" font-family="Helvetica,sans-Serif" font-size="10.00" fill="#000000">box2d/box2d.h</text>
</g>
<!-- Node0&#45;&gt;Node3 -->
<g id="edge3" class="edge">
<title>Node0&#45;&gt;Node3</title>
<path fill="none" stroke="#191970" d="M194.437,-56.168C199.7024,-47.3484 205.7881,-37.155 210.8995,-28.5933"/>
<polygon fill="#191970" stroke="#191970" points="214.0399,-30.1609 216.1609,-19.7805 208.0296,-26.5725 214.0399,-30.1609"/>
</g>
<!-- Node4 -->
<g id="node5" class="node">
<title>Node4</title>
<polygon fill="none" stroke="#bfbfbf" points="280,-.5 280,-19.5 334,-19.5 334,-.5 280,-.5"/>
<text text-anchor="middle" x="307" y="-7.5" font-family="Helvetica,sans-Serif" font-size="10.00" fill="#000000">iostream</text>
</g>
<!-- Node0&#45;&gt;Node4 -->
<g id="edge4" class="edge">
<title>Node0&#45;&gt;Node4</title>
<path fill="none" stroke="#191970" d="M220.5241,-56.3511C239.7713,-46.0346 262.5941,-33.8015 279.9592,-24.4939"/>
<polygon fill="#191970" stroke="#191970" points="281.8273,-27.4637 288.9876,-19.6546 278.5204,-21.294 281.8273,-27.4637"/>
</g>
</g>
</svg>
