<?xml version="1.0" encoding="UTF-8" standalone="no"?>
<!DOCTYPE svg PUBLIC "-//W3C//DTD SVG 1.1//EN"
 "http://www.w3.org/Graphics/SVG/1.1/DTD/svg11.dtd">
<!-- Generated by graphviz version 2.40.1 (20161225.0304)
 -->
<!-- Title: /mnt/hdd/C0de/Engines/SFML/SFML_Engine/src/GameState.cpp Pages: 1 -->
<svg width="2858pt" height="610pt"
 viewBox="0.00 0.00 2858.41 610.00" xmlns="http://www.w3.org/2000/svg" xmlns:xlink="http://www.w3.org/1999/xlink">
<g id="graph0" class="graph" transform="scale(1 1) rotate(0) translate(4 606)">
<title>/mnt/hdd/C0de/Engines/SFML/SFML_Engine/src/GameState.cpp</title>
<!-- Node0 -->
<g id="node1" class="node">
<title>Node0</title>
<polygon fill="#bfbfbf" stroke="#000000" points="1862.9148,-560.5 1862.9148,-601.5 1989.9148,-601.5 1989.9148,-560.5 1862.9148,-560.5"/>
<text text-anchor="start" x="1870.9148" y="-589.5" font-family="Helvetica,sans-Serif" font-size="10.00" fill="#000000">/mnt/hdd/C0de/Engines</text>
<text text-anchor="start" x="1870.9148" y="-578.5" font-family="Helvetica,sans-Serif" font-size="10.00" fill="#000000">/SFML/SFML_Engine/src</text>
<text text-anchor="middle" x="1926.4148" y="-567.5" font-family="Helvetica,sans-Serif" font-size="10.00" fill="#000000">/GameState.cpp</text>
</g>
<!-- Node1 -->
<g id="node2" class="node">
<title>Node1</title>
<polygon fill="none" stroke="#bfbfbf" points="1480.4148,-504.5 1480.4148,-523.5 1532.4148,-523.5 1532.4148,-504.5 1480.4148,-504.5"/>
<text text-anchor="middle" x="1506.4148" y="-511.5" font-family="Helvetica,sans-Serif" font-size="10.00" fill="#000000">sstream</text>
</g>
<!-- Node0&#45;&gt;Node1 -->
<g id="edge1" class="edge">
<title>Node0&#45;&gt;Node1</title>
<path fill="none" stroke="#191970" d="M1862.8891,-573.3682C1787.1682,-563.8343 1656.976,-546.0592 1546.4148,-524 1545.1512,-523.7479 1543.8676,-523.4818 1542.5729,-523.2049"/>
<polygon fill="#191970" stroke="#191970" points="1543.1115,-519.7379 1532.5834,-520.9249 1541.5538,-526.5624 1543.1115,-519.7379"/>
</g>
<!-- Node2 -->
<g id="node3" class="node">
<title>Node2</title>
<g id="a_node3"><a xlink:href="DEFINITIONS_8hpp.html" target="_top" xlink:title="../include/DEFINITIONS.hpp">
<polygon fill="none" stroke="#000000" points="2076.9148,-168.5 2076.9148,-187.5 2219.9148,-187.5 2219.9148,-168.5 2076.9148,-168.5"/>
<text text-anchor="middle" x="2148.4148" y="-175.5" font-family="Helvetica,sans-Serif" font-size="10.00" fill="#000000">../include/DEFINITIONS.hpp</text>
</a>
</g>
</g>
<!-- Node0&#45;&gt;Node2 -->
<g id="edge2" class="edge">
<title>Node0&#45;&gt;Node2</title>
<path fill="none" stroke="#191970" d="M1937.729,-560.4611C1976.1369,-490.7386 2101.1894,-263.729 2138.0806,-196.7598"/>
<polygon fill="#191970" stroke="#191970" points="2141.2819,-198.2021 2143.0414,-187.7544 2135.1507,-194.8246 2141.2819,-198.2021"/>
</g>
<!-- Node3 -->
<g id="node4" class="node">
<title>Node3</title>
<g id="a_node4"><a xlink:href="GameState_8hpp.html" target="_top" xlink:title="../include/GameState.hpp">
<polygon fill="none" stroke="#000000" points="1816.4148,-504.5 1816.4148,-523.5 1944.4148,-523.5 1944.4148,-504.5 1816.4148,-504.5"/>
<text text-anchor="middle" x="1880.4148" y="-511.5" font-family="Helvetica,sans-Serif" font-size="10.00" fill="#000000">../include/GameState.hpp</text>
</a>
</g>
</g>
<!-- Node0&#45;&gt;Node3 -->
<g id="edge3" class="edge">
<title>Node0&#45;&gt;Node3</title>
<path fill="none" stroke="#191970" d="M1912.1122,-560.168C1905.9267,-551.1587 1898.757,-540.7159 1892.8027,-532.0432"/>
<polygon fill="#191970" stroke="#191970" points="1895.6752,-530.0435 1887.1297,-523.7805 1889.9044,-534.0055 1895.6752,-530.0435"/>
</g>
<!-- Node8 -->
<g id="node9" class="node">
<title>Node8</title>
<g id="a_node9"><a xlink:href="Game_8hpp.html" target="_top" xlink:title="Game.hpp">
<polygon fill="none" stroke="#000000" points="1874.4148,-168.5 1874.4148,-187.5 1936.4148,-187.5 1936.4148,-168.5 1874.4148,-168.5"/>
<text text-anchor="middle" x="1905.4148" y="-175.5" font-family="Helvetica,sans-Serif" font-size="10.00" fill="#000000">Game.hpp</text>
</a>
</g>
</g>
<!-- Node0&#45;&gt;Node8 -->
<g id="edge94" class="edge">
<title>Node0&#45;&gt;Node8</title>
<path fill="none" stroke="#191970" d="M1862.6624,-572.9128C1757.801,-557.8098 1560.4148,-521.0119 1560.4148,-458 1560.4148,-458 1560.4148,-458 1560.4148,-346 1560.4148,-252.6402 1646.9106,-263.6875 1731.4148,-224 1774.5314,-203.7502 1828.0016,-191.3052 1864.2033,-184.5506"/>
<polygon fill="#191970" stroke="#191970" points="1865.1717,-187.9325 1874.3926,-182.7146 1863.9304,-181.0435 1865.1717,-187.9325"/>
</g>
<!-- Node21 -->
<g id="node22" class="node">
<title>Node21</title>
<polygon fill="none" stroke="#bfbfbf" points="2690.4148,-.5 2690.4148,-19.5 2744.4148,-19.5 2744.4148,-.5 2690.4148,-.5"/>
<text text-anchor="middle" x="2717.4148" y="-7.5" font-family="Helvetica,sans-Serif" font-size="10.00" fill="#000000">iostream</text>
</g>
<!-- Node0&#45;&gt;Node21 -->
<g id="edge95" class="edge">
<title>Node0&#45;&gt;Node21</title>
<path fill="none" stroke="#191970" d="M1989.925,-579.2392C2198.6829,-572.6188 2850.4148,-544.9846 2850.4148,-458 2850.4148,-458 2850.4148,-458 2850.4148,-122 2850.4148,-71.4912 2793.599,-39.1621 2754.2364,-22.8251"/>
<polygon fill="#191970" stroke="#191970" points="2755.2359,-19.4561 2744.6502,-19.0148 2752.6503,-25.9611 2755.2359,-19.4561"/>
</g>
<!-- Node47 -->
<g id="node48" class="node">
<title>Node47</title>
<g id="a_node48"><a xlink:href="GameOverState_8hpp.html" target="_top" xlink:title="../include/GameOverState.hpp">
<polygon fill="none" stroke="#000000" points="2131.9148,-504.5 2131.9148,-523.5 2280.9148,-523.5 2280.9148,-504.5 2131.9148,-504.5"/>
<text text-anchor="middle" x="2206.4148" y="-511.5" font-family="Helvetica,sans-Serif" font-size="10.00" fill="#000000">../include/GameOverState.hpp</text>
</a>
</g>
</g>
<!-- Node0&#45;&gt;Node47 -->
<g id="edge87" class="edge">
<title>Node0&#45;&gt;Node47</title>
<path fill="none" stroke="#191970" d="M1989.9511,-565.7967C2040.459,-553.7108 2110.1204,-537.0419 2156.635,-525.9116"/>
<polygon fill="#191970" stroke="#191970" points="2157.5726,-529.2861 2166.4835,-523.555 2155.9436,-522.4783 2157.5726,-529.2861"/>
</g>
<!-- Node4 -->
<g id="node5" class="node">
<title>Node4</title>
<polygon fill="none" stroke="#bfbfbf" points="1929.4148,-.5 1929.4148,-19.5 2033.4148,-19.5 2033.4148,-.5 1929.4148,-.5"/>
<text text-anchor="middle" x="1981.4148" y="-7.5" font-family="Helvetica,sans-Serif" font-size="10.00" fill="#000000">SFML/Graphics.hpp</text>
</g>
<!-- Node3&#45;&gt;Node4 -->
<g id="edge4" class="edge">
<title>Node3&#45;&gt;Node4</title>
<path fill="none" stroke="#191970" d="M1816.3643,-506.253C1755.8925,-494.9415 1674.4148,-467.5399 1674.4148,-402 1674.4148,-402 1674.4148,-402 1674.4148,-178 1674.4148,-140.7428 1756.1248,-72.7295 1789.4148,-56 1830.0401,-35.5841 1880.1135,-23.9752 1918.9368,-17.5278"/>
<polygon fill="#191970" stroke="#191970" points="1919.7331,-20.9453 1929.0605,-15.9204 1918.6354,-14.0319 1919.7331,-20.9453"/>
</g>
<!-- Node5 -->
<g id="node6" class="node">
<title>Node5</title>
<polygon fill="none" stroke="#bfbfbf" points="1778.9148,-448.5 1778.9148,-467.5 1867.9148,-467.5 1867.9148,-448.5 1778.9148,-448.5"/>
<text text-anchor="middle" x="1823.4148" y="-455.5" font-family="Helvetica,sans-Serif" font-size="10.00" fill="#000000">SFML/Audio.hpp</text>
</g>
<!-- Node3&#45;&gt;Node5 -->
<g id="edge5" class="edge">
<title>Node3&#45;&gt;Node5</title>
<path fill="none" stroke="#191970" d="M1870.4861,-504.2455C1862.231,-496.1352 1850.2938,-484.4075 1840.5065,-474.7919"/>
<polygon fill="#191970" stroke="#191970" points="1842.8159,-472.1542 1833.2296,-467.6427 1837.9101,-477.1476 1842.8159,-472.1542"/>
</g>
<!-- Node6 -->
<g id="node7" class="node">
<title>Node6</title>
<polygon fill="none" stroke="#bfbfbf" points="2038.9148,-448.5 2038.9148,-467.5 2139.9148,-467.5 2139.9148,-448.5 2038.9148,-448.5"/>
<text text-anchor="middle" x="2089.4148" y="-455.5" font-family="Helvetica,sans-Serif" font-size="10.00" fill="#000000">SFML/Network.hpp</text>
</g>
<!-- Node3&#45;&gt;Node6 -->
<g id="edge6" class="edge">
<title>Node3&#45;&gt;Node6</title>
<path fill="none" stroke="#191970" d="M1916.3431,-504.3733C1951.6985,-494.9001 2005.8028,-480.4032 2044.0935,-470.1435"/>
<polygon fill="#191970" stroke="#191970" points="2045.2018,-473.4701 2053.9552,-467.5011 2043.3901,-466.7086 2045.2018,-473.4701"/>
</g>
<!-- Node7 -->
<g id="node8" class="node">
<title>Node7</title>
<g id="a_node8"><a xlink:href="State_8hpp.html" target="_top" xlink:title="State.hpp">
<polygon fill="none" stroke="#000000" points="2141.9148,-56.5 2141.9148,-75.5 2200.9148,-75.5 2200.9148,-56.5 2141.9148,-56.5"/>
<text text-anchor="middle" x="2171.4148" y="-63.5" font-family="Helvetica,sans-Serif" font-size="10.00" fill="#000000">State.hpp</text>
</a>
</g>
</g>
<!-- Node3&#45;&gt;Node7 -->
<g id="edge7" class="edge">
<title>Node3&#45;&gt;Node7</title>
<path fill="none" stroke="#191970" d="M1882.7466,-504.4964C1894.137,-459.988 1948.0334,-270.0334 2061.4148,-168 2093.7452,-138.9054 2123.1774,-164.2014 2152.4148,-132 2163.7989,-119.4618 2168.3995,-100.5205 2170.2394,-86.1406"/>
<polygon fill="#191970" stroke="#191970" points="2173.7603,-86.0763 2171.2,-75.7955 2166.7903,-85.429 2173.7603,-86.0763"/>
</g>
<!-- Node3&#45;&gt;Node8 -->
<g id="edge8" class="edge">
<title>Node3&#45;&gt;Node8</title>
<path fill="none" stroke="#191970" d="M1824.5612,-504.4367C1803.6406,-497.8472 1781.9295,-486.7332 1769.4148,-468 1764.477,-460.6087 1767.3597,-456.6481 1769.4148,-448 1793.7819,-345.4576 1863.6044,-237.652 1892.576,-195.9368"/>
<polygon fill="#191970" stroke="#191970" points="1895.523,-197.8306 1898.4111,-187.637 1889.7966,-193.8047 1895.523,-197.8306"/>
</g>
<!-- Node22 -->
<g id="node23" class="node">
<title>Node22</title>
<g id="a_node23"><a xlink:href="GameWorld_8hpp.html" target="_top" xlink:title="GameWorld.hpp">
<polygon fill="none" stroke="#000000" points="2279.9148,-224.5 2279.9148,-243.5 2366.9148,-243.5 2366.9148,-224.5 2279.9148,-224.5"/>
<text text-anchor="middle" x="2323.4148" y="-231.5" font-family="Helvetica,sans-Serif" font-size="10.00" fill="#000000">GameWorld.hpp</text>
</a>
</g>
</g>
<!-- Node3&#45;&gt;Node22 -->
<g id="edge30" class="edge">
<title>Node3&#45;&gt;Node22</title>
<path fill="none" stroke="#191970" d="M1894.1943,-504.286C1912.6185,-491.3301 1946.3339,-467.7346 1975.4148,-448 2049.9759,-397.4021 2067.6709,-383.2216 2144.4148,-336 2197.4593,-303.3609 2261.1591,-267.9322 2296.4774,-248.6095"/>
<polygon fill="#191970" stroke="#191970" points="2298.5521,-251.4646 2305.6539,-243.6024 2295.1992,-245.3199 2298.5521,-251.4646"/>
</g>
<!-- Node23 -->
<g id="node24" class="node">
<title>Node23</title>
<g id="a_node24"><a xlink:href="Bullet_8hpp.html" target="_top" xlink:title="Bullet.hpp">
<polygon fill="none" stroke="#000000" points="2596.4148,-280.5 2596.4148,-299.5 2656.4148,-299.5 2656.4148,-280.5 2596.4148,-280.5"/>
<text text-anchor="middle" x="2626.4148" y="-287.5" font-family="Helvetica,sans-Serif" font-size="10.00" fill="#000000">Bullet.hpp</text>
</a>
</g>
</g>
<!-- Node3&#45;&gt;Node23 -->
<g id="edge36" class="edge">
<title>Node3&#45;&gt;Node23</title>
<path fill="none" stroke="#191970" d="M1944.4215,-511.312C2095.0602,-503.9272 2466.9886,-479.2108 2569.4148,-412 2596.344,-394.3294 2602.0929,-385.3251 2615.4148,-356 2622.0211,-341.4577 2624.7041,-323.4969 2625.7725,-309.9851"/>
<polygon fill="#191970" stroke="#191970" points="2629.2751,-310.0346 2626.3409,-299.8543 2622.2861,-309.6425 2629.2751,-310.0346"/>
</g>
<!-- Node24 -->
<g id="node25" class="node">
<title>Node24</title>
<g id="a_node25"><a xlink:href="Main__Player_8hpp.html" target="_top" xlink:title="Main_Player.hpp">
<polygon fill="none" stroke="#000000" points="2190.9148,-392.5 2190.9148,-411.5 2279.9148,-411.5 2279.9148,-392.5 2190.9148,-392.5"/>
<text text-anchor="middle" x="2235.4148" y="-399.5" font-family="Helvetica,sans-Serif" font-size="10.00" fill="#000000">Main_Player.hpp</text>
</a>
</g>
</g>
<!-- Node3&#45;&gt;Node24 -->
<g id="edge39" class="edge">
<title>Node3&#45;&gt;Node24</title>
<path fill="none" stroke="#191970" d="M1898.7643,-504.4518C1926.433,-490.3842 1980.7787,-464.0278 2029.4148,-448 2079.5727,-431.4707 2138.5428,-418.9736 2180.5073,-411.2073"/>
<polygon fill="#191970" stroke="#191970" points="2181.3149,-414.6179 2190.5262,-409.3831 2180.0609,-407.7311 2181.3149,-414.6179"/>
</g>
<!-- Node29 -->
<g id="node30" class="node">
<title>Node29</title>
<g id="a_node30"><a xlink:href="HUD_8hpp.html" target="_top" xlink:title="HUD.hpp">
<polygon fill="none" stroke="#000000" points="1740.4148,-224.5 1740.4148,-243.5 1798.4148,-243.5 1798.4148,-224.5 1740.4148,-224.5"/>
<text text-anchor="middle" x="1769.4148" y="-231.5" font-family="Helvetica,sans-Serif" font-size="10.00" fill="#000000">HUD.hpp</text>
</a>
</g>
</g>
<!-- Node3&#45;&gt;Node29 -->
<g id="edge50" class="edge">
<title>Node3&#45;&gt;Node29</title>
<path fill="none" stroke="#191970" d="M1836.63,-504.4953C1799.8163,-495.7161 1750.9368,-481.9585 1736.4148,-468 1713.9118,-446.3704 1712.4148,-433.2125 1712.4148,-402 1712.4148,-402 1712.4148,-402 1712.4148,-346 1712.4148,-309.1826 1737.1823,-272.2377 1754.0648,-251.3313"/>
<polygon fill="#191970" stroke="#191970" points="1756.7658,-253.5574 1760.5085,-243.6456 1751.4017,-249.06 1756.7658,-253.5574"/>
</g>
<!-- Node30 -->
<g id="node31" class="node">
<title>Node30</title>
<polygon fill="none" stroke="#bfbfbf" points="16.4148,-56.5 16.4148,-75.5 102.4148,-75.5 102.4148,-56.5 16.4148,-56.5"/>
<text text-anchor="middle" x="59.4148" y="-63.5" font-family="Helvetica,sans-Serif" font-size="10.00" fill="#000000">tmxlite/Map.hpp</text>
</g>
<!-- Node3&#45;&gt;Node30 -->
<g id="edge54" class="edge">
<title>Node3&#45;&gt;Node30</title>
<path fill="none" stroke="#191970" d="M1816.3213,-507.4913C1755.2208,-500.2727 1668.4895,-487.072 1640.4148,-468 1611.6543,-448.4622 1598.4148,-436.7691 1598.4148,-402 1598.4148,-402 1598.4148,-402 1598.4148,-346 1598.4148,-307.3941 383.5392,-116.3592 112.5681,-74.2301"/>
<polygon fill="#191970" stroke="#191970" points="113.0068,-70.7563 102.588,-72.6794 111.932,-77.6733 113.0068,-70.7563"/>
</g>
<!-- Node31 -->
<g id="node32" class="node">
<title>Node31</title>
<g id="a_node32"><a xlink:href="SFMLOrthogonalLayer_8hpp.html" target="_top" xlink:title="SFMLOrthogonalLayer.hpp">
<polygon fill="none" stroke="#000000" points="913.9148,-112.5 913.9148,-131.5 1046.9148,-131.5 1046.9148,-112.5 913.9148,-112.5"/>
<text text-anchor="middle" x="980.4148" y="-119.5" font-family="Helvetica,sans-Serif" font-size="10.00" fill="#000000">SFMLOrthogonalLayer.hpp</text>
</a>
</g>
</g>
<!-- Node3&#45;&gt;Node31 -->
<g id="edge55" class="edge">
<title>Node3&#45;&gt;Node31</title>
<path fill="none" stroke="#191970" d="M1816.1903,-507.5179C1759.8326,-500.6134 1683.3784,-487.9011 1660.4148,-468 1636.8274,-447.5584 1636.4148,-433.2125 1636.4148,-402 1636.4148,-402 1636.4148,-402 1636.4148,-234 1636.4148,-175.8023 1230.0509,-139.8351 1056.9854,-127.1561"/>
<polygon fill="#191970" stroke="#191970" points="1057.1527,-123.6591 1046.9256,-126.4261 1056.6461,-130.6407 1057.1527,-123.6591"/>
</g>
<!-- Node44 -->
<g id="node45" class="node">
<title>Node44</title>
<g id="a_node45"><a xlink:href="LoadingGameObjects_8hpp.html" target="_top" xlink:title="LoadingGameObjects.hpp">
<polygon fill="none" stroke="#000000" points="2234.9148,-448.5 2234.9148,-467.5 2363.9148,-467.5 2363.9148,-448.5 2234.9148,-448.5"/>
<text text-anchor="middle" x="2299.4148" y="-455.5" font-family="Helvetica,sans-Serif" font-size="10.00" fill="#000000">LoadingGameObjects.hpp</text>
</a>
</g>
</g>
<!-- Node3&#45;&gt;Node44 -->
<g id="edge74" class="edge">
<title>Node3&#45;&gt;Node44</title>
<path fill="none" stroke="#191970" d="M1944.5079,-505.4338C2019.9145,-495.3556 2144.9145,-478.6492 2224.6629,-467.9907"/>
<polygon fill="#191970" stroke="#191970" points="2225.1915,-471.4513 2234.6396,-466.6573 2224.2641,-464.513 2225.1915,-471.4513"/>
</g>
<!-- Node8&#45;&gt;Node4 -->
<g id="edge11" class="edge">
<title>Node8&#45;&gt;Node4</title>
<path fill="none" stroke="#191970" d="M1922.7317,-168.4701C1935.5497,-160.4648 1952.3055,-147.8065 1961.4148,-132 1980.0019,-99.7472 1982.5837,-55.1991 1982.3157,-29.8195"/>
<polygon fill="#191970" stroke="#191970" points="1985.809,-29.5219 1982.0393,-19.6204 1978.8116,-29.7116 1985.809,-29.5219"/>
</g>
<!-- Node9 -->
<g id="node10" class="node">
<title>Node9</title>
<polygon fill="none" stroke="#bfbfbf" points="2009.4148,-56.5 2009.4148,-75.5 2061.4148,-75.5 2061.4148,-56.5 2009.4148,-56.5"/>
<text text-anchor="middle" x="2035.4148" y="-63.5" font-family="Helvetica,sans-Serif" font-size="10.00" fill="#000000">memory</text>
</g>
<!-- Node8&#45;&gt;Node9 -->
<g id="edge9" class="edge">
<title>Node8&#45;&gt;Node9</title>
<path fill="none" stroke="#191970" d="M1933.4367,-168.3671C1952.5564,-160.7459 1977.555,-148.612 1995.4148,-132 2009.6249,-118.7827 2020.56,-99.3937 2027.377,-85.0481"/>
<polygon fill="#191970" stroke="#191970" points="2030.6922,-86.2098 2031.601,-75.654 2024.3078,-83.3391 2030.6922,-86.2098"/>
</g>
<!-- Node10 -->
<g id="node11" class="node">
<title>Node10</title>
<polygon fill="none" stroke="#bfbfbf" points="109.9148,-.5 109.9148,-19.5 150.9148,-19.5 150.9148,-.5 109.9148,-.5"/>
<text text-anchor="middle" x="130.4148" y="-7.5" font-family="Helvetica,sans-Serif" font-size="10.00" fill="#000000">string</text>
</g>
<!-- Node8&#45;&gt;Node10 -->
<g id="edge10" class="edge">
<title>Node8&#45;&gt;Node10</title>
<path fill="none" stroke="#191970" d="M1874.0767,-177.5346C1632.5012,-173.7989 74.1057,-146.9843 7.4148,-76 -23.1434,-43.4746 53.9122,-23.5907 99.5692,-14.9918"/>
<polygon fill="#191970" stroke="#191970" points="100.379,-18.4024 109.6013,-13.1871 99.1396,-11.513 100.379,-18.4024"/>
</g>
<!-- Node11 -->
<g id="node12" class="node">
<title>Node11</title>
<g id="a_node12"><a xlink:href="StateMachine_8hpp.html" target="_top" xlink:title="StateMachine.hpp">
<polygon fill="none" stroke="#000000" points="2047.9148,-112.5 2047.9148,-131.5 2142.9148,-131.5 2142.9148,-112.5 2047.9148,-112.5"/>
<text text-anchor="middle" x="2095.4148" y="-119.5" font-family="Helvetica,sans-Serif" font-size="10.00" fill="#000000">StateMachine.hpp</text>
</a>
</g>
</g>
<!-- Node8&#45;&gt;Node11 -->
<g id="edge12" class="edge">
<title>Node8&#45;&gt;Node11</title>
<path fill="none" stroke="#191970" d="M1936.7894,-168.7527C1968.5427,-159.3939 2017.8473,-144.862 2053.0553,-134.4849"/>
<polygon fill="#191970" stroke="#191970" points="2054.4367,-137.7267 2063.0392,-131.5423 2052.4576,-131.0122 2054.4367,-137.7267"/>
</g>
<!-- Node13 -->
<g id="node14" class="node">
<title>Node13</title>
<g id="a_node14"><a xlink:href="AssetManager_8hpp.html" target="_top" xlink:title="AssetManager.hpp">
<polygon fill="none" stroke="#000000" points="1741.4148,-112.5 1741.4148,-131.5 1839.4148,-131.5 1839.4148,-112.5 1741.4148,-112.5"/>
<text text-anchor="middle" x="1790.4148" y="-119.5" font-family="Helvetica,sans-Serif" font-size="10.00" fill="#000000">AssetManager.hpp</text>
</a>
</g>
</g>
<!-- Node8&#45;&gt;Node13 -->
<g id="edge16" class="edge">
<title>Node8&#45;&gt;Node13</title>
<path fill="none" stroke="#191970" d="M1885.6456,-168.3733C1867.2678,-159.4241 1839.6835,-145.9917 1818.9255,-135.8835"/>
<polygon fill="#191970" stroke="#191970" points="1820.449,-132.7325 1809.926,-131.5011 1817.3843,-139.026 1820.449,-132.7325"/>
</g>
<!-- Node15 -->
<g id="node16" class="node">
<title>Node15</title>
<g id="a_node16"><a xlink:href="InputManager_8hpp.html" target="_top" xlink:title="InputManager.hpp">
<polygon fill="none" stroke="#000000" points="1857.9148,-112.5 1857.9148,-131.5 1952.9148,-131.5 1952.9148,-112.5 1857.9148,-112.5"/>
<text text-anchor="middle" x="1905.4148" y="-119.5" font-family="Helvetica,sans-Serif" font-size="10.00" fill="#000000">InputManager.hpp</text>
</a>
</g>
</g>
<!-- Node8&#45;&gt;Node15 -->
<g id="edge19" class="edge">
<title>Node8&#45;&gt;Node15</title>
<path fill="none" stroke="#191970" d="M1905.4148,-168.2455C1905.4148,-160.9382 1905.4148,-150.6944 1905.4148,-141.7046"/>
<polygon fill="#191970" stroke="#191970" points="1908.9149,-141.6426 1905.4148,-131.6427 1901.9149,-141.6427 1908.9149,-141.6426"/>
</g>
<!-- Node16 -->
<g id="node17" class="node">
<title>Node16</title>
<g id="a_node17"><a xlink:href="entity__manager_8h.html" target="_top" xlink:title="entity_manager.h">
<polygon fill="none" stroke="#000000" points="2352.4148,-112.5 2352.4148,-131.5 2444.4148,-131.5 2444.4148,-112.5 2352.4148,-112.5"/>
<text text-anchor="middle" x="2398.4148" y="-119.5" font-family="Helvetica,sans-Serif" font-size="10.00" fill="#000000">entity_manager.h</text>
</a>
</g>
</g>
<!-- Node8&#45;&gt;Node16 -->
<g id="edge21" class="edge">
<title>Node8&#45;&gt;Node16</title>
<path fill="none" stroke="#191970" d="M1936.6281,-174.4545C2018.0528,-165.2054 2237.8102,-140.2431 2342.0624,-128.4011"/>
<polygon fill="#191970" stroke="#191970" points="2342.5424,-131.8692 2352.0835,-127.2628 2341.7523,-124.9139 2342.5424,-131.8692"/>
</g>
<!-- Node11&#45;&gt;Node7 -->
<g id="edge15" class="edge">
<title>Node11&#45;&gt;Node7</title>
<path fill="none" stroke="#191970" d="M2108.653,-112.2455C2120.0957,-103.814 2136.8444,-91.4729 2150.1622,-81.6598"/>
<polygon fill="#191970" stroke="#191970" points="2152.3539,-84.3924 2158.3283,-75.6427 2148.2015,-78.757 2152.3539,-84.3924"/>
</g>
<!-- Node11&#45;&gt;Node9 -->
<g id="edge13" class="edge">
<title>Node11&#45;&gt;Node9</title>
<path fill="none" stroke="#191970" d="M2084.9636,-112.2455C2076.1879,-104.0549 2063.4593,-92.1749 2053.1008,-82.5069"/>
<polygon fill="#191970" stroke="#191970" points="2055.4449,-79.9072 2045.7462,-75.6427 2050.6687,-85.0246 2055.4449,-79.9072"/>
</g>
<!-- Node12 -->
<g id="node13" class="node">
<title>Node12</title>
<polygon fill="none" stroke="#bfbfbf" points="2079.9148,-56.5 2079.9148,-75.5 2120.9148,-75.5 2120.9148,-56.5 2079.9148,-56.5"/>
<text text-anchor="middle" x="2100.4148" y="-63.5" font-family="Helvetica,sans-Serif" font-size="10.00" fill="#000000">stack</text>
</g>
<!-- Node11&#45;&gt;Node12 -->
<g id="edge14" class="edge">
<title>Node11&#45;&gt;Node12</title>
<path fill="none" stroke="#191970" d="M2096.2857,-112.2455C2096.9381,-104.9382 2097.8528,-94.6944 2098.6554,-85.7046"/>
<polygon fill="#191970" stroke="#191970" points="2102.1505,-85.9143 2099.5538,-75.6427 2095.1783,-85.2918 2102.1505,-85.9143"/>
</g>
<!-- Node13&#45;&gt;Node4 -->
<g id="edge18" class="edge">
<title>Node13&#45;&gt;Node4</title>
<path fill="none" stroke="#191970" d="M1812.4045,-112.4961C1831.9771,-103.7702 1861.1764,-90.0916 1885.4148,-76 1912.2833,-60.3793 1941.485,-39.7314 1960.5381,-25.7197"/>
<polygon fill="#191970" stroke="#191970" points="1962.8308,-28.3768 1968.7773,-19.6081 1958.6605,-22.7547 1962.8308,-28.3768"/>
</g>
<!-- Node14 -->
<g id="node15" class="node">
<title>Node14</title>
<polygon fill="none" stroke="#bfbfbf" points="1841.9148,-56.5 1841.9148,-75.5 1876.9148,-75.5 1876.9148,-56.5 1841.9148,-56.5"/>
<text text-anchor="middle" x="1859.4148" y="-63.5" font-family="Helvetica,sans-Serif" font-size="10.00" fill="#000000">map</text>
</g>
<!-- Node13&#45;&gt;Node14 -->
<g id="edge17" class="edge">
<title>Node13&#45;&gt;Node14</title>
<path fill="none" stroke="#191970" d="M1802.4336,-112.2455C1812.6246,-103.9746 1827.451,-91.9416 1839.4254,-82.2232"/>
<polygon fill="#191970" stroke="#191970" points="1841.9746,-84.662 1847.5336,-75.6427 1837.5634,-79.2268 1841.9746,-84.662"/>
</g>
<!-- Node15&#45;&gt;Node4 -->
<g id="edge20" class="edge">
<title>Node15&#45;&gt;Node4</title>
<path fill="none" stroke="#191970" d="M1911.8945,-112.4509C1924.5704,-93.7707 1952.8308,-52.1238 1969.1488,-28.0761"/>
<polygon fill="#191970" stroke="#191970" points="1972.2326,-29.7649 1974.9514,-19.5249 1966.4402,-25.8344 1972.2326,-29.7649"/>
</g>
<!-- Node17 -->
<g id="node18" class="node">
<title>Node17</title>
<polygon fill="none" stroke="#bfbfbf" points="2472.9148,-56.5 2472.9148,-75.5 2555.9148,-75.5 2555.9148,-56.5 2472.9148,-56.5"/>
<text text-anchor="middle" x="2514.4148" y="-63.5" font-family="Helvetica,sans-Serif" font-size="10.00" fill="#000000">unordered_map</text>
</g>
<!-- Node16&#45;&gt;Node17 -->
<g id="edge22" class="edge">
<title>Node16&#45;&gt;Node17</title>
<path fill="none" stroke="#191970" d="M2418.3559,-112.3733C2436.8934,-103.4241 2464.7176,-89.9917 2485.6561,-79.8835"/>
<polygon fill="#191970" stroke="#191970" points="2487.25,-83.0006 2494.7339,-75.5011 2484.2067,-76.6967 2487.25,-83.0006"/>
</g>
<!-- Node18 -->
<g id="node19" class="node">
<title>Node18</title>
<polygon fill="none" stroke="#bfbfbf" points="2304.4148,-56.5 2304.4148,-75.5 2348.4148,-75.5 2348.4148,-56.5 2304.4148,-56.5"/>
<text text-anchor="middle" x="2326.4148" y="-63.5" font-family="Helvetica,sans-Serif" font-size="10.00" fill="#000000">vector</text>
</g>
<!-- Node16&#45;&gt;Node18 -->
<g id="edge23" class="edge">
<title>Node16&#45;&gt;Node18</title>
<path fill="none" stroke="#191970" d="M2385.8733,-112.2455C2375.136,-103.8943 2359.4674,-91.7076 2346.9101,-81.9408"/>
<polygon fill="#191970" stroke="#191970" points="2348.8548,-79.0194 2338.8125,-75.6427 2344.5572,-84.5449 2348.8548,-79.0194"/>
</g>
<!-- Node19 -->
<g id="node20" class="node">
<title>Node19</title>
<polygon fill="none" stroke="#bfbfbf" points="2447.4148,-.5 2447.4148,-19.5 2527.4148,-19.5 2527.4148,-.5 2447.4148,-.5"/>
<text text-anchor="middle" x="2487.4148" y="-7.5" font-family="Helvetica,sans-Serif" font-size="10.00" fill="#000000">box2d/box2d.h</text>
</g>
<!-- Node16&#45;&gt;Node19 -->
<g id="edge24" class="edge">
<title>Node16&#45;&gt;Node19</title>
<path fill="none" stroke="#191970" d="M2444.6908,-115.5863C2488.8607,-108.4044 2550.7902,-95.1975 2565.4148,-76 2581.6174,-54.7309 2551.7005,-35.6276 2524.3559,-23.5131"/>
<polygon fill="#191970" stroke="#191970" points="2525.4459,-20.1747 2514.8709,-19.5274 2522.7341,-26.6281 2525.4459,-20.1747"/>
</g>
<!-- Node20 -->
<g id="node21" class="node">
<title>Node20</title>
<g id="a_node21"><a xlink:href="entity_8h.html" target="_top" xlink:title="entity.h">
<polygon fill="none" stroke="#000000" points="2366.9148,-56.5 2366.9148,-75.5 2415.9148,-75.5 2415.9148,-56.5 2366.9148,-56.5"/>
<text text-anchor="middle" x="2391.4148" y="-63.5" font-family="Helvetica,sans-Serif" font-size="10.00" fill="#000000">entity.h</text>
</a>
</g>
</g>
<!-- Node16&#45;&gt;Node20 -->
<g id="edge25" class="edge">
<title>Node16&#45;&gt;Node20</title>
<path fill="none" stroke="#191970" d="M2397.1955,-112.2455C2396.282,-104.9382 2395.0016,-94.6944 2393.8778,-85.7046"/>
<polygon fill="#191970" stroke="#191970" points="2397.3335,-85.1313 2392.6201,-75.6427 2390.3876,-85.9996 2397.3335,-85.1313"/>
</g>
<!-- Node20&#45;&gt;Node4 -->
<g id="edge26" class="edge">
<title>Node20&#45;&gt;Node4</title>
<path fill="none" stroke="#191970" d="M2366.6514,-58.2055C2363.5603,-57.384 2360.4274,-56.6229 2357.4148,-56 2248.236,-33.4255 2118.7708,-20.577 2043.7647,-14.4727"/>
<polygon fill="#191970" stroke="#191970" points="2043.7974,-10.9643 2033.5502,-13.6558 2043.2393,-17.942 2043.7974,-10.9643"/>
</g>
<!-- Node20&#45;&gt;Node10 -->
<g id="edge27" class="edge">
<title>Node20&#45;&gt;Node10</title>
<path fill="none" stroke="#191970" d="M2366.7051,-57.9083C2363.6047,-57.1378 2360.4551,-56.4699 2357.4148,-56 2130.8796,-20.9855 413.6543,-11.3713 161.3329,-10.1426"/>
<polygon fill="#191970" stroke="#191970" points="161.0774,-6.6414 151.0607,-10.0933 161.0437,-13.6414 161.0774,-6.6414"/>
</g>
<!-- Node20&#45;&gt;Node19 -->
<g id="edge28" class="edge">
<title>Node20&#45;&gt;Node19</title>
<path fill="none" stroke="#191970" d="M2408.1367,-56.2455C2423.0037,-47.5731 2444.9613,-34.7645 2462.0005,-24.825"/>
<polygon fill="#191970" stroke="#191970" points="2464.0102,-27.7047 2470.8845,-19.6427 2460.4831,-21.6582 2464.0102,-27.7047"/>
</g>
<!-- Node20&#45;&gt;Node21 -->
<g id="edge29" class="edge">
<title>Node20&#45;&gt;Node21</title>
<path fill="none" stroke="#191970" d="M2416.0923,-59.3071C2420.8281,-58.1265 2425.7611,-56.9674 2430.4148,-56 2519.5309,-37.4742 2625.5467,-22.218 2680.406,-14.8211"/>
<polygon fill="#191970" stroke="#191970" points="2680.9095,-18.285 2690.3572,-13.49 2679.9814,-11.3468 2680.9095,-18.285"/>
</g>
<!-- Node22&#45;&gt;Node2 -->
<g id="edge32" class="edge">
<title>Node22&#45;&gt;Node2</title>
<path fill="none" stroke="#191970" d="M2293.3312,-224.3733C2264.2313,-215.0613 2219.9625,-200.8953 2188.0117,-190.671"/>
<polygon fill="#191970" stroke="#191970" points="2188.6968,-187.2155 2178.1058,-187.5011 2186.5633,-193.8824 2188.6968,-187.2155"/>
</g>
<!-- Node22&#45;&gt;Node4 -->
<g id="edge31" class="edge">
<title>Node22&#45;&gt;Node4</title>
<path fill="none" stroke="#191970" d="M2322.7433,-224.3913C2320.0822,-194.189 2307.5317,-100.5435 2252.4148,-56 2221.1068,-30.698 2113.3736,-18.7672 2043.5394,-13.5724"/>
<polygon fill="#191970" stroke="#191970" points="2043.7494,-10.0786 2033.5246,-12.8541 2043.2485,-17.0607 2043.7494,-10.0786"/>
</g>
<!-- Node22&#45;&gt;Node8 -->
<g id="edge33" class="edge">
<title>Node22&#45;&gt;Node8</title>
<path fill="none" stroke="#191970" d="M2279.8644,-228.1655C2198.8169,-217.3075 2025.8865,-194.1398 1946.6363,-183.5225"/>
<polygon fill="#191970" stroke="#191970" points="1946.9214,-180.0295 1936.5451,-182.1706 1945.9918,-186.9675 1946.9214,-180.0295"/>
</g>
<!-- Node22&#45;&gt;Node16 -->
<g id="edge34" class="edge">
<title>Node22&#45;&gt;Node16</title>
<path fill="none" stroke="#191970" d="M2329.8092,-224.4509C2342.3183,-205.7707 2370.2069,-164.1238 2386.3102,-140.0761"/>
<polygon fill="#191970" stroke="#191970" points="2389.3805,-141.7814 2392.0365,-131.5249 2383.5642,-137.8865 2389.3805,-141.7814"/>
</g>
<!-- Node22&#45;&gt;Node18 -->
<g id="edge35" class="edge">
<title>Node22&#45;&gt;Node18</title>
<path fill="none" stroke="#191970" d="M2323.5847,-224.4862C2324.0589,-197.9293 2325.4047,-122.5651 2326.0547,-86.1655"/>
<polygon fill="#191970" stroke="#191970" points="2329.5601,-85.8888 2326.2393,-75.8279 2322.5612,-85.7638 2329.5601,-85.8888"/>
</g>
<!-- Node23&#45;&gt;Node21 -->
<g id="edge38" class="edge">
<title>Node23&#45;&gt;Node21</title>
<path fill="none" stroke="#191970" d="M2639.5062,-280.3833C2650.2359,-271.8877 2665.1174,-258.6051 2674.4148,-244 2718.3023,-175.0575 2720.0358,-72.9034 2718.5595,-30.0586"/>
<polygon fill="#191970" stroke="#191970" points="2722.046,-29.6745 2718.1025,-19.8409 2715.0529,-29.9874 2722.046,-29.6745"/>
</g>
<!-- Node23&#45;&gt;Node22 -->
<g id="edge37" class="edge">
<title>Node23&#45;&gt;Node22</title>
<path fill="none" stroke="#191970" d="M2596.2542,-284.4258C2545.103,-274.9721 2440.6944,-255.6755 2376.9037,-243.8858"/>
<polygon fill="#191970" stroke="#191970" points="2377.4984,-240.4365 2367.0289,-242.0607 2376.2262,-247.3199 2377.4984,-240.4365"/>
</g>
<!-- Node24&#45;&gt;Node21 -->
<g id="edge46" class="edge">
<title>Node24&#45;&gt;Node21</title>
<path fill="none" stroke="#191970" d="M2279.9156,-393.4123C2282.7887,-392.9171 2285.6406,-392.4416 2288.4148,-392 2458.7427,-364.8859 2578.2012,-448.7971 2665.4148,-300 2707.8812,-227.547 2625.4105,-193.3121 2646.4148,-112 2655.2445,-77.8182 2681.7923,-45.6621 2699.8017,-26.9063"/>
<polygon fill="#191970" stroke="#191970" points="2702.3683,-29.2887 2706.9207,-19.7217 2697.3959,-24.3617 2702.3683,-29.2887"/>
</g>
<!-- Node24&#45;&gt;Node22 -->
<g id="edge40" class="edge">
<title>Node24&#45;&gt;Node22</title>
<path fill="none" stroke="#191970" d="M2245.7247,-392.2025C2254.5341,-383.3915 2267.0713,-369.7535 2275.4148,-356 2295.8791,-322.2665 2310.6379,-278.2784 2318.0347,-253.3907"/>
<polygon fill="#191970" stroke="#191970" points="2321.4237,-254.27 2320.8295,-243.6918 2314.6974,-252.3317 2321.4237,-254.27"/>
</g>
<!-- Node24&#45;&gt;Node23 -->
<g id="edge41" class="edge">
<title>Node24&#45;&gt;Node23</title>
<path fill="none" stroke="#191970" d="M2254.3656,-392.309C2282.9444,-378.0594 2339.0906,-351.4734 2389.4148,-336 2457.1578,-315.1707 2538.8093,-301.7886 2586.4404,-295.1031"/>
<polygon fill="#191970" stroke="#191970" points="2586.9269,-298.5693 2596.3568,-293.7394 2585.9731,-291.6345 2586.9269,-298.5693"/>
</g>
<!-- Node25 -->
<g id="node26" class="node">
<title>Node25</title>
<g id="a_node26"><a xlink:href="Gun_8hpp.html" target="_top" xlink:title="Gun.hpp">
<polygon fill="none" stroke="#000000" points="2502.9148,-336.5 2502.9148,-355.5 2555.9148,-355.5 2555.9148,-336.5 2502.9148,-336.5"/>
<text text-anchor="middle" x="2529.4148" y="-343.5" font-family="Helvetica,sans-Serif" font-size="10.00" fill="#000000">Gun.hpp</text>
</a>
</g>
</g>
<!-- Node24&#45;&gt;Node25 -->
<g id="edge42" class="edge">
<title>Node24&#45;&gt;Node25</title>
<path fill="none" stroke="#191970" d="M2280.067,-393.4948C2338.1972,-382.4224 2438.7172,-363.2757 2492.6671,-352.9996"/>
<polygon fill="#191970" stroke="#191970" points="2493.6413,-356.377 2502.8098,-351.0676 2492.3315,-349.5006 2493.6413,-356.377"/>
</g>
<!-- Node26 -->
<g id="node27" class="node">
<title>Node26</title>
<polygon fill="none" stroke="#bfbfbf" points="2398.4148,-336.5 2398.4148,-355.5 2446.4148,-355.5 2446.4148,-336.5 2398.4148,-336.5"/>
<text text-anchor="middle" x="2422.4148" y="-343.5" font-family="Helvetica,sans-Serif" font-size="10.00" fill="#000000">stdlib.h</text>
</g>
<!-- Node24&#45;&gt;Node26 -->
<g id="edge47" class="edge">
<title>Node24&#45;&gt;Node26</title>
<path fill="none" stroke="#191970" d="M2267.5612,-392.3733C2301.3968,-382.2407 2354.4245,-366.3607 2388.8023,-356.0658"/>
<polygon fill="#191970" stroke="#191970" points="2389.8257,-359.4129 2398.4013,-353.1912 2387.8175,-352.7072 2389.8257,-359.4129"/>
</g>
<!-- Node27 -->
<g id="node28" class="node">
<title>Node27</title>
<polygon fill="none" stroke="#bfbfbf" points="2222.4148,-336.5 2222.4148,-355.5 2266.4148,-355.5 2266.4148,-336.5 2222.4148,-336.5"/>
<text text-anchor="middle" x="2244.4148" y="-343.5" font-family="Helvetica,sans-Serif" font-size="10.00" fill="#000000">time.h</text>
</g>
<!-- Node24&#45;&gt;Node27 -->
<g id="edge48" class="edge">
<title>Node24&#45;&gt;Node27</title>
<path fill="none" stroke="#191970" d="M2236.9824,-392.2455C2238.1568,-384.9382 2239.8032,-374.6944 2241.248,-365.7046"/>
<polygon fill="#191970" stroke="#191970" points="2244.7338,-366.0714 2242.865,-355.6427 2237.8225,-364.9606 2244.7338,-366.0714"/>
</g>
<!-- Node28 -->
<g id="node29" class="node">
<title>Node28</title>
<polygon fill="none" stroke="#bfbfbf" points="2152.9148,-336.5 2152.9148,-355.5 2203.9148,-355.5 2203.9148,-336.5 2152.9148,-336.5"/>
<text text-anchor="middle" x="2178.4148" y="-343.5" font-family="Helvetica,sans-Serif" font-size="10.00" fill="#000000">unistd.h</text>
</g>
<!-- Node24&#45;&gt;Node28 -->
<g id="edge49" class="edge">
<title>Node24&#45;&gt;Node28</title>
<path fill="none" stroke="#191970" d="M2225.4861,-392.2455C2217.231,-384.1352 2205.2938,-372.4075 2195.5065,-362.7919"/>
<polygon fill="#191970" stroke="#191970" points="2197.8159,-360.1542 2188.2296,-355.6427 2192.9101,-365.1476 2197.8159,-360.1542"/>
</g>
<!-- Node25&#45;&gt;Node21 -->
<g id="edge45" class="edge">
<title>Node25&#45;&gt;Node21</title>
<path fill="none" stroke="#191970" d="M2534.8385,-336.3065C2560.7298,-290.0326 2671.9389,-91.276 2706.8719,-28.8425"/>
<polygon fill="#191970" stroke="#191970" points="2710.1405,-30.1687 2711.969,-19.7328 2704.0317,-26.7506 2710.1405,-30.1687"/>
</g>
<!-- Node25&#45;&gt;Node22 -->
<g id="edge43" class="edge">
<title>Node25&#45;&gt;Node22</title>
<path fill="none" stroke="#191970" d="M2526.0414,-336.3359C2520.4929,-321.8734 2508.0565,-294.7284 2488.4148,-280 2456.1493,-255.8057 2411.7654,-244.3361 2377.1569,-238.8991"/>
<polygon fill="#191970" stroke="#191970" points="2377.6133,-235.4287 2367.2148,-237.4589 2376.6097,-242.3564 2377.6133,-235.4287"/>
</g>
<!-- Node25&#45;&gt;Node23 -->
<g id="edge44" class="edge">
<title>Node25&#45;&gt;Node23</title>
<path fill="none" stroke="#191970" d="M2546.3109,-336.2455C2561.3327,-327.5731 2583.5191,-314.7645 2600.7358,-304.825"/>
<polygon fill="#191970" stroke="#191970" points="2602.8018,-307.6737 2609.7123,-299.6427 2599.3019,-301.6114 2602.8018,-307.6737"/>
</g>
<!-- Node29&#45;&gt;Node2 -->
<g id="edge52" class="edge">
<title>Node29&#45;&gt;Node2</title>
<path fill="none" stroke="#191970" d="M1798.5249,-229.6988C1856.9057,-221.0726 1989.8884,-201.4234 2074.0587,-188.9866"/>
<polygon fill="#191970" stroke="#191970" points="2074.6922,-192.4311 2084.0731,-187.5069 2073.6689,-185.5063 2074.6922,-192.4311"/>
</g>
<!-- Node29&#45;&gt;Node4 -->
<g id="edge51" class="edge">
<title>Node29&#45;&gt;Node4</title>
<path fill="none" stroke="#191970" d="M1761.4162,-224.2001C1744.8545,-202.6415 1710.1427,-149.999 1732.4148,-112 1738.8543,-101.0134 1820.7101,-61.0173 1832.4148,-56 1865.0543,-42.0088 1903.3645,-30.2785 1932.9648,-22.1655"/>
<polygon fill="#191970" stroke="#191970" points="1933.9044,-25.5372 1942.6485,-19.5547 1932.0822,-18.7785 1933.9044,-25.5372"/>
</g>
<!-- Node29&#45;&gt;Node8 -->
<g id="edge53" class="edge">
<title>Node29&#45;&gt;Node8</title>
<path fill="none" stroke="#191970" d="M1792.794,-224.3733C1814.9192,-215.2629 1848.3282,-201.5062 1873.0167,-191.3404"/>
<polygon fill="#191970" stroke="#191970" points="1874.4265,-194.5451 1882.3406,-187.5011 1871.7612,-188.0723 1874.4265,-194.5451"/>
</g>
<!-- Node31&#45;&gt;Node9 -->
<g id="edge66" class="edge">
<title>Node31&#45;&gt;Node9</title>
<path fill="none" stroke="#191970" d="M1047.1373,-118.9696C1197.0363,-112.0823 1571.9034,-94.4169 1885.4148,-76 1924.3368,-73.7136 1968.9117,-70.6904 1999.2884,-68.5689"/>
<polygon fill="#191970" stroke="#191970" points="1999.6778,-72.0502 2009.4083,-67.8588 1999.1878,-65.0674 1999.6778,-72.0502"/>
</g>
<!-- Node31&#45;&gt;Node10 -->
<g id="edge70" class="edge">
<title>Node31&#45;&gt;Node10</title>
<path fill="none" stroke="#191970" d="M913.8111,-120.4028C721.8399,-115.5247 179.1466,-99.6958 149.4148,-76 135.8913,-65.222 131.5925,-45.4731 130.4068,-30.3771"/>
<polygon fill="#191970" stroke="#191970" points="133.8881,-29.8235 130.0056,-19.9657 126.8933,-30.093 133.8881,-29.8235"/>
</g>
<!-- Node31&#45;&gt;Node14 -->
<g id="edge69" class="edge">
<title>Node31&#45;&gt;Node14</title>
<path fill="none" stroke="#191970" d="M1047.1646,-118.8897C1181.5333,-112.4416 1494.2135,-96.4924 1756.4148,-76 1781.8867,-74.0092 1810.8438,-71.1443 1831.5535,-68.9908"/>
<polygon fill="#191970" stroke="#191970" points="1831.9902,-72.4643 1841.5695,-67.9379 1831.2583,-65.5026 1831.9902,-72.4643"/>
</g>
<!-- Node31&#45;&gt;Node18 -->
<g id="edge67" class="edge">
<title>Node31&#45;&gt;Node18</title>
<path fill="none" stroke="#191970" d="M1047.1362,-120.6449C1232.0607,-116.6427 1766.783,-103.4014 2210.4148,-76 2238.7577,-74.2494 2270.9261,-71.4087 2294.1861,-69.2015"/>
<polygon fill="#191970" stroke="#191970" points="2294.5817,-72.6797 2304.2005,-68.2381 2293.9113,-65.7118 2294.5817,-72.6797"/>
</g>
<!-- Node31&#45;&gt;Node21 -->
<g id="edge72" class="edge">
<title>Node31&#45;&gt;Node21</title>
<path fill="none" stroke="#191970" d="M1047.0056,-120.694C1322.0091,-115.1962 2358.016,-93.4136 2425.4148,-76 2444.2751,-71.1271 2445.9664,-62.2542 2464.4148,-56 2538.6231,-30.8425 2630.0005,-18.5587 2680.1223,-13.3214"/>
<polygon fill="#191970" stroke="#191970" points="2680.5719,-16.794 2690.1705,-12.3087 2679.8699,-9.8292 2680.5719,-16.794"/>
</g>
<!-- Node31&#45;&gt;Node30 -->
<g id="edge56" class="edge">
<title>Node31&#45;&gt;Node30</title>
<path fill="none" stroke="#191970" d="M913.794,-121.1839C768.5129,-118.806 412.4837,-109.7281 116.4148,-76 115.1514,-75.8561 113.8736,-75.7019 112.5859,-75.539"/>
<polygon fill="#191970" stroke="#191970" points="112.9843,-72.0607 102.5953,-74.1387 112.0127,-78.9929 112.9843,-72.0607"/>
</g>
<!-- Node32 -->
<g id="node33" class="node">
<title>Node32</title>
<polygon fill="none" stroke="#bfbfbf" points="476.9148,-56.5 476.9148,-75.5 583.9148,-75.5 583.9148,-56.5 476.9148,-56.5"/>
<text text-anchor="middle" x="530.4148" y="-63.5" font-family="Helvetica,sans-Serif" font-size="10.00" fill="#000000">tmxlite/TileLayer.hpp</text>
</g>
<!-- Node31&#45;&gt;Node32 -->
<g id="edge57" class="edge">
<title>Node31&#45;&gt;Node32</title>
<path fill="none" stroke="#191970" d="M913.8882,-114.8925C838.8161,-106.6918 712.7965,-92.384 594.0095,-76.0367"/>
<polygon fill="#191970" stroke="#191970" points="594.3951,-72.5568 584.0098,-74.6532 593.4357,-79.4907 594.3951,-72.5568"/>
</g>
<!-- Node33 -->
<g id="node34" class="node">
<title>Node33</title>
<polygon fill="none" stroke="#bfbfbf" points="602.4148,-56.5 602.4148,-75.5 712.4148,-75.5 712.4148,-56.5 602.4148,-56.5"/>
<text text-anchor="middle" x="657.4148" y="-63.5" font-family="Helvetica,sans-Serif" font-size="10.00" fill="#000000">tmxlite/detail/Log.hpp</text>
</g>
<!-- Node31&#45;&gt;Node33 -->
<g id="edge58" class="edge">
<title>Node31&#45;&gt;Node33</title>
<path fill="none" stroke="#191970" d="M925.2561,-112.4369C869.0481,-102.6918 781.9035,-87.5832 722.3866,-77.2645"/>
<polygon fill="#191970" stroke="#191970" points="722.7969,-73.7835 712.3459,-75.5237 721.601,-80.6806 722.7969,-73.7835"/>
</g>
<!-- Node34 -->
<g id="node35" class="node">
<title>Node34</title>
<polygon fill="none" stroke="#bfbfbf" points="730.4148,-56.5 730.4148,-75.5 878.4148,-75.5 878.4148,-56.5 730.4148,-56.5"/>
<text text-anchor="middle" x="804.4148" y="-63.5" font-family="Helvetica,sans-Serif" font-size="10.00" fill="#000000">SFML/Graphics/Drawable.hpp</text>
</g>
<!-- Node31&#45;&gt;Node34 -->
<g id="edge59" class="edge">
<title>Node31&#45;&gt;Node34</title>
<path fill="none" stroke="#191970" d="M950.1593,-112.3733C920.7665,-103.021 875.9856,-88.7725 843.8214,-78.5385"/>
<polygon fill="#191970" stroke="#191970" points="844.8659,-75.198 834.2754,-75.5011 842.7435,-81.8685 844.8659,-75.198"/>
</g>
<!-- Node35 -->
<g id="node36" class="node">
<title>Node35</title>
<polygon fill="none" stroke="#bfbfbf" points="896.9148,-56.5 896.9148,-75.5 1063.9148,-75.5 1063.9148,-56.5 896.9148,-56.5"/>
<text text-anchor="middle" x="980.4148" y="-63.5" font-family="Helvetica,sans-Serif" font-size="10.00" fill="#000000">SFML/Graphics/RenderStates.hpp</text>
</g>
<!-- Node31&#45;&gt;Node35 -->
<g id="edge60" class="edge">
<title>Node31&#45;&gt;Node35</title>
<path fill="none" stroke="#191970" d="M980.4148,-112.2455C980.4148,-104.9382 980.4148,-94.6944 980.4148,-85.7046"/>
<polygon fill="#191970" stroke="#191970" points="983.9149,-85.6426 980.4148,-75.6427 976.9149,-85.6427 983.9149,-85.6426"/>
</g>
<!-- Node36 -->
<g id="node37" class="node">
<title>Node36</title>
<polygon fill="none" stroke="#bfbfbf" points="1082.4148,-56.5 1082.4148,-75.5 1248.4148,-75.5 1248.4148,-56.5 1082.4148,-56.5"/>
<text text-anchor="middle" x="1165.4148" y="-63.5" font-family="Helvetica,sans-Serif" font-size="10.00" fill="#000000">SFML/Graphics/RenderTarget.hpp</text>
</g>
<!-- Node31&#45;&gt;Node36 -->
<g id="edge61" class="edge">
<title>Node31&#45;&gt;Node36</title>
<path fill="none" stroke="#191970" d="M1012.2174,-112.3733C1043.2464,-102.9807 1090.5902,-88.6496 1124.4295,-78.4064"/>
<polygon fill="#191970" stroke="#191970" points="1125.4701,-81.7483 1134.0271,-75.5011 1123.442,-75.0485 1125.4701,-81.7483"/>
</g>
<!-- Node37 -->
<g id="node38" class="node">
<title>Node37</title>
<polygon fill="none" stroke="#bfbfbf" points="1266.9148,-56.5 1266.9148,-75.5 1401.9148,-75.5 1401.9148,-56.5 1266.9148,-56.5"/>
<text text-anchor="middle" x="1334.4148" y="-63.5" font-family="Helvetica,sans-Serif" font-size="10.00" fill="#000000">SFML/Graphics/Vertex.hpp</text>
</g>
<!-- Node31&#45;&gt;Node37 -->
<g id="edge62" class="edge">
<title>Node31&#45;&gt;Node37</title>
<path fill="none" stroke="#191970" d="M1040.8673,-112.4369C1102.7244,-102.6516 1198.7681,-87.4582 1264.0143,-77.1368"/>
<polygon fill="#191970" stroke="#191970" points="1264.8813,-80.5433 1274.2116,-75.5237 1263.7875,-73.6292 1264.8813,-80.5433"/>
</g>
<!-- Node38 -->
<g id="node39" class="node">
<title>Node38</title>
<polygon fill="none" stroke="#bfbfbf" points="1420.4148,-56.5 1420.4148,-75.5 1560.4148,-75.5 1560.4148,-56.5 1420.4148,-56.5"/>
<text text-anchor="middle" x="1490.4148" y="-63.5" font-family="Helvetica,sans-Serif" font-size="10.00" fill="#000000">SFML/Graphics/Texture.hpp</text>
</g>
<!-- Node31&#45;&gt;Node38 -->
<g id="edge63" class="edge">
<title>Node31&#45;&gt;Node38</title>
<path fill="none" stroke="#191970" d="M1047.1205,-115.2353C1129.6242,-106.7853 1274.6548,-91.6601 1410.0385,-76.0253"/>
<polygon fill="#191970" stroke="#191970" points="1410.6522,-79.4777 1420.1832,-74.8506 1409.8469,-72.5242 1410.6522,-79.4777"/>
</g>
<!-- Node39 -->
<g id="node40" class="node">
<title>Node39</title>
<polygon fill="none" stroke="#bfbfbf" points="1578.9148,-56.5 1578.9148,-75.5 1747.9148,-75.5 1747.9148,-56.5 1578.9148,-56.5"/>
<text text-anchor="middle" x="1663.4148" y="-63.5" font-family="Helvetica,sans-Serif" font-size="10.00" fill="#000000">SFML/Graphics/Transformable.hpp</text>
</g>
<!-- Node31&#45;&gt;Node39 -->
<g id="edge64" class="edge">
<title>Node31&#45;&gt;Node39</title>
<path fill="none" stroke="#191970" d="M1047.1565,-117.3999C1154.541,-109.8633 1372.5938,-94.003 1568.6681,-76.0452"/>
<polygon fill="#191970" stroke="#191970" points="1569.2375,-79.5077 1578.8749,-75.1067 1568.5964,-72.5371 1569.2375,-79.5077"/>
</g>
<!-- Node40 -->
<g id="node41" class="node">
<title>Node40</title>
<polygon fill="none" stroke="#bfbfbf" points="158.9148,-56.5 158.9148,-75.5 281.9148,-75.5 281.9148,-56.5 158.9148,-56.5"/>
<text text-anchor="middle" x="220.4148" y="-63.5" font-family="Helvetica,sans-Serif" font-size="10.00" fill="#000000">SFML/System/Time.hpp</text>
</g>
<!-- Node31&#45;&gt;Node40 -->
<g id="edge65" class="edge">
<title>Node31&#45;&gt;Node40</title>
<path fill="none" stroke="#191970" d="M913.7647,-119.1757C792.3532,-113.6748 526.8308,-100.0047 292.0518,-75.9899"/>
<polygon fill="#191970" stroke="#191970" points="292.2609,-72.493 281.9546,-74.9487 291.5428,-79.4561 292.2609,-72.493"/>
</g>
<!-- Node41 -->
<g id="node42" class="node">
<title>Node41</title>
<polygon fill="none" stroke="#bfbfbf" points="300.4148,-56.5 300.4148,-75.5 338.4148,-75.5 338.4148,-56.5 300.4148,-56.5"/>
<text text-anchor="middle" x="319.4148" y="-63.5" font-family="Helvetica,sans-Serif" font-size="10.00" fill="#000000">array</text>
</g>
<!-- Node31&#45;&gt;Node41 -->
<g id="edge68" class="edge">
<title>Node31&#45;&gt;Node41</title>
<path fill="none" stroke="#191970" d="M913.833,-119.4407C777.8624,-113.852 471.4477,-99.3133 348.4293,-75.6055"/>
<polygon fill="#191970" stroke="#191970" points="348.9941,-72.1488 338.497,-73.5843 347.5982,-79.0082 348.9941,-72.1488"/>
</g>
<!-- Node42 -->
<g id="node43" class="node">
<title>Node42</title>
<polygon fill="none" stroke="#bfbfbf" points="356.4148,-56.5 356.4148,-75.5 396.4148,-75.5 396.4148,-56.5 356.4148,-56.5"/>
<text text-anchor="middle" x="376.4148" y="-63.5" font-family="Helvetica,sans-Serif" font-size="10.00" fill="#000000">limits</text>
</g>
<!-- Node31&#45;&gt;Node42 -->
<g id="edge71" class="edge">
<title>Node31&#45;&gt;Node42</title>
<path fill="none" stroke="#191970" d="M913.8118,-118.7849C787.7949,-112.3642 517.8645,-96.9148 406.473,-75.6642"/>
<polygon fill="#191970" stroke="#191970" points="407.0077,-72.2017 396.5133,-73.6571 405.6248,-79.0637 407.0077,-72.2017"/>
</g>
<!-- Node43 -->
<g id="node44" class="node">
<title>Node43</title>
<polygon fill="none" stroke="#bfbfbf" points="414.4148,-56.5 414.4148,-75.5 458.4148,-75.5 458.4148,-56.5 414.4148,-56.5"/>
<text text-anchor="middle" x="436.4148" y="-63.5" font-family="Helvetica,sans-Serif" font-size="10.00" fill="#000000">cmath</text>
</g>
<!-- Node31&#45;&gt;Node43 -->
<g id="edge73" class="edge">
<title>Node31&#45;&gt;Node43</title>
<path fill="none" stroke="#191970" d="M913.734,-120.7423C817.2297,-117.8837 633.106,-108.532 468.8949,-75.8937"/>
<polygon fill="#191970" stroke="#191970" points="469.1032,-72.365 458.6077,-73.8128 467.7153,-79.226 469.1032,-72.365"/>
</g>
<!-- Node44&#45;&gt;Node2 -->
<g id="edge76" class="edge">
<title>Node44&#45;&gt;Node2</title>
<path fill="none" stroke="#191970" d="M2258.3895,-448.4183C2234.3985,-441.3071 2204.5736,-429.7218 2182.4148,-412 2158.925,-393.2137 2153.2488,-384.7515 2144.4148,-356 2127.3676,-300.518 2137.4803,-230.6616 2144.0814,-197.3675"/>
<polygon fill="#191970" stroke="#191970" points="2147.5128,-198.0574 2146.1411,-187.5518 2140.662,-196.6198 2147.5128,-198.0574"/>
</g>
<!-- Node44&#45;&gt;Node4 -->
<g id="edge75" class="edge">
<title>Node44&#45;&gt;Node4</title>
<path fill="none" stroke="#191970" d="M2321.5214,-448.4742C2336.0478,-440.902 2353.8885,-428.7828 2362.4148,-412 2366.4409,-404.0752 2364.834,-400.5533 2362.4148,-392 2341.3992,-317.6978 2303.7807,-314.1065 2271.4148,-244 2234.5946,-164.2453 2276.0118,-114.4258 2210.4148,-56 2186.1906,-34.424 2102.7989,-21.8496 2043.6583,-15.4527"/>
<polygon fill="#191970" stroke="#191970" points="2043.9643,-11.9657 2033.6539,-14.404 2043.2345,-18.9275 2043.9643,-11.9657"/>
</g>
<!-- Node44&#45;&gt;Node8 -->
<g id="edge77" class="edge">
<title>Node44&#45;&gt;Node8</title>
<path fill="none" stroke="#191970" d="M2252.4902,-448.4254C2223.4754,-441.2002 2186.2152,-429.4923 2156.4148,-412 2051.6284,-350.4923 1954.4956,-238.4698 1919.3288,-195.4589"/>
<polygon fill="#191970" stroke="#191970" points="1921.9726,-193.1621 1912.9606,-187.5912 1916.5315,-197.5661 1921.9726,-193.1621"/>
</g>
<!-- Node44&#45;&gt;Node23 -->
<g id="edge79" class="edge">
<title>Node44&#45;&gt;Node23</title>
<path fill="none" stroke="#191970" d="M2364.1401,-450.9267C2425.9196,-443.269 2513.8379,-429.7337 2543.4148,-412 2583.1581,-388.1708 2608.1768,-337.1039 2619.4365,-309.1895"/>
<polygon fill="#191970" stroke="#191970" points="2622.7518,-310.3195 2623.0802,-299.7298 2616.2197,-307.8034 2622.7518,-310.3195"/>
</g>
<!-- Node44&#45;&gt;Node24 -->
<g id="edge78" class="edge">
<title>Node44&#45;&gt;Node24</title>
<path fill="none" stroke="#191970" d="M2288.2668,-448.2455C2278.9061,-440.0549 2265.329,-428.1749 2254.2798,-418.5069"/>
<polygon fill="#191970" stroke="#191970" points="2256.2655,-415.5937 2246.435,-411.6427 2251.656,-420.8618 2256.2655,-415.5937"/>
</g>
<!-- Node45 -->
<g id="node46" class="node">
<title>Node45</title>
<g id="a_node46"><a xlink:href="Enemy_8hpp.html" target="_top" xlink:title="Enemy.hpp">
<polygon fill="none" stroke="#000000" points="2468.4148,-392.5 2468.4148,-411.5 2534.4148,-411.5 2534.4148,-392.5 2468.4148,-392.5"/>
<text text-anchor="middle" x="2501.4148" y="-399.5" font-family="Helvetica,sans-Serif" font-size="10.00" fill="#000000">Enemy.hpp</text>
</a>
</g>
</g>
<!-- Node44&#45;&gt;Node45 -->
<g id="edge80" class="edge">
<title>Node44&#45;&gt;Node45</title>
<path fill="none" stroke="#191970" d="M2334.1398,-448.3733C2368.4749,-438.8546 2421.1053,-424.264 2458.143,-413.9961"/>
<polygon fill="#191970" stroke="#191970" points="2459.4464,-417.2669 2468.1479,-411.2225 2457.5763,-410.5213 2459.4464,-417.2669"/>
</g>
<!-- Node46 -->
<g id="node47" class="node">
<title>Node46</title>
<polygon fill="none" stroke="#bfbfbf" points="2297.4148,-392.5 2297.4148,-411.5 2353.4148,-411.5 2353.4148,-392.5 2297.4148,-392.5"/>
<text text-anchor="middle" x="2325.4148" y="-399.5" font-family="Helvetica,sans-Serif" font-size="10.00" fill="#000000">tinyxml.h</text>
</g>
<!-- Node44&#45;&gt;Node46 -->
<g id="edge86" class="edge">
<title>Node44&#45;&gt;Node46</title>
<path fill="none" stroke="#191970" d="M2303.9436,-448.2455C2307.4481,-440.6973 2312.4074,-430.0158 2316.677,-420.8197"/>
<polygon fill="#191970" stroke="#191970" points="2319.9012,-422.1867 2320.9378,-411.6427 2313.5521,-419.2389 2319.9012,-422.1867"/>
</g>
<!-- Node45&#45;&gt;Node21 -->
<g id="edge82" class="edge">
<title>Node45&#45;&gt;Node21</title>
<path fill="none" stroke="#191970" d="M2534.5573,-397.2306C2586.0108,-389.4196 2682.3252,-373.0546 2712.4148,-356 2747.4279,-336.1548 2774.4148,-330.2462 2774.4148,-290 2774.4148,-290 2774.4148,-290 2774.4148,-122 2774.4148,-85.1826 2749.6472,-48.2377 2732.7647,-27.3313"/>
<polygon fill="#191970" stroke="#191970" points="2735.4279,-25.06 2726.321,-19.6456 2730.0637,-29.5574 2735.4279,-25.06"/>
</g>
<!-- Node45&#45;&gt;Node22 -->
<g id="edge81" class="edge">
<title>Node45&#45;&gt;Node22</title>
<path fill="none" stroke="#191970" d="M2495.9799,-392.3673C2488.0996,-378.881 2472.5564,-354.0064 2455.4148,-336 2421.8656,-300.7582 2375.4988,-267.8416 2347.5881,-249.377"/>
<polygon fill="#191970" stroke="#191970" points="2349.1618,-246.2245 2338.8754,-243.6867 2345.3341,-252.0853 2349.1618,-246.2245"/>
</g>
<!-- Node45&#45;&gt;Node23 -->
<g id="edge85" class="edge">
<title>Node45&#45;&gt;Node23</title>
<path fill="none" stroke="#191970" d="M2516.5419,-392.387C2529.9333,-383.5895 2549.7303,-369.867 2565.4148,-356 2582.6455,-340.7659 2600.2578,-321.1931 2612.0994,-307.329"/>
<polygon fill="#191970" stroke="#191970" points="2614.9076,-309.4279 2618.6717,-299.5242 2609.5532,-304.919 2614.9076,-309.4279"/>
</g>
<!-- Node45&#45;&gt;Node25 -->
<g id="edge84" class="edge">
<title>Node45&#45;&gt;Node25</title>
<path fill="none" stroke="#191970" d="M2506.292,-392.2455C2510.0661,-384.6973 2515.4069,-374.0158 2520.0049,-364.8197"/>
<polygon fill="#191970" stroke="#191970" points="2523.2517,-366.1522 2524.5934,-355.6427 2516.9907,-363.0217 2523.2517,-366.1522"/>
</g>
<!-- Node45&#45;&gt;Node26 -->
<g id="edge83" class="edge">
<title>Node45&#45;&gt;Node26</title>
<path fill="none" stroke="#191970" d="M2487.654,-392.2455C2475.7595,-383.814 2458.3498,-371.4729 2444.5062,-361.6598"/>
<polygon fill="#191970" stroke="#191970" points="2446.2001,-358.5704 2436.0178,-355.6427 2442.152,-364.2811 2446.2001,-358.5704"/>
</g>
<!-- Node47&#45;&gt;Node4 -->
<g id="edge88" class="edge">
<title>Node47&#45;&gt;Node4</title>
<path fill="none" stroke="#191970" d="M2280.9467,-505.9245C2426.9262,-489.096 2736.4148,-447.9944 2736.4148,-402 2736.4148,-402 2736.4148,-402 2736.4148,-290 2736.4148,-161.1901 2677.8857,-118.7877 2565.4148,-56 2520.744,-31.0622 2185.5073,-16.9081 2044.0682,-11.9921"/>
<polygon fill="#191970" stroke="#191970" points="2043.9356,-8.4856 2033.8214,-11.6404 2043.6954,-15.4815 2043.9356,-8.4856"/>
</g>
<!-- Node47&#45;&gt;Node6 -->
<g id="edge89" class="edge">
<title>Node47&#45;&gt;Node6</title>
<path fill="none" stroke="#191970" d="M2186.3017,-504.3733C2167.6044,-495.4241 2139.5404,-481.9917 2118.4214,-471.8835"/>
<polygon fill="#191970" stroke="#191970" points="2119.7964,-468.6614 2109.2653,-467.5011 2116.7743,-474.9755 2119.7964,-468.6614"/>
</g>
<!-- Node47&#45;&gt;Node7 -->
<g id="edge90" class="edge">
<title>Node47&#45;&gt;Node7</title>
<path fill="none" stroke="#191970" d="M2201.5943,-504.4081C2190.6875,-482.6667 2164.442,-430.1218 2156.4148,-412 2113.0282,-314.0533 2087.5515,-293.2163 2067.4148,-188 2065.7439,-179.2696 2062.1253,-175.1438 2067.4148,-168 2100.0424,-123.9335 2152.7871,-176.0665 2185.4148,-132 2195.6085,-118.2324 2189.5859,-98.6549 2182.5485,-84.399"/>
<polygon fill="#191970" stroke="#191970" points="2185.5638,-82.6179 2177.7011,-75.5166 2179.4192,-85.9712 2185.5638,-82.6179"/>
</g>
<!-- Node47&#45;&gt;Node8 -->
<g id="edge91" class="edge">
<title>Node47&#45;&gt;Node8</title>
<path fill="none" stroke="#191970" d="M2200.072,-504.3517C2190.4967,-490.3946 2171.1445,-464.4467 2149.4148,-448 2119.2923,-425.201 2102.0004,-435.4915 2072.4148,-412 1998.049,-352.9523 1992.1978,-323.5953 1940.4148,-244 1930.4951,-228.7526 1920.9395,-210.4025 1914.3264,-196.9257"/>
<polygon fill="#191970" stroke="#191970" points="1917.3771,-195.1938 1909.8855,-187.702 1911.07,-198.2304 1917.3771,-195.1938"/>
</g>
<!-- Node47&#45;&gt;Node21 -->
<g id="edge93" class="edge">
<title>Node47&#45;&gt;Node21</title>
<path fill="none" stroke="#191970" d="M2281.0259,-507.9194C2443.0039,-493.7156 2812.4148,-455.4616 2812.4148,-402 2812.4148,-402 2812.4148,-402 2812.4148,-122 2812.4148,-78.9765 2771.1413,-44.0102 2743.0039,-25.1715"/>
<polygon fill="#191970" stroke="#191970" points="2744.7018,-22.102 2734.3989,-19.632 2740.9127,-27.9879 2744.7018,-22.102"/>
</g>
<!-- Node47&#45;&gt;Node44 -->
<g id="edge92" class="edge">
<title>Node47&#45;&gt;Node44</title>
<path fill="none" stroke="#191970" d="M2222.6141,-504.2455C2237.0165,-495.5731 2258.288,-482.7645 2274.7947,-472.825"/>
<polygon fill="#191970" stroke="#191970" points="2276.6397,-475.7996 2283.401,-467.6427 2273.0287,-469.8028 2276.6397,-475.7996"/>
</g>
</g>
</svg>
