<?xml version="1.0" encoding="UTF-8" standalone="no"?>
<!DOCTYPE svg PUBLIC "-//W3C//DTD SVG 1.1//EN"
 "http://www.w3.org/Graphics/SVG/1.1/DTD/svg11.dtd">
<!-- Generated by graphviz version 2.40.1 (20161225.0304)
 -->
<!-- Title: /mnt/hdd/C0de/Engines/SFML/SFML_Engine/include/GameWorld.hpp Pages: 1 -->
<svg width="757pt" height="274pt"
 viewBox="0.00 0.00 756.55 274.00" xmlns="http://www.w3.org/2000/svg" xmlns:xlink="http://www.w3.org/1999/xlink">
<g id="graph0" class="graph" transform="scale(1 1) rotate(0) translate(4 270)">
<title>/mnt/hdd/C0de/Engines/SFML/SFML_Engine/include/GameWorld.hpp</title>
<!-- Node0 -->
<g id="node1" class="node">
<title>Node0</title>
<polygon fill="#bfbfbf" stroke="#000000" points="474.55,-224.5 474.55,-265.5 618.55,-265.5 618.55,-224.5 474.55,-224.5"/>
<text text-anchor="start" x="482.55" y="-253.5" font-family="Helvetica,sans-Serif" font-size="10.00" fill="#000000">/mnt/hdd/C0de/Engines</text>
<text text-anchor="start" x="482.55" y="-242.5" font-family="Helvetica,sans-Serif" font-size="10.00" fill="#000000">/SFML/SFML_Engine/include</text>
<text text-anchor="middle" x="546.55" y="-231.5" font-family="Helvetica,sans-Serif" font-size="10.00" fill="#000000">/GameWorld.hpp</text>
</g>
<!-- Node1 -->
<g id="node2" class="node">
<title>Node1</title>
<polygon fill="none" stroke="#bfbfbf" points="290.55,-.5 290.55,-19.5 394.55,-19.5 394.55,-.5 290.55,-.5"/>
<text text-anchor="middle" x="342.55" y="-7.5" font-family="Helvetica,sans-Serif" font-size="10.00" fill="#000000">SFML/Graphics.hpp</text>
</g>
<!-- Node0&#45;&gt;Node1 -->
<g id="edge1" class="edge">
<title>Node0&#45;&gt;Node1</title>
<path fill="none" stroke="#191970" d="M474.4178,-235.7877C351.8309,-219.0217 109.3389,-180.7121 39.55,-132 15.2876,-115.065 11.8879,-104.389 3.55,-76 1.0451,-67.4713 -2.2976,-62.6946 3.55,-56 21.4387,-35.52 187.2181,-20.8009 280.1404,-14.081"/>
<polygon fill="#191970" stroke="#191970" points="280.5459,-17.5611 290.2718,-13.3591 280.0483,-10.5788 280.5459,-17.5611"/>
</g>
<!-- Node2 -->
<g id="node3" class="node">
<title>Node2</title>
<g id="a_node3"><a xlink:href="DEFINITIONS_8hpp.html" target="_top" xlink:title="DEFINITIONS.hpp">
<polygon fill="none" stroke="#000000" points="648.55,-168.5 648.55,-187.5 748.55,-187.5 748.55,-168.5 648.55,-168.5"/>
<text text-anchor="middle" x="698.55" y="-175.5" font-family="Helvetica,sans-Serif" font-size="10.00" fill="#000000">DEFINITIONS.hpp</text>
</a>
</g>
</g>
<!-- Node0&#45;&gt;Node2 -->
<g id="edge2" class="edge">
<title>Node0&#45;&gt;Node2</title>
<path fill="none" stroke="#191970" d="M593.3953,-224.3511C617.45,-213.748 646.0976,-201.1204 667.4125,-191.7251"/>
<polygon fill="#191970" stroke="#191970" points="668.9082,-194.8908 676.647,-187.6546 666.0847,-188.4855 668.9082,-194.8908"/>
</g>
<!-- Node3 -->
<g id="node4" class="node">
<title>Node3</title>
<g id="a_node4"><a xlink:href="Game_8hpp.html" target="_top" xlink:title="Game.hpp">
<polygon fill="none" stroke="#000000" points="349.55,-168.5 349.55,-187.5 411.55,-187.5 411.55,-168.5 349.55,-168.5"/>
<text text-anchor="middle" x="380.55" y="-175.5" font-family="Helvetica,sans-Serif" font-size="10.00" fill="#000000">Game.hpp</text>
</a>
</g>
</g>
<!-- Node0&#45;&gt;Node3 -->
<g id="edge3" class="edge">
<title>Node0&#45;&gt;Node3</title>
<path fill="none" stroke="#191970" d="M495.39,-224.3511C468.883,-213.6525 437.2694,-200.8928 413.9283,-191.472"/>
<polygon fill="#191970" stroke="#191970" points="415.0536,-188.1519 404.4705,-187.6546 412.4336,-194.6431 415.0536,-188.1519"/>
</g>
<!-- Node12 -->
<g id="node13" class="node">
<title>Node12</title>
<g id="a_node13"><a xlink:href="entity__manager_8h.html" target="_top" xlink:title="entity_manager.h">
<polygon fill="none" stroke="#000000" points="500.55,-112.5 500.55,-131.5 592.55,-131.5 592.55,-112.5 500.55,-112.5"/>
<text text-anchor="middle" x="546.55" y="-119.5" font-family="Helvetica,sans-Serif" font-size="10.00" fill="#000000">entity_manager.h</text>
</a>
</g>
</g>
<!-- Node0&#45;&gt;Node12 -->
<g id="edge25" class="edge">
<title>Node0&#45;&gt;Node12</title>
<path fill="none" stroke="#191970" d="M546.55,-224.4126C546.55,-201.3618 546.55,-164.2774 546.55,-141.6259"/>
<polygon fill="#191970" stroke="#191970" points="550.0501,-141.5181 546.55,-131.5182 543.0501,-141.5182 550.0501,-141.5181"/>
</g>
<!-- Node14 -->
<g id="node15" class="node">
<title>Node14</title>
<polygon fill="none" stroke="#bfbfbf" points="692.55,-56.5 692.55,-75.5 736.55,-75.5 736.55,-56.5 692.55,-56.5"/>
<text text-anchor="middle" x="714.55" y="-63.5" font-family="Helvetica,sans-Serif" font-size="10.00" fill="#000000">vector</text>
</g>
<!-- Node0&#45;&gt;Node14 -->
<g id="edge26" class="edge">
<title>Node0&#45;&gt;Node14</title>
<path fill="none" stroke="#191970" d="M565.8217,-224.4664C599.1926,-188.9106 667.146,-116.5079 698.2934,-83.321"/>
<polygon fill="#191970" stroke="#191970" points="701.0844,-85.4617 705.3758,-75.7749 695.9803,-80.6712 701.0844,-85.4617"/>
</g>
<!-- Node3&#45;&gt;Node1 -->
<g id="edge6" class="edge">
<title>Node3&#45;&gt;Node1</title>
<path fill="none" stroke="#191970" d="M386.4875,-168.1848C393.5232,-155.3143 403.6837,-132.0179 398.55,-112 390.3619,-80.0722 369.8635,-47.4092 356.0726,-27.9175"/>
<polygon fill="#191970" stroke="#191970" points="358.8119,-25.7333 350.1006,-19.703 353.15,-29.8495 358.8119,-25.7333"/>
</g>
<!-- Node4 -->
<g id="node5" class="node">
<title>Node4</title>
<polygon fill="none" stroke="#bfbfbf" points="12.55,-56.5 12.55,-75.5 64.55,-75.5 64.55,-56.5 12.55,-56.5"/>
<text text-anchor="middle" x="38.55" y="-63.5" font-family="Helvetica,sans-Serif" font-size="10.00" fill="#000000">memory</text>
</g>
<!-- Node3&#45;&gt;Node4 -->
<g id="edge4" class="edge">
<title>Node3&#45;&gt;Node4</title>
<path fill="none" stroke="#191970" d="M349.3033,-175.5453C272.1543,-169.2112 77.2933,-151.4448 55.55,-132 42.7584,-120.5606 39.0042,-100.8997 38.153,-86.0042"/>
<polygon fill="#191970" stroke="#191970" points="41.648,-85.6922 37.9664,-75.7576 34.6492,-85.8197 41.648,-85.6922"/>
</g>
<!-- Node5 -->
<g id="node6" class="node">
<title>Node5</title>
<polygon fill="none" stroke="#bfbfbf" points="423.05,-.5 423.05,-19.5 464.05,-19.5 464.05,-.5 423.05,-.5"/>
<text text-anchor="middle" x="443.55" y="-7.5" font-family="Helvetica,sans-Serif" font-size="10.00" fill="#000000">string</text>
</g>
<!-- Node3&#45;&gt;Node5 -->
<g id="edge5" class="edge">
<title>Node3&#45;&gt;Node5</title>
<path fill="none" stroke="#191970" d="M389.0755,-168.4587C396.5612,-159.6013 407.2167,-145.7473 413.55,-132 429.2996,-97.8132 437.4479,-54.2787 441.0862,-29.534"/>
<polygon fill="#191970" stroke="#191970" points="444.559,-29.9713 442.4516,-19.5882 437.624,-29.0192 444.559,-29.9713"/>
</g>
<!-- Node6 -->
<g id="node7" class="node">
<title>Node6</title>
<g id="a_node7"><a xlink:href="StateMachine_8hpp.html" target="_top" xlink:title="StateMachine.hpp">
<polygon fill="none" stroke="#000000" points="65.05,-112.5 65.05,-131.5 160.05,-131.5 160.05,-112.5 65.05,-112.5"/>
<text text-anchor="middle" x="112.55" y="-119.5" font-family="Helvetica,sans-Serif" font-size="10.00" fill="#000000">StateMachine.hpp</text>
</a>
</g>
</g>
<!-- Node3&#45;&gt;Node6 -->
<g id="edge7" class="edge">
<title>Node3&#45;&gt;Node6</title>
<path fill="none" stroke="#191970" d="M349.5452,-171.5214C305.3135,-162.2789 223.3805,-145.1586 168.4113,-133.6725"/>
<polygon fill="#191970" stroke="#191970" points="168.9807,-130.216 158.4762,-131.5965 167.5489,-137.068 168.9807,-130.216"/>
</g>
<!-- Node9 -->
<g id="node10" class="node">
<title>Node9</title>
<g id="a_node10"><a xlink:href="AssetManager_8hpp.html" target="_top" xlink:title="AssetManager.hpp">
<polygon fill="none" stroke="#000000" points="178.55,-112.5 178.55,-131.5 276.55,-131.5 276.55,-112.5 178.55,-112.5"/>
<text text-anchor="middle" x="227.55" y="-119.5" font-family="Helvetica,sans-Serif" font-size="10.00" fill="#000000">AssetManager.hpp</text>
</a>
</g>
</g>
<!-- Node3&#45;&gt;Node9 -->
<g id="edge11" class="edge">
<title>Node3&#45;&gt;Node9</title>
<path fill="none" stroke="#191970" d="M354.2484,-168.3733C329.1372,-159.1822 291.1062,-145.2624 263.2628,-135.0713"/>
<polygon fill="#191970" stroke="#191970" points="264.1022,-131.6516 253.5084,-131.5011 261.6962,-138.2251 264.1022,-131.6516"/>
</g>
<!-- Node11 -->
<g id="node12" class="node">
<title>Node11</title>
<g id="a_node12"><a xlink:href="InputManager_8hpp.html" target="_top" xlink:title="InputManager.hpp">
<polygon fill="none" stroke="#000000" points="295.05,-112.5 295.05,-131.5 390.05,-131.5 390.05,-112.5 295.05,-112.5"/>
<text text-anchor="middle" x="342.55" y="-119.5" font-family="Helvetica,sans-Serif" font-size="10.00" fill="#000000">InputManager.hpp</text>
</a>
</g>
</g>
<!-- Node3&#45;&gt;Node11 -->
<g id="edge14" class="edge">
<title>Node3&#45;&gt;Node11</title>
<path fill="none" stroke="#191970" d="M373.9309,-168.2455C368.6454,-160.4564 361.0959,-149.3308 354.7263,-139.9439"/>
<polygon fill="#191970" stroke="#191970" points="357.6045,-137.9522 349.0933,-131.6427 351.8121,-141.8827 357.6045,-137.9522"/>
</g>
<!-- Node3&#45;&gt;Node12 -->
<g id="edge16" class="edge">
<title>Node3&#45;&gt;Node12</title>
<path fill="none" stroke="#191970" d="M409.0864,-168.3733C436.5702,-159.1016 478.3186,-145.0178 508.5952,-134.804"/>
<polygon fill="#191970" stroke="#191970" points="510.0294,-138.0141 518.386,-131.5011 507.7918,-131.3813 510.0294,-138.0141"/>
</g>
<!-- Node6&#45;&gt;Node4 -->
<g id="edge8" class="edge">
<title>Node6&#45;&gt;Node4</title>
<path fill="none" stroke="#191970" d="M99.6602,-112.2455C88.6246,-103.8943 72.5208,-91.7076 59.6147,-81.9408"/>
<polygon fill="#191970" stroke="#191970" points="61.3783,-78.8862 51.2921,-75.6427 57.1541,-84.4681 61.3783,-78.8862"/>
</g>
<!-- Node7 -->
<g id="node8" class="node">
<title>Node7</title>
<polygon fill="none" stroke="#bfbfbf" points="160.05,-56.5 160.05,-75.5 201.05,-75.5 201.05,-56.5 160.05,-56.5"/>
<text text-anchor="middle" x="180.55" y="-63.5" font-family="Helvetica,sans-Serif" font-size="10.00" fill="#000000">stack</text>
</g>
<!-- Node6&#45;&gt;Node7 -->
<g id="edge9" class="edge">
<title>Node6&#45;&gt;Node7</title>
<path fill="none" stroke="#191970" d="M124.3947,-112.2455C134.438,-103.9746 149.0495,-91.9416 160.8504,-82.2232"/>
<polygon fill="#191970" stroke="#191970" points="163.3467,-84.7015 168.841,-75.6427 158.8967,-79.298 163.3467,-84.7015"/>
</g>
<!-- Node8 -->
<g id="node9" class="node">
<title>Node8</title>
<g id="a_node9"><a xlink:href="State_8hpp.html" target="_top" xlink:title="State.hpp">
<polygon fill="none" stroke="#000000" points="83.05,-56.5 83.05,-75.5 142.05,-75.5 142.05,-56.5 83.05,-56.5"/>
<text text-anchor="middle" x="112.55" y="-63.5" font-family="Helvetica,sans-Serif" font-size="10.00" fill="#000000">State.hpp</text>
</a>
</g>
</g>
<!-- Node6&#45;&gt;Node8 -->
<g id="edge10" class="edge">
<title>Node6&#45;&gt;Node8</title>
<path fill="none" stroke="#191970" d="M112.55,-112.2455C112.55,-104.9382 112.55,-94.6944 112.55,-85.7046"/>
<polygon fill="#191970" stroke="#191970" points="116.0501,-85.6426 112.55,-75.6427 109.0501,-85.6427 116.0501,-85.6426"/>
</g>
<!-- Node9&#45;&gt;Node1 -->
<g id="edge13" class="edge">
<title>Node9&#45;&gt;Node1</title>
<path fill="none" stroke="#191970" d="M228.2652,-112.336C229.7729,-98.3594 234.4111,-72.3874 248.55,-56 261.4684,-41.0272 280.3942,-30.471 297.8837,-23.2823"/>
<polygon fill="#191970" stroke="#191970" points="299.323,-26.479 307.4051,-19.6285 296.815,-19.9437 299.323,-26.479"/>
</g>
<!-- Node10 -->
<g id="node11" class="node">
<title>Node10</title>
<polygon fill="none" stroke="#bfbfbf" points="258.05,-56.5 258.05,-75.5 293.05,-75.5 293.05,-56.5 258.05,-56.5"/>
<text text-anchor="middle" x="275.55" y="-63.5" font-family="Helvetica,sans-Serif" font-size="10.00" fill="#000000">map</text>
</g>
<!-- Node9&#45;&gt;Node10 -->
<g id="edge12" class="edge">
<title>Node9&#45;&gt;Node10</title>
<path fill="none" stroke="#191970" d="M235.911,-112.2455C242.725,-104.2958 252.5181,-92.8706 260.6652,-83.3656"/>
<polygon fill="#191970" stroke="#191970" points="263.4343,-85.513 267.2849,-75.6427 258.1195,-80.9575 263.4343,-85.513"/>
</g>
<!-- Node11&#45;&gt;Node1 -->
<g id="edge15" class="edge">
<title>Node11&#45;&gt;Node1</title>
<path fill="none" stroke="#191970" d="M342.55,-112.4509C342.55,-94.184 342.55,-53.9553 342.55,-29.6976"/>
<polygon fill="#191970" stroke="#191970" points="346.0501,-29.5249 342.55,-19.5249 339.0501,-29.5249 346.0501,-29.5249"/>
</g>
<!-- Node13 -->
<g id="node14" class="node">
<title>Node13</title>
<polygon fill="none" stroke="#bfbfbf" points="591.05,-56.5 591.05,-75.5 674.05,-75.5 674.05,-56.5 591.05,-56.5"/>
<text text-anchor="middle" x="632.55" y="-63.5" font-family="Helvetica,sans-Serif" font-size="10.00" fill="#000000">unordered_map</text>
</g>
<!-- Node12&#45;&gt;Node13 -->
<g id="edge17" class="edge">
<title>Node12&#45;&gt;Node13</title>
<path fill="none" stroke="#191970" d="M561.5301,-112.2455C574.7251,-103.6534 594.1551,-91.0014 609.3579,-81.1018"/>
<polygon fill="#191970" stroke="#191970" points="611.2715,-84.0325 617.7416,-75.6427 607.4517,-78.1665 611.2715,-84.0325"/>
</g>
<!-- Node12&#45;&gt;Node14 -->
<g id="edge18" class="edge">
<title>Node12&#45;&gt;Node14</title>
<path fill="none" stroke="#191970" d="M575.4302,-112.3733C605.2681,-102.4273 651.7186,-86.9438 682.6291,-76.6403"/>
<polygon fill="#191970" stroke="#191970" points="684.0896,-79.8429 692.4696,-73.3601 681.8759,-73.2021 684.0896,-79.8429"/>
</g>
<!-- Node15 -->
<g id="node16" class="node">
<title>Node15</title>
<polygon fill="none" stroke="#bfbfbf" points="554.55,-.5 554.55,-19.5 634.55,-19.5 634.55,-.5 554.55,-.5"/>
<text text-anchor="middle" x="594.55" y="-7.5" font-family="Helvetica,sans-Serif" font-size="10.00" fill="#000000">box2d/box2d.h</text>
</g>
<!-- Node12&#45;&gt;Node15 -->
<g id="edge19" class="edge">
<title>Node12&#45;&gt;Node15</title>
<path fill="none" stroke="#191970" d="M550.6425,-112.4509C558.5774,-93.936 576.1818,-52.8591 586.5277,-28.7187"/>
<polygon fill="#191970" stroke="#191970" points="589.7457,-30.0951 590.4679,-19.5249 583.3116,-27.3376 589.7457,-30.0951"/>
</g>
<!-- Node16 -->
<g id="node17" class="node">
<title>Node16</title>
<g id="a_node17"><a xlink:href="entity_8h.html" target="_top" xlink:title="entity.h">
<polygon fill="none" stroke="#000000" points="485.05,-56.5 485.05,-75.5 534.05,-75.5 534.05,-56.5 485.05,-56.5"/>
<text text-anchor="middle" x="509.55" y="-63.5" font-family="Helvetica,sans-Serif" font-size="10.00" fill="#000000">entity.h</text>
</a>
</g>
</g>
<!-- Node12&#45;&gt;Node16 -->
<g id="edge20" class="edge">
<title>Node12&#45;&gt;Node16</title>
<path fill="none" stroke="#191970" d="M540.1051,-112.2455C535.0118,-104.5367 527.7592,-93.5598 521.598,-84.2348"/>
<polygon fill="#191970" stroke="#191970" points="524.3539,-82.0566 515.9211,-75.6427 518.5135,-85.9155 524.3539,-82.0566"/>
</g>
<!-- Node16&#45;&gt;Node1 -->
<g id="edge21" class="edge">
<title>Node16&#45;&gt;Node1</title>
<path fill="none" stroke="#191970" d="M484.9086,-57.737C457.3635,-48.5003 412.4316,-33.4333 380.4169,-22.6979"/>
<polygon fill="#191970" stroke="#191970" points="381.5234,-19.3775 370.9295,-19.5165 379.2979,-26.0143 381.5234,-19.3775"/>
</g>
<!-- Node16&#45;&gt;Node5 -->
<g id="edge22" class="edge">
<title>Node16&#45;&gt;Node5</title>
<path fill="none" stroke="#191970" d="M498.0537,-56.2455C488.3058,-47.9746 474.1241,-35.9416 462.6702,-26.2232"/>
<polygon fill="#191970" stroke="#191970" points="464.8041,-23.4437 454.9146,-19.6427 460.2753,-28.7813 464.8041,-23.4437"/>
</g>
<!-- Node16&#45;&gt;Node15 -->
<g id="edge23" class="edge">
<title>Node16&#45;&gt;Node15</title>
<path fill="none" stroke="#191970" d="M524.3559,-56.2455C537.2756,-47.7337 556.2431,-35.2375 571.2052,-25.3801"/>
<polygon fill="#191970" stroke="#191970" points="573.4887,-28.067 579.9138,-19.6427 569.6376,-22.2216 573.4887,-28.067"/>
</g>
<!-- Node17 -->
<g id="node18" class="node">
<title>Node17</title>
<polygon fill="none" stroke="#bfbfbf" points="482.55,-.5 482.55,-19.5 536.55,-19.5 536.55,-.5 482.55,-.5"/>
<text text-anchor="middle" x="509.55" y="-7.5" font-family="Helvetica,sans-Serif" font-size="10.00" fill="#000000">iostream</text>
</g>
<!-- Node16&#45;&gt;Node17 -->
<g id="edge24" class="edge">
<title>Node16&#45;&gt;Node17</title>
<path fill="none" stroke="#191970" d="M509.55,-56.2455C509.55,-48.9382 509.55,-38.6944 509.55,-29.7046"/>
<polygon fill="#191970" stroke="#191970" points="513.0501,-29.6426 509.55,-19.6427 506.0501,-29.6427 513.0501,-29.6426"/>
</g>
</g>
</svg>
