<?xml version="1.0" encoding="UTF-8" standalone="no"?>
<!DOCTYPE svg PUBLIC "-//W3C//DTD SVG 1.1//EN"
 "http://www.w3.org/Graphics/SVG/1.1/DTD/svg11.dtd">
<!-- Generated by graphviz version 2.40.1 (20161225.0304)
 -->
<!-- Title: /mnt/hdd/C0de/Engines/SFML/SFML_Engine/include/GameState.hpp Pages: 1 -->
<svg width="2891pt" height="554pt"
 viewBox="0.00 0.00 2891.12 554.00" xmlns="http://www.w3.org/2000/svg" xmlns:xlink="http://www.w3.org/1999/xlink">
<g id="graph0" class="graph" transform="scale(1 1) rotate(0) translate(4 550)">
<title>/mnt/hdd/C0de/Engines/SFML/SFML_Engine/include/GameState.hpp</title>
<!-- Node0 -->
<g id="node1" class="node">
<title>Node0</title>
<polygon fill="#bfbfbf" stroke="#000000" points="545.1217,-504.5 545.1217,-545.5 689.1217,-545.5 689.1217,-504.5 545.1217,-504.5"/>
<text text-anchor="start" x="553.1217" y="-533.5" font-family="Helvetica,sans-Serif" font-size="10.00" fill="#000000">/mnt/hdd/C0de/Engines</text>
<text text-anchor="start" x="553.1217" y="-522.5" font-family="Helvetica,sans-Serif" font-size="10.00" fill="#000000">/SFML/SFML_Engine/include</text>
<text text-anchor="middle" x="617.1217" y="-511.5" font-family="Helvetica,sans-Serif" font-size="10.00" fill="#000000">/GameState.hpp</text>
</g>
<!-- Node1 -->
<g id="node2" class="node">
<title>Node1</title>
<polygon fill="none" stroke="#bfbfbf" points="363.1217,-.5 363.1217,-19.5 467.1217,-19.5 467.1217,-.5 363.1217,-.5"/>
<text text-anchor="middle" x="415.1217" y="-7.5" font-family="Helvetica,sans-Serif" font-size="10.00" fill="#000000">SFML/Graphics.hpp</text>
</g>
<!-- Node0&#45;&gt;Node1 -->
<g id="edge1" class="edge">
<title>Node0&#45;&gt;Node1</title>
<path fill="none" stroke="#191970" d="M573.6464,-504.4488C476.8071,-455.8741 245.2032,-323.497 160.1217,-132 145.5673,-99.2417 158.8104,-77.9866 187.1217,-56 212.5072,-36.2856 294.4862,-23.302 352.8578,-16.3016"/>
<polygon fill="#191970" stroke="#191970" points="353.573,-19.742 363.0993,-15.1052 352.7607,-12.7892 353.573,-19.742"/>
</g>
<!-- Node2 -->
<g id="node3" class="node">
<title>Node2</title>
<polygon fill="none" stroke="#bfbfbf" points="29.6217,-448.5 29.6217,-467.5 118.6217,-467.5 118.6217,-448.5 29.6217,-448.5"/>
<text text-anchor="middle" x="74.1217" y="-455.5" font-family="Helvetica,sans-Serif" font-size="10.00" fill="#000000">SFML/Audio.hpp</text>
</g>
<!-- Node0&#45;&gt;Node2 -->
<g id="edge2" class="edge">
<title>Node0&#45;&gt;Node2</title>
<path fill="none" stroke="#191970" d="M545.0883,-518.2294C451.4185,-509.0656 282.5292,-491.3182 128.9931,-468.2095"/>
<polygon fill="#191970" stroke="#191970" points="129.3148,-464.7183 118.9031,-466.6796 128.2654,-471.6392 129.3148,-464.7183"/>
</g>
<!-- Node3 -->
<g id="node4" class="node">
<title>Node3</title>
<polygon fill="none" stroke="#bfbfbf" points="136.6217,-448.5 136.6217,-467.5 237.6217,-467.5 237.6217,-448.5 136.6217,-448.5"/>
<text text-anchor="middle" x="187.1217" y="-455.5" font-family="Helvetica,sans-Serif" font-size="10.00" fill="#000000">SFML/Network.hpp</text>
</g>
<!-- Node0&#45;&gt;Node3 -->
<g id="edge3" class="edge">
<title>Node0&#45;&gt;Node3</title>
<path fill="none" stroke="#191970" d="M544.6643,-513.7101C461.2848,-500.7184 325.8492,-479.6157 247.7933,-467.4535"/>
<polygon fill="#191970" stroke="#191970" points="248.0561,-463.9523 237.6365,-465.8709 246.9784,-470.8688 248.0561,-463.9523"/>
</g>
<!-- Node4 -->
<g id="node5" class="node">
<title>Node4</title>
<g id="a_node5"><a xlink:href="State_8hpp.html" target="_top" xlink:title="State.hpp">
<polygon fill="none" stroke="#000000" points="67.6217,-56.5 67.6217,-75.5 126.6217,-75.5 126.6217,-56.5 67.6217,-56.5"/>
<text text-anchor="middle" x="97.1217" y="-63.5" font-family="Helvetica,sans-Serif" font-size="10.00" fill="#000000">State.hpp</text>
</a>
</g>
</g>
<!-- Node0&#45;&gt;Node4 -->
<g id="edge4" class="edge">
<title>Node0&#45;&gt;Node4</title>
<path fill="none" stroke="#191970" d="M544.8967,-522.6068C394.7957,-516.9937 59.7517,-500.8979 20.1217,-468 -3.365,-448.5031 1.1217,-432.5246 1.1217,-402 1.1217,-402 1.1217,-402 1.1217,-178 1.1217,-134.7864 42.8296,-99.8806 71.2632,-81.1053"/>
<polygon fill="#191970" stroke="#191970" points="73.3915,-83.9 79.9588,-75.5861 69.6402,-77.9899 73.3915,-83.9"/>
</g>
<!-- Node5 -->
<g id="node6" class="node">
<title>Node5</title>
<g id="a_node6"><a xlink:href="Game_8hpp.html" target="_top" xlink:title="Game.hpp">
<polygon fill="none" stroke="#000000" points="492.1217,-168.5 492.1217,-187.5 554.1217,-187.5 554.1217,-168.5 492.1217,-168.5"/>
<text text-anchor="middle" x="523.1217" y="-175.5" font-family="Helvetica,sans-Serif" font-size="10.00" fill="#000000">Game.hpp</text>
</a>
</g>
</g>
<!-- Node0&#45;&gt;Node5 -->
<g id="edge5" class="edge">
<title>Node0&#45;&gt;Node5</title>
<path fill="none" stroke="#191970" d="M587.6374,-504.4285C560.0703,-482.5312 523.1217,-445.1361 523.1217,-402 523.1217,-402 523.1217,-402 523.1217,-290 523.1217,-257.7116 523.1217,-220.1872 523.1217,-197.8048"/>
<polygon fill="#191970" stroke="#191970" points="526.6218,-197.5883 523.1217,-187.5884 519.6218,-197.5884 526.6218,-197.5883"/>
</g>
<!-- Node19 -->
<g id="node20" class="node">
<title>Node19</title>
<g id="a_node20"><a xlink:href="GameWorld_8hpp.html" target="_top" xlink:title="GameWorld.hpp">
<polygon fill="none" stroke="#000000" points="2433.6217,-224.5 2433.6217,-243.5 2520.6217,-243.5 2520.6217,-224.5 2433.6217,-224.5"/>
<text text-anchor="middle" x="2477.1217" y="-231.5" font-family="Helvetica,sans-Serif" font-size="10.00" fill="#000000">GameWorld.hpp</text>
</a>
</g>
</g>
<!-- Node0&#45;&gt;Node19 -->
<g id="edge27" class="edge">
<title>Node0&#45;&gt;Node19</title>
<path fill="none" stroke="#191970" d="M689.4145,-515.3664C771.0193,-504.3836 907.7171,-485.6594 1025.1217,-468 1572.1257,-385.7226 2233.1545,-275.124 2423.4943,-243.0592"/>
<polygon fill="#191970" stroke="#191970" points="2424.2395,-246.483 2433.5187,-241.3697 2423.0761,-239.5804 2424.2395,-246.483"/>
</g>
<!-- Node21 -->
<g id="node22" class="node">
<title>Node21</title>
<g id="a_node22"><a xlink:href="Bullet_8hpp.html" target="_top" xlink:title="Bullet.hpp">
<polygon fill="none" stroke="#000000" points="2753.1217,-280.5 2753.1217,-299.5 2813.1217,-299.5 2813.1217,-280.5 2753.1217,-280.5"/>
<text text-anchor="middle" x="2783.1217" y="-287.5" font-family="Helvetica,sans-Serif" font-size="10.00" fill="#000000">Bullet.hpp</text>
</a>
</g>
</g>
<!-- Node0&#45;&gt;Node21 -->
<g id="edge33" class="edge">
<title>Node0&#45;&gt;Node21</title>
<path fill="none" stroke="#191970" d="M689.2593,-524.6308C990.3547,-522.8118 2147.9415,-512.9769 2510.1217,-468 2624.8405,-453.7538 2667.6664,-475.716 2764.1217,-412 2789.6423,-395.1417 2794.7875,-385.127 2804.1217,-356 2809.2596,-339.9672 2802.4954,-321.729 2795.3115,-308.4939"/>
<polygon fill="#191970" stroke="#191970" points="2798.2884,-306.6522 2790.1705,-299.844 2792.271,-310.2286 2798.2884,-306.6522"/>
</g>
<!-- Node22 -->
<g id="node23" class="node">
<title>Node22</title>
<g id="a_node23"><a xlink:href="Main__Player_8hpp.html" target="_top" xlink:title="Main_Player.hpp">
<polygon fill="none" stroke="#000000" points="2665.6217,-392.5 2665.6217,-411.5 2754.6217,-411.5 2754.6217,-392.5 2665.6217,-392.5"/>
<text text-anchor="middle" x="2710.1217" y="-399.5" font-family="Helvetica,sans-Serif" font-size="10.00" fill="#000000">Main_Player.hpp</text>
</a>
</g>
</g>
<!-- Node0&#45;&gt;Node22 -->
<g id="edge36" class="edge">
<title>Node0&#45;&gt;Node22</title>
<path fill="none" stroke="#191970" d="M689.2924,-524.8001C983.9983,-523.6671 2096.9952,-516.2178 2445.1217,-468 2526.795,-456.6877 2619.795,-430.2873 2671.0424,-414.5184"/>
<polygon fill="#191970" stroke="#191970" points="2672.2069,-417.8218 2680.7194,-411.5141 2670.1313,-411.1366 2672.2069,-417.8218"/>
</g>
<!-- Node27 -->
<g id="node28" class="node">
<title>Node27</title>
<g id="a_node28"><a xlink:href="HUD_8hpp.html" target="_top" xlink:title="HUD.hpp">
<polygon fill="none" stroke="#000000" points="551.1217,-224.5 551.1217,-243.5 609.1217,-243.5 609.1217,-224.5 551.1217,-224.5"/>
<text text-anchor="middle" x="580.1217" y="-231.5" font-family="Helvetica,sans-Serif" font-size="10.00" fill="#000000">HUD.hpp</text>
</a>
</g>
</g>
<!-- Node0&#45;&gt;Node27 -->
<g id="edge47" class="edge">
<title>Node0&#45;&gt;Node27</title>
<path fill="none" stroke="#191970" d="M609.4705,-504.4325C601.1803,-480.2667 589.1217,-438.7928 589.1217,-402 589.1217,-402 589.1217,-402 589.1217,-346 589.1217,-313.6075 585.3349,-276.1141 582.674,-253.7662"/>
<polygon fill="#191970" stroke="#191970" points="586.1136,-253.0616 581.4111,-243.5676 579.1666,-253.9219 586.1136,-253.0616"/>
</g>
<!-- Node28 -->
<g id="node29" class="node">
<title>Node28</title>
<polygon fill="none" stroke="#bfbfbf" points="554.1217,-56.5 554.1217,-75.5 640.1217,-75.5 640.1217,-56.5 554.1217,-56.5"/>
<text text-anchor="middle" x="597.1217" y="-63.5" font-family="Helvetica,sans-Serif" font-size="10.00" fill="#000000">tmxlite/Map.hpp</text>
</g>
<!-- Node0&#45;&gt;Node28 -->
<g id="edge51" class="edge">
<title>Node0&#45;&gt;Node28</title>
<path fill="none" stroke="#191970" d="M622.5868,-504.2741C628.5084,-479.9597 637.1217,-438.3462 637.1217,-402 637.1217,-402 637.1217,-402 637.1217,-178 637.1217,-143.4432 620.0246,-106.1996 608.1859,-84.5529"/>
<polygon fill="#191970" stroke="#191970" points="611.1794,-82.7365 603.1968,-75.7703 605.0929,-86.1941 611.1794,-82.7365"/>
</g>
<!-- Node29 -->
<g id="node30" class="node">
<title>Node29</title>
<g id="a_node30"><a xlink:href="SFMLOrthogonalLayer_8hpp.html" target="_top" xlink:title="SFMLOrthogonalLayer.hpp">
<polygon fill="none" stroke="#000000" points="1318.6217,-112.5 1318.6217,-131.5 1451.6217,-131.5 1451.6217,-112.5 1318.6217,-112.5"/>
<text text-anchor="middle" x="1385.1217" y="-119.5" font-family="Helvetica,sans-Serif" font-size="10.00" fill="#000000">SFMLOrthogonalLayer.hpp</text>
</a>
</g>
</g>
<!-- Node0&#45;&gt;Node29 -->
<g id="edge52" class="edge">
<title>Node0&#45;&gt;Node29</title>
<path fill="none" stroke="#191970" d="M689.3873,-517.3881C803.1318,-503.3759 1011.1217,-468.6424 1011.1217,-402 1011.1217,-402 1011.1217,-402 1011.1217,-346 1011.1217,-208.7524 1198.7824,-153.5491 1308.2431,-133.0234"/>
<polygon fill="#191970" stroke="#191970" points="1309.0462,-136.4348 1318.258,-131.201 1307.7929,-129.5479 1309.0462,-136.4348"/>
</g>
<!-- Node42 -->
<g id="node43" class="node">
<title>Node42</title>
<g id="a_node43"><a xlink:href="LoadingGameObjects_8hpp.html" target="_top" xlink:title="LoadingGameObjects.hpp">
<polygon fill="none" stroke="#000000" points="2306.6217,-448.5 2306.6217,-467.5 2435.6217,-467.5 2435.6217,-448.5 2306.6217,-448.5"/>
<text text-anchor="middle" x="2371.1217" y="-455.5" font-family="Helvetica,sans-Serif" font-size="10.00" fill="#000000">LoadingGameObjects.hpp</text>
</a>
</g>
</g>
<!-- Node0&#45;&gt;Node42 -->
<g id="edge71" class="edge">
<title>Node0&#45;&gt;Node42</title>
<path fill="none" stroke="#191970" d="M689.1506,-522.2486C972.3556,-511.4306 2007.9003,-471.8745 2296.1875,-460.8624"/>
<polygon fill="#191970" stroke="#191970" points="2296.6711,-464.3465 2306.5302,-460.4673 2296.4039,-457.3516 2296.6711,-464.3465"/>
</g>
<!-- Node5&#45;&gt;Node1 -->
<g id="edge8" class="edge">
<title>Node5&#45;&gt;Node1</title>
<path fill="none" stroke="#191970" d="M507.3519,-168.3656C494.5329,-159.9543 476.5919,-146.7993 464.1217,-132 438.3699,-101.4386 424.9225,-55.6126 418.9946,-29.6983"/>
<polygon fill="#191970" stroke="#191970" points="422.3528,-28.6644 416.8414,-19.6159 415.5071,-30.1264 422.3528,-28.6644"/>
</g>
<!-- Node6 -->
<g id="node7" class="node">
<title>Node6</title>
<polygon fill="none" stroke="#bfbfbf" points="267.1217,-56.5 267.1217,-75.5 319.1217,-75.5 319.1217,-56.5 267.1217,-56.5"/>
<text text-anchor="middle" x="293.1217" y="-63.5" font-family="Helvetica,sans-Serif" font-size="10.00" fill="#000000">memory</text>
</g>
<!-- Node5&#45;&gt;Node6 -->
<g id="edge6" class="edge">
<title>Node5&#45;&gt;Node6</title>
<path fill="none" stroke="#191970" d="M491.8135,-175.0864C439.5817,-169.6055 337.8465,-156.0892 312.1217,-132 299.4989,-120.1798 295.0803,-100.5696 293.6214,-85.7896"/>
<polygon fill="#191970" stroke="#191970" points="297.1044,-85.4036 292.9959,-75.6378 290.1176,-85.8342 297.1044,-85.4036"/>
</g>
<!-- Node7 -->
<g id="node8" class="node">
<title>Node7</title>
<polygon fill="none" stroke="#bfbfbf" points="647.6217,-.5 647.6217,-19.5 688.6217,-19.5 688.6217,-.5 647.6217,-.5"/>
<text text-anchor="middle" x="668.1217" y="-7.5" font-family="Helvetica,sans-Serif" font-size="10.00" fill="#000000">string</text>
</g>
<!-- Node5&#45;&gt;Node7 -->
<g id="edge7" class="edge">
<title>Node5&#45;&gt;Node7</title>
<path fill="none" stroke="#191970" d="M542.3317,-168.4505C555.6483,-160.663 572.3342,-148.2917 580.1217,-132 583.9551,-123.9802 583.4654,-120.236 580.1217,-112 571.7273,-91.3237 553.516,-96.6763 545.1217,-76 541.7779,-67.764 540.0553,-63.3037 545.1217,-56 555.9383,-40.4064 604.7054,-25.6403 637.4883,-17.2202"/>
<polygon fill="#191970" stroke="#191970" points="638.6497,-20.5376 647.5021,-14.7164 636.9517,-13.7467 638.6497,-20.5376"/>
</g>
<!-- Node8 -->
<g id="node9" class="node">
<title>Node8</title>
<g id="a_node9"><a xlink:href="StateMachine_8hpp.html" target="_top" xlink:title="StateMachine.hpp">
<polygon fill="none" stroke="#000000" points="169.6217,-112.5 169.6217,-131.5 264.6217,-131.5 264.6217,-112.5 169.6217,-112.5"/>
<text text-anchor="middle" x="217.1217" y="-119.5" font-family="Helvetica,sans-Serif" font-size="10.00" fill="#000000">StateMachine.hpp</text>
</a>
</g>
</g>
<!-- Node5&#45;&gt;Node8 -->
<g id="edge9" class="edge">
<title>Node5&#45;&gt;Node8</title>
<path fill="none" stroke="#191970" d="M492.0968,-172.3222C441.1851,-163.0051 339.1407,-144.3303 274.6955,-132.5364"/>
<polygon fill="#191970" stroke="#191970" points="275.1556,-129.0625 264.6888,-130.7051 273.8954,-135.9482 275.1556,-129.0625"/>
</g>
<!-- Node10 -->
<g id="node11" class="node">
<title>Node10</title>
<g id="a_node11"><a xlink:href="AssetManager_8hpp.html" target="_top" xlink:title="AssetManager.hpp">
<polygon fill="none" stroke="#000000" points="473.1217,-112.5 473.1217,-131.5 571.1217,-131.5 571.1217,-112.5 473.1217,-112.5"/>
<text text-anchor="middle" x="522.1217" y="-119.5" font-family="Helvetica,sans-Serif" font-size="10.00" fill="#000000">AssetManager.hpp</text>
</a>
</g>
</g>
<!-- Node5&#45;&gt;Node10 -->
<g id="edge13" class="edge">
<title>Node5&#45;&gt;Node10</title>
<path fill="none" stroke="#191970" d="M522.9475,-168.2455C522.817,-160.9382 522.6341,-150.6944 522.4735,-141.7046"/>
<polygon fill="#191970" stroke="#191970" points="525.9719,-141.5786 522.2939,-131.6427 518.9731,-141.7036 525.9719,-141.5786"/>
</g>
<!-- Node12 -->
<g id="node13" class="node">
<title>Node12</title>
<g id="a_node13"><a xlink:href="InputManager_8hpp.html" target="_top" xlink:title="InputManager.hpp">
<polygon fill="none" stroke="#000000" points="321.6217,-112.5 321.6217,-131.5 416.6217,-131.5 416.6217,-112.5 321.6217,-112.5"/>
<text text-anchor="middle" x="369.1217" y="-119.5" font-family="Helvetica,sans-Serif" font-size="10.00" fill="#000000">InputManager.hpp</text>
</a>
</g>
</g>
<!-- Node5&#45;&gt;Node12 -->
<g id="edge16" class="edge">
<title>Node5&#45;&gt;Node12</title>
<path fill="none" stroke="#191970" d="M496.6481,-168.3733C471.262,-159.1419 432.7572,-145.1402 404.6997,-134.9375"/>
<polygon fill="#191970" stroke="#191970" points="405.8438,-131.6293 395.2498,-131.5011 403.4516,-138.2079 405.8438,-131.6293"/>
</g>
<!-- Node13 -->
<g id="node14" class="node">
<title>Node13</title>
<g id="a_node14"><a xlink:href="entity__manager_8h.html" target="_top" xlink:title="entity_manager.h">
<polygon fill="none" stroke="#000000" points="2433.1217,-112.5 2433.1217,-131.5 2525.1217,-131.5 2525.1217,-112.5 2433.1217,-112.5"/>
<text text-anchor="middle" x="2479.1217" y="-119.5" font-family="Helvetica,sans-Serif" font-size="10.00" fill="#000000">entity_manager.h</text>
</a>
</g>
</g>
<!-- Node5&#45;&gt;Node13 -->
<g id="edge18" class="edge">
<title>Node5&#45;&gt;Node13</title>
<path fill="none" stroke="#191970" d="M554.2407,-177.1091C777.0154,-170.7311 2128.9085,-132.0266 2422.7753,-123.6132"/>
<polygon fill="#191970" stroke="#191970" points="2422.8834,-127.1116 2432.7791,-123.3268 2422.683,-120.1145 2422.8834,-127.1116"/>
</g>
<!-- Node8&#45;&gt;Node4 -->
<g id="edge12" class="edge">
<title>Node8&#45;&gt;Node4</title>
<path fill="none" stroke="#191970" d="M196.4929,-112.3733C177.2298,-103.3838 148.273,-89.8706 126.5797,-79.7471"/>
<polygon fill="#191970" stroke="#191970" points="128.0232,-76.5584 117.4812,-75.5011 125.0629,-82.9017 128.0232,-76.5584"/>
</g>
<!-- Node8&#45;&gt;Node6 -->
<g id="edge10" class="edge">
<title>Node8&#45;&gt;Node6</title>
<path fill="none" stroke="#191970" d="M230.3599,-112.2455C241.8026,-103.814 258.5513,-91.4729 271.8691,-81.6598"/>
<polygon fill="#191970" stroke="#191970" points="274.0608,-84.3924 280.0352,-75.6427 269.9084,-78.757 274.0608,-84.3924"/>
</g>
<!-- Node9 -->
<g id="node10" class="node">
<title>Node9</title>
<polygon fill="none" stroke="#bfbfbf" points="196.6217,-56.5 196.6217,-75.5 237.6217,-75.5 237.6217,-56.5 196.6217,-56.5"/>
<text text-anchor="middle" x="217.1217" y="-63.5" font-family="Helvetica,sans-Serif" font-size="10.00" fill="#000000">stack</text>
</g>
<!-- Node8&#45;&gt;Node9 -->
<g id="edge11" class="edge">
<title>Node8&#45;&gt;Node9</title>
<path fill="none" stroke="#191970" d="M217.1217,-112.2455C217.1217,-104.9382 217.1217,-94.6944 217.1217,-85.7046"/>
<polygon fill="#191970" stroke="#191970" points="220.6218,-85.6426 217.1217,-75.6427 213.6218,-85.6427 220.6218,-85.6426"/>
</g>
<!-- Node10&#45;&gt;Node1 -->
<g id="edge15" class="edge">
<title>Node10&#45;&gt;Node1</title>
<path fill="none" stroke="#191970" d="M503.1147,-112.4851C488.1918,-104.3222 467.5879,-91.4478 453.1217,-76 440.1767,-62.1767 429.8215,-43.1606 423.2104,-29.0899"/>
<polygon fill="#191970" stroke="#191970" points="426.3589,-27.557 419.0748,-19.8633 419.9712,-30.4201 426.3589,-27.557"/>
</g>
<!-- Node11 -->
<g id="node12" class="node">
<title>Node11</title>
<polygon fill="none" stroke="#bfbfbf" points="462.6217,-56.5 462.6217,-75.5 497.6217,-75.5 497.6217,-56.5 462.6217,-56.5"/>
<text text-anchor="middle" x="480.1217" y="-63.5" font-family="Helvetica,sans-Serif" font-size="10.00" fill="#000000">map</text>
</g>
<!-- Node10&#45;&gt;Node11 -->
<g id="edge14" class="edge">
<title>Node10&#45;&gt;Node11</title>
<path fill="none" stroke="#191970" d="M514.8058,-112.2455C508.9038,-104.3761 500.4474,-93.101 493.3623,-83.6542"/>
<polygon fill="#191970" stroke="#191970" points="496.1537,-81.5427 487.3537,-75.6427 490.5537,-85.7427 496.1537,-81.5427"/>
</g>
<!-- Node12&#45;&gt;Node1 -->
<g id="edge17" class="edge">
<title>Node12&#45;&gt;Node1</title>
<path fill="none" stroke="#191970" d="M369.7454,-112.2189C370.8754,-98.9852 373.9589,-74.8638 382.1217,-56 386.4787,-45.9311 393.3103,-35.8971 399.63,-27.7821"/>
<polygon fill="#191970" stroke="#191970" points="402.522,-29.7746 406.1454,-19.8186 397.1042,-25.3419 402.522,-29.7746"/>
</g>
<!-- Node14 -->
<g id="node15" class="node">
<title>Node14</title>
<polygon fill="none" stroke="#bfbfbf" points="2441.6217,-56.5 2441.6217,-75.5 2524.6217,-75.5 2524.6217,-56.5 2441.6217,-56.5"/>
<text text-anchor="middle" x="2483.1217" y="-63.5" font-family="Helvetica,sans-Serif" font-size="10.00" fill="#000000">unordered_map</text>
</g>
<!-- Node13&#45;&gt;Node14 -->
<g id="edge19" class="edge">
<title>Node13&#45;&gt;Node14</title>
<path fill="none" stroke="#191970" d="M2479.8184,-112.2455C2480.3404,-104.9382 2481.0721,-94.6944 2481.7142,-85.7046"/>
<polygon fill="#191970" stroke="#191970" points="2485.2114,-85.8667 2482.4329,-75.6427 2478.2292,-85.3679 2485.2114,-85.8667"/>
</g>
<!-- Node15 -->
<g id="node16" class="node">
<title>Node15</title>
<polygon fill="none" stroke="#bfbfbf" points="2379.1217,-56.5 2379.1217,-75.5 2423.1217,-75.5 2423.1217,-56.5 2379.1217,-56.5"/>
<text text-anchor="middle" x="2401.1217" y="-63.5" font-family="Helvetica,sans-Serif" font-size="10.00" fill="#000000">vector</text>
</g>
<!-- Node13&#45;&gt;Node15 -->
<g id="edge20" class="edge">
<title>Node13&#45;&gt;Node15</title>
<path fill="none" stroke="#191970" d="M2465.5351,-112.2455C2453.7912,-103.814 2436.6018,-91.4729 2422.9335,-81.6598"/>
<polygon fill="#191970" stroke="#191970" points="2424.717,-78.6316 2414.5525,-75.6427 2420.6346,-84.3179 2424.717,-78.6316"/>
</g>
<!-- Node16 -->
<g id="node17" class="node">
<title>Node16</title>
<polygon fill="none" stroke="#bfbfbf" points="2569.1217,-.5 2569.1217,-19.5 2649.1217,-19.5 2649.1217,-.5 2569.1217,-.5"/>
<text text-anchor="middle" x="2609.1217" y="-7.5" font-family="Helvetica,sans-Serif" font-size="10.00" fill="#000000">box2d/box2d.h</text>
</g>
<!-- Node13&#45;&gt;Node16 -->
<g id="edge21" class="edge">
<title>Node13&#45;&gt;Node16</title>
<path fill="none" stroke="#191970" d="M2525.3566,-115.0687C2567.8372,-107.6431 2626.2484,-94.3923 2640.1217,-76 2651.465,-60.9618 2639.1491,-41.1078 2626.8449,-27.1168"/>
<polygon fill="#191970" stroke="#191970" points="2629.1917,-24.5042 2619.7808,-19.6374 2624.1026,-29.3106 2629.1917,-24.5042"/>
</g>
<!-- Node17 -->
<g id="node18" class="node">
<title>Node17</title>
<g id="a_node18"><a xlink:href="entity_8h.html" target="_top" xlink:title="entity.h">
<polygon fill="none" stroke="#000000" points="2581.6217,-56.5 2581.6217,-75.5 2630.6217,-75.5 2630.6217,-56.5 2581.6217,-56.5"/>
<text text-anchor="middle" x="2606.1217" y="-63.5" font-family="Helvetica,sans-Serif" font-size="10.00" fill="#000000">entity.h</text>
</a>
</g>
</g>
<!-- Node13&#45;&gt;Node17 -->
<g id="edge22" class="edge">
<title>Node13&#45;&gt;Node17</title>
<path fill="none" stroke="#191970" d="M2500.9537,-112.3733C2521.432,-103.3435 2552.2615,-89.7494 2575.2536,-79.6111"/>
<polygon fill="#191970" stroke="#191970" points="2576.8367,-82.7383 2584.5745,-75.5011 2574.0124,-76.3333 2576.8367,-82.7383"/>
</g>
<!-- Node17&#45;&gt;Node1 -->
<g id="edge23" class="edge">
<title>Node17&#45;&gt;Node1</title>
<path fill="none" stroke="#191970" d="M2581.5353,-58.7756C2576.7911,-57.644 2571.8316,-56.639 2567.1217,-56 2142.4921,1.605 1067.4263,-33.5568 639.1217,-20 584.4356,-18.2691 522.2769,-15.4245 477.3352,-13.2108"/>
<polygon fill="#191970" stroke="#191970" points="477.3193,-9.7058 467.1581,-12.7058 476.9723,-16.6972 477.3193,-9.7058"/>
</g>
<!-- Node17&#45;&gt;Node7 -->
<g id="edge24" class="edge">
<title>Node17&#45;&gt;Node7</title>
<path fill="none" stroke="#191970" d="M2581.5324,-58.7968C2576.7885,-57.6632 2571.8298,-56.652 2567.1217,-56 2374.7821,-29.3637 929.0594,-12.804 698.9511,-10.3247"/>
<polygon fill="#191970" stroke="#191970" points="698.6715,-6.8216 688.6345,-10.2143 698.5965,-13.8212 698.6715,-6.8216"/>
</g>
<!-- Node17&#45;&gt;Node16 -->
<g id="edge25" class="edge">
<title>Node17&#45;&gt;Node16</title>
<path fill="none" stroke="#191970" d="M2606.6442,-56.2455C2607.0357,-48.9382 2607.5845,-38.6944 2608.0661,-29.7046"/>
<polygon fill="#191970" stroke="#191970" points="2611.565,-29.8156 2608.6051,-19.6427 2604.5751,-29.4411 2611.565,-29.8156"/>
</g>
<!-- Node18 -->
<g id="node19" class="node">
<title>Node18</title>
<polygon fill="none" stroke="#bfbfbf" points="2689.1217,-.5 2689.1217,-19.5 2743.1217,-19.5 2743.1217,-.5 2689.1217,-.5"/>
<text text-anchor="middle" x="2716.1217" y="-7.5" font-family="Helvetica,sans-Serif" font-size="10.00" fill="#000000">iostream</text>
</g>
<!-- Node17&#45;&gt;Node18 -->
<g id="edge26" class="edge">
<title>Node17&#45;&gt;Node18</title>
<path fill="none" stroke="#191970" d="M2625.2822,-56.2455C2642.6328,-47.4125 2668.4117,-34.2887 2688.08,-24.2758"/>
<polygon fill="#191970" stroke="#191970" points="2689.857,-27.2986 2697.1807,-19.6427 2686.6811,-21.0605 2689.857,-27.2986"/>
</g>
<!-- Node19&#45;&gt;Node1 -->
<g id="edge28" class="edge">
<title>Node19&#45;&gt;Node1</title>
<path fill="none" stroke="#191970" d="M2485.8641,-224.3842C2511.5929,-194.9497 2582.3,-105.1023 2534.1217,-56 2497.2489,-18.4201 691.7434,-21.6742 639.1217,-20 584.4359,-18.2602 522.2771,-15.4164 477.3353,-13.2054"/>
<polygon fill="#191970" stroke="#191970" points="477.3192,-9.7004 467.1582,-12.7011 476.9727,-16.6918 477.3192,-9.7004"/>
</g>
<!-- Node19&#45;&gt;Node5 -->
<g id="edge30" class="edge">
<title>Node19&#45;&gt;Node5</title>
<path fill="none" stroke="#191970" d="M2433.5699,-232.7518C2172.6582,-225.2743 819.3794,-186.4905 564.5319,-179.1868"/>
<polygon fill="#191970" stroke="#191970" points="564.3329,-175.6797 554.2367,-178.8917 564.1323,-182.6769 564.3329,-175.6797"/>
</g>
<!-- Node19&#45;&gt;Node13 -->
<g id="edge31" class="edge">
<title>Node19&#45;&gt;Node13</title>
<path fill="none" stroke="#191970" d="M2477.2922,-224.4509C2477.6184,-206.184 2478.3368,-165.9553 2478.7699,-141.6976"/>
<polygon fill="#191970" stroke="#191970" points="2482.2724,-141.5858 2478.9516,-131.5249 2475.2735,-141.4608 2482.2724,-141.5858"/>
</g>
<!-- Node19&#45;&gt;Node15 -->
<g id="edge32" class="edge">
<title>Node19&#45;&gt;Node15</title>
<path fill="none" stroke="#191970" d="M2471.5263,-224.3809C2461.2914,-206.5517 2439.2196,-166.9987 2424.1217,-132 2417.5129,-116.6802 2411.3682,-98.7771 2407.0956,-85.4853"/>
<polygon fill="#191970" stroke="#191970" points="2410.3146,-84.0537 2403.9779,-75.5627 2403.6365,-86.152 2410.3146,-84.0537"/>
</g>
<!-- Node20 -->
<g id="node21" class="node">
<title>Node20</title>
<g id="a_node21"><a xlink:href="DEFINITIONS_8hpp.html" target="_top" xlink:title="DEFINITIONS.hpp">
<polygon fill="none" stroke="#000000" points="2313.1217,-168.5 2313.1217,-187.5 2413.1217,-187.5 2413.1217,-168.5 2313.1217,-168.5"/>
<text text-anchor="middle" x="2363.1217" y="-175.5" font-family="Helvetica,sans-Serif" font-size="10.00" fill="#000000">DEFINITIONS.hpp</text>
</a>
</g>
</g>
<!-- Node19&#45;&gt;Node20 -->
<g id="edge29" class="edge">
<title>Node19&#45;&gt;Node20</title>
<path fill="none" stroke="#191970" d="M2457.5244,-224.3733C2439.3885,-215.4644 2412.2082,-202.1127 2391.663,-192.0203"/>
<polygon fill="#191970" stroke="#191970" points="2392.982,-188.7688 2382.4632,-187.5011 2389.8956,-195.0517 2392.982,-188.7688"/>
</g>
<!-- Node21&#45;&gt;Node18 -->
<g id="edge35" class="edge">
<title>Node21&#45;&gt;Node18</title>
<path fill="none" stroke="#191970" d="M2782.6918,-280.4139C2781.8623,-261.0603 2780.1217,-215.9303 2780.1217,-178 2780.1217,-178 2780.1217,-178 2780.1217,-122 2780.1217,-84.2379 2752.3563,-47.6312 2733.4015,-27.0404"/>
<polygon fill="#191970" stroke="#191970" points="2735.8448,-24.5312 2726.4044,-19.7219 2730.7852,-29.3686 2735.8448,-24.5312"/>
</g>
<!-- Node21&#45;&gt;Node19 -->
<g id="edge34" class="edge">
<title>Node21&#45;&gt;Node19</title>
<path fill="none" stroke="#191970" d="M2752.9438,-284.4772C2701.2764,-275.0218 2595.2201,-255.6128 2530.7202,-243.8089"/>
<polygon fill="#191970" stroke="#191970" points="2531.2066,-240.3398 2520.7399,-241.9824 2529.9464,-247.2255 2531.2066,-240.3398"/>
</g>
<!-- Node22&#45;&gt;Node18 -->
<g id="edge43" class="edge">
<title>Node22&#45;&gt;Node18</title>
<path fill="none" stroke="#191970" d="M2754.6735,-393.3925C2805.9321,-380.6017 2883.1217,-351.1829 2883.1217,-290 2883.1217,-290 2883.1217,-290 2883.1217,-122 2883.1217,-59.9133 2802.5203,-30.037 2753.3092,-17.582"/>
<polygon fill="#191970" stroke="#191970" points="2753.8657,-14.1162 2743.3248,-15.1834 2752.2305,-20.9226 2753.8657,-14.1162"/>
</g>
<!-- Node22&#45;&gt;Node19 -->
<g id="edge37" class="edge">
<title>Node22&#45;&gt;Node19</title>
<path fill="none" stroke="#191970" d="M2745.2473,-392.3549C2765.036,-385.2649 2788.7848,-373.723 2804.1217,-356 2826.8362,-329.7515 2844.9875,-306.1169 2822.1217,-280 2803.2505,-258.4457 2623.0154,-243.5825 2530.844,-237.3253"/>
<polygon fill="#191970" stroke="#191970" points="2531.0739,-233.833 2520.8627,-236.658 2530.6069,-240.8174 2531.0739,-233.833"/>
</g>
<!-- Node22&#45;&gt;Node21 -->
<g id="edge38" class="edge">
<title>Node22&#45;&gt;Node21</title>
<path fill="none" stroke="#191970" d="M2740.8408,-392.4362C2758.0291,-385.3313 2777.9848,-373.7464 2788.1217,-356 2796.1268,-341.9855 2793.8429,-323.4822 2790.1504,-309.6342"/>
<polygon fill="#191970" stroke="#191970" points="2793.3721,-308.2079 2787.0568,-299.701 2786.6888,-310.2895 2793.3721,-308.2079"/>
</g>
<!-- Node23 -->
<g id="node24" class="node">
<title>Node23</title>
<g id="a_node24"><a xlink:href="Gun_8hpp.html" target="_top" xlink:title="Gun.hpp">
<polygon fill="none" stroke="#000000" points="2451.6217,-336.5 2451.6217,-355.5 2504.6217,-355.5 2504.6217,-336.5 2451.6217,-336.5"/>
<text text-anchor="middle" x="2478.1217" y="-343.5" font-family="Helvetica,sans-Serif" font-size="10.00" fill="#000000">Gun.hpp</text>
</a>
</g>
</g>
<!-- Node22&#45;&gt;Node23 -->
<g id="edge39" class="edge">
<title>Node22&#45;&gt;Node23</title>
<path fill="none" stroke="#191970" d="M2670.5031,-392.4369C2626.8637,-381.9032 2557.2618,-365.1028 2514.8228,-354.8589"/>
<polygon fill="#191970" stroke="#191970" points="2515.451,-351.4101 2504.9089,-352.4659 2513.8085,-358.2147 2515.451,-351.4101"/>
</g>
<!-- Node24 -->
<g id="node25" class="node">
<title>Node24</title>
<polygon fill="none" stroke="#bfbfbf" points="2561.1217,-336.5 2561.1217,-355.5 2609.1217,-355.5 2609.1217,-336.5 2561.1217,-336.5"/>
<text text-anchor="middle" x="2585.1217" y="-343.5" font-family="Helvetica,sans-Serif" font-size="10.00" fill="#000000">stdlib.h</text>
</g>
<!-- Node22&#45;&gt;Node24 -->
<g id="edge44" class="edge">
<title>Node22&#45;&gt;Node24</title>
<path fill="none" stroke="#191970" d="M2688.6334,-392.3733C2668.4777,-383.3435 2638.1336,-369.7494 2615.5036,-359.6111"/>
<polygon fill="#191970" stroke="#191970" points="2616.8866,-356.3955 2606.3295,-355.5011 2614.0246,-362.7838 2616.8866,-356.3955"/>
</g>
<!-- Node25 -->
<g id="node26" class="node">
<title>Node25</title>
<polygon fill="none" stroke="#bfbfbf" points="2665.1217,-336.5 2665.1217,-355.5 2709.1217,-355.5 2709.1217,-336.5 2665.1217,-336.5"/>
<text text-anchor="middle" x="2687.1217" y="-343.5" font-family="Helvetica,sans-Serif" font-size="10.00" fill="#000000">time.h</text>
</g>
<!-- Node22&#45;&gt;Node25 -->
<g id="edge45" class="edge">
<title>Node22&#45;&gt;Node25</title>
<path fill="none" stroke="#191970" d="M2706.1154,-392.2455C2703.0482,-384.7776 2698.7213,-374.2427 2694.9719,-365.1137"/>
<polygon fill="#191970" stroke="#191970" points="2698.1189,-363.5631 2691.0821,-355.6427 2691.6437,-366.2226 2698.1189,-363.5631"/>
</g>
<!-- Node26 -->
<g id="node27" class="node">
<title>Node26</title>
<polygon fill="none" stroke="#bfbfbf" points="2727.6217,-336.5 2727.6217,-355.5 2778.6217,-355.5 2778.6217,-336.5 2727.6217,-336.5"/>
<text text-anchor="middle" x="2753.1217" y="-343.5" font-family="Helvetica,sans-Serif" font-size="10.00" fill="#000000">unistd.h</text>
</g>
<!-- Node22&#45;&gt;Node26 -->
<g id="edge46" class="edge">
<title>Node22&#45;&gt;Node26</title>
<path fill="none" stroke="#191970" d="M2717.6117,-392.2455C2723.6543,-384.3761 2732.312,-373.101 2739.5658,-363.6542"/>
<polygon fill="#191970" stroke="#191970" points="2742.4032,-365.7058 2745.7175,-355.6427 2736.8511,-361.4426 2742.4032,-365.7058"/>
</g>
<!-- Node23&#45;&gt;Node18 -->
<g id="edge42" class="edge">
<title>Node23&#45;&gt;Node18</title>
<path fill="none" stroke="#191970" d="M2504.7883,-338.3901C2560.5244,-321.8623 2686.0307,-281.176 2708.1217,-244 2749.2949,-174.7112 2731.4871,-72.3777 2721.364,-29.7549"/>
<polygon fill="#191970" stroke="#191970" points="2724.7025,-28.6777 2718.8819,-19.825 2717.9115,-30.3753 2724.7025,-28.6777"/>
</g>
<!-- Node23&#45;&gt;Node19 -->
<g id="edge40" class="edge">
<title>Node23&#45;&gt;Node19</title>
<path fill="none" stroke="#191970" d="M2478.0364,-336.4509C2477.8733,-318.184 2477.5141,-277.9553 2477.2975,-253.6976"/>
<polygon fill="#191970" stroke="#191970" points="2480.796,-253.4932 2477.2067,-243.5249 2473.7962,-253.5558 2480.796,-253.4932"/>
</g>
<!-- Node23&#45;&gt;Node21 -->
<g id="edge41" class="edge">
<title>Node23&#45;&gt;Node21</title>
<path fill="none" stroke="#191970" d="M2504.9614,-339.1401C2509.6667,-338.0273 2514.5267,-336.9349 2519.1217,-336 2616.2108,-316.2468 2641.8799,-318.9878 2739.1217,-300 2740.3759,-299.7551 2741.6489,-299.5008 2742.9332,-299.2393"/>
<polygon fill="#191970" stroke="#191970" points="2743.8207,-302.629 2752.8767,-297.13 2742.368,-295.7814 2743.8207,-302.629"/>
</g>
<!-- Node27&#45;&gt;Node1 -->
<g id="edge48" class="edge">
<title>Node27&#45;&gt;Node1</title>
<path fill="none" stroke="#191970" d="M551.1111,-230.2722C449.1311,-216.4645 110.4423,-164.4124 58.1217,-76 53.5947,-68.3502 52.2516,-62.6749 58.1217,-56 77.2534,-34.245 255.9881,-19.8707 353.0655,-13.5994"/>
<polygon fill="#191970" stroke="#191970" points="353.2969,-17.0919 363.0546,-12.9641 352.8525,-10.106 353.2969,-17.0919"/>
</g>
<!-- Node27&#45;&gt;Node5 -->
<g id="edge50" class="edge">
<title>Node27&#45;&gt;Node5</title>
<path fill="none" stroke="#191970" d="M570.193,-224.2455C561.9379,-216.1352 550.0007,-204.4075 540.2134,-194.7919"/>
<polygon fill="#191970" stroke="#191970" points="542.5228,-192.1542 532.9365,-187.6427 537.617,-197.1476 542.5228,-192.1542"/>
</g>
<!-- Node27&#45;&gt;Node20 -->
<g id="edge49" class="edge">
<title>Node27&#45;&gt;Node20</title>
<path fill="none" stroke="#191970" d="M609.2149,-233.0862C812.2921,-226.7081 2018.1038,-188.8362 2302.8783,-179.8921"/>
<polygon fill="#191970" stroke="#191970" points="2303.1251,-183.3862 2313.0103,-179.5739 2302.9053,-176.3896 2303.1251,-183.3862"/>
</g>
<!-- Node29&#45;&gt;Node6 -->
<g id="edge63" class="edge">
<title>Node29&#45;&gt;Node6</title>
<path fill="none" stroke="#191970" d="M1318.429,-119.0087C1165.4352,-112.0809 777.4299,-94.1372 453.1217,-76 410.679,-73.6264 361.9279,-70.5255 329.5034,-68.4101"/>
<polygon fill="#191970" stroke="#191970" points="329.3734,-64.8941 319.1659,-67.7329 328.9157,-71.8792 329.3734,-64.8941"/>
</g>
<!-- Node29&#45;&gt;Node7 -->
<g id="edge67" class="edge">
<title>Node29&#45;&gt;Node7</title>
<path fill="none" stroke="#191970" d="M1318.5408,-119.6438C1148.9963,-113.3726 712.5742,-95.4217 688.1217,-76 674.5244,-65.2002 669.9145,-45.4542 668.4729,-30.3648"/>
<polygon fill="#191970" stroke="#191970" points="671.944,-29.748 667.8917,-19.9588 664.9549,-30.1385 671.944,-29.748"/>
</g>
<!-- Node29&#45;&gt;Node11 -->
<g id="edge66" class="edge">
<title>Node29&#45;&gt;Node11</title>
<path fill="none" stroke="#191970" d="M1318.5219,-120.5682C1176.2035,-117.0223 832.0251,-105.8527 545.1217,-76 532.7754,-74.7154 519.1925,-72.7183 507.6501,-70.8456"/>
<polygon fill="#191970" stroke="#191970" points="508.1578,-67.382 497.7175,-69.1848 507.0033,-74.2861 508.1578,-67.382"/>
</g>
<!-- Node29&#45;&gt;Node15 -->
<g id="edge64" class="edge">
<title>Node29&#45;&gt;Node15</title>
<path fill="none" stroke="#191970" d="M1451.7862,-120.7029C1606.0741,-117.2732 1999.5935,-106.0717 2327.1217,-76 2340.7374,-74.7499 2355.6944,-72.8325 2368.5764,-71.0098"/>
<polygon fill="#191970" stroke="#191970" points="2369.4422,-74.4208 2378.8343,-69.5178 2368.4346,-67.4937 2369.4422,-74.4208"/>
</g>
<!-- Node29&#45;&gt;Node18 -->
<g id="edge69" class="edge">
<title>Node29&#45;&gt;Node18</title>
<path fill="none" stroke="#191970" d="M1451.8816,-120.4125C1633.1428,-115.8166 2131.73,-101.1984 2294.1217,-76 2328.6364,-70.6443 2335.828,-62.6252 2370.1217,-56 2496.7759,-31.5316 2530.5271,-38.9638 2658.1217,-20 2664.9123,-18.9907 2672.1336,-17.8224 2679.0917,-16.6481"/>
<polygon fill="#191970" stroke="#191970" points="2679.7551,-20.0855 2689.0172,-14.941 2678.5686,-13.1868 2679.7551,-20.0855"/>
</g>
<!-- Node29&#45;&gt;Node28 -->
<g id="edge53" class="edge">
<title>Node29&#45;&gt;Node28</title>
<path fill="none" stroke="#191970" d="M1318.3766,-120.2744C1189.5526,-116.3967 897.8278,-104.9553 654.1217,-76 652.859,-75.85 651.5818,-75.6903 650.2947,-75.5224"/>
<polygon fill="#191970" stroke="#191970" points="650.7021,-72.0452 640.3074,-74.0946 649.7113,-78.9747 650.7021,-72.0452"/>
</g>
<!-- Node30 -->
<g id="node31" class="node">
<title>Node30</title>
<polygon fill="none" stroke="#bfbfbf" points="696.6217,-56.5 696.6217,-75.5 803.6217,-75.5 803.6217,-56.5 696.6217,-56.5"/>
<text text-anchor="middle" x="750.1217" y="-63.5" font-family="Helvetica,sans-Serif" font-size="10.00" fill="#000000">tmxlite/TileLayer.hpp</text>
</g>
<!-- Node29&#45;&gt;Node30 -->
<g id="edge54" class="edge">
<title>Node29&#45;&gt;Node30</title>
<path fill="none" stroke="#191970" d="M1318.464,-118.3135C1213.4689,-112.1372 1002.9554,-98.2607 813.8293,-75.9957"/>
<polygon fill="#191970" stroke="#191970" points="814.0417,-72.4964 803.6987,-74.7925 813.2161,-79.4476 814.0417,-72.4964"/>
</g>
<!-- Node31 -->
<g id="node32" class="node">
<title>Node31</title>
<polygon fill="none" stroke="#bfbfbf" points="822.1217,-56.5 822.1217,-75.5 932.1217,-75.5 932.1217,-56.5 822.1217,-56.5"/>
<text text-anchor="middle" x="877.1217" y="-63.5" font-family="Helvetica,sans-Serif" font-size="10.00" fill="#000000">tmxlite/detail/Log.hpp</text>
</g>
<!-- Node29&#45;&gt;Node31 -->
<g id="edge55" class="edge">
<title>Node29&#45;&gt;Node31</title>
<path fill="none" stroke="#191970" d="M1318.4259,-116.1749C1233.4905,-108.5141 1081.9618,-94.036 942.2886,-76.0973"/>
<polygon fill="#191970" stroke="#191970" points="942.62,-72.6111 932.2537,-74.7998 941.7223,-79.5534 942.62,-72.6111"/>
</g>
<!-- Node32 -->
<g id="node33" class="node">
<title>Node32</title>
<polygon fill="none" stroke="#bfbfbf" points="950.1217,-56.5 950.1217,-75.5 1098.1217,-75.5 1098.1217,-56.5 950.1217,-56.5"/>
<text text-anchor="middle" x="1024.1217" y="-63.5" font-family="Helvetica,sans-Serif" font-size="10.00" fill="#000000">SFML/Graphics/Drawable.hpp</text>
</g>
<!-- Node29&#45;&gt;Node32 -->
<g id="edge56" class="edge">
<title>Node29&#45;&gt;Node32</title>
<path fill="none" stroke="#191970" d="M1323.4737,-112.4369C1260.2636,-102.6314 1162.0475,-87.3957 1095.5039,-77.0731"/>
<polygon fill="#191970" stroke="#191970" points="1095.9337,-73.598 1085.5153,-75.5237 1094.8606,-80.5153 1095.9337,-73.598"/>
</g>
<!-- Node33 -->
<g id="node34" class="node">
<title>Node33</title>
<polygon fill="none" stroke="#bfbfbf" points="1116.6217,-56.5 1116.6217,-75.5 1283.6217,-75.5 1283.6217,-56.5 1116.6217,-56.5"/>
<text text-anchor="middle" x="1200.1217" y="-63.5" font-family="Helvetica,sans-Serif" font-size="10.00" fill="#000000">SFML/Graphics/RenderStates.hpp</text>
</g>
<!-- Node29&#45;&gt;Node33 -->
<g id="edge57" class="edge">
<title>Node29&#45;&gt;Node33</title>
<path fill="none" stroke="#191970" d="M1353.319,-112.3733C1322.29,-102.9807 1274.9462,-88.6496 1241.1069,-78.4064"/>
<polygon fill="#191970" stroke="#191970" points="1242.0945,-75.0485 1231.5093,-75.5011 1240.0664,-81.7483 1242.0945,-75.0485"/>
</g>
<!-- Node34 -->
<g id="node35" class="node">
<title>Node34</title>
<polygon fill="none" stroke="#bfbfbf" points="1302.1217,-56.5 1302.1217,-75.5 1468.1217,-75.5 1468.1217,-56.5 1302.1217,-56.5"/>
<text text-anchor="middle" x="1385.1217" y="-63.5" font-family="Helvetica,sans-Serif" font-size="10.00" fill="#000000">SFML/Graphics/RenderTarget.hpp</text>
</g>
<!-- Node29&#45;&gt;Node34 -->
<g id="edge58" class="edge">
<title>Node29&#45;&gt;Node34</title>
<path fill="none" stroke="#191970" d="M1385.1217,-112.2455C1385.1217,-104.9382 1385.1217,-94.6944 1385.1217,-85.7046"/>
<polygon fill="#191970" stroke="#191970" points="1388.6218,-85.6426 1385.1217,-75.6427 1381.6218,-85.6427 1388.6218,-85.6426"/>
</g>
<!-- Node35 -->
<g id="node36" class="node">
<title>Node35</title>
<polygon fill="none" stroke="#bfbfbf" points="1486.6217,-56.5 1486.6217,-75.5 1621.6217,-75.5 1621.6217,-56.5 1486.6217,-56.5"/>
<text text-anchor="middle" x="1554.1217" y="-63.5" font-family="Helvetica,sans-Serif" font-size="10.00" fill="#000000">SFML/Graphics/Vertex.hpp</text>
</g>
<!-- Node29&#45;&gt;Node35 -->
<g id="edge59" class="edge">
<title>Node29&#45;&gt;Node35</title>
<path fill="none" stroke="#191970" d="M1414.1738,-112.3733C1442.2759,-103.0613 1485.027,-88.8953 1515.8823,-78.671"/>
<polygon fill="#191970" stroke="#191970" points="1517.0571,-81.969 1525.4486,-75.5011 1514.8553,-75.3243 1517.0571,-81.969"/>
</g>
<!-- Node36 -->
<g id="node37" class="node">
<title>Node36</title>
<polygon fill="none" stroke="#bfbfbf" points="1640.1217,-56.5 1640.1217,-75.5 1780.1217,-75.5 1780.1217,-56.5 1640.1217,-56.5"/>
<text text-anchor="middle" x="1710.1217" y="-63.5" font-family="Helvetica,sans-Serif" font-size="10.00" fill="#000000">SFML/Graphics/Texture.hpp</text>
</g>
<!-- Node29&#45;&gt;Node36 -->
<g id="edge60" class="edge">
<title>Node29&#45;&gt;Node36</title>
<path fill="none" stroke="#191970" d="M1440.6219,-112.4369C1497.1779,-102.6918 1584.8621,-87.5832 1644.7475,-77.2645"/>
<polygon fill="#191970" stroke="#191970" points="1645.5899,-80.671 1654.8504,-75.5237 1644.4012,-73.7726 1645.5899,-80.671"/>
</g>
<!-- Node37 -->
<g id="node38" class="node">
<title>Node37</title>
<polygon fill="none" stroke="#bfbfbf" points="1798.6217,-56.5 1798.6217,-75.5 1967.6217,-75.5 1967.6217,-56.5 1798.6217,-56.5"/>
<text text-anchor="middle" x="1883.1217" y="-63.5" font-family="Helvetica,sans-Serif" font-size="10.00" fill="#000000">SFML/Graphics/Transformable.hpp</text>
</g>
<!-- Node29&#45;&gt;Node37 -->
<g id="edge61" class="edge">
<title>Node29&#45;&gt;Node37</title>
<path fill="none" stroke="#191970" d="M1451.7674,-114.5057C1538.3765,-104.7665 1690.142,-87.7005 1788.6135,-76.6274"/>
<polygon fill="#191970" stroke="#191970" points="1789.0194,-80.1039 1798.5657,-75.5083 1788.2371,-73.1478 1789.0194,-80.1039"/>
</g>
<!-- Node38 -->
<g id="node39" class="node">
<title>Node38</title>
<polygon fill="none" stroke="#bfbfbf" points="1985.6217,-56.5 1985.6217,-75.5 2108.6217,-75.5 2108.6217,-56.5 1985.6217,-56.5"/>
<text text-anchor="middle" x="2047.1217" y="-63.5" font-family="Helvetica,sans-Serif" font-size="10.00" fill="#000000">SFML/System/Time.hpp</text>
</g>
<!-- Node29&#45;&gt;Node38 -->
<g id="edge62" class="edge">
<title>Node29&#45;&gt;Node38</title>
<path fill="none" stroke="#191970" d="M1451.8385,-118.2198C1559.72,-111.7976 1779.3722,-97.4414 1975.1243,-76.1659"/>
<polygon fill="#191970" stroke="#191970" points="1975.7531,-79.618 1985.3125,-75.0499 1974.9909,-72.6596 1975.7531,-79.618"/>
</g>
<!-- Node39 -->
<g id="node40" class="node">
<title>Node39</title>
<polygon fill="none" stroke="#bfbfbf" points="2127.1217,-56.5 2127.1217,-75.5 2165.1217,-75.5 2165.1217,-56.5 2127.1217,-56.5"/>
<text text-anchor="middle" x="2146.1217" y="-63.5" font-family="Helvetica,sans-Serif" font-size="10.00" fill="#000000">array</text>
</g>
<!-- Node29&#45;&gt;Node39 -->
<g id="edge65" class="edge">
<title>Node29&#45;&gt;Node39</title>
<path fill="none" stroke="#191970" d="M1451.7894,-120.2034C1603.9246,-115.727 1973.9375,-102.6112 2117.1329,-75.5806"/>
<polygon fill="#191970" stroke="#191970" points="2117.9192,-78.9928 2127.0449,-73.6103 2116.5543,-72.1272 2117.9192,-78.9928"/>
</g>
<!-- Node40 -->
<g id="node41" class="node">
<title>Node40</title>
<polygon fill="none" stroke="#bfbfbf" points="2183.1217,-56.5 2183.1217,-75.5 2223.1217,-75.5 2223.1217,-56.5 2183.1217,-56.5"/>
<text text-anchor="middle" x="2203.1217" y="-63.5" font-family="Helvetica,sans-Serif" font-size="10.00" fill="#000000">limits</text>
</g>
<!-- Node29&#45;&gt;Node40 -->
<g id="edge68" class="edge">
<title>Node29&#45;&gt;Node40</title>
<path fill="none" stroke="#191970" d="M1451.6576,-120.4595C1612.0915,-116.3776 2017.7965,-103.7727 2172.7565,-75.6762"/>
<polygon fill="#191970" stroke="#191970" points="2173.8682,-79.0273 2183.0349,-73.7149 2172.556,-72.1514 2173.8682,-79.0273"/>
</g>
<!-- Node41 -->
<g id="node42" class="node">
<title>Node41</title>
<polygon fill="none" stroke="#bfbfbf" points="2241.1217,-56.5 2241.1217,-75.5 2285.1217,-75.5 2285.1217,-56.5 2241.1217,-56.5"/>
<text text-anchor="middle" x="2263.1217" y="-63.5" font-family="Helvetica,sans-Serif" font-size="10.00" fill="#000000">cmath</text>
</g>
<!-- Node29&#45;&gt;Node41 -->
<g id="edge70" class="edge">
<title>Node29&#45;&gt;Node41</title>
<path fill="none" stroke="#191970" d="M1451.7346,-120.5972C1620.7603,-116.6905 2064.1091,-104.1865 2230.8435,-75.7187"/>
<polygon fill="#191970" stroke="#191970" points="2231.7209,-79.1174 2240.9475,-73.9096 2230.4871,-72.2269 2231.7209,-79.1174"/>
</g>
<!-- Node42&#45;&gt;Node1 -->
<g id="edge72" class="edge">
<title>Node42&#45;&gt;Node1</title>
<path fill="none" stroke="#191970" d="M2356.1416,-448.2468C2331.502,-430.8872 2285.1217,-392.0891 2285.1217,-346 2285.1217,-346 2285.1217,-346 2285.1217,-234 2285.1217,-154.7878 2349.5207,-112.6172 2294.1217,-56 2261.9622,-23.1334 685.0795,-21.5255 639.1217,-20 584.4383,-18.1849 522.2793,-15.3485 477.3368,-13.1595"/>
<polygon fill="#191970" stroke="#191970" points="477.319,-9.6545 467.1595,-12.6605 476.9761,-16.6461 477.319,-9.6545"/>
</g>
<!-- Node42&#45;&gt;Node5 -->
<g id="edge74" class="edge">
<title>Node42&#45;&gt;Node5</title>
<path fill="none" stroke="#191970" d="M2308.3105,-448.4832C2017.2363,-404.381 803.588,-220.4949 564.2235,-184.2275"/>
<polygon fill="#191970" stroke="#191970" points="564.6118,-180.7465 554.2003,-182.7089 563.5631,-187.6675 564.6118,-180.7465"/>
</g>
<!-- Node42&#45;&gt;Node20 -->
<g id="edge73" class="edge">
<title>Node42&#45;&gt;Node20</title>
<path fill="none" stroke="#191970" d="M2366.9902,-448.3161C2359.2015,-429.1534 2343.1217,-384.8832 2343.1217,-346 2343.1217,-346 2343.1217,-346 2343.1217,-290 2343.1217,-257.2193 2351.5271,-219.8705 2357.4398,-197.6533"/>
<polygon fill="#191970" stroke="#191970" points="2360.8772,-198.3545 2360.1706,-187.7832 2354.1307,-196.4878 2360.8772,-198.3545"/>
</g>
<!-- Node42&#45;&gt;Node21 -->
<g id="edge76" class="edge">
<title>Node42&#45;&gt;Node21</title>
<path fill="none" stroke="#191970" d="M2409.884,-448.4363C2440.4321,-440.3307 2483.7855,-427.5565 2520.1217,-412 2551.9485,-398.374 2624.6314,-350.3868 2656.1217,-336 2684.6494,-322.9667 2718.0333,-310.9961 2743.4126,-302.5352"/>
<polygon fill="#191970" stroke="#191970" points="2744.6622,-305.8087 2753.0662,-299.3571 2742.4732,-299.1598 2744.6622,-305.8087"/>
</g>
<!-- Node42&#45;&gt;Node22 -->
<g id="edge75" class="edge">
<title>Node42&#45;&gt;Node22</title>
<path fill="none" stroke="#191970" d="M2429.5904,-448.4829C2486.2454,-439.24 2574.5913,-424.772 2651.1217,-412 2652.4186,-411.7836 2653.7315,-411.5641 2655.0556,-411.3424"/>
<polygon fill="#191970" stroke="#191970" points="2656.066,-414.7218 2665.3478,-409.6133 2654.9061,-407.8185 2656.066,-414.7218"/>
</g>
<!-- Node43 -->
<g id="node44" class="node">
<title>Node43</title>
<g id="a_node44"><a xlink:href="Enemy_8hpp.html" target="_top" xlink:title="Enemy.hpp">
<polygon fill="none" stroke="#000000" points="2445.1217,-392.5 2445.1217,-411.5 2511.1217,-411.5 2511.1217,-392.5 2445.1217,-392.5"/>
<text text-anchor="middle" x="2478.1217" y="-399.5" font-family="Helvetica,sans-Serif" font-size="10.00" fill="#000000">Enemy.hpp</text>
</a>
</g>
</g>
<!-- Node42&#45;&gt;Node43 -->
<g id="edge77" class="edge">
<title>Node42&#45;&gt;Node43</title>
<path fill="none" stroke="#191970" d="M2389.7596,-448.2455C2406.5603,-439.4527 2431.4851,-426.4079 2450.5835,-416.4125"/>
<polygon fill="#191970" stroke="#191970" points="2452.4603,-419.3807 2459.6973,-411.6427 2449.2144,-413.1787 2452.4603,-419.3807"/>
</g>
<!-- Node44 -->
<g id="node45" class="node">
<title>Node44</title>
<polygon fill="none" stroke="#bfbfbf" points="2371.1217,-392.5 2371.1217,-411.5 2427.1217,-411.5 2427.1217,-392.5 2371.1217,-392.5"/>
<text text-anchor="middle" x="2399.1217" y="-399.5" font-family="Helvetica,sans-Serif" font-size="10.00" fill="#000000">tinyxml.h</text>
</g>
<!-- Node42&#45;&gt;Node44 -->
<g id="edge83" class="edge">
<title>Node42&#45;&gt;Node44</title>
<path fill="none" stroke="#191970" d="M2375.9989,-448.2455C2379.773,-440.6973 2385.1138,-430.0158 2389.7118,-420.8197"/>
<polygon fill="#191970" stroke="#191970" points="2392.9586,-422.1522 2394.3003,-411.6427 2386.6976,-419.0217 2392.9586,-422.1522"/>
</g>
<!-- Node43&#45;&gt;Node18 -->
<g id="edge79" class="edge">
<title>Node43&#45;&gt;Node18</title>
<path fill="none" stroke="#191970" d="M2467.0808,-392.4772C2453.9453,-379.9231 2434.7774,-356.9682 2443.1217,-336 2463.9296,-283.7119 2493.2456,-286.5108 2530.1217,-244 2597.9501,-165.8073 2672.9977,-67.4064 2702.8377,-27.7569"/>
<polygon fill="#191970" stroke="#191970" points="2705.758,-29.6966 2708.9631,-19.5981 2700.1601,-25.4937 2705.758,-29.6966"/>
</g>
<!-- Node43&#45;&gt;Node19 -->
<g id="edge78" class="edge">
<title>Node43&#45;&gt;Node19</title>
<path fill="none" stroke="#191970" d="M2452.5955,-392.3698C2436.9795,-384.9914 2418.2928,-373.1364 2409.1217,-356 2404.9274,-348.1629 2406.5458,-344.5075 2409.1217,-336 2419.2218,-302.6417 2444.2271,-270.2213 2460.9344,-251.1901"/>
<polygon fill="#191970" stroke="#191970" points="2463.6282,-253.4293 2467.7312,-243.6612 2458.4323,-248.7386 2463.6282,-253.4293"/>
</g>
<!-- Node43&#45;&gt;Node21 -->
<g id="edge82" class="edge">
<title>Node43&#45;&gt;Node21</title>
<path fill="none" stroke="#191970" d="M2486.0567,-392.1253C2498.4834,-377.3876 2524.0373,-349.8882 2552.1217,-336 2627.9891,-298.4822 2656.2884,-317.3811 2739.1217,-300 2740.3723,-299.7376 2741.6422,-299.468 2742.9239,-299.1932"/>
<polygon fill="#191970" stroke="#191970" points="2743.8345,-302.5768 2752.854,-297.0182 2742.3367,-295.7389 2743.8345,-302.5768"/>
</g>
<!-- Node43&#45;&gt;Node23 -->
<g id="edge81" class="edge">
<title>Node43&#45;&gt;Node23</title>
<path fill="none" stroke="#191970" d="M2478.1217,-392.2455C2478.1217,-384.9382 2478.1217,-374.6944 2478.1217,-365.7046"/>
<polygon fill="#191970" stroke="#191970" points="2481.6218,-365.6426 2478.1217,-355.6427 2474.6218,-365.6427 2481.6218,-365.6426"/>
</g>
<!-- Node43&#45;&gt;Node24 -->
<g id="edge80" class="edge">
<title>Node43&#45;&gt;Node24</title>
<path fill="none" stroke="#191970" d="M2496.7596,-392.2455C2513.5603,-383.4527 2538.4851,-370.4079 2557.5835,-360.4125"/>
<polygon fill="#191970" stroke="#191970" points="2559.4603,-363.3807 2566.6973,-355.6427 2556.2144,-357.1787 2559.4603,-363.3807"/>
</g>
</g>
</svg>
