<?xml version="1.0" encoding="UTF-8" standalone="no"?>
<!DOCTYPE svg PUBLIC "-//W3C//DTD SVG 1.1//EN"
 "http://www.w3.org/Graphics/SVG/1.1/DTD/svg11.dtd">
<!-- Generated by graphviz version 2.40.1 (20161225.0304)
 -->
<!-- Title: /mnt/hdd/C0de/Engines/SFML/SFML_Engine/include/GameWorld.hpp Pages: 1 -->
<svg width="809pt" height="518pt"
 viewBox="0.00 0.00 808.50 518.00" xmlns="http://www.w3.org/2000/svg" xmlns:xlink="http://www.w3.org/1999/xlink">
<g id="graph0" class="graph" transform="scale(1 1) rotate(0) translate(4 514)">
<title>/mnt/hdd/C0de/Engines/SFML/SFML_Engine/include/GameWorld.hpp</title>
<!-- Node18 -->
<g id="node1" class="node">
<title>Node18</title>
<polygon fill="#bfbfbf" stroke="#000000" points="405,-468.5 405,-509.5 549,-509.5 549,-468.5 405,-468.5"/>
<text text-anchor="start" x="413" y="-497.5" font-family="Helvetica,sans-Serif" font-size="10.00" fill="#000000">/mnt/hdd/C0de/Engines</text>
<text text-anchor="start" x="413" y="-486.5" font-family="Helvetica,sans-Serif" font-size="10.00" fill="#000000">/SFML/SFML_Engine/include</text>
<text text-anchor="middle" x="477" y="-475.5" font-family="Helvetica,sans-Serif" font-size="10.00" fill="#000000">/GameWorld.hpp</text>
</g>
<!-- Node19 -->
<g id="node2" class="node">
<title>Node19</title>
<g id="a_node2"><a xlink:href="Bullet_8hpp.html" target="_top" xlink:title="/mnt/hdd/C0de/Engines\l/SFML/SFML_Engine/include\l/Bullet.hpp">
<polygon fill="none" stroke="#000000" points="313,-390.5 313,-431.5 457,-431.5 457,-390.5 313,-390.5"/>
<text text-anchor="start" x="321" y="-419.5" font-family="Helvetica,sans-Serif" font-size="10.00" fill="#000000">/mnt/hdd/C0de/Engines</text>
<text text-anchor="start" x="321" y="-408.5" font-family="Helvetica,sans-Serif" font-size="10.00" fill="#000000">/SFML/SFML_Engine/include</text>
<text text-anchor="middle" x="385" y="-397.5" font-family="Helvetica,sans-Serif" font-size="10.00" fill="#000000">/Bullet.hpp</text>
</a>
</g>
</g>
<!-- Node18&#45;&gt;Node19 -->
<g id="edge1" class="edge">
<title>Node18&#45;&gt;Node19</title>
<path fill="none" stroke="#191970" d="M444.5785,-461.5122C433.0102,-451.7043 420.1833,-440.8293 409.4034,-431.6898"/>
<polygon fill="#191970" stroke="#191970" points="442.4547,-464.3002 452.3457,-468.0974 446.9815,-458.9609 442.4547,-464.3002"/>
</g>
<!-- Node20 -->
<g id="node3" class="node">
<title>Node20</title>
<g id="a_node3"><a xlink:href="Gun_8hpp.html" target="_top" xlink:title="/mnt/hdd/C0de/Engines\l/SFML/SFML_Engine/include\l/Gun.hpp">
<polygon fill="none" stroke="#000000" points="175,-312.5 175,-353.5 319,-353.5 319,-312.5 175,-312.5"/>
<text text-anchor="start" x="183" y="-341.5" font-family="Helvetica,sans-Serif" font-size="10.00" fill="#000000">/mnt/hdd/C0de/Engines</text>
<text text-anchor="start" x="183" y="-330.5" font-family="Helvetica,sans-Serif" font-size="10.00" fill="#000000">/SFML/SFML_Engine/include</text>
<text text-anchor="middle" x="247" y="-319.5" font-family="Helvetica,sans-Serif" font-size="10.00" fill="#000000">/Gun.hpp</text>
</a>
</g>
</g>
<!-- Node18&#45;&gt;Node20 -->
<g id="edge32" class="edge">
<title>Node18&#45;&gt;Node20</title>
<path fill="none" stroke="#191970" d="M394.8173,-474.9211C363.8482,-466.4664 329.8896,-453.0792 304,-432 278.6235,-411.3386 262.2799,-376.1844 253.8672,-353.8027"/>
<polygon fill="#191970" stroke="#191970" points="394.1949,-478.3753 404.7532,-477.4963 395.9512,-471.5992 394.1949,-478.3753"/>
</g>
<!-- Node21 -->
<g id="node4" class="node">
<title>Node21</title>
<g id="a_node4"><a xlink:href="Enemy_8hpp.html" target="_top" xlink:title="/mnt/hdd/C0de/Engines\l/SFML/SFML_Engine/include\l/Enemy.hpp">
<polygon fill="none" stroke="#000000" points="29,-234.5 29,-275.5 173,-275.5 173,-234.5 29,-234.5"/>
<text text-anchor="start" x="37" y="-263.5" font-family="Helvetica,sans-Serif" font-size="10.00" fill="#000000">/mnt/hdd/C0de/Engines</text>
<text text-anchor="start" x="37" y="-252.5" font-family="Helvetica,sans-Serif" font-size="10.00" fill="#000000">/SFML/SFML_Engine/include</text>
<text text-anchor="middle" x="101" y="-241.5" font-family="Helvetica,sans-Serif" font-size="10.00" fill="#000000">/Enemy.hpp</text>
</a>
</g>
</g>
<!-- Node18&#45;&gt;Node21 -->
<g id="edge31" class="edge">
<title>Node18&#45;&gt;Node21</title>
<path fill="none" stroke="#191970" d="M394.7855,-481.4889C312.8565,-469.306 190.2604,-437.4116 126,-354 108.3655,-331.11 103.0522,-297.2333 101.519,-275.6407"/>
<polygon fill="#191970" stroke="#191970" points="394.425,-484.9727 404.8176,-482.9127 395.4087,-478.0422 394.425,-484.9727"/>
</g>
<!-- Node26 -->
<g id="node9" class="node">
<title>Node26</title>
<g id="a_node9"><a xlink:href="GameState_8hpp.html" target="_top" xlink:title="/mnt/hdd/C0de/Engines\l/SFML/SFML_Engine/include\l/GameState.hpp">
<polygon fill="none" stroke="#000000" points="474,-78.5 474,-119.5 618,-119.5 618,-78.5 474,-78.5"/>
<text text-anchor="start" x="482" y="-107.5" font-family="Helvetica,sans-Serif" font-size="10.00" fill="#000000">/mnt/hdd/C0de/Engines</text>
<text text-anchor="start" x="482" y="-96.5" font-family="Helvetica,sans-Serif" font-size="10.00" fill="#000000">/SFML/SFML_Engine/include</text>
<text text-anchor="middle" x="546" y="-85.5" font-family="Helvetica,sans-Serif" font-size="10.00" fill="#000000">/GameState.hpp</text>
</a>
</g>
</g>
<!-- Node18&#45;&gt;Node26 -->
<g id="edge34" class="edge">
<title>Node18&#45;&gt;Node26</title>
<path fill="none" stroke="#191970" d="M535.6919,-463.6657C584.1491,-438.3376 645,-394.3231 645,-333 645,-333 645,-333 645,-255 645,-207.87 633.3344,-195.0863 607,-156 597.7674,-142.2967 584.6611,-129.4946 572.9619,-119.5085"/>
<polygon fill="#191970" stroke="#191970" points="533.832,-460.6845 526.4969,-468.3296 536.9985,-466.9274 533.832,-460.6845"/>
</g>
<!-- Node34 -->
<g id="node17" class="node">
<title>Node34</title>
<g id="a_node17"><a xlink:href="Main__Player_8hpp.html" target="_top" xlink:title="/mnt/hdd/C0de/Engines\l/SFML/SFML_Engine/include\l/Main_Player.hpp">
<polygon fill="none" stroke="#000000" points="375,-234.5 375,-275.5 519,-275.5 519,-234.5 375,-234.5"/>
<text text-anchor="start" x="383" y="-263.5" font-family="Helvetica,sans-Serif" font-size="10.00" fill="#000000">/mnt/hdd/C0de/Engines</text>
<text text-anchor="start" x="383" y="-252.5" font-family="Helvetica,sans-Serif" font-size="10.00" fill="#000000">/SFML/SFML_Engine/include</text>
<text text-anchor="middle" x="447" y="-241.5" font-family="Helvetica,sans-Serif" font-size="10.00" fill="#000000">/Main_Player.hpp</text>
</a>
</g>
</g>
<!-- Node18&#45;&gt;Node34 -->
<g id="edge33" class="edge">
<title>Node18&#45;&gt;Node34</title>
<path fill="none" stroke="#191970" d="M504.2968,-460.8205C535.6383,-424.8975 579.1902,-361.5157 550,-312 540.5552,-295.9786 524.8101,-284.145 508.4374,-275.5464"/>
<polygon fill="#191970" stroke="#191970" points="501.4985,-458.6987 497.432,-468.482 506.712,-463.37 501.4985,-458.6987"/>
</g>
<!-- Node38 -->
<g id="node21" class="node">
<title>Node38</title>
<g id="a_node21"><a xlink:href="GameWorld_8cpp.html" target="_top" xlink:title="/mnt/hdd/C0de/Engines\l/SFML/SFML_Engine/src\l/GameWorld.cpp">
<polygon fill="none" stroke="#000000" points="673.5,-390.5 673.5,-431.5 800.5,-431.5 800.5,-390.5 673.5,-390.5"/>
<text text-anchor="start" x="681.5" y="-419.5" font-family="Helvetica,sans-Serif" font-size="10.00" fill="#000000">/mnt/hdd/C0de/Engines</text>
<text text-anchor="start" x="681.5" y="-408.5" font-family="Helvetica,sans-Serif" font-size="10.00" fill="#000000">/SFML/SFML_Engine/src</text>
<text text-anchor="middle" x="737" y="-397.5" font-family="Helvetica,sans-Serif" font-size="10.00" fill="#000000">/GameWorld.cpp</text>
</a>
</g>
</g>
<!-- Node18&#45;&gt;Node38 -->
<g id="edge35" class="edge">
<title>Node18&#45;&gt;Node38</title>
<path fill="none" stroke="#191970" d="M555.5768,-465.427C593.2541,-454.1238 637.8017,-440.7595 673.3247,-430.1026"/>
<polygon fill="#191970" stroke="#191970" points="554.2246,-462.1784 545.652,-468.4044 556.236,-468.8832 554.2246,-462.1784"/>
</g>
<!-- Node19&#45;&gt;Node20 -->
<g id="edge2" class="edge">
<title>Node19&#45;&gt;Node20</title>
<path fill="none" stroke="#191970" d="M339.6365,-385.3597C321.3578,-375.0283 300.5621,-363.2742 283.3114,-353.5239"/>
<polygon fill="#191970" stroke="#191970" points="337.953,-388.4286 348.3808,-390.3022 341.3974,-382.3346 337.953,-388.4286"/>
</g>
<!-- Node19&#45;&gt;Node21 -->
<g id="edge26" class="edge">
<title>Node19&#45;&gt;Node21</title>
<path fill="none" stroke="#191970" d="M302.7271,-395.982C250.2462,-385.2034 188.0813,-369.8382 166,-354 138.2654,-334.1069 119.1685,-298.386 109.1689,-275.7285"/>
<polygon fill="#191970" stroke="#191970" points="302.2447,-399.4553 312.7402,-398.0078 303.6328,-392.5943 302.2447,-399.4553"/>
</g>
<!-- Node22 -->
<g id="node5" class="node">
<title>Node22</title>
<g id="a_node5"><a xlink:href="LoadingGameObjects_8hpp.html" target="_top" xlink:title="/mnt/hdd/C0de/Engines\l/SFML/SFML_Engine/include\l/LoadingGameObjects.hpp">
<polygon fill="none" stroke="#000000" points="251,-156.5 251,-197.5 395,-197.5 395,-156.5 251,-156.5"/>
<text text-anchor="start" x="259" y="-185.5" font-family="Helvetica,sans-Serif" font-size="10.00" fill="#000000">/mnt/hdd/C0de/Engines</text>
<text text-anchor="start" x="259" y="-174.5" font-family="Helvetica,sans-Serif" font-size="10.00" fill="#000000">/SFML/SFML_Engine/include</text>
<text text-anchor="middle" x="323" y="-163.5" font-family="Helvetica,sans-Serif" font-size="10.00" fill="#000000">/LoadingGameObjects.hpp</text>
</a>
</g>
</g>
<!-- Node19&#45;&gt;Node22 -->
<g id="edge28" class="edge">
<title>Node19&#45;&gt;Node22</title>
<path fill="none" stroke="#191970" d="M376.8747,-380.3335C364.0477,-331.9221 339.4408,-239.0507 328.4898,-197.7194"/>
<polygon fill="#191970" stroke="#191970" points="373.5534,-381.4641 379.4979,-390.2341 380.3199,-379.6712 373.5534,-381.4641"/>
</g>
<!-- Node19&#45;&gt;Node26 -->
<g id="edge29" class="edge">
<title>Node19&#45;&gt;Node26</title>
<path fill="none" stroke="#191970" d="M467.1415,-390.5507C502.2959,-380.2444 538.0175,-367.1612 550,-354 610.3247,-287.7416 615.9755,-241.127 588,-156 583.5867,-142.5707 574.663,-129.7043 566.1718,-119.6051"/>
<polygon fill="#191970" stroke="#191970" points="465.9105,-387.2625 457.2614,-393.3817 467.8387,-393.9917 465.9105,-387.2625"/>
</g>
<!-- Node19&#45;&gt;Node34 -->
<g id="edge27" class="edge">
<title>Node19&#45;&gt;Node34</title>
<path fill="none" stroke="#191970" d="M387.7159,-380.3394C390.3247,-360.2332 395.3641,-333.7418 405,-312 410.8273,-298.8517 420.1009,-285.8157 428.4535,-275.5358"/>
<polygon fill="#191970" stroke="#191970" points="384.2134,-380.1587 386.5324,-390.4966 391.1664,-380.9689 384.2134,-380.1587"/>
</g>
<!-- Node37 -->
<g id="node20" class="node">
<title>Node37</title>
<g id="a_node20"><a xlink:href="Bullet_8cpp.html" target="_top" xlink:title="/mnt/hdd/C0de/Engines\l/SFML/SFML_Engine/src\l/Bullet.cpp">
<polygon fill="none" stroke="#000000" points="413.5,-312.5 413.5,-353.5 540.5,-353.5 540.5,-312.5 413.5,-312.5"/>
<text text-anchor="start" x="421.5" y="-341.5" font-family="Helvetica,sans-Serif" font-size="10.00" fill="#000000">/mnt/hdd/C0de/Engines</text>
<text text-anchor="start" x="421.5" y="-330.5" font-family="Helvetica,sans-Serif" font-size="10.00" fill="#000000">/SFML/SFML_Engine/src</text>
<text text-anchor="middle" x="477" y="-319.5" font-family="Helvetica,sans-Serif" font-size="10.00" fill="#000000">/Bullet.cpp</text>
</a>
</g>
</g>
<!-- Node19&#45;&gt;Node37 -->
<g id="edge30" class="edge">
<title>Node19&#45;&gt;Node37</title>
<path fill="none" stroke="#191970" d="M417.4215,-383.5122C428.9898,-373.7043 441.8167,-362.8293 452.5966,-353.6898"/>
<polygon fill="#191970" stroke="#191970" points="415.0185,-380.9609 409.6543,-390.0974 419.5453,-386.3002 415.0185,-380.9609"/>
</g>
<!-- Node20&#45;&gt;Node21 -->
<g id="edge3" class="edge">
<title>Node20&#45;&gt;Node21</title>
<path fill="none" stroke="#191970" d="M199.2702,-307.5005C179.8685,-297.1352 157.7501,-285.3185 139.4164,-275.5239"/>
<polygon fill="#191970" stroke="#191970" points="197.7885,-310.6771 208.258,-312.3022 201.0871,-304.5029 197.7885,-310.6771"/>
</g>
<!-- Node20&#45;&gt;Node34 -->
<g id="edge21" class="edge">
<title>Node20&#45;&gt;Node34</title>
<path fill="none" stroke="#191970" d="M309.2525,-308.7215C336.5135,-298.0897 368.1609,-285.7473 394.2419,-275.5757"/>
<polygon fill="#191970" stroke="#191970" points="307.8541,-305.5101 299.8093,-312.4044 310.3975,-312.0317 307.8541,-305.5101"/>
</g>
<!-- Node36 -->
<g id="node19" class="node">
<title>Node36</title>
<g id="a_node19"><a xlink:href="Gun_8cpp.html" target="_top" xlink:title="/mnt/hdd/C0de/Engines\l/SFML/SFML_Engine/src\l/Gun.cpp">
<polygon fill="none" stroke="#000000" points="191.5,-234.5 191.5,-275.5 318.5,-275.5 318.5,-234.5 191.5,-234.5"/>
<text text-anchor="start" x="199.5" y="-263.5" font-family="Helvetica,sans-Serif" font-size="10.00" fill="#000000">/mnt/hdd/C0de/Engines</text>
<text text-anchor="start" x="199.5" y="-252.5" font-family="Helvetica,sans-Serif" font-size="10.00" fill="#000000">/SFML/SFML_Engine/src</text>
<text text-anchor="middle" x="255" y="-241.5" font-family="Helvetica,sans-Serif" font-size="10.00" fill="#000000">/Gun.cpp</text>
</a>
</g>
</g>
<!-- Node20&#45;&gt;Node36 -->
<g id="edge25" class="edge">
<title>Node20&#45;&gt;Node36</title>
<path fill="none" stroke="#191970" d="M250.1714,-302.0789C251.0802,-293.2178 252.0487,-283.7747 252.878,-275.6898"/>
<polygon fill="#191970" stroke="#191970" points="246.6825,-301.7925 249.1439,-312.0974 253.646,-302.5067 246.6825,-301.7925"/>
</g>
<!-- Node21&#45;&gt;Node22 -->
<g id="edge4" class="edge">
<title>Node21&#45;&gt;Node22</title>
<path fill="none" stroke="#191970" d="M169.3086,-230.9997C199.7459,-220.3055 235.2358,-207.8361 264.4385,-197.5757"/>
<polygon fill="#191970" stroke="#191970" points="167.8927,-227.7874 159.6183,-234.4044 170.2131,-234.3916 167.8927,-227.7874"/>
</g>
<!-- Node33 -->
<g id="node16" class="node">
<title>Node33</title>
<g id="a_node16"><a xlink:href="Enemy_8cpp.html" target="_top" xlink:title="/mnt/hdd/C0de/Engines\l/SFML/SFML_Engine/src\l/Enemy.cpp">
<polygon fill="none" stroke="#000000" points="37.5,-156.5 37.5,-197.5 164.5,-197.5 164.5,-156.5 37.5,-156.5"/>
<text text-anchor="start" x="45.5" y="-185.5" font-family="Helvetica,sans-Serif" font-size="10.00" fill="#000000">/mnt/hdd/C0de/Engines</text>
<text text-anchor="start" x="45.5" y="-174.5" font-family="Helvetica,sans-Serif" font-size="10.00" fill="#000000">/SFML/SFML_Engine/src</text>
<text text-anchor="middle" x="101" y="-163.5" font-family="Helvetica,sans-Serif" font-size="10.00" fill="#000000">/Enemy.cpp</text>
</a>
</g>
</g>
<!-- Node21&#45;&gt;Node33 -->
<g id="edge20" class="edge">
<title>Node21&#45;&gt;Node33</title>
<path fill="none" stroke="#191970" d="M101,-224.0789C101,-215.2178 101,-205.7747 101,-197.6898"/>
<polygon fill="#191970" stroke="#191970" points="97.5001,-224.0974 101,-234.0974 104.5001,-224.0975 97.5001,-224.0974"/>
</g>
<!-- Node23 -->
<g id="node6" class="node">
<title>Node23</title>
<g id="a_node6"><a xlink:href="GameOverState_8hpp.html" target="_top" xlink:title="/mnt/hdd/C0de/Engines\l/SFML/SFML_Engine/include\l/GameOverState.hpp">
<polygon fill="none" stroke="#000000" points="636,-78.5 636,-119.5 780,-119.5 780,-78.5 636,-78.5"/>
<text text-anchor="start" x="644" y="-107.5" font-family="Helvetica,sans-Serif" font-size="10.00" fill="#000000">/mnt/hdd/C0de/Engines</text>
<text text-anchor="start" x="644" y="-96.5" font-family="Helvetica,sans-Serif" font-size="10.00" fill="#000000">/SFML/SFML_Engine/include</text>
<text text-anchor="middle" x="708" y="-85.5" font-family="Helvetica,sans-Serif" font-size="10.00" fill="#000000">/GameOverState.hpp</text>
</a>
</g>
</g>
<!-- Node22&#45;&gt;Node23 -->
<g id="edge5" class="edge">
<title>Node22&#45;&gt;Node23</title>
<path fill="none" stroke="#191970" d="M405.151,-162.25C480.2634,-148.6443 585.7458,-129.2041 627,-120 629.8358,-119.3673 632.7228,-118.7053 635.6359,-118.0225"/>
<polygon fill="#191970" stroke="#191970" points="404.443,-158.8212 395.226,-164.0459 405.6895,-165.7093 404.443,-158.8212"/>
</g>
<!-- Node22&#45;&gt;Node26 -->
<g id="edge8" class="edge">
<title>Node22&#45;&gt;Node26</title>
<path fill="none" stroke="#191970" d="M391.6163,-152.9997C422.1907,-142.3055 457.8404,-129.8361 487.1747,-119.5757"/>
<polygon fill="#191970" stroke="#191970" points="390.166,-149.799 381.8823,-156.4044 392.4772,-156.4064 390.166,-149.799"/>
</g>
<!-- Node29 -->
<g id="node12" class="node">
<title>Node29</title>
<g id="a_node12"><a xlink:href="MainMenuState_8hpp.html" target="_top" xlink:title="/mnt/hdd/C0de/Engines\l/SFML/SFML_Engine/include\l/MainMenuState.hpp">
<polygon fill="none" stroke="#000000" points="0,-78.5 0,-119.5 144,-119.5 144,-78.5 0,-78.5"/>
<text text-anchor="start" x="8" y="-107.5" font-family="Helvetica,sans-Serif" font-size="10.00" fill="#000000">/mnt/hdd/C0de/Engines</text>
<text text-anchor="start" x="8" y="-96.5" font-family="Helvetica,sans-Serif" font-size="10.00" fill="#000000">/SFML/SFML_Engine/include</text>
<text text-anchor="middle" x="72" y="-85.5" font-family="Helvetica,sans-Serif" font-size="10.00" fill="#000000">/MainMenuState.hpp</text>
</a>
</g>
</g>
<!-- Node22&#45;&gt;Node29 -->
<g id="edge13" class="edge">
<title>Node22&#45;&gt;Node29</title>
<path fill="none" stroke="#191970" d="M247.1061,-153.4154C212.3983,-142.6297 171.6577,-129.9693 138.2115,-119.5757"/>
<polygon fill="#191970" stroke="#191970" points="246.1362,-156.7791 256.7244,-156.4044 248.2135,-150.0944 246.1362,-156.7791"/>
</g>
<!-- Node31 -->
<g id="node14" class="node">
<title>Node31</title>
<g id="a_node14"><a xlink:href="SplashState_8hpp.html" target="_top" xlink:title="/mnt/hdd/C0de/Engines\l/SFML/SFML_Engine/include\l/SplashState.hpp">
<polygon fill="none" stroke="#000000" points="312,-78.5 312,-119.5 456,-119.5 456,-78.5 312,-78.5"/>
<text text-anchor="start" x="320" y="-107.5" font-family="Helvetica,sans-Serif" font-size="10.00" fill="#000000">/mnt/hdd/C0de/Engines</text>
<text text-anchor="start" x="320" y="-96.5" font-family="Helvetica,sans-Serif" font-size="10.00" fill="#000000">/SFML/SFML_Engine/include</text>
<text text-anchor="middle" x="384" y="-85.5" font-family="Helvetica,sans-Serif" font-size="10.00" fill="#000000">/SplashState.hpp</text>
</a>
</g>
</g>
<!-- Node22&#45;&gt;Node31 -->
<g id="edge16" class="edge">
<title>Node22&#45;&gt;Node31</title>
<path fill="none" stroke="#191970" d="M345.6087,-148.0905C352.9818,-138.6626 361.0156,-128.3899 367.8195,-119.6898"/>
<polygon fill="#191970" stroke="#191970" points="342.7503,-146.0641 339.3469,-156.0974 348.2643,-150.3764 342.7503,-146.0641"/>
</g>
<!-- Node32 -->
<g id="node15" class="node">
<title>Node32</title>
<g id="a_node15"><a xlink:href="LoadingGameObjects_8cpp.html" target="_top" xlink:title="/mnt/hdd/C0de/Engines\l/SFML/SFML_Engine/src\l/LoadingGameObjects.cpp">
<polygon fill="none" stroke="#000000" points="162,-78.5 162,-119.5 294,-119.5 294,-78.5 162,-78.5"/>
<text text-anchor="start" x="170" y="-107.5" font-family="Helvetica,sans-Serif" font-size="10.00" fill="#000000">/mnt/hdd/C0de/Engines</text>
<text text-anchor="start" x="170" y="-96.5" font-family="Helvetica,sans-Serif" font-size="10.00" fill="#000000">/SFML/SFML_Engine/src</text>
<text text-anchor="middle" x="228" y="-85.5" font-family="Helvetica,sans-Serif" font-size="10.00" fill="#000000">/LoadingGameObjects.cpp</text>
</a>
</g>
</g>
<!-- Node22&#45;&gt;Node32 -->
<g id="edge19" class="edge">
<title>Node22&#45;&gt;Node32</title>
<path fill="none" stroke="#191970" d="M289.5213,-149.5122C277.5757,-139.7043 264.3306,-128.8293 253.1991,-119.6898"/>
<polygon fill="#191970" stroke="#191970" points="287.592,-152.4568 297.5417,-156.0974 292.034,-147.0467 287.592,-152.4568"/>
</g>
<!-- Node24 -->
<g id="node7" class="node">
<title>Node24</title>
<g id="a_node7"><a xlink:href="GameOverState_8cpp.html" target="_top" xlink:title="/mnt/hdd/C0de/Engines\l/SFML/SFML_Engine/src\l/GameOverState.cpp">
<polygon fill="none" stroke="#000000" points="639.5,-.5 639.5,-41.5 766.5,-41.5 766.5,-.5 639.5,-.5"/>
<text text-anchor="start" x="647.5" y="-29.5" font-family="Helvetica,sans-Serif" font-size="10.00" fill="#000000">/mnt/hdd/C0de/Engines</text>
<text text-anchor="start" x="647.5" y="-18.5" font-family="Helvetica,sans-Serif" font-size="10.00" fill="#000000">/SFML/SFML_Engine/src</text>
<text text-anchor="middle" x="703" y="-7.5" font-family="Helvetica,sans-Serif" font-size="10.00" fill="#000000">/GameOverState.cpp</text>
</a>
</g>
</g>
<!-- Node23&#45;&gt;Node24 -->
<g id="edge6" class="edge">
<title>Node23&#45;&gt;Node24</title>
<path fill="none" stroke="#191970" d="M706.0179,-68.0789C705.4499,-59.2178 704.8445,-49.7747 704.3263,-41.6898"/>
<polygon fill="#191970" stroke="#191970" points="702.5275,-68.3418 706.6601,-78.0974 709.5131,-67.894 702.5275,-68.3418"/>
</g>
<!-- Node25 -->
<g id="node8" class="node">
<title>Node25</title>
<g id="a_node8"><a xlink:href="GameState_8cpp.html" target="_top" xlink:title="/mnt/hdd/C0de/Engines\l/SFML/SFML_Engine/src\l/GameState.cpp">
<polygon fill="none" stroke="#000000" points="486.5,-.5 486.5,-41.5 613.5,-41.5 613.5,-.5 486.5,-.5"/>
<text text-anchor="start" x="494.5" y="-29.5" font-family="Helvetica,sans-Serif" font-size="10.00" fill="#000000">/mnt/hdd/C0de/Engines</text>
<text text-anchor="start" x="494.5" y="-18.5" font-family="Helvetica,sans-Serif" font-size="10.00" fill="#000000">/SFML/SFML_Engine/src</text>
<text text-anchor="middle" x="550" y="-7.5" font-family="Helvetica,sans-Serif" font-size="10.00" fill="#000000">/GameState.cpp</text>
</a>
</g>
</g>
<!-- Node23&#45;&gt;Node25 -->
<g id="edge7" class="edge">
<title>Node23&#45;&gt;Node25</title>
<path fill="none" stroke="#191970" d="M656.9165,-73.7816C635.7844,-63.3493 611.594,-51.4072 591.574,-41.5239"/>
<polygon fill="#191970" stroke="#191970" points="655.5575,-77.0139 666.0737,-78.3022 658.6562,-70.7371 655.5575,-77.0139"/>
</g>
<!-- Node26&#45;&gt;Node24 -->
<g id="edge10" class="edge">
<title>Node26&#45;&gt;Node24</title>
<path fill="none" stroke="#191970" d="M596.7601,-73.7816C617.7585,-63.3493 641.7958,-51.4072 661.6892,-41.5239"/>
<polygon fill="#191970" stroke="#191970" points="595.0593,-70.7184 587.6609,-78.3022 598.1739,-76.9873 595.0593,-70.7184"/>
</g>
<!-- Node26&#45;&gt;Node25 -->
<g id="edge11" class="edge">
<title>Node26&#45;&gt;Node25</title>
<path fill="none" stroke="#191970" d="M547.5857,-68.0789C548.0401,-59.2178 548.5244,-49.7747 548.939,-41.6898"/>
<polygon fill="#191970" stroke="#191970" points="544.0888,-67.9313 547.0719,-78.0974 551.0796,-68.2898 544.0888,-67.9313"/>
</g>
<!-- Node27 -->
<g id="node10" class="node">
<title>Node27</title>
<g id="a_node10"><a xlink:href="Game_8cpp.html" target="_top" xlink:title="/mnt/hdd/C0de/Engines\l/SFML/SFML_Engine/src\l/Game.cpp">
<polygon fill="none" stroke="#000000" points="330.5,-.5 330.5,-41.5 457.5,-41.5 457.5,-.5 330.5,-.5"/>
<text text-anchor="start" x="338.5" y="-29.5" font-family="Helvetica,sans-Serif" font-size="10.00" fill="#000000">/mnt/hdd/C0de/Engines</text>
<text text-anchor="start" x="338.5" y="-18.5" font-family="Helvetica,sans-Serif" font-size="10.00" fill="#000000">/SFML/SFML_Engine/src</text>
<text text-anchor="middle" x="394" y="-7.5" font-family="Helvetica,sans-Serif" font-size="10.00" fill="#000000">/Game.cpp</text>
</a>
</g>
</g>
<!-- Node26&#45;&gt;Node27 -->
<g id="edge9" class="edge">
<title>Node26&#45;&gt;Node27</title>
<path fill="none" stroke="#191970" d="M496.5828,-73.6411C476.3182,-63.2422 453.1686,-51.3628 433.9952,-41.5239"/>
<polygon fill="#191970" stroke="#191970" points="495.1709,-76.8506 505.6659,-78.3022 498.3668,-70.6227 495.1709,-76.8506"/>
</g>
<!-- Node28 -->
<g id="node11" class="node">
<title>Node28</title>
<g id="a_node11"><a xlink:href="MainMenuState_8cpp.html" target="_top" xlink:title="/mnt/hdd/C0de/Engines\l/SFML/SFML_Engine/src\l/MainMenuState.cpp">
<polygon fill="none" stroke="#000000" points="180.5,-.5 180.5,-41.5 307.5,-41.5 307.5,-.5 180.5,-.5"/>
<text text-anchor="start" x="188.5" y="-29.5" font-family="Helvetica,sans-Serif" font-size="10.00" fill="#000000">/mnt/hdd/C0de/Engines</text>
<text text-anchor="start" x="188.5" y="-18.5" font-family="Helvetica,sans-Serif" font-size="10.00" fill="#000000">/SFML/SFML_Engine/src</text>
<text text-anchor="middle" x="244" y="-7.5" font-family="Helvetica,sans-Serif" font-size="10.00" fill="#000000">/MainMenuState.cpp</text>
</a>
</g>
</g>
<!-- Node26&#45;&gt;Node28 -->
<g id="edge12" class="edge">
<title>Node26&#45;&gt;Node28</title>
<path fill="none" stroke="#191970" d="M463.8051,-77.7047C399.8898,-61.4416 382.4495,-57.7453 322,-42 317.3858,-40.7981 312.6215,-39.5451 307.8282,-38.2757"/>
<polygon fill="#191970" stroke="#191970" points="463.0283,-81.1185 473.5831,-80.1983 464.7581,-74.3356 463.0283,-81.1185"/>
</g>
<!-- Node29&#45;&gt;Node28 -->
<g id="edge14" class="edge">
<title>Node29&#45;&gt;Node28</title>
<path fill="none" stroke="#191970" d="M126.9917,-74.0619C150.1417,-63.5637 176.7528,-51.4958 198.7423,-41.5239"/>
<polygon fill="#191970" stroke="#191970" points="125.303,-70.9846 117.6413,-78.3022 128.1941,-77.3597 125.303,-70.9846"/>
</g>
<!-- Node30 -->
<g id="node13" class="node">
<title>Node30</title>
<g id="a_node13"><a xlink:href="SplashState_8cpp.html" target="_top" xlink:title="/mnt/hdd/C0de/Engines\l/SFML/SFML_Engine/src\l/SplashState.cpp">
<polygon fill="none" stroke="#000000" points="24.5,-.5 24.5,-41.5 151.5,-41.5 151.5,-.5 24.5,-.5"/>
<text text-anchor="start" x="32.5" y="-29.5" font-family="Helvetica,sans-Serif" font-size="10.00" fill="#000000">/mnt/hdd/C0de/Engines</text>
<text text-anchor="start" x="32.5" y="-18.5" font-family="Helvetica,sans-Serif" font-size="10.00" fill="#000000">/SFML/SFML_Engine/src</text>
<text text-anchor="middle" x="88" y="-7.5" font-family="Helvetica,sans-Serif" font-size="10.00" fill="#000000">/SplashState.cpp</text>
</a>
</g>
</g>
<!-- Node29&#45;&gt;Node30 -->
<g id="edge15" class="edge">
<title>Node29&#45;&gt;Node30</title>
<path fill="none" stroke="#191970" d="M78.3428,-68.0789C80.1605,-59.2178 82.0975,-49.7747 83.7559,-41.6898"/>
<polygon fill="#191970" stroke="#191970" points="74.8686,-67.5981 76.2877,-78.0974 81.7258,-69.0047 74.8686,-67.5981"/>
</g>
<!-- Node31&#45;&gt;Node27 -->
<g id="edge17" class="edge">
<title>Node31&#45;&gt;Node27</title>
<path fill="none" stroke="#191970" d="M387.9642,-68.0789C389.1003,-59.2178 390.3109,-49.7747 391.3475,-41.6898"/>
<polygon fill="#191970" stroke="#191970" points="384.48,-67.7335 386.6798,-78.0974 391.4231,-68.6237 384.48,-67.7335"/>
</g>
<!-- Node31&#45;&gt;Node30 -->
<g id="edge18" class="edge">
<title>Node31&#45;&gt;Node30</title>
<path fill="none" stroke="#191970" d="M302.0268,-77.399C254.582,-64.8966 195.7502,-49.3936 151.7821,-37.8075"/>
<polygon fill="#191970" stroke="#191970" points="301.407,-80.855 311.9688,-80.0188 303.1907,-74.0861 301.407,-80.855"/>
</g>
<!-- Node34&#45;&gt;Node22 -->
<g id="edge22" class="edge">
<title>Node34&#45;&gt;Node22</title>
<path fill="none" stroke="#191970" d="M405.3405,-228.7948C389.1358,-218.6016 370.8464,-207.0969 355.6277,-197.5239"/>
<polygon fill="#191970" stroke="#191970" points="403.7676,-231.9403 414.0958,-234.3022 407.4948,-226.015 403.7676,-231.9403"/>
</g>
<!-- Node34&#45;&gt;Node26 -->
<g id="edge23" class="edge">
<title>Node34&#45;&gt;Node26</title>
<path fill="none" stroke="#191970" d="M437.6075,-224.5865C433.0672,-203.8507 430.8937,-176.5361 443,-156 452.4448,-139.9786 468.1899,-128.145 484.5626,-119.5464"/>
<polygon fill="#191970" stroke="#191970" points="434.2534,-225.6028 440.0541,-234.4686 441.0483,-223.9205 434.2534,-225.6028"/>
</g>
<!-- Node35 -->
<g id="node18" class="node">
<title>Node35</title>
<g id="a_node18"><a xlink:href="Main__Player_8cpp.html" target="_top" xlink:title="/mnt/hdd/C0de/Engines\l/SFML/SFML_Engine/src\l/Main_Player.cpp">
<polygon fill="none" stroke="#000000" points="451.5,-156.5 451.5,-197.5 578.5,-197.5 578.5,-156.5 451.5,-156.5"/>
<text text-anchor="start" x="459.5" y="-185.5" font-family="Helvetica,sans-Serif" font-size="10.00" fill="#000000">/mnt/hdd/C0de/Engines</text>
<text text-anchor="start" x="459.5" y="-174.5" font-family="Helvetica,sans-Serif" font-size="10.00" fill="#000000">/SFML/SFML_Engine/src</text>
<text text-anchor="middle" x="515" y="-163.5" font-family="Helvetica,sans-Serif" font-size="10.00" fill="#000000">/Main_Player.cpp</text>
</a>
</g>
</g>
<!-- Node34&#45;&gt;Node35 -->
<g id="edge24" class="edge">
<title>Node34&#45;&gt;Node35</title>
<path fill="none" stroke="#191970" d="M471.9543,-226.376C480.2413,-216.8703 489.3014,-206.4778 496.9627,-197.6898"/>
<polygon fill="#191970" stroke="#191970" points="469.1559,-224.2597 465.2228,-234.0974 474.4324,-228.8597 469.1559,-224.2597"/>
</g>
</g>
</svg>
