<?xml version="1.0" encoding="UTF-8" standalone="no"?>
<!DOCTYPE svg PUBLIC "-//W3C//DTD SVG 1.1//EN"
 "http://www.w3.org/Graphics/SVG/1.1/DTD/svg11.dtd">
<!-- Generated by graphviz version 2.40.1 (20161225.0304)
 -->
<!-- Title: /mnt/hdd/C0de/Engines/SFML/SFML_Engine/include/GameOverState.hpp Pages: 1 -->
<!--zoomable 554 -->
<svg id="main" version="1.1" xmlns="http://www.w3.org/2000/svg" xmlns:xlink="http://www.w3.org/1999/xlink" xml:space="preserve" onload="init(evt)">
<style type="text/css"><![CDATA[
.edge:hover path { stroke: red; }
.edge:hover polygon { stroke: red; fill: red; }
]]></style>
<script type="text/javascript"><![CDATA[
var edges = document.getElementsByTagName('g');
if (edges && edges.length) {
  for (var i=0;i<edges.length;i++) {
    if (edges[i].id.substr(0,4)=='edge') {
      edges[i].setAttribute('class','edge');
    }
  }
}
]]></script>
        <defs>
                <circle id="rim" cx="0" cy="0" r="7"/>
                <circle id="rim2" cx="0" cy="0" r="3.5"/>
                <g id="zoomPlus">
                        <use xlink:href="#rim" fill="#404040">
                                <set attributeName="fill" to="#808080" begin="zoomplus.mouseover" end="zoomplus.mouseout"/>
                        </use>
                        <path d="M-4,0h8M0,-4v8" fill="none" stroke="white" stroke-width="1.5" pointer-events="none"/>
                </g>
                <g id="zoomMin">
                        <use xlink:href="#rim" fill="#404040">
                                <set attributeName="fill" to="#808080" begin="zoomminus.mouseover" end="zoomminus.mouseout"/>
                        </use>
                        <path d="M-4,0h8" fill="none" stroke="white" stroke-width="1.5" pointer-events="none"/>
                </g>
                <g id="dirArrow">
                        <path fill="none" stroke="white" stroke-width="1.5" d="M0,-3.0v7 M-2.5,-0.5L0,-3.0L2.5,-0.5"/>
                </g>
               <g id="resetDef">
                       <use xlink:href="#rim2" fill="#404040">
                               <set attributeName="fill" to="#808080" begin="reset.mouseover" end="reset.mouseout"/>
                       </use>
               </g>
        </defs>

<script type="text/javascript">
var viewWidth = 1286;
var viewHeight = 554;
var sectionId = 'dynsection-0';
</script>
<script xlink:href="svgpan.js"/>
<svg id="graph" class="graph">
<g id="viewport">
<title>/mnt/hdd/C0de/Engines/SFML/SFML_Engine/include/GameOverState.hpp</title>
<!-- Node0 -->
<g id="node1" class="node">
<title>Node0</title>
<polygon fill="#bfbfbf" stroke="#000000" points="615.0722,-504.5 615.0722,-545.5 759.0722,-545.5 759.0722,-504.5 615.0722,-504.5"/>
<text text-anchor="start" x="623.0722" y="-533.5" font-family="Helvetica,sans-Serif" font-size="10.00" fill="#000000">/mnt/hdd/C0de/Engines</text>
<text text-anchor="start" x="623.0722" y="-522.5" font-family="Helvetica,sans-Serif" font-size="10.00" fill="#000000">/SFML/SFML_Engine/include</text>
<text text-anchor="middle" x="687.0722" y="-511.5" font-family="Helvetica,sans-Serif" font-size="10.00" fill="#000000">/GameOverState.hpp</text>
</g>
<!-- Node1 -->
<g id="node2" class="node">
<title>Node1</title>
<polygon fill="none" stroke="#bfbfbf" points="365.0722,-.5 365.0722,-19.5 469.0722,-19.5 469.0722,-.5 365.0722,-.5"/>
<text text-anchor="middle" x="417.0722" y="-7.5" font-family="Helvetica,sans-Serif" font-size="10.00" fill="#000000">SFML/Graphics.hpp</text>
</g>
<!-- Node0&#45;&gt;Node1 -->
<g id="edge1" class="edge">
<title>Node0&#45;&gt;Node1</title>
<path fill="none" stroke="#191970" d="M614.6392,-520.2277C488.4224,-511.4336 233.3928,-491.4133 147.0722,-468 78.3444,-449.3585 1.0722,-473.211 1.0722,-402 1.0722,-402 1.0722,-402 1.0722,-122 1.0722,-91.4754 -3.2167,-75.7327 20.0722,-56 45.0795,-34.8112 249.462,-19.8405 354.7959,-13.4525"/>
<polygon fill="#191970" stroke="#191970" points="355.2059,-16.9343 364.9788,-12.843 354.7876,-9.9468 355.2059,-16.9343"/>
</g>
<!-- Node2 -->
<g id="node3" class="node">
<title>Node2</title>
<polygon fill="none" stroke="#bfbfbf" points="1176.5722,-448.5 1176.5722,-467.5 1277.5722,-467.5 1277.5722,-448.5 1176.5722,-448.5"/>
<text text-anchor="middle" x="1227.0722" y="-455.5" font-family="Helvetica,sans-Serif" font-size="10.00" fill="#000000">SFML/Network.hpp</text>
</g>
<!-- Node0&#45;&gt;Node2 -->
<g id="edge2" class="edge">
<title>Node0&#45;&gt;Node2</title>
<path fill="none" stroke="#191970" d="M759.1902,-517.1004C852.3546,-506.7223 1019.5056,-487.5152 1162.0722,-468 1163.3766,-467.8214 1164.6954,-467.6387 1166.0246,-467.4525"/>
<polygon fill="#191970" stroke="#191970" points="1166.9529,-470.8552 1176.3538,-465.9693 1165.9579,-463.9262 1166.9529,-470.8552"/>
</g>
<!-- Node3 -->
<g id="node4" class="node">
<title>Node3</title>
<g id="a_node4"><a xlink:href="State_8hpp.html" target="_top" xlink:title="State.hpp">
<polygon fill="none" stroke="#000000" points="29.5722,-56.5 29.5722,-75.5 88.5722,-75.5 88.5722,-56.5 29.5722,-56.5"/>
<text text-anchor="middle" x="59.0722" y="-63.5" font-family="Helvetica,sans-Serif" font-size="10.00" fill="#000000">State.hpp</text>
</a>
</g>
</g>
<!-- Node0&#45;&gt;Node3 -->
<g id="edge3" class="edge">
<title>Node0&#45;&gt;Node3</title>
<path fill="none" stroke="#191970" d="M615.0326,-518.3795C450.0774,-502.2516 59.0722,-458.1052 59.0722,-402 59.0722,-402 59.0722,-402 59.0722,-178 59.0722,-145.7116 59.0722,-108.1872 59.0722,-85.8048"/>
<polygon fill="#191970" stroke="#191970" points="62.5723,-85.5883 59.0722,-75.5884 55.5723,-85.5884 62.5723,-85.5883"/>
</g>
<!-- Node4 -->
<g id="node5" class="node">
<title>Node4</title>
<g id="a_node5"><a xlink:href="Game_8hpp.html" target="_top" xlink:title="Game.hpp">
<polygon fill="none" stroke="#000000" points="413.0722,-168.5 413.0722,-187.5 475.0722,-187.5 475.0722,-168.5 413.0722,-168.5"/>
<text text-anchor="middle" x="444.0722" y="-175.5" font-family="Helvetica,sans-Serif" font-size="10.00" fill="#000000">Game.hpp</text>
</a>
</g>
</g>
<!-- Node0&#45;&gt;Node4 -->
<g id="edge4" class="edge">
<title>Node0&#45;&gt;Node4</title>
<path fill="none" stroke="#191970" d="M615.0643,-518.3112C544.3708,-507.3143 447.0722,-478.3166 447.0722,-402 447.0722,-402 447.0722,-402 447.0722,-290 447.0722,-257.7 445.81,-220.1791 444.923,-197.8005"/>
<polygon fill="#191970" stroke="#191970" points="448.4109,-197.4334 444.5021,-187.5861 441.4169,-197.7217 448.4109,-197.4334"/>
</g>
<!-- Node17 -->
<g id="node18" class="node">
<title>Node17</title>
<polygon fill="none" stroke="#bfbfbf" points="929.0722,-.5 929.0722,-19.5 983.0722,-19.5 983.0722,-.5 929.0722,-.5"/>
<text text-anchor="middle" x="956.0722" y="-7.5" font-family="Helvetica,sans-Serif" font-size="10.00" fill="#000000">iostream</text>
</g>
<!-- Node0&#45;&gt;Node17 -->
<g id="edge56" class="edge">
<title>Node0&#45;&gt;Node17</title>
<path fill="none" stroke="#191970" d="M759.1035,-520.6915C888.7597,-510.9481 1148.0722,-481.5211 1148.0722,-402 1148.0722,-402 1148.0722,-402 1148.0722,-122 1148.0722,-50.9768 1048.8363,-24.1868 993.0509,-14.7378"/>
<polygon fill="#191970" stroke="#191970" points="993.5993,-11.2811 983.1739,-13.1685 992.5008,-18.1944 993.5993,-11.2811"/>
</g>
<!-- Node18 -->
<g id="node19" class="node">
<title>Node18</title>
<g id="a_node19"><a xlink:href="LoadingGameObjects_8hpp.html" target="_top" xlink:title="LoadingGameObjects.hpp">
<polygon fill="none" stroke="#000000" points="740.5722,-448.5 740.5722,-467.5 869.5722,-467.5 869.5722,-448.5 740.5722,-448.5"/>
<text text-anchor="middle" x="805.0722" y="-455.5" font-family="Helvetica,sans-Serif" font-size="10.00" fill="#000000">LoadingGameObjects.hpp</text>
</a>
</g>
</g>
<!-- Node0&#45;&gt;Node18 -->
<g id="edge26" class="edge">
<title>Node0&#45;&gt;Node18</title>
<path fill="none" stroke="#191970" d="M723.439,-504.3511C741.4401,-494.1301 762.7544,-482.0279 779.0891,-472.7532"/>
<polygon fill="#191970" stroke="#191970" points="781.1007,-475.6359 788.0685,-467.6546 777.6444,-469.5486 781.1007,-475.6359"/>
</g>
<!-- Node4&#45;&gt;Node1 -->
<g id="edge7" class="edge">
<title>Node4&#45;&gt;Node1</title>
<path fill="none" stroke="#191970" d="M412.7945,-175.9184C334.5919,-170.3974 135.4329,-154.2653 116.0722,-132 45.4622,-50.7963 247.4088,-22.8637 354.7803,-13.9053"/>
<polygon fill="#191970" stroke="#191970" points="355.1755,-17.3849 364.8635,-13.0965 354.6157,-10.4074 355.1755,-17.3849"/>
</g>
<!-- Node5 -->
<g id="node6" class="node">
<title>Node5</title>
<polygon fill="none" stroke="#bfbfbf" points="330.0722,-56.5 330.0722,-75.5 382.0722,-75.5 382.0722,-56.5 330.0722,-56.5"/>
<text text-anchor="middle" x="356.0722" y="-63.5" font-family="Helvetica,sans-Serif" font-size="10.00" fill="#000000">memory</text>
</g>
<!-- Node4&#45;&gt;Node5 -->
<g id="edge5" class="edge">
<title>Node4&#45;&gt;Node5</title>
<path fill="none" stroke="#191970" d="M425.5232,-168.3647C411.6043,-160.3027 392.9735,-147.6196 381.0722,-132 370.6422,-118.3113 364.1317,-99.7763 360.3793,-85.8333"/>
<polygon fill="#191970" stroke="#191970" points="363.7066,-84.7036 357.9392,-75.816 356.9054,-86.3603 363.7066,-84.7036"/>
</g>
<!-- Node6 -->
<g id="node7" class="node">
<title>Node6</title>
<polygon fill="none" stroke="#bfbfbf" points="520.5722,-.5 520.5722,-19.5 561.5722,-19.5 561.5722,-.5 520.5722,-.5"/>
<text text-anchor="middle" x="541.0722" y="-7.5" font-family="Helvetica,sans-Serif" font-size="10.00" fill="#000000">string</text>
</g>
<!-- Node4&#45;&gt;Node6 -->
<g id="edge6" class="edge">
<title>Node4&#45;&gt;Node6</title>
<path fill="none" stroke="#191970" d="M458.9671,-168.2872C470.7541,-159.9224 486.8748,-146.8716 497.0722,-132 519.2558,-99.6481 531.6237,-54.8271 537.2619,-29.4918"/>
<polygon fill="#191970" stroke="#191970" points="540.7033,-30.1339 539.3328,-19.6281 533.8527,-28.6955 540.7033,-30.1339"/>
</g>
<!-- Node7 -->
<g id="node8" class="node">
<title>Node7</title>
<g id="a_node8"><a xlink:href="StateMachine_8hpp.html" target="_top" xlink:title="StateMachine.hpp">
<polygon fill="none" stroke="#000000" points="238.5722,-112.5 238.5722,-131.5 333.5722,-131.5 333.5722,-112.5 238.5722,-112.5"/>
<text text-anchor="middle" x="286.0722" y="-119.5" font-family="Helvetica,sans-Serif" font-size="10.00" fill="#000000">StateMachine.hpp</text>
</a>
</g>
</g>
<!-- Node4&#45;&gt;Node7 -->
<g id="edge8" class="edge">
<title>Node4&#45;&gt;Node7</title>
<path fill="none" stroke="#191970" d="M416.9111,-168.3733C390.8655,-159.1419 351.3606,-145.1402 322.5744,-134.9375"/>
<polygon fill="#191970" stroke="#191970" points="323.4737,-131.5429 312.879,-131.5011 321.1352,-138.1408 323.4737,-131.5429"/>
</g>
<!-- Node9 -->
<g id="node10" class="node">
<title>Node9</title>
<g id="a_node10"><a xlink:href="AssetManager_8hpp.html" target="_top" xlink:title="AssetManager.hpp">
<polygon fill="none" stroke="#000000" points="390.0722,-112.5 390.0722,-131.5 488.0722,-131.5 488.0722,-112.5 390.0722,-112.5"/>
<text text-anchor="middle" x="439.0722" y="-119.5" font-family="Helvetica,sans-Serif" font-size="10.00" fill="#000000">AssetManager.hpp</text>
</a>
</g>
</g>
<!-- Node4&#45;&gt;Node9 -->
<g id="edge12" class="edge">
<title>Node4&#45;&gt;Node9</title>
<path fill="none" stroke="#191970" d="M443.2013,-168.2455C442.5489,-160.9382 441.6342,-150.6944 440.8316,-141.7046"/>
<polygon fill="#191970" stroke="#191970" points="444.3087,-141.2918 439.9332,-131.6427 437.3365,-141.9143 444.3087,-141.2918"/>
</g>
<!-- Node11 -->
<g id="node12" class="node">
<title>Node11</title>
<g id="a_node12"><a xlink:href="InputManager_8hpp.html" target="_top" xlink:title="InputManager.hpp">
<polygon fill="none" stroke="#000000" points="125.5722,-112.5 125.5722,-131.5 220.5722,-131.5 220.5722,-112.5 125.5722,-112.5"/>
<text text-anchor="middle" x="173.0722" y="-119.5" font-family="Helvetica,sans-Serif" font-size="10.00" fill="#000000">InputManager.hpp</text>
</a>
</g>
</g>
<!-- Node4&#45;&gt;Node11 -->
<g id="edge15" class="edge">
<title>Node4&#45;&gt;Node11</title>
<path fill="none" stroke="#191970" d="M412.9851,-171.5761C368.2231,-162.3264 284.8884,-145.1059 229.1925,-133.5968"/>
<polygon fill="#191970" stroke="#191970" points="229.6314,-130.1136 219.13,-131.5175 228.2148,-136.9688 229.6314,-130.1136"/>
</g>
<!-- Node12 -->
<g id="node13" class="node">
<title>Node12</title>
<g id="a_node13"><a xlink:href="entity__manager_8h.html" target="_top" xlink:title="entity_manager.h">
<polygon fill="none" stroke="#000000" points="623.0722,-112.5 623.0722,-131.5 715.0722,-131.5 715.0722,-112.5 623.0722,-112.5"/>
<text text-anchor="middle" x="669.0722" y="-119.5" font-family="Helvetica,sans-Serif" font-size="10.00" fill="#000000">entity_manager.h</text>
</a>
</g>
</g>
<!-- Node4&#45;&gt;Node12 -->
<g id="edge17" class="edge">
<title>Node4&#45;&gt;Node12</title>
<path fill="none" stroke="#191970" d="M475.3575,-170.2134C512.9975,-160.8453 576.6091,-145.0131 620.6159,-134.0602"/>
<polygon fill="#191970" stroke="#191970" points="621.6626,-137.4066 630.5212,-131.5949 619.9719,-130.6138 621.6626,-137.4066"/>
</g>
<!-- Node7&#45;&gt;Node3 -->
<g id="edge11" class="edge">
<title>Node7&#45;&gt;Node3</title>
<path fill="none" stroke="#191970" d="M247.3075,-112.4369C205.7784,-102.1918 140.2193,-86.0187 98.4541,-75.7154"/>
<polygon fill="#191970" stroke="#191970" points="99.1825,-72.2902 88.6352,-73.2931 97.5058,-79.0864 99.1825,-72.2902"/>
</g>
<!-- Node7&#45;&gt;Node5 -->
<g id="edge9" class="edge">
<title>Node7&#45;&gt;Node5</title>
<path fill="none" stroke="#191970" d="M298.2653,-112.2455C308.7043,-103.8943 323.9377,-91.7076 336.1462,-81.9408"/>
<polygon fill="#191970" stroke="#191970" points="338.3966,-84.6227 344.0189,-75.6427 334.0237,-79.1566 338.3966,-84.6227"/>
</g>
<!-- Node8 -->
<g id="node9" class="node">
<title>Node8</title>
<polygon fill="none" stroke="#bfbfbf" points="265.5722,-56.5 265.5722,-75.5 306.5722,-75.5 306.5722,-56.5 265.5722,-56.5"/>
<text text-anchor="middle" x="286.0722" y="-63.5" font-family="Helvetica,sans-Serif" font-size="10.00" fill="#000000">stack</text>
</g>
<!-- Node7&#45;&gt;Node8 -->
<g id="edge10" class="edge">
<title>Node7&#45;&gt;Node8</title>
<path fill="none" stroke="#191970" d="M286.0722,-112.2455C286.0722,-104.9382 286.0722,-94.6944 286.0722,-85.7046"/>
<polygon fill="#191970" stroke="#191970" points="289.5723,-85.6426 286.0722,-75.6427 282.5723,-85.6427 289.5723,-85.6426"/>
</g>
<!-- Node9&#45;&gt;Node1 -->
<g id="edge14" class="edge">
<title>Node9&#45;&gt;Node1</title>
<path fill="none" stroke="#191970" d="M437.1965,-112.4509C433.5921,-94.1013 425.6347,-53.5908 420.8769,-29.3693"/>
<polygon fill="#191970" stroke="#191970" points="424.3051,-28.6627 418.9432,-19.5249 417.4363,-30.012 424.3051,-28.6627"/>
</g>
<!-- Node10 -->
<g id="node11" class="node">
<title>Node10</title>
<polygon fill="none" stroke="#bfbfbf" points="445.5722,-56.5 445.5722,-75.5 480.5722,-75.5 480.5722,-56.5 445.5722,-56.5"/>
<text text-anchor="middle" x="463.0722" y="-63.5" font-family="Helvetica,sans-Serif" font-size="10.00" fill="#000000">map</text>
</g>
<!-- Node9&#45;&gt;Node10 -->
<g id="edge13" class="edge">
<title>Node9&#45;&gt;Node10</title>
<path fill="none" stroke="#191970" d="M443.2527,-112.2455C446.4532,-104.7776 450.9682,-94.2427 454.8806,-85.1137"/>
<polygon fill="#191970" stroke="#191970" points="458.2174,-86.2129 458.9396,-75.6427 451.7834,-83.4554 458.2174,-86.2129"/>
</g>
<!-- Node11&#45;&gt;Node1 -->
<g id="edge16" class="edge">
<title>Node11&#45;&gt;Node1</title>
<path fill="none" stroke="#191970" d="M182.3994,-112.4855C196.8954,-98.2184 226.2759,-71.3252 256.0722,-56 286.9798,-40.1032 324.135,-29.0216 354.9606,-21.7248"/>
<polygon fill="#191970" stroke="#191970" points="355.7642,-25.1315 364.7305,-19.4874 354.2015,-18.3081 355.7642,-25.1315"/>
</g>
<!-- Node13 -->
<g id="node14" class="node">
<title>Node13</title>
<polygon fill="none" stroke="#bfbfbf" points="687.5722,-56.5 687.5722,-75.5 770.5722,-75.5 770.5722,-56.5 687.5722,-56.5"/>
<text text-anchor="middle" x="729.0722" y="-63.5" font-family="Helvetica,sans-Serif" font-size="10.00" fill="#000000">unordered_map</text>
</g>
<!-- Node12&#45;&gt;Node13 -->
<g id="edge18" class="edge">
<title>Node12&#45;&gt;Node13</title>
<path fill="none" stroke="#191970" d="M679.5234,-112.2455C688.2991,-104.0549 701.0277,-92.1749 711.3862,-82.5069"/>
<polygon fill="#191970" stroke="#191970" points="713.8183,-85.0246 718.7408,-75.6427 709.0421,-79.9072 713.8183,-85.0246"/>
</g>
<!-- Node14 -->
<g id="node15" class="node">
<title>Node14</title>
<polygon fill="none" stroke="#bfbfbf" points="827.0722,-56.5 827.0722,-75.5 871.0722,-75.5 871.0722,-56.5 827.0722,-56.5"/>
<text text-anchor="middle" x="849.0722" y="-63.5" font-family="Helvetica,sans-Serif" font-size="10.00" fill="#000000">vector</text>
</g>
<!-- Node12&#45;&gt;Node14 -->
<g id="edge19" class="edge">
<title>Node12&#45;&gt;Node14</title>
<path fill="none" stroke="#191970" d="M700.0153,-112.3733C732.809,-102.1708 784.3319,-86.1414 817.4,-75.8536"/>
<polygon fill="#191970" stroke="#191970" points="818.52,-79.1707 827.0288,-72.8579 816.4405,-72.4867 818.52,-79.1707"/>
</g>
<!-- Node15 -->
<g id="node16" class="node">
<title>Node15</title>
<polygon fill="none" stroke="#bfbfbf" points="682.0722,-.5 682.0722,-19.5 762.0722,-19.5 762.0722,-.5 682.0722,-.5"/>
<text text-anchor="middle" x="722.0722" y="-7.5" font-family="Helvetica,sans-Serif" font-size="10.00" fill="#000000">box2d/box2d.h</text>
</g>
<!-- Node12&#45;&gt;Node15 -->
<g id="edge20" class="edge">
<title>Node12&#45;&gt;Node15</title>
<path fill="none" stroke="#191970" d="M715.1443,-115.2242C738.7836,-109.1573 765.5875,-97.6819 780.0722,-76 792.7681,-56.9957 770.7359,-37.6292 750.2772,-24.8341"/>
<polygon fill="#191970" stroke="#191970" points="751.8073,-21.6731 741.4157,-19.6079 748.2513,-27.7026 751.8073,-21.6731"/>
</g>
<!-- Node16 -->
<g id="node17" class="node">
<title>Node16</title>
<g id="a_node17"><a xlink:href="entity_8h.html" target="_top" xlink:title="entity.h">
<polygon fill="none" stroke="#000000" points="620.5722,-56.5 620.5722,-75.5 669.5722,-75.5 669.5722,-56.5 620.5722,-56.5"/>
<text text-anchor="middle" x="645.0722" y="-63.5" font-family="Helvetica,sans-Serif" font-size="10.00" fill="#000000">entity.h</text>
</a>
</g>
</g>
<!-- Node12&#45;&gt;Node16 -->
<g id="edge21" class="edge">
<title>Node12&#45;&gt;Node16</title>
<path fill="none" stroke="#191970" d="M664.8917,-112.2455C661.6912,-104.7776 657.1762,-94.2427 653.2638,-85.1137"/>
<polygon fill="#191970" stroke="#191970" points="656.3611,-83.4554 649.2048,-75.6427 649.927,-86.2129 656.3611,-83.4554"/>
</g>
<!-- Node16&#45;&gt;Node1 -->
<g id="edge22" class="edge">
<title>Node16&#45;&gt;Node1</title>
<path fill="none" stroke="#191970" d="M620.3262,-59.6062C615.5968,-58.398 610.6835,-57.1523 606.0722,-56 558.8539,-44.2007 504.8995,-31.1076 466.7587,-21.9171"/>
<polygon fill="#191970" stroke="#191970" points="467.4702,-18.4884 456.9287,-19.5505 465.8316,-25.294 467.4702,-18.4884"/>
</g>
<!-- Node16&#45;&gt;Node6 -->
<g id="edge23" class="edge">
<title>Node16&#45;&gt;Node6</title>
<path fill="none" stroke="#191970" d="M626.9568,-56.2455C610.6272,-47.4527 586.4012,-34.4079 567.8383,-24.4125"/>
<polygon fill="#191970" stroke="#191970" points="569.4441,-21.3021 558.98,-19.6427 566.1254,-27.4654 569.4441,-21.3021"/>
</g>
<!-- Node16&#45;&gt;Node15 -->
<g id="edge24" class="edge">
<title>Node16&#45;&gt;Node15</title>
<path fill="none" stroke="#191970" d="M658.4846,-56.2455C670.0779,-47.814 687.047,-35.4729 700.54,-25.6598"/>
<polygon fill="#191970" stroke="#191970" points="702.7848,-28.355 708.8135,-19.6427 698.6676,-22.6938 702.7848,-28.355"/>
</g>
<!-- Node16&#45;&gt;Node17 -->
<g id="edge25" class="edge">
<title>Node16&#45;&gt;Node17</title>
<path fill="none" stroke="#191970" d="M669.8628,-58.3305C672.9493,-57.4876 676.0736,-56.6873 679.0722,-56 763.9342,-36.5497 865.2045,-21.85 918.6877,-14.7388"/>
<polygon fill="#191970" stroke="#191970" points="919.2699,-18.1924 928.7282,-13.4185 918.3572,-11.2522 919.2699,-18.1924"/>
</g>
<!-- Node18&#45;&gt;Node1 -->
<g id="edge27" class="edge">
<title>Node18&#45;&gt;Node1</title>
<path fill="none" stroke="#191970" d="M740.3152,-448.6041C683.3424,-436.869 602.454,-411.147 556.0722,-356 468.1977,-251.519 568.5641,-167.7016 490.0722,-56 480.3225,-42.1252 464.921,-31.5264 450.7726,-24.0194"/>
<polygon fill="#191970" stroke="#191970" points="452.2413,-20.8411 441.728,-19.5294 449.1287,-27.111 452.2413,-20.8411"/>
</g>
<!-- Node18&#45;&gt;Node4 -->
<g id="edge29" class="edge">
<title>Node18&#45;&gt;Node4</title>
<path fill="none" stroke="#191970" d="M740.3165,-454.7216C667.4481,-449.8061 554.9449,-438.1403 522.0722,-412 497.2662,-392.2743 495.0722,-377.693 495.0722,-346 495.0722,-346 495.0722,-346 495.0722,-290 495.0722,-254.0802 473.0767,-217.0352 457.9756,-195.8345"/>
<polygon fill="#191970" stroke="#191970" points="460.5816,-193.4725 451.818,-187.5185 454.9559,-197.638 460.5816,-193.4725"/>
</g>
<!-- Node19 -->
<g id="node20" class="node">
<title>Node19</title>
<g id="a_node20"><a xlink:href="DEFINITIONS_8hpp.html" target="_top" xlink:title="DEFINITIONS.hpp">
<polygon fill="none" stroke="#000000" points="771.0722,-168.5 771.0722,-187.5 871.0722,-187.5 871.0722,-168.5 771.0722,-168.5"/>
<text text-anchor="middle" x="821.0722" y="-175.5" font-family="Helvetica,sans-Serif" font-size="10.00" fill="#000000">DEFINITIONS.hpp</text>
</a>
</g>
</g>
<!-- Node18&#45;&gt;Node19 -->
<g id="edge28" class="edge">
<title>Node18&#45;&gt;Node19</title>
<path fill="none" stroke="#191970" d="M869.5937,-452.0249C949.4931,-443.9624 1076.8641,-428.676 1091.0722,-412 1173.2612,-315.5355 952.2984,-224.0038 859.7086,-190.971"/>
<polygon fill="#191970" stroke="#191970" points="860.7144,-187.6146 850.1196,-187.5957 858.3902,-194.2175 860.7144,-187.6146"/>
</g>
<!-- Node20 -->
<g id="node21" class="node">
<title>Node20</title>
<g id="a_node21"><a xlink:href="Main__Player_8hpp.html" target="_top" xlink:title="Main_Player.hpp">
<polygon fill="none" stroke="#000000" points="725.5722,-392.5 725.5722,-411.5 814.5722,-411.5 814.5722,-392.5 725.5722,-392.5"/>
<text text-anchor="middle" x="770.0722" y="-399.5" font-family="Helvetica,sans-Serif" font-size="10.00" fill="#000000">Main_Player.hpp</text>
</a>
</g>
</g>
<!-- Node18&#45;&gt;Node20 -->
<g id="edge30" class="edge">
<title>Node18&#45;&gt;Node20</title>
<path fill="none" stroke="#191970" d="M798.9757,-448.2455C794.1577,-440.5367 787.2971,-429.5598 781.469,-420.2348"/>
<polygon fill="#191970" stroke="#191970" points="784.3669,-418.2677 776.0989,-411.6427 778.4309,-421.9777 784.3669,-418.2677"/>
</g>
<!-- Node22 -->
<g id="node23" class="node">
<title>Node22</title>
<g id="a_node23"><a xlink:href="Bullet_8hpp.html" target="_top" xlink:title="Bullet.hpp">
<polygon fill="none" stroke="#000000" points="965.0722,-280.5 965.0722,-299.5 1025.0722,-299.5 1025.0722,-280.5 965.0722,-280.5"/>
<text text-anchor="middle" x="995.0722" y="-287.5" font-family="Helvetica,sans-Serif" font-size="10.00" fill="#000000">Bullet.hpp</text>
</a>
</g>
</g>
<!-- Node18&#45;&gt;Node22 -->
<g id="edge48" class="edge">
<title>Node18&#45;&gt;Node22</title>
<path fill="none" stroke="#191970" d="M846.4246,-448.4414C873.0793,-441.0923 907.7362,-429.2431 935.0722,-412 964.8426,-393.2213 976.6246,-388.0964 991.0722,-356 997.5511,-341.6068 998.2242,-323.635 997.4591,-310.081"/>
<polygon fill="#191970" stroke="#191970" points="1000.9279,-309.5691 996.5741,-299.9102 993.9542,-310.176 1000.9279,-309.5691"/>
</g>
<!-- Node27 -->
<g id="node28" class="node">
<title>Node27</title>
<g id="a_node28"><a xlink:href="Enemy_8hpp.html" target="_top" xlink:title="Enemy.hpp">
<polygon fill="none" stroke="#000000" points="860.0722,-392.5 860.0722,-411.5 926.0722,-411.5 926.0722,-392.5 860.0722,-392.5"/>
<text text-anchor="middle" x="893.0722" y="-399.5" font-family="Helvetica,sans-Serif" font-size="10.00" fill="#000000">Enemy.hpp</text>
</a>
</g>
</g>
<!-- Node18&#45;&gt;Node27 -->
<g id="edge49" class="edge">
<title>Node18&#45;&gt;Node27</title>
<path fill="none" stroke="#191970" d="M820.4007,-448.2455C833.9026,-439.6534 853.7844,-427.0014 869.3408,-417.1018"/>
<polygon fill="#191970" stroke="#191970" points="871.3619,-419.9643 877.9194,-411.6427 867.6037,-414.0587 871.3619,-419.9643"/>
</g>
<!-- Node28 -->
<g id="node29" class="node">
<title>Node28</title>
<polygon fill="none" stroke="#bfbfbf" points="1026.0722,-392.5 1026.0722,-411.5 1082.0722,-411.5 1082.0722,-392.5 1026.0722,-392.5"/>
<text text-anchor="middle" x="1054.0722" y="-399.5" font-family="Helvetica,sans-Serif" font-size="10.00" fill="#000000">tinyxml.h</text>
</g>
<!-- Node18&#45;&gt;Node28 -->
<g id="edge55" class="edge">
<title>Node18&#45;&gt;Node28</title>
<path fill="none" stroke="#191970" d="M848.7294,-448.4986C890.6522,-439.3274 955.7465,-424.9631 1012.0722,-412 1013.346,-411.7069 1014.641,-411.4073 1015.9486,-411.1034"/>
<polygon fill="#191970" stroke="#191970" points="1017.1355,-414.4201 1026.0719,-408.7288 1015.5368,-407.6051 1017.1355,-414.4201"/>
</g>
<!-- Node20&#45;&gt;Node17 -->
<g id="edge44" class="edge">
<title>Node20&#45;&gt;Node17</title>
<path fill="none" stroke="#191970" d="M766.4983,-392.3045C762.22,-379.1678 756.4149,-355.1559 763.0722,-336 790.5976,-256.7973 837.2329,-260.0799 880.0722,-188 884.423,-180.6795 929.5516,-73.3079 948.139,-28.9531"/>
<polygon fill="#191970" stroke="#191970" points="951.4279,-30.1603 952.0629,-19.5845 944.9713,-27.456 951.4279,-30.1603"/>
</g>
<!-- Node21 -->
<g id="node22" class="node">
<title>Node21</title>
<g id="a_node22"><a xlink:href="GameWorld_8hpp.html" target="_top" xlink:title="GameWorld.hpp">
<polygon fill="none" stroke="#000000" points="699.5722,-224.5 699.5722,-243.5 786.5722,-243.5 786.5722,-224.5 699.5722,-224.5"/>
<text text-anchor="middle" x="743.0722" y="-231.5" font-family="Helvetica,sans-Serif" font-size="10.00" fill="#000000">GameWorld.hpp</text>
</a>
</g>
</g>
<!-- Node20&#45;&gt;Node21 -->
<g id="edge31" class="edge">
<title>Node20&#45;&gt;Node21</title>
<path fill="none" stroke="#191970" d="M725.3389,-394.6992C702.6043,-388.4789 676.9186,-377.0243 663.0722,-356 637.9866,-317.91 687.7731,-273.0429 719.5133,-249.7786"/>
<polygon fill="#191970" stroke="#191970" points="721.7848,-252.4582 727.9099,-243.8133 717.7307,-246.7517 721.7848,-252.4582"/>
</g>
<!-- Node20&#45;&gt;Node22 -->
<g id="edge37" class="edge">
<title>Node20&#45;&gt;Node22</title>
<path fill="none" stroke="#191970" d="M805.3487,-392.4868C832.3516,-384.53 870.0961,-371.9272 901.0722,-356 928.5037,-341.8954 957.1053,-320.7385 975.4471,-306.2018"/>
<polygon fill="#191970" stroke="#191970" points="977.9821,-308.6544 983.5771,-299.6573 973.5927,-303.2015 977.9821,-308.6544"/>
</g>
<!-- Node23 -->
<g id="node24" class="node">
<title>Node23</title>
<g id="a_node24"><a xlink:href="Gun_8hpp.html" target="_top" xlink:title="Gun.hpp">
<polygon fill="none" stroke="#000000" points="838.5722,-336.5 838.5722,-355.5 891.5722,-355.5 891.5722,-336.5 838.5722,-336.5"/>
<text text-anchor="middle" x="865.0722" y="-343.5" font-family="Helvetica,sans-Serif" font-size="10.00" fill="#000000">Gun.hpp</text>
</a>
</g>
</g>
<!-- Node20&#45;&gt;Node23 -->
<g id="edge40" class="edge">
<title>Node20&#45;&gt;Node23</title>
<path fill="none" stroke="#191970" d="M786.62,-392.2455C801.3321,-383.5731 823.061,-370.7645 839.9227,-360.825"/>
<polygon fill="#191970" stroke="#191970" points="841.8768,-363.736 848.7141,-355.6427 838.3221,-357.7057 841.8768,-363.736"/>
</g>
<!-- Node24 -->
<g id="node25" class="node">
<title>Node24</title>
<polygon fill="none" stroke="#bfbfbf" points="772.0722,-336.5 772.0722,-355.5 820.0722,-355.5 820.0722,-336.5 772.0722,-336.5"/>
<text text-anchor="middle" x="796.0722" y="-343.5" font-family="Helvetica,sans-Serif" font-size="10.00" fill="#000000">stdlib.h</text>
</g>
<!-- Node20&#45;&gt;Node24 -->
<g id="edge45" class="edge">
<title>Node20&#45;&gt;Node24</title>
<path fill="none" stroke="#191970" d="M774.6011,-392.2455C778.1056,-384.6973 783.0649,-374.0158 787.3345,-364.8197"/>
<polygon fill="#191970" stroke="#191970" points="790.5586,-366.1867 791.5953,-355.6427 784.2096,-363.2389 790.5586,-366.1867"/>
</g>
<!-- Node25 -->
<g id="node26" class="node">
<title>Node25</title>
<polygon fill="none" stroke="#bfbfbf" points="672.0722,-336.5 672.0722,-355.5 716.0722,-355.5 716.0722,-336.5 672.0722,-336.5"/>
<text text-anchor="middle" x="694.0722" y="-343.5" font-family="Helvetica,sans-Serif" font-size="10.00" fill="#000000">time.h</text>
</g>
<!-- Node20&#45;&gt;Node25 -->
<g id="edge46" class="edge">
<title>Node20&#45;&gt;Node25</title>
<path fill="none" stroke="#191970" d="M756.834,-392.2455C745.3913,-383.814 728.6426,-371.4729 715.3248,-361.6598"/>
<polygon fill="#191970" stroke="#191970" points="717.2855,-358.757 707.1587,-355.6427 713.1331,-364.3924 717.2855,-358.757"/>
</g>
<!-- Node26 -->
<g id="node27" class="node">
<title>Node26</title>
<polygon fill="none" stroke="#bfbfbf" points="564.5722,-336.5 564.5722,-355.5 615.5722,-355.5 615.5722,-336.5 564.5722,-336.5"/>
<text text-anchor="middle" x="590.0722" y="-343.5" font-family="Helvetica,sans-Serif" font-size="10.00" fill="#000000">unistd.h</text>
</g>
<!-- Node20&#45;&gt;Node26 -->
<g id="edge47" class="edge">
<title>Node20&#45;&gt;Node26</title>
<path fill="none" stroke="#191970" d="M739.1291,-392.3733C707.5197,-382.5392 658.5092,-367.2915 625.3973,-356.99"/>
<polygon fill="#191970" stroke="#191970" points="626.2568,-353.592 615.6684,-353.9633 624.1773,-360.276 626.2568,-353.592"/>
</g>
<!-- Node21&#45;&gt;Node1 -->
<g id="edge32" class="edge">
<title>Node21&#45;&gt;Node1</title>
<path fill="none" stroke="#191970" d="M727.7085,-224.4892C701.9474,-208.0058 649.3979,-172.0328 614.0722,-132 587.9483,-102.3951 599.2367,-80.2424 568.0722,-56 542.6277,-36.2071 508.6849,-24.8914 479.4259,-18.4415"/>
<polygon fill="#191970" stroke="#191970" points="479.7938,-14.9439 469.2936,-16.357 478.3832,-21.8003 479.7938,-14.9439"/>
</g>
<!-- Node21&#45;&gt;Node4 -->
<g id="edge34" class="edge">
<title>Node21&#45;&gt;Node4</title>
<path fill="none" stroke="#191970" d="M699.2748,-225.7971C641.7058,-215.015 541.3228,-196.2142 485.1438,-185.6923"/>
<polygon fill="#191970" stroke="#191970" points="485.6621,-182.2286 475.1887,-183.8278 484.3735,-189.109 485.6621,-182.2286"/>
</g>
<!-- Node21&#45;&gt;Node12 -->
<g id="edge35" class="edge">
<title>Node21&#45;&gt;Node12</title>
<path fill="none" stroke="#191970" d="M736.763,-224.4509C724.4207,-205.7707 696.904,-164.1238 681.0154,-140.0761"/>
<polygon fill="#191970" stroke="#191970" points="683.7982,-137.9388 675.3655,-131.5249 677.9579,-141.7977 683.7982,-137.9388"/>
</g>
<!-- Node21&#45;&gt;Node14 -->
<g id="edge36" class="edge">
<title>Node21&#45;&gt;Node14</title>
<path fill="none" stroke="#191970" d="M744.5679,-224.1077C746.8814,-210.7479 752.1357,-186.4842 762.0722,-168 780.2818,-134.1261 811.2291,-101.4865 830.8849,-82.5997"/>
<polygon fill="#191970" stroke="#191970" points="833.4259,-85.0144 838.3034,-75.6091 828.6252,-79.9199 833.4259,-85.0144"/>
</g>
<!-- Node21&#45;&gt;Node19 -->
<g id="edge33" class="edge">
<title>Node21&#45;&gt;Node19</title>
<path fill="none" stroke="#191970" d="M756.6588,-224.2455C768.4027,-215.814 785.5921,-203.4729 799.2604,-193.6598"/>
<polygon fill="#191970" stroke="#191970" points="801.5593,-196.3179 807.6414,-187.6427 797.4769,-190.6316 801.5593,-196.3179"/>
</g>
<!-- Node22&#45;&gt;Node17 -->
<g id="edge39" class="edge">
<title>Node22&#45;&gt;Node17</title>
<path fill="none" stroke="#191970" d="M992.2687,-280.2066C986.9835,-260.8521 976.0722,-216.2612 976.0722,-178 976.0722,-178 976.0722,-178 976.0722,-122 976.0722,-89.2193 967.6668,-51.8705 961.7541,-29.6533"/>
<polygon fill="#191970" stroke="#191970" points="965.0632,-28.4878 959.0233,-19.7832 958.3167,-30.3545 965.0632,-28.4878"/>
</g>
<!-- Node22&#45;&gt;Node21 -->
<g id="edge38" class="edge">
<title>Node22&#45;&gt;Node21</title>
<path fill="none" stroke="#191970" d="M964.6751,-283.2451C922.9486,-273.9725 847.2878,-257.159 796.1172,-245.7878"/>
<polygon fill="#191970" stroke="#191970" points="796.7481,-242.3427 786.2269,-243.5899 795.2295,-249.176 796.7481,-242.3427"/>
</g>
<!-- Node23&#45;&gt;Node17 -->
<g id="edge43" class="edge">
<title>Node23&#45;&gt;Node17</title>
<path fill="none" stroke="#191970" d="M876.9616,-336.2632C897.4116,-318.3405 937.0722,-277.9199 937.0722,-234 937.0722,-234 937.0722,-234 937.0722,-122 937.0722,-89.2688 945.0574,-51.9052 950.6744,-29.6716"/>
<polygon fill="#191970" stroke="#191970" points="954.1137,-30.3545 953.2687,-19.7934 947.3433,-28.5763 954.1137,-30.3545"/>
</g>
<!-- Node23&#45;&gt;Node21 -->
<g id="edge41" class="edge">
<title>Node23&#45;&gt;Node21</title>
<path fill="none" stroke="#191970" d="M854.6706,-336.4509C833.8722,-317.3574 786.9375,-274.2697 761.0524,-250.5063"/>
<polygon fill="#191970" stroke="#191970" points="763.1811,-247.7093 753.4475,-243.5249 758.4471,-252.8659 763.1811,-247.7093"/>
</g>
<!-- Node23&#45;&gt;Node22 -->
<g id="edge42" class="edge">
<title>Node23&#45;&gt;Node22</title>
<path fill="none" stroke="#191970" d="M887.42,-336.3733C908.4756,-327.3032 940.2218,-313.6279 963.7897,-303.4755"/>
<polygon fill="#191970" stroke="#191970" points="965.2166,-306.6719 973.016,-299.5011 962.4472,-300.243 965.2166,-306.6719"/>
</g>
<!-- Node27&#45;&gt;Node17 -->
<g id="edge51" class="edge">
<title>Node27&#45;&gt;Node17</title>
<path fill="none" stroke="#191970" d="M922.5726,-392.3837C943.1823,-384.7035 970.5692,-372.4924 991.0722,-356 1038.4648,-317.8779 1053.0722,-294.8223 1053.0722,-234 1053.0722,-234 1053.0722,-234 1053.0722,-122 1053.0722,-78.5952 1010.9298,-43.7503 982.2,-25.0386"/>
<polygon fill="#191970" stroke="#191970" points="983.7475,-21.8782 973.4139,-19.5399 980.0339,-27.8119 983.7475,-21.8782"/>
</g>
<!-- Node27&#45;&gt;Node21 -->
<g id="edge50" class="edge">
<title>Node27&#45;&gt;Node21</title>
<path fill="none" stroke="#191970" d="M897.5336,-392.4048C903.0815,-378.9629 910.7164,-354.1409 901.0722,-336 876.803,-290.3491 822.1053,-262.1472 783.908,-247.2744"/>
<polygon fill="#191970" stroke="#191970" points="784.6891,-243.8297 774.0967,-243.6036 782.2362,-250.3859 784.6891,-243.8297"/>
</g>
<!-- Node27&#45;&gt;Node22 -->
<g id="edge54" class="edge">
<title>Node27&#45;&gt;Node22</title>
<path fill="none" stroke="#191970" d="M919.0729,-392.4616C936.2726,-384.9466 958.1407,-372.8999 972.0722,-356 983.0347,-342.7017 988.9128,-323.8438 991.9737,-309.6886"/>
<polygon fill="#191970" stroke="#191970" points="995.4735,-310.0133 993.8679,-299.5408 988.5923,-308.7288 995.4735,-310.0133"/>
</g>
<!-- Node27&#45;&gt;Node23 -->
<g id="edge53" class="edge">
<title>Node27&#45;&gt;Node23</title>
<path fill="none" stroke="#191970" d="M888.195,-392.2455C884.4209,-384.6973 879.0801,-374.0158 874.4821,-364.8197"/>
<polygon fill="#191970" stroke="#191970" points="877.4962,-363.0217 869.8936,-355.6427 871.2353,-366.1522 877.4962,-363.0217"/>
</g>
<!-- Node27&#45;&gt;Node24 -->
<g id="edge52" class="edge">
<title>Node27&#45;&gt;Node24</title>
<path fill="none" stroke="#191970" d="M876.1761,-392.2455C861.1542,-383.5731 838.9679,-370.7645 821.7512,-360.825"/>
<polygon fill="#191970" stroke="#191970" points="823.185,-357.6114 812.7747,-355.6427 819.6851,-363.6737 823.185,-357.6114"/>
</g>
</g>
</svg>
        <g id="navigator" transform="translate(0 0)" fill="#404254">
                <rect fill="#f2f5e9" fill-opacity="0.5" stroke="#606060" stroke-width=".5" x="0" y="0" width="60" height="60"/>
                <use id="zoomplus" xlink:href="#zoomPlus" x="17" y="9" onmousedown="handleZoom(evt,'in')"/>
                <use id="zoomminus" xlink:href="#zoomMin" x="42" y="9" onmousedown="handleZoom(evt,'out')"/>
                <use id="reset" xlink:href="#resetDef" x="30" y="36" onmousedown="handleReset()"/>
                <g id="arrowUp" xlink:href="#dirArrow" transform="translate(30 24)" onmousedown="handlePan(0,-1)">
                  <use xlink:href="#rim" fill="#404040">
                        <set attributeName="fill" to="#808080" begin="arrowUp.mouseover" end="arrowUp.mouseout"/>
                  </use>
                  <path fill="none" stroke="white" stroke-width="1.5" d="M0,-3.0v7 M-2.5,-0.5L0,-3.0L2.5,-0.5"/>
                </g>
                <g id="arrowRight" xlink:href="#dirArrow" transform="rotate(90) translate(36 -43)" onmousedown="handlePan(1,0)">
                  <use xlink:href="#rim" fill="#404040">
                        <set attributeName="fill" to="#808080" begin="arrowRight.mouseover" end="arrowRight.mouseout"/>
                  </use>
                  <path fill="none" stroke="white" stroke-width="1.5" d="M0,-3.0v7 M-2.5,-0.5L0,-3.0L2.5,-0.5"/>
                </g>
                <g id="arrowDown" xlink:href="#dirArrow" transform="rotate(180) translate(-30 -48)" onmousedown="handlePan(0,1)">
                  <use xlink:href="#rim" fill="#404040">
                        <set attributeName="fill" to="#808080" begin="arrowDown.mouseover" end="arrowDown.mouseout"/>
                  </use>
                  <path fill="none" stroke="white" stroke-width="1.5" d="M0,-3.0v7 M-2.5,-0.5L0,-3.0L2.5,-0.5"/>
                </g>
                <g id="arrowLeft" xlink:href="#dirArrow" transform="rotate(270) translate(-36 17)" onmousedown="handlePan(-1,0)">
                  <use xlink:href="#rim" fill="#404040">
                        <set attributeName="fill" to="#808080" begin="arrowLeft.mouseover" end="arrowLeft.mouseout"/>
                  </use>
                  <path fill="none" stroke="white" stroke-width="1.5" d="M0,-3.0v7 M-2.5,-0.5L0,-3.0L2.5,-0.5"/>
                </g>
        </g>
        <svg viewBox="0 0 15 15" width="100%" height="30px" preserveAspectRatio="xMaxYMin meet">
         <g id="arrow_out" transform="scale(0.3 0.3)">
          <a xlink:href="GameOverState_8hpp__incl_org.svg" target="_base">
           <rect id="button" ry="5" rx="5" y="6" x="6" height="38" width="38"
                fill="#f2f5e9" fill-opacity="0.5" stroke="#606060" stroke-width="1.0"/>
           <path id="arrow"
             d="M 11.500037,31.436501 C 11.940474,20.09759 22.043105,11.32322 32.158766,21.979434 L 37.068811,17.246167 C 37.068811,17.246167 37.088388,32 37.088388,32 L 22.160133,31.978069 C 22.160133,31.978069 26.997745,27.140456 26.997745,27.140456 C 18.528582,18.264221 13.291696,25.230495 11.500037,31.436501 z"
             style="fill:#404040;"/>
          </a>
         </g>
        </svg>
</svg>
