<?xml version="1.0" encoding="UTF-8" standalone="no"?>
<!DOCTYPE svg PUBLIC "-//W3C//DTD SVG 1.1//EN"
 "http://www.w3.org/Graphics/SVG/1.1/DTD/svg11.dtd">
<!-- Generated by graphviz version 2.40.1 (20161225.0304)
 -->
<!-- Title: /mnt/hdd/C0de/Engines/SFML/SFML_Engine/src/Gun.cpp Pages: 1 -->
<svg width="956pt" height="442pt"
 viewBox="0.00 0.00 956.00 442.00" xmlns="http://www.w3.org/2000/svg" xmlns:xlink="http://www.w3.org/1999/xlink">
<g id="graph0" class="graph" transform="scale(1 1) rotate(0) translate(4 438)">
<title>/mnt/hdd/C0de/Engines/SFML/SFML_Engine/src/Gun.cpp</title>
<!-- Node0 -->
<g id="node1" class="node">
<title>Node0</title>
<polygon fill="#bfbfbf" stroke="#000000" points="795.5,-392.5 795.5,-433.5 922.5,-433.5 922.5,-392.5 795.5,-392.5"/>
<text text-anchor="start" x="803.5" y="-421.5" font-family="Helvetica,sans-Serif" font-size="10.00" fill="#000000">/mnt/hdd/C0de/Engines</text>
<text text-anchor="start" x="803.5" y="-410.5" font-family="Helvetica,sans-Serif" font-size="10.00" fill="#000000">/SFML/SFML_Engine/src</text>
<text text-anchor="middle" x="859" y="-399.5" font-family="Helvetica,sans-Serif" font-size="10.00" fill="#000000">/Gun.cpp</text>
</g>
<!-- Node1 -->
<g id="node2" class="node">
<title>Node1</title>
<g id="a_node2"><a xlink:href="Gun_8hpp.html" target="_top" xlink:title="../include/Gun.hpp">
<polygon fill="none" stroke="#000000" points="811,-336.5 811,-355.5 907,-355.5 907,-336.5 811,-336.5"/>
<text text-anchor="middle" x="859" y="-343.5" font-family="Helvetica,sans-Serif" font-size="10.00" fill="#000000">../include/Gun.hpp</text>
</a>
</g>
</g>
<!-- Node0&#45;&gt;Node1 -->
<g id="edge1" class="edge">
<title>Node0&#45;&gt;Node1</title>
<path fill="none" stroke="#191970" d="M859,-392.168C859,-383.8226 859,-374.2471 859,-365.9879"/>
<polygon fill="#191970" stroke="#191970" points="862.5001,-365.7804 859,-355.7805 855.5001,-365.7805 862.5001,-365.7804"/>
</g>
<!-- Node2 -->
<g id="node3" class="node">
<title>Node2</title>
<g id="a_node3"><a xlink:href="GameWorld_8hpp.html" target="_top" xlink:title="GameWorld.hpp">
<polygon fill="none" stroke="#000000" points="664.5,-224.5 664.5,-243.5 751.5,-243.5 751.5,-224.5 664.5,-224.5"/>
<text text-anchor="middle" x="708" y="-231.5" font-family="Helvetica,sans-Serif" font-size="10.00" fill="#000000">GameWorld.hpp</text>
</a>
</g>
</g>
<!-- Node1&#45;&gt;Node2 -->
<g id="edge2" class="edge">
<title>Node1&#45;&gt;Node2</title>
<path fill="none" stroke="#191970" d="M846.1258,-336.4509C820.0493,-317.1094 760.7779,-273.1465 729.0192,-249.5904"/>
<polygon fill="#191970" stroke="#191970" points="730.9585,-246.6712 720.8416,-243.5249 726.7883,-252.2934 730.9585,-246.6712"/>
</g>
<!-- Node19 -->
<g id="node20" class="node">
<title>Node19</title>
<polygon fill="none" stroke="#bfbfbf" points="883,-.5 883,-19.5 937,-19.5 937,-.5 883,-.5"/>
<text text-anchor="middle" x="910" y="-7.5" font-family="Helvetica,sans-Serif" font-size="10.00" fill="#000000">iostream</text>
</g>
<!-- Node1&#45;&gt;Node19 -->
<g id="edge32" class="edge">
<title>Node1&#45;&gt;Node19</title>
<path fill="none" stroke="#191970" d="M874.5026,-336.3744C900.0017,-319.2074 948,-280.6919 948,-234 948,-234 948,-234 948,-122 948,-87.6118 931.7366,-50.2832 920.489,-28.5791"/>
<polygon fill="#191970" stroke="#191970" points="923.431,-26.6605 915.607,-19.5166 917.2683,-29.9804 923.431,-26.6605"/>
</g>
<!-- Node20 -->
<g id="node21" class="node">
<title>Node20</title>
<g id="a_node21"><a xlink:href="Bullet_8hpp.html" target="_top" xlink:title="Bullet.hpp">
<polygon fill="none" stroke="#000000" points="829,-280.5 829,-299.5 889,-299.5 889,-280.5 829,-280.5"/>
<text text-anchor="middle" x="859" y="-287.5" font-family="Helvetica,sans-Serif" font-size="10.00" fill="#000000">Bullet.hpp</text>
</a>
</g>
</g>
<!-- Node1&#45;&gt;Node20 -->
<g id="edge29" class="edge">
<title>Node1&#45;&gt;Node20</title>
<path fill="none" stroke="#191970" d="M859,-336.2455C859,-328.9382 859,-318.6944 859,-309.7046"/>
<polygon fill="#191970" stroke="#191970" points="862.5001,-309.6426 859,-299.6427 855.5001,-309.6427 862.5001,-309.6426"/>
</g>
<!-- Node3 -->
<g id="node4" class="node">
<title>Node3</title>
<polygon fill="none" stroke="#bfbfbf" points="267,-.5 267,-19.5 371,-19.5 371,-.5 267,-.5"/>
<text text-anchor="middle" x="319" y="-7.5" font-family="Helvetica,sans-Serif" font-size="10.00" fill="#000000">SFML/Graphics.hpp</text>
</g>
<!-- Node2&#45;&gt;Node3 -->
<g id="edge3" class="edge">
<title>Node2&#45;&gt;Node3</title>
<path fill="none" stroke="#191970" d="M664.4297,-233.0132C544.2539,-229.2775 212.6408,-211.7937 147,-132 105.1639,-81.1435 207.0376,-41.5226 271.3221,-22.4563"/>
<polygon fill="#191970" stroke="#191970" points="272.6548,-25.7144 281.2889,-19.5742 270.7102,-18.9899 272.6548,-25.7144"/>
</g>
<!-- Node4 -->
<g id="node5" class="node">
<title>Node4</title>
<g id="a_node5"><a xlink:href="DEFINITIONS_8hpp.html" target="_top" xlink:title="DEFINITIONS.hpp">
<polygon fill="none" stroke="#000000" points="0,-168.5 0,-187.5 100,-187.5 100,-168.5 0,-168.5"/>
<text text-anchor="middle" x="50" y="-175.5" font-family="Helvetica,sans-Serif" font-size="10.00" fill="#000000">DEFINITIONS.hpp</text>
</a>
</g>
</g>
<!-- Node2&#45;&gt;Node4 -->
<g id="edge4" class="edge">
<title>Node2&#45;&gt;Node4</title>
<path fill="none" stroke="#191970" d="M664.2917,-231.7811C565.8263,-226.5274 319.217,-211.942 114,-188 112.7434,-187.8534 111.4736,-187.7004 110.1942,-187.5417"/>
<polygon fill="#191970" stroke="#191970" points="110.6301,-184.069 100.2581,-186.2306 109.7143,-191.0088 110.6301,-184.069"/>
</g>
<!-- Node5 -->
<g id="node6" class="node">
<title>Node5</title>
<g id="a_node6"><a xlink:href="Game_8hpp.html" target="_top" xlink:title="Game.hpp">
<polygon fill="none" stroke="#000000" points="441,-168.5 441,-187.5 503,-187.5 503,-168.5 441,-168.5"/>
<text text-anchor="middle" x="472" y="-175.5" font-family="Helvetica,sans-Serif" font-size="10.00" fill="#000000">Game.hpp</text>
</a>
</g>
</g>
<!-- Node2&#45;&gt;Node5 -->
<g id="edge5" class="edge">
<title>Node2&#45;&gt;Node5</title>
<path fill="none" stroke="#191970" d="M667.6983,-224.4369C624.5534,-214.1991 556.461,-198.0416 513.0356,-187.7373"/>
<polygon fill="#191970" stroke="#191970" points="513.6306,-184.2813 503.0927,-185.3779 512.0144,-191.0922 513.6306,-184.2813"/>
</g>
<!-- Node14 -->
<g id="node15" class="node">
<title>Node14</title>
<g id="a_node15"><a xlink:href="entity__manager_8h.html" target="_top" xlink:title="entity_manager.h">
<polygon fill="none" stroke="#000000" points="662,-112.5 662,-131.5 754,-131.5 754,-112.5 662,-112.5"/>
<text text-anchor="middle" x="708" y="-119.5" font-family="Helvetica,sans-Serif" font-size="10.00" fill="#000000">entity_manager.h</text>
</a>
</g>
</g>
<!-- Node2&#45;&gt;Node14 -->
<g id="edge27" class="edge">
<title>Node2&#45;&gt;Node14</title>
<path fill="none" stroke="#191970" d="M708,-224.4509C708,-206.184 708,-165.9553 708,-141.6976"/>
<polygon fill="#191970" stroke="#191970" points="711.5001,-141.5249 708,-131.5249 704.5001,-141.5249 711.5001,-141.5249"/>
</g>
<!-- Node16 -->
<g id="node17" class="node">
<title>Node16</title>
<polygon fill="none" stroke="#bfbfbf" points="838,-56.5 838,-75.5 882,-75.5 882,-56.5 838,-56.5"/>
<text text-anchor="middle" x="860" y="-63.5" font-family="Helvetica,sans-Serif" font-size="10.00" fill="#000000">vector</text>
</g>
<!-- Node2&#45;&gt;Node16 -->
<g id="edge28" class="edge">
<title>Node2&#45;&gt;Node16</title>
<path fill="none" stroke="#191970" d="M716.6077,-224.4862C741.2594,-197.2396 812.394,-118.6172 844.2485,-83.4096"/>
<polygon fill="#191970" stroke="#191970" points="846.9943,-85.5915 851.1081,-75.8279 841.8036,-80.8951 846.9943,-85.5915"/>
</g>
<!-- Node5&#45;&gt;Node3 -->
<g id="edge8" class="edge">
<title>Node5&#45;&gt;Node3</title>
<path fill="none" stroke="#191970" d="M462.5915,-168.2835C445.2336,-150.2962 407.1032,-110.4955 376,-76 361.3626,-59.7662 345.1059,-40.8512 333.712,-27.4426"/>
<polygon fill="#191970" stroke="#191970" points="336.1267,-24.8782 326.9926,-19.5098 330.7853,-29.4025 336.1267,-24.8782"/>
</g>
<!-- Node6 -->
<g id="node7" class="node">
<title>Node6</title>
<polygon fill="none" stroke="#bfbfbf" points="385,-56.5 385,-75.5 437,-75.5 437,-56.5 385,-56.5"/>
<text text-anchor="middle" x="411" y="-63.5" font-family="Helvetica,sans-Serif" font-size="10.00" fill="#000000">memory</text>
</g>
<!-- Node5&#45;&gt;Node6 -->
<g id="edge6" class="edge">
<title>Node5&#45;&gt;Node6</title>
<path fill="none" stroke="#191970" d="M466.7992,-168.4509C456.6701,-149.8533 434.1429,-108.4919 421.0195,-84.3964"/>
<polygon fill="#191970" stroke="#191970" points="424.0444,-82.6328 416.1877,-75.5249 417.8971,-85.9809 424.0444,-82.6328"/>
</g>
<!-- Node7 -->
<g id="node8" class="node">
<title>Node7</title>
<polygon fill="none" stroke="#bfbfbf" points="588.5,-.5 588.5,-19.5 629.5,-19.5 629.5,-.5 588.5,-.5"/>
<text text-anchor="middle" x="609" y="-7.5" font-family="Helvetica,sans-Serif" font-size="10.00" fill="#000000">string</text>
</g>
<!-- Node5&#45;&gt;Node7 -->
<g id="edge7" class="edge">
<title>Node5&#45;&gt;Node7</title>
<path fill="none" stroke="#191970" d="M503.2477,-169.7469C523.9224,-162.8056 550.2171,-150.9164 567,-132 593.0296,-102.6614 603.1004,-56.3856 606.8661,-30.0648"/>
<polygon fill="#191970" stroke="#191970" points="610.3805,-30.1687 608.1549,-19.8103 603.4351,-29.2957 610.3805,-30.1687"/>
</g>
<!-- Node8 -->
<g id="node9" class="node">
<title>Node8</title>
<g id="a_node9"><a xlink:href="StateMachine_8hpp.html" target="_top" xlink:title="StateMachine.hpp">
<polygon fill="none" stroke="#000000" points="462.5,-112.5 462.5,-131.5 557.5,-131.5 557.5,-112.5 462.5,-112.5"/>
<text text-anchor="middle" x="510" y="-119.5" font-family="Helvetica,sans-Serif" font-size="10.00" fill="#000000">StateMachine.hpp</text>
</a>
</g>
</g>
<!-- Node5&#45;&gt;Node8 -->
<g id="edge9" class="edge">
<title>Node5&#45;&gt;Node8</title>
<path fill="none" stroke="#191970" d="M478.6191,-168.2455C483.9046,-160.4564 491.4541,-149.3308 497.8238,-139.9439"/>
<polygon fill="#191970" stroke="#191970" points="500.7379,-141.8827 503.4568,-131.6427 494.9455,-137.9522 500.7379,-141.8827"/>
</g>
<!-- Node11 -->
<g id="node12" class="node">
<title>Node11</title>
<g id="a_node12"><a xlink:href="AssetManager_8hpp.html" target="_top" xlink:title="AssetManager.hpp">
<polygon fill="none" stroke="#000000" points="270,-112.5 270,-131.5 368,-131.5 368,-112.5 270,-112.5"/>
<text text-anchor="middle" x="319" y="-119.5" font-family="Helvetica,sans-Serif" font-size="10.00" fill="#000000">AssetManager.hpp</text>
</a>
</g>
</g>
<!-- Node5&#45;&gt;Node11 -->
<g id="edge13" class="edge">
<title>Node5&#45;&gt;Node11</title>
<path fill="none" stroke="#191970" d="M445.6984,-168.3733C420.5872,-159.1822 382.5562,-145.2624 354.7128,-135.0713"/>
<polygon fill="#191970" stroke="#191970" points="355.5522,-131.6516 344.9584,-131.5011 353.1462,-138.2251 355.5522,-131.6516"/>
</g>
<!-- Node13 -->
<g id="node14" class="node">
<title>Node13</title>
<g id="a_node14"><a xlink:href="InputManager_8hpp.html" target="_top" xlink:title="InputManager.hpp">
<polygon fill="none" stroke="#000000" points="156.5,-112.5 156.5,-131.5 251.5,-131.5 251.5,-112.5 156.5,-112.5"/>
<text text-anchor="middle" x="204" y="-119.5" font-family="Helvetica,sans-Serif" font-size="10.00" fill="#000000">InputManager.hpp</text>
</a>
</g>
</g>
<!-- Node5&#45;&gt;Node13 -->
<g id="edge16" class="edge">
<title>Node5&#45;&gt;Node13</title>
<path fill="none" stroke="#191970" d="M440.9952,-171.5214C396.7635,-162.2789 314.8305,-145.1586 259.8612,-133.6725"/>
<polygon fill="#191970" stroke="#191970" points="260.4307,-130.216 249.9262,-131.5965 258.9989,-137.068 260.4307,-130.216"/>
</g>
<!-- Node5&#45;&gt;Node14 -->
<g id="edge18" class="edge">
<title>Node5&#45;&gt;Node14</title>
<path fill="none" stroke="#191970" d="M503.339,-170.5636C542.8217,-161.1948 611.1535,-144.9805 657.9136,-133.8849"/>
<polygon fill="#191970" stroke="#191970" points="658.9167,-137.2442 667.8384,-131.5299 657.3005,-130.4333 658.9167,-137.2442"/>
</g>
<!-- Node8&#45;&gt;Node6 -->
<g id="edge10" class="edge">
<title>Node8&#45;&gt;Node6</title>
<path fill="none" stroke="#191970" d="M492.7555,-112.2455C477.4239,-103.5731 454.7801,-90.7645 437.2084,-80.825"/>
<polygon fill="#191970" stroke="#191970" points="438.4741,-77.5198 428.0469,-75.6427 435.0276,-83.6126 438.4741,-77.5198"/>
</g>
<!-- Node9 -->
<g id="node10" class="node">
<title>Node9</title>
<polygon fill="none" stroke="#bfbfbf" points="455.5,-56.5 455.5,-75.5 496.5,-75.5 496.5,-56.5 455.5,-56.5"/>
<text text-anchor="middle" x="476" y="-63.5" font-family="Helvetica,sans-Serif" font-size="10.00" fill="#000000">stack</text>
</g>
<!-- Node8&#45;&gt;Node9 -->
<g id="edge11" class="edge">
<title>Node8&#45;&gt;Node9</title>
<path fill="none" stroke="#191970" d="M504.0777,-112.2455C499.3973,-104.5367 492.7327,-93.5598 487.0711,-84.2348"/>
<polygon fill="#191970" stroke="#191970" points="490.0361,-82.3741 481.8545,-75.6427 484.0525,-86.007 490.0361,-82.3741"/>
</g>
<!-- Node10 -->
<g id="node11" class="node">
<title>Node10</title>
<g id="a_node11"><a xlink:href="State_8hpp.html" target="_top" xlink:title="State.hpp">
<polygon fill="none" stroke="#000000" points="514.5,-56.5 514.5,-75.5 573.5,-75.5 573.5,-56.5 514.5,-56.5"/>
<text text-anchor="middle" x="544" y="-63.5" font-family="Helvetica,sans-Serif" font-size="10.00" fill="#000000">State.hpp</text>
</a>
</g>
</g>
<!-- Node8&#45;&gt;Node10 -->
<g id="edge12" class="edge">
<title>Node8&#45;&gt;Node10</title>
<path fill="none" stroke="#191970" d="M515.9223,-112.2455C520.6027,-104.5367 527.2673,-93.5598 532.9289,-84.2348"/>
<polygon fill="#191970" stroke="#191970" points="535.9475,-86.007 538.1455,-75.6427 529.9639,-82.3741 535.9475,-86.007"/>
</g>
<!-- Node11&#45;&gt;Node3 -->
<g id="edge15" class="edge">
<title>Node11&#45;&gt;Node3</title>
<path fill="none" stroke="#191970" d="M319,-112.4509C319,-94.184 319,-53.9553 319,-29.6976"/>
<polygon fill="#191970" stroke="#191970" points="322.5001,-29.5249 319,-19.5249 315.5001,-29.5249 322.5001,-29.5249"/>
</g>
<!-- Node12 -->
<g id="node13" class="node">
<title>Node12</title>
<polygon fill="none" stroke="#bfbfbf" points="255.5,-56.5 255.5,-75.5 290.5,-75.5 290.5,-56.5 255.5,-56.5"/>
<text text-anchor="middle" x="273" y="-63.5" font-family="Helvetica,sans-Serif" font-size="10.00" fill="#000000">map</text>
</g>
<!-- Node11&#45;&gt;Node12 -->
<g id="edge14" class="edge">
<title>Node11&#45;&gt;Node12</title>
<path fill="none" stroke="#191970" d="M310.9874,-112.2455C304.5232,-104.3761 295.2615,-93.101 287.5017,-83.6542"/>
<polygon fill="#191970" stroke="#191970" points="289.9727,-81.1484 280.9208,-75.6427 284.5636,-85.5916 289.9727,-81.1484"/>
</g>
<!-- Node13&#45;&gt;Node3 -->
<g id="edge17" class="edge">
<title>Node13&#45;&gt;Node3</title>
<path fill="none" stroke="#191970" d="M208.5497,-112.1028C215.2546,-98.3022 228.8675,-73.0565 246,-56 258.7142,-43.3422 275.5096,-32.4599 289.7847,-24.4622"/>
<polygon fill="#191970" stroke="#191970" points="291.595,-27.4626 298.7334,-19.6335 288.2708,-21.3022 291.595,-27.4626"/>
</g>
<!-- Node15 -->
<g id="node16" class="node">
<title>Node15</title>
<polygon fill="none" stroke="#bfbfbf" points="736.5,-56.5 736.5,-75.5 819.5,-75.5 819.5,-56.5 736.5,-56.5"/>
<text text-anchor="middle" x="778" y="-63.5" font-family="Helvetica,sans-Serif" font-size="10.00" fill="#000000">unordered_map</text>
</g>
<!-- Node14&#45;&gt;Node15 -->
<g id="edge19" class="edge">
<title>Node14&#45;&gt;Node15</title>
<path fill="none" stroke="#191970" d="M720.1931,-112.2455C730.6321,-103.8943 745.8655,-91.7076 758.074,-81.9408"/>
<polygon fill="#191970" stroke="#191970" points="760.3244,-84.6227 765.9467,-75.6427 755.9515,-79.1566 760.3244,-84.6227"/>
</g>
<!-- Node14&#45;&gt;Node16 -->
<g id="edge20" class="edge">
<title>Node14&#45;&gt;Node16</title>
<path fill="none" stroke="#191970" d="M734.1297,-112.3733C760.1351,-102.7923 800.0881,-88.0728 827.9848,-77.7951"/>
<polygon fill="#191970" stroke="#191970" points="829.4954,-80.9686 837.6689,-74.2273 827.0754,-74.4002 829.4954,-80.9686"/>
</g>
<!-- Node17 -->
<g id="node18" class="node">
<title>Node17</title>
<polygon fill="none" stroke="#bfbfbf" points="655,-.5 655,-19.5 735,-19.5 735,-.5 655,-.5"/>
<text text-anchor="middle" x="695" y="-7.5" font-family="Helvetica,sans-Serif" font-size="10.00" fill="#000000">box2d/box2d.h</text>
</g>
<!-- Node14&#45;&gt;Node17 -->
<g id="edge21" class="edge">
<title>Node14&#45;&gt;Node17</title>
<path fill="none" stroke="#191970" d="M706.8916,-112.4509C704.7714,-94.184 700.102,-53.9553 697.2863,-29.6976"/>
<polygon fill="#191970" stroke="#191970" points="700.7353,-29.0546 696.1056,-19.5249 693.782,-29.8618 700.7353,-29.0546"/>
</g>
<!-- Node18 -->
<g id="node19" class="node">
<title>Node18</title>
<g id="a_node19"><a xlink:href="entity_8h.html" target="_top" xlink:title="entity.h">
<polygon fill="none" stroke="#000000" points="630.5,-56.5 630.5,-75.5 679.5,-75.5 679.5,-56.5 630.5,-56.5"/>
<text text-anchor="middle" x="655" y="-63.5" font-family="Helvetica,sans-Serif" font-size="10.00" fill="#000000">entity.h</text>
</a>
</g>
</g>
<!-- Node14&#45;&gt;Node18 -->
<g id="edge22" class="edge">
<title>Node14&#45;&gt;Node18</title>
<path fill="none" stroke="#191970" d="M698.7681,-112.2455C691.1683,-104.2155 680.2123,-92.6394 671.1632,-83.0781"/>
<polygon fill="#191970" stroke="#191970" points="673.542,-80.4998 664.1261,-75.6427 668.4579,-85.3115 673.542,-80.4998"/>
</g>
<!-- Node18&#45;&gt;Node3 -->
<g id="edge23" class="edge">
<title>Node18&#45;&gt;Node3</title>
<path fill="none" stroke="#191970" d="M630.2931,-61.8822C578.3297,-53.2216 456.3599,-32.8933 381.4503,-20.4084"/>
<polygon fill="#191970" stroke="#191970" points="381.6441,-16.8925 371.2047,-18.7008 380.4932,-23.7972 381.6441,-16.8925"/>
</g>
<!-- Node18&#45;&gt;Node7 -->
<g id="edge24" class="edge">
<title>Node18&#45;&gt;Node7</title>
<path fill="none" stroke="#191970" d="M646.9874,-56.2455C640.5232,-48.3761 631.2615,-37.101 623.5017,-27.6542"/>
<polygon fill="#191970" stroke="#191970" points="625.9727,-25.1484 616.9208,-19.6427 620.5636,-29.5916 625.9727,-25.1484"/>
</g>
<!-- Node18&#45;&gt;Node17 -->
<g id="edge25" class="edge">
<title>Node18&#45;&gt;Node17</title>
<path fill="none" stroke="#191970" d="M661.9675,-56.2455C667.5311,-48.4564 675.478,-37.3308 682.1829,-27.9439"/>
<polygon fill="#191970" stroke="#191970" points="685.148,-29.8144 688.1124,-19.6427 679.4519,-25.7457 685.148,-29.8144"/>
</g>
<!-- Node18&#45;&gt;Node19 -->
<g id="edge26" class="edge">
<title>Node18&#45;&gt;Node19</title>
<path fill="none" stroke="#191970" d="M679.9148,-60.5285C724.913,-50.6466 819.9562,-29.7743 872.7212,-18.1867"/>
<polygon fill="#191970" stroke="#191970" points="873.6666,-21.5626 882.6831,-15.999 872.1651,-14.7255 873.6666,-21.5626"/>
</g>
<!-- Node20&#45;&gt;Node2 -->
<g id="edge30" class="edge">
<title>Node20&#45;&gt;Node2</title>
<path fill="none" stroke="#191970" d="M833.0422,-280.3733C808.2593,-271.1822 770.7254,-257.2624 743.246,-247.0713"/>
<polygon fill="#191970" stroke="#191970" points="744.2121,-243.6968 733.6191,-243.5011 741.7781,-250.26 744.2121,-243.6968"/>
</g>
<!-- Node20&#45;&gt;Node19 -->
<g id="edge31" class="edge">
<title>Node20&#45;&gt;Node19</title>
<path fill="none" stroke="#191970" d="M866.7458,-280.4815C881.0129,-261.9535 910,-219.2353 910,-178 910,-178 910,-178 910,-122 910,-89.7116 910,-52.1872 910,-29.8048"/>
<polygon fill="#191970" stroke="#191970" points="913.5001,-29.5883 910,-19.5884 906.5001,-29.5884 913.5001,-29.5883"/>
</g>
</g>
</svg>
