<?xml version="1.0" encoding="UTF-8" standalone="no"?>
<!DOCTYPE svg PUBLIC "-//W3C//DTD SVG 1.1//EN"
 "http://www.w3.org/Graphics/SVG/1.1/DTD/svg11.dtd">
<!-- Generated by graphviz version 2.40.1 (20161225.0304)
 -->
<!-- Title: /mnt/hdd/C0de/Engines/SFML/SFML_Engine/include/HUD.hpp Pages: 1 -->
<svg width="745pt" height="274pt"
 viewBox="0.00 0.00 744.94 274.00" xmlns="http://www.w3.org/2000/svg" xmlns:xlink="http://www.w3.org/1999/xlink">
<g id="graph0" class="graph" transform="scale(1 1) rotate(0) translate(4 270)">
<title>/mnt/hdd/C0de/Engines/SFML/SFML_Engine/include/HUD.hpp</title>
<!-- Node0 -->
<g id="node1" class="node">
<title>Node0</title>
<polygon fill="#bfbfbf" stroke="#000000" points="105.9363,-224.5 105.9363,-265.5 249.9363,-265.5 249.9363,-224.5 105.9363,-224.5"/>
<text text-anchor="start" x="113.9363" y="-253.5" font-family="Helvetica,sans-Serif" font-size="10.00" fill="#000000">/mnt/hdd/C0de/Engines</text>
<text text-anchor="start" x="113.9363" y="-242.5" font-family="Helvetica,sans-Serif" font-size="10.00" fill="#000000">/SFML/SFML_Engine/include</text>
<text text-anchor="middle" x="177.9363" y="-231.5" font-family="Helvetica,sans-Serif" font-size="10.00" fill="#000000">/HUD.hpp</text>
</g>
<!-- Node1 -->
<g id="node2" class="node">
<title>Node1</title>
<polygon fill="none" stroke="#bfbfbf" points="200.9363,-.5 200.9363,-19.5 304.9363,-19.5 304.9363,-.5 200.9363,-.5"/>
<text text-anchor="middle" x="252.9363" y="-7.5" font-family="Helvetica,sans-Serif" font-size="10.00" fill="#000000">SFML/Graphics.hpp</text>
</g>
<!-- Node0&#45;&gt;Node1 -->
<g id="edge1" class="edge">
<title>Node0&#45;&gt;Node1</title>
<path fill="none" stroke="#191970" d="M136.5721,-224.4482C72.6667,-190.0363 -37.5884,-118.3872 13.9363,-56 35.9518,-29.3431 127.4776,-17.9697 190.6534,-13.2329"/>
<polygon fill="#191970" stroke="#191970" points="191.1977,-16.7031 200.924,-12.502 190.7007,-9.7208 191.1977,-16.7031"/>
</g>
<!-- Node2 -->
<g id="node3" class="node">
<title>Node2</title>
<g id="a_node3"><a xlink:href="DEFINITIONS_8hpp.html" target="_top" xlink:title="DEFINITIONS.hpp">
<polygon fill="none" stroke="#000000" points="226.9363,-168.5 226.9363,-187.5 326.9363,-187.5 326.9363,-168.5 226.9363,-168.5"/>
<text text-anchor="middle" x="276.9363" y="-175.5" font-family="Helvetica,sans-Serif" font-size="10.00" fill="#000000">DEFINITIONS.hpp</text>
</a>
</g>
</g>
<!-- Node0&#45;&gt;Node2 -->
<g id="edge2" class="edge">
<title>Node0&#45;&gt;Node2</title>
<path fill="none" stroke="#191970" d="M208.4474,-224.3511C223.2677,-214.3212 240.7648,-202.4797 254.3641,-193.2762"/>
<polygon fill="#191970" stroke="#191970" points="256.3505,-196.1581 262.6705,-187.6546 252.4271,-190.3609 256.3505,-196.1581"/>
</g>
<!-- Node3 -->
<g id="node4" class="node">
<title>Node3</title>
<g id="a_node4"><a xlink:href="Game_8hpp.html" target="_top" xlink:title="Game.hpp">
<polygon fill="none" stroke="#000000" points="146.9363,-168.5 146.9363,-187.5 208.9363,-187.5 208.9363,-168.5 146.9363,-168.5"/>
<text text-anchor="middle" x="177.9363" y="-175.5" font-family="Helvetica,sans-Serif" font-size="10.00" fill="#000000">Game.hpp</text>
</a>
</g>
</g>
<!-- Node0&#45;&gt;Node3 -->
<g id="edge3" class="edge">
<title>Node0&#45;&gt;Node3</title>
<path fill="none" stroke="#191970" d="M177.9363,-224.168C177.9363,-215.8226 177.9363,-206.2471 177.9363,-197.9879"/>
<polygon fill="#191970" stroke="#191970" points="181.4364,-197.7804 177.9363,-187.7805 174.4364,-197.7805 181.4364,-197.7804"/>
</g>
<!-- Node3&#45;&gt;Node1 -->
<g id="edge6" class="edge">
<title>Node3&#45;&gt;Node1</title>
<path fill="none" stroke="#191970" d="M146.7548,-173.1917C119.3915,-167.5359 80.0025,-155.7236 53.9363,-132 27.4261,-107.8723 4.2575,-83.7599 26.9363,-56 47.2914,-31.0844 131.1497,-19.3231 190.7621,-14.0194"/>
<polygon fill="#191970" stroke="#191970" points="191.1799,-17.4966 200.8476,-13.1625 190.5872,-10.5218 191.1799,-17.4966"/>
</g>
<!-- Node4 -->
<g id="node5" class="node">
<title>Node4</title>
<polygon fill="none" stroke="#bfbfbf" points="35.9363,-56.5 35.9363,-75.5 87.9363,-75.5 87.9363,-56.5 35.9363,-56.5"/>
<text text-anchor="middle" x="61.9363" y="-63.5" font-family="Helvetica,sans-Serif" font-size="10.00" fill="#000000">memory</text>
</g>
<!-- Node3&#45;&gt;Node4 -->
<g id="edge4" class="edge">
<title>Node3&#45;&gt;Node4</title>
<path fill="none" stroke="#191970" d="M146.8565,-174.509C120.3409,-169.7333 83.629,-158.473 64.9363,-132 55.5394,-118.692 55.6461,-99.8351 57.6034,-85.6829"/>
<polygon fill="#191970" stroke="#191970" points="61.1026,-85.9985 59.4238,-75.5376 54.2126,-84.7622 61.1026,-85.9985"/>
</g>
<!-- Node5 -->
<g id="node6" class="node">
<title>Node5</title>
<polygon fill="none" stroke="#bfbfbf" points="465.4363,-.5 465.4363,-19.5 506.4363,-19.5 506.4363,-.5 465.4363,-.5"/>
<text text-anchor="middle" x="485.9363" y="-7.5" font-family="Helvetica,sans-Serif" font-size="10.00" fill="#000000">string</text>
</g>
<!-- Node3&#45;&gt;Node5 -->
<g id="edge5" class="edge">
<title>Node3&#45;&gt;Node5</title>
<path fill="none" stroke="#191970" d="M209.3388,-169.9675C212.2404,-169.2803 215.1396,-168.614 217.9363,-168 301.8838,-149.5697 339.3701,-183.8222 407.9363,-132 438.064,-109.2295 424.935,-87.3866 445.9363,-56 452.8047,-45.7351 461.7237,-35.2694 469.3962,-26.9194"/>
<polygon fill="#191970" stroke="#191970" points="471.9487,-29.3142 476.2628,-19.6374 466.8558,-24.5118 471.9487,-29.3142"/>
</g>
<!-- Node6 -->
<g id="node7" class="node">
<title>Node6</title>
<g id="a_node7"><a xlink:href="StateMachine_8hpp.html" target="_top" xlink:title="StateMachine.hpp">
<polygon fill="none" stroke="#000000" points="74.4363,-112.5 74.4363,-131.5 169.4363,-131.5 169.4363,-112.5 74.4363,-112.5"/>
<text text-anchor="middle" x="121.9363" y="-119.5" font-family="Helvetica,sans-Serif" font-size="10.00" fill="#000000">StateMachine.hpp</text>
</a>
</g>
</g>
<!-- Node3&#45;&gt;Node6 -->
<g id="edge7" class="edge">
<title>Node3&#45;&gt;Node6</title>
<path fill="none" stroke="#191970" d="M168.1819,-168.2455C160.0715,-160.1352 148.3438,-148.4075 138.7282,-138.7919"/>
<polygon fill="#191970" stroke="#191970" points="141.125,-136.2389 131.579,-131.6427 136.1752,-141.1887 141.125,-136.2389"/>
</g>
<!-- Node9 -->
<g id="node10" class="node">
<title>Node9</title>
<g id="a_node10"><a xlink:href="AssetManager_8hpp.html" target="_top" xlink:title="AssetManager.hpp">
<polygon fill="none" stroke="#000000" points="300.9363,-112.5 300.9363,-131.5 398.9363,-131.5 398.9363,-112.5 300.9363,-112.5"/>
<text text-anchor="middle" x="349.9363" y="-119.5" font-family="Helvetica,sans-Serif" font-size="10.00" fill="#000000">AssetManager.hpp</text>
</a>
</g>
</g>
<!-- Node3&#45;&gt;Node9 -->
<g id="edge11" class="edge">
<title>Node3&#45;&gt;Node9</title>
<path fill="none" stroke="#191970" d="M207.5042,-168.3733C236.1051,-159.0613 279.6151,-144.8953 311.0182,-134.671"/>
<polygon fill="#191970" stroke="#191970" points="312.3291,-137.9251 320.7543,-131.5011 310.162,-131.269 312.3291,-137.9251"/>
</g>
<!-- Node11 -->
<g id="node12" class="node">
<title>Node11</title>
<g id="a_node12"><a xlink:href="InputManager_8hpp.html" target="_top" xlink:title="InputManager.hpp">
<polygon fill="none" stroke="#000000" points="187.4363,-112.5 187.4363,-131.5 282.4363,-131.5 282.4363,-112.5 187.4363,-112.5"/>
<text text-anchor="middle" x="234.9363" y="-119.5" font-family="Helvetica,sans-Serif" font-size="10.00" fill="#000000">InputManager.hpp</text>
</a>
</g>
</g>
<!-- Node3&#45;&gt;Node11 -->
<g id="edge14" class="edge">
<title>Node3&#45;&gt;Node11</title>
<path fill="none" stroke="#191970" d="M187.8649,-168.2455C196.1201,-160.1352 208.0572,-148.4075 217.8445,-138.7919"/>
<polygon fill="#191970" stroke="#191970" points="220.4409,-141.1476 225.1214,-131.6427 215.5352,-136.1542 220.4409,-141.1476"/>
</g>
<!-- Node12 -->
<g id="node13" class="node">
<title>Node12</title>
<g id="a_node13"><a xlink:href="entity__manager_8h.html" target="_top" xlink:title="entity_manager.h">
<polygon fill="none" stroke="#000000" points="532.9363,-112.5 532.9363,-131.5 624.9363,-131.5 624.9363,-112.5 532.9363,-112.5"/>
<text text-anchor="middle" x="578.9363" y="-119.5" font-family="Helvetica,sans-Serif" font-size="10.00" fill="#000000">entity_manager.h</text>
</a>
</g>
</g>
<!-- Node3&#45;&gt;Node12 -->
<g id="edge16" class="edge">
<title>Node3&#45;&gt;Node12</title>
<path fill="none" stroke="#191970" d="M209.3019,-169.7862C212.2112,-169.137 215.1223,-168.5291 217.9363,-168 324.9072,-147.8863 451.3913,-134.0118 522.6813,-127.088"/>
<polygon fill="#191970" stroke="#191970" points="523.1706,-130.5572 532.7901,-126.117 522.5012,-123.5893 523.1706,-130.5572"/>
</g>
<!-- Node6&#45;&gt;Node4 -->
<g id="edge8" class="edge">
<title>Node6&#45;&gt;Node4</title>
<path fill="none" stroke="#191970" d="M111.4851,-112.2455C102.7094,-104.0549 89.9809,-92.1749 79.6223,-82.5069"/>
<polygon fill="#191970" stroke="#191970" points="81.9664,-79.9072 72.2677,-75.6427 77.1902,-85.0246 81.9664,-79.9072"/>
</g>
<!-- Node7 -->
<g id="node8" class="node">
<title>Node7</title>
<polygon fill="none" stroke="#bfbfbf" points="183.4363,-56.5 183.4363,-75.5 224.4363,-75.5 224.4363,-56.5 183.4363,-56.5"/>
<text text-anchor="middle" x="203.9363" y="-63.5" font-family="Helvetica,sans-Serif" font-size="10.00" fill="#000000">stack</text>
</g>
<!-- Node6&#45;&gt;Node7 -->
<g id="edge9" class="edge">
<title>Node6&#45;&gt;Node7</title>
<path fill="none" stroke="#191970" d="M136.2196,-112.2455C148.6834,-103.7337 166.9814,-91.2375 181.4155,-81.3801"/>
<polygon fill="#191970" stroke="#191970" points="183.5325,-84.1726 189.8167,-75.6427 179.5848,-78.392 183.5325,-84.1726"/>
</g>
<!-- Node8 -->
<g id="node9" class="node">
<title>Node8</title>
<g id="a_node9"><a xlink:href="State_8hpp.html" target="_top" xlink:title="State.hpp">
<polygon fill="none" stroke="#000000" points="106.4363,-56.5 106.4363,-75.5 165.4363,-75.5 165.4363,-56.5 106.4363,-56.5"/>
<text text-anchor="middle" x="135.9363" y="-63.5" font-family="Helvetica,sans-Serif" font-size="10.00" fill="#000000">State.hpp</text>
</a>
</g>
</g>
<!-- Node6&#45;&gt;Node8 -->
<g id="edge10" class="edge">
<title>Node6&#45;&gt;Node8</title>
<path fill="none" stroke="#191970" d="M124.3749,-112.2455C126.2218,-104.8579 128.8191,-94.4689 131.0841,-85.4087"/>
<polygon fill="#191970" stroke="#191970" points="134.4957,-86.193 133.5256,-75.6427 127.7047,-84.4952 134.4957,-86.193"/>
</g>
<!-- Node9&#45;&gt;Node1 -->
<g id="edge13" class="edge">
<title>Node9&#45;&gt;Node1</title>
<path fill="none" stroke="#191970" d="M341.6661,-112.4509C325.2729,-93.5227 288.4574,-51.014 267.7703,-27.1279"/>
<polygon fill="#191970" stroke="#191970" points="270.378,-24.7927 261.1855,-19.5249 265.0866,-29.3754 270.378,-24.7927"/>
</g>
<!-- Node10 -->
<g id="node11" class="node">
<title>Node10</title>
<polygon fill="none" stroke="#bfbfbf" points="332.4363,-56.5 332.4363,-75.5 367.4363,-75.5 367.4363,-56.5 332.4363,-56.5"/>
<text text-anchor="middle" x="349.9363" y="-63.5" font-family="Helvetica,sans-Serif" font-size="10.00" fill="#000000">map</text>
</g>
<!-- Node9&#45;&gt;Node10 -->
<g id="edge12" class="edge">
<title>Node9&#45;&gt;Node10</title>
<path fill="none" stroke="#191970" d="M349.9363,-112.2455C349.9363,-104.9382 349.9363,-94.6944 349.9363,-85.7046"/>
<polygon fill="#191970" stroke="#191970" points="353.4364,-85.6426 349.9363,-75.6427 346.4364,-85.6427 353.4364,-85.6426"/>
</g>
<!-- Node11&#45;&gt;Node1 -->
<g id="edge15" class="edge">
<title>Node11&#45;&gt;Node1</title>
<path fill="none" stroke="#191970" d="M236.471,-112.4509C239.4067,-94.184 245.8721,-53.9553 249.7706,-29.6976"/>
<polygon fill="#191970" stroke="#191970" points="253.2743,-29.9536 251.4055,-19.5249 246.363,-28.8428 253.2743,-29.9536"/>
</g>
<!-- Node13 -->
<g id="node14" class="node">
<title>Node13</title>
<polygon fill="none" stroke="#bfbfbf" points="455.4363,-56.5 455.4363,-75.5 538.4363,-75.5 538.4363,-56.5 455.4363,-56.5"/>
<text text-anchor="middle" x="496.9363" y="-63.5" font-family="Helvetica,sans-Serif" font-size="10.00" fill="#000000">unordered_map</text>
</g>
<!-- Node12&#45;&gt;Node13 -->
<g id="edge17" class="edge">
<title>Node12&#45;&gt;Node13</title>
<path fill="none" stroke="#191970" d="M564.653,-112.2455C552.1893,-103.7337 533.8912,-91.2375 519.4571,-81.3801"/>
<polygon fill="#191970" stroke="#191970" points="521.2878,-78.392 511.0559,-75.6427 517.3401,-84.1726 521.2878,-78.392"/>
</g>
<!-- Node14 -->
<g id="node15" class="node">
<title>Node14</title>
<polygon fill="none" stroke="#bfbfbf" points="556.9363,-56.5 556.9363,-75.5 600.9363,-75.5 600.9363,-56.5 556.9363,-56.5"/>
<text text-anchor="middle" x="578.9363" y="-63.5" font-family="Helvetica,sans-Serif" font-size="10.00" fill="#000000">vector</text>
</g>
<!-- Node12&#45;&gt;Node14 -->
<g id="edge18" class="edge">
<title>Node12&#45;&gt;Node14</title>
<path fill="none" stroke="#191970" d="M578.9363,-112.2455C578.9363,-104.9382 578.9363,-94.6944 578.9363,-85.7046"/>
<polygon fill="#191970" stroke="#191970" points="582.4364,-85.6426 578.9363,-75.6427 575.4364,-85.6427 582.4364,-85.6426"/>
</g>
<!-- Node15 -->
<g id="node16" class="node">
<title>Node15</title>
<polygon fill="none" stroke="#bfbfbf" points="656.9363,-.5 656.9363,-19.5 736.9363,-19.5 736.9363,-.5 656.9363,-.5"/>
<text text-anchor="middle" x="696.9363" y="-7.5" font-family="Helvetica,sans-Serif" font-size="10.00" fill="#000000">box2d/box2d.h</text>
</g>
<!-- Node12&#45;&gt;Node15 -->
<g id="edge19" class="edge">
<title>Node12&#45;&gt;Node15</title>
<path fill="none" stroke="#191970" d="M617.5816,-112.4942C638.1804,-105.5665 662.4057,-94.1397 677.9363,-76 688.9505,-63.1355 693.5916,-44.23 695.541,-29.9466"/>
<polygon fill="#191970" stroke="#191970" points="699.0547,-29.9922 696.5976,-19.6862 692.0915,-29.275 699.0547,-29.9922"/>
</g>
<!-- Node16 -->
<g id="node17" class="node">
<title>Node16</title>
<g id="a_node17"><a xlink:href="entity_8h.html" target="_top" xlink:title="entity.h">
<polygon fill="none" stroke="#000000" points="619.4363,-56.5 619.4363,-75.5 668.4363,-75.5 668.4363,-56.5 619.4363,-56.5"/>
<text text-anchor="middle" x="643.9363" y="-63.5" font-family="Helvetica,sans-Serif" font-size="10.00" fill="#000000">entity.h</text>
</a>
</g>
</g>
<!-- Node12&#45;&gt;Node16 -->
<g id="edge20" class="edge">
<title>Node12&#45;&gt;Node16</title>
<path fill="none" stroke="#191970" d="M590.2584,-112.2455C599.8586,-103.9746 613.8255,-91.9416 625.1058,-82.2232"/>
<polygon fill="#191970" stroke="#191970" points="627.4523,-84.8214 632.7439,-75.6427 622.8833,-79.5182 627.4523,-84.8214"/>
</g>
<!-- Node16&#45;&gt;Node1 -->
<g id="edge21" class="edge">
<title>Node16&#45;&gt;Node1</title>
<path fill="none" stroke="#191970" d="M619.1691,-58.2242C616.0786,-57.3995 612.947,-56.6326 609.9363,-56 507.7839,-34.5367 386.9504,-21.4985 315.3034,-15.0286"/>
<polygon fill="#191970" stroke="#191970" points="315.3681,-11.5207 305.0975,-14.1215 314.7483,-18.4932 315.3681,-11.5207"/>
</g>
<!-- Node16&#45;&gt;Node5 -->
<g id="edge22" class="edge">
<title>Node16&#45;&gt;Node5</title>
<path fill="none" stroke="#191970" d="M619.2488,-57.25C591.4889,-47.4111 546.3876,-31.4258 516.4442,-20.8129"/>
<polygon fill="#191970" stroke="#191970" points="517.5122,-17.4782 506.9175,-17.4364 515.1737,-24.076 517.5122,-17.4782"/>
</g>
<!-- Node16&#45;&gt;Node15 -->
<g id="edge23" class="edge">
<title>Node16&#45;&gt;Node15</title>
<path fill="none" stroke="#191970" d="M653.1682,-56.2455C660.768,-48.2155 671.724,-36.6394 680.7731,-27.0781"/>
<polygon fill="#191970" stroke="#191970" points="683.4784,-29.3115 687.8102,-19.6427 678.3943,-24.4998 683.4784,-29.3115"/>
</g>
<!-- Node17 -->
<g id="node18" class="node">
<title>Node17</title>
<polygon fill="none" stroke="#bfbfbf" points="584.9363,-.5 584.9363,-19.5 638.9363,-19.5 638.9363,-.5 584.9363,-.5"/>
<text text-anchor="middle" x="611.9363" y="-7.5" font-family="Helvetica,sans-Serif" font-size="10.00" fill="#000000">iostream</text>
</g>
<!-- Node16&#45;&gt;Node17 -->
<g id="edge24" class="edge">
<title>Node16&#45;&gt;Node17</title>
<path fill="none" stroke="#191970" d="M638.3623,-56.2455C634.0032,-48.617 627.8152,-37.7881 622.523,-28.5267"/>
<polygon fill="#191970" stroke="#191970" points="625.4467,-26.5886 617.4464,-19.6427 619.369,-30.0616 625.4467,-26.5886"/>
</g>
</g>
</svg>
