<?xml version="1.0" encoding="UTF-8" standalone="no"?>
<!DOCTYPE svg PUBLIC "-//W3C//DTD SVG 1.1//EN"
 "http://www.w3.org/Graphics/SVG/1.1/DTD/svg11.dtd">
<!-- Generated by graphviz version 2.40.1 (20161225.0304)
 -->
<!-- Title: /mnt/hdd/C0de/Engines/SFML/SFML_Engine/src/HUD.cpp Pages: 1 -->
<svg width="728pt" height="330pt"
 viewBox="0.00 0.00 727.64 330.00" xmlns="http://www.w3.org/2000/svg" xmlns:xlink="http://www.w3.org/1999/xlink">
<g id="graph0" class="graph" transform="scale(1 1) rotate(0) translate(4 326)">
<title>/mnt/hdd/C0de/Engines/SFML/SFML_Engine/src/HUD.cpp</title>
<!-- Node0 -->
<g id="node1" class="node">
<title>Node0</title>
<polygon fill="#bfbfbf" stroke="#000000" points="411.1378,-280.5 411.1378,-321.5 538.1378,-321.5 538.1378,-280.5 411.1378,-280.5"/>
<text text-anchor="start" x="419.1378" y="-309.5" font-family="Helvetica,sans-Serif" font-size="10.00" fill="#000000">/mnt/hdd/C0de/Engines</text>
<text text-anchor="start" x="419.1378" y="-298.5" font-family="Helvetica,sans-Serif" font-size="10.00" fill="#000000">/SFML/SFML_Engine/src</text>
<text text-anchor="middle" x="474.6378" y="-287.5" font-family="Helvetica,sans-Serif" font-size="10.00" fill="#000000">/HUD.cpp</text>
</g>
<!-- Node1 -->
<g id="node2" class="node">
<title>Node1</title>
<g id="a_node2"><a xlink:href="HUD_8hpp.html" target="_top" xlink:title="../include/HUD.hpp">
<polygon fill="none" stroke="#000000" points="232.1378,-224.5 232.1378,-243.5 333.1378,-243.5 333.1378,-224.5 232.1378,-224.5"/>
<text text-anchor="middle" x="282.6378" y="-231.5" font-family="Helvetica,sans-Serif" font-size="10.00" fill="#000000">../include/HUD.hpp</text>
</a>
</g>
</g>
<!-- Node0&#45;&gt;Node1 -->
<g id="edge1" class="edge">
<title>Node0&#45;&gt;Node1</title>
<path fill="none" stroke="#191970" d="M415.7267,-280.4425C384.3103,-269.4795 346.6318,-256.3312 319.397,-246.8274"/>
<polygon fill="#191970" stroke="#191970" points="320.4614,-243.4919 309.8665,-243.5017 318.155,-250.1011 320.4614,-243.4919"/>
</g>
<!-- Node6 -->
<g id="node7" class="node">
<title>Node6</title>
<polygon fill="none" stroke="#bfbfbf" points="661.1378,-.5 661.1378,-19.5 702.1378,-19.5 702.1378,-.5 661.1378,-.5"/>
<text text-anchor="middle" x="681.6378" y="-7.5" font-family="Helvetica,sans-Serif" font-size="10.00" fill="#000000">string</text>
</g>
<!-- Node0&#45;&gt;Node6 -->
<g id="edge26" class="edge">
<title>Node0&#45;&gt;Node6</title>
<path fill="none" stroke="#191970" d="M538.3691,-296.1594C610.9615,-286.7643 719.6378,-259.148 719.6378,-178 719.6378,-178 719.6378,-178 719.6378,-122 719.6378,-87.6118 703.3744,-50.2832 692.1268,-28.5791"/>
<polygon fill="#191970" stroke="#191970" points="695.0689,-26.6605 687.2449,-19.5166 688.9062,-29.9804 695.0689,-26.6605"/>
</g>
<!-- Node2 -->
<g id="node3" class="node">
<title>Node2</title>
<polygon fill="none" stroke="#bfbfbf" points="279.6378,-.5 279.6378,-19.5 383.6378,-19.5 383.6378,-.5 279.6378,-.5"/>
<text text-anchor="middle" x="331.6378" y="-7.5" font-family="Helvetica,sans-Serif" font-size="10.00" fill="#000000">SFML/Graphics.hpp</text>
</g>
<!-- Node1&#45;&gt;Node2 -->
<g id="edge2" class="edge">
<title>Node1&#45;&gt;Node2</title>
<path fill="none" stroke="#191970" d="M240.2426,-224.4836C170.1086,-207.7865 34.9364,-171.2411 7.6378,-132 -3.2326,-116.374 -3.1846,-74.8725 15.6378,-56 33.2667,-38.3243 182.5198,-22.7498 269.452,-15.0698"/>
<polygon fill="#191970" stroke="#191970" points="269.8151,-18.5515 279.4728,-14.195 269.2063,-11.578 269.8151,-18.5515"/>
</g>
<!-- Node3 -->
<g id="node4" class="node">
<title>Node3</title>
<g id="a_node4"><a xlink:href="DEFINITIONS_8hpp.html" target="_top" xlink:title="DEFINITIONS.hpp">
<polygon fill="none" stroke="#000000" points="182.6378,-168.5 182.6378,-187.5 282.6378,-187.5 282.6378,-168.5 182.6378,-168.5"/>
<text text-anchor="middle" x="232.6378" y="-175.5" font-family="Helvetica,sans-Serif" font-size="10.00" fill="#000000">DEFINITIONS.hpp</text>
</a>
</g>
</g>
<!-- Node1&#45;&gt;Node3 -->
<g id="edge3" class="edge">
<title>Node1&#45;&gt;Node3</title>
<path fill="none" stroke="#191970" d="M273.9285,-224.2455C266.8305,-216.2958 256.6294,-204.8706 248.1428,-195.3656"/>
<polygon fill="#191970" stroke="#191970" points="250.5183,-192.771 241.2474,-187.6427 245.2968,-197.4331 250.5183,-192.771"/>
</g>
<!-- Node4 -->
<g id="node5" class="node">
<title>Node4</title>
<g id="a_node5"><a xlink:href="Game_8hpp.html" target="_top" xlink:title="Game.hpp">
<polygon fill="none" stroke="#000000" points="300.6378,-168.5 300.6378,-187.5 362.6378,-187.5 362.6378,-168.5 300.6378,-168.5"/>
<text text-anchor="middle" x="331.6378" y="-175.5" font-family="Helvetica,sans-Serif" font-size="10.00" fill="#000000">Game.hpp</text>
</a>
</g>
</g>
<!-- Node1&#45;&gt;Node4 -->
<g id="edge4" class="edge">
<title>Node1&#45;&gt;Node4</title>
<path fill="none" stroke="#191970" d="M291.173,-224.2455C298.129,-216.2958 308.1261,-204.8706 316.443,-195.3656"/>
<polygon fill="#191970" stroke="#191970" points="319.2494,-197.4732 323.2005,-187.6427 313.9814,-192.8637 319.2494,-197.4732"/>
</g>
<!-- Node4&#45;&gt;Node2 -->
<g id="edge7" class="edge">
<title>Node4&#45;&gt;Node2</title>
<path fill="none" stroke="#191970" d="M350.5202,-168.3676C363.6078,-160.5389 380.0027,-148.1524 387.6378,-132 391.4365,-123.9637 389.846,-120.6103 387.6378,-112 379.4498,-80.0722 358.9513,-47.4092 345.1604,-27.9175"/>
<polygon fill="#191970" stroke="#191970" points="347.8997,-25.7333 339.1884,-19.703 342.2378,-29.8495 347.8997,-25.7333"/>
</g>
<!-- Node5 -->
<g id="node6" class="node">
<title>Node5</title>
<polygon fill="none" stroke="#bfbfbf" points="116.6378,-56.5 116.6378,-75.5 168.6378,-75.5 168.6378,-56.5 116.6378,-56.5"/>
<text text-anchor="middle" x="142.6378" y="-63.5" font-family="Helvetica,sans-Serif" font-size="10.00" fill="#000000">memory</text>
</g>
<!-- Node4&#45;&gt;Node5 -->
<g id="edge5" class="edge">
<title>Node4&#45;&gt;Node5</title>
<path fill="none" stroke="#191970" d="M300.6354,-170.0213C252.2894,-157.5222 164.1644,-134.4864 161.6378,-132 149.3121,-119.8704 144.854,-100.3013 143.305,-85.6152"/>
<polygon fill="#191970" stroke="#191970" points="146.7899,-85.274 142.6055,-75.5405 139.8067,-85.759 146.7899,-85.274"/>
</g>
<!-- Node4&#45;&gt;Node6 -->
<g id="edge6" class="edge">
<title>Node4&#45;&gt;Node6</title>
<path fill="none" stroke="#191970" d="M362.6428,-176.3792C408.9149,-172.9956 497.9478,-162.7209 566.6378,-132 604.2887,-115.1611 612.8444,-106.4739 640.6378,-76 653.6578,-61.7244 664.9432,-42.7621 672.3592,-28.8266"/>
<polygon fill="#191970" stroke="#191970" points="675.588,-30.2009 677.0448,-19.7067 669.3617,-27.002 675.588,-30.2009"/>
</g>
<!-- Node7 -->
<g id="node8" class="node">
<title>Node7</title>
<g id="a_node8"><a xlink:href="StateMachine_8hpp.html" target="_top" xlink:title="StateMachine.hpp">
<polygon fill="none" stroke="#000000" points="171.1378,-112.5 171.1378,-131.5 266.1378,-131.5 266.1378,-112.5 171.1378,-112.5"/>
<text text-anchor="middle" x="218.6378" y="-119.5" font-family="Helvetica,sans-Serif" font-size="10.00" fill="#000000">StateMachine.hpp</text>
</a>
</g>
</g>
<!-- Node4&#45;&gt;Node7 -->
<g id="edge8" class="edge">
<title>Node4&#45;&gt;Node7</title>
<path fill="none" stroke="#191970" d="M312.2124,-168.3733C294.2357,-159.4644 267.2937,-146.1127 246.9288,-136.0203"/>
<polygon fill="#191970" stroke="#191970" points="248.324,-132.8055 237.8097,-131.5011 245.2157,-139.0776 248.324,-132.8055"/>
</g>
<!-- Node10 -->
<g id="node11" class="node">
<title>Node10</title>
<g id="a_node11"><a xlink:href="AssetManager_8hpp.html" target="_top" xlink:title="AssetManager.hpp">
<polygon fill="none" stroke="#000000" points="16.6378,-112.5 16.6378,-131.5 114.6378,-131.5 114.6378,-112.5 16.6378,-112.5"/>
<text text-anchor="middle" x="65.6378" y="-119.5" font-family="Helvetica,sans-Serif" font-size="10.00" fill="#000000">AssetManager.hpp</text>
</a>
</g>
</g>
<!-- Node4&#45;&gt;Node10 -->
<g id="edge12" class="edge">
<title>Node4&#45;&gt;Node10</title>
<path fill="none" stroke="#191970" d="M300.2263,-170.0079C297.3266,-169.3122 294.4303,-168.6329 291.6378,-168 235.1845,-155.2046 170.4195,-142.1913 124.7332,-133.2866"/>
<polygon fill="#191970" stroke="#191970" points="125.1907,-129.8101 114.7067,-131.3385 123.8556,-136.6816 125.1907,-129.8101"/>
</g>
<!-- Node12 -->
<g id="node13" class="node">
<title>Node12</title>
<g id="a_node13"><a xlink:href="InputManager_8hpp.html" target="_top" xlink:title="InputManager.hpp">
<polygon fill="none" stroke="#000000" points="284.1378,-112.5 284.1378,-131.5 379.1378,-131.5 379.1378,-112.5 284.1378,-112.5"/>
<text text-anchor="middle" x="331.6378" y="-119.5" font-family="Helvetica,sans-Serif" font-size="10.00" fill="#000000">InputManager.hpp</text>
</a>
</g>
</g>
<!-- Node4&#45;&gt;Node12 -->
<g id="edge15" class="edge">
<title>Node4&#45;&gt;Node12</title>
<path fill="none" stroke="#191970" d="M331.6378,-168.2455C331.6378,-160.9382 331.6378,-150.6944 331.6378,-141.7046"/>
<polygon fill="#191970" stroke="#191970" points="335.1379,-141.6426 331.6378,-131.6427 328.1379,-141.6427 335.1379,-141.6426"/>
</g>
<!-- Node13 -->
<g id="node14" class="node">
<title>Node13</title>
<g id="a_node14"><a xlink:href="entity__manager_8h.html" target="_top" xlink:title="entity_manager.h">
<polygon fill="none" stroke="#000000" points="465.6378,-112.5 465.6378,-131.5 557.6378,-131.5 557.6378,-112.5 465.6378,-112.5"/>
<text text-anchor="middle" x="511.6378" y="-119.5" font-family="Helvetica,sans-Serif" font-size="10.00" fill="#000000">entity_manager.h</text>
</a>
</g>
</g>
<!-- Node4&#45;&gt;Node13 -->
<g id="edge17" class="edge">
<title>Node4&#45;&gt;Node13</title>
<path fill="none" stroke="#191970" d="M362.5809,-168.3733C392.6418,-159.021 438.4404,-144.7725 471.3356,-134.5385"/>
<polygon fill="#191970" stroke="#191970" points="472.5897,-137.8139 481.0985,-131.5011 470.5102,-131.1299 472.5897,-137.8139"/>
</g>
<!-- Node7&#45;&gt;Node5 -->
<g id="edge9" class="edge">
<title>Node7&#45;&gt;Node5</title>
<path fill="none" stroke="#191970" d="M205.3996,-112.2455C193.9569,-103.814 177.2082,-91.4729 163.8904,-81.6598"/>
<polygon fill="#191970" stroke="#191970" points="165.8511,-78.757 155.7243,-75.6427 161.6987,-84.3924 165.8511,-78.757"/>
</g>
<!-- Node8 -->
<g id="node9" class="node">
<title>Node8</title>
<polygon fill="none" stroke="#bfbfbf" points="187.1378,-56.5 187.1378,-75.5 228.1378,-75.5 228.1378,-56.5 187.1378,-56.5"/>
<text text-anchor="middle" x="207.6378" y="-63.5" font-family="Helvetica,sans-Serif" font-size="10.00" fill="#000000">stack</text>
</g>
<!-- Node7&#45;&gt;Node8 -->
<g id="edge10" class="edge">
<title>Node7&#45;&gt;Node8</title>
<path fill="none" stroke="#191970" d="M216.7218,-112.2455C215.2864,-104.9382 213.2742,-94.6944 211.5084,-85.7046"/>
<polygon fill="#191970" stroke="#191970" points="214.8938,-84.7805 209.5319,-75.6427 208.0251,-86.1298 214.8938,-84.7805"/>
</g>
<!-- Node9 -->
<g id="node10" class="node">
<title>Node9</title>
<g id="a_node10"><a xlink:href="State_8hpp.html" target="_top" xlink:title="State.hpp">
<polygon fill="none" stroke="#000000" points="246.1378,-56.5 246.1378,-75.5 305.1378,-75.5 305.1378,-56.5 246.1378,-56.5"/>
<text text-anchor="middle" x="275.6378" y="-63.5" font-family="Helvetica,sans-Serif" font-size="10.00" fill="#000000">State.hpp</text>
</a>
</g>
</g>
<!-- Node7&#45;&gt;Node9 -->
<g id="edge11" class="edge">
<title>Node7&#45;&gt;Node9</title>
<path fill="none" stroke="#191970" d="M228.5665,-112.2455C236.8216,-104.1352 248.7588,-92.4075 258.5461,-82.7919"/>
<polygon fill="#191970" stroke="#191970" points="261.1425,-85.1476 265.823,-75.6427 256.2367,-80.1542 261.1425,-85.1476"/>
</g>
<!-- Node10&#45;&gt;Node2 -->
<g id="edge14" class="edge">
<title>Node10&#45;&gt;Node2</title>
<path fill="none" stroke="#191970" d="M69.0348,-112.1595C74.642,-97.4665 87.2829,-70.0245 107.6378,-56 133.428,-38.2306 212.5137,-24.8915 269.4049,-17.2713"/>
<polygon fill="#191970" stroke="#191970" points="269.9362,-20.7317 279.396,-15.9609 269.0258,-13.7911 269.9362,-20.7317"/>
</g>
<!-- Node11 -->
<g id="node12" class="node">
<title>Node11</title>
<polygon fill="none" stroke="#bfbfbf" points="25.1378,-56.5 25.1378,-75.5 60.1378,-75.5 60.1378,-56.5 25.1378,-56.5"/>
<text text-anchor="middle" x="42.6378" y="-63.5" font-family="Helvetica,sans-Serif" font-size="10.00" fill="#000000">map</text>
</g>
<!-- Node10&#45;&gt;Node11 -->
<g id="edge13" class="edge">
<title>Node10&#45;&gt;Node11</title>
<path fill="none" stroke="#191970" d="M61.6315,-112.2455C58.5644,-104.7776 54.2375,-94.2427 50.4881,-85.1137"/>
<polygon fill="#191970" stroke="#191970" points="53.635,-83.5631 46.5982,-75.6427 47.1599,-86.2226 53.635,-83.5631"/>
</g>
<!-- Node12&#45;&gt;Node2 -->
<g id="edge16" class="edge">
<title>Node12&#45;&gt;Node2</title>
<path fill="none" stroke="#191970" d="M331.6378,-112.4509C331.6378,-94.184 331.6378,-53.9553 331.6378,-29.6976"/>
<polygon fill="#191970" stroke="#191970" points="335.1379,-29.5249 331.6378,-19.5249 328.1379,-29.5249 335.1379,-29.5249"/>
</g>
<!-- Node14 -->
<g id="node15" class="node">
<title>Node14</title>
<polygon fill="none" stroke="#bfbfbf" points="470.1378,-56.5 470.1378,-75.5 553.1378,-75.5 553.1378,-56.5 470.1378,-56.5"/>
<text text-anchor="middle" x="511.6378" y="-63.5" font-family="Helvetica,sans-Serif" font-size="10.00" fill="#000000">unordered_map</text>
</g>
<!-- Node13&#45;&gt;Node14 -->
<g id="edge18" class="edge">
<title>Node13&#45;&gt;Node14</title>
<path fill="none" stroke="#191970" d="M511.6378,-112.2455C511.6378,-104.9382 511.6378,-94.6944 511.6378,-85.7046"/>
<polygon fill="#191970" stroke="#191970" points="515.1379,-85.6426 511.6378,-75.6427 508.1379,-85.6427 515.1379,-85.6426"/>
</g>
<!-- Node15 -->
<g id="node16" class="node">
<title>Node15</title>
<polygon fill="none" stroke="#bfbfbf" points="571.6378,-56.5 571.6378,-75.5 615.6378,-75.5 615.6378,-56.5 571.6378,-56.5"/>
<text text-anchor="middle" x="593.6378" y="-63.5" font-family="Helvetica,sans-Serif" font-size="10.00" fill="#000000">vector</text>
</g>
<!-- Node13&#45;&gt;Node15 -->
<g id="edge19" class="edge">
<title>Node13&#45;&gt;Node15</title>
<path fill="none" stroke="#191970" d="M525.9211,-112.2455C538.3849,-103.7337 556.6829,-91.2375 571.117,-81.3801"/>
<polygon fill="#191970" stroke="#191970" points="573.2341,-84.1726 579.5182,-75.6427 569.2863,-78.392 573.2341,-84.1726"/>
</g>
<!-- Node16 -->
<g id="node17" class="node">
<title>Node16</title>
<polygon fill="none" stroke="#bfbfbf" points="517.6378,-.5 517.6378,-19.5 597.6378,-19.5 597.6378,-.5 517.6378,-.5"/>
<text text-anchor="middle" x="557.6378" y="-7.5" font-family="Helvetica,sans-Serif" font-size="10.00" fill="#000000">box2d/box2d.h</text>
</g>
<!-- Node13&#45;&gt;Node16 -->
<g id="edge20" class="edge">
<title>Node13&#45;&gt;Node16</title>
<path fill="none" stroke="#191970" d="M557.651,-115.6637C581.9168,-109.7257 609.6838,-98.2331 624.6378,-76 638.3139,-55.667 612.9284,-36.4912 589.5802,-24.1039"/>
<polygon fill="#191970" stroke="#191970" points="590.994,-20.8975 580.4861,-19.5429 587.8558,-27.1547 590.994,-20.8975"/>
</g>
<!-- Node17 -->
<g id="node18" class="node">
<title>Node17</title>
<g id="a_node18"><a xlink:href="entity_8h.html" target="_top" xlink:title="entity.h">
<polygon fill="none" stroke="#000000" points="403.1378,-56.5 403.1378,-75.5 452.1378,-75.5 452.1378,-56.5 403.1378,-56.5"/>
<text text-anchor="middle" x="427.6378" y="-63.5" font-family="Helvetica,sans-Serif" font-size="10.00" fill="#000000">entity.h</text>
</a>
</g>
</g>
<!-- Node13&#45;&gt;Node17 -->
<g id="edge21" class="edge">
<title>Node13&#45;&gt;Node17</title>
<path fill="none" stroke="#191970" d="M497.0062,-112.2455C484.2384,-103.7337 465.4941,-91.2375 450.708,-81.3801"/>
<polygon fill="#191970" stroke="#191970" points="452.3638,-78.2775 442.1018,-75.6427 448.4809,-84.1019 452.3638,-78.2775"/>
</g>
<!-- Node17&#45;&gt;Node2 -->
<g id="edge22" class="edge">
<title>Node17&#45;&gt;Node2</title>
<path fill="none" stroke="#191970" d="M410.9159,-56.2455C396.0489,-47.5731 374.0913,-34.7645 357.0521,-24.825"/>
<polygon fill="#191970" stroke="#191970" points="358.5695,-21.6582 348.1681,-19.6427 355.0424,-27.7047 358.5695,-21.6582"/>
</g>
<!-- Node17&#45;&gt;Node6 -->
<g id="edge23" class="edge">
<title>Node17&#45;&gt;Node6</title>
<path fill="none" stroke="#191970" d="M452.4376,-58.2265C455.1946,-57.4394 457.9695,-56.6806 460.6378,-56 528.0281,-38.8122 608.186,-23.3492 651.0268,-15.479"/>
<polygon fill="#191970" stroke="#191970" points="651.8741,-18.8823 661.0841,-13.6453 650.6184,-11.9958 651.8741,-18.8823"/>
</g>
<!-- Node17&#45;&gt;Node16 -->
<g id="edge24" class="edge">
<title>Node17&#45;&gt;Node16</title>
<path fill="none" stroke="#191970" d="M449.9856,-56.3733C471.0412,-47.3032 502.7874,-33.6279 526.3553,-23.4755"/>
<polygon fill="#191970" stroke="#191970" points="527.7822,-26.6719 535.5817,-19.5011 525.0128,-20.243 527.7822,-26.6719"/>
</g>
<!-- Node18 -->
<g id="node19" class="node">
<title>Node18</title>
<polygon fill="none" stroke="#bfbfbf" points="401.6378,-.5 401.6378,-19.5 455.6378,-19.5 455.6378,-.5 401.6378,-.5"/>
<text text-anchor="middle" x="428.6378" y="-7.5" font-family="Helvetica,sans-Serif" font-size="10.00" fill="#000000">iostream</text>
</g>
<!-- Node17&#45;&gt;Node18 -->
<g id="edge25" class="edge">
<title>Node17&#45;&gt;Node18</title>
<path fill="none" stroke="#191970" d="M427.812,-56.2455C427.9425,-48.9382 428.1254,-38.6944 428.286,-29.7046"/>
<polygon fill="#191970" stroke="#191970" points="431.7864,-29.7036 428.4656,-19.6427 424.7876,-29.5786 431.7864,-29.7036"/>
</g>
</g>
</svg>
