<?xml version="1.0" encoding="UTF-8" standalone="no"?>
<!DOCTYPE svg PUBLIC "-//W3C//DTD SVG 1.1//EN"
 "http://www.w3.org/Graphics/SVG/1.1/DTD/svg11.dtd">
<!-- Generated by graphviz version 2.40.1 (20161225.0304)
 -->
<!-- Title: Graphical Class Hierarchy Pages: 1 -->
<svg width="278pt" height="142pt"
 viewBox="0.00 0.00 278.00 142.00" xmlns="http://www.w3.org/2000/svg" xmlns:xlink="http://www.w3.org/1999/xlink">
<g id="graph0" class="graph" transform="scale(1 1) rotate(0) translate(4 138)">
<title>Graphical Class Hierarchy</title>
<!-- Node0 -->
<g id="node1" class="node">
<title>Node0</title>
<g id="a_node1"><a xlink:href="classSekander_1_1GameWorld.html" target="_top" xlink:title="Sekander::GameWorld">
<polygon fill="none" stroke="#000000" points="0,-57.5 0,-76.5 116,-76.5 116,-57.5 0,-57.5"/>
<text text-anchor="middle" x="58" y="-64.5" font-family="Helvetica,sans-Serif" font-size="10.00" fill="#000000">Sekander::GameWorld</text>
</a>
</g>
</g>
<!-- Node1 -->
<g id="node2" class="node">
<title>Node1</title>
<g id="a_node2"><a xlink:href="classSekander_1_1Bullet.html" target="_top" xlink:title="Sekander::Bullet">
<polygon fill="none" stroke="#000000" points="166.5,-114.5 166.5,-133.5 255.5,-133.5 255.5,-114.5 166.5,-114.5"/>
<text text-anchor="middle" x="211" y="-121.5" font-family="Helvetica,sans-Serif" font-size="10.00" fill="#000000">Sekander::Bullet</text>
</a>
</g>
</g>
<!-- Node0&#45;&gt;Node1 -->
<g id="edge1" class="edge">
<title>Node0&#45;&gt;Node1</title>
<path fill="none" stroke="#8b1a1a" d="M89.7291,-80.4957C107.8459,-88.0326 131.0562,-97.4057 152,-105 161.0037,-108.2648 170.8781,-111.556 179.9295,-114.4606"/>
<polygon fill="#8b1a1a" stroke="#8b1a1a" points="90.8108,-77.1543 80.235,-76.5204 88.1072,-83.6111 90.8108,-77.1543"/>
</g>
<!-- Node2 -->
<g id="node3" class="node">
<title>Node2</title>
<g id="a_node3"><a xlink:href="classSekander_1_1Enemy.html" target="_top" xlink:title="Sekander::Enemy">
<polygon fill="none" stroke="#000000" points="163.5,-76.5 163.5,-95.5 258.5,-95.5 258.5,-76.5 163.5,-76.5"/>
<text text-anchor="middle" x="211" y="-83.5" font-family="Helvetica,sans-Serif" font-size="10.00" fill="#000000">Sekander::Enemy</text>
</a>
</g>
</g>
<!-- Node0&#45;&gt;Node2 -->
<g id="edge2" class="edge">
<title>Node0&#45;&gt;Node2</title>
<path fill="none" stroke="#191970" d="M126.2283,-75.4728C138.7464,-77.0273 151.5634,-78.619 163.3173,-80.0786"/>
<polygon fill="#191970" stroke="#191970" points="126.6343,-71.9964 116.2792,-74.2373 125.7716,-78.9431 126.6343,-71.9964"/>
</g>
<!-- Node3 -->
<g id="node4" class="node">
<title>Node3</title>
<g id="a_node4"><a xlink:href="classSekander_1_1Gun.html" target="_top" xlink:title="Sekander::Gun">
<polygon fill="none" stroke="#000000" points="170,-38.5 170,-57.5 252,-57.5 252,-38.5 170,-38.5"/>
<text text-anchor="middle" x="211" y="-45.5" font-family="Helvetica,sans-Serif" font-size="10.00" fill="#000000">Sekander::Gun</text>
</a>
</g>
</g>
<!-- Node0&#45;&gt;Node3 -->
<g id="edge3" class="edge">
<title>Node0&#45;&gt;Node3</title>
<path fill="none" stroke="#8b1a1a" d="M126.4709,-58.4971C141.3267,-56.6522 156.591,-54.7567 169.9894,-53.0928"/>
<polygon fill="#8b1a1a" stroke="#8b1a1a" points="125.7716,-55.0569 116.2792,-59.7627 126.6343,-62.0036 125.7716,-55.0569"/>
</g>
<!-- Node4 -->
<g id="node5" class="node">
<title>Node4</title>
<g id="a_node5"><a xlink:href="classSekander_1_1Main__Player.html" target="_top" xlink:title="Sekander::Main_Player">
<polygon fill="none" stroke="#000000" points="152,-.5 152,-19.5 270,-19.5 270,-.5 152,-.5"/>
<text text-anchor="middle" x="211" y="-7.5" font-family="Helvetica,sans-Serif" font-size="10.00" fill="#000000">Sekander::Main_Player</text>
</a>
</g>
</g>
<!-- Node0&#45;&gt;Node4 -->
<g id="edge4" class="edge">
<title>Node0&#45;&gt;Node4</title>
<path fill="none" stroke="#191970" d="M89.7291,-53.5043C107.8459,-45.9674 131.0562,-36.5943 152,-29 161.0037,-25.7352 170.8781,-22.444 179.9295,-19.5394"/>
<polygon fill="#191970" stroke="#191970" points="88.1072,-50.3889 80.235,-57.4796 90.8108,-56.8457 88.1072,-50.3889"/>
</g>
</g>
</svg>
