<?xml version="1.0" encoding="UTF-8" standalone="no"?>
<!DOCTYPE svg PUBLIC "-//W3C//DTD SVG 1.1//EN"
 "http://www.w3.org/Graphics/SVG/1.1/DTD/svg11.dtd">
<!-- Generated by graphviz version 2.40.1 (20161225.0304)
 -->
<!-- Title: Graphical Class Hierarchy Pages: 1 -->
<svg width="265pt" height="142pt"
 viewBox="0.00 0.00 265.00 142.00" xmlns="http://www.w3.org/2000/svg" xmlns:xlink="http://www.w3.org/1999/xlink">
<g id="graph0" class="graph" transform="scale(1 1) rotate(0) translate(4 138)">
<title>Graphical Class Hierarchy</title>
<!-- Node0 -->
<g id="node1" class="node">
<title>Node0</title>
<g id="a_node1"><a xlink:href="classSekander_1_1State.html" target="_top" xlink:title="Sekander::State">
<polygon fill="none" stroke="#000000" points="0,-57.5 0,-76.5 87,-76.5 87,-57.5 0,-57.5"/>
<text text-anchor="middle" x="43.5" y="-64.5" font-family="Helvetica,sans-Serif" font-size="10.00" fill="#000000">Sekander::State</text>
</a>
</g>
</g>
<!-- Node1 -->
<g id="node2" class="node">
<title>Node1</title>
<g id="a_node2"><a xlink:href="classSekander_1_1GameOverState.html" target="_top" xlink:title="Sekander::GameOverState">
<polygon fill="none" stroke="#000000" points="123,-114.5 123,-133.5 257,-133.5 257,-114.5 123,-114.5"/>
<text text-anchor="middle" x="190" y="-121.5" font-family="Helvetica,sans-Serif" font-size="10.00" fill="#000000">Sekander::GameOverState</text>
</a>
</g>
</g>
<!-- Node0&#45;&gt;Node1 -->
<g id="edge1" class="edge">
<title>Node0&#45;&gt;Node1</title>
<path fill="none" stroke="#191970" d="M70.7079,-81.418C85.8344,-89.0718 105.1558,-98.2609 123,-105 132.2749,-108.5028 142.4823,-111.711 152.0732,-114.454"/>
<polygon fill="#191970" stroke="#191970" points="71.9252,-78.1086 61.4311,-76.6513 68.726,-84.3347 71.9252,-78.1086"/>
</g>
<!-- Node2 -->
<g id="node3" class="node">
<title>Node2</title>
<g id="a_node3"><a xlink:href="classSekander_1_1GameState.html" target="_top" xlink:title="Sekander::GameState">
<polygon fill="none" stroke="#000000" points="133.5,-76.5 133.5,-95.5 246.5,-95.5 246.5,-76.5 133.5,-76.5"/>
<text text-anchor="middle" x="190" y="-83.5" font-family="Helvetica,sans-Serif" font-size="10.00" fill="#000000">Sekander::GameState</text>
</a>
</g>
</g>
<!-- Node0&#45;&gt;Node2 -->
<g id="edge2" class="edge">
<title>Node0&#45;&gt;Node2</title>
<path fill="none" stroke="#191970" d="M97.1729,-73.961C108.9339,-75.4863 121.4216,-77.1059 133.297,-78.646"/>
<polygon fill="#191970" stroke="#191970" points="97.4253,-70.4645 87.0582,-72.6492 96.5249,-77.4064 97.4253,-70.4645"/>
</g>
<!-- Node3 -->
<g id="node4" class="node">
<title>Node3</title>
<g id="a_node4"><a xlink:href="classSekander_1_1MainMenuState.html" target="_top" xlink:title="Sekander::MainMenuState">
<polygon fill="none" stroke="#000000" points="124,-38.5 124,-57.5 256,-57.5 256,-38.5 124,-38.5"/>
<text text-anchor="middle" x="190" y="-45.5" font-family="Helvetica,sans-Serif" font-size="10.00" fill="#000000">Sekander::MainMenuState</text>
</a>
</g>
</g>
<!-- Node0&#45;&gt;Node3 -->
<g id="edge3" class="edge">
<title>Node0&#45;&gt;Node3</title>
<path fill="none" stroke="#191970" d="M97.0569,-60.0541C105.7588,-58.9255 114.8612,-57.745 123.8211,-56.5829"/>
<polygon fill="#191970" stroke="#191970" points="96.5249,-56.5936 87.0582,-61.3508 97.4253,-63.5355 96.5249,-56.5936"/>
</g>
<!-- Node4 -->
<g id="node5" class="node">
<title>Node4</title>
<g id="a_node5"><a xlink:href="classSekander_1_1SplashState.html" target="_top" xlink:title="Sekander::SplashState">
<polygon fill="none" stroke="#000000" points="131.5,-.5 131.5,-19.5 248.5,-19.5 248.5,-.5 131.5,-.5"/>
<text text-anchor="middle" x="190" y="-7.5" font-family="Helvetica,sans-Serif" font-size="10.00" fill="#000000">Sekander::SplashState</text>
</a>
</g>
</g>
<!-- Node0&#45;&gt;Node4 -->
<g id="edge4" class="edge">
<title>Node0&#45;&gt;Node4</title>
<path fill="none" stroke="#191970" d="M70.7079,-52.582C85.8344,-44.9282 105.1558,-35.7391 123,-29 132.2749,-25.4972 142.4823,-22.289 152.0732,-19.546"/>
<polygon fill="#191970" stroke="#191970" points="68.726,-49.6653 61.4311,-57.3487 71.9252,-55.8914 68.726,-49.6653"/>
</g>
</g>
</svg>
