<?xml version="1.0" encoding="UTF-8" standalone="no"?>
<!DOCTYPE svg PUBLIC "-//W3C//DTD SVG 1.1//EN"
 "http://www.w3.org/Graphics/SVG/1.1/DTD/svg11.dtd">
<!-- Generated by graphviz version 2.40.1 (20161225.0304)
 -->
<!-- Title: Graphical Class Hierarchy Pages: 1 -->
<svg width="341pt" height="142pt"
 viewBox="0.00 0.00 341.00 141.88" xmlns="http://www.w3.org/2000/svg" xmlns:xlink="http://www.w3.org/1999/xlink">
<g id="graph0" class="graph" transform="scale(1 1) rotate(0) translate(4 137.8781)">
<title>Graphical Class Hierarchy</title>
<!-- Node22 -->
<g id="node1" class="node">
<title>Node22</title>
<polygon fill="none" stroke="#bfbfbf" points="0,-39.3781 0,-58.3781 58,-58.3781 58,-39.3781 0,-39.3781"/>
<text text-anchor="middle" x="29" y="-46.3781" font-family="Helvetica,sans-Serif" font-size="10.00" fill="#000000">Drawable</text>
</g>
<!-- Node23 -->
<g id="node2" class="node">
<title>Node23</title>
<g id="a_node2"><a xlink:href="classMapLayer.html" target="_top" xlink:title="MapLayer">
<polygon fill="none" stroke="#000000" points="140.5,-114.3781 140.5,-133.3781 199.5,-133.3781 199.5,-114.3781 140.5,-114.3781"/>
<text text-anchor="middle" x="170" y="-121.3781" font-family="Helvetica,sans-Serif" font-size="10.00" fill="#000000">MapLayer</text>
</a>
</g>
</g>
<!-- Node22&#45;&gt;Node23 -->
<g id="edge1" class="edge">
<title>Node22&#45;&gt;Node23</title>
<path fill="none" stroke="#191970" d="M44.8272,-66.3205C57.0895,-78.8142 75.1231,-95.0969 94,-104.8781 108.3701,-112.3241 125.8026,-116.9531 140.3452,-119.7752"/>
<polygon fill="#191970" stroke="#191970" points="47.0756,-63.6054 37.6516,-58.764 41.9995,-68.4256 47.0756,-63.6054"/>
</g>
<!-- Node0 -->
<g id="node3" class="node">
<title>Node0</title>
<g id="a_node3"><a xlink:href="classMapLayer_1_1Chunk.html" target="_top" xlink:title="Transformable">
<polygon fill="none" stroke="#bfbfbf" points="130.5,-58.3781 130.5,-77.3781 209.5,-77.3781 209.5,-58.3781 130.5,-58.3781"/>
<text text-anchor="middle" x="170" y="-65.3781" font-family="Helvetica,sans-Serif" font-size="10.00" fill="#000000">Transformable</text>
</a>
</g>
</g>
<!-- Node22&#45;&gt;Node0 -->
<g id="edge2" class="edge">
<title>Node22&#45;&gt;Node0</title>
<path fill="none" stroke="#191970" d="M68.2379,-54.1655C87.6221,-56.7775 110.9601,-59.9224 130.3939,-62.5411"/>
<polygon fill="#191970" stroke="#191970" points="68.5932,-50.6818 58.2153,-52.8149 67.6583,-57.6191 68.5932,-50.6818"/>
</g>
<!-- Node24 -->
<g id="node4" class="node">
<title>Node24</title>
<g id="a_node4"><a xlink:href="classMapLayer_1_1Chunk_1_1ChunkArray.html" target="_top" xlink:title="MapLayer::Chunk::ChunkArray">
<polygon fill="none" stroke="#000000" points="94,-20.3781 94,-39.3781 246,-39.3781 246,-20.3781 94,-20.3781"/>
<text text-anchor="middle" x="170" y="-27.3781" font-family="Helvetica,sans-Serif" font-size="10.00" fill="#000000">MapLayer::Chunk::ChunkArray</text>
</a>
</g>
</g>
<!-- Node22&#45;&gt;Node24 -->
<g id="edge3" class="edge">
<title>Node22&#45;&gt;Node24</title>
<path fill="none" stroke="#191970" d="M68.27,-43.5864C77.9334,-42.2842 88.5778,-40.8499 99.2305,-39.4144"/>
<polygon fill="#191970" stroke="#191970" points="67.6583,-40.1371 58.2153,-44.9413 68.5932,-47.0744 67.6583,-40.1371"/>
</g>
<!-- Node2 -->
<g id="node5" class="node">
<title>Node2</title>
<g id="a_node5"><a xlink:href="classTileMap.html" target="_top" xlink:title="TileMap">
<polygon fill="none" stroke="#000000" points="282,-20.3781 282,-39.3781 333,-39.3781 333,-20.3781 282,-20.3781"/>
<text text-anchor="middle" x="307.5" y="-27.3781" font-family="Helvetica,sans-Serif" font-size="10.00" fill="#000000">TileMap</text>
</a>
</g>
</g>
<!-- Node22&#45;&gt;Node2 -->
<g id="edge4" class="edge">
<title>Node22&#45;&gt;Node2</title>
<path fill="none" stroke="#191970" d="M49.1734,-33.3065C61.4098,-24.864 77.7556,-15.2781 94,-10.8781 159.2059,6.7837 179.2012,-.7947 246,-10.8781 258.2653,-12.7296 271.4565,-16.5475 282.4648,-20.2786"/>
<polygon fill="#191970" stroke="#191970" points="47.116,-30.475 41.0499,-39.1615 51.2089,-36.1538 47.116,-30.475"/>
</g>
<!-- Node0&#45;&gt;Node0 -->
<g id="edge5" class="edge">
<title>Node0&#45;&gt;Node0</title>
<path fill="none" stroke="#191970" d="M144.7025,-86.9073C146.0824,-92.0061 154.5149,-95.8781 170,-95.8781 194.1719,-95.8781 201.1591,-86.4434 190.9615,-77.6352"/>
<polygon fill="#191970" stroke="#191970" points="147.9728,-88.1763 149.0385,-77.6352 141.6319,-85.211 147.9728,-88.1763"/>
</g>
<!-- Node0&#45;&gt;Node2 -->
<g id="edge6" class="edge">
<title>Node0&#45;&gt;Node2</title>
<path fill="none" stroke="#191970" d="M219.4111,-55.942C228.2858,-53.6797 237.4342,-51.2701 246,-48.8781 257.8396,-45.5719 270.8593,-41.599 281.8591,-38.1428"/>
<polygon fill="#191970" stroke="#191970" points="218.3957,-52.5883 209.5534,-58.4247 220.1054,-59.3764 218.3957,-52.5883"/>
</g>
</g>
</svg>
