<?xml version="1.0" encoding="UTF-8" standalone="no"?>
<!DOCTYPE svg PUBLIC "-//W3C//DTD SVG 1.1//EN"
 "http://www.w3.org/Graphics/SVG/1.1/DTD/svg11.dtd">
<!-- Generated by graphviz version 2.40.1 (20161225.0304)
 -->
<!-- Title: /mnt/hdd/C0de/Engines/SFML/SFML_Engine/include/LoadingGameObjects.hpp Pages: 1 -->
<svg width="827pt" height="206pt"
 viewBox="0.00 0.00 826.50 206.00" xmlns="http://www.w3.org/2000/svg" xmlns:xlink="http://www.w3.org/1999/xlink">
<g id="graph0" class="graph" transform="scale(1 1) rotate(0) translate(4 202)">
<title>/mnt/hdd/C0de/Engines/SFML/SFML_Engine/include/LoadingGameObjects.hpp</title>
<!-- Node27 -->
<g id="node1" class="node">
<title>Node27</title>
<polygon fill="#bfbfbf" stroke="#000000" points="362.5,-156.5 362.5,-197.5 506.5,-197.5 506.5,-156.5 362.5,-156.5"/>
<text text-anchor="start" x="370.5" y="-185.5" font-family="Helvetica,sans-Serif" font-size="10.00" fill="#000000">/mnt/hdd/C0de/Engines</text>
<text text-anchor="start" x="370.5" y="-174.5" font-family="Helvetica,sans-Serif" font-size="10.00" fill="#000000">/SFML/SFML_Engine/include</text>
<text text-anchor="middle" x="434.5" y="-163.5" font-family="Helvetica,sans-Serif" font-size="10.00" fill="#000000">/LoadingGameObjects.hpp</text>
</g>
<!-- Node28 -->
<g id="node2" class="node">
<title>Node28</title>
<g id="a_node2"><a xlink:href="GameOverState_8hpp.html" target="_top" xlink:title="/mnt/hdd/C0de/Engines\l/SFML/SFML_Engine/include\l/GameOverState.hpp">
<polygon fill="none" stroke="#000000" points="38.5,-78.5 38.5,-119.5 182.5,-119.5 182.5,-78.5 38.5,-78.5"/>
<text text-anchor="start" x="46.5" y="-107.5" font-family="Helvetica,sans-Serif" font-size="10.00" fill="#000000">/mnt/hdd/C0de/Engines</text>
<text text-anchor="start" x="46.5" y="-96.5" font-family="Helvetica,sans-Serif" font-size="10.00" fill="#000000">/SFML/SFML_Engine/include</text>
<text text-anchor="middle" x="110.5" y="-85.5" font-family="Helvetica,sans-Serif" font-size="10.00" fill="#000000">/GameOverState.hpp</text>
</a>
</g>
</g>
<!-- Node27&#45;&gt;Node28 -->
<g id="edge1" class="edge">
<title>Node27&#45;&gt;Node28</title>
<path fill="none" stroke="#191970" d="M352.5009,-158.2659C305.3419,-147.3665 245.0133,-133.2113 191.5,-120 188.6792,-119.3036 185.8048,-118.5879 182.9023,-117.86"/>
<polygon fill="#191970" stroke="#191970" points="351.826,-161.7021 362.357,-160.5408 353.4004,-154.8814 351.826,-161.7021"/>
</g>
<!-- Node31 -->
<g id="node5" class="node">
<title>Node31</title>
<g id="a_node5"><a xlink:href="GameState_8hpp.html" target="_top" xlink:title="/mnt/hdd/C0de/Engines\l/SFML/SFML_Engine/include\l/GameState.hpp">
<polygon fill="none" stroke="#000000" points="200.5,-78.5 200.5,-119.5 344.5,-119.5 344.5,-78.5 200.5,-78.5"/>
<text text-anchor="start" x="208.5" y="-107.5" font-family="Helvetica,sans-Serif" font-size="10.00" fill="#000000">/mnt/hdd/C0de/Engines</text>
<text text-anchor="start" x="208.5" y="-96.5" font-family="Helvetica,sans-Serif" font-size="10.00" fill="#000000">/SFML/SFML_Engine/include</text>
<text text-anchor="middle" x="272.5" y="-85.5" font-family="Helvetica,sans-Serif" font-size="10.00" fill="#000000">/GameState.hpp</text>
</a>
</g>
</g>
<!-- Node27&#45;&gt;Node31 -->
<g id="edge4" class="edge">
<title>Node27&#45;&gt;Node31</title>
<path fill="none" stroke="#191970" d="M382.4146,-151.9218C360.6787,-141.4564 335.7454,-129.4515 315.1265,-119.5239"/>
<polygon fill="#191970" stroke="#191970" points="380.9839,-155.1175 391.5123,-156.3022 384.0206,-148.8105 380.9839,-155.1175"/>
</g>
<!-- Node34 -->
<g id="node8" class="node">
<title>Node34</title>
<g id="a_node8"><a xlink:href="MainMenuState_8hpp.html" target="_top" xlink:title="/mnt/hdd/C0de/Engines\l/SFML/SFML_Engine/include\l/MainMenuState.hpp">
<polygon fill="none" stroke="#000000" points="524.5,-78.5 524.5,-119.5 668.5,-119.5 668.5,-78.5 524.5,-78.5"/>
<text text-anchor="start" x="532.5" y="-107.5" font-family="Helvetica,sans-Serif" font-size="10.00" fill="#000000">/mnt/hdd/C0de/Engines</text>
<text text-anchor="start" x="532.5" y="-96.5" font-family="Helvetica,sans-Serif" font-size="10.00" fill="#000000">/SFML/SFML_Engine/include</text>
<text text-anchor="middle" x="596.5" y="-85.5" font-family="Helvetica,sans-Serif" font-size="10.00" fill="#000000">/MainMenuState.hpp</text>
</a>
</g>
</g>
<!-- Node27&#45;&gt;Node34 -->
<g id="edge9" class="edge">
<title>Node27&#45;&gt;Node34</title>
<path fill="none" stroke="#191970" d="M486.5854,-151.9218C508.3213,-141.4564 533.2546,-129.4515 553.8735,-119.5239"/>
<polygon fill="#191970" stroke="#191970" points="484.9794,-148.8105 477.4877,-156.3022 488.0161,-155.1175 484.9794,-148.8105"/>
</g>
<!-- Node36 -->
<g id="node10" class="node">
<title>Node36</title>
<g id="a_node10"><a xlink:href="SplashState_8hpp.html" target="_top" xlink:title="/mnt/hdd/C0de/Engines\l/SFML/SFML_Engine/include\l/SplashState.hpp">
<polygon fill="none" stroke="#000000" points="362.5,-78.5 362.5,-119.5 506.5,-119.5 506.5,-78.5 362.5,-78.5"/>
<text text-anchor="start" x="370.5" y="-107.5" font-family="Helvetica,sans-Serif" font-size="10.00" fill="#000000">/mnt/hdd/C0de/Engines</text>
<text text-anchor="start" x="370.5" y="-96.5" font-family="Helvetica,sans-Serif" font-size="10.00" fill="#000000">/SFML/SFML_Engine/include</text>
<text text-anchor="middle" x="434.5" y="-85.5" font-family="Helvetica,sans-Serif" font-size="10.00" fill="#000000">/SplashState.hpp</text>
</a>
</g>
</g>
<!-- Node27&#45;&gt;Node36 -->
<g id="edge12" class="edge">
<title>Node27&#45;&gt;Node36</title>
<path fill="none" stroke="#191970" d="M434.5,-146.0789C434.5,-137.2178 434.5,-127.7747 434.5,-119.6898"/>
<polygon fill="#191970" stroke="#191970" points="431.0001,-146.0974 434.5,-156.0974 438.0001,-146.0975 431.0001,-146.0974"/>
</g>
<!-- Node37 -->
<g id="node11" class="node">
<title>Node37</title>
<g id="a_node11"><a xlink:href="LoadingGameObjects_8cpp.html" target="_top" xlink:title="/mnt/hdd/C0de/Engines\l/SFML/SFML_Engine/src\l/LoadingGameObjects.cpp">
<polygon fill="none" stroke="#000000" points="686.5,-78.5 686.5,-119.5 818.5,-119.5 818.5,-78.5 686.5,-78.5"/>
<text text-anchor="start" x="694.5" y="-107.5" font-family="Helvetica,sans-Serif" font-size="10.00" fill="#000000">/mnt/hdd/C0de/Engines</text>
<text text-anchor="start" x="694.5" y="-96.5" font-family="Helvetica,sans-Serif" font-size="10.00" fill="#000000">/SFML/SFML_Engine/src</text>
<text text-anchor="middle" x="752.5" y="-85.5" font-family="Helvetica,sans-Serif" font-size="10.00" fill="#000000">/LoadingGameObjects.cpp</text>
</a>
</g>
</g>
<!-- Node27&#45;&gt;Node37 -->
<g id="edge15" class="edge">
<title>Node27&#45;&gt;Node37</title>
<path fill="none" stroke="#191970" d="M516.598,-158.6583C563.7891,-147.8864 624.1169,-133.728 677.5,-120 680.381,-119.2591 683.3208,-118.4905 686.2878,-117.7043"/>
<polygon fill="#191970" stroke="#191970" points="515.7079,-155.2713 506.7345,-160.9041 517.262,-162.0966 515.7079,-155.2713"/>
</g>
<!-- Node29 -->
<g id="node3" class="node">
<title>Node29</title>
<g id="a_node3"><a xlink:href="GameOverState_8cpp.html" target="_top" xlink:title="/mnt/hdd/C0de/Engines\l/SFML/SFML_Engine/src\l/GameOverState.cpp">
<polygon fill="none" stroke="#000000" points="145,-.5 145,-41.5 272,-41.5 272,-.5 145,-.5"/>
<text text-anchor="start" x="153" y="-29.5" font-family="Helvetica,sans-Serif" font-size="10.00" fill="#000000">/mnt/hdd/C0de/Engines</text>
<text text-anchor="start" x="153" y="-18.5" font-family="Helvetica,sans-Serif" font-size="10.00" fill="#000000">/SFML/SFML_Engine/src</text>
<text text-anchor="middle" x="208.5" y="-7.5" font-family="Helvetica,sans-Serif" font-size="10.00" fill="#000000">/GameOverState.cpp</text>
</a>
</g>
</g>
<!-- Node28&#45;&gt;Node29 -->
<g id="edge2" class="edge">
<title>Node28&#45;&gt;Node29</title>
<path fill="none" stroke="#191970" d="M144.4954,-71.9424C157.0325,-61.9639 171.02,-50.831 182.7136,-41.5239"/>
<polygon fill="#191970" stroke="#191970" points="142.1496,-69.3362 136.5049,-78.3022 146.5088,-74.8132 142.1496,-69.3362"/>
</g>
<!-- Node30 -->
<g id="node4" class="node">
<title>Node30</title>
<g id="a_node4"><a xlink:href="GameState_8cpp.html" target="_top" xlink:title="/mnt/hdd/C0de/Engines\l/SFML/SFML_Engine/src\l/GameState.cpp">
<polygon fill="none" stroke="#000000" points="0,-.5 0,-41.5 127,-41.5 127,-.5 0,-.5"/>
<text text-anchor="start" x="8" y="-29.5" font-family="Helvetica,sans-Serif" font-size="10.00" fill="#000000">/mnt/hdd/C0de/Engines</text>
<text text-anchor="start" x="8" y="-18.5" font-family="Helvetica,sans-Serif" font-size="10.00" fill="#000000">/SFML/SFML_Engine/src</text>
<text text-anchor="middle" x="63.5" y="-7.5" font-family="Helvetica,sans-Serif" font-size="10.00" fill="#000000">/GameState.cpp</text>
</a>
</g>
</g>
<!-- Node28&#45;&gt;Node30 -->
<g id="edge3" class="edge">
<title>Node28&#45;&gt;Node30</title>
<path fill="none" stroke="#191970" d="M92.7353,-69.5181C87.1496,-60.2482 81.1034,-50.2141 75.9669,-41.6898"/>
<polygon fill="#191970" stroke="#191970" points="89.7459,-71.3386 97.9049,-78.0974 95.7416,-67.7258 89.7459,-71.3386"/>
</g>
<!-- Node31&#45;&gt;Node29 -->
<g id="edge6" class="edge">
<title>Node31&#45;&gt;Node29</title>
<path fill="none" stroke="#191970" d="M248.7794,-70.0905C241.0437,-60.6626 232.6148,-50.3899 225.4762,-41.6898"/>
<polygon fill="#191970" stroke="#191970" points="246.3002,-72.5868 255.3492,-78.0974 251.7117,-68.1466 246.3002,-72.5868"/>
</g>
<!-- Node31&#45;&gt;Node30 -->
<g id="edge7" class="edge">
<title>Node31&#45;&gt;Node30</title>
<path fill="none" stroke="#191970" d="M207.819,-74.8607C179.2473,-64.1976 146.0059,-51.7917 118.6322,-41.5757"/>
<polygon fill="#191970" stroke="#191970" points="206.7217,-78.1869 217.3143,-78.4044 209.1693,-71.6287 206.7217,-78.1869"/>
</g>
<!-- Node32 -->
<g id="node6" class="node">
<title>Node32</title>
<g id="a_node6"><a xlink:href="Game_8cpp.html" target="_top" xlink:title="/mnt/hdd/C0de/Engines\l/SFML/SFML_Engine/src\l/Game.cpp">
<polygon fill="none" stroke="#000000" points="290,-.5 290,-41.5 417,-41.5 417,-.5 290,-.5"/>
<text text-anchor="start" x="298" y="-29.5" font-family="Helvetica,sans-Serif" font-size="10.00" fill="#000000">/mnt/hdd/C0de/Engines</text>
<text text-anchor="start" x="298" y="-18.5" font-family="Helvetica,sans-Serif" font-size="10.00" fill="#000000">/SFML/SFML_Engine/src</text>
<text text-anchor="middle" x="353.5" y="-7.5" font-family="Helvetica,sans-Serif" font-size="10.00" fill="#000000">/Game.cpp</text>
</a>
</g>
</g>
<!-- Node31&#45;&gt;Node32 -->
<g id="edge5" class="edge">
<title>Node31&#45;&gt;Node32</title>
<path fill="none" stroke="#191970" d="M301.6338,-70.9452C311.6639,-61.2866 322.7059,-50.6535 332.0144,-41.6898"/>
<polygon fill="#191970" stroke="#191970" points="298.982,-68.6399 294.2065,-78.0974 303.8375,-73.6821 298.982,-68.6399"/>
</g>
<!-- Node33 -->
<g id="node7" class="node">
<title>Node33</title>
<g id="a_node7"><a xlink:href="MainMenuState_8cpp.html" target="_top" xlink:title="/mnt/hdd/C0de/Engines\l/SFML/SFML_Engine/src\l/MainMenuState.cpp">
<polygon fill="none" stroke="#000000" points="435,-.5 435,-41.5 562,-41.5 562,-.5 435,-.5"/>
<text text-anchor="start" x="443" y="-29.5" font-family="Helvetica,sans-Serif" font-size="10.00" fill="#000000">/mnt/hdd/C0de/Engines</text>
<text text-anchor="start" x="443" y="-18.5" font-family="Helvetica,sans-Serif" font-size="10.00" fill="#000000">/SFML/SFML_Engine/src</text>
<text text-anchor="middle" x="498.5" y="-7.5" font-family="Helvetica,sans-Serif" font-size="10.00" fill="#000000">/MainMenuState.cpp</text>
</a>
</g>
</g>
<!-- Node31&#45;&gt;Node33 -->
<g id="edge8" class="edge">
<title>Node31&#45;&gt;Node33</title>
<path fill="none" stroke="#191970" d="M341.6373,-75.1385C372.7122,-64.4135 409.0257,-51.8805 438.8833,-41.5757"/>
<polygon fill="#191970" stroke="#191970" points="340.4854,-71.8333 332.1745,-78.4044 342.7692,-78.4503 340.4854,-71.8333"/>
</g>
<!-- Node34&#45;&gt;Node33 -->
<g id="edge10" class="edge">
<title>Node34&#45;&gt;Node33</title>
<path fill="none" stroke="#191970" d="M562.5046,-71.9424C549.9675,-61.9639 535.98,-50.831 524.2864,-41.5239"/>
<polygon fill="#191970" stroke="#191970" points="560.4912,-74.8132 570.4951,-78.3022 564.8504,-69.3362 560.4912,-74.8132"/>
</g>
<!-- Node35 -->
<g id="node9" class="node">
<title>Node35</title>
<g id="a_node9"><a xlink:href="SplashState_8cpp.html" target="_top" xlink:title="/mnt/hdd/C0de/Engines\l/SFML/SFML_Engine/src\l/SplashState.cpp">
<polygon fill="none" stroke="#000000" points="580,-.5 580,-41.5 707,-41.5 707,-.5 580,-.5"/>
<text text-anchor="start" x="588" y="-29.5" font-family="Helvetica,sans-Serif" font-size="10.00" fill="#000000">/mnt/hdd/C0de/Engines</text>
<text text-anchor="start" x="588" y="-18.5" font-family="Helvetica,sans-Serif" font-size="10.00" fill="#000000">/SFML/SFML_Engine/src</text>
<text text-anchor="middle" x="643.5" y="-7.5" font-family="Helvetica,sans-Serif" font-size="10.00" fill="#000000">/SplashState.cpp</text>
</a>
</g>
</g>
<!-- Node34&#45;&gt;Node35 -->
<g id="edge11" class="edge">
<title>Node34&#45;&gt;Node35</title>
<path fill="none" stroke="#191970" d="M614.2647,-69.5181C619.8504,-60.2482 625.8966,-50.2141 631.0331,-41.6898"/>
<polygon fill="#191970" stroke="#191970" points="611.2584,-67.7258 609.0951,-78.0974 617.2541,-71.3386 611.2584,-67.7258"/>
</g>
<!-- Node36&#45;&gt;Node32 -->
<g id="edge13" class="edge">
<title>Node36&#45;&gt;Node32</title>
<path fill="none" stroke="#191970" d="M405.3662,-70.9452C395.3361,-61.2866 384.2941,-50.6535 374.9856,-41.6898"/>
<polygon fill="#191970" stroke="#191970" points="403.1625,-73.6821 412.7935,-78.0974 408.018,-68.6399 403.1625,-73.6821"/>
</g>
<!-- Node36&#45;&gt;Node35 -->
<g id="edge14" class="edge">
<title>Node36&#45;&gt;Node35</title>
<path fill="none" stroke="#191970" d="M499.181,-74.8607C527.7527,-64.1976 560.9941,-51.7917 588.3678,-41.5757"/>
<polygon fill="#191970" stroke="#191970" points="497.8307,-71.6287 489.6857,-78.4044 500.2783,-78.1869 497.8307,-71.6287"/>
</g>
</g>
</svg>
