<?xml version="1.0" encoding="UTF-8" standalone="no"?>
<!DOCTYPE svg PUBLIC "-//W3C//DTD SVG 1.1//EN"
 "http://www.w3.org/Graphics/SVG/1.1/DTD/svg11.dtd">
<!-- Generated by graphviz version 2.40.1 (20161225.0304)
 -->
<!-- Title: /mnt/hdd/C0de/Engines/SFML/SFML_Engine/src/LoadingGameObjects.cpp Pages: 1 -->
<svg width="1095pt" height="554pt"
 viewBox="0.00 0.00 1095.00 554.00" xmlns="http://www.w3.org/2000/svg" xmlns:xlink="http://www.w3.org/1999/xlink">
<g id="graph0" class="graph" transform="scale(1 1) rotate(0) translate(4 550)">
<title>/mnt/hdd/C0de/Engines/SFML/SFML_Engine/src/LoadingGameObjects.cpp</title>
<!-- Node0 -->
<g id="node1" class="node">
<title>Node0</title>
<polygon fill="#bfbfbf" stroke="#000000" points="947,-504.5 947,-545.5 1079,-545.5 1079,-504.5 947,-504.5"/>
<text text-anchor="start" x="955" y="-533.5" font-family="Helvetica,sans-Serif" font-size="10.00" fill="#000000">/mnt/hdd/C0de/Engines</text>
<text text-anchor="start" x="955" y="-522.5" font-family="Helvetica,sans-Serif" font-size="10.00" fill="#000000">/SFML/SFML_Engine/src</text>
<text text-anchor="middle" x="1013" y="-511.5" font-family="Helvetica,sans-Serif" font-size="10.00" fill="#000000">/LoadingGameObjects.cpp</text>
</g>
<!-- Node1 -->
<g id="node2" class="node">
<title>Node1</title>
<g id="a_node2"><a xlink:href="LoadingGameObjects_8hpp.html" target="_top" xlink:title="../include/LoadingGameObjects.hpp">
<polygon fill="none" stroke="#000000" points="516,-448.5 516,-467.5 688,-467.5 688,-448.5 516,-448.5"/>
<text text-anchor="middle" x="602" y="-455.5" font-family="Helvetica,sans-Serif" font-size="10.00" fill="#000000">../include/LoadingGameObjects.hpp</text>
</a>
</g>
</g>
<!-- Node0&#45;&gt;Node1 -->
<g id="edge1" class="edge">
<title>Node0&#45;&gt;Node1</title>
<path fill="none" stroke="#191970" d="M946.9657,-514.2353C871.1754,-501.8802 747.4645,-481.7132 670.6087,-469.1844"/>
<polygon fill="#191970" stroke="#191970" points="670.9815,-465.699 660.5486,-467.5444 669.8551,-472.6078 670.9815,-465.699"/>
</g>
<!-- Node18 -->
<g id="node19" class="node">
<title>Node18</title>
<polygon fill="none" stroke="#bfbfbf" points="834,-.5 834,-19.5 888,-19.5 888,-.5 834,-.5"/>
<text text-anchor="middle" x="861" y="-7.5" font-family="Helvetica,sans-Serif" font-size="10.00" fill="#000000">iostream</text>
</g>
<!-- Node0&#45;&gt;Node18 -->
<g id="edge53" class="edge">
<title>Node0&#45;&gt;Node18</title>
<path fill="none" stroke="#191970" d="M1013,-504.1071C1013,-479.6357 1013,-437.875 1013,-402 1013,-402 1013,-402 1013,-122 1013,-65.0133 942.8995,-33.7738 897.9101,-19.5929"/>
<polygon fill="#191970" stroke="#191970" points="898.7589,-16.1933 888.1746,-16.6643 896.7424,-22.8966 898.7589,-16.1933"/>
</g>
<!-- Node28 -->
<g id="node29" class="node">
<title>Node28</title>
<polygon fill="none" stroke="#bfbfbf" points="1041,-448.5 1041,-467.5 1087,-467.5 1087,-448.5 1041,-448.5"/>
<text text-anchor="middle" x="1064" y="-455.5" font-family="Helvetica,sans-Serif" font-size="10.00" fill="#000000">stdio.h</text>
</g>
<!-- Node0&#45;&gt;Node28 -->
<g id="edge52" class="edge">
<title>Node0&#45;&gt;Node28</title>
<path fill="none" stroke="#191970" d="M1028.8572,-504.168C1035.7872,-495.0639 1043.8315,-484.4959 1050.4736,-475.7699"/>
<polygon fill="#191970" stroke="#191970" points="1053.2832,-477.8574 1056.5552,-467.7805 1047.7133,-473.6176 1053.2832,-477.8574"/>
</g>
<!-- Node2 -->
<g id="node3" class="node">
<title>Node2</title>
<polygon fill="none" stroke="#bfbfbf" points="111,-.5 111,-19.5 215,-19.5 215,-.5 111,-.5"/>
<text text-anchor="middle" x="163" y="-7.5" font-family="Helvetica,sans-Serif" font-size="10.00" fill="#000000">SFML/Graphics.hpp</text>
</g>
<!-- Node1&#45;&gt;Node2 -->
<g id="edge2" class="edge">
<title>Node1&#45;&gt;Node2</title>
<path fill="none" stroke="#191970" d="M515.7481,-450.7806C349.2897,-435.6819 0,-397.8248 0,-346 0,-346 0,-346 0,-122 0,-67.2319 63.2831,-37.2317 110.9873,-22.3974"/>
<polygon fill="#191970" stroke="#191970" points="112.0086,-25.7452 120.5992,-19.5442 110.0166,-19.0346 112.0086,-25.7452"/>
</g>
<!-- Node3 -->
<g id="node4" class="node">
<title>Node3</title>
<g id="a_node4"><a xlink:href="DEFINITIONS_8hpp.html" target="_top" xlink:title="DEFINITIONS.hpp">
<polygon fill="none" stroke="#000000" points="364,-168.5 364,-187.5 464,-187.5 464,-168.5 364,-168.5"/>
<text text-anchor="middle" x="414" y="-175.5" font-family="Helvetica,sans-Serif" font-size="10.00" fill="#000000">DEFINITIONS.hpp</text>
</a>
</g>
</g>
<!-- Node1&#45;&gt;Node3 -->
<g id="edge3" class="edge">
<title>Node1&#45;&gt;Node3</title>
<path fill="none" stroke="#191970" d="M552.0362,-448.4973C500.0029,-435.3657 426,-406.1215 426,-346 426,-346 426,-346 426,-290 426,-257.3778 420.9046,-219.7135 417.3544,-197.4301"/>
<polygon fill="#191970" stroke="#191970" points="420.8053,-196.8456 415.7193,-187.5514 413.8993,-197.9887 420.8053,-196.8456"/>
</g>
<!-- Node4 -->
<g id="node5" class="node">
<title>Node4</title>
<g id="a_node5"><a xlink:href="Game_8hpp.html" target="_top" xlink:title="Game.hpp">
<polygon fill="none" stroke="#000000" points="284,-168.5 284,-187.5 346,-187.5 346,-168.5 284,-168.5"/>
<text text-anchor="middle" x="315" y="-175.5" font-family="Helvetica,sans-Serif" font-size="10.00" fill="#000000">Game.hpp</text>
</a>
</g>
</g>
<!-- Node1&#45;&gt;Node4 -->
<g id="edge4" class="edge">
<title>Node1&#45;&gt;Node4</title>
<path fill="none" stroke="#191970" d="M560.2707,-448.4756C488.8978,-430.964 351,-391.2723 351,-346 351,-346 351,-346 351,-290 351,-255.7942 335.5926,-218.4094 324.9369,-196.6445"/>
<polygon fill="#191970" stroke="#191970" points="327.9659,-194.8795 320.3119,-187.5538 321.727,-198.0537 327.9659,-194.8795"/>
</g>
<!-- Node19 -->
<g id="node20" class="node">
<title>Node19</title>
<g id="a_node20"><a xlink:href="Main__Player_8hpp.html" target="_top" xlink:title="Main_Player.hpp">
<polygon fill="none" stroke="#000000" points="602.5,-392.5 602.5,-411.5 691.5,-411.5 691.5,-392.5 602.5,-392.5"/>
<text text-anchor="middle" x="647" y="-399.5" font-family="Helvetica,sans-Serif" font-size="10.00" fill="#000000">Main_Player.hpp</text>
</a>
</g>
</g>
<!-- Node1&#45;&gt;Node19 -->
<g id="edge26" class="edge">
<title>Node1&#45;&gt;Node19</title>
<path fill="none" stroke="#191970" d="M609.8384,-448.2455C616.162,-440.3761 625.2224,-429.101 632.8136,-419.6542"/>
<polygon fill="#191970" stroke="#191970" points="635.7158,-421.6302 639.2514,-411.6427 630.2592,-417.2454 635.7158,-421.6302"/>
</g>
<!-- Node21 -->
<g id="node22" class="node">
<title>Node21</title>
<g id="a_node22"><a xlink:href="Bullet_8hpp.html" target="_top" xlink:title="Bullet.hpp">
<polygon fill="none" stroke="#000000" points="850,-280.5 850,-299.5 910,-299.5 910,-280.5 850,-280.5"/>
<text text-anchor="middle" x="880" y="-287.5" font-family="Helvetica,sans-Serif" font-size="10.00" fill="#000000">Bullet.hpp</text>
</a>
</g>
</g>
<!-- Node1&#45;&gt;Node21 -->
<g id="edge44" class="edge">
<title>Node1&#45;&gt;Node21</title>
<path fill="none" stroke="#191970" d="M688.248,-453.7265C758.3971,-448.4611 850.0208,-436.9218 877,-412 904.8908,-386.2361 895.2023,-336.7566 886.8805,-309.3912"/>
<polygon fill="#191970" stroke="#191970" points="890.1681,-308.1839 883.7299,-299.7696 883.5157,-310.3623 890.1681,-308.1839"/>
</g>
<!-- Node26 -->
<g id="node27" class="node">
<title>Node26</title>
<g id="a_node27"><a xlink:href="Enemy_8hpp.html" target="_top" xlink:title="Enemy.hpp">
<polygon fill="none" stroke="#000000" points="802,-392.5 802,-411.5 868,-411.5 868,-392.5 802,-392.5"/>
<text text-anchor="middle" x="835" y="-399.5" font-family="Helvetica,sans-Serif" font-size="10.00" fill="#000000">Enemy.hpp</text>
</a>
</g>
</g>
<!-- Node1&#45;&gt;Node26 -->
<g id="edge45" class="edge">
<title>Node1&#45;&gt;Node26</title>
<path fill="none" stroke="#191970" d="M641.7894,-448.4369C683.5436,-438.4015 748.9636,-422.6783 791.9145,-412.3553"/>
<polygon fill="#191970" stroke="#191970" points="792.8823,-415.7225 801.7875,-409.9824 791.2464,-408.9163 792.8823,-415.7225"/>
</g>
<!-- Node27 -->
<g id="node28" class="node">
<title>Node27</title>
<polygon fill="none" stroke="#bfbfbf" points="528,-392.5 528,-411.5 584,-411.5 584,-392.5 528,-392.5"/>
<text text-anchor="middle" x="556" y="-399.5" font-family="Helvetica,sans-Serif" font-size="10.00" fill="#000000">tinyxml.h</text>
</g>
<!-- Node1&#45;&gt;Node27 -->
<g id="edge51" class="edge">
<title>Node1&#45;&gt;Node27</title>
<path fill="none" stroke="#191970" d="M593.9874,-448.2455C587.5232,-440.3761 578.2615,-429.101 570.5017,-419.6542"/>
<polygon fill="#191970" stroke="#191970" points="572.9727,-417.1484 563.9208,-411.6427 567.5636,-421.5916 572.9727,-417.1484"/>
</g>
<!-- Node4&#45;&gt;Node2 -->
<g id="edge7" class="edge">
<title>Node4&#45;&gt;Node2</title>
<path fill="none" stroke="#191970" d="M283.844,-177.2372C221.6543,-174.988 85.6281,-166.1838 57,-132 23.9218,-92.5025 92.8234,-46.9026 134.4334,-24.2728"/>
<polygon fill="#191970" stroke="#191970" points="136.1547,-27.3218 143.3501,-19.5451 132.8756,-21.1373 136.1547,-27.3218"/>
</g>
<!-- Node5 -->
<g id="node6" class="node">
<title>Node5</title>
<polygon fill="none" stroke="#bfbfbf" points="241,-56.5 241,-75.5 293,-75.5 293,-56.5 241,-56.5"/>
<text text-anchor="middle" x="267" y="-63.5" font-family="Helvetica,sans-Serif" font-size="10.00" fill="#000000">memory</text>
</g>
<!-- Node4&#45;&gt;Node5 -->
<g id="edge5" class="edge">
<title>Node4&#45;&gt;Node5</title>
<path fill="none" stroke="#191970" d="M310.9075,-168.4509C302.9726,-149.936 285.3682,-108.8591 275.0223,-84.7187"/>
<polygon fill="#191970" stroke="#191970" points="278.2384,-83.3376 271.0821,-75.5249 271.8043,-86.0951 278.2384,-83.3376"/>
</g>
<!-- Node6 -->
<g id="node7" class="node">
<title>Node6</title>
<polygon fill="none" stroke="#bfbfbf" points="482.5,-.5 482.5,-19.5 523.5,-19.5 523.5,-.5 482.5,-.5"/>
<text text-anchor="middle" x="503" y="-7.5" font-family="Helvetica,sans-Serif" font-size="10.00" fill="#000000">string</text>
</g>
<!-- Node4&#45;&gt;Node6 -->
<g id="edge6" class="edge">
<title>Node4&#45;&gt;Node6</title>
<path fill="none" stroke="#191970" d="M346.0559,-169.2655C377.9492,-159.8165 424.8628,-144.4356 439,-132 470.8839,-103.9537 489.3254,-56.1313 497.6346,-29.4519"/>
<polygon fill="#191970" stroke="#191970" points="501.0285,-30.3171 500.5008,-19.7354 494.3145,-28.3366 501.0285,-30.3171"/>
</g>
<!-- Node7 -->
<g id="node8" class="node">
<title>Node7</title>
<g id="a_node8"><a xlink:href="StateMachine_8hpp.html" target="_top" xlink:title="StateMachine.hpp">
<polygon fill="none" stroke="#000000" points="334.5,-112.5 334.5,-131.5 429.5,-131.5 429.5,-112.5 334.5,-112.5"/>
<text text-anchor="middle" x="382" y="-119.5" font-family="Helvetica,sans-Serif" font-size="10.00" fill="#000000">StateMachine.hpp</text>
</a>
</g>
</g>
<!-- Node4&#45;&gt;Node7 -->
<g id="edge8" class="edge">
<title>Node4&#45;&gt;Node7</title>
<path fill="none" stroke="#191970" d="M326.6705,-168.2455C336.5661,-159.9746 350.9627,-147.9416 362.5901,-138.2232"/>
<polygon fill="#191970" stroke="#191970" points="365.035,-140.7413 370.4632,-131.6427 360.5458,-135.3703 365.035,-140.7413"/>
</g>
<!-- Node10 -->
<g id="node11" class="node">
<title>Node10</title>
<g id="a_node11"><a xlink:href="AssetManager_8hpp.html" target="_top" xlink:title="AssetManager.hpp">
<polygon fill="none" stroke="#000000" points="66,-112.5 66,-131.5 164,-131.5 164,-112.5 66,-112.5"/>
<text text-anchor="middle" x="115" y="-119.5" font-family="Helvetica,sans-Serif" font-size="10.00" fill="#000000">AssetManager.hpp</text>
</a>
</g>
</g>
<!-- Node4&#45;&gt;Node10 -->
<g id="edge12" class="edge">
<title>Node4&#45;&gt;Node10</title>
<path fill="none" stroke="#191970" d="M283.75,-169.25C250.1666,-159.8466 196.5326,-144.8291 158.7609,-134.2531"/>
<polygon fill="#191970" stroke="#191970" points="159.6139,-130.8574 149.0406,-131.5314 157.7265,-137.5981 159.6139,-130.8574"/>
</g>
<!-- Node12 -->
<g id="node13" class="node">
<title>Node12</title>
<g id="a_node13"><a xlink:href="InputManager_8hpp.html" target="_top" xlink:title="InputManager.hpp">
<polygon fill="none" stroke="#000000" points="182.5,-112.5 182.5,-131.5 277.5,-131.5 277.5,-112.5 182.5,-112.5"/>
<text text-anchor="middle" x="230" y="-119.5" font-family="Helvetica,sans-Serif" font-size="10.00" fill="#000000">InputManager.hpp</text>
</a>
</g>
</g>
<!-- Node4&#45;&gt;Node12 -->
<g id="edge15" class="edge">
<title>Node4&#45;&gt;Node12</title>
<path fill="none" stroke="#191970" d="M300.1941,-168.2455C287.2744,-159.7337 268.3069,-147.2375 253.3448,-137.3801"/>
<polygon fill="#191970" stroke="#191970" points="254.9124,-134.2216 244.6362,-131.6427 251.0613,-140.067 254.9124,-134.2216"/>
</g>
<!-- Node13 -->
<g id="node14" class="node">
<title>Node13</title>
<g id="a_node14"><a xlink:href="entity__manager_8h.html" target="_top" xlink:title="entity_manager.h">
<polygon fill="none" stroke="#000000" points="560,-112.5 560,-131.5 652,-131.5 652,-112.5 560,-112.5"/>
<text text-anchor="middle" x="606" y="-119.5" font-family="Helvetica,sans-Serif" font-size="10.00" fill="#000000">entity_manager.h</text>
</a>
</g>
</g>
<!-- Node4&#45;&gt;Node13 -->
<g id="edge17" class="edge">
<title>Node4&#45;&gt;Node13</title>
<path fill="none" stroke="#191970" d="M346.3986,-169.9495C349.301,-169.2661 352.2015,-168.6056 355,-168 421.4348,-153.6233 498.396,-139.9562 549.4024,-131.3123"/>
<polygon fill="#191970" stroke="#191970" points="550.2842,-134.7131 559.5629,-129.5987 549.1201,-127.8105 550.2842,-134.7131"/>
</g>
<!-- Node7&#45;&gt;Node5 -->
<g id="edge9" class="edge">
<title>Node7&#45;&gt;Node5</title>
<path fill="none" stroke="#191970" d="M362.2308,-112.3733C343.8531,-103.4241 316.2688,-89.9917 295.5107,-79.8835"/>
<polygon fill="#191970" stroke="#191970" points="297.0343,-76.7325 286.5112,-75.5011 293.9696,-83.026 297.0343,-76.7325"/>
</g>
<!-- Node8 -->
<g id="node9" class="node">
<title>Node8</title>
<polygon fill="none" stroke="#bfbfbf" points="311.5,-56.5 311.5,-75.5 352.5,-75.5 352.5,-56.5 311.5,-56.5"/>
<text text-anchor="middle" x="332" y="-63.5" font-family="Helvetica,sans-Serif" font-size="10.00" fill="#000000">stack</text>
</g>
<!-- Node7&#45;&gt;Node8 -->
<g id="edge10" class="edge">
<title>Node7&#45;&gt;Node8</title>
<path fill="none" stroke="#191970" d="M373.2907,-112.2455C366.1927,-104.2958 355.9916,-92.8706 347.505,-83.3656"/>
<polygon fill="#191970" stroke="#191970" points="349.8805,-80.771 340.6095,-75.6427 344.6589,-85.4331 349.8805,-80.771"/>
</g>
<!-- Node9 -->
<g id="node10" class="node">
<title>Node9</title>
<g id="a_node10"><a xlink:href="State_8hpp.html" target="_top" xlink:title="State.hpp">
<polygon fill="none" stroke="#000000" points="370.5,-56.5 370.5,-75.5 429.5,-75.5 429.5,-56.5 370.5,-56.5"/>
<text text-anchor="middle" x="400" y="-63.5" font-family="Helvetica,sans-Serif" font-size="10.00" fill="#000000">State.hpp</text>
</a>
</g>
</g>
<!-- Node7&#45;&gt;Node9 -->
<g id="edge11" class="edge">
<title>Node7&#45;&gt;Node9</title>
<path fill="none" stroke="#191970" d="M385.1354,-112.2455C387.51,-104.8579 390.8493,-94.4689 393.7615,-85.4087"/>
<polygon fill="#191970" stroke="#191970" points="397.1725,-86.234 396.9006,-75.6427 390.5083,-84.0919 397.1725,-86.234"/>
</g>
<!-- Node10&#45;&gt;Node2 -->
<g id="edge14" class="edge">
<title>Node10&#45;&gt;Node2</title>
<path fill="none" stroke="#191970" d="M116.8919,-112.3027C119.6546,-99.1639 125.4161,-75.1498 134,-56 138.3208,-46.3609 144.4045,-36.3602 149.8847,-28.1555"/>
<polygon fill="#191970" stroke="#191970" points="152.8754,-29.9845 155.6894,-19.7702 147.1199,-26.0002 152.8754,-29.9845"/>
</g>
<!-- Node11 -->
<g id="node12" class="node">
<title>Node11</title>
<polygon fill="none" stroke="#bfbfbf" points="143.5,-56.5 143.5,-75.5 178.5,-75.5 178.5,-56.5 143.5,-56.5"/>
<text text-anchor="middle" x="161" y="-63.5" font-family="Helvetica,sans-Serif" font-size="10.00" fill="#000000">map</text>
</g>
<!-- Node10&#45;&gt;Node11 -->
<g id="edge13" class="edge">
<title>Node10&#45;&gt;Node11</title>
<path fill="none" stroke="#191970" d="M123.0126,-112.2455C129.4768,-104.3761 138.7385,-93.101 146.4983,-83.6542"/>
<polygon fill="#191970" stroke="#191970" points="149.4364,-85.5916 153.0792,-75.6427 144.0273,-81.1484 149.4364,-85.5916"/>
</g>
<!-- Node12&#45;&gt;Node2 -->
<g id="edge16" class="edge">
<title>Node12&#45;&gt;Node2</title>
<path fill="none" stroke="#191970" d="M224.2876,-112.4509C213.1623,-93.8533 188.4192,-52.4919 174.005,-28.3964"/>
<polygon fill="#191970" stroke="#191970" points="176.8352,-26.3098 168.6979,-19.5249 170.8281,-29.9034 176.8352,-26.3098"/>
</g>
<!-- Node14 -->
<g id="node15" class="node">
<title>Node14</title>
<polygon fill="none" stroke="#bfbfbf" points="630.5,-56.5 630.5,-75.5 713.5,-75.5 713.5,-56.5 630.5,-56.5"/>
<text text-anchor="middle" x="672" y="-63.5" font-family="Helvetica,sans-Serif" font-size="10.00" fill="#000000">unordered_map</text>
</g>
<!-- Node13&#45;&gt;Node14 -->
<g id="edge18" class="edge">
<title>Node13&#45;&gt;Node14</title>
<path fill="none" stroke="#191970" d="M617.4963,-112.2455C627.2442,-103.9746 641.4259,-91.9416 652.8798,-82.2232"/>
<polygon fill="#191970" stroke="#191970" points="655.2747,-84.7813 660.6354,-75.6427 650.7459,-79.4437 655.2747,-84.7813"/>
</g>
<!-- Node15 -->
<g id="node16" class="node">
<title>Node15</title>
<polygon fill="none" stroke="#bfbfbf" points="732,-56.5 732,-75.5 776,-75.5 776,-56.5 732,-56.5"/>
<text text-anchor="middle" x="754" y="-63.5" font-family="Helvetica,sans-Serif" font-size="10.00" fill="#000000">vector</text>
</g>
<!-- Node13&#45;&gt;Node15 -->
<g id="edge19" class="edge">
<title>Node13&#45;&gt;Node15</title>
<path fill="none" stroke="#191970" d="M631.4421,-112.3733C656.6159,-102.848 695.2128,-88.2438 722.3523,-77.9748"/>
<polygon fill="#191970" stroke="#191970" points="723.6724,-81.2176 731.7866,-74.4051 721.1951,-74.6705 723.6724,-81.2176"/>
</g>
<!-- Node16 -->
<g id="node17" class="node">
<title>Node16</title>
<polygon fill="none" stroke="#bfbfbf" points="549,-.5 549,-19.5 629,-19.5 629,-.5 549,-.5"/>
<text text-anchor="middle" x="589" y="-7.5" font-family="Helvetica,sans-Serif" font-size="10.00" fill="#000000">box2d/box2d.h</text>
</g>
<!-- Node13&#45;&gt;Node16 -->
<g id="edge20" class="edge">
<title>Node13&#45;&gt;Node16</title>
<path fill="none" stroke="#191970" d="M604.5506,-112.4509C601.7779,-94.184 595.6718,-53.9553 591.9898,-29.6976"/>
<polygon fill="#191970" stroke="#191970" points="595.4069,-28.8864 590.4457,-19.5249 588.4861,-29.9369 595.4069,-28.8864"/>
</g>
<!-- Node17 -->
<g id="node18" class="node">
<title>Node17</title>
<g id="a_node18"><a xlink:href="entity_8h.html" target="_top" xlink:title="entity.h">
<polygon fill="none" stroke="#000000" points="524.5,-56.5 524.5,-75.5 573.5,-75.5 573.5,-56.5 524.5,-56.5"/>
<text text-anchor="middle" x="549" y="-63.5" font-family="Helvetica,sans-Serif" font-size="10.00" fill="#000000">entity.h</text>
</a>
</g>
</g>
<!-- Node13&#45;&gt;Node17 -->
<g id="edge21" class="edge">
<title>Node13&#45;&gt;Node17</title>
<path fill="none" stroke="#191970" d="M596.0714,-112.2455C587.8162,-104.1352 575.8791,-92.4075 566.0918,-82.7919"/>
<polygon fill="#191970" stroke="#191970" points="568.4011,-80.1542 558.8149,-75.6427 563.4954,-85.1476 568.4011,-80.1542"/>
</g>
<!-- Node17&#45;&gt;Node2 -->
<g id="edge22" class="edge">
<title>Node17&#45;&gt;Node2</title>
<path fill="none" stroke="#191970" d="M524.2668,-62.4118C464.6453,-53.762 311.5388,-31.5497 224.9949,-18.9941"/>
<polygon fill="#191970" stroke="#191970" points="225.437,-15.5217 215.0381,-17.5496 224.4319,-22.4491 225.437,-15.5217"/>
</g>
<!-- Node17&#45;&gt;Node6 -->
<g id="edge23" class="edge">
<title>Node17&#45;&gt;Node6</title>
<path fill="none" stroke="#191970" d="M540.9874,-56.2455C534.5232,-48.3761 525.2615,-37.101 517.5017,-27.6542"/>
<polygon fill="#191970" stroke="#191970" points="519.9727,-25.1484 510.9208,-19.6427 514.5636,-29.5916 519.9727,-25.1484"/>
</g>
<!-- Node17&#45;&gt;Node16 -->
<g id="edge24" class="edge">
<title>Node17&#45;&gt;Node16</title>
<path fill="none" stroke="#191970" d="M555.9675,-56.2455C561.5311,-48.4564 569.478,-37.3308 576.1829,-27.9439"/>
<polygon fill="#191970" stroke="#191970" points="579.148,-29.8144 582.1124,-19.6427 573.4519,-25.7457 579.148,-29.8144"/>
</g>
<!-- Node17&#45;&gt;Node18 -->
<g id="edge25" class="edge">
<title>Node17&#45;&gt;Node18</title>
<path fill="none" stroke="#191970" d="M573.7429,-61.559C628.2182,-51.7814 758.8042,-28.3428 823.4451,-16.7406"/>
<polygon fill="#191970" stroke="#191970" points="824.3788,-20.1291 833.6031,-14.9174 823.142,-13.2392 824.3788,-20.1291"/>
</g>
<!-- Node19&#45;&gt;Node18 -->
<g id="edge40" class="edge">
<title>Node19&#45;&gt;Node18</title>
<path fill="none" stroke="#191970" d="M649.1466,-392.3406C652.2305,-379.2448 658.4939,-355.2792 667,-336 721.8328,-211.7212 814.2363,-76.0915 848.0801,-28.0696"/>
<polygon fill="#191970" stroke="#191970" points="851.1118,-29.8449 854.0396,-19.6627 845.4011,-25.7967 851.1118,-29.8449"/>
</g>
<!-- Node20 -->
<g id="node21" class="node">
<title>Node20</title>
<g id="a_node21"><a xlink:href="GameWorld_8hpp.html" target="_top" xlink:title="GameWorld.hpp">
<polygon fill="none" stroke="#000000" points="565.5,-224.5 565.5,-243.5 652.5,-243.5 652.5,-224.5 565.5,-224.5"/>
<text text-anchor="middle" x="609" y="-231.5" font-family="Helvetica,sans-Serif" font-size="10.00" fill="#000000">GameWorld.hpp</text>
</a>
</g>
</g>
<!-- Node19&#45;&gt;Node20 -->
<g id="edge27" class="edge">
<title>Node19&#45;&gt;Node20</title>
<path fill="none" stroke="#191970" d="M643.7053,-392.21C640.6649,-382.952 636.1567,-368.6342 633,-356 624.0559,-320.2027 616.3561,-277.8192 612.2264,-253.6036"/>
<polygon fill="#191970" stroke="#191970" points="615.6484,-252.847 610.5421,-243.5639 608.7449,-254.0051 615.6484,-252.847"/>
</g>
<!-- Node19&#45;&gt;Node21 -->
<g id="edge33" class="edge">
<title>Node19&#45;&gt;Node21</title>
<path fill="none" stroke="#191970" d="M666.22,-392.3993C684.6698,-383.1562 713.3001,-368.7417 738,-356 754.9614,-347.2503 758.8185,-344.3093 776,-336 799.7824,-324.4983 827.1165,-312.4529 847.7919,-303.5744"/>
<polygon fill="#191970" stroke="#191970" points="849.2526,-306.7564 857.0735,-299.6091 846.5024,-300.3193 849.2526,-306.7564"/>
</g>
<!-- Node22 -->
<g id="node23" class="node">
<title>Node22</title>
<g id="a_node23"><a xlink:href="Gun_8hpp.html" target="_top" xlink:title="Gun.hpp">
<polygon fill="none" stroke="#000000" points="675.5,-336.5 675.5,-355.5 728.5,-355.5 728.5,-336.5 675.5,-336.5"/>
<text text-anchor="middle" x="702" y="-343.5" font-family="Helvetica,sans-Serif" font-size="10.00" fill="#000000">Gun.hpp</text>
</a>
</g>
</g>
<!-- Node19&#45;&gt;Node22 -->
<g id="edge36" class="edge">
<title>Node19&#45;&gt;Node22</title>
<path fill="none" stroke="#191970" d="M656.5803,-392.2455C664.5458,-384.1352 676.0641,-372.4075 685.5079,-362.7919"/>
<polygon fill="#191970" stroke="#191970" points="688.0195,-365.2297 692.5295,-355.6427 683.0253,-360.3247 688.0195,-365.2297"/>
</g>
<!-- Node23 -->
<g id="node24" class="node">
<title>Node23</title>
<polygon fill="none" stroke="#bfbfbf" points="785,-336.5 785,-355.5 833,-355.5 833,-336.5 785,-336.5"/>
<text text-anchor="middle" x="809" y="-343.5" font-family="Helvetica,sans-Serif" font-size="10.00" fill="#000000">stdlib.h</text>
</g>
<!-- Node19&#45;&gt;Node23 -->
<g id="edge41" class="edge">
<title>Node19&#45;&gt;Node23</title>
<path fill="none" stroke="#191970" d="M674.8488,-392.3733C702.7269,-382.7364 745.6443,-367.9007 775.398,-357.6155"/>
<polygon fill="#191970" stroke="#191970" points="776.6353,-360.8911 784.943,-354.316 774.3483,-354.2752 776.6353,-360.8911"/>
</g>
<!-- Node24 -->
<g id="node25" class="node">
<title>Node24</title>
<polygon fill="none" stroke="#bfbfbf" points="537,-336.5 537,-355.5 581,-355.5 581,-336.5 537,-336.5"/>
<text text-anchor="middle" x="559" y="-343.5" font-family="Helvetica,sans-Serif" font-size="10.00" fill="#000000">time.h</text>
</g>
<!-- Node19&#45;&gt;Node24 -->
<g id="edge42" class="edge">
<title>Node19&#45;&gt;Node24</title>
<path fill="none" stroke="#191970" d="M631.6716,-392.2455C618.1697,-383.6534 598.2878,-371.0014 582.7314,-361.1018"/>
<polygon fill="#191970" stroke="#191970" points="584.4685,-358.0587 574.1528,-355.6427 580.7103,-363.9643 584.4685,-358.0587"/>
</g>
<!-- Node25 -->
<g id="node26" class="node">
<title>Node25</title>
<polygon fill="none" stroke="#bfbfbf" points="467.5,-336.5 467.5,-355.5 518.5,-355.5 518.5,-336.5 467.5,-336.5"/>
<text text-anchor="middle" x="493" y="-343.5" font-family="Helvetica,sans-Serif" font-size="10.00" fill="#000000">unistd.h</text>
</g>
<!-- Node19&#45;&gt;Node25 -->
<g id="edge43" class="edge">
<title>Node19&#45;&gt;Node25</title>
<path fill="none" stroke="#191970" d="M620.5265,-392.3733C594.9865,-383.086 556.1683,-368.9703 528.0691,-358.7524"/>
<polygon fill="#191970" stroke="#191970" points="529.2104,-355.4433 518.6164,-355.315 526.8182,-362.0218 529.2104,-355.4433"/>
</g>
<!-- Node20&#45;&gt;Node2 -->
<g id="edge28" class="edge">
<title>Node20&#45;&gt;Node2</title>
<path fill="none" stroke="#191970" d="M603.0315,-224.2248C583.7124,-193.5281 519.4479,-98.5763 439,-56 402.8345,-36.8598 294.7456,-22.9903 225.0554,-15.7432"/>
<polygon fill="#191970" stroke="#191970" points="225.3691,-12.2571 215.065,-14.7222 224.6573,-19.2209 225.3691,-12.2571"/>
</g>
<!-- Node20&#45;&gt;Node3 -->
<g id="edge29" class="edge">
<title>Node20&#45;&gt;Node3</title>
<path fill="none" stroke="#191970" d="M575.4783,-224.3733C542.6317,-214.9404 492.4405,-200.5265 456.7422,-190.2747"/>
<polygon fill="#191970" stroke="#191970" points="457.6619,-186.8974 447.0843,-187.5011 455.7297,-193.6255 457.6619,-186.8974"/>
</g>
<!-- Node20&#45;&gt;Node4 -->
<g id="edge30" class="edge">
<title>Node20&#45;&gt;Node4</title>
<path fill="none" stroke="#191970" d="M565.2311,-226.9733C516.5575,-218.9596 435.3856,-205.0044 356.5033,-188.2249"/>
<polygon fill="#191970" stroke="#191970" points="356.909,-184.7324 346.3973,-186.0567 355.4406,-191.5767 356.909,-184.7324"/>
</g>
<!-- Node20&#45;&gt;Node13 -->
<g id="edge31" class="edge">
<title>Node20&#45;&gt;Node13</title>
<path fill="none" stroke="#191970" d="M608.7442,-224.4509C608.2549,-206.184 607.1774,-165.9553 606.5276,-141.6976"/>
<polygon fill="#191970" stroke="#191970" points="610.0217,-141.4276 606.2551,-131.5249 603.0242,-141.6151 610.0217,-141.4276"/>
</g>
<!-- Node20&#45;&gt;Node15 -->
<g id="edge32" class="edge">
<title>Node20&#45;&gt;Node15</title>
<path fill="none" stroke="#191970" d="M617.2113,-224.4862C640.7278,-197.2396 708.5863,-118.6172 738.9739,-83.4096"/>
<polygon fill="#191970" stroke="#191970" points="741.6333,-85.685 745.5176,-75.8279 736.3341,-81.1113 741.6333,-85.685"/>
</g>
<!-- Node21&#45;&gt;Node18 -->
<g id="edge35" class="edge">
<title>Node21&#45;&gt;Node18</title>
<path fill="none" stroke="#191970" d="M880,-280.4116C880,-261.0538 880,-215.9167 880,-178 880,-178 880,-178 880,-122 880,-89.2688 872.0148,-51.9052 866.3978,-29.6716"/>
<polygon fill="#191970" stroke="#191970" points="869.7289,-28.5763 863.8035,-19.7934 862.9585,-30.3545 869.7289,-28.5763"/>
</g>
<!-- Node21&#45;&gt;Node20 -->
<g id="edge34" class="edge">
<title>Node21&#45;&gt;Node20</title>
<path fill="none" stroke="#191970" d="M849.9628,-283.7931C804.8153,-274.4637 718.7883,-256.6869 662.6808,-245.0927"/>
<polygon fill="#191970" stroke="#191970" points="663.0705,-241.5994 652.569,-243.0032 661.6538,-248.4545 663.0705,-241.5994"/>
</g>
<!-- Node22&#45;&gt;Node18 -->
<g id="edge39" class="edge">
<title>Node22&#45;&gt;Node18</title>
<path fill="none" stroke="#191970" d="M710.1783,-336.3124C729.864,-312.5473 780.3703,-248.8531 809,-188 834.7354,-133.2989 850.6939,-63.0779 857.3721,-29.5339"/>
<polygon fill="#191970" stroke="#191970" points="860.8232,-30.1218 859.2819,-19.6397 853.9501,-28.7951 860.8232,-30.1218"/>
</g>
<!-- Node22&#45;&gt;Node20 -->
<g id="edge37" class="edge">
<title>Node22&#45;&gt;Node20</title>
<path fill="none" stroke="#191970" d="M694.0709,-336.4509C678.4223,-317.6054 643.3642,-275.3849 623.483,-251.4419"/>
<polygon fill="#191970" stroke="#191970" points="625.9901,-248.9824 616.9091,-243.5249 620.6047,-253.4543 625.9901,-248.9824"/>
</g>
<!-- Node22&#45;&gt;Node21 -->
<g id="edge38" class="edge">
<title>Node22&#45;&gt;Node21</title>
<path fill="none" stroke="#191970" d="M728.6484,-337.6162C758.2192,-328.3131 806.245,-313.2038 840.2586,-302.5029"/>
<polygon fill="#191970" stroke="#191970" points="841.4018,-305.8125 849.8905,-299.4727 839.301,-299.1351 841.4018,-305.8125"/>
</g>
<!-- Node26&#45;&gt;Node18 -->
<g id="edge47" class="edge">
<title>Node26&#45;&gt;Node18</title>
<path fill="none" stroke="#191970" d="M849.7987,-392.4594C862.0272,-384.0101 879.2304,-370.753 891,-356 927.2375,-310.5771 938,-292.1068 938,-234 938,-234 938,-234 938,-122 938,-82.0704 904.356,-45.9919 881.5461,-26.1198"/>
<polygon fill="#191970" stroke="#191970" points="883.6269,-23.297 873.715,-19.5547 879.1297,-28.6614 883.6269,-23.297"/>
</g>
<!-- Node26&#45;&gt;Node20 -->
<g id="edge46" class="edge">
<title>Node26&#45;&gt;Node20</title>
<path fill="none" stroke="#191970" d="M839.6795,-392.1334C845.4556,-378.3691 853.2243,-353.1664 842,-336 802.5296,-275.6342 718.577,-250.7765 662.971,-240.6902"/>
<polygon fill="#191970" stroke="#191970" points="663.3822,-237.2097 652.9352,-238.9735 662.2019,-244.1095 663.3822,-237.2097"/>
</g>
<!-- Node26&#45;&gt;Node21 -->
<g id="edge50" class="edge">
<title>Node26&#45;&gt;Node21</title>
<path fill="none" stroke="#191970" d="M846.7474,-392.4055C856.2001,-383.9234 868.8813,-370.6482 875,-356 881.09,-341.4205 882.0804,-323.4624 881.6925,-309.9611"/>
<polygon fill="#191970" stroke="#191970" points="885.1794,-309.6283 881.1241,-299.8403 878.1904,-310.0208 885.1794,-309.6283"/>
</g>
<!-- Node26&#45;&gt;Node22 -->
<g id="edge49" class="edge">
<title>Node26&#45;&gt;Node22</title>
<path fill="none" stroke="#191970" d="M812.1365,-392.3733C790.595,-383.3032 758.1162,-369.6279 734.0044,-359.4755"/>
<polygon fill="#191970" stroke="#191970" points="735.1397,-356.156 724.5652,-355.5011 732.4233,-362.6075 735.1397,-356.156"/>
</g>
<!-- Node26&#45;&gt;Node23 -->
<g id="edge48" class="edge">
<title>Node26&#45;&gt;Node23</title>
<path fill="none" stroke="#191970" d="M830.4711,-392.2455C826.9666,-384.6973 822.0073,-374.0158 817.7377,-364.8197"/>
<polygon fill="#191970" stroke="#191970" points="820.8627,-363.2389 813.477,-355.6427 814.5136,-366.1867 820.8627,-363.2389"/>
</g>
</g>
</svg>
