<?xml version="1.0" encoding="UTF-8" standalone="no"?>
<!DOCTYPE svg PUBLIC "-//W3C//DTD SVG 1.1//EN"
 "http://www.w3.org/Graphics/SVG/1.1/DTD/svg11.dtd">
<!-- Generated by graphviz version 2.40.1 (20161225.0304)
 -->
<!-- Title: /mnt/hdd/C0de/Engines/SFML/SFML_Engine/include/LoadingGameObjects.hpp Pages: 1 -->
<svg width="1041pt" height="498pt"
 viewBox="0.00 0.00 1041.03 498.00" xmlns="http://www.w3.org/2000/svg" xmlns:xlink="http://www.w3.org/1999/xlink">
<g id="graph0" class="graph" transform="scale(1 1) rotate(0) translate(4 494)">
<title>/mnt/hdd/C0de/Engines/SFML/SFML_Engine/include/LoadingGameObjects.hpp</title>
<!-- Node0 -->
<g id="node1" class="node">
<title>Node0</title>
<polygon fill="#bfbfbf" stroke="#000000" points="587.0277,-448.5 587.0277,-489.5 731.0277,-489.5 731.0277,-448.5 587.0277,-448.5"/>
<text text-anchor="start" x="595.0277" y="-477.5" font-family="Helvetica,sans-Serif" font-size="10.00" fill="#000000">/mnt/hdd/C0de/Engines</text>
<text text-anchor="start" x="595.0277" y="-466.5" font-family="Helvetica,sans-Serif" font-size="10.00" fill="#000000">/SFML/SFML_Engine/include</text>
<text text-anchor="middle" x="659.0277" y="-455.5" font-family="Helvetica,sans-Serif" font-size="10.00" fill="#000000">/LoadingGameObjects.hpp</text>
</g>
<!-- Node1 -->
<g id="node2" class="node">
<title>Node1</title>
<polygon fill="none" stroke="#bfbfbf" points="311.0277,-.5 311.0277,-19.5 415.0277,-19.5 415.0277,-.5 311.0277,-.5"/>
<text text-anchor="middle" x="363.0277" y="-7.5" font-family="Helvetica,sans-Serif" font-size="10.00" fill="#000000">SFML/Graphics.hpp</text>
</g>
<!-- Node0&#45;&gt;Node1 -->
<g id="edge1" class="edge">
<title>Node0&#45;&gt;Node1</title>
<path fill="none" stroke="#191970" d="M586.7279,-463.0067C415.7974,-447.8687 1.0277,-405.0517 1.0277,-346 1.0277,-346 1.0277,-346 1.0277,-122 1.0277,-91.4754 -3.0831,-75.9411 20.0277,-56 40.8542,-38.0299 207.4152,-22.2296 300.5444,-14.691"/>
<polygon fill="#191970" stroke="#191970" points="301.0079,-18.1652 310.6967,-13.8784 300.4493,-11.1875 301.0079,-18.1652"/>
</g>
<!-- Node2 -->
<g id="node3" class="node">
<title>Node2</title>
<g id="a_node3"><a xlink:href="DEFINITIONS_8hpp.html" target="_top" xlink:title="DEFINITIONS.hpp">
<polygon fill="none" stroke="#000000" points="390.0277,-168.5 390.0277,-187.5 490.0277,-187.5 490.0277,-168.5 390.0277,-168.5"/>
<text text-anchor="middle" x="440.0277" y="-175.5" font-family="Helvetica,sans-Serif" font-size="10.00" fill="#000000">DEFINITIONS.hpp</text>
</a>
</g>
</g>
<!-- Node0&#45;&gt;Node2 -->
<g id="edge2" class="edge">
<title>Node0&#45;&gt;Node2</title>
<path fill="none" stroke="#191970" d="M586.8025,-458.3738C524.0098,-444.565 443.0277,-413.6436 443.0277,-346 443.0277,-346 443.0277,-346 443.0277,-290 443.0277,-257.7 441.7654,-220.1791 440.8785,-197.8005"/>
<polygon fill="#191970" stroke="#191970" points="444.3664,-197.4334 440.4575,-187.5861 437.3723,-197.7217 444.3664,-197.4334"/>
</g>
<!-- Node3 -->
<g id="node4" class="node">
<title>Node3</title>
<g id="a_node4"><a xlink:href="Game_8hpp.html" target="_top" xlink:title="Game.hpp">
<polygon fill="none" stroke="#000000" points="310.0277,-168.5 310.0277,-187.5 372.0277,-187.5 372.0277,-168.5 310.0277,-168.5"/>
<text text-anchor="middle" x="341.0277" y="-175.5" font-family="Helvetica,sans-Serif" font-size="10.00" fill="#000000">Game.hpp</text>
</a>
</g>
</g>
<!-- Node0&#45;&gt;Node3 -->
<g id="edge3" class="edge">
<title>Node0&#45;&gt;Node3</title>
<path fill="none" stroke="#191970" d="M586.7509,-456.0131C547.0075,-447.0784 497.6671,-432.9701 457.0277,-412 415.4533,-390.5475 375.0277,-392.7829 375.0277,-346 375.0277,-346 375.0277,-346 375.0277,-290 375.0277,-255.9677 360.4762,-218.5293 350.4126,-196.7067"/>
<polygon fill="#191970" stroke="#191970" points="353.5216,-195.0954 346.0445,-187.5891 347.2086,-198.1198 353.5216,-195.0954"/>
</g>
<!-- Node18 -->
<g id="node19" class="node">
<title>Node18</title>
<g id="a_node19"><a xlink:href="Main__Player_8hpp.html" target="_top" xlink:title="Main_Player.hpp">
<polygon fill="none" stroke="#000000" points="614.5277,-392.5 614.5277,-411.5 703.5277,-411.5 703.5277,-392.5 614.5277,-392.5"/>
<text text-anchor="middle" x="659.0277" y="-399.5" font-family="Helvetica,sans-Serif" font-size="10.00" fill="#000000">Main_Player.hpp</text>
</a>
</g>
</g>
<!-- Node0&#45;&gt;Node18 -->
<g id="edge25" class="edge">
<title>Node0&#45;&gt;Node18</title>
<path fill="none" stroke="#191970" d="M659.0277,-448.168C659.0277,-439.8226 659.0277,-430.2471 659.0277,-421.9879"/>
<polygon fill="#191970" stroke="#191970" points="662.5278,-421.7804 659.0277,-411.7805 655.5278,-421.7805 662.5278,-421.7804"/>
</g>
<!-- Node20 -->
<g id="node21" class="node">
<title>Node20</title>
<g id="a_node21"><a xlink:href="Bullet_8hpp.html" target="_top" xlink:title="Bullet.hpp">
<polygon fill="none" stroke="#000000" points="863.0277,-280.5 863.0277,-299.5 923.0277,-299.5 923.0277,-280.5 863.0277,-280.5"/>
<text text-anchor="middle" x="893.0277" y="-287.5" font-family="Helvetica,sans-Serif" font-size="10.00" fill="#000000">Bullet.hpp</text>
</a>
</g>
</g>
<!-- Node0&#45;&gt;Node20 -->
<g id="edge43" class="edge">
<title>Node0&#45;&gt;Node20</title>
<path fill="none" stroke="#191970" d="M731.1376,-456.6464C768.527,-448.0401 813.8176,-434.0413 850.0277,-412 879.5618,-394.0224 891.0872,-388.0624 904.0277,-356 910.0655,-341.0402 906.3154,-322.8884 901.62,-309.4102"/>
<polygon fill="#191970" stroke="#191970" points="904.7389,-307.7776 897.8207,-299.7532 898.2249,-310.3404 904.7389,-307.7776"/>
</g>
<!-- Node25 -->
<g id="node26" class="node">
<title>Node25</title>
<g id="a_node26"><a xlink:href="Enemy_8hpp.html" target="_top" xlink:title="Enemy.hpp">
<polygon fill="none" stroke="#000000" points="775.0277,-392.5 775.0277,-411.5 841.0277,-411.5 841.0277,-392.5 775.0277,-392.5"/>
<text text-anchor="middle" x="808.0277" y="-399.5" font-family="Helvetica,sans-Serif" font-size="10.00" fill="#000000">Enemy.hpp</text>
</a>
</g>
</g>
<!-- Node0&#45;&gt;Node25 -->
<g id="edge44" class="edge">
<title>Node0&#45;&gt;Node25</title>
<path fill="none" stroke="#191970" d="M704.9484,-448.3511C728.4222,-437.7958 756.3577,-425.2342 777.2219,-415.8523"/>
<polygon fill="#191970" stroke="#191970" points="778.872,-418.9479 786.5569,-411.6546 776.0012,-412.5637 778.872,-418.9479"/>
</g>
<!-- Node26 -->
<g id="node27" class="node">
<title>Node26</title>
<polygon fill="none" stroke="#bfbfbf" points="977.0277,-392.5 977.0277,-411.5 1033.0277,-411.5 1033.0277,-392.5 977.0277,-392.5"/>
<text text-anchor="middle" x="1005.0277" y="-399.5" font-family="Helvetica,sans-Serif" font-size="10.00" fill="#000000">tinyxml.h</text>
</g>
<!-- Node0&#45;&gt;Node26 -->
<g id="edge50" class="edge">
<title>Node0&#45;&gt;Node26</title>
<path fill="none" stroke="#191970" d="M731.0877,-456.5023C792.8086,-445.5558 883.9807,-428.8107 963.0277,-412 964.2649,-411.7369 965.5215,-411.465 966.7895,-411.1867"/>
<polygon fill="#191970" stroke="#191970" points="967.6232,-414.5866 976.6033,-408.9644 966.0772,-407.7594 967.6232,-414.5866"/>
</g>
<!-- Node3&#45;&gt;Node1 -->
<g id="edge6" class="edge">
<title>Node3&#45;&gt;Node1</title>
<path fill="none" stroke="#191970" d="M340.6015,-168.1242C340.1749,-155.1883 339.8566,-131.8212 342.0277,-112 345.2001,-83.0366 352.7005,-50.1174 357.8225,-29.7008"/>
<polygon fill="#191970" stroke="#191970" points="361.2808,-30.3056 360.3809,-19.749 354.5012,-28.5627 361.2808,-30.3056"/>
</g>
<!-- Node4 -->
<g id="node5" class="node">
<title>Node4</title>
<polygon fill="none" stroke="#bfbfbf" points="29.0277,-56.5 29.0277,-75.5 81.0277,-75.5 81.0277,-56.5 29.0277,-56.5"/>
<text text-anchor="middle" x="55.0277" y="-63.5" font-family="Helvetica,sans-Serif" font-size="10.00" fill="#000000">memory</text>
</g>
<!-- Node3&#45;&gt;Node4 -->
<g id="edge4" class="edge">
<title>Node3&#45;&gt;Node4</title>
<path fill="none" stroke="#191970" d="M309.5604,-176.6729C246.6317,-173.3828 108.3605,-162.7592 74.0277,-132 61.1477,-120.4607 56.7634,-100.8131 55.3825,-85.9479"/>
<polygon fill="#191970" stroke="#191970" points="58.8643,-85.5191 54.821,-75.7262 51.8748,-85.9031 58.8643,-85.5191"/>
</g>
<!-- Node5 -->
<g id="node6" class="node">
<title>Node5</title>
<polygon fill="none" stroke="#bfbfbf" points="444.5277,-.5 444.5277,-19.5 485.5277,-19.5 485.5277,-.5 444.5277,-.5"/>
<text text-anchor="middle" x="465.0277" y="-7.5" font-family="Helvetica,sans-Serif" font-size="10.00" fill="#000000">string</text>
</g>
<!-- Node3&#45;&gt;Node5 -->
<g id="edge5" class="edge">
<title>Node3&#45;&gt;Node5</title>
<path fill="none" stroke="#191970" d="M372.2767,-169.5505C402.6868,-160.6508 445.7703,-146.0104 456.0277,-132 467.5418,-116.273 467.1715,-60.3804 466.0398,-30.0042"/>
<polygon fill="#191970" stroke="#191970" points="469.5249,-29.5863 465.5919,-19.7485 462.5316,-29.8917 469.5249,-29.5863"/>
</g>
<!-- Node6 -->
<g id="node7" class="node">
<title>Node6</title>
<g id="a_node7"><a xlink:href="StateMachine_8hpp.html" target="_top" xlink:title="StateMachine.hpp">
<polygon fill="none" stroke="#000000" points="83.5277,-112.5 83.5277,-131.5 178.5277,-131.5 178.5277,-112.5 83.5277,-112.5"/>
<text text-anchor="middle" x="131.0277" y="-119.5" font-family="Helvetica,sans-Serif" font-size="10.00" fill="#000000">StateMachine.hpp</text>
</a>
</g>
</g>
<!-- Node3&#45;&gt;Node6 -->
<g id="edge7" class="edge">
<title>Node3&#45;&gt;Node6</title>
<path fill="none" stroke="#191970" d="M309.5886,-169.6162C274.358,-160.2214 216.9235,-144.9055 176.7324,-134.1879"/>
<polygon fill="#191970" stroke="#191970" points="177.474,-130.7635 166.9098,-131.5686 175.6704,-137.5271 177.474,-130.7635"/>
</g>
<!-- Node9 -->
<g id="node10" class="node">
<title>Node9</title>
<g id="a_node10"><a xlink:href="AssetManager_8hpp.html" target="_top" xlink:title="AssetManager.hpp">
<polygon fill="none" stroke="#000000" points="197.0277,-112.5 197.0277,-131.5 295.0277,-131.5 295.0277,-112.5 197.0277,-112.5"/>
<text text-anchor="middle" x="246.0277" y="-119.5" font-family="Helvetica,sans-Serif" font-size="10.00" fill="#000000">AssetManager.hpp</text>
</a>
</g>
</g>
<!-- Node3&#45;&gt;Node9 -->
<g id="edge11" class="edge">
<title>Node3&#45;&gt;Node9</title>
<path fill="none" stroke="#191970" d="M324.48,-168.2455C309.7678,-159.5731 288.0389,-146.7645 271.1772,-136.825"/>
<polygon fill="#191970" stroke="#191970" points="272.7778,-133.7057 262.3858,-131.6427 269.2231,-139.736 272.7778,-133.7057"/>
</g>
<!-- Node11 -->
<g id="node12" class="node">
<title>Node11</title>
<g id="a_node12"><a xlink:href="InputManager_8hpp.html" target="_top" xlink:title="InputManager.hpp">
<polygon fill="none" stroke="#000000" points="351.5277,-112.5 351.5277,-131.5 446.5277,-131.5 446.5277,-112.5 351.5277,-112.5"/>
<text text-anchor="middle" x="399.0277" y="-119.5" font-family="Helvetica,sans-Serif" font-size="10.00" fill="#000000">InputManager.hpp</text>
</a>
</g>
</g>
<!-- Node3&#45;&gt;Node11 -->
<g id="edge14" class="edge">
<title>Node3&#45;&gt;Node11</title>
<path fill="none" stroke="#191970" d="M351.1305,-168.2455C359.5305,-160.1352 371.6771,-148.4075 381.6361,-138.7919"/>
<polygon fill="#191970" stroke="#191970" points="384.2777,-141.1066 389.0406,-131.6427 379.4155,-136.0707 384.2777,-141.1066"/>
</g>
<!-- Node12 -->
<g id="node13" class="node">
<title>Node12</title>
<g id="a_node13"><a xlink:href="entity__manager_8h.html" target="_top" xlink:title="entity_manager.h">
<polygon fill="none" stroke="#000000" points="543.0277,-112.5 543.0277,-131.5 635.0277,-131.5 635.0277,-112.5 543.0277,-112.5"/>
<text text-anchor="middle" x="589.0277" y="-119.5" font-family="Helvetica,sans-Serif" font-size="10.00" fill="#000000">entity_manager.h</text>
</a>
</g>
</g>
<!-- Node3&#45;&gt;Node12 -->
<g id="edge16" class="edge">
<title>Node3&#45;&gt;Node12</title>
<path fill="none" stroke="#191970" d="M372.4508,-170.0581C375.3481,-169.3519 378.2407,-168.6564 381.0277,-168 432.9079,-155.7806 492.295,-142.7409 534.295,-133.677"/>
<polygon fill="#191970" stroke="#191970" points="535.2766,-137.0459 544.3154,-131.5187 533.8026,-130.2028 535.2766,-137.0459"/>
</g>
<!-- Node6&#45;&gt;Node4 -->
<g id="edge8" class="edge">
<title>Node6&#45;&gt;Node4</title>
<path fill="none" stroke="#191970" d="M117.7895,-112.2455C106.3467,-103.814 89.5981,-91.4729 76.2802,-81.6598"/>
<polygon fill="#191970" stroke="#191970" points="78.241,-78.757 68.1142,-75.6427 74.0885,-84.3924 78.241,-78.757"/>
</g>
<!-- Node7 -->
<g id="node8" class="node">
<title>Node7</title>
<polygon fill="none" stroke="#bfbfbf" points="176.5277,-56.5 176.5277,-75.5 217.5277,-75.5 217.5277,-56.5 176.5277,-56.5"/>
<text text-anchor="middle" x="197.0277" y="-63.5" font-family="Helvetica,sans-Serif" font-size="10.00" fill="#000000">stack</text>
</g>
<!-- Node6&#45;&gt;Node7 -->
<g id="edge9" class="edge">
<title>Node6&#45;&gt;Node7</title>
<path fill="none" stroke="#191970" d="M142.524,-112.2455C152.2719,-103.9746 166.4536,-91.9416 177.9075,-82.2232"/>
<polygon fill="#191970" stroke="#191970" points="180.3024,-84.7813 185.6631,-75.6427 175.7736,-79.4437 180.3024,-84.7813"/>
</g>
<!-- Node8 -->
<g id="node9" class="node">
<title>Node8</title>
<g id="a_node9"><a xlink:href="State_8hpp.html" target="_top" xlink:title="State.hpp">
<polygon fill="none" stroke="#000000" points="99.5277,-56.5 99.5277,-75.5 158.5277,-75.5 158.5277,-56.5 99.5277,-56.5"/>
<text text-anchor="middle" x="129.0277" y="-63.5" font-family="Helvetica,sans-Serif" font-size="10.00" fill="#000000">State.hpp</text>
</a>
</g>
</g>
<!-- Node6&#45;&gt;Node8 -->
<g id="edge10" class="edge">
<title>Node6&#45;&gt;Node8</title>
<path fill="none" stroke="#191970" d="M130.6793,-112.2455C130.4183,-104.9382 130.0525,-94.6944 129.7314,-85.7046"/>
<polygon fill="#191970" stroke="#191970" points="133.2268,-85.5113 129.3721,-75.6427 126.2313,-85.7613 133.2268,-85.5113"/>
</g>
<!-- Node9&#45;&gt;Node1 -->
<g id="edge13" class="edge">
<title>Node9&#45;&gt;Node1</title>
<path fill="none" stroke="#191970" d="M246.3748,-112.321C247.3653,-98.3257 251.1009,-72.3306 265.0277,-56 277.9933,-40.7964 297.0912,-30.2873 314.9921,-23.1955"/>
<polygon fill="#191970" stroke="#191970" points="316.5908,-26.3368 324.7673,-19.5991 314.1738,-19.7673 316.5908,-26.3368"/>
</g>
<!-- Node10 -->
<g id="node11" class="node">
<title>Node10</title>
<polygon fill="none" stroke="#bfbfbf" points="274.5277,-56.5 274.5277,-75.5 309.5277,-75.5 309.5277,-56.5 274.5277,-56.5"/>
<text text-anchor="middle" x="292.0277" y="-63.5" font-family="Helvetica,sans-Serif" font-size="10.00" fill="#000000">map</text>
</g>
<!-- Node9&#45;&gt;Node10 -->
<g id="edge12" class="edge">
<title>Node9&#45;&gt;Node10</title>
<path fill="none" stroke="#191970" d="M254.0403,-112.2455C260.5044,-104.3761 269.7661,-93.101 277.526,-83.6542"/>
<polygon fill="#191970" stroke="#191970" points="280.464,-85.5916 284.1069,-75.6427 275.0549,-81.1484 280.464,-85.5916"/>
</g>
<!-- Node11&#45;&gt;Node1 -->
<g id="edge15" class="edge">
<title>Node11&#45;&gt;Node1</title>
<path fill="none" stroke="#191970" d="M395.9583,-112.4509C390.0602,-94.1013 377.039,-53.5908 369.2535,-29.3693"/>
<polygon fill="#191970" stroke="#191970" points="372.4815,-27.9741 366.0893,-19.5249 365.8173,-30.1162 372.4815,-27.9741"/>
</g>
<!-- Node13 -->
<g id="node14" class="node">
<title>Node13</title>
<polygon fill="none" stroke="#bfbfbf" points="547.5277,-56.5 547.5277,-75.5 630.5277,-75.5 630.5277,-56.5 547.5277,-56.5"/>
<text text-anchor="middle" x="589.0277" y="-63.5" font-family="Helvetica,sans-Serif" font-size="10.00" fill="#000000">unordered_map</text>
</g>
<!-- Node12&#45;&gt;Node13 -->
<g id="edge17" class="edge">
<title>Node12&#45;&gt;Node13</title>
<path fill="none" stroke="#191970" d="M589.0277,-112.2455C589.0277,-104.9382 589.0277,-94.6944 589.0277,-85.7046"/>
<polygon fill="#191970" stroke="#191970" points="592.5278,-85.6426 589.0277,-75.6427 585.5278,-85.6427 592.5278,-85.6426"/>
</g>
<!-- Node14 -->
<g id="node15" class="node">
<title>Node14</title>
<polygon fill="none" stroke="#bfbfbf" points="687.0277,-56.5 687.0277,-75.5 731.0277,-75.5 731.0277,-56.5 687.0277,-56.5"/>
<text text-anchor="middle" x="709.0277" y="-63.5" font-family="Helvetica,sans-Serif" font-size="10.00" fill="#000000">vector</text>
</g>
<!-- Node12&#45;&gt;Node14 -->
<g id="edge18" class="edge">
<title>Node12&#45;&gt;Node14</title>
<path fill="none" stroke="#191970" d="M609.6564,-112.3733C628.9195,-103.3838 657.8763,-89.8706 679.5696,-79.7471"/>
<polygon fill="#191970" stroke="#191970" points="681.0864,-82.9017 688.6681,-75.5011 678.1262,-76.5584 681.0864,-82.9017"/>
</g>
<!-- Node15 -->
<g id="node16" class="node">
<title>Node15</title>
<polygon fill="none" stroke="#bfbfbf" points="555.0277,-.5 555.0277,-19.5 635.0277,-19.5 635.0277,-.5 555.0277,-.5"/>
<text text-anchor="middle" x="595.0277" y="-7.5" font-family="Helvetica,sans-Serif" font-size="10.00" fill="#000000">box2d/box2d.h</text>
</g>
<!-- Node12&#45;&gt;Node15 -->
<g id="edge19" class="edge">
<title>Node12&#45;&gt;Node15</title>
<path fill="none" stroke="#191970" d="M605.765,-112.2988C617.7861,-104.2823 633.0507,-91.6887 640.0277,-76 648.2059,-57.6102 632.6501,-38.8602 617.6415,-26.0683"/>
<polygon fill="#191970" stroke="#191970" points="619.5217,-23.0921 609.5138,-19.6147 615.1689,-28.5742 619.5217,-23.0921"/>
</g>
<!-- Node16 -->
<g id="node17" class="node">
<title>Node16</title>
<g id="a_node17"><a xlink:href="entity_8h.html" target="_top" xlink:title="entity.h">
<polygon fill="none" stroke="#000000" points="480.5277,-56.5 480.5277,-75.5 529.5277,-75.5 529.5277,-56.5 480.5277,-56.5"/>
<text text-anchor="middle" x="505.0277" y="-63.5" font-family="Helvetica,sans-Serif" font-size="10.00" fill="#000000">entity.h</text>
</a>
</g>
</g>
<!-- Node12&#45;&gt;Node16 -->
<g id="edge20" class="edge">
<title>Node12&#45;&gt;Node16</title>
<path fill="none" stroke="#191970" d="M574.396,-112.2455C561.6283,-103.7337 542.8839,-91.2375 528.0978,-81.3801"/>
<polygon fill="#191970" stroke="#191970" points="529.7537,-78.2775 519.4917,-75.6427 525.8708,-84.1019 529.7537,-78.2775"/>
</g>
<!-- Node16&#45;&gt;Node1 -->
<g id="edge21" class="edge">
<title>Node16&#45;&gt;Node1</title>
<path fill="none" stroke="#191970" d="M480.617,-56.3733C457.4134,-47.2226 422.3239,-33.3844 396.5135,-23.2057"/>
<polygon fill="#191970" stroke="#191970" points="397.7066,-19.9139 387.1198,-19.5011 395.1385,-26.4258 397.7066,-19.9139"/>
</g>
<!-- Node16&#45;&gt;Node5 -->
<g id="edge22" class="edge">
<title>Node16&#45;&gt;Node5</title>
<path fill="none" stroke="#191970" d="M498.0602,-56.2455C492.4966,-48.4564 484.5497,-37.3308 477.8448,-27.9439"/>
<polygon fill="#191970" stroke="#191970" points="480.5758,-25.7457 471.9153,-19.6427 474.8797,-29.8144 480.5758,-25.7457"/>
</g>
<!-- Node16&#45;&gt;Node15 -->
<g id="edge23" class="edge">
<title>Node16&#45;&gt;Node15</title>
<path fill="none" stroke="#191970" d="M520.7045,-56.2455C534.5133,-47.6534 554.8469,-35.0014 570.7569,-25.1018"/>
<polygon fill="#191970" stroke="#191970" points="572.889,-27.8974 579.5305,-19.6427 569.1909,-21.954 572.889,-27.8974"/>
</g>
<!-- Node17 -->
<g id="node18" class="node">
<title>Node17</title>
<polygon fill="none" stroke="#bfbfbf" points="770.0277,-.5 770.0277,-19.5 824.0277,-19.5 824.0277,-.5 770.0277,-.5"/>
<text text-anchor="middle" x="797.0277" y="-7.5" font-family="Helvetica,sans-Serif" font-size="10.00" fill="#000000">iostream</text>
</g>
<!-- Node16&#45;&gt;Node17 -->
<g id="edge24" class="edge">
<title>Node16&#45;&gt;Node17</title>
<path fill="none" stroke="#191970" d="M529.8263,-58.3651C532.9114,-57.5162 536.0332,-56.7051 539.0277,-56 616.7582,-37.6977 709.1784,-22.8691 759.6077,-15.3542"/>
<polygon fill="#191970" stroke="#191970" points="760.3293,-18.7857 769.711,-13.863 759.3071,-11.8607 760.3293,-18.7857"/>
</g>
<!-- Node18&#45;&gt;Node17 -->
<g id="edge39" class="edge">
<title>Node18&#45;&gt;Node17</title>
<path fill="none" stroke="#191970" d="M661.6477,-392.0947C665.1304,-379.1269 671.5969,-355.7254 678.0277,-336 716.4783,-218.0591 770.0545,-78.9583 789.5546,-29.0237"/>
<polygon fill="#191970" stroke="#191970" points="792.8905,-30.1034 793.2772,-19.5156 786.3723,-27.5513 792.8905,-30.1034"/>
</g>
<!-- Node19 -->
<g id="node20" class="node">
<title>Node19</title>
<g id="a_node20"><a xlink:href="GameWorld_8hpp.html" target="_top" xlink:title="GameWorld.hpp">
<polygon fill="none" stroke="#000000" points="545.5277,-224.5 545.5277,-243.5 632.5277,-243.5 632.5277,-224.5 545.5277,-224.5"/>
<text text-anchor="middle" x="589.0277" y="-231.5" font-family="Helvetica,sans-Serif" font-size="10.00" fill="#000000">GameWorld.hpp</text>
</a>
</g>
</g>
<!-- Node18&#45;&gt;Node19 -->
<g id="edge26" class="edge">
<title>Node18&#45;&gt;Node19</title>
<path fill="none" stroke="#191970" d="M614.405,-394.3221C574.9356,-386.5141 521.6986,-373.1391 509.0277,-356 481.7767,-319.1395 533.0416,-273.4211 565.4257,-249.7925"/>
<polygon fill="#191970" stroke="#191970" points="567.8376,-252.3734 573.9781,-243.7395 563.7937,-246.6597 567.8376,-252.3734"/>
</g>
<!-- Node18&#45;&gt;Node20 -->
<g id="edge32" class="edge">
<title>Node18&#45;&gt;Node20</title>
<path fill="none" stroke="#191970" d="M703.6071,-394.1947C736.1443,-387.2742 780.5718,-375.2236 816.0277,-356 839.7963,-343.1131 862.756,-321.9383 877.3247,-307.0557"/>
<polygon fill="#191970" stroke="#191970" points="880.1365,-309.1789 884.5071,-299.5275 875.0717,-304.3468 880.1365,-309.1789"/>
</g>
<!-- Node21 -->
<g id="node22" class="node">
<title>Node21</title>
<g id="a_node22"><a xlink:href="Gun_8hpp.html" target="_top" xlink:title="Gun.hpp">
<polygon fill="none" stroke="#000000" points="753.5277,-336.5 753.5277,-355.5 806.5277,-355.5 806.5277,-336.5 753.5277,-336.5"/>
<text text-anchor="middle" x="780.0277" y="-343.5" font-family="Helvetica,sans-Serif" font-size="10.00" fill="#000000">Gun.hpp</text>
</a>
</g>
</g>
<!-- Node18&#45;&gt;Node21 -->
<g id="edge35" class="edge">
<title>Node18&#45;&gt;Node21</title>
<path fill="none" stroke="#191970" d="M679.8283,-392.3733C699.252,-383.3838 728.4501,-369.8706 750.3241,-359.7471"/>
<polygon fill="#191970" stroke="#191970" points="751.8933,-362.8776 759.4985,-355.5011 748.9532,-356.5249 751.8933,-362.8776"/>
</g>
<!-- Node22 -->
<g id="node23" class="node">
<title>Node22</title>
<polygon fill="none" stroke="#bfbfbf" points="687.0277,-336.5 687.0277,-355.5 735.0277,-355.5 735.0277,-336.5 687.0277,-336.5"/>
<text text-anchor="middle" x="711.0277" y="-343.5" font-family="Helvetica,sans-Serif" font-size="10.00" fill="#000000">stdlib.h</text>
</g>
<!-- Node18&#45;&gt;Node22 -->
<g id="edge40" class="edge">
<title>Node18&#45;&gt;Node22</title>
<path fill="none" stroke="#191970" d="M668.0854,-392.2455C675.5418,-384.2155 686.2911,-372.6394 695.1694,-363.0781"/>
<polygon fill="#191970" stroke="#191970" points="697.834,-365.3522 702.0738,-355.6427 692.7044,-360.589 697.834,-365.3522"/>
</g>
<!-- Node23 -->
<g id="node24" class="node">
<title>Node23</title>
<polygon fill="none" stroke="#bfbfbf" points="587.0277,-336.5 587.0277,-355.5 631.0277,-355.5 631.0277,-336.5 587.0277,-336.5"/>
<text text-anchor="middle" x="609.0277" y="-343.5" font-family="Helvetica,sans-Serif" font-size="10.00" fill="#000000">time.h</text>
</g>
<!-- Node18&#45;&gt;Node23 -->
<g id="edge41" class="edge">
<title>Node18&#45;&gt;Node23</title>
<path fill="none" stroke="#191970" d="M650.3184,-392.2455C643.2204,-384.2958 633.0193,-372.8706 624.5327,-363.3656"/>
<polygon fill="#191970" stroke="#191970" points="626.9082,-360.771 617.6372,-355.6427 621.6866,-365.4331 626.9082,-360.771"/>
</g>
<!-- Node24 -->
<g id="node25" class="node">
<title>Node24</title>
<polygon fill="none" stroke="#bfbfbf" points="517.5277,-336.5 517.5277,-355.5 568.5277,-355.5 568.5277,-336.5 517.5277,-336.5"/>
<text text-anchor="middle" x="543.0277" y="-343.5" font-family="Helvetica,sans-Serif" font-size="10.00" fill="#000000">unistd.h</text>
</g>
<!-- Node18&#45;&gt;Node24 -->
<g id="edge42" class="edge">
<title>Node18&#45;&gt;Node24</title>
<path fill="none" stroke="#191970" d="M639.0866,-392.3733C620.5491,-383.4241 592.7249,-369.9917 571.7864,-359.8835"/>
<polygon fill="#191970" stroke="#191970" points="573.2358,-356.6967 562.7086,-355.5011 570.1925,-363.0006 573.2358,-356.6967"/>
</g>
<!-- Node19&#45;&gt;Node1 -->
<g id="edge27" class="edge">
<title>Node19&#45;&gt;Node1</title>
<path fill="none" stroke="#191970" d="M579.3168,-224.375C544.3274,-189.6953 424.4338,-70.8627 379.8785,-26.7017"/>
<polygon fill="#191970" stroke="#191970" points="382.2688,-24.1429 372.7024,-19.5891 377.341,-29.1146 382.2688,-24.1429"/>
</g>
<!-- Node19&#45;&gt;Node2 -->
<g id="edge28" class="edge">
<title>Node19&#45;&gt;Node2</title>
<path fill="none" stroke="#191970" d="M563.4137,-224.3733C538.959,-215.1822 501.9223,-201.2624 474.8068,-191.0713"/>
<polygon fill="#191970" stroke="#191970" points="475.8995,-187.7431 465.3075,-187.5011 473.4368,-194.2956 475.8995,-187.7431"/>
</g>
<!-- Node19&#45;&gt;Node3 -->
<g id="edge29" class="edge">
<title>Node19&#45;&gt;Node3</title>
<path fill="none" stroke="#191970" d="M545.5257,-224.7414C505.529,-216.1477 444.3338,-202.7962 382.3949,-188.281"/>
<polygon fill="#191970" stroke="#191970" points="382.9866,-184.8247 372.4508,-185.9419 381.3838,-191.6387 382.9866,-184.8247"/>
</g>
<!-- Node19&#45;&gt;Node12 -->
<g id="edge30" class="edge">
<title>Node19&#45;&gt;Node12</title>
<path fill="none" stroke="#191970" d="M589.0277,-224.4509C589.0277,-206.184 589.0277,-165.9553 589.0277,-141.6976"/>
<polygon fill="#191970" stroke="#191970" points="592.5278,-141.5249 589.0277,-131.5249 585.5278,-141.5249 592.5278,-141.5249"/>
</g>
<!-- Node19&#45;&gt;Node14 -->
<g id="edge31" class="edge">
<title>Node19&#45;&gt;Node14</title>
<path fill="none" stroke="#191970" d="M595.8232,-224.4862C615.1209,-197.4695 670.4988,-119.9405 695.949,-84.3102"/>
<polygon fill="#191970" stroke="#191970" points="699.0434,-85.9996 702.0078,-75.8279 693.3473,-81.9309 699.0434,-85.9996"/>
</g>
<!-- Node20&#45;&gt;Node17 -->
<g id="edge34" class="edge">
<title>Node20&#45;&gt;Node17</title>
<path fill="none" stroke="#191970" d="M888.7486,-280.3307C880.6818,-261.1936 864.0277,-216.9662 864.0277,-178 864.0277,-178 864.0277,-178 864.0277,-122 864.0277,-83.7946 834.9608,-47.3286 815.1175,-26.8854"/>
<polygon fill="#191970" stroke="#191970" points="817.3586,-24.1788 807.7924,-19.6248 812.4307,-29.1503 817.3586,-24.1788"/>
</g>
<!-- Node20&#45;&gt;Node19 -->
<g id="edge33" class="edge">
<title>Node20&#45;&gt;Node19</title>
<path fill="none" stroke="#191970" d="M862.7724,-282.9216C858.1754,-281.9047 853.4813,-280.8995 849.0277,-280 778.0482,-265.6639 695.6666,-251.505 642.9814,-242.7634"/>
<polygon fill="#191970" stroke="#191970" points="643.2894,-239.2669 632.8525,-241.0889 642.1476,-246.1732 643.2894,-239.2669"/>
</g>
<!-- Node21&#45;&gt;Node17 -->
<g id="edge38" class="edge">
<title>Node21&#45;&gt;Node17</title>
<path fill="none" stroke="#191970" d="M782.4634,-336.4856C787.164,-317.2608 797.0277,-272.351 797.0277,-234 797.0277,-234 797.0277,-234 797.0277,-122 797.0277,-89.7116 797.0277,-52.1872 797.0277,-29.8048"/>
<polygon fill="#191970" stroke="#191970" points="800.5278,-29.5883 797.0277,-19.5884 793.5278,-29.5884 800.5278,-29.5883"/>
</g>
<!-- Node21&#45;&gt;Node19 -->
<g id="edge36" class="edge">
<title>Node21&#45;&gt;Node19</title>
<path fill="none" stroke="#191970" d="M763.7431,-336.4509C730.3361,-316.8615 653.8572,-272.0152 614.0871,-248.6945"/>
<polygon fill="#191970" stroke="#191970" points="615.6678,-245.5641 605.271,-243.5249 612.1269,-251.6025 615.6678,-245.5641"/>
</g>
<!-- Node21&#45;&gt;Node20 -->
<g id="edge37" class="edge">
<title>Node21&#45;&gt;Node20</title>
<path fill="none" stroke="#191970" d="M799.4531,-336.3733C817.4298,-327.4644 844.3718,-314.1127 864.7367,-304.0203"/>
<polygon fill="#191970" stroke="#191970" points="866.4499,-307.0776 873.8558,-299.5011 863.3415,-300.8055 866.4499,-307.0776"/>
</g>
<!-- Node25&#45;&gt;Node17 -->
<g id="edge46" class="edge">
<title>Node25&#45;&gt;Node17</title>
<path fill="none" stroke="#191970" d="M841.2767,-396.6677C893.0422,-386.2603 987.0277,-358.0011 987.0277,-290 987.0277,-290 987.0277,-290 987.0277,-122 987.0277,-51.8542 889.7321,-24.7477 834.3902,-15.0032"/>
<polygon fill="#191970" stroke="#191970" points="834.6867,-11.5049 824.2501,-13.3286 833.5461,-18.4113 834.6867,-11.5049"/>
</g>
<!-- Node25&#45;&gt;Node19 -->
<g id="edge45" class="edge">
<title>Node25&#45;&gt;Node19</title>
<path fill="none" stroke="#191970" d="M812.8612,-392.1886C818.851,-378.49 827.0079,-353.3648 816.0277,-336 778.4993,-276.6498 697.1287,-251.5469 642.7096,-241.1277"/>
<polygon fill="#191970" stroke="#191970" points="643.0056,-237.6246 632.5426,-239.291 641.761,-244.5131 643.0056,-237.6246"/>
</g>
<!-- Node25&#45;&gt;Node20 -->
<g id="edge49" class="edge">
<title>Node25&#45;&gt;Node20</title>
<path fill="none" stroke="#191970" d="M838.151,-392.3516C855.4344,-385.1709 875.8593,-373.5365 887.0277,-356 895.7084,-342.3696 896.6699,-323.8289 895.7695,-309.8689"/>
<polygon fill="#191970" stroke="#191970" points="899.2437,-309.4359 894.76,-299.8366 892.2788,-310.1368 899.2437,-309.4359"/>
</g>
<!-- Node25&#45;&gt;Node21 -->
<g id="edge48" class="edge">
<title>Node25&#45;&gt;Node21</title>
<path fill="none" stroke="#191970" d="M803.1505,-392.2455C799.3764,-384.6973 794.0356,-374.0158 789.4376,-364.8197"/>
<polygon fill="#191970" stroke="#191970" points="792.4517,-363.0217 784.849,-355.6427 786.1907,-366.1522 792.4517,-363.0217"/>
</g>
<!-- Node25&#45;&gt;Node22 -->
<g id="edge47" class="edge">
<title>Node25&#45;&gt;Node22</title>
<path fill="none" stroke="#191970" d="M791.1316,-392.2455C776.1097,-383.5731 753.9234,-370.7645 736.7067,-360.825"/>
<polygon fill="#191970" stroke="#191970" points="738.1405,-357.6114 727.7302,-355.6427 734.6406,-363.6737 738.1405,-357.6114"/>
</g>
</g>
</svg>
