<?xml version="1.0" encoding="UTF-8" standalone="no"?>
<!DOCTYPE svg PUBLIC "-//W3C//DTD SVG 1.1//EN"
 "http://www.w3.org/Graphics/SVG/1.1/DTD/svg11.dtd">
<!-- Generated by graphviz version 2.40.1 (20161225.0304)
 -->
<!-- Title: /mnt/hdd/C0de/Engines/SFML/SFML_Engine/include/MainMenuState.hpp Pages: 1 -->
<!--zoomable 554 -->
<svg id="main" version="1.1" xmlns="http://www.w3.org/2000/svg" xmlns:xlink="http://www.w3.org/1999/xlink" xml:space="preserve" onload="init(evt)">
<style type="text/css"><![CDATA[
.edge:hover path { stroke: red; }
.edge:hover polygon { stroke: red; fill: red; }
]]></style>
<script type="text/javascript"><![CDATA[
var edges = document.getElementsByTagName('g');
if (edges && edges.length) {
  for (var i=0;i<edges.length;i++) {
    if (edges[i].id.substr(0,4)=='edge') {
      edges[i].setAttribute('class','edge');
    }
  }
}
]]></script>
        <defs>
                <circle id="rim" cx="0" cy="0" r="7"/>
                <circle id="rim2" cx="0" cy="0" r="3.5"/>
                <g id="zoomPlus">
                        <use xlink:href="#rim" fill="#404040">
                                <set attributeName="fill" to="#808080" begin="zoomplus.mouseover" end="zoomplus.mouseout"/>
                        </use>
                        <path d="M-4,0h8M0,-4v8" fill="none" stroke="white" stroke-width="1.5" pointer-events="none"/>
                </g>
                <g id="zoomMin">
                        <use xlink:href="#rim" fill="#404040">
                                <set attributeName="fill" to="#808080" begin="zoomminus.mouseover" end="zoomminus.mouseout"/>
                        </use>
                        <path d="M-4,0h8" fill="none" stroke="white" stroke-width="1.5" pointer-events="none"/>
                </g>
                <g id="dirArrow">
                        <path fill="none" stroke="white" stroke-width="1.5" d="M0,-3.0v7 M-2.5,-0.5L0,-3.0L2.5,-0.5"/>
                </g>
               <g id="resetDef">
                       <use xlink:href="#rim2" fill="#404040">
                               <set attributeName="fill" to="#808080" begin="reset.mouseover" end="reset.mouseout"/>
                       </use>
               </g>
        </defs>

<script type="text/javascript">
var viewWidth = 1393;
var viewHeight = 554;
var sectionId = 'dynsection-0';
</script>
<script xlink:href="svgpan.js"/>
<svg id="graph" class="graph">
<g id="viewport">
<title>/mnt/hdd/C0de/Engines/SFML/SFML_Engine/include/MainMenuState.hpp</title>
<!-- Node0 -->
<g id="node1" class="node">
<title>Node0</title>
<polygon fill="#bfbfbf" stroke="#000000" points="848.0729,-504.5 848.0729,-545.5 992.0729,-545.5 992.0729,-504.5 848.0729,-504.5"/>
<text text-anchor="start" x="856.0729" y="-533.5" font-family="Helvetica,sans-Serif" font-size="10.00" fill="#000000">/mnt/hdd/C0de/Engines</text>
<text text-anchor="start" x="856.0729" y="-522.5" font-family="Helvetica,sans-Serif" font-size="10.00" fill="#000000">/SFML/SFML_Engine/include</text>
<text text-anchor="middle" x="920.0729" y="-511.5" font-family="Helvetica,sans-Serif" font-size="10.00" fill="#000000">/MainMenuState.hpp</text>
</g>
<!-- Node1 -->
<g id="node2" class="node">
<title>Node1</title>
<polygon fill="none" stroke="#bfbfbf" points="366.0729,-.5 366.0729,-19.5 470.0729,-19.5 470.0729,-.5 366.0729,-.5"/>
<text text-anchor="middle" x="418.0729" y="-7.5" font-family="Helvetica,sans-Serif" font-size="10.00" fill="#000000">SFML/Graphics.hpp</text>
</g>
<!-- Node0&#45;&gt;Node1 -->
<g id="edge1" class="edge">
<title>Node0&#45;&gt;Node1</title>
<path fill="none" stroke="#191970" d="M847.8624,-522.9603C681.7712,-517.7409 276.7993,-501.8584 145.0729,-468 76.8873,-450.4739 1.0729,-472.402 1.0729,-402 1.0729,-402 1.0729,-402 1.0729,-122 1.0729,-91.4754 -3.2188,-75.7294 20.0729,-56 45.1455,-34.7622 250.0417,-19.8148 355.6402,-13.4424"/>
<polygon fill="#191970" stroke="#191970" points="356.0745,-16.9228 365.8487,-12.8344 355.6583,-9.9352 356.0745,-16.9228"/>
</g>
<!-- Node2 -->
<g id="node3" class="node">
<title>Node2</title>
<polygon fill="none" stroke="#bfbfbf" points="1176.5729,-448.5 1176.5729,-467.5 1265.5729,-467.5 1265.5729,-448.5 1176.5729,-448.5"/>
<text text-anchor="middle" x="1221.0729" y="-455.5" font-family="Helvetica,sans-Serif" font-size="10.00" fill="#000000">SFML/Audio.hpp</text>
</g>
<!-- Node0&#45;&gt;Node2 -->
<g id="edge2" class="edge">
<title>Node0&#45;&gt;Node2</title>
<path fill="none" stroke="#191970" d="M992.1699,-508.9518C1046.4024,-496.8801 1119.4796,-480.6138 1168.3324,-469.7396"/>
<polygon fill="#191970" stroke="#191970" points="1169.3732,-473.0937 1178.3738,-467.5045 1167.8522,-466.2609 1169.3732,-473.0937"/>
</g>
<!-- Node3 -->
<g id="node4" class="node">
<title>Node3</title>
<g id="a_node4"><a xlink:href="State_8hpp.html" target="_top" xlink:title="State.hpp">
<polygon fill="none" stroke="#000000" points="29.5729,-56.5 29.5729,-75.5 88.5729,-75.5 88.5729,-56.5 29.5729,-56.5"/>
<text text-anchor="middle" x="59.0729" y="-63.5" font-family="Helvetica,sans-Serif" font-size="10.00" fill="#000000">State.hpp</text>
</a>
</g>
</g>
<!-- Node0&#45;&gt;Node3 -->
<g id="edge3" class="edge">
<title>Node0&#45;&gt;Node3</title>
<path fill="none" stroke="#191970" d="M847.7764,-522.2394C640.5217,-513.3712 59.0729,-481.4149 59.0729,-402 59.0729,-402 59.0729,-402 59.0729,-178 59.0729,-145.7116 59.0729,-108.1872 59.0729,-85.8048"/>
<polygon fill="#191970" stroke="#191970" points="62.573,-85.5883 59.0729,-75.5884 55.573,-85.5884 62.573,-85.5883"/>
</g>
<!-- Node4 -->
<g id="node5" class="node">
<title>Node4</title>
<g id="a_node5"><a xlink:href="Game_8hpp.html" target="_top" xlink:title="Game.hpp">
<polygon fill="none" stroke="#000000" points="411.0729,-168.5 411.0729,-187.5 473.0729,-187.5 473.0729,-168.5 411.0729,-168.5"/>
<text text-anchor="middle" x="442.0729" y="-175.5" font-family="Helvetica,sans-Serif" font-size="10.00" fill="#000000">Game.hpp</text>
</a>
</g>
</g>
<!-- Node0&#45;&gt;Node4 -->
<g id="edge4" class="edge">
<title>Node0&#45;&gt;Node4</title>
<path fill="none" stroke="#191970" d="M847.9307,-521.2542C715.0509,-512.3697 445.0729,-484.2037 445.0729,-402 445.0729,-402 445.0729,-402 445.0729,-290 445.0729,-257.7 443.8107,-220.1791 442.9237,-197.8005"/>
<polygon fill="#191970" stroke="#191970" points="446.4116,-197.4334 442.5028,-187.5861 439.4176,-197.7217 446.4116,-197.4334"/>
</g>
<!-- Node17 -->
<g id="node18" class="node">
<title>Node17</title>
<polygon fill="none" stroke="#bfbfbf" points="929.0729,-.5 929.0729,-19.5 983.0729,-19.5 983.0729,-.5 929.0729,-.5"/>
<text text-anchor="middle" x="956.0729" y="-7.5" font-family="Helvetica,sans-Serif" font-size="10.00" fill="#000000">iostream</text>
</g>
<!-- Node0&#45;&gt;Node17 -->
<g id="edge57" class="edge">
<title>Node0&#45;&gt;Node17</title>
<path fill="none" stroke="#191970" d="M992.2136,-516.4408C1059.0104,-504.0181 1148.0729,-473.9616 1148.0729,-402 1148.0729,-402 1148.0729,-402 1148.0729,-122 1148.0729,-50.9768 1048.837,-24.1868 993.0516,-14.7378"/>
<polygon fill="#191970" stroke="#191970" points="993.6,-11.2811 983.1746,-13.1685 992.5015,-18.1944 993.6,-11.2811"/>
</g>
<!-- Node18 -->
<g id="node19" class="node">
<title>Node18</title>
<polygon fill="none" stroke="#bfbfbf" points="1283.5729,-448.5 1283.5729,-467.5 1384.5729,-467.5 1384.5729,-448.5 1283.5729,-448.5"/>
<text text-anchor="middle" x="1334.0729" y="-455.5" font-family="Helvetica,sans-Serif" font-size="10.00" fill="#000000">SFML/Network.hpp</text>
</g>
<!-- Node0&#45;&gt;Node18 -->
<g id="edge26" class="edge">
<title>Node0&#45;&gt;Node18</title>
<path fill="none" stroke="#191970" d="M992.1738,-513.6114C1061.6778,-502.59 1170.1112,-485.2832 1273.5537,-468.2415"/>
<polygon fill="#191970" stroke="#191970" points="1274.2501,-471.674 1283.5473,-466.5934 1273.111,-464.7673 1274.2501,-471.674"/>
</g>
<!-- Node19 -->
<g id="node20" class="node">
<title>Node19</title>
<g id="a_node20"><a xlink:href="LoadingGameObjects_8hpp.html" target="_top" xlink:title="LoadingGameObjects.hpp">
<polygon fill="none" stroke="#000000" points="855.5729,-448.5 855.5729,-467.5 984.5729,-467.5 984.5729,-448.5 855.5729,-448.5"/>
<text text-anchor="middle" x="920.0729" y="-455.5" font-family="Helvetica,sans-Serif" font-size="10.00" fill="#000000">LoadingGameObjects.hpp</text>
</a>
</g>
</g>
<!-- Node0&#45;&gt;Node19 -->
<g id="edge27" class="edge">
<title>Node0&#45;&gt;Node19</title>
<path fill="none" stroke="#191970" d="M920.0729,-504.168C920.0729,-495.8226 920.0729,-486.2471 920.0729,-477.9879"/>
<polygon fill="#191970" stroke="#191970" points="923.573,-477.7804 920.0729,-467.7805 916.573,-477.7805 923.573,-477.7804"/>
</g>
<!-- Node4&#45;&gt;Node1 -->
<g id="edge7" class="edge">
<title>Node4&#45;&gt;Node1</title>
<path fill="none" stroke="#191970" d="M410.9851,-175.9037C333.2574,-170.3478 135.3085,-154.1403 116.0729,-132 45.2957,-50.5347 247.8801,-22.7305 355.5872,-13.8545"/>
<polygon fill="#191970" stroke="#191970" points="356.0094,-17.3321 365.7019,-13.0534 355.4567,-10.3539 356.0094,-17.3321"/>
</g>
<!-- Node5 -->
<g id="node6" class="node">
<title>Node5</title>
<polygon fill="none" stroke="#bfbfbf" points="331.0729,-56.5 331.0729,-75.5 383.0729,-75.5 383.0729,-56.5 331.0729,-56.5"/>
<text text-anchor="middle" x="357.0729" y="-63.5" font-family="Helvetica,sans-Serif" font-size="10.00" fill="#000000">memory</text>
</g>
<!-- Node4&#45;&gt;Node5 -->
<g id="edge5" class="edge">
<title>Node4&#45;&gt;Node5</title>
<path fill="none" stroke="#191970" d="M424.3416,-168.4441C410.8084,-160.3428 392.5869,-147.5707 381.0729,-132 370.8912,-118.231 364.6576,-99.7038 361.1046,-85.7842"/>
<polygon fill="#191970" stroke="#191970" points="364.4579,-84.7489 358.8056,-75.7877 357.636,-86.3178 364.4579,-84.7489"/>
</g>
<!-- Node6 -->
<g id="node7" class="node">
<title>Node6</title>
<polygon fill="none" stroke="#bfbfbf" points="520.5729,-.5 520.5729,-19.5 561.5729,-19.5 561.5729,-.5 520.5729,-.5"/>
<text text-anchor="middle" x="541.0729" y="-7.5" font-family="Helvetica,sans-Serif" font-size="10.00" fill="#000000">string</text>
</g>
<!-- Node4&#45;&gt;Node6 -->
<g id="edge6" class="edge">
<title>Node4&#45;&gt;Node6</title>
<path fill="none" stroke="#191970" d="M457.5433,-168.4083C469.7828,-160.1137 486.5158,-147.0983 497.0729,-132 519.5514,-99.8522 531.8128,-54.9575 537.3528,-29.5543"/>
<polygon fill="#191970" stroke="#191970" points="540.8012,-30.1611 539.3821,-19.6617 533.944,-28.7544 540.8012,-30.1611"/>
</g>
<!-- Node7 -->
<g id="node8" class="node">
<title>Node7</title>
<g id="a_node8"><a xlink:href="StateMachine_8hpp.html" target="_top" xlink:title="StateMachine.hpp">
<polygon fill="none" stroke="#000000" points="238.5729,-112.5 238.5729,-131.5 333.5729,-131.5 333.5729,-112.5 238.5729,-112.5"/>
<text text-anchor="middle" x="286.0729" y="-119.5" font-family="Helvetica,sans-Serif" font-size="10.00" fill="#000000">StateMachine.hpp</text>
</a>
</g>
</g>
<!-- Node4&#45;&gt;Node7 -->
<g id="edge8" class="edge">
<title>Node4&#45;&gt;Node7</title>
<path fill="none" stroke="#191970" d="M415.2556,-168.3733C389.5397,-159.1419 350.5349,-145.1402 322.113,-134.9375"/>
<polygon fill="#191970" stroke="#191970" points="323.1348,-131.5857 312.5403,-131.5011 320.7697,-138.174 323.1348,-131.5857"/>
</g>
<!-- Node9 -->
<g id="node10" class="node">
<title>Node9</title>
<g id="a_node10"><a xlink:href="AssetManager_8hpp.html" target="_top" xlink:title="AssetManager.hpp">
<polygon fill="none" stroke="#000000" points="390.0729,-112.5 390.0729,-131.5 488.0729,-131.5 488.0729,-112.5 390.0729,-112.5"/>
<text text-anchor="middle" x="439.0729" y="-119.5" font-family="Helvetica,sans-Serif" font-size="10.00" fill="#000000">AssetManager.hpp</text>
</a>
</g>
</g>
<!-- Node4&#45;&gt;Node9 -->
<g id="edge12" class="edge">
<title>Node4&#45;&gt;Node9</title>
<path fill="none" stroke="#191970" d="M441.5504,-168.2455C441.1589,-160.9382 440.6101,-150.6944 440.1285,-141.7046"/>
<polygon fill="#191970" stroke="#191970" points="443.6195,-141.4411 439.5895,-131.6427 436.6296,-141.8156 443.6195,-141.4411"/>
</g>
<!-- Node11 -->
<g id="node12" class="node">
<title>Node11</title>
<g id="a_node12"><a xlink:href="InputManager_8hpp.html" target="_top" xlink:title="InputManager.hpp">
<polygon fill="none" stroke="#000000" points="125.5729,-112.5 125.5729,-131.5 220.5729,-131.5 220.5729,-112.5 125.5729,-112.5"/>
<text text-anchor="middle" x="173.0729" y="-119.5" font-family="Helvetica,sans-Serif" font-size="10.00" fill="#000000">InputManager.hpp</text>
</a>
</g>
</g>
<!-- Node4&#45;&gt;Node11 -->
<g id="edge15" class="edge">
<title>Node4&#45;&gt;Node11</title>
<path fill="none" stroke="#191970" d="M410.9524,-171.5214C366.5557,-162.2789 284.317,-145.1586 229.1426,-133.6725"/>
<polygon fill="#191970" stroke="#191970" points="229.674,-130.2082 219.1705,-131.5965 228.2473,-137.0612 229.674,-130.2082"/>
</g>
<!-- Node12 -->
<g id="node13" class="node">
<title>Node12</title>
<g id="a_node13"><a xlink:href="entity__manager_8h.html" target="_top" xlink:title="entity_manager.h">
<polygon fill="none" stroke="#000000" points="623.0729,-112.5 623.0729,-131.5 715.0729,-131.5 715.0729,-112.5 623.0729,-112.5"/>
<text text-anchor="middle" x="669.0729" y="-119.5" font-family="Helvetica,sans-Serif" font-size="10.00" fill="#000000">entity_manager.h</text>
</a>
</g>
</g>
<!-- Node4&#45;&gt;Node12 -->
<g id="edge17" class="edge">
<title>Node4&#45;&gt;Node12</title>
<path fill="none" stroke="#191970" d="M473.1603,-170.3309C511.2034,-160.9458 576.047,-144.9491 620.6463,-133.9467"/>
<polygon fill="#191970" stroke="#191970" points="621.5271,-137.3344 630.3977,-131.541 619.8504,-130.5381 621.5271,-137.3344"/>
</g>
<!-- Node7&#45;&gt;Node3 -->
<g id="edge11" class="edge">
<title>Node7&#45;&gt;Node3</title>
<path fill="none" stroke="#191970" d="M247.3082,-112.4369C205.7791,-102.1918 140.22,-86.0187 98.4548,-75.7154"/>
<polygon fill="#191970" stroke="#191970" points="99.1832,-72.2902 88.636,-73.2931 97.5066,-79.0864 99.1832,-72.2902"/>
</g>
<!-- Node7&#45;&gt;Node5 -->
<g id="edge9" class="edge">
<title>Node7&#45;&gt;Node5</title>
<path fill="none" stroke="#191970" d="M298.4402,-112.2455C309.0283,-103.8943 324.4793,-91.7076 336.8622,-81.9408"/>
<polygon fill="#191970" stroke="#191970" points="339.1632,-84.5837 344.8474,-75.6427 334.8282,-79.0875 339.1632,-84.5837"/>
</g>
<!-- Node8 -->
<g id="node9" class="node">
<title>Node8</title>
<polygon fill="none" stroke="#bfbfbf" points="265.5729,-56.5 265.5729,-75.5 306.5729,-75.5 306.5729,-56.5 265.5729,-56.5"/>
<text text-anchor="middle" x="286.0729" y="-63.5" font-family="Helvetica,sans-Serif" font-size="10.00" fill="#000000">stack</text>
</g>
<!-- Node7&#45;&gt;Node8 -->
<g id="edge10" class="edge">
<title>Node7&#45;&gt;Node8</title>
<path fill="none" stroke="#191970" d="M286.0729,-112.2455C286.0729,-104.9382 286.0729,-94.6944 286.0729,-85.7046"/>
<polygon fill="#191970" stroke="#191970" points="289.573,-85.6426 286.0729,-75.6427 282.573,-85.6427 289.573,-85.6426"/>
</g>
<!-- Node9&#45;&gt;Node1 -->
<g id="edge14" class="edge">
<title>Node9&#45;&gt;Node1</title>
<path fill="none" stroke="#191970" d="M437.2825,-112.4509C433.8419,-94.1013 426.2462,-53.5908 421.7047,-29.3693"/>
<polygon fill="#191970" stroke="#191970" points="425.1419,-28.7086 419.8588,-19.5249 418.2618,-29.9986 425.1419,-28.7086"/>
</g>
<!-- Node10 -->
<g id="node11" class="node">
<title>Node10</title>
<polygon fill="none" stroke="#bfbfbf" points="446.5729,-56.5 446.5729,-75.5 481.5729,-75.5 481.5729,-56.5 446.5729,-56.5"/>
<text text-anchor="middle" x="464.0729" y="-63.5" font-family="Helvetica,sans-Serif" font-size="10.00" fill="#000000">map</text>
</g>
<!-- Node9&#45;&gt;Node10 -->
<g id="edge13" class="edge">
<title>Node9&#45;&gt;Node10</title>
<path fill="none" stroke="#191970" d="M443.4276,-112.2455C446.7973,-104.6973 451.5659,-94.0158 455.6713,-84.8197"/>
<polygon fill="#191970" stroke="#191970" points="458.8876,-86.2009 459.7682,-75.6427 452.4956,-83.3473 458.8876,-86.2009"/>
</g>
<!-- Node11&#45;&gt;Node1 -->
<g id="edge16" class="edge">
<title>Node11&#45;&gt;Node1</title>
<path fill="none" stroke="#191970" d="M182.397,-112.4794C196.8888,-98.2044 226.2641,-71.3009 256.0729,-56 287.2884,-39.977 324.8392,-28.8677 355.9251,-21.5863"/>
<polygon fill="#191970" stroke="#191970" points="356.7948,-24.9781 365.7746,-19.3554 355.2484,-18.151 356.7948,-24.9781"/>
</g>
<!-- Node13 -->
<g id="node14" class="node">
<title>Node13</title>
<polygon fill="none" stroke="#bfbfbf" points="687.5729,-56.5 687.5729,-75.5 770.5729,-75.5 770.5729,-56.5 687.5729,-56.5"/>
<text text-anchor="middle" x="729.0729" y="-63.5" font-family="Helvetica,sans-Serif" font-size="10.00" fill="#000000">unordered_map</text>
</g>
<!-- Node12&#45;&gt;Node13 -->
<g id="edge18" class="edge">
<title>Node12&#45;&gt;Node13</title>
<path fill="none" stroke="#191970" d="M679.5241,-112.2455C688.2998,-104.0549 701.0284,-92.1749 711.3869,-82.5069"/>
<polygon fill="#191970" stroke="#191970" points="713.819,-85.0246 718.7415,-75.6427 709.0428,-79.9072 713.819,-85.0246"/>
</g>
<!-- Node14 -->
<g id="node15" class="node">
<title>Node14</title>
<polygon fill="none" stroke="#bfbfbf" points="827.0729,-56.5 827.0729,-75.5 871.0729,-75.5 871.0729,-56.5 827.0729,-56.5"/>
<text text-anchor="middle" x="849.0729" y="-63.5" font-family="Helvetica,sans-Serif" font-size="10.00" fill="#000000">vector</text>
</g>
<!-- Node12&#45;&gt;Node14 -->
<g id="edge19" class="edge">
<title>Node12&#45;&gt;Node14</title>
<path fill="none" stroke="#191970" d="M700.016,-112.3733C732.8097,-102.1708 784.3326,-86.1414 817.4007,-75.8536"/>
<polygon fill="#191970" stroke="#191970" points="818.5207,-79.1707 827.0296,-72.8579 816.4412,-72.4867 818.5207,-79.1707"/>
</g>
<!-- Node15 -->
<g id="node16" class="node">
<title>Node15</title>
<polygon fill="none" stroke="#bfbfbf" points="682.0729,-.5 682.0729,-19.5 762.0729,-19.5 762.0729,-.5 682.0729,-.5"/>
<text text-anchor="middle" x="722.0729" y="-7.5" font-family="Helvetica,sans-Serif" font-size="10.00" fill="#000000">box2d/box2d.h</text>
</g>
<!-- Node12&#45;&gt;Node15 -->
<g id="edge20" class="edge">
<title>Node12&#45;&gt;Node15</title>
<path fill="none" stroke="#191970" d="M715.145,-115.2242C738.7843,-109.1573 765.5882,-97.6819 780.0729,-76 792.7688,-56.9957 770.7366,-37.6292 750.2779,-24.8341"/>
<polygon fill="#191970" stroke="#191970" points="751.808,-21.6731 741.4164,-19.6079 748.252,-27.7026 751.808,-21.6731"/>
</g>
<!-- Node16 -->
<g id="node17" class="node">
<title>Node16</title>
<g id="a_node17"><a xlink:href="entity_8h.html" target="_top" xlink:title="entity.h">
<polygon fill="none" stroke="#000000" points="620.5729,-56.5 620.5729,-75.5 669.5729,-75.5 669.5729,-56.5 620.5729,-56.5"/>
<text text-anchor="middle" x="645.0729" y="-63.5" font-family="Helvetica,sans-Serif" font-size="10.00" fill="#000000">entity.h</text>
</a>
</g>
</g>
<!-- Node12&#45;&gt;Node16 -->
<g id="edge21" class="edge">
<title>Node12&#45;&gt;Node16</title>
<path fill="none" stroke="#191970" d="M664.8925,-112.2455C661.6919,-104.7776 657.1769,-94.2427 653.2645,-85.1137"/>
<polygon fill="#191970" stroke="#191970" points="656.3618,-83.4554 649.2055,-75.6427 649.9277,-86.2129 656.3618,-83.4554"/>
</g>
<!-- Node16&#45;&gt;Node1 -->
<g id="edge22" class="edge">
<title>Node16&#45;&gt;Node1</title>
<path fill="none" stroke="#191970" d="M620.3258,-59.6108C615.5965,-58.4022 610.6835,-57.1551 606.0729,-56 559.0976,-44.2309 505.4295,-31.134 467.4926,-21.9344"/>
<polygon fill="#191970" stroke="#191970" points="468.2582,-18.5187 457.7152,-19.5652 466.6097,-25.3218 468.2582,-18.5187"/>
</g>
<!-- Node16&#45;&gt;Node6 -->
<g id="edge23" class="edge">
<title>Node16&#45;&gt;Node6</title>
<path fill="none" stroke="#191970" d="M626.9575,-56.2455C610.6279,-47.4527 586.4019,-34.4079 567.839,-24.4125"/>
<polygon fill="#191970" stroke="#191970" points="569.4448,-21.3021 558.9808,-19.6427 566.1261,-27.4654 569.4448,-21.3021"/>
</g>
<!-- Node16&#45;&gt;Node15 -->
<g id="edge24" class="edge">
<title>Node16&#45;&gt;Node15</title>
<path fill="none" stroke="#191970" d="M658.4853,-56.2455C670.0787,-47.814 687.0477,-35.4729 700.5408,-25.6598"/>
<polygon fill="#191970" stroke="#191970" points="702.7855,-28.355 708.8143,-19.6427 698.6683,-22.6938 702.7855,-28.355"/>
</g>
<!-- Node16&#45;&gt;Node17 -->
<g id="edge25" class="edge">
<title>Node16&#45;&gt;Node17</title>
<path fill="none" stroke="#191970" d="M669.8635,-58.3305C672.95,-57.4876 676.0743,-56.6873 679.0729,-56 763.9349,-36.5497 865.2052,-21.85 918.6884,-14.7388"/>
<polygon fill="#191970" stroke="#191970" points="919.2706,-18.1924 928.7289,-13.4185 918.3579,-11.2522 919.2706,-18.1924"/>
</g>
<!-- Node19&#45;&gt;Node1 -->
<g id="edge28" class="edge">
<title>Node19&#45;&gt;Node1</title>
<path fill="none" stroke="#191970" d="M855.565,-448.4417C762.0207,-433.2242 595.5552,-400.5904 556.0729,-356 465.6325,-253.8586 569.3326,-167.7487 491.0729,-56 481.3453,-42.1098 465.9463,-31.5092 451.7939,-24.005"/>
<polygon fill="#191970" stroke="#191970" points="453.2597,-20.8252 442.7459,-19.5173 450.1493,-27.0962 453.2597,-20.8252"/>
</g>
<!-- Node19&#45;&gt;Node4 -->
<g id="edge30" class="edge">
<title>Node19&#45;&gt;Node4</title>
<path fill="none" stroke="#191970" d="M855.1714,-453.8366C749.3918,-446.5589 548.8532,-430.522 522.0729,-412 494.9346,-393.2304 488.0729,-378.9968 488.0729,-346 488.0729,-346 488.0729,-346 488.0729,-290 488.0729,-254.66 468.2338,-217.4332 454.6132,-196.0395"/>
<polygon fill="#191970" stroke="#191970" points="457.4942,-194.0507 449.0593,-187.6394 451.655,-197.9114 457.4942,-194.0507"/>
</g>
<!-- Node20 -->
<g id="node21" class="node">
<title>Node20</title>
<g id="a_node21"><a xlink:href="DEFINITIONS_8hpp.html" target="_top" xlink:title="DEFINITIONS.hpp">
<polygon fill="none" stroke="#000000" points="771.0729,-168.5 771.0729,-187.5 871.0729,-187.5 871.0729,-168.5 771.0729,-168.5"/>
<text text-anchor="middle" x="821.0729" y="-175.5" font-family="Helvetica,sans-Serif" font-size="10.00" fill="#000000">DEFINITIONS.hpp</text>
</a>
</g>
</g>
<!-- Node19&#45;&gt;Node20 -->
<g id="edge29" class="edge">
<title>Node19&#45;&gt;Node20</title>
<path fill="none" stroke="#191970" d="M984.6098,-448.9055C1027.3519,-441.409 1077.8873,-429.2014 1091.0729,-412 1096.4807,-404.9453 1093.146,-400.6438 1091.0729,-392 1078.0471,-337.6867 1074.0415,-319.0144 1034.0729,-280 986.6856,-233.744 914.3093,-205.2541 867.3375,-190.5246"/>
<polygon fill="#191970" stroke="#191970" points="868.3041,-187.1603 857.7179,-187.5889 866.2608,-193.8555 868.3041,-187.1603"/>
</g>
<!-- Node21 -->
<g id="node22" class="node">
<title>Node21</title>
<g id="a_node22"><a xlink:href="Main__Player_8hpp.html" target="_top" xlink:title="Main_Player.hpp">
<polygon fill="none" stroke="#000000" points="725.5729,-392.5 725.5729,-411.5 814.5729,-411.5 814.5729,-392.5 725.5729,-392.5"/>
<text text-anchor="middle" x="770.0729" y="-399.5" font-family="Helvetica,sans-Serif" font-size="10.00" fill="#000000">Main_Player.hpp</text>
</a>
</g>
</g>
<!-- Node19&#45;&gt;Node21 -->
<g id="edge31" class="edge">
<title>Node19&#45;&gt;Node21</title>
<path fill="none" stroke="#191970" d="M894.287,-448.3733C869.6682,-439.1822 832.3829,-425.2624 805.0855,-415.0713"/>
<polygon fill="#191970" stroke="#191970" points="806.115,-411.7198 795.5224,-411.5011 803.6666,-418.2777 806.115,-411.7198"/>
</g>
<!-- Node23 -->
<g id="node24" class="node">
<title>Node23</title>
<g id="a_node24"><a xlink:href="Bullet_8hpp.html" target="_top" xlink:title="Bullet.hpp">
<polygon fill="none" stroke="#000000" points="965.0729,-280.5 965.0729,-299.5 1025.0729,-299.5 1025.0729,-280.5 965.0729,-280.5"/>
<text text-anchor="middle" x="995.0729" y="-287.5" font-family="Helvetica,sans-Serif" font-size="10.00" fill="#000000">Bullet.hpp</text>
</a>
</g>
</g>
<!-- Node19&#45;&gt;Node23 -->
<g id="edge49" class="edge">
<title>Node19&#45;&gt;Node23</title>
<path fill="none" stroke="#191970" d="M930.2722,-448.4495C939.3609,-439.5858 952.6446,-425.7279 962.0729,-412 977.8266,-389.0622 982.6606,-382.8212 990.0729,-356 994.2397,-340.9228 995.3889,-323.2187 995.5516,-309.9443"/>
<polygon fill="#191970" stroke="#191970" points="999.0496,-309.5761 995.4916,-299.5966 992.0497,-309.6167 999.0496,-309.5761"/>
</g>
<!-- Node28 -->
<g id="node29" class="node">
<title>Node28</title>
<g id="a_node29"><a xlink:href="Enemy_8hpp.html" target="_top" xlink:title="Enemy.hpp">
<polygon fill="none" stroke="#000000" points="887.0729,-392.5 887.0729,-411.5 953.0729,-411.5 953.0729,-392.5 887.0729,-392.5"/>
<text text-anchor="middle" x="920.0729" y="-399.5" font-family="Helvetica,sans-Serif" font-size="10.00" fill="#000000">Enemy.hpp</text>
</a>
</g>
</g>
<!-- Node19&#45;&gt;Node28 -->
<g id="edge50" class="edge">
<title>Node19&#45;&gt;Node28</title>
<path fill="none" stroke="#191970" d="M920.0729,-448.2455C920.0729,-440.9382 920.0729,-430.6944 920.0729,-421.7046"/>
<polygon fill="#191970" stroke="#191970" points="923.573,-421.6426 920.0729,-411.6427 916.573,-421.6427 923.573,-421.6426"/>
</g>
<!-- Node29 -->
<g id="node30" class="node">
<title>Node29</title>
<polygon fill="none" stroke="#bfbfbf" points="1026.0729,-392.5 1026.0729,-411.5 1082.0729,-411.5 1082.0729,-392.5 1026.0729,-392.5"/>
<text text-anchor="middle" x="1054.0729" y="-399.5" font-family="Helvetica,sans-Serif" font-size="10.00" fill="#000000">tinyxml.h</text>
</g>
<!-- Node19&#45;&gt;Node29 -->
<g id="edge56" class="edge">
<title>Node19&#45;&gt;Node29</title>
<path fill="none" stroke="#191970" d="M943.1084,-448.3733C964.8118,-439.3032 997.5348,-425.6279 1021.8279,-415.4755"/>
<polygon fill="#191970" stroke="#191970" points="1023.461,-418.5865 1031.3381,-411.5011 1020.7618,-412.1278 1023.461,-418.5865"/>
</g>
<!-- Node21&#45;&gt;Node17 -->
<g id="edge45" class="edge">
<title>Node21&#45;&gt;Node17</title>
<path fill="none" stroke="#191970" d="M766.499,-392.3045C762.2207,-379.1678 756.4157,-355.1559 763.0729,-336 790.5983,-256.7973 837.2336,-260.0799 880.0729,-188 884.4237,-180.6795 929.5523,-73.3079 948.1397,-28.9531"/>
<polygon fill="#191970" stroke="#191970" points="951.4286,-30.1603 952.0636,-19.5845 944.972,-27.456 951.4286,-30.1603"/>
</g>
<!-- Node22 -->
<g id="node23" class="node">
<title>Node22</title>
<g id="a_node23"><a xlink:href="GameWorld_8hpp.html" target="_top" xlink:title="GameWorld.hpp">
<polygon fill="none" stroke="#000000" points="699.5729,-224.5 699.5729,-243.5 786.5729,-243.5 786.5729,-224.5 699.5729,-224.5"/>
<text text-anchor="middle" x="743.0729" y="-231.5" font-family="Helvetica,sans-Serif" font-size="10.00" fill="#000000">GameWorld.hpp</text>
</a>
</g>
</g>
<!-- Node21&#45;&gt;Node22 -->
<g id="edge32" class="edge">
<title>Node21&#45;&gt;Node22</title>
<path fill="none" stroke="#191970" d="M725.3396,-394.6992C702.605,-388.4789 676.9193,-377.0243 663.0729,-356 637.9873,-317.91 687.7738,-273.0429 719.514,-249.7786"/>
<polygon fill="#191970" stroke="#191970" points="721.7856,-252.4582 727.9106,-243.8133 717.7314,-246.7517 721.7856,-252.4582"/>
</g>
<!-- Node21&#45;&gt;Node23 -->
<g id="edge38" class="edge">
<title>Node21&#45;&gt;Node23</title>
<path fill="none" stroke="#191970" d="M805.3494,-392.4868C832.3523,-384.53 870.0968,-371.9272 901.0729,-356 928.5045,-341.8954 957.106,-320.7385 975.4479,-306.2018"/>
<polygon fill="#191970" stroke="#191970" points="977.9828,-308.6544 983.5778,-299.6573 973.5934,-303.2015 977.9828,-308.6544"/>
</g>
<!-- Node24 -->
<g id="node25" class="node">
<title>Node24</title>
<g id="a_node25"><a xlink:href="Gun_8hpp.html" target="_top" xlink:title="Gun.hpp">
<polygon fill="none" stroke="#000000" points="838.5729,-336.5 838.5729,-355.5 891.5729,-355.5 891.5729,-336.5 838.5729,-336.5"/>
<text text-anchor="middle" x="865.0729" y="-343.5" font-family="Helvetica,sans-Serif" font-size="10.00" fill="#000000">Gun.hpp</text>
</a>
</g>
</g>
<!-- Node21&#45;&gt;Node24 -->
<g id="edge41" class="edge">
<title>Node21&#45;&gt;Node24</title>
<path fill="none" stroke="#191970" d="M786.6207,-392.2455C801.3328,-383.5731 823.0617,-370.7645 839.9234,-360.825"/>
<polygon fill="#191970" stroke="#191970" points="841.8775,-363.736 848.7148,-355.6427 838.3228,-357.7057 841.8775,-363.736"/>
</g>
<!-- Node25 -->
<g id="node26" class="node">
<title>Node25</title>
<polygon fill="none" stroke="#bfbfbf" points="772.0729,-336.5 772.0729,-355.5 820.0729,-355.5 820.0729,-336.5 772.0729,-336.5"/>
<text text-anchor="middle" x="796.0729" y="-343.5" font-family="Helvetica,sans-Serif" font-size="10.00" fill="#000000">stdlib.h</text>
</g>
<!-- Node21&#45;&gt;Node25 -->
<g id="edge46" class="edge">
<title>Node21&#45;&gt;Node25</title>
<path fill="none" stroke="#191970" d="M774.6018,-392.2455C778.1063,-384.6973 783.0656,-374.0158 787.3352,-364.8197"/>
<polygon fill="#191970" stroke="#191970" points="790.5593,-366.1867 791.596,-355.6427 784.2103,-363.2389 790.5593,-366.1867"/>
</g>
<!-- Node26 -->
<g id="node27" class="node">
<title>Node26</title>
<polygon fill="none" stroke="#bfbfbf" points="672.0729,-336.5 672.0729,-355.5 716.0729,-355.5 716.0729,-336.5 672.0729,-336.5"/>
<text text-anchor="middle" x="694.0729" y="-343.5" font-family="Helvetica,sans-Serif" font-size="10.00" fill="#000000">time.h</text>
</g>
<!-- Node21&#45;&gt;Node26 -->
<g id="edge47" class="edge">
<title>Node21&#45;&gt;Node26</title>
<path fill="none" stroke="#191970" d="M756.8347,-392.2455C745.392,-383.814 728.6433,-371.4729 715.3255,-361.6598"/>
<polygon fill="#191970" stroke="#191970" points="717.2862,-358.757 707.1594,-355.6427 713.1338,-364.3924 717.2862,-358.757"/>
</g>
<!-- Node27 -->
<g id="node28" class="node">
<title>Node27</title>
<polygon fill="none" stroke="#bfbfbf" points="564.5729,-336.5 564.5729,-355.5 615.5729,-355.5 615.5729,-336.5 564.5729,-336.5"/>
<text text-anchor="middle" x="590.0729" y="-343.5" font-family="Helvetica,sans-Serif" font-size="10.00" fill="#000000">unistd.h</text>
</g>
<!-- Node21&#45;&gt;Node27 -->
<g id="edge48" class="edge">
<title>Node21&#45;&gt;Node27</title>
<path fill="none" stroke="#191970" d="M739.1298,-392.3733C707.5204,-382.5392 658.5099,-367.2915 625.398,-356.99"/>
<polygon fill="#191970" stroke="#191970" points="626.2575,-353.592 615.6691,-353.9633 624.178,-360.276 626.2575,-353.592"/>
</g>
<!-- Node22&#45;&gt;Node1 -->
<g id="edge33" class="edge">
<title>Node22&#45;&gt;Node1</title>
<path fill="none" stroke="#191970" d="M727.7092,-224.4892C701.9481,-208.0058 649.3986,-172.0328 614.0729,-132 587.949,-102.3951 599.2148,-80.2713 568.0729,-56 542.8969,-36.3784 509.3394,-25.0817 480.3489,-18.6"/>
<polygon fill="#191970" stroke="#191970" points="480.8107,-15.121 470.3063,-16.5024 479.3794,-21.9731 480.8107,-15.121"/>
</g>
<!-- Node22&#45;&gt;Node4 -->
<g id="edge35" class="edge">
<title>Node22&#45;&gt;Node4</title>
<path fill="none" stroke="#191970" d="M699.3049,-225.8571C641.4368,-215.091 540.1942,-196.2551 483.516,-185.7103"/>
<polygon fill="#191970" stroke="#191970" points="483.9435,-182.2299 473.472,-183.8417 482.6631,-189.1118 483.9435,-182.2299"/>
</g>
<!-- Node22&#45;&gt;Node12 -->
<g id="edge36" class="edge">
<title>Node22&#45;&gt;Node12</title>
<path fill="none" stroke="#191970" d="M736.7637,-224.4509C724.4214,-205.7707 696.9047,-164.1238 681.0161,-140.0761"/>
<polygon fill="#191970" stroke="#191970" points="683.799,-137.9388 675.3662,-131.5249 677.9586,-141.7977 683.799,-137.9388"/>
</g>
<!-- Node22&#45;&gt;Node14 -->
<g id="edge37" class="edge">
<title>Node22&#45;&gt;Node14</title>
<path fill="none" stroke="#191970" d="M744.5686,-224.1077C746.8821,-210.7479 752.1364,-186.4842 762.0729,-168 780.2825,-134.1261 811.2298,-101.4865 830.8856,-82.5997"/>
<polygon fill="#191970" stroke="#191970" points="833.4266,-85.0144 838.3042,-75.6091 828.6259,-79.9199 833.4266,-85.0144"/>
</g>
<!-- Node22&#45;&gt;Node20 -->
<g id="edge34" class="edge">
<title>Node22&#45;&gt;Node20</title>
<path fill="none" stroke="#191970" d="M756.6595,-224.2455C768.4034,-215.814 785.5928,-203.4729 799.2611,-193.6598"/>
<polygon fill="#191970" stroke="#191970" points="801.56,-196.3179 807.6421,-187.6427 797.4776,-190.6316 801.56,-196.3179"/>
</g>
<!-- Node23&#45;&gt;Node17 -->
<g id="edge40" class="edge">
<title>Node23&#45;&gt;Node17</title>
<path fill="none" stroke="#191970" d="M992.2694,-280.2066C986.9842,-260.8521 976.0729,-216.2612 976.0729,-178 976.0729,-178 976.0729,-178 976.0729,-122 976.0729,-89.2193 967.6675,-51.8705 961.7548,-29.6533"/>
<polygon fill="#191970" stroke="#191970" points="965.0639,-28.4878 959.024,-19.7832 958.3174,-30.3545 965.0639,-28.4878"/>
</g>
<!-- Node23&#45;&gt;Node22 -->
<g id="edge39" class="edge">
<title>Node23&#45;&gt;Node22</title>
<path fill="none" stroke="#191970" d="M964.6758,-283.2451C922.9493,-273.9725 847.2885,-257.159 796.1179,-245.7878"/>
<polygon fill="#191970" stroke="#191970" points="796.7488,-242.3427 786.2277,-243.5899 795.2302,-249.176 796.7488,-242.3427"/>
</g>
<!-- Node24&#45;&gt;Node17 -->
<g id="edge44" class="edge">
<title>Node24&#45;&gt;Node17</title>
<path fill="none" stroke="#191970" d="M876.9623,-336.2632C897.4123,-318.3405 937.0729,-277.9199 937.0729,-234 937.0729,-234 937.0729,-234 937.0729,-122 937.0729,-89.2688 945.0581,-51.9052 950.6752,-29.6716"/>
<polygon fill="#191970" stroke="#191970" points="954.1144,-30.3545 953.2694,-19.7934 947.344,-28.5763 954.1144,-30.3545"/>
</g>
<!-- Node24&#45;&gt;Node22 -->
<g id="edge42" class="edge">
<title>Node24&#45;&gt;Node22</title>
<path fill="none" stroke="#191970" d="M854.6713,-336.4509C833.873,-317.3574 786.9382,-274.2697 761.0531,-250.5063"/>
<polygon fill="#191970" stroke="#191970" points="763.1818,-247.7093 753.4483,-243.5249 758.4478,-252.8659 763.1818,-247.7093"/>
</g>
<!-- Node24&#45;&gt;Node23 -->
<g id="edge43" class="edge">
<title>Node24&#45;&gt;Node23</title>
<path fill="none" stroke="#191970" d="M887.4207,-336.3733C908.4763,-327.3032 940.2225,-313.6279 963.7904,-303.4755"/>
<polygon fill="#191970" stroke="#191970" points="965.2173,-306.6719 973.0168,-299.5011 962.4479,-300.243 965.2173,-306.6719"/>
</g>
<!-- Node28&#45;&gt;Node17 -->
<g id="edge52" class="edge">
<title>Node28&#45;&gt;Node17</title>
<path fill="none" stroke="#191970" d="M937.8768,-392.462C952.7386,-384.0144 974.0105,-370.7581 990.0729,-356 1035.01,-314.7119 1053.0729,-295.025 1053.0729,-234 1053.0729,-234 1053.0729,-234 1053.0729,-122 1053.0729,-78.5952 1010.9306,-43.7503 982.2007,-25.0386"/>
<polygon fill="#191970" stroke="#191970" points="983.7482,-21.8782 973.4146,-19.5399 980.0346,-27.8119 983.7482,-21.8782"/>
</g>
<!-- Node28&#45;&gt;Node22 -->
<g id="edge51" class="edge">
<title>Node28&#45;&gt;Node22</title>
<path fill="none" stroke="#191970" d="M919.3328,-392.133C917.8656,-378.3682 913.556,-353.165 901.0729,-336 869.8286,-293.0373 814.4777,-263.4839 778.2833,-247.6491"/>
<polygon fill="#191970" stroke="#191970" points="779.1912,-244.2323 768.6185,-243.5469 776.4561,-250.6759 779.1912,-244.2323"/>
</g>
<!-- Node28&#45;&gt;Node23 -->
<g id="edge55" class="edge">
<title>Node28&#45;&gt;Node23</title>
<path fill="none" stroke="#191970" d="M934.7222,-392.2563C946.3073,-383.8735 962.1343,-370.8136 972.0729,-356 981.5681,-341.8473 987.5676,-323.3575 991.049,-309.5497"/>
<polygon fill="#191970" stroke="#191970" points="994.4949,-310.1818 993.3199,-299.6523 987.6721,-308.6163 994.4949,-310.1818"/>
</g>
<!-- Node28&#45;&gt;Node24 -->
<g id="edge54" class="edge">
<title>Node28&#45;&gt;Node24</title>
<path fill="none" stroke="#191970" d="M910.4927,-392.2455C902.5272,-384.1352 891.0089,-372.4075 881.565,-362.7919"/>
<polygon fill="#191970" stroke="#191970" points="884.0476,-360.3247 874.5434,-355.6427 879.0534,-365.2297 884.0476,-360.3247"/>
</g>
<!-- Node28&#45;&gt;Node25 -->
<g id="edge53" class="edge">
<title>Node28&#45;&gt;Node25</title>
<path fill="none" stroke="#191970" d="M898.7566,-392.3733C878.8513,-383.3838 848.9293,-369.8706 826.5129,-359.7471"/>
<polygon fill="#191970" stroke="#191970" points="827.6654,-356.4272 817.1111,-355.5011 824.7843,-362.8068 827.6654,-356.4272"/>
</g>
</g>
</svg>
        <g id="navigator" transform="translate(0 0)" fill="#404254">
                <rect fill="#f2f5e9" fill-opacity="0.5" stroke="#606060" stroke-width=".5" x="0" y="0" width="60" height="60"/>
                <use id="zoomplus" xlink:href="#zoomPlus" x="17" y="9" onmousedown="handleZoom(evt,'in')"/>
                <use id="zoomminus" xlink:href="#zoomMin" x="42" y="9" onmousedown="handleZoom(evt,'out')"/>
                <use id="reset" xlink:href="#resetDef" x="30" y="36" onmousedown="handleReset()"/>
                <g id="arrowUp" xlink:href="#dirArrow" transform="translate(30 24)" onmousedown="handlePan(0,-1)">
                  <use xlink:href="#rim" fill="#404040">
                        <set attributeName="fill" to="#808080" begin="arrowUp.mouseover" end="arrowUp.mouseout"/>
                  </use>
                  <path fill="none" stroke="white" stroke-width="1.5" d="M0,-3.0v7 M-2.5,-0.5L0,-3.0L2.5,-0.5"/>
                </g>
                <g id="arrowRight" xlink:href="#dirArrow" transform="rotate(90) translate(36 -43)" onmousedown="handlePan(1,0)">
                  <use xlink:href="#rim" fill="#404040">
                        <set attributeName="fill" to="#808080" begin="arrowRight.mouseover" end="arrowRight.mouseout"/>
                  </use>
                  <path fill="none" stroke="white" stroke-width="1.5" d="M0,-3.0v7 M-2.5,-0.5L0,-3.0L2.5,-0.5"/>
                </g>
                <g id="arrowDown" xlink:href="#dirArrow" transform="rotate(180) translate(-30 -48)" onmousedown="handlePan(0,1)">
                  <use xlink:href="#rim" fill="#404040">
                        <set attributeName="fill" to="#808080" begin="arrowDown.mouseover" end="arrowDown.mouseout"/>
                  </use>
                  <path fill="none" stroke="white" stroke-width="1.5" d="M0,-3.0v7 M-2.5,-0.5L0,-3.0L2.5,-0.5"/>
                </g>
                <g id="arrowLeft" xlink:href="#dirArrow" transform="rotate(270) translate(-36 17)" onmousedown="handlePan(-1,0)">
                  <use xlink:href="#rim" fill="#404040">
                        <set attributeName="fill" to="#808080" begin="arrowLeft.mouseover" end="arrowLeft.mouseout"/>
                  </use>
                  <path fill="none" stroke="white" stroke-width="1.5" d="M0,-3.0v7 M-2.5,-0.5L0,-3.0L2.5,-0.5"/>
                </g>
        </g>
        <svg viewBox="0 0 15 15" width="100%" height="30px" preserveAspectRatio="xMaxYMin meet">
         <g id="arrow_out" transform="scale(0.3 0.3)">
          <a xlink:href="MainMenuState_8hpp__incl_org.svg" target="_base">
           <rect id="button" ry="5" rx="5" y="6" x="6" height="38" width="38"
                fill="#f2f5e9" fill-opacity="0.5" stroke="#606060" stroke-width="1.0"/>
           <path id="arrow"
             d="M 11.500037,31.436501 C 11.940474,20.09759 22.043105,11.32322 32.158766,21.979434 L 37.068811,17.246167 C 37.068811,17.246167 37.088388,32 37.088388,32 L 22.160133,31.978069 C 22.160133,31.978069 26.997745,27.140456 26.997745,27.140456 C 18.528582,18.264221 13.291696,25.230495 11.500037,31.436501 z"
             style="fill:#404040;"/>
          </a>
         </g>
        </svg>
</svg>
