<?xml version="1.0" encoding="UTF-8" standalone="no"?>
<!DOCTYPE svg PUBLIC "-//W3C//DTD SVG 1.1//EN"
 "http://www.w3.org/Graphics/SVG/1.1/DTD/svg11.dtd">
<!-- Generated by graphviz version 2.40.1 (20161225.0304)
 -->
<!-- Title: /mnt/hdd/C0de/Engines/SFML/SFML_Engine/src/main.cpp Pages: 1 -->
<!--zoomable 274 -->
<svg id="main" version="1.1" xmlns="http://www.w3.org/2000/svg" xmlns:xlink="http://www.w3.org/1999/xlink" xml:space="preserve" onload="init(evt)">
<style type="text/css"><![CDATA[
.edge:hover path { stroke: red; }
.edge:hover polygon { stroke: red; fill: red; }
]]></style>
<script type="text/javascript"><![CDATA[
var edges = document.getElementsByTagName('g');
if (edges && edges.length) {
  for (var i=0;i<edges.length;i++) {
    if (edges[i].id.substr(0,4)=='edge') {
      edges[i].setAttribute('class','edge');
    }
  }
}
]]></script>
        <defs>
                <circle id="rim" cx="0" cy="0" r="7"/>
                <circle id="rim2" cx="0" cy="0" r="3.5"/>
                <g id="zoomPlus">
                        <use xlink:href="#rim" fill="#404040">
                                <set attributeName="fill" to="#808080" begin="zoomplus.mouseover" end="zoomplus.mouseout"/>
                        </use>
                        <path d="M-4,0h8M0,-4v8" fill="none" stroke="white" stroke-width="1.5" pointer-events="none"/>
                </g>
                <g id="zoomMin">
                        <use xlink:href="#rim" fill="#404040">
                                <set attributeName="fill" to="#808080" begin="zoomminus.mouseover" end="zoomminus.mouseout"/>
                        </use>
                        <path d="M-4,0h8" fill="none" stroke="white" stroke-width="1.5" pointer-events="none"/>
                </g>
                <g id="dirArrow">
                        <path fill="none" stroke="white" stroke-width="1.5" d="M0,-3.0v7 M-2.5,-0.5L0,-3.0L2.5,-0.5"/>
                </g>
               <g id="resetDef">
                       <use xlink:href="#rim2" fill="#404040">
                               <set attributeName="fill" to="#808080" begin="reset.mouseover" end="reset.mouseout"/>
                       </use>
               </g>
        </defs>

<script type="text/javascript">
var viewWidth = 673;
var viewHeight = 274;
var sectionId = 'dynsection-0';
</script>
<script xlink:href="svgpan.js"/>
<svg id="graph" class="graph">
<g id="viewport">
<title>/mnt/hdd/C0de/Engines/SFML/SFML_Engine/src/main.cpp</title>
<!-- Node0 -->
<g id="node1" class="node">
<title>Node0</title>
<polygon fill="#bfbfbf" stroke="#000000" points="262.5,-224.5 262.5,-265.5 389.5,-265.5 389.5,-224.5 262.5,-224.5"/>
<text text-anchor="start" x="270.5" y="-253.5" font-family="Helvetica,sans-Serif" font-size="10.00" fill="#000000">/mnt/hdd/C0de/Engines</text>
<text text-anchor="start" x="270.5" y="-242.5" font-family="Helvetica,sans-Serif" font-size="10.00" fill="#000000">/SFML/SFML_Engine/src</text>
<text text-anchor="middle" x="326" y="-231.5" font-family="Helvetica,sans-Serif" font-size="10.00" fill="#000000">/main.cpp</text>
</g>
<!-- Node1 -->
<g id="node2" class="node">
<title>Node1</title>
<g id="a_node2"><a xlink:href="Game_8hpp.html" target="_top" xlink:title="../include/Game.hpp">
<polygon fill="none" stroke="#000000" points="203,-168.5 203,-187.5 307,-187.5 307,-168.5 203,-168.5"/>
<text text-anchor="middle" x="255" y="-175.5" font-family="Helvetica,sans-Serif" font-size="10.00" fill="#000000">../include/Game.hpp</text>
</a>
</g>
</g>
<!-- Node0&#45;&gt;Node1 -->
<g id="edge1" class="edge">
<title>Node0&#45;&gt;Node1</title>
<path fill="none" stroke="#191970" d="M303.9243,-224.168C293.8747,-214.6846 282.1418,-203.6127 272.6854,-194.689"/>
<polygon fill="#191970" stroke="#191970" points="275.0395,-192.0982 265.3644,-187.7805 270.2352,-197.1893 275.0395,-192.0982"/>
</g>
<!-- Node17 -->
<g id="node18" class="node">
<title>Node17</title>
<g id="a_node18"><a xlink:href="DEFINITIONS_8hpp.html" target="_top" xlink:title="../include/DEFINITIONS.hpp">
<polygon fill="none" stroke="#000000" points="325.5,-168.5 325.5,-187.5 468.5,-187.5 468.5,-168.5 325.5,-168.5"/>
<text text-anchor="middle" x="397" y="-175.5" font-family="Helvetica,sans-Serif" font-size="10.00" fill="#000000">../include/DEFINITIONS.hpp</text>
</a>
</g>
</g>
<!-- Node0&#45;&gt;Node17 -->
<g id="edge23" class="edge">
<title>Node0&#45;&gt;Node17</title>
<path fill="none" stroke="#191970" d="M348.0757,-224.168C358.1253,-214.6846 369.8582,-203.6127 379.3146,-194.689"/>
<polygon fill="#191970" stroke="#191970" points="381.7648,-197.1893 386.6356,-187.7805 376.9605,-192.0982 381.7648,-197.1893"/>
</g>
<!-- Node2 -->
<g id="node3" class="node">
<title>Node2</title>
<polygon fill="none" stroke="#bfbfbf" points="0,-56.5 0,-75.5 52,-75.5 52,-56.5 0,-56.5"/>
<text text-anchor="middle" x="26" y="-63.5" font-family="Helvetica,sans-Serif" font-size="10.00" fill="#000000">memory</text>
</g>
<!-- Node1&#45;&gt;Node2 -->
<g id="edge2" class="edge">
<title>Node1&#45;&gt;Node2</title>
<path fill="none" stroke="#191970" d="M202.8657,-168.8351C157.1684,-160.0733 94.8702,-146.1387 74,-132 56.4876,-120.1361 43.076,-99.6627 34.9383,-84.6567"/>
<polygon fill="#191970" stroke="#191970" points="38.0388,-83.0326 30.3621,-75.7307 31.8097,-86.2262 38.0388,-83.0326"/>
</g>
<!-- Node3 -->
<g id="node4" class="node">
<title>Node3</title>
<polygon fill="none" stroke="#bfbfbf" points="197.5,-.5 197.5,-19.5 238.5,-19.5 238.5,-.5 197.5,-.5"/>
<text text-anchor="middle" x="218" y="-7.5" font-family="Helvetica,sans-Serif" font-size="10.00" fill="#000000">string</text>
</g>
<!-- Node1&#45;&gt;Node3 -->
<g id="edge3" class="edge">
<title>Node1&#45;&gt;Node3</title>
<path fill="none" stroke="#191970" d="M251.6824,-168.2156C248.6259,-158.9617 244.1067,-144.6465 241,-132 232.2108,-96.2221 224.9049,-53.8321 221.0198,-29.6101"/>
<polygon fill="#191970" stroke="#191970" points="224.4514,-28.9015 219.439,-19.5673 217.5366,-29.9899 224.4514,-28.9015"/>
</g>
<!-- Node4 -->
<g id="node5" class="node">
<title>Node4</title>
<polygon fill="none" stroke="#bfbfbf" points="257,-.5 257,-19.5 361,-19.5 361,-.5 257,-.5"/>
<text text-anchor="middle" x="309" y="-7.5" font-family="Helvetica,sans-Serif" font-size="10.00" fill="#000000">SFML/Graphics.hpp</text>
</g>
<!-- Node1&#45;&gt;Node4 -->
<g id="edge4" class="edge">
<title>Node1&#45;&gt;Node4</title>
<path fill="none" stroke="#191970" d="M257.6791,-168.1137C261.2258,-155.1664 267.7614,-131.787 274,-112 283.1622,-82.9403 294.8207,-49.6044 302.0984,-29.1745"/>
<polygon fill="#191970" stroke="#191970" points="305.483,-30.1041 305.5579,-19.5096 298.8925,-27.745 305.483,-30.1041"/>
</g>
<!-- Node5 -->
<g id="node6" class="node">
<title>Node5</title>
<g id="a_node6"><a xlink:href="StateMachine_8hpp.html" target="_top" xlink:title="StateMachine.hpp">
<polygon fill="none" stroke="#000000" points="83.5,-112.5 83.5,-131.5 178.5,-131.5 178.5,-112.5 83.5,-112.5"/>
<text text-anchor="middle" x="131" y="-119.5" font-family="Helvetica,sans-Serif" font-size="10.00" fill="#000000">StateMachine.hpp</text>
</a>
</g>
</g>
<!-- Node1&#45;&gt;Node5 -->
<g id="edge5" class="edge">
<title>Node1&#45;&gt;Node5</title>
<path fill="none" stroke="#191970" d="M233.6836,-168.3733C213.7784,-159.3838 183.8564,-145.8706 161.44,-135.7471"/>
<polygon fill="#191970" stroke="#191970" points="162.5925,-132.4272 152.0382,-131.5011 159.7113,-138.8068 162.5925,-132.4272"/>
</g>
<!-- Node8 -->
<g id="node9" class="node">
<title>Node8</title>
<g id="a_node9"><a xlink:href="AssetManager_8hpp.html" target="_top" xlink:title="AssetManager.hpp">
<polygon fill="none" stroke="#000000" points="283,-112.5 283,-131.5 381,-131.5 381,-112.5 283,-112.5"/>
<text text-anchor="middle" x="332" y="-119.5" font-family="Helvetica,sans-Serif" font-size="10.00" fill="#000000">AssetManager.hpp</text>
</a>
</g>
</g>
<!-- Node1&#45;&gt;Node8 -->
<g id="edge9" class="edge">
<title>Node1&#45;&gt;Node8</title>
<path fill="none" stroke="#191970" d="M268.4124,-168.2455C280.0057,-159.814 296.9748,-147.4729 310.4678,-137.6598"/>
<polygon fill="#191970" stroke="#191970" points="312.7126,-140.355 318.7413,-131.6427 308.5953,-134.6938 312.7126,-140.355"/>
</g>
<!-- Node10 -->
<g id="node11" class="node">
<title>Node10</title>
<g id="a_node11"><a xlink:href="InputManager_8hpp.html" target="_top" xlink:title="InputManager.hpp">
<polygon fill="none" stroke="#000000" points="399.5,-112.5 399.5,-131.5 494.5,-131.5 494.5,-112.5 399.5,-112.5"/>
<text text-anchor="middle" x="447" y="-119.5" font-family="Helvetica,sans-Serif" font-size="10.00" fill="#000000">InputManager.hpp</text>
</a>
</g>
</g>
<!-- Node1&#45;&gt;Node10 -->
<g id="edge12" class="edge">
<title>Node1&#45;&gt;Node10</title>
<path fill="none" stroke="#191970" d="M288.006,-168.3733C320.2091,-158.9807 369.3442,-144.6496 404.4639,-134.4064"/>
<polygon fill="#191970" stroke="#191970" points="405.8047,-137.6612 414.4247,-131.5011 403.8447,-130.9412 405.8047,-137.6612"/>
</g>
<!-- Node11 -->
<g id="node12" class="node">
<title>Node11</title>
<g id="a_node12"><a xlink:href="entity__manager_8h.html" target="_top" xlink:title="entity_manager.h">
<polygon fill="none" stroke="#000000" points="513,-112.5 513,-131.5 605,-131.5 605,-112.5 513,-112.5"/>
<text text-anchor="middle" x="559" y="-119.5" font-family="Helvetica,sans-Serif" font-size="10.00" fill="#000000">entity_manager.h</text>
</a>
</g>
</g>
<!-- Node1&#45;&gt;Node11 -->
<g id="edge14" class="edge">
<title>Node1&#45;&gt;Node11</title>
<path fill="none" stroke="#191970" d="M306.914,-168.4369C361.3532,-158.4086 446.6261,-142.7004 502.6668,-132.3772"/>
<polygon fill="#191970" stroke="#191970" points="503.5762,-135.7686 512.7766,-130.5148 502.308,-128.8844 503.5762,-135.7686"/>
</g>
<!-- Node5&#45;&gt;Node2 -->
<g id="edge6" class="edge">
<title>Node5&#45;&gt;Node2</title>
<path fill="none" stroke="#191970" d="M112.7104,-112.2455C96.2238,-103.4527 71.7648,-90.4079 53.0235,-80.4125"/>
<polygon fill="#191970" stroke="#191970" points="54.5506,-77.2604 44.08,-75.6427 51.2565,-83.4368 54.5506,-77.2604"/>
</g>
<!-- Node6 -->
<g id="node7" class="node">
<title>Node6</title>
<polygon fill="none" stroke="#bfbfbf" points="70.5,-56.5 70.5,-75.5 111.5,-75.5 111.5,-56.5 70.5,-56.5"/>
<text text-anchor="middle" x="91" y="-63.5" font-family="Helvetica,sans-Serif" font-size="10.00" fill="#000000">stack</text>
</g>
<!-- Node5&#45;&gt;Node6 -->
<g id="edge7" class="edge">
<title>Node5&#45;&gt;Node6</title>
<path fill="none" stroke="#191970" d="M124.0325,-112.2455C118.4689,-104.4564 110.522,-93.3308 103.8171,-83.9439"/>
<polygon fill="#191970" stroke="#191970" points="106.5481,-81.7457 97.8876,-75.6427 100.852,-85.8144 106.5481,-81.7457"/>
</g>
<!-- Node7 -->
<g id="node8" class="node">
<title>Node7</title>
<g id="a_node8"><a xlink:href="State_8hpp.html" target="_top" xlink:title="State.hpp">
<polygon fill="none" stroke="#000000" points="129.5,-56.5 129.5,-75.5 188.5,-75.5 188.5,-56.5 129.5,-56.5"/>
<text text-anchor="middle" x="159" y="-63.5" font-family="Helvetica,sans-Serif" font-size="10.00" fill="#000000">State.hpp</text>
</a>
</g>
</g>
<!-- Node5&#45;&gt;Node7 -->
<g id="edge8" class="edge">
<title>Node5&#45;&gt;Node7</title>
<path fill="none" stroke="#191970" d="M135.8772,-112.2455C139.6513,-104.6973 144.9921,-94.0158 149.5901,-84.8197"/>
<polygon fill="#191970" stroke="#191970" points="152.837,-86.1522 154.1787,-75.6427 146.576,-83.0217 152.837,-86.1522"/>
</g>
<!-- Node8&#45;&gt;Node4 -->
<g id="edge11" class="edge">
<title>Node8&#45;&gt;Node4</title>
<path fill="none" stroke="#191970" d="M326.6332,-112.4846C321.8233,-103.4206 315.0676,-89.234 312,-76 308.4742,-60.7895 307.8498,-43.0938 308.0381,-29.8566"/>
<polygon fill="#191970" stroke="#191970" points="311.5462,-29.6505 308.3603,-19.5461 304.5496,-29.4318 311.5462,-29.6505"/>
</g>
<!-- Node9 -->
<g id="node10" class="node">
<title>Node9</title>
<polygon fill="none" stroke="#bfbfbf" points="321.5,-56.5 321.5,-75.5 356.5,-75.5 356.5,-56.5 321.5,-56.5"/>
<text text-anchor="middle" x="339" y="-63.5" font-family="Helvetica,sans-Serif" font-size="10.00" fill="#000000">map</text>
</g>
<!-- Node8&#45;&gt;Node9 -->
<g id="edge10" class="edge">
<title>Node8&#45;&gt;Node9</title>
<path fill="none" stroke="#191970" d="M333.2193,-112.2455C334.1327,-104.9382 335.4132,-94.6944 336.5369,-85.7046"/>
<polygon fill="#191970" stroke="#191970" points="340.0272,-85.9996 337.7947,-75.6427 333.0813,-85.1313 340.0272,-85.9996"/>
</g>
<!-- Node10&#45;&gt;Node4 -->
<g id="edge13" class="edge">
<title>Node10&#45;&gt;Node4</title>
<path fill="none" stroke="#191970" d="M435.2342,-112.4509C411.5045,-93.1921 357.6965,-49.5218 328.5831,-25.8935"/>
<polygon fill="#191970" stroke="#191970" points="330.7062,-23.109 320.736,-19.5249 326.295,-28.5442 330.7062,-23.109"/>
</g>
<!-- Node12 -->
<g id="node13" class="node">
<title>Node12</title>
<polygon fill="none" stroke="#bfbfbf" points="519.5,-56.5 519.5,-75.5 602.5,-75.5 602.5,-56.5 519.5,-56.5"/>
<text text-anchor="middle" x="561" y="-63.5" font-family="Helvetica,sans-Serif" font-size="10.00" fill="#000000">unordered_map</text>
</g>
<!-- Node11&#45;&gt;Node12 -->
<g id="edge15" class="edge">
<title>Node11&#45;&gt;Node12</title>
<path fill="none" stroke="#191970" d="M559.3484,-112.2455C559.6093,-104.9382 559.9752,-94.6944 560.2963,-85.7046"/>
<polygon fill="#191970" stroke="#191970" points="563.7964,-85.7613 560.6556,-75.6427 556.8008,-85.5113 563.7964,-85.7613"/>
</g>
<!-- Node13 -->
<g id="node14" class="node">
<title>Node13</title>
<polygon fill="none" stroke="#bfbfbf" points="621,-56.5 621,-75.5 665,-75.5 665,-56.5 621,-56.5"/>
<text text-anchor="middle" x="643" y="-63.5" font-family="Helvetica,sans-Serif" font-size="10.00" fill="#000000">vector</text>
</g>
<!-- Node11&#45;&gt;Node13 -->
<g id="edge16" class="edge">
<title>Node11&#45;&gt;Node13</title>
<path fill="none" stroke="#191970" d="M573.6317,-112.2455C586.3994,-103.7337 605.1438,-91.2375 619.9299,-81.3801"/>
<polygon fill="#191970" stroke="#191970" points="622.1569,-84.1019 628.536,-75.6427 618.274,-78.2775 622.1569,-84.1019"/>
</g>
<!-- Node14 -->
<g id="node15" class="node">
<title>Node14</title>
<polygon fill="none" stroke="#bfbfbf" points="451,-.5 451,-19.5 531,-19.5 531,-.5 451,-.5"/>
<text text-anchor="middle" x="491" y="-7.5" font-family="Helvetica,sans-Serif" font-size="10.00" fill="#000000">box2d/box2d.h</text>
</g>
<!-- Node11&#45;&gt;Node14 -->
<g id="edge17" class="edge">
<title>Node11&#45;&gt;Node14</title>
<path fill="none" stroke="#191970" d="M545.7845,-112.4609C534.9791,-104.0126 520.0561,-90.7559 511,-76 502.2039,-61.6677 497.0394,-43.1953 494.1694,-29.4399"/>
<polygon fill="#191970" stroke="#191970" points="497.6065,-28.7786 492.334,-19.5889 490.7249,-30.0608 497.6065,-28.7786"/>
</g>
<!-- Node15 -->
<g id="node16" class="node">
<title>Node15</title>
<g id="a_node16"><a xlink:href="entity_8h.html" target="_top" xlink:title="entity.h">
<polygon fill="none" stroke="#000000" points="413.5,-56.5 413.5,-75.5 462.5,-75.5 462.5,-56.5 413.5,-56.5"/>
<text text-anchor="middle" x="438" y="-63.5" font-family="Helvetica,sans-Serif" font-size="10.00" fill="#000000">entity.h</text>
</a>
</g>
</g>
<!-- Node11&#45;&gt;Node15 -->
<g id="edge18" class="edge">
<title>Node11&#45;&gt;Node15</title>
<path fill="none" stroke="#191970" d="M538.1994,-112.3733C518.7757,-103.3838 489.5776,-89.8706 467.7036,-79.7471"/>
<polygon fill="#191970" stroke="#191970" points="469.0745,-76.5249 458.5292,-75.5011 466.1344,-82.8776 469.0745,-76.5249"/>
</g>
<!-- Node15&#45;&gt;Node3 -->
<g id="edge20" class="edge">
<title>Node15&#45;&gt;Node3</title>
<path fill="none" stroke="#191970" d="M413.231,-60.7029C378.5755,-53.1415 313.4807,-38.3947 248.5755,-19.9799"/>
<polygon fill="#191970" stroke="#191970" points="249.1629,-16.5073 238.5855,-17.1154 247.2335,-23.2362 249.1629,-16.5073"/>
</g>
<!-- Node15&#45;&gt;Node4 -->
<g id="edge19" class="edge">
<title>Node15&#45;&gt;Node4</title>
<path fill="none" stroke="#191970" d="M415.8241,-56.3733C395.0234,-47.3435 363.7083,-33.7494 340.3542,-23.6111"/>
<polygon fill="#191970" stroke="#191970" points="341.4532,-20.2727 330.8865,-19.5011 338.6657,-26.6938 341.4532,-20.2727"/>
</g>
<!-- Node15&#45;&gt;Node14 -->
<g id="edge21" class="edge">
<title>Node15&#45;&gt;Node14</title>
<path fill="none" stroke="#191970" d="M447.2319,-56.2455C454.8317,-48.2155 465.7877,-36.6394 474.8368,-27.0781"/>
<polygon fill="#191970" stroke="#191970" points="477.5421,-29.3115 481.8739,-19.6427 472.458,-24.4998 477.5421,-29.3115"/>
</g>
<!-- Node16 -->
<g id="node17" class="node">
<title>Node16</title>
<polygon fill="none" stroke="#bfbfbf" points="379,-.5 379,-19.5 433,-19.5 433,-.5 379,-.5"/>
<text text-anchor="middle" x="406" y="-7.5" font-family="Helvetica,sans-Serif" font-size="10.00" fill="#000000">iostream</text>
</g>
<!-- Node15&#45;&gt;Node16 -->
<g id="edge22" class="edge">
<title>Node15&#45;&gt;Node16</title>
<path fill="none" stroke="#191970" d="M432.426,-56.2455C428.0669,-48.617 421.8789,-37.7881 416.5867,-28.5267"/>
<polygon fill="#191970" stroke="#191970" points="419.5104,-26.5886 411.5101,-19.6427 413.4327,-30.0616 419.5104,-26.5886"/>
</g>
</g>
</svg>
        <g id="navigator" transform="translate(0 0)" fill="#404254">
                <rect fill="#f2f5e9" fill-opacity="0.5" stroke="#606060" stroke-width=".5" x="0" y="0" width="60" height="60"/>
                <use id="zoomplus" xlink:href="#zoomPlus" x="17" y="9" onmousedown="handleZoom(evt,'in')"/>
                <use id="zoomminus" xlink:href="#zoomMin" x="42" y="9" onmousedown="handleZoom(evt,'out')"/>
                <use id="reset" xlink:href="#resetDef" x="30" y="36" onmousedown="handleReset()"/>
                <g id="arrowUp" xlink:href="#dirArrow" transform="translate(30 24)" onmousedown="handlePan(0,-1)">
                  <use xlink:href="#rim" fill="#404040">
                        <set attributeName="fill" to="#808080" begin="arrowUp.mouseover" end="arrowUp.mouseout"/>
                  </use>
                  <path fill="none" stroke="white" stroke-width="1.5" d="M0,-3.0v7 M-2.5,-0.5L0,-3.0L2.5,-0.5"/>
                </g>
                <g id="arrowRight" xlink:href="#dirArrow" transform="rotate(90) translate(36 -43)" onmousedown="handlePan(1,0)">
                  <use xlink:href="#rim" fill="#404040">
                        <set attributeName="fill" to="#808080" begin="arrowRight.mouseover" end="arrowRight.mouseout"/>
                  </use>
                  <path fill="none" stroke="white" stroke-width="1.5" d="M0,-3.0v7 M-2.5,-0.5L0,-3.0L2.5,-0.5"/>
                </g>
                <g id="arrowDown" xlink:href="#dirArrow" transform="rotate(180) translate(-30 -48)" onmousedown="handlePan(0,1)">
                  <use xlink:href="#rim" fill="#404040">
                        <set attributeName="fill" to="#808080" begin="arrowDown.mouseover" end="arrowDown.mouseout"/>
                  </use>
                  <path fill="none" stroke="white" stroke-width="1.5" d="M0,-3.0v7 M-2.5,-0.5L0,-3.0L2.5,-0.5"/>
                </g>
                <g id="arrowLeft" xlink:href="#dirArrow" transform="rotate(270) translate(-36 17)" onmousedown="handlePan(-1,0)">
                  <use xlink:href="#rim" fill="#404040">
                        <set attributeName="fill" to="#808080" begin="arrowLeft.mouseover" end="arrowLeft.mouseout"/>
                  </use>
                  <path fill="none" stroke="white" stroke-width="1.5" d="M0,-3.0v7 M-2.5,-0.5L0,-3.0L2.5,-0.5"/>
                </g>
        </g>
        <svg viewBox="0 0 15 15" width="100%" height="30px" preserveAspectRatio="xMaxYMin meet">
         <g id="arrow_out" transform="scale(0.3 0.3)">
          <a xlink:href="main_8cpp__incl_org.svg" target="_base">
           <rect id="button" ry="5" rx="5" y="6" x="6" height="38" width="38"
                fill="#f2f5e9" fill-opacity="0.5" stroke="#606060" stroke-width="1.0"/>
           <path id="arrow"
             d="M 11.500037,31.436501 C 11.940474,20.09759 22.043105,11.32322 32.158766,21.979434 L 37.068811,17.246167 C 37.068811,17.246167 37.088388,32 37.088388,32 L 22.160133,31.978069 C 22.160133,31.978069 26.997745,27.140456 26.997745,27.140456 C 18.528582,18.264221 13.291696,25.230495 11.500037,31.436501 z"
             style="fill:#404040;"/>
          </a>
         </g>
        </svg>
</svg>
