<?xml version="1.0" encoding="UTF-8" standalone="no"?>
<!DOCTYPE svg PUBLIC "-//W3C//DTD SVG 1.1//EN"
 "http://www.w3.org/Graphics/SVG/1.1/DTD/svg11.dtd">
<!-- Generated by graphviz version 2.40.1 (20161225.0304)
 -->
<!-- Title: /mnt/hdd/C0de/Engines/SFML/SFML_Engine/include/Main_Player.hpp Pages: 1 -->
<svg width="827pt" height="284pt"
 viewBox="0.00 0.00 826.50 284.00" xmlns="http://www.w3.org/2000/svg" xmlns:xlink="http://www.w3.org/1999/xlink">
<g id="graph0" class="graph" transform="scale(1 1) rotate(0) translate(4 280)">
<title>/mnt/hdd/C0de/Engines/SFML/SFML_Engine/include/Main_Player.hpp</title>
<!-- Node24 -->
<g id="node1" class="node">
<title>Node24</title>
<polygon fill="#bfbfbf" stroke="#000000" points="458,-234.5 458,-275.5 602,-275.5 602,-234.5 458,-234.5"/>
<text text-anchor="start" x="466" y="-263.5" font-family="Helvetica,sans-Serif" font-size="10.00" fill="#000000">/mnt/hdd/C0de/Engines</text>
<text text-anchor="start" x="466" y="-252.5" font-family="Helvetica,sans-Serif" font-size="10.00" fill="#000000">/SFML/SFML_Engine/include</text>
<text text-anchor="middle" x="530" y="-241.5" font-family="Helvetica,sans-Serif" font-size="10.00" fill="#000000">/Main_Player.hpp</text>
</g>
<!-- Node25 -->
<g id="node2" class="node">
<title>Node25</title>
<g id="a_node2"><a xlink:href="LoadingGameObjects_8hpp.html" target="_top" xlink:title="/mnt/hdd/C0de/Engines\l/SFML/SFML_Engine/include\l/LoadingGameObjects.hpp">
<polygon fill="none" stroke="#000000" points="343,-156.5 343,-197.5 487,-197.5 487,-156.5 343,-156.5"/>
<text text-anchor="start" x="351" y="-185.5" font-family="Helvetica,sans-Serif" font-size="10.00" fill="#000000">/mnt/hdd/C0de/Engines</text>
<text text-anchor="start" x="351" y="-174.5" font-family="Helvetica,sans-Serif" font-size="10.00" fill="#000000">/SFML/SFML_Engine/include</text>
<text text-anchor="middle" x="415" y="-163.5" font-family="Helvetica,sans-Serif" font-size="10.00" fill="#000000">/LoadingGameObjects.hpp</text>
</a>
</g>
</g>
<!-- Node24&#45;&gt;Node25 -->
<g id="edge1" class="edge">
<title>Node24&#45;&gt;Node25</title>
<path fill="none" stroke="#191970" d="M490.9462,-228.5113C476.0218,-218.3887 459.243,-207.0083 445.2595,-197.5239"/>
<polygon fill="#191970" stroke="#191970" points="489.2434,-231.5855 499.484,-234.3022 493.1727,-225.7923 489.2434,-231.5855"/>
</g>
<!-- Node29 -->
<g id="node6" class="node">
<title>Node29</title>
<g id="a_node6"><a xlink:href="GameState_8hpp.html" target="_top" xlink:title="/mnt/hdd/C0de/Engines\l/SFML/SFML_Engine/include\l/GameState.hpp">
<polygon fill="none" stroke="#000000" points="474,-78.5 474,-119.5 618,-119.5 618,-78.5 474,-78.5"/>
<text text-anchor="start" x="482" y="-107.5" font-family="Helvetica,sans-Serif" font-size="10.00" fill="#000000">/mnt/hdd/C0de/Engines</text>
<text text-anchor="start" x="482" y="-96.5" font-family="Helvetica,sans-Serif" font-size="10.00" fill="#000000">/SFML/SFML_Engine/include</text>
<text text-anchor="middle" x="546" y="-85.5" font-family="Helvetica,sans-Serif" font-size="10.00" fill="#000000">/GameState.hpp</text>
</a>
</g>
</g>
<!-- Node24&#45;&gt;Node29 -->
<g id="edge17" class="edge">
<title>Node24&#45;&gt;Node29</title>
<path fill="none" stroke="#191970" d="M533.1723,-224.0704C536.3413,-193.1728 541.1247,-146.5341 543.8665,-119.8013"/>
<polygon fill="#191970" stroke="#191970" points="529.6633,-223.9795 532.1247,-234.2844 536.6268,-224.6937 529.6633,-223.9795"/>
</g>
<!-- Node36 -->
<g id="node13" class="node">
<title>Node36</title>
<g id="a_node13"><a xlink:href="Main__Player_8cpp.html" target="_top" xlink:title="/mnt/hdd/C0de/Engines\l/SFML/SFML_Engine/src\l/Main_Player.cpp">
<polygon fill="none" stroke="#000000" points="558.5,-156.5 558.5,-197.5 685.5,-197.5 685.5,-156.5 558.5,-156.5"/>
<text text-anchor="start" x="566.5" y="-185.5" font-family="Helvetica,sans-Serif" font-size="10.00" fill="#000000">/mnt/hdd/C0de/Engines</text>
<text text-anchor="start" x="566.5" y="-174.5" font-family="Helvetica,sans-Serif" font-size="10.00" fill="#000000">/SFML/SFML_Engine/src</text>
<text text-anchor="middle" x="622" y="-163.5" font-family="Helvetica,sans-Serif" font-size="10.00" fill="#000000">/Main_Player.cpp</text>
</a>
</g>
</g>
<!-- Node24&#45;&gt;Node36 -->
<g id="edge18" class="edge">
<title>Node24&#45;&gt;Node36</title>
<path fill="none" stroke="#191970" d="M562.4215,-227.5122C573.9898,-217.7043 586.8167,-206.8293 597.5966,-197.6898"/>
<polygon fill="#191970" stroke="#191970" points="560.0185,-224.9609 554.6543,-234.0974 564.5453,-230.3002 560.0185,-224.9609"/>
</g>
<!-- Node26 -->
<g id="node3" class="node">
<title>Node26</title>
<g id="a_node3"><a xlink:href="GameOverState_8hpp.html" target="_top" xlink:title="/mnt/hdd/C0de/Engines\l/SFML/SFML_Engine/include\l/GameOverState.hpp">
<polygon fill="none" stroke="#000000" points="636,-78.5 636,-119.5 780,-119.5 780,-78.5 636,-78.5"/>
<text text-anchor="start" x="644" y="-107.5" font-family="Helvetica,sans-Serif" font-size="10.00" fill="#000000">/mnt/hdd/C0de/Engines</text>
<text text-anchor="start" x="644" y="-96.5" font-family="Helvetica,sans-Serif" font-size="10.00" fill="#000000">/SFML/SFML_Engine/include</text>
<text text-anchor="middle" x="708" y="-85.5" font-family="Helvetica,sans-Serif" font-size="10.00" fill="#000000">/GameOverState.hpp</text>
</a>
</g>
</g>
<!-- Node25&#45;&gt;Node26 -->
<g id="edge2" class="edge">
<title>Node25&#45;&gt;Node26</title>
<path fill="none" stroke="#191970" d="M496.7951,-155.2252C540.5079,-143.5883 593.8389,-129.391 635.9734,-118.1743"/>
<polygon fill="#191970" stroke="#191970" points="495.8142,-151.8644 487.0511,-157.8192 497.615,-158.6288 495.8142,-151.8644"/>
</g>
<!-- Node25&#45;&gt;Node29 -->
<g id="edge5" class="edge">
<title>Node25&#45;&gt;Node29</title>
<path fill="none" stroke="#191970" d="M458.5363,-151.0776C475.7726,-140.8148 495.3037,-129.1856 511.5304,-119.5239"/>
<polygon fill="#191970" stroke="#191970" points="456.5633,-148.1789 449.7617,-156.3022 460.1445,-154.1935 456.5633,-148.1789"/>
</g>
<!-- Node32 -->
<g id="node9" class="node">
<title>Node32</title>
<g id="a_node9"><a xlink:href="MainMenuState_8hpp.html" target="_top" xlink:title="/mnt/hdd/C0de/Engines\l/SFML/SFML_Engine/include\l/MainMenuState.hpp">
<polygon fill="none" stroke="#000000" points="312,-78.5 312,-119.5 456,-119.5 456,-78.5 312,-78.5"/>
<text text-anchor="start" x="320" y="-107.5" font-family="Helvetica,sans-Serif" font-size="10.00" fill="#000000">/mnt/hdd/C0de/Engines</text>
<text text-anchor="start" x="320" y="-96.5" font-family="Helvetica,sans-Serif" font-size="10.00" fill="#000000">/SFML/SFML_Engine/include</text>
<text text-anchor="middle" x="384" y="-85.5" font-family="Helvetica,sans-Serif" font-size="10.00" fill="#000000">/MainMenuState.hpp</text>
</a>
</g>
</g>
<!-- Node25&#45;&gt;Node32 -->
<g id="edge10" class="edge">
<title>Node25&#45;&gt;Node32</title>
<path fill="none" stroke="#191970" d="M402.9402,-146.6559C399.3525,-137.629 395.506,-127.9505 392.2229,-119.6898"/>
<polygon fill="#191970" stroke="#191970" points="399.7466,-148.0972 406.6926,-156.0974 406.2517,-145.5118 399.7466,-148.0972"/>
</g>
<!-- Node34 -->
<g id="node11" class="node">
<title>Node34</title>
<g id="a_node11"><a xlink:href="SplashState_8hpp.html" target="_top" xlink:title="/mnt/hdd/C0de/Engines\l/SFML/SFML_Engine/include\l/SplashState.hpp">
<polygon fill="none" stroke="#000000" points="150,-78.5 150,-119.5 294,-119.5 294,-78.5 150,-78.5"/>
<text text-anchor="start" x="158" y="-107.5" font-family="Helvetica,sans-Serif" font-size="10.00" fill="#000000">/mnt/hdd/C0de/Engines</text>
<text text-anchor="start" x="158" y="-96.5" font-family="Helvetica,sans-Serif" font-size="10.00" fill="#000000">/SFML/SFML_Engine/include</text>
<text text-anchor="middle" x="222" y="-85.5" font-family="Helvetica,sans-Serif" font-size="10.00" fill="#000000">/SplashState.hpp</text>
</a>
</g>
</g>
<!-- Node25&#45;&gt;Node34 -->
<g id="edge13" class="edge">
<title>Node25&#45;&gt;Node34</title>
<path fill="none" stroke="#191970" d="M354.5814,-152.5821C328.3529,-141.982 297.9698,-129.7028 272.9116,-119.5757"/>
<polygon fill="#191970" stroke="#191970" points="353.4561,-155.9023 364.0391,-156.4044 356.0791,-149.4123 353.4561,-155.9023"/>
</g>
<!-- Node35 -->
<g id="node12" class="node">
<title>Node35</title>
<g id="a_node12"><a xlink:href="LoadingGameObjects_8cpp.html" target="_top" xlink:title="/mnt/hdd/C0de/Engines\l/SFML/SFML_Engine/src\l/LoadingGameObjects.cpp">
<polygon fill="none" stroke="#000000" points="0,-78.5 0,-119.5 132,-119.5 132,-78.5 0,-78.5"/>
<text text-anchor="start" x="8" y="-107.5" font-family="Helvetica,sans-Serif" font-size="10.00" fill="#000000">/mnt/hdd/C0de/Engines</text>
<text text-anchor="start" x="8" y="-96.5" font-family="Helvetica,sans-Serif" font-size="10.00" fill="#000000">/SFML/SFML_Engine/src</text>
<text text-anchor="middle" x="66" y="-85.5" font-family="Helvetica,sans-Serif" font-size="10.00" fill="#000000">/LoadingGameObjects.cpp</text>
</a>
</g>
</g>
<!-- Node25&#45;&gt;Node35 -->
<g id="edge16" class="edge">
<title>Node25&#45;&gt;Node35</title>
<path fill="none" stroke="#191970" d="M332.9028,-161.4345C278.2999,-150.7108 205.1049,-135.6234 141,-120 138.1098,-119.2956 135.1625,-118.5572 132.1892,-117.7958"/>
<polygon fill="#191970" stroke="#191970" points="332.3897,-164.9004 342.8757,-163.3852 333.7336,-158.0306 332.3897,-164.9004"/>
</g>
<!-- Node27 -->
<g id="node4" class="node">
<title>Node27</title>
<g id="a_node4"><a xlink:href="GameOverState_8cpp.html" target="_top" xlink:title="/mnt/hdd/C0de/Engines\l/SFML/SFML_Engine/src\l/GameOverState.cpp">
<polygon fill="none" stroke="#000000" points="546.5,-.5 546.5,-41.5 673.5,-41.5 673.5,-.5 546.5,-.5"/>
<text text-anchor="start" x="554.5" y="-29.5" font-family="Helvetica,sans-Serif" font-size="10.00" fill="#000000">/mnt/hdd/C0de/Engines</text>
<text text-anchor="start" x="554.5" y="-18.5" font-family="Helvetica,sans-Serif" font-size="10.00" fill="#000000">/SFML/SFML_Engine/src</text>
<text text-anchor="middle" x="610" y="-7.5" font-family="Helvetica,sans-Serif" font-size="10.00" fill="#000000">/GameOverState.cpp</text>
</a>
</g>
</g>
<!-- Node26&#45;&gt;Node27 -->
<g id="edge3" class="edge">
<title>Node26&#45;&gt;Node27</title>
<path fill="none" stroke="#191970" d="M674.0046,-71.9424C661.4675,-61.9639 647.48,-50.831 635.7864,-41.5239"/>
<polygon fill="#191970" stroke="#191970" points="671.9912,-74.8132 681.9951,-78.3022 676.3504,-69.3362 671.9912,-74.8132"/>
</g>
<!-- Node28 -->
<g id="node5" class="node">
<title>Node28</title>
<g id="a_node5"><a xlink:href="GameState_8cpp.html" target="_top" xlink:title="/mnt/hdd/C0de/Engines\l/SFML/SFML_Engine/src\l/GameState.cpp">
<polygon fill="none" stroke="#000000" points="691.5,-.5 691.5,-41.5 818.5,-41.5 818.5,-.5 691.5,-.5"/>
<text text-anchor="start" x="699.5" y="-29.5" font-family="Helvetica,sans-Serif" font-size="10.00" fill="#000000">/mnt/hdd/C0de/Engines</text>
<text text-anchor="start" x="699.5" y="-18.5" font-family="Helvetica,sans-Serif" font-size="10.00" fill="#000000">/SFML/SFML_Engine/src</text>
<text text-anchor="middle" x="755" y="-7.5" font-family="Helvetica,sans-Serif" font-size="10.00" fill="#000000">/GameState.cpp</text>
</a>
</g>
</g>
<!-- Node26&#45;&gt;Node28 -->
<g id="edge4" class="edge">
<title>Node26&#45;&gt;Node28</title>
<path fill="none" stroke="#191970" d="M725.7647,-69.5181C731.3504,-60.2482 737.3966,-50.2141 742.5331,-41.6898"/>
<polygon fill="#191970" stroke="#191970" points="722.7584,-67.7258 720.5951,-78.0974 728.7541,-71.3386 722.7584,-67.7258"/>
</g>
<!-- Node29&#45;&gt;Node27 -->
<g id="edge7" class="edge">
<title>Node29&#45;&gt;Node27</title>
<path fill="none" stroke="#191970" d="M569.7206,-70.0905C577.4563,-60.6626 585.8852,-50.3899 593.0238,-41.6898"/>
<polygon fill="#191970" stroke="#191970" points="566.7883,-68.1466 563.1508,-78.0974 572.1998,-72.5868 566.7883,-68.1466"/>
</g>
<!-- Node29&#45;&gt;Node28 -->
<g id="edge8" class="edge">
<title>Node29&#45;&gt;Node28</title>
<path fill="none" stroke="#191970" d="M610.681,-74.8607C639.2527,-64.1976 672.4941,-51.7917 699.8678,-41.5757"/>
<polygon fill="#191970" stroke="#191970" points="609.3307,-71.6287 601.1857,-78.4044 611.7783,-78.1869 609.3307,-71.6287"/>
</g>
<!-- Node30 -->
<g id="node7" class="node">
<title>Node30</title>
<g id="a_node7"><a xlink:href="Game_8cpp.html" target="_top" xlink:title="/mnt/hdd/C0de/Engines\l/SFML/SFML_Engine/src\l/Game.cpp">
<polygon fill="none" stroke="#000000" points="256.5,-.5 256.5,-41.5 383.5,-41.5 383.5,-.5 256.5,-.5"/>
<text text-anchor="start" x="264.5" y="-29.5" font-family="Helvetica,sans-Serif" font-size="10.00" fill="#000000">/mnt/hdd/C0de/Engines</text>
<text text-anchor="start" x="264.5" y="-18.5" font-family="Helvetica,sans-Serif" font-size="10.00" fill="#000000">/SFML/SFML_Engine/src</text>
<text text-anchor="middle" x="320" y="-7.5" font-family="Helvetica,sans-Serif" font-size="10.00" fill="#000000">/Game.cpp</text>
</a>
</g>
</g>
<!-- Node29&#45;&gt;Node30 -->
<g id="edge6" class="edge">
<title>Node29&#45;&gt;Node30</title>
<path fill="none" stroke="#191970" d="M476.8627,-75.1385C445.7878,-64.4135 409.4743,-51.8805 379.6167,-41.5757"/>
<polygon fill="#191970" stroke="#191970" points="475.7308,-78.4503 486.3255,-78.4044 478.0146,-71.8333 475.7308,-78.4503"/>
</g>
<!-- Node31 -->
<g id="node8" class="node">
<title>Node31</title>
<g id="a_node8"><a xlink:href="MainMenuState_8cpp.html" target="_top" xlink:title="/mnt/hdd/C0de/Engines\l/SFML/SFML_Engine/src\l/MainMenuState.cpp">
<polygon fill="none" stroke="#000000" points="401.5,-.5 401.5,-41.5 528.5,-41.5 528.5,-.5 401.5,-.5"/>
<text text-anchor="start" x="409.5" y="-29.5" font-family="Helvetica,sans-Serif" font-size="10.00" fill="#000000">/mnt/hdd/C0de/Engines</text>
<text text-anchor="start" x="409.5" y="-18.5" font-family="Helvetica,sans-Serif" font-size="10.00" fill="#000000">/SFML/SFML_Engine/src</text>
<text text-anchor="middle" x="465" y="-7.5" font-family="Helvetica,sans-Serif" font-size="10.00" fill="#000000">/MainMenuState.cpp</text>
</a>
</g>
</g>
<!-- Node29&#45;&gt;Node31 -->
<g id="edge9" class="edge">
<title>Node29&#45;&gt;Node31</title>
<path fill="none" stroke="#191970" d="M516.8662,-70.9452C506.8361,-61.2866 495.7941,-50.6535 486.4856,-41.6898"/>
<polygon fill="#191970" stroke="#191970" points="514.6625,-73.6821 524.2935,-78.0974 519.518,-68.6399 514.6625,-73.6821"/>
</g>
<!-- Node32&#45;&gt;Node31 -->
<g id="edge11" class="edge">
<title>Node32&#45;&gt;Node31</title>
<path fill="none" stroke="#191970" d="M413.1338,-70.9452C423.1639,-61.2866 434.2059,-50.6535 443.5144,-41.6898"/>
<polygon fill="#191970" stroke="#191970" points="410.482,-68.6399 405.7065,-78.0974 415.3375,-73.6821 410.482,-68.6399"/>
</g>
<!-- Node33 -->
<g id="node10" class="node">
<title>Node33</title>
<g id="a_node10"><a xlink:href="SplashState_8cpp.html" target="_top" xlink:title="/mnt/hdd/C0de/Engines\l/SFML/SFML_Engine/src\l/SplashState.cpp">
<polygon fill="none" stroke="#000000" points="111.5,-.5 111.5,-41.5 238.5,-41.5 238.5,-.5 111.5,-.5"/>
<text text-anchor="start" x="119.5" y="-29.5" font-family="Helvetica,sans-Serif" font-size="10.00" fill="#000000">/mnt/hdd/C0de/Engines</text>
<text text-anchor="start" x="119.5" y="-18.5" font-family="Helvetica,sans-Serif" font-size="10.00" fill="#000000">/SFML/SFML_Engine/src</text>
<text text-anchor="middle" x="175" y="-7.5" font-family="Helvetica,sans-Serif" font-size="10.00" fill="#000000">/SplashState.cpp</text>
</a>
</g>
</g>
<!-- Node32&#45;&gt;Node33 -->
<g id="edge12" class="edge">
<title>Node32&#45;&gt;Node33</title>
<path fill="none" stroke="#191970" d="M319.319,-74.8607C290.7473,-64.1976 257.5059,-51.7917 230.1322,-41.5757"/>
<polygon fill="#191970" stroke="#191970" points="318.2217,-78.1869 328.8143,-78.4044 320.6693,-71.6287 318.2217,-78.1869"/>
</g>
<!-- Node34&#45;&gt;Node30 -->
<g id="edge14" class="edge">
<title>Node34&#45;&gt;Node30</title>
<path fill="none" stroke="#191970" d="M255.9954,-71.9424C268.5325,-61.9639 282.52,-50.831 294.2136,-41.5239"/>
<polygon fill="#191970" stroke="#191970" points="253.6496,-69.3362 248.0049,-78.3022 258.0088,-74.8132 253.6496,-69.3362"/>
</g>
<!-- Node34&#45;&gt;Node33 -->
<g id="edge15" class="edge">
<title>Node34&#45;&gt;Node33</title>
<path fill="none" stroke="#191970" d="M204.2353,-69.5181C198.6496,-60.2482 192.6034,-50.2141 187.4669,-41.6898"/>
<polygon fill="#191970" stroke="#191970" points="201.2459,-71.3386 209.4049,-78.0974 207.2416,-67.7258 201.2459,-71.3386"/>
</g>
</g>
</svg>
