<?xml version="1.0" encoding="UTF-8" standalone="no"?>
<!DOCTYPE svg PUBLIC "-//W3C//DTD SVG 1.1//EN"
 "http://www.w3.org/Graphics/SVG/1.1/DTD/svg11.dtd">
<!-- Generated by graphviz version 2.40.1 (20161225.0304)
 -->
<!-- Title: /mnt/hdd/C0de/Engines/SFML/SFML_Engine/src/Main_Player.cpp Pages: 1 -->
<!--zoomable 498 -->
<svg id="main" version="1.1" xmlns="http://www.w3.org/2000/svg" xmlns:xlink="http://www.w3.org/1999/xlink" xml:space="preserve" onload="init(evt)">
<style type="text/css"><![CDATA[
.edge:hover path { stroke: red; }
.edge:hover polygon { stroke: red; fill: red; }
]]></style>
<script type="text/javascript"><![CDATA[
var edges = document.getElementsByTagName('g');
if (edges && edges.length) {
  for (var i=0;i<edges.length;i++) {
    if (edges[i].id.substr(0,4)=='edge') {
      edges[i].setAttribute('class','edge');
    }
  }
}
]]></script>
        <defs>
                <circle id="rim" cx="0" cy="0" r="7"/>
                <circle id="rim2" cx="0" cy="0" r="3.5"/>
                <g id="zoomPlus">
                        <use xlink:href="#rim" fill="#404040">
                                <set attributeName="fill" to="#808080" begin="zoomplus.mouseover" end="zoomplus.mouseout"/>
                        </use>
                        <path d="M-4,0h8M0,-4v8" fill="none" stroke="white" stroke-width="1.5" pointer-events="none"/>
                </g>
                <g id="zoomMin">
                        <use xlink:href="#rim" fill="#404040">
                                <set attributeName="fill" to="#808080" begin="zoomminus.mouseover" end="zoomminus.mouseout"/>
                        </use>
                        <path d="M-4,0h8" fill="none" stroke="white" stroke-width="1.5" pointer-events="none"/>
                </g>
                <g id="dirArrow">
                        <path fill="none" stroke="white" stroke-width="1.5" d="M0,-3.0v7 M-2.5,-0.5L0,-3.0L2.5,-0.5"/>
                </g>
               <g id="resetDef">
                       <use xlink:href="#rim2" fill="#404040">
                               <set attributeName="fill" to="#808080" begin="reset.mouseover" end="reset.mouseout"/>
                       </use>
               </g>
        </defs>

<script type="text/javascript">
var viewWidth = 1112;
var viewHeight = 498;
var sectionId = 'dynsection-0';
</script>
<script xlink:href="svgpan.js"/>
<svg id="graph" class="graph">
<g id="viewport">
<title>/mnt/hdd/C0de/Engines/SFML/SFML_Engine/src/Main_Player.cpp</title>
<!-- Node0 -->
<g id="node1" class="node">
<title>Node0</title>
<polygon fill="#bfbfbf" stroke="#000000" points="832.8134,-448.5 832.8134,-489.5 959.8134,-489.5 959.8134,-448.5 832.8134,-448.5"/>
<text text-anchor="start" x="840.8134" y="-477.5" font-family="Helvetica,sans-Serif" font-size="10.00" fill="#000000">/mnt/hdd/C0de/Engines</text>
<text text-anchor="start" x="840.8134" y="-466.5" font-family="Helvetica,sans-Serif" font-size="10.00" fill="#000000">/SFML/SFML_Engine/src</text>
<text text-anchor="middle" x="896.3134" y="-455.5" font-family="Helvetica,sans-Serif" font-size="10.00" fill="#000000">/Main_Player.cpp</text>
</g>
<!-- Node1 -->
<g id="node2" class="node">
<title>Node1</title>
<g id="a_node2"><a xlink:href="Main__Player_8hpp.html" target="_top" xlink:title="../include/Main_Player.hpp">
<polygon fill="none" stroke="#000000" points="830.3134,-392.5 830.3134,-411.5 962.3134,-411.5 962.3134,-392.5 830.3134,-392.5"/>
<text text-anchor="middle" x="896.3134" y="-399.5" font-family="Helvetica,sans-Serif" font-size="10.00" fill="#000000">../include/Main_Player.hpp</text>
</a>
</g>
</g>
<!-- Node0&#45;&gt;Node1 -->
<g id="edge1" class="edge">
<title>Node0&#45;&gt;Node1</title>
<path fill="none" stroke="#191970" d="M896.3134,-448.168C896.3134,-439.8226 896.3134,-430.2471 896.3134,-421.9879"/>
<polygon fill="#191970" stroke="#191970" points="899.8135,-421.7804 896.3134,-411.7805 892.8135,-421.7805 899.8135,-421.7804"/>
</g>
<!-- Node2 -->
<g id="node3" class="node">
<title>Node2</title>
<g id="a_node3"><a xlink:href="GameWorld_8hpp.html" target="_top" xlink:title="GameWorld.hpp">
<polygon fill="none" stroke="#000000" points="518.8134,-224.5 518.8134,-243.5 605.8134,-243.5 605.8134,-224.5 518.8134,-224.5"/>
<text text-anchor="middle" x="562.3134" y="-231.5" font-family="Helvetica,sans-Serif" font-size="10.00" fill="#000000">GameWorld.hpp</text>
</a>
</g>
</g>
<!-- Node1&#45;&gt;Node2 -->
<g id="edge2" class="edge">
<title>Node1&#45;&gt;Node2</title>
<path fill="none" stroke="#191970" d="M858.2011,-392.4438C828.444,-384.3837 786.4015,-371.6661 751.3134,-356 706.5595,-336.0184 697.5131,-326.5473 656.3134,-300 630.701,-283.4965 602.1748,-263.1807 583.3379,-249.4833"/>
<polygon fill="#191970" stroke="#191970" points="585.307,-246.5873 575.1674,-243.5148 581.1779,-252.2398 585.307,-246.5873"/>
</g>
<!-- Node19 -->
<g id="node20" class="node">
<title>Node19</title>
<polygon fill="none" stroke="#bfbfbf" points="792.3134,-.5 792.3134,-19.5 846.3134,-19.5 846.3134,-.5 792.3134,-.5"/>
<text text-anchor="middle" x="819.3134" y="-7.5" font-family="Helvetica,sans-Serif" font-size="10.00" fill="#000000">iostream</text>
</g>
<!-- Node1&#45;&gt;Node19 -->
<g id="edge36" class="edge">
<title>Node1&#45;&gt;Node19</title>
<path fill="none" stroke="#191970" d="M896.3134,-392.4116C896.3134,-373.0538 896.3134,-327.9167 896.3134,-290 896.3134,-290 896.3134,-290 896.3134,-122 896.3134,-82.0704 862.6694,-45.9919 839.8595,-26.1198"/>
<polygon fill="#191970" stroke="#191970" points="841.9403,-23.297 832.0284,-19.5547 837.4431,-28.6614 841.9403,-23.297"/>
</g>
<!-- Node20 -->
<g id="node21" class="node">
<title>Node20</title>
<g id="a_node21"><a xlink:href="Bullet_8hpp.html" target="_top" xlink:title="Bullet.hpp">
<polygon fill="none" stroke="#000000" points="808.3134,-280.5 808.3134,-299.5 868.3134,-299.5 868.3134,-280.5 808.3134,-280.5"/>
<text text-anchor="middle" x="838.3134" y="-287.5" font-family="Helvetica,sans-Serif" font-size="10.00" fill="#000000">Bullet.hpp</text>
</a>
</g>
</g>
<!-- Node1&#45;&gt;Node20 -->
<g id="edge29" class="edge">
<title>Node1&#45;&gt;Node20</title>
<path fill="none" stroke="#191970" d="M891.3684,-392.4509C881.7803,-373.936 860.5083,-332.8591 848.007,-308.7187"/>
<polygon fill="#191970" stroke="#191970" points="850.9525,-306.7953 843.2459,-299.5249 844.7365,-310.0144 850.9525,-306.7953"/>
</g>
<!-- Node21 -->
<g id="node22" class="node">
<title>Node21</title>
<g id="a_node22"><a xlink:href="Gun_8hpp.html" target="_top" xlink:title="Gun.hpp">
<polygon fill="none" stroke="#000000" points="759.8134,-336.5 759.8134,-355.5 812.8134,-355.5 812.8134,-336.5 759.8134,-336.5"/>
<text text-anchor="middle" x="786.3134" y="-343.5" font-family="Helvetica,sans-Serif" font-size="10.00" fill="#000000">Gun.hpp</text>
</a>
</g>
</g>
<!-- Node1&#45;&gt;Node21 -->
<g id="edge32" class="edge">
<title>Node1&#45;&gt;Node21</title>
<path fill="none" stroke="#191970" d="M877.1529,-392.2455C859.8023,-383.4125 834.0234,-370.2887 814.3551,-360.2758"/>
<polygon fill="#191970" stroke="#191970" points="815.7539,-357.0605 805.2544,-355.6427 812.5781,-363.2986 815.7539,-357.0605"/>
</g>
<!-- Node22 -->
<g id="node23" class="node">
<title>Node22</title>
<polygon fill="none" stroke="#bfbfbf" points="924.3134,-336.5 924.3134,-355.5 972.3134,-355.5 972.3134,-336.5 924.3134,-336.5"/>
<text text-anchor="middle" x="948.3134" y="-343.5" font-family="Helvetica,sans-Serif" font-size="10.00" fill="#000000">stdlib.h</text>
</g>
<!-- Node1&#45;&gt;Node22 -->
<g id="edge37" class="edge">
<title>Node1&#45;&gt;Node22</title>
<path fill="none" stroke="#191970" d="M905.3711,-392.2455C912.8276,-384.2155 923.5768,-372.6394 932.4551,-363.0781"/>
<polygon fill="#191970" stroke="#191970" points="935.1197,-365.3522 939.3595,-355.6427 929.9902,-360.589 935.1197,-365.3522"/>
</g>
<!-- Node23 -->
<g id="node24" class="node">
<title>Node23</title>
<polygon fill="none" stroke="#bfbfbf" points="990.3134,-336.5 990.3134,-355.5 1034.3134,-355.5 1034.3134,-336.5 990.3134,-336.5"/>
<text text-anchor="middle" x="1012.3134" y="-343.5" font-family="Helvetica,sans-Serif" font-size="10.00" fill="#000000">time.h</text>
</g>
<!-- Node1&#45;&gt;Node23 -->
<g id="edge38" class="edge">
<title>Node1&#45;&gt;Node23</title>
<path fill="none" stroke="#191970" d="M916.2545,-392.3733C934.792,-383.4241 962.6162,-369.9917 983.5547,-359.8835"/>
<polygon fill="#191970" stroke="#191970" points="985.1486,-363.0006 992.6325,-355.5011 982.1053,-356.6967 985.1486,-363.0006"/>
</g>
<!-- Node24 -->
<g id="node25" class="node">
<title>Node24</title>
<polygon fill="none" stroke="#bfbfbf" points="1052.8134,-336.5 1052.8134,-355.5 1103.8134,-355.5 1103.8134,-336.5 1052.8134,-336.5"/>
<text text-anchor="middle" x="1078.3134" y="-343.5" font-family="Helvetica,sans-Serif" font-size="10.00" fill="#000000">unistd.h</text>
</g>
<!-- Node1&#45;&gt;Node24 -->
<g id="edge39" class="edge">
<title>Node1&#45;&gt;Node24</title>
<path fill="none" stroke="#191970" d="M927.6003,-392.3733C959.6531,-382.5109 1009.4018,-367.2036 1042.8849,-356.9011"/>
<polygon fill="#191970" stroke="#191970" points="1044.188,-360.1622 1052.7164,-353.876 1042.1293,-353.4717 1044.188,-360.1622"/>
</g>
<!-- Node3 -->
<g id="node4" class="node">
<title>Node3</title>
<polygon fill="none" stroke="#bfbfbf" points="90.3134,-.5 90.3134,-19.5 194.3134,-19.5 194.3134,-.5 90.3134,-.5"/>
<text text-anchor="middle" x="142.3134" y="-7.5" font-family="Helvetica,sans-Serif" font-size="10.00" fill="#000000">SFML/Graphics.hpp</text>
</g>
<!-- Node2&#45;&gt;Node3 -->
<g id="edge3" class="edge">
<title>Node2&#45;&gt;Node3</title>
<path fill="none" stroke="#191970" d="M518.4574,-232.9167C399.1513,-228.9453 73.3628,-210.9374 9.3134,-132 -26.7605,-87.5408 56.4202,-44.3943 106.9944,-23.3368"/>
<polygon fill="#191970" stroke="#191970" points="108.3783,-26.5524 116.3258,-19.5462 105.7437,-20.0671 108.3783,-26.5524"/>
</g>
<!-- Node4 -->
<g id="node5" class="node">
<title>Node4</title>
<g id="a_node5"><a xlink:href="DEFINITIONS_8hpp.html" target="_top" xlink:title="DEFINITIONS.hpp">
<polygon fill="none" stroke="#000000" points="414.3134,-168.5 414.3134,-187.5 514.3134,-187.5 514.3134,-168.5 414.3134,-168.5"/>
<text text-anchor="middle" x="464.3134" y="-175.5" font-family="Helvetica,sans-Serif" font-size="10.00" fill="#000000">DEFINITIONS.hpp</text>
</a>
</g>
</g>
<!-- Node2&#45;&gt;Node4 -->
<g id="edge4" class="edge">
<title>Node2&#45;&gt;Node4</title>
<path fill="none" stroke="#191970" d="M545.2431,-224.2455C530.0664,-215.5731 507.6513,-202.7645 490.2571,-192.825"/>
<polygon fill="#191970" stroke="#191970" points="491.607,-189.5653 481.1881,-187.6427 488.134,-195.643 491.607,-189.5653"/>
</g>
<!-- Node5 -->
<g id="node6" class="node">
<title>Node5</title>
<g id="a_node6"><a xlink:href="Game_8hpp.html" target="_top" xlink:title="Game.hpp">
<polygon fill="none" stroke="#000000" points="284.3134,-168.5 284.3134,-187.5 346.3134,-187.5 346.3134,-168.5 284.3134,-168.5"/>
<text text-anchor="middle" x="315.3134" y="-175.5" font-family="Helvetica,sans-Serif" font-size="10.00" fill="#000000">Game.hpp</text>
</a>
</g>
</g>
<!-- Node2&#45;&gt;Node5 -->
<g id="edge5" class="edge">
<title>Node2&#45;&gt;Node5</title>
<path fill="none" stroke="#191970" d="M520.1332,-224.4369C474.2744,-214.0397 401.4861,-197.5371 356.1582,-187.2604"/>
<polygon fill="#191970" stroke="#191970" points="356.8949,-183.8386 346.3685,-185.0408 355.347,-190.6654 356.8949,-183.8386"/>
</g>
<!-- Node14 -->
<g id="node15" class="node">
<title>Node14</title>
<g id="a_node15"><a xlink:href="entity__manager_8h.html" target="_top" xlink:title="entity_manager.h">
<polygon fill="none" stroke="#000000" points="570.3134,-112.5 570.3134,-131.5 662.3134,-131.5 662.3134,-112.5 570.3134,-112.5"/>
<text text-anchor="middle" x="616.3134" y="-119.5" font-family="Helvetica,sans-Serif" font-size="10.00" fill="#000000">entity_manager.h</text>
</a>
</g>
</g>
<!-- Node2&#45;&gt;Node14 -->
<g id="edge27" class="edge">
<title>Node2&#45;&gt;Node14</title>
<path fill="none" stroke="#191970" d="M566.9174,-224.4509C575.8443,-205.936 595.6492,-164.8591 607.2883,-140.7187"/>
<polygon fill="#191970" stroke="#191970" points="610.5307,-142.0527 611.721,-131.5249 604.2253,-139.0125 610.5307,-142.0527"/>
</g>
<!-- Node16 -->
<g id="node17" class="node">
<title>Node16</title>
<polygon fill="none" stroke="#bfbfbf" points="520.3134,-56.5 520.3134,-75.5 564.3134,-75.5 564.3134,-56.5 520.3134,-56.5"/>
<text text-anchor="middle" x="542.3134" y="-63.5" font-family="Helvetica,sans-Serif" font-size="10.00" fill="#000000">vector</text>
</g>
<!-- Node2&#45;&gt;Node16 -->
<g id="edge28" class="edge">
<title>Node2&#45;&gt;Node16</title>
<path fill="none" stroke="#191970" d="M561.1808,-224.4862C558.0193,-197.9293 549.0474,-122.5651 544.7141,-86.1655"/>
<polygon fill="#191970" stroke="#191970" points="548.1411,-85.344 543.4834,-75.8279 541.1901,-86.1715 548.1411,-85.344"/>
</g>
<!-- Node5&#45;&gt;Node3 -->
<g id="edge8" class="edge">
<title>Node5&#45;&gt;Node3</title>
<path fill="none" stroke="#191970" d="M283.983,-172.6876C243.8145,-165.221 177.4128,-150.4482 161.3134,-132 136.4016,-103.4536 136.8323,-56.1692 139.4864,-29.6292"/>
<polygon fill="#191970" stroke="#191970" points="142.9685,-29.9876 140.6926,-19.6401 136.0189,-29.1484 142.9685,-29.9876"/>
</g>
<!-- Node6 -->
<g id="node7" class="node">
<title>Node6</title>
<polygon fill="none" stroke="#bfbfbf" points="313.3134,-56.5 313.3134,-75.5 365.3134,-75.5 365.3134,-56.5 313.3134,-56.5"/>
<text text-anchor="middle" x="339.3134" y="-63.5" font-family="Helvetica,sans-Serif" font-size="10.00" fill="#000000">memory</text>
</g>
<!-- Node5&#45;&gt;Node6 -->
<g id="edge6" class="edge">
<title>Node5&#45;&gt;Node6</title>
<path fill="none" stroke="#191970" d="M317.3596,-168.4509C321.2917,-150.1013 329.9725,-109.5908 335.1628,-85.3693"/>
<polygon fill="#191970" stroke="#191970" points="338.5993,-86.0363 337.2724,-75.5249 331.7547,-84.5695 338.5993,-86.0363"/>
</g>
<!-- Node7 -->
<g id="node8" class="node">
<title>Node7</title>
<polygon fill="none" stroke="#bfbfbf" points="385.8134,-.5 385.8134,-19.5 426.8134,-19.5 426.8134,-.5 385.8134,-.5"/>
<text text-anchor="middle" x="406.3134" y="-7.5" font-family="Helvetica,sans-Serif" font-size="10.00" fill="#000000">string</text>
</g>
<!-- Node5&#45;&gt;Node7 -->
<g id="edge7" class="edge">
<title>Node5&#45;&gt;Node7</title>
<path fill="none" stroke="#191970" d="M310.7965,-168.4978C301.128,-146.6374 281.1184,-91.9051 304.3134,-56 319.9232,-31.8366 351.6046,-20.236 375.5407,-14.7495"/>
<polygon fill="#191970" stroke="#191970" points="376.4859,-18.1286 385.581,-12.6945 375.0823,-11.2708 376.4859,-18.1286"/>
</g>
<!-- Node8 -->
<g id="node9" class="node">
<title>Node8</title>
<g id="a_node9"><a xlink:href="StateMachine_8hpp.html" target="_top" xlink:title="StateMachine.hpp">
<polygon fill="none" stroke="#000000" points="362.8134,-112.5 362.8134,-131.5 457.8134,-131.5 457.8134,-112.5 362.8134,-112.5"/>
<text text-anchor="middle" x="410.3134" y="-119.5" font-family="Helvetica,sans-Serif" font-size="10.00" fill="#000000">StateMachine.hpp</text>
</a>
</g>
</g>
<!-- Node5&#45;&gt;Node8 -->
<g id="edge9" class="edge">
<title>Node5&#45;&gt;Node8</title>
<path fill="none" stroke="#191970" d="M331.8611,-168.2455C346.5733,-159.5731 368.3022,-146.7645 385.1639,-136.825"/>
<polygon fill="#191970" stroke="#191970" points="387.118,-139.736 393.9553,-131.6427 383.5632,-133.7057 387.118,-139.736"/>
</g>
<!-- Node11 -->
<g id="node12" class="node">
<title>Node11</title>
<g id="a_node12"><a xlink:href="AssetManager_8hpp.html" target="_top" xlink:title="AssetManager.hpp">
<polygon fill="none" stroke="#000000" points="170.3134,-112.5 170.3134,-131.5 268.3134,-131.5 268.3134,-112.5 170.3134,-112.5"/>
<text text-anchor="middle" x="219.3134" y="-119.5" font-family="Helvetica,sans-Serif" font-size="10.00" fill="#000000">AssetManager.hpp</text>
</a>
</g>
</g>
<!-- Node5&#45;&gt;Node11 -->
<g id="edge13" class="edge">
<title>Node5&#45;&gt;Node11</title>
<path fill="none" stroke="#191970" d="M298.5915,-168.2455C283.7245,-159.5731 261.7669,-146.7645 244.7277,-136.825"/>
<polygon fill="#191970" stroke="#191970" points="246.2451,-133.6582 235.8437,-131.6427 242.7179,-139.7047 246.2451,-133.6582"/>
</g>
<!-- Node13 -->
<g id="node14" class="node">
<title>Node13</title>
<g id="a_node14"><a xlink:href="InputManager_8hpp.html" target="_top" xlink:title="InputManager.hpp">
<polygon fill="none" stroke="#000000" points="18.8134,-112.5 18.8134,-131.5 113.8134,-131.5 113.8134,-112.5 18.8134,-112.5"/>
<text text-anchor="middle" x="66.3134" y="-119.5" font-family="Helvetica,sans-Serif" font-size="10.00" fill="#000000">InputManager.hpp</text>
</a>
</g>
</g>
<!-- Node5&#45;&gt;Node13 -->
<g id="edge16" class="edge">
<title>Node5&#45;&gt;Node13</title>
<path fill="none" stroke="#191970" d="M284.2808,-171.0208C242.8124,-161.6945 168.7414,-145.036 118.5827,-133.7554"/>
<polygon fill="#191970" stroke="#191970" points="119.0992,-130.2841 108.5749,-131.5046 117.5632,-137.1136 119.0992,-130.2841"/>
</g>
<!-- Node5&#45;&gt;Node14 -->
<g id="edge18" class="edge">
<title>Node5&#45;&gt;Node14</title>
<path fill="none" stroke="#191970" d="M346.392,-172.2179C396.7606,-162.847 496.9355,-144.2098 560.0702,-132.4639"/>
<polygon fill="#191970" stroke="#191970" points="561.0639,-135.8391 570.2549,-130.569 559.7834,-128.9572 561.0639,-135.8391"/>
</g>
<!-- Node8&#45;&gt;Node6 -->
<g id="edge10" class="edge">
<title>Node8&#45;&gt;Node6</title>
<path fill="none" stroke="#191970" d="M397.9461,-112.2455C387.358,-103.8943 371.907,-91.7076 359.5241,-81.9408"/>
<polygon fill="#191970" stroke="#191970" points="361.5581,-79.0875 351.5389,-75.6427 357.2231,-84.5837 361.5581,-79.0875"/>
</g>
<!-- Node9 -->
<g id="node10" class="node">
<title>Node9</title>
<polygon fill="none" stroke="#bfbfbf" points="383.8134,-56.5 383.8134,-75.5 424.8134,-75.5 424.8134,-56.5 383.8134,-56.5"/>
<text text-anchor="middle" x="404.3134" y="-63.5" font-family="Helvetica,sans-Serif" font-size="10.00" fill="#000000">stack</text>
</g>
<!-- Node8&#45;&gt;Node9 -->
<g id="edge11" class="edge">
<title>Node8&#45;&gt;Node9</title>
<path fill="none" stroke="#191970" d="M409.2683,-112.2455C408.4854,-104.9382 407.3878,-94.6944 406.4246,-85.7046"/>
<polygon fill="#191970" stroke="#191970" points="409.8921,-85.2129 405.3465,-75.6427 402.9319,-85.9587 409.8921,-85.2129"/>
</g>
<!-- Node10 -->
<g id="node11" class="node">
<title>Node10</title>
<g id="a_node11"><a xlink:href="State_8hpp.html" target="_top" xlink:title="State.hpp">
<polygon fill="none" stroke="#000000" points="442.8134,-56.5 442.8134,-75.5 501.8134,-75.5 501.8134,-56.5 442.8134,-56.5"/>
<text text-anchor="middle" x="472.3134" y="-63.5" font-family="Helvetica,sans-Serif" font-size="10.00" fill="#000000">State.hpp</text>
</a>
</g>
</g>
<!-- Node8&#45;&gt;Node10 -->
<g id="edge12" class="edge">
<title>Node8&#45;&gt;Node10</title>
<path fill="none" stroke="#191970" d="M421.113,-112.2455C430.1812,-104.0549 443.334,-92.1749 454.0379,-82.5069"/>
<polygon fill="#191970" stroke="#191970" points="456.5625,-84.9429 461.6376,-75.6427 451.8705,-79.7482 456.5625,-84.9429"/>
</g>
<!-- Node11&#45;&gt;Node3 -->
<g id="edge15" class="edge">
<title>Node11&#45;&gt;Node3</title>
<path fill="none" stroke="#191970" d="M212.7484,-112.4509C199.9057,-93.7707 171.2735,-52.1238 154.7408,-28.0761"/>
<polygon fill="#191970" stroke="#191970" points="157.4112,-25.7825 148.8618,-19.5249 151.6429,-29.7482 157.4112,-25.7825"/>
</g>
<!-- Node12 -->
<g id="node13" class="node">
<title>Node12</title>
<polygon fill="none" stroke="#bfbfbf" points="208.8134,-56.5 208.8134,-75.5 243.8134,-75.5 243.8134,-56.5 208.8134,-56.5"/>
<text text-anchor="middle" x="226.3134" y="-63.5" font-family="Helvetica,sans-Serif" font-size="10.00" fill="#000000">map</text>
</g>
<!-- Node11&#45;&gt;Node12 -->
<g id="edge14" class="edge">
<title>Node11&#45;&gt;Node12</title>
<path fill="none" stroke="#191970" d="M220.5327,-112.2455C221.4461,-104.9382 222.7266,-94.6944 223.8503,-85.7046"/>
<polygon fill="#191970" stroke="#191970" points="227.3406,-85.9996 225.1081,-75.6427 220.3947,-85.1313 227.3406,-85.9996"/>
</g>
<!-- Node13&#45;&gt;Node3 -->
<g id="edge17" class="edge">
<title>Node13&#45;&gt;Node3</title>
<path fill="none" stroke="#191970" d="M72.7931,-112.4509C85.469,-93.7707 113.7294,-52.1238 130.0474,-28.0761"/>
<polygon fill="#191970" stroke="#191970" points="133.1312,-29.7649 135.8501,-19.5249 127.3389,-25.8344 133.1312,-29.7649"/>
</g>
<!-- Node15 -->
<g id="node16" class="node">
<title>Node15</title>
<polygon fill="none" stroke="#bfbfbf" points="688.8134,-56.5 688.8134,-75.5 771.8134,-75.5 771.8134,-56.5 688.8134,-56.5"/>
<text text-anchor="middle" x="730.3134" y="-63.5" font-family="Helvetica,sans-Serif" font-size="10.00" fill="#000000">unordered_map</text>
</g>
<!-- Node14&#45;&gt;Node15 -->
<g id="edge19" class="edge">
<title>Node14&#45;&gt;Node15</title>
<path fill="none" stroke="#191970" d="M635.9107,-112.3733C654.0465,-103.4644 681.2269,-90.1127 701.7721,-80.0203"/>
<polygon fill="#191970" stroke="#191970" points="703.5395,-83.0517 710.9718,-75.5011 700.4531,-76.7688 703.5395,-83.0517"/>
</g>
<!-- Node14&#45;&gt;Node16 -->
<g id="edge20" class="edge">
<title>Node14&#45;&gt;Node16</title>
<path fill="none" stroke="#191970" d="M603.4236,-112.2455C592.388,-103.8943 576.2842,-91.7076 563.3781,-81.9408"/>
<polygon fill="#191970" stroke="#191970" points="565.1417,-78.8862 555.0555,-75.6427 560.9175,-84.4681 565.1417,-78.8862"/>
</g>
<!-- Node17 -->
<g id="node18" class="node">
<title>Node17</title>
<polygon fill="none" stroke="#bfbfbf" points="593.3134,-.5 593.3134,-19.5 673.3134,-19.5 673.3134,-.5 593.3134,-.5"/>
<text text-anchor="middle" x="633.3134" y="-7.5" font-family="Helvetica,sans-Serif" font-size="10.00" fill="#000000">box2d/box2d.h</text>
</g>
<!-- Node14&#45;&gt;Node17 -->
<g id="edge21" class="edge">
<title>Node14&#45;&gt;Node17</title>
<path fill="none" stroke="#191970" d="M623.4149,-112.3724C629.5186,-103.4569 637.8651,-89.5662 641.3134,-76 645.2231,-60.6186 642.625,-42.7201 639.3821,-29.4457"/>
<polygon fill="#191970" stroke="#191970" points="642.6801,-28.2406 636.635,-19.5396 635.9346,-30.1112 642.6801,-28.2406"/>
</g>
<!-- Node18 -->
<g id="node19" class="node">
<title>Node18</title>
<g id="a_node19"><a xlink:href="entity_8h.html" target="_top" xlink:title="entity.h">
<polygon fill="none" stroke="#000000" points="582.8134,-56.5 582.8134,-75.5 631.8134,-75.5 631.8134,-56.5 582.8134,-56.5"/>
<text text-anchor="middle" x="607.3134" y="-63.5" font-family="Helvetica,sans-Serif" font-size="10.00" fill="#000000">entity.h</text>
</a>
</g>
</g>
<!-- Node14&#45;&gt;Node18 -->
<g id="edge22" class="edge">
<title>Node14&#45;&gt;Node18</title>
<path fill="none" stroke="#191970" d="M614.7457,-112.2455C613.5713,-104.9382 611.925,-94.6944 610.4802,-85.7046"/>
<polygon fill="#191970" stroke="#191970" points="613.9056,-84.9606 608.8631,-75.6427 606.9943,-86.0714 613.9056,-84.9606"/>
</g>
<!-- Node18&#45;&gt;Node3 -->
<g id="edge23" class="edge">
<title>Node18&#45;&gt;Node3</title>
<path fill="none" stroke="#191970" d="M582.5592,-58.1603C579.4665,-57.3466 576.3308,-56.5997 573.3134,-56 443.6532,-30.2306 288.9861,-18.1669 204.6899,-13.1333"/>
<polygon fill="#191970" stroke="#191970" points="204.7032,-9.6282 194.5163,-12.5397 204.2954,-16.6164 204.7032,-9.6282"/>
</g>
<!-- Node18&#45;&gt;Node7 -->
<g id="edge24" class="edge">
<title>Node18&#45;&gt;Node7</title>
<path fill="none" stroke="#191970" d="M582.4454,-58.6321C579.3722,-57.7374 576.2722,-56.8425 573.3134,-56 525.8141,-42.4741 470.531,-27.3716 436.9985,-18.2817"/>
<polygon fill="#191970" stroke="#191970" points="437.4802,-14.7861 426.913,-15.5513 435.6509,-21.5429 437.4802,-14.7861"/>
</g>
<!-- Node18&#45;&gt;Node17 -->
<g id="edge25" class="edge">
<title>Node18&#45;&gt;Node17</title>
<path fill="none" stroke="#191970" d="M611.8423,-56.2455C615.3468,-48.6973 620.3061,-38.0158 624.5757,-28.8197"/>
<polygon fill="#191970" stroke="#191970" points="627.7998,-30.1867 628.8364,-19.6427 621.4507,-27.2389 627.7998,-30.1867"/>
</g>
<!-- Node18&#45;&gt;Node19 -->
<g id="edge26" class="edge">
<title>Node18&#45;&gt;Node19</title>
<path fill="none" stroke="#191970" d="M632.0474,-59.4665C669.0568,-49.6904 739.0973,-31.1892 782.2408,-19.7928"/>
<polygon fill="#191970" stroke="#191970" points="783.2931,-23.1349 792.0676,-17.197 781.5053,-16.3671 783.2931,-23.1349"/>
</g>
<!-- Node20&#45;&gt;Node2 -->
<g id="edge30" class="edge">
<title>Node20&#45;&gt;Node2</title>
<path fill="none" stroke="#191970" d="M808.2512,-283.9004C762.1213,-274.5407 673.2109,-256.5009 615.8799,-244.8686"/>
<polygon fill="#191970" stroke="#191970" points="616.4071,-241.4043 605.9108,-242.8458 615.0151,-248.2645 616.4071,-241.4043"/>
</g>
<!-- Node20&#45;&gt;Node19 -->
<g id="edge31" class="edge">
<title>Node20&#45;&gt;Node19</title>
<path fill="none" stroke="#191970" d="M838.3134,-280.4116C838.3134,-261.0538 838.3134,-215.9167 838.3134,-178 838.3134,-178 838.3134,-178 838.3134,-122 838.3134,-89.2688 830.3282,-51.9052 824.7112,-29.6716"/>
<polygon fill="#191970" stroke="#191970" points="828.0423,-28.5763 822.1169,-19.7934 821.2719,-30.3545 828.0423,-28.5763"/>
</g>
<!-- Node21&#45;&gt;Node2 -->
<g id="edge33" class="edge">
<title>Node21&#45;&gt;Node2</title>
<path fill="none" stroke="#191970" d="M767.2153,-336.4509C727.7057,-316.6961 636.8265,-271.2565 590.5309,-248.1088"/>
<polygon fill="#191970" stroke="#191970" points="591.8727,-244.8666 581.3632,-243.5249 588.7422,-251.1276 591.8727,-244.8666"/>
</g>
<!-- Node21&#45;&gt;Node19 -->
<g id="edge35" class="edge">
<title>Node21&#45;&gt;Node19</title>
<path fill="none" stroke="#191970" d="M787.2654,-336.3065C791.7821,-290.3189 811.09,-93.7291 817.3475,-30.0167"/>
<polygon fill="#191970" stroke="#191970" points="820.8632,-30.0271 818.3575,-19.7328 813.8967,-29.3428 820.8632,-30.0271"/>
</g>
<!-- Node21&#45;&gt;Node20 -->
<g id="edge34" class="edge">
<title>Node21&#45;&gt;Node20</title>
<path fill="none" stroke="#191970" d="M795.3711,-336.2455C802.8276,-328.2155 813.5768,-316.6394 822.4551,-307.0781"/>
<polygon fill="#191970" stroke="#191970" points="825.1197,-309.3522 829.3595,-299.6427 819.9902,-304.589 825.1197,-309.3522"/>
</g>
</g>
</svg>
        <g id="navigator" transform="translate(0 0)" fill="#404254">
                <rect fill="#f2f5e9" fill-opacity="0.5" stroke="#606060" stroke-width=".5" x="0" y="0" width="60" height="60"/>
                <use id="zoomplus" xlink:href="#zoomPlus" x="17" y="9" onmousedown="handleZoom(evt,'in')"/>
                <use id="zoomminus" xlink:href="#zoomMin" x="42" y="9" onmousedown="handleZoom(evt,'out')"/>
                <use id="reset" xlink:href="#resetDef" x="30" y="36" onmousedown="handleReset()"/>
                <g id="arrowUp" xlink:href="#dirArrow" transform="translate(30 24)" onmousedown="handlePan(0,-1)">
                  <use xlink:href="#rim" fill="#404040">
                        <set attributeName="fill" to="#808080" begin="arrowUp.mouseover" end="arrowUp.mouseout"/>
                  </use>
                  <path fill="none" stroke="white" stroke-width="1.5" d="M0,-3.0v7 M-2.5,-0.5L0,-3.0L2.5,-0.5"/>
                </g>
                <g id="arrowRight" xlink:href="#dirArrow" transform="rotate(90) translate(36 -43)" onmousedown="handlePan(1,0)">
                  <use xlink:href="#rim" fill="#404040">
                        <set attributeName="fill" to="#808080" begin="arrowRight.mouseover" end="arrowRight.mouseout"/>
                  </use>
                  <path fill="none" stroke="white" stroke-width="1.5" d="M0,-3.0v7 M-2.5,-0.5L0,-3.0L2.5,-0.5"/>
                </g>
                <g id="arrowDown" xlink:href="#dirArrow" transform="rotate(180) translate(-30 -48)" onmousedown="handlePan(0,1)">
                  <use xlink:href="#rim" fill="#404040">
                        <set attributeName="fill" to="#808080" begin="arrowDown.mouseover" end="arrowDown.mouseout"/>
                  </use>
                  <path fill="none" stroke="white" stroke-width="1.5" d="M0,-3.0v7 M-2.5,-0.5L0,-3.0L2.5,-0.5"/>
                </g>
                <g id="arrowLeft" xlink:href="#dirArrow" transform="rotate(270) translate(-36 17)" onmousedown="handlePan(-1,0)">
                  <use xlink:href="#rim" fill="#404040">
                        <set attributeName="fill" to="#808080" begin="arrowLeft.mouseover" end="arrowLeft.mouseout"/>
                  </use>
                  <path fill="none" stroke="white" stroke-width="1.5" d="M0,-3.0v7 M-2.5,-0.5L0,-3.0L2.5,-0.5"/>
                </g>
        </g>
        <svg viewBox="0 0 15 15" width="100%" height="30px" preserveAspectRatio="xMaxYMin meet">
         <g id="arrow_out" transform="scale(0.3 0.3)">
          <a xlink:href="Main__Player_8cpp__incl_org.svg" target="_base">
           <rect id="button" ry="5" rx="5" y="6" x="6" height="38" width="38"
                fill="#f2f5e9" fill-opacity="0.5" stroke="#606060" stroke-width="1.0"/>
           <path id="arrow"
             d="M 11.500037,31.436501 C 11.940474,20.09759 22.043105,11.32322 32.158766,21.979434 L 37.068811,17.246167 C 37.068811,17.246167 37.088388,32 37.088388,32 L 22.160133,31.978069 C 22.160133,31.978069 26.997745,27.140456 26.997745,27.140456 C 18.528582,18.264221 13.291696,25.230495 11.500037,31.436501 z"
             style="fill:#404040;"/>
          </a>
         </g>
        </svg>
</svg>
