<?xml version="1.0" encoding="UTF-8" standalone="no"?>
<!DOCTYPE svg PUBLIC "-//W3C//DTD SVG 1.1//EN"
 "http://www.w3.org/Graphics/SVG/1.1/DTD/svg11.dtd">
<!-- Generated by graphviz version 2.40.1 (20161225.0304)
 -->
<!-- Title: /mnt/hdd/C0de/Engines/SFML/SFML_Engine/include/SFMLOrthogonalLayer.hpp Pages: 1 -->
<svg width="2018pt" height="106pt"
 viewBox="0.00 0.00 2018.00 106.00" xmlns="http://www.w3.org/2000/svg" xmlns:xlink="http://www.w3.org/1999/xlink">
<g id="graph0" class="graph" transform="scale(1 1) rotate(0) translate(4 102)">
<title>/mnt/hdd/C0de/Engines/SFML/SFML_Engine/include/SFMLOrthogonalLayer.hpp</title>
<!-- Node0 -->
<g id="node1" class="node">
<title>Node0</title>
<polygon fill="#bfbfbf" stroke="#000000" points="1301,-56.5 1301,-97.5 1445,-97.5 1445,-56.5 1301,-56.5"/>
<text text-anchor="start" x="1309" y="-85.5" font-family="Helvetica,sans-Serif" font-size="10.00" fill="#000000">/mnt/hdd/C0de/Engines</text>
<text text-anchor="start" x="1309" y="-74.5" font-family="Helvetica,sans-Serif" font-size="10.00" fill="#000000">/SFML/SFML_Engine/include</text>
<text text-anchor="middle" x="1373" y="-63.5" font-family="Helvetica,sans-Serif" font-size="10.00" fill="#000000">/SFMLOrthogonalLayer.hpp</text>
</g>
<!-- Node1 -->
<g id="node2" class="node">
<title>Node1</title>
<polygon fill="none" stroke="#bfbfbf" points="0,-.5 0,-19.5 86,-19.5 86,-.5 0,-.5"/>
<text text-anchor="middle" x="43" y="-7.5" font-family="Helvetica,sans-Serif" font-size="10.00" fill="#000000">tmxlite/Map.hpp</text>
</g>
<!-- Node0&#45;&gt;Node1 -->
<g id="edge1" class="edge">
<title>Node0&#45;&gt;Node1</title>
<path fill="none" stroke="#191970" d="M1300.9674,-75.1677C1070.2948,-69.0859 350.6026,-48.3947 96.0077,-19.9249"/>
<polygon fill="#191970" stroke="#191970" points="96.3896,-16.4458 86.055,-18.7797 95.5894,-23.3999 96.3896,-16.4458"/>
</g>
<!-- Node2 -->
<g id="node3" class="node">
<title>Node2</title>
<polygon fill="none" stroke="#bfbfbf" points="104.5,-.5 104.5,-19.5 211.5,-19.5 211.5,-.5 104.5,-.5"/>
<text text-anchor="middle" x="158" y="-7.5" font-family="Helvetica,sans-Serif" font-size="10.00" fill="#000000">tmxlite/TileLayer.hpp</text>
</g>
<!-- Node0&#45;&gt;Node2 -->
<g id="edge2" class="edge">
<title>Node0&#45;&gt;Node2</title>
<path fill="none" stroke="#191970" d="M1300.6786,-76.1306C1120.2643,-73.3788 635.7054,-62.4054 221.6395,-19.9463"/>
<polygon fill="#191970" stroke="#191970" points="221.8712,-16.4517 211.5644,-18.9055 221.1518,-23.4146 221.8712,-16.4517"/>
</g>
<!-- Node3 -->
<g id="node4" class="node">
<title>Node3</title>
<polygon fill="none" stroke="#bfbfbf" points="230,-.5 230,-19.5 340,-19.5 340,-.5 230,-.5"/>
<text text-anchor="middle" x="285" y="-7.5" font-family="Helvetica,sans-Serif" font-size="10.00" fill="#000000">tmxlite/detail/Log.hpp</text>
</g>
<!-- Node0&#45;&gt;Node3 -->
<g id="edge3" class="edge">
<title>Node0&#45;&gt;Node3</title>
<path fill="none" stroke="#191970" d="M1300.7959,-75.4464C1134.7481,-71.3406 712.8285,-57.8696 350.2814,-20.0365"/>
<polygon fill="#191970" stroke="#191970" points="350.4235,-16.5323 340.1123,-18.9673 349.6915,-23.4939 350.4235,-16.5323"/>
</g>
<!-- Node4 -->
<g id="node5" class="node">
<title>Node4</title>
<polygon fill="none" stroke="#bfbfbf" points="358,-.5 358,-19.5 506,-19.5 506,-.5 358,-.5"/>
<text text-anchor="middle" x="432" y="-7.5" font-family="Helvetica,sans-Serif" font-size="10.00" fill="#000000">SFML/Graphics/Drawable.hpp</text>
</g>
<!-- Node0&#45;&gt;Node4 -->
<g id="edge4" class="edge">
<title>Node0&#45;&gt;Node4</title>
<path fill="none" stroke="#191970" d="M1300.8621,-73.5155C1154.8333,-66.1768 813.5545,-47.5796 516.3018,-20.0788"/>
<polygon fill="#191970" stroke="#191970" points="516.4718,-16.5796 506.1906,-19.1383 515.8234,-23.5495 516.4718,-16.5796"/>
</g>
<!-- Node5 -->
<g id="node6" class="node">
<title>Node5</title>
<polygon fill="none" stroke="#bfbfbf" points="524.5,-.5 524.5,-19.5 691.5,-19.5 691.5,-.5 524.5,-.5"/>
<text text-anchor="middle" x="608" y="-7.5" font-family="Helvetica,sans-Serif" font-size="10.00" fill="#000000">SFML/Graphics/RenderStates.hpp</text>
</g>
<!-- Node0&#45;&gt;Node5 -->
<g id="edge5" class="edge">
<title>Node0&#45;&gt;Node5</title>
<path fill="none" stroke="#191970" d="M1300.8528,-71.4159C1179.5482,-61.9088 926.7805,-41.5924 701.6635,-20.0453"/>
<polygon fill="#191970" stroke="#191970" points="701.9311,-16.555 691.6424,-19.0836 701.2623,-23.523 701.9311,-16.555"/>
</g>
<!-- Node6 -->
<g id="node7" class="node">
<title>Node6</title>
<polygon fill="none" stroke="#bfbfbf" points="710,-.5 710,-19.5 876,-19.5 876,-.5 710,-.5"/>
<text text-anchor="middle" x="793" y="-7.5" font-family="Helvetica,sans-Serif" font-size="10.00" fill="#000000">SFML/Graphics/RenderTarget.hpp</text>
</g>
<!-- Node0&#45;&gt;Node6 -->
<g id="edge6" class="edge">
<title>Node0&#45;&gt;Node6</title>
<path fill="none" stroke="#191970" d="M1300.7153,-68.6499C1195.7759,-56.5276 1001.2045,-34.0512 885.7987,-20.7198"/>
<polygon fill="#191970" stroke="#191970" points="885.906,-17.2091 875.5704,-19.5383 885.1027,-24.1628 885.906,-17.2091"/>
</g>
<!-- Node7 -->
<g id="node8" class="node">
<title>Node7</title>
<polygon fill="none" stroke="#bfbfbf" points="894.5,-.5 894.5,-19.5 1029.5,-19.5 1029.5,-.5 894.5,-.5"/>
<text text-anchor="middle" x="962" y="-7.5" font-family="Helvetica,sans-Serif" font-size="10.00" fill="#000000">SFML/Graphics/Vertex.hpp</text>
</g>
<!-- Node0&#45;&gt;Node7 -->
<g id="edge7" class="edge">
<title>Node0&#45;&gt;Node7</title>
<path fill="none" stroke="#191970" d="M1300.9389,-65.2528C1224.7509,-52.8329 1105.4513,-33.385 1030.6006,-21.1831"/>
<polygon fill="#191970" stroke="#191970" points="1030.7759,-17.6655 1020.343,-19.5109 1029.6496,-24.5743 1030.7759,-17.6655"/>
</g>
<!-- Node8 -->
<g id="node9" class="node">
<title>Node8</title>
<polygon fill="none" stroke="#bfbfbf" points="1048,-.5 1048,-19.5 1188,-19.5 1188,-.5 1048,-.5"/>
<text text-anchor="middle" x="1118" y="-7.5" font-family="Helvetica,sans-Serif" font-size="10.00" fill="#000000">SFML/Graphics/Texture.hpp</text>
</g>
<!-- Node0&#45;&gt;Node8 -->
<g id="edge8" class="edge">
<title>Node0&#45;&gt;Node8</title>
<path fill="none" stroke="#191970" d="M1300.9497,-58.0691C1257.0108,-46.5244 1202.1603,-32.1127 1164.0332,-22.095"/>
<polygon fill="#191970" stroke="#191970" points="1164.7934,-18.676 1154.2323,-19.5198 1163.0145,-25.4462 1164.7934,-18.676"/>
</g>
<!-- Node9 -->
<g id="node10" class="node">
<title>Node9</title>
<polygon fill="none" stroke="#bfbfbf" points="1206.5,-.5 1206.5,-19.5 1375.5,-19.5 1375.5,-.5 1206.5,-.5"/>
<text text-anchor="middle" x="1291" y="-7.5" font-family="Helvetica,sans-Serif" font-size="10.00" fill="#000000">SFML/Graphics/Transformable.hpp</text>
</g>
<!-- Node0&#45;&gt;Node9 -->
<g id="edge9" class="edge">
<title>Node0&#45;&gt;Node9</title>
<path fill="none" stroke="#191970" d="M1347.5042,-56.168C1335.6654,-46.4949 1321.8041,-35.1692 1310.7733,-26.1562"/>
<polygon fill="#191970" stroke="#191970" points="1312.9285,-23.3974 1302.9701,-19.7805 1308.4994,-28.8181 1312.9285,-23.3974"/>
</g>
<!-- Node10 -->
<g id="node11" class="node">
<title>Node10</title>
<polygon fill="none" stroke="#bfbfbf" points="1393.5,-.5 1393.5,-19.5 1516.5,-19.5 1516.5,-.5 1393.5,-.5"/>
<text text-anchor="middle" x="1455" y="-7.5" font-family="Helvetica,sans-Serif" font-size="10.00" fill="#000000">SFML/System/Time.hpp</text>
</g>
<!-- Node0&#45;&gt;Node10 -->
<g id="edge10" class="edge">
<title>Node0&#45;&gt;Node10</title>
<path fill="none" stroke="#191970" d="M1398.4958,-56.168C1410.3346,-46.4949 1424.1959,-35.1692 1435.2267,-26.1562"/>
<polygon fill="#191970" stroke="#191970" points="1437.5006,-28.8181 1443.0299,-19.7805 1433.0715,-23.3974 1437.5006,-28.8181"/>
</g>
<!-- Node11 -->
<g id="node12" class="node">
<title>Node11</title>
<polygon fill="none" stroke="#bfbfbf" points="1535,-.5 1535,-19.5 1587,-19.5 1587,-.5 1535,-.5"/>
<text text-anchor="middle" x="1561" y="-7.5" font-family="Helvetica,sans-Serif" font-size="10.00" fill="#000000">memory</text>
</g>
<!-- Node0&#45;&gt;Node11 -->
<g id="edge11" class="edge">
<title>Node0&#45;&gt;Node11</title>
<path fill="none" stroke="#191970" d="M1430.6838,-56.4425C1461.5022,-45.4593 1498.4748,-32.2829 1525.1535,-22.7751"/>
<polygon fill="#191970" stroke="#191970" points="1526.5954,-25.9769 1534.8401,-19.3229 1524.2454,-19.3831 1526.5954,-25.9769"/>
</g>
<!-- Node12 -->
<g id="node13" class="node">
<title>Node12</title>
<polygon fill="none" stroke="#bfbfbf" points="1605,-.5 1605,-19.5 1649,-19.5 1649,-.5 1605,-.5"/>
<text text-anchor="middle" x="1627" y="-7.5" font-family="Helvetica,sans-Serif" font-size="10.00" fill="#000000">vector</text>
</g>
<!-- Node0&#45;&gt;Node12 -->
<g id="edge12" class="edge">
<title>Node0&#45;&gt;Node12</title>
<path fill="none" stroke="#191970" d="M1445.112,-59.7666C1486.5329,-49.5871 1539.7078,-36.0466 1595.071,-20.1567"/>
<polygon fill="#191970" stroke="#191970" points="1596.0636,-23.5131 1604.6996,-17.3755 1594.121,-16.788 1596.0636,-23.5131"/>
</g>
<!-- Node13 -->
<g id="node14" class="node">
<title>Node13</title>
<polygon fill="none" stroke="#bfbfbf" points="1667,-.5 1667,-19.5 1705,-19.5 1705,-.5 1667,-.5"/>
<text text-anchor="middle" x="1686" y="-7.5" font-family="Helvetica,sans-Serif" font-size="10.00" fill="#000000">array</text>
</g>
<!-- Node0&#45;&gt;Node13 -->
<g id="edge13" class="edge">
<title>Node0&#45;&gt;Node13</title>
<path fill="none" stroke="#191970" d="M1445.1269,-65.5676C1500.7751,-56.0617 1579.721,-41.0904 1656.9417,-19.9984"/>
<polygon fill="#191970" stroke="#191970" points="1658.1348,-23.2998 1666.8384,-17.2585 1656.267,-16.5536 1658.1348,-23.2998"/>
</g>
<!-- Node14 -->
<g id="node15" class="node">
<title>Node14</title>
<polygon fill="none" stroke="#bfbfbf" points="1723.5,-.5 1723.5,-19.5 1758.5,-19.5 1758.5,-.5 1723.5,-.5"/>
<text text-anchor="middle" x="1741" y="-7.5" font-family="Helvetica,sans-Serif" font-size="10.00" fill="#000000">map</text>
</g>
<!-- Node0&#45;&gt;Node14 -->
<g id="edge14" class="edge">
<title>Node0&#45;&gt;Node14</title>
<path fill="none" stroke="#191970" d="M1445.0276,-68.9787C1512.3839,-60.5691 1615.7233,-45.3402 1713.6703,-19.6501"/>
<polygon fill="#191970" stroke="#191970" points="1714.6736,-23.005 1723.4356,-17.0488 1712.8717,-16.2409 1714.6736,-23.005"/>
</g>
<!-- Node15 -->
<g id="node16" class="node">
<title>Node15</title>
<polygon fill="none" stroke="#bfbfbf" points="1776.5,-.5 1776.5,-19.5 1817.5,-19.5 1817.5,-.5 1776.5,-.5"/>
<text text-anchor="middle" x="1797" y="-7.5" font-family="Helvetica,sans-Serif" font-size="10.00" fill="#000000">string</text>
</g>
<!-- Node0&#45;&gt;Node15 -->
<g id="edge15" class="edge">
<title>Node0&#45;&gt;Node15</title>
<path fill="none" stroke="#191970" d="M1445.1319,-70.7171C1522.7358,-63.032 1649.7128,-47.7814 1766.4142,-20.0556"/>
<polygon fill="#191970" stroke="#191970" points="1767.3305,-23.4351 1776.2309,-17.6876 1765.6889,-16.6303 1767.3305,-23.4351"/>
</g>
<!-- Node16 -->
<g id="node17" class="node">
<title>Node16</title>
<polygon fill="none" stroke="#bfbfbf" points="1836,-.5 1836,-19.5 1876,-19.5 1876,-.5 1836,-.5"/>
<text text-anchor="middle" x="1856" y="-7.5" font-family="Helvetica,sans-Serif" font-size="10.00" fill="#000000">limits</text>
</g>
<!-- Node0&#45;&gt;Node16 -->
<g id="edge16" class="edge">
<title>Node0&#45;&gt;Node16</title>
<path fill="none" stroke="#191970" d="M1445.3657,-72.5548C1533.5308,-66.1065 1686.9044,-51.5599 1825.8937,-19.8498"/>
<polygon fill="#191970" stroke="#191970" points="1826.9232,-23.2041 1835.8749,-17.5369 1825.3429,-16.3848 1826.9232,-23.2041"/>
</g>
<!-- Node17 -->
<g id="node18" class="node">
<title>Node17</title>
<polygon fill="none" stroke="#bfbfbf" points="1894,-.5 1894,-19.5 1948,-19.5 1948,-.5 1894,-.5"/>
<text text-anchor="middle" x="1921" y="-7.5" font-family="Helvetica,sans-Serif" font-size="10.00" fill="#000000">iostream</text>
</g>
<!-- Node0&#45;&gt;Node17 -->
<g id="edge17" class="edge">
<title>Node0&#45;&gt;Node17</title>
<path fill="none" stroke="#191970" d="M1445.1984,-72.6185C1542.7931,-65.8844 1722.2402,-50.6384 1883.8565,-19.9522"/>
<polygon fill="#191970" stroke="#191970" points="1884.8246,-23.3303 1893.9835,-18.0044 1883.5024,-16.4563 1884.8246,-23.3303"/>
</g>
<!-- Node18 -->
<g id="node19" class="node">
<title>Node18</title>
<polygon fill="none" stroke="#bfbfbf" points="1966,-.5 1966,-19.5 2010,-19.5 2010,-.5 1966,-.5"/>
<text text-anchor="middle" x="1988" y="-7.5" font-family="Helvetica,sans-Serif" font-size="10.00" fill="#000000">cmath</text>
</g>
<!-- Node0&#45;&gt;Node18 -->
<g id="edge18" class="edge">
<title>Node0&#45;&gt;Node18</title>
<path fill="none" stroke="#191970" d="M1445.2179,-74.9288C1554.3792,-70.7035 1767.764,-58.1721 1956.0071,-19.8155"/>
<polygon fill="#191970" stroke="#191970" points="1956.7178,-23.2427 1965.8026,-17.7913 1955.3012,-16.3875 1956.7178,-23.2427"/>
</g>
</g>
</svg>
