<?xml version="1.0" encoding="UTF-8" standalone="no"?>
<!DOCTYPE svg PUBLIC "-//W3C//DTD SVG 1.1//EN"
 "http://www.w3.org/Graphics/SVG/1.1/DTD/svg11.dtd">
<!-- Generated by graphviz version 2.40.1 (20161225.0304)
 -->
<!-- Title: /mnt/hdd/C0de/Engines/SFML/SFML_Engine/include/SplashState.hpp Pages: 1 -->
<svg width="1042pt" height="554pt"
 viewBox="0.00 0.00 1042.00 554.00" xmlns="http://www.w3.org/2000/svg" xmlns:xlink="http://www.w3.org/1999/xlink">
<g id="graph0" class="graph" transform="scale(1 1) rotate(0) translate(4 550)">
<title>/mnt/hdd/C0de/Engines/SFML/SFML_Engine/include/SplashState.hpp</title>
<!-- Node0 -->
<g id="node1" class="node">
<title>Node0</title>
<polygon fill="#bfbfbf" stroke="#000000" points="555,-504.5 555,-545.5 699,-545.5 699,-504.5 555,-504.5"/>
<text text-anchor="start" x="563" y="-533.5" font-family="Helvetica,sans-Serif" font-size="10.00" fill="#000000">/mnt/hdd/C0de/Engines</text>
<text text-anchor="start" x="563" y="-522.5" font-family="Helvetica,sans-Serif" font-size="10.00" fill="#000000">/SFML/SFML_Engine/include</text>
<text text-anchor="middle" x="627" y="-511.5" font-family="Helvetica,sans-Serif" font-size="10.00" fill="#000000">/SplashState.hpp</text>
</g>
<!-- Node1 -->
<g id="node2" class="node">
<title>Node1</title>
<polygon fill="none" stroke="#bfbfbf" points="406,-.5 406,-19.5 510,-19.5 510,-.5 406,-.5"/>
<text text-anchor="middle" x="458" y="-7.5" font-family="Helvetica,sans-Serif" font-size="10.00" fill="#000000">SFML/Graphics.hpp</text>
</g>
<!-- Node0&#45;&gt;Node1 -->
<g id="edge1" class="edge">
<title>Node0&#45;&gt;Node1</title>
<path fill="none" stroke="#191970" d="M554.7691,-518.338C389.8995,-502.1606 0,-457.9845 0,-402 0,-402 0,-402 0,-122 0,-41.4857 270.4465,-18.5763 395.6976,-12.2836"/>
<polygon fill="#191970" stroke="#191970" points="396.0877,-15.7689 405.9075,-11.7914 395.7505,-8.7771 396.0877,-15.7689"/>
</g>
<!-- Node2 -->
<g id="node3" class="node">
<title>Node2</title>
<polygon fill="none" stroke="#bfbfbf" points="709.5,-448.5 709.5,-467.5 798.5,-467.5 798.5,-448.5 709.5,-448.5"/>
<text text-anchor="middle" x="754" y="-455.5" font-family="Helvetica,sans-Serif" font-size="10.00" fill="#000000">SFML/Audio.hpp</text>
</g>
<!-- Node0&#45;&gt;Node2 -->
<g id="edge2" class="edge">
<title>Node0&#45;&gt;Node2</title>
<path fill="none" stroke="#191970" d="M666.1405,-504.3511C685.6956,-494.0346 708.8836,-481.8015 726.5266,-472.4939"/>
<polygon fill="#191970" stroke="#191970" points="728.4879,-475.4164 735.6994,-467.6546 725.2216,-469.2251 728.4879,-475.4164"/>
</g>
<!-- Node3 -->
<g id="node4" class="node">
<title>Node3</title>
<g id="a_node4"><a xlink:href="State_8hpp.html" target="_top" xlink:title="State.hpp">
<polygon fill="none" stroke="#000000" points="241.5,-56.5 241.5,-75.5 300.5,-75.5 300.5,-56.5 241.5,-56.5"/>
<text text-anchor="middle" x="271" y="-63.5" font-family="Helvetica,sans-Serif" font-size="10.00" fill="#000000">State.hpp</text>
</a>
</g>
</g>
<!-- Node0&#45;&gt;Node3 -->
<g id="edge3" class="edge">
<title>Node0&#45;&gt;Node3</title>
<path fill="none" stroke="#191970" d="M554.7828,-515.2049C449.949,-498.9301 268,-462.0359 268,-402 268,-402 268,-402 268,-178 268,-145.7 269.2622,-108.1791 270.1492,-85.8005"/>
<polygon fill="#191970" stroke="#191970" points="273.6553,-85.7217 270.5702,-75.5861 266.6613,-85.4334 273.6553,-85.7217"/>
</g>
<!-- Node4 -->
<g id="node5" class="node">
<title>Node4</title>
<g id="a_node5"><a xlink:href="Game_8hpp.html" target="_top" xlink:title="Game.hpp">
<polygon fill="none" stroke="#000000" points="427,-168.5 427,-187.5 489,-187.5 489,-168.5 427,-168.5"/>
<text text-anchor="middle" x="458" y="-175.5" font-family="Helvetica,sans-Serif" font-size="10.00" fill="#000000">Game.hpp</text>
</a>
</g>
</g>
<!-- Node0&#45;&gt;Node4 -->
<g id="edge4" class="edge">
<title>Node0&#45;&gt;Node4</title>
<path fill="none" stroke="#191970" d="M556.797,-504.3996C510.3644,-485.9646 458,-453.7111 458,-402 458,-402 458,-402 458,-290 458,-257.7116 458,-220.1872 458,-197.8048"/>
<polygon fill="#191970" stroke="#191970" points="461.5001,-197.5883 458,-187.5884 454.5001,-197.5884 461.5001,-197.5883"/>
</g>
<!-- Node18 -->
<g id="node19" class="node">
<title>Node18</title>
<g id="a_node19"><a xlink:href="LoadingGameObjects_8hpp.html" target="_top" xlink:title="LoadingGameObjects.hpp">
<polygon fill="none" stroke="#000000" points="562.5,-448.5 562.5,-467.5 691.5,-467.5 691.5,-448.5 562.5,-448.5"/>
<text text-anchor="middle" x="627" y="-455.5" font-family="Helvetica,sans-Serif" font-size="10.00" fill="#000000">LoadingGameObjects.hpp</text>
</a>
</g>
</g>
<!-- Node0&#45;&gt;Node18 -->
<g id="edge26" class="edge">
<title>Node0&#45;&gt;Node18</title>
<path fill="none" stroke="#191970" d="M627,-504.168C627,-495.8226 627,-486.2471 627,-477.9879"/>
<polygon fill="#191970" stroke="#191970" points="630.5001,-477.7804 627,-467.7805 623.5001,-477.7805 630.5001,-477.7804"/>
</g>
<!-- Node29 -->
<g id="node30" class="node">
<title>Node29</title>
<polygon fill="none" stroke="#bfbfbf" points="816.5,-448.5 816.5,-467.5 869.5,-467.5 869.5,-448.5 816.5,-448.5"/>
<text text-anchor="middle" x="843" y="-455.5" font-family="Helvetica,sans-Serif" font-size="10.00" fill="#000000">complex</text>
</g>
<!-- Node0&#45;&gt;Node29 -->
<g id="edge56" class="edge">
<title>Node0&#45;&gt;Node29</title>
<path fill="none" stroke="#191970" d="M693.275,-504.4425C730.4883,-492.8994 775.5117,-478.9339 806.4075,-469.3504"/>
<polygon fill="#191970" stroke="#191970" points="807.7978,-472.5838 816.3119,-466.2782 805.7239,-465.898 807.7978,-472.5838"/>
</g>
<!-- Node30 -->
<g id="node31" class="node">
<title>Node30</title>
<polygon fill="none" stroke="#bfbfbf" points="888,-448.5 888,-467.5 932,-467.5 932,-448.5 888,-448.5"/>
<text text-anchor="middle" x="910" y="-455.5" font-family="Helvetica,sans-Serif" font-size="10.00" fill="#000000">cmath</text>
</g>
<!-- Node0&#45;&gt;Node30 -->
<g id="edge57" class="edge">
<title>Node0&#45;&gt;Node30</title>
<path fill="none" stroke="#191970" d="M699.1149,-510.4821C747.366,-500.3524 812.4246,-485.897 878.0379,-468.1004"/>
<polygon fill="#191970" stroke="#191970" points="878.9992,-471.4661 887.7206,-465.4505 877.1514,-464.7143 878.9992,-471.4661"/>
</g>
<!-- Node4&#45;&gt;Node1 -->
<g id="edge7" class="edge">
<title>Node4&#45;&gt;Node1</title>
<path fill="none" stroke="#191970" d="M458,-168.4862C458,-141.9293 458,-66.5651 458,-30.1655"/>
<polygon fill="#191970" stroke="#191970" points="461.5001,-29.8278 458,-19.8279 454.5001,-29.8279 461.5001,-29.8278"/>
</g>
<!-- Node5 -->
<g id="node6" class="node">
<title>Node5</title>
<polygon fill="none" stroke="#bfbfbf" points="378,-56.5 378,-75.5 430,-75.5 430,-56.5 378,-56.5"/>
<text text-anchor="middle" x="404" y="-63.5" font-family="Helvetica,sans-Serif" font-size="10.00" fill="#000000">memory</text>
</g>
<!-- Node4&#45;&gt;Node5 -->
<g id="edge5" class="edge">
<title>Node4&#45;&gt;Node5</title>
<path fill="none" stroke="#191970" d="M453.396,-168.4509C444.4691,-149.936 424.6642,-108.8591 413.0251,-84.7187"/>
<polygon fill="#191970" stroke="#191970" points="416.0881,-83.0125 408.5924,-75.5249 409.7827,-86.0527 416.0881,-83.0125"/>
</g>
<!-- Node6 -->
<g id="node7" class="node">
<title>Node6</title>
<polygon fill="none" stroke="#bfbfbf" points="566.5,-.5 566.5,-19.5 607.5,-19.5 607.5,-.5 566.5,-.5"/>
<text text-anchor="middle" x="587" y="-7.5" font-family="Helvetica,sans-Serif" font-size="10.00" fill="#000000">string</text>
</g>
<!-- Node4&#45;&gt;Node6 -->
<g id="edge6" class="edge">
<title>Node4&#45;&gt;Node6</title>
<path fill="none" stroke="#191970" d="M465.3052,-168.4862C486.1385,-141.3545 546.0888,-63.2798 573.2879,-27.8576"/>
<polygon fill="#191970" stroke="#191970" points="576.1393,-29.891 579.4536,-19.8279 570.5873,-25.6278 576.1393,-29.891"/>
</g>
<!-- Node7 -->
<g id="node8" class="node">
<title>Node7</title>
<g id="a_node8"><a xlink:href="StateMachine_8hpp.html" target="_top" xlink:title="StateMachine.hpp">
<polygon fill="none" stroke="#000000" points="296.5,-112.5 296.5,-131.5 391.5,-131.5 391.5,-112.5 296.5,-112.5"/>
<text text-anchor="middle" x="344" y="-119.5" font-family="Helvetica,sans-Serif" font-size="10.00" fill="#000000">StateMachine.hpp</text>
</a>
</g>
</g>
<!-- Node4&#45;&gt;Node7 -->
<g id="edge8" class="edge">
<title>Node4&#45;&gt;Node7</title>
<path fill="none" stroke="#191970" d="M438.4027,-168.3733C420.2669,-159.4644 393.0865,-146.1127 372.5413,-136.0203"/>
<polygon fill="#191970" stroke="#191970" points="373.8603,-132.7688 363.3416,-131.5011 370.7739,-139.0517 373.8603,-132.7688"/>
</g>
<!-- Node9 -->
<g id="node10" class="node">
<title>Node9</title>
<g id="a_node10"><a xlink:href="AssetManager_8hpp.html" target="_top" xlink:title="AssetManager.hpp">
<polygon fill="none" stroke="#000000" points="142,-112.5 142,-131.5 240,-131.5 240,-112.5 142,-112.5"/>
<text text-anchor="middle" x="191" y="-119.5" font-family="Helvetica,sans-Serif" font-size="10.00" fill="#000000">AssetManager.hpp</text>
</a>
</g>
</g>
<!-- Node4&#45;&gt;Node9 -->
<g id="edge12" class="edge">
<title>Node4&#45;&gt;Node9</title>
<path fill="none" stroke="#191970" d="M426.8492,-171.4665C382.6891,-162.2045 301.1884,-145.1107 246.5317,-133.6471"/>
<polygon fill="#191970" stroke="#191970" points="247.1591,-130.2026 236.6536,-131.5753 245.7221,-137.0535 247.1591,-130.2026"/>
</g>
<!-- Node11 -->
<g id="node12" class="node">
<title>Node11</title>
<g id="a_node12"><a xlink:href="InputManager_8hpp.html" target="_top" xlink:title="InputManager.hpp">
<polygon fill="none" stroke="#000000" points="28.5,-112.5 28.5,-131.5 123.5,-131.5 123.5,-112.5 28.5,-112.5"/>
<text text-anchor="middle" x="76" y="-119.5" font-family="Helvetica,sans-Serif" font-size="10.00" fill="#000000">InputManager.hpp</text>
</a>
</g>
</g>
<!-- Node4&#45;&gt;Node11 -->
<g id="edge15" class="edge">
<title>Node4&#45;&gt;Node11</title>
<path fill="none" stroke="#191970" d="M426.5746,-173.9036C370.1487,-166.4724 247.6962,-150.0009 133.5259,-132.0401"/>
<polygon fill="#191970" stroke="#191970" points="133.9899,-128.5701 123.5661,-130.4661 132.8971,-135.4843 133.9899,-128.5701"/>
</g>
<!-- Node12 -->
<g id="node13" class="node">
<title>Node12</title>
<g id="a_node13"><a xlink:href="entity__manager_8h.html" target="_top" xlink:title="entity_manager.h">
<polygon fill="none" stroke="#000000" points="606,-112.5 606,-131.5 698,-131.5 698,-112.5 606,-112.5"/>
<text text-anchor="middle" x="652" y="-119.5" font-family="Helvetica,sans-Serif" font-size="10.00" fill="#000000">entity_manager.h</text>
</a>
</g>
</g>
<!-- Node4&#45;&gt;Node12 -->
<g id="edge17" class="edge">
<title>Node4&#45;&gt;Node12</title>
<path fill="none" stroke="#191970" d="M489.1695,-169.0026C521.6734,-159.6201 572.85,-144.8474 609.1454,-134.3704"/>
<polygon fill="#191970" stroke="#191970" points="610.323,-137.6734 618.96,-131.5373 608.3816,-130.948 610.323,-137.6734"/>
</g>
<!-- Node7&#45;&gt;Node3 -->
<g id="edge11" class="edge">
<title>Node7&#45;&gt;Node3</title>
<path fill="none" stroke="#191970" d="M331.2844,-112.2455C320.398,-103.8943 304.5117,-91.7076 291.78,-81.9408"/>
<polygon fill="#191970" stroke="#191970" points="293.6346,-78.9523 283.5699,-75.6427 289.3739,-84.5063 293.6346,-78.9523"/>
</g>
<!-- Node7&#45;&gt;Node5 -->
<g id="edge9" class="edge">
<title>Node7&#45;&gt;Node5</title>
<path fill="none" stroke="#191970" d="M354.4512,-112.2455C363.2269,-104.0549 375.9554,-92.1749 386.314,-82.5069"/>
<polygon fill="#191970" stroke="#191970" points="388.7461,-85.0246 393.6686,-75.6427 383.9699,-79.9072 388.7461,-85.0246"/>
</g>
<!-- Node8 -->
<g id="node9" class="node">
<title>Node8</title>
<polygon fill="none" stroke="#bfbfbf" points="318.5,-56.5 318.5,-75.5 359.5,-75.5 359.5,-56.5 318.5,-56.5"/>
<text text-anchor="middle" x="339" y="-63.5" font-family="Helvetica,sans-Serif" font-size="10.00" fill="#000000">stack</text>
</g>
<!-- Node7&#45;&gt;Node8 -->
<g id="edge10" class="edge">
<title>Node7&#45;&gt;Node8</title>
<path fill="none" stroke="#191970" d="M343.1291,-112.2455C342.4766,-104.9382 341.562,-94.6944 340.7593,-85.7046"/>
<polygon fill="#191970" stroke="#191970" points="344.2365,-85.2918 339.861,-75.6427 337.2642,-85.9143 344.2365,-85.2918"/>
</g>
<!-- Node9&#45;&gt;Node1 -->
<g id="edge14" class="edge">
<title>Node9&#45;&gt;Node1</title>
<path fill="none" stroke="#191970" d="M184.8687,-112.2292C176.879,-98.1196 165.436,-71.9835 179,-56 192.8697,-39.6563 317.682,-24.2019 395.5978,-16.031"/>
<polygon fill="#191970" stroke="#191970" points="396.2084,-19.4866 405.7946,-14.9751 395.4873,-12.5238 396.2084,-19.4866"/>
</g>
<!-- Node10 -->
<g id="node11" class="node">
<title>Node10</title>
<polygon fill="none" stroke="#bfbfbf" points="188.5,-56.5 188.5,-75.5 223.5,-75.5 223.5,-56.5 188.5,-56.5"/>
<text text-anchor="middle" x="206" y="-63.5" font-family="Helvetica,sans-Serif" font-size="10.00" fill="#000000">map</text>
</g>
<!-- Node9&#45;&gt;Node10 -->
<g id="edge13" class="edge">
<title>Node9&#45;&gt;Node10</title>
<path fill="none" stroke="#191970" d="M193.6128,-112.2455C195.5916,-104.8579 198.3744,-94.4689 200.8012,-85.4087"/>
<polygon fill="#191970" stroke="#191970" points="204.2105,-86.2078 203.4171,-75.6427 197.4489,-84.3966 204.2105,-86.2078"/>
</g>
<!-- Node11&#45;&gt;Node1 -->
<g id="edge16" class="edge">
<title>Node11&#45;&gt;Node1</title>
<path fill="none" stroke="#191970" d="M86.1908,-112.3005C102.3459,-97.5345 135.4553,-69.6915 169,-56 208.9575,-39.6911 323.1642,-24.7691 395.4705,-16.5762"/>
<polygon fill="#191970" stroke="#191970" points="396.2726,-20.0083 405.8208,-15.4169 395.4933,-13.0518 396.2726,-20.0083"/>
</g>
<!-- Node13 -->
<g id="node14" class="node">
<title>Node13</title>
<polygon fill="none" stroke="#bfbfbf" points="667.5,-56.5 667.5,-75.5 750.5,-75.5 750.5,-56.5 667.5,-56.5"/>
<text text-anchor="middle" x="709" y="-63.5" font-family="Helvetica,sans-Serif" font-size="10.00" fill="#000000">unordered_map</text>
</g>
<!-- Node12&#45;&gt;Node13 -->
<g id="edge18" class="edge">
<title>Node12&#45;&gt;Node13</title>
<path fill="none" stroke="#191970" d="M661.9286,-112.2455C670.1838,-104.1352 682.1209,-92.4075 691.9082,-82.7919"/>
<polygon fill="#191970" stroke="#191970" points="694.5046,-85.1476 699.1851,-75.6427 689.5989,-80.1542 694.5046,-85.1476"/>
</g>
<!-- Node14 -->
<g id="node15" class="node">
<title>Node14</title>
<polygon fill="none" stroke="#bfbfbf" points="807,-56.5 807,-75.5 851,-75.5 851,-56.5 807,-56.5"/>
<text text-anchor="middle" x="829" y="-63.5" font-family="Helvetica,sans-Serif" font-size="10.00" fill="#000000">vector</text>
</g>
<!-- Node12&#45;&gt;Node14 -->
<g id="edge19" class="edge">
<title>Node12&#45;&gt;Node14</title>
<path fill="none" stroke="#191970" d="M682.4274,-112.3733C714.3571,-102.2712 764.3432,-86.4564 796.8903,-76.159"/>
<polygon fill="#191970" stroke="#191970" points="798.3214,-79.3773 806.7998,-73.0238 796.2098,-72.7034 798.3214,-79.3773"/>
</g>
<!-- Node15 -->
<g id="node16" class="node">
<title>Node15</title>
<polygon fill="none" stroke="#bfbfbf" points="683,-.5 683,-19.5 763,-19.5 763,-.5 683,-.5"/>
<text text-anchor="middle" x="723" y="-7.5" font-family="Helvetica,sans-Serif" font-size="10.00" fill="#000000">box2d/box2d.h</text>
</g>
<!-- Node12&#45;&gt;Node15 -->
<g id="edge20" class="edge">
<title>Node12&#45;&gt;Node15</title>
<path fill="none" stroke="#191970" d="M698.2471,-114.5097C720.9124,-108.2546 746.2335,-96.8267 760,-76 770.7567,-59.7267 756.5838,-40.1246 742.784,-26.5314"/>
<polygon fill="#191970" stroke="#191970" points="745.0443,-23.855 735.3165,-19.6572 740.3033,-29.0051 745.0443,-23.855"/>
</g>
<!-- Node16 -->
<g id="node17" class="node">
<title>Node16</title>
<g id="a_node17"><a xlink:href="entity_8h.html" target="_top" xlink:title="entity.h">
<polygon fill="none" stroke="#000000" points="600.5,-56.5 600.5,-75.5 649.5,-75.5 649.5,-56.5 600.5,-56.5"/>
<text text-anchor="middle" x="625" y="-63.5" font-family="Helvetica,sans-Serif" font-size="10.00" fill="#000000">entity.h</text>
</a>
</g>
</g>
<!-- Node12&#45;&gt;Node16 -->
<g id="edge21" class="edge">
<title>Node12&#45;&gt;Node16</title>
<path fill="none" stroke="#191970" d="M647.297,-112.2455C643.6576,-104.6973 638.5076,-94.0158 634.0738,-84.8197"/>
<polygon fill="#191970" stroke="#191970" points="637.1449,-83.1303 629.6491,-75.6427 630.8395,-86.1704 637.1449,-83.1303"/>
</g>
<!-- Node16&#45;&gt;Node1 -->
<g id="edge22" class="edge">
<title>Node16&#45;&gt;Node1</title>
<path fill="none" stroke="#191970" d="M600.3586,-57.737C572.8135,-48.5003 527.8815,-33.4333 495.8669,-22.6979"/>
<polygon fill="#191970" stroke="#191970" points="496.9734,-19.3775 486.3795,-19.5165 494.7479,-26.0143 496.9734,-19.3775"/>
</g>
<!-- Node16&#45;&gt;Node6 -->
<g id="edge23" class="edge">
<title>Node16&#45;&gt;Node6</title>
<path fill="none" stroke="#191970" d="M618.3809,-56.2455C613.0954,-48.4564 605.5459,-37.3308 599.1762,-27.9439"/>
<polygon fill="#191970" stroke="#191970" points="602.0545,-25.9522 593.5432,-19.6427 596.2621,-29.8827 602.0545,-25.9522"/>
</g>
<!-- Node16&#45;&gt;Node15 -->
<g id="edge24" class="edge">
<title>Node16&#45;&gt;Node15</title>
<path fill="none" stroke="#191970" d="M642.0703,-56.2455C657.247,-47.5731 679.6621,-34.7645 697.0563,-24.825"/>
<polygon fill="#191970" stroke="#191970" points="699.1794,-27.643 706.1253,-19.6427 695.7064,-21.5653 699.1794,-27.643"/>
</g>
<!-- Node17 -->
<g id="node18" class="node">
<title>Node17</title>
<polygon fill="none" stroke="#bfbfbf" points="893,-.5 893,-19.5 947,-19.5 947,-.5 893,-.5"/>
<text text-anchor="middle" x="920" y="-7.5" font-family="Helvetica,sans-Serif" font-size="10.00" fill="#000000">iostream</text>
</g>
<!-- Node16&#45;&gt;Node17 -->
<g id="edge25" class="edge">
<title>Node16&#45;&gt;Node17</title>
<path fill="none" stroke="#191970" d="M649.7973,-58.3593C652.8826,-57.5114 656.0048,-56.7021 659,-56 737.8341,-37.5205 831.6208,-22.7099 882.5483,-15.2567"/>
<polygon fill="#191970" stroke="#191970" points="883.3497,-18.6772 892.7444,-13.7793 882.3458,-11.7496 883.3497,-18.6772"/>
</g>
<!-- Node18&#45;&gt;Node1 -->
<g id="edge27" class="edge">
<title>Node18&#45;&gt;Node1</title>
<path fill="none" stroke="#191970" d="M610.3735,-448.2771C583.6234,-431.2388 534,-393.2624 534,-346 534,-346 534,-346 534,-122 534,-82.2361 500.7929,-46.1042 478.2792,-26.177"/>
<polygon fill="#191970" stroke="#191970" points="480.4317,-23.4128 470.5499,-19.5918 475.8921,-28.7412 480.4317,-23.4128"/>
</g>
<!-- Node18&#45;&gt;Node4 -->
<g id="edge29" class="edge">
<title>Node18&#45;&gt;Node4</title>
<path fill="none" stroke="#191970" d="M584.7236,-448.4623C562.8569,-441.5917 537.2147,-430.2296 520,-412 498.5701,-389.3068 496,-377.2125 496,-346 496,-346 496,-346 496,-290 496,-255.6118 479.7366,-218.2832 468.489,-196.5791"/>
<polygon fill="#191970" stroke="#191970" points="471.431,-194.6605 463.607,-187.5166 465.2683,-197.9804 471.431,-194.6605"/>
</g>
<!-- Node19 -->
<g id="node20" class="node">
<title>Node19</title>
<g id="a_node20"><a xlink:href="DEFINITIONS_8hpp.html" target="_top" xlink:title="DEFINITIONS.hpp">
<polygon fill="none" stroke="#000000" points="792,-168.5 792,-187.5 892,-187.5 892,-168.5 792,-168.5"/>
<text text-anchor="middle" x="842" y="-175.5" font-family="Helvetica,sans-Serif" font-size="10.00" fill="#000000">DEFINITIONS.hpp</text>
</a>
</g>
</g>
<!-- Node18&#45;&gt;Node19 -->
<g id="edge28" class="edge">
<title>Node18&#45;&gt;Node19</title>
<path fill="none" stroke="#191970" d="M691.519,-449.2664C789.8182,-435.9572 965.8195,-412.115 966,-412 1018.7803,-378.3803 1046.0413,-334.3368 1015,-280 987.9406,-232.6333 929.338,-205.0652 887.8553,-190.7877"/>
<polygon fill="#191970" stroke="#191970" points="888.8268,-187.4226 878.2336,-187.6068 886.6296,-194.0688 888.8268,-187.4226"/>
</g>
<!-- Node20 -->
<g id="node21" class="node">
<title>Node20</title>
<g id="a_node21"><a xlink:href="Main__Player_8hpp.html" target="_top" xlink:title="Main_Player.hpp">
<polygon fill="none" stroke="#000000" points="659.5,-392.5 659.5,-411.5 748.5,-411.5 748.5,-392.5 659.5,-392.5"/>
<text text-anchor="middle" x="704" y="-399.5" font-family="Helvetica,sans-Serif" font-size="10.00" fill="#000000">Main_Player.hpp</text>
</a>
</g>
</g>
<!-- Node18&#45;&gt;Node20 -->
<g id="edge30" class="edge">
<title>Node18&#45;&gt;Node20</title>
<path fill="none" stroke="#191970" d="M640.4124,-448.2455C652.0057,-439.814 668.9748,-427.4729 682.4678,-417.6598"/>
<polygon fill="#191970" stroke="#191970" points="684.7126,-420.355 690.7413,-411.6427 680.5953,-414.6938 684.7126,-420.355"/>
</g>
<!-- Node22 -->
<g id="node23" class="node">
<title>Node22</title>
<g id="a_node23"><a xlink:href="Bullet_8hpp.html" target="_top" xlink:title="Bullet.hpp">
<polygon fill="none" stroke="#000000" points="946,-280.5 946,-299.5 1006,-299.5 1006,-280.5 946,-280.5"/>
<text text-anchor="middle" x="976" y="-287.5" font-family="Helvetica,sans-Serif" font-size="10.00" fill="#000000">Bullet.hpp</text>
</a>
</g>
</g>
<!-- Node18&#45;&gt;Node22 -->
<g id="edge48" class="edge">
<title>Node18&#45;&gt;Node22</title>
<path fill="none" stroke="#191970" d="M691.5299,-449.0221C781.0458,-436.4877 932.6096,-414.9406 938,-412 967.0324,-396.1619 975.3678,-386.9584 987,-356 992.6741,-340.8985 988.9549,-322.7588 984.364,-309.3213"/>
<polygon fill="#191970" stroke="#191970" points="987.5188,-307.7741 980.658,-299.7006 980.9866,-310.2904 987.5188,-307.7741"/>
</g>
<!-- Node27 -->
<g id="node28" class="node">
<title>Node27</title>
<g id="a_node28"><a xlink:href="Enemy_8hpp.html" target="_top" xlink:title="Enemy.hpp">
<polygon fill="none" stroke="#000000" points="863,-392.5 863,-411.5 929,-411.5 929,-392.5 863,-392.5"/>
<text text-anchor="middle" x="896" y="-399.5" font-family="Helvetica,sans-Serif" font-size="10.00" fill="#000000">Enemy.hpp</text>
</a>
</g>
</g>
<!-- Node18&#45;&gt;Node27 -->
<g id="edge49" class="edge">
<title>Node18&#45;&gt;Node27</title>
<path fill="none" stroke="#191970" d="M672.9371,-448.4369C723.3706,-437.9377 803.7104,-421.2127 852.9616,-410.9597"/>
<polygon fill="#191970" stroke="#191970" points="853.9007,-414.3393 862.9774,-408.8746 852.474,-407.4862 853.9007,-414.3393"/>
</g>
<!-- Node28 -->
<g id="node29" class="node">
<title>Node28</title>
<polygon fill="none" stroke="#bfbfbf" points="766,-392.5 766,-411.5 822,-411.5 822,-392.5 766,-392.5"/>
<text text-anchor="middle" x="794" y="-399.5" font-family="Helvetica,sans-Serif" font-size="10.00" fill="#000000">tinyxml.h</text>
</g>
<!-- Node18&#45;&gt;Node28 -->
<g id="edge55" class="edge">
<title>Node18&#45;&gt;Node28</title>
<path fill="none" stroke="#191970" d="M655.7083,-448.3733C683.4415,-439.0735 725.6122,-424.9324 756.0931,-414.7113"/>
<polygon fill="#191970" stroke="#191970" points="757.5759,-417.9057 765.9443,-411.4079 755.3503,-411.2689 757.5759,-417.9057"/>
</g>
<!-- Node20&#45;&gt;Node17 -->
<g id="edge44" class="edge">
<title>Node20&#45;&gt;Node17</title>
<path fill="none" stroke="#191970" d="M706.7062,-392.3799C717.688,-353.6328 759.4595,-209.1181 783,-168 792.0141,-152.2552 870.4721,-64.7747 904.4362,-27.1784"/>
<polygon fill="#191970" stroke="#191970" points="907.2174,-29.3211 911.3295,-19.5568 902.0259,-24.6256 907.2174,-29.3211"/>
</g>
<!-- Node21 -->
<g id="node22" class="node">
<title>Node21</title>
<g id="a_node22"><a xlink:href="GameWorld_8hpp.html" target="_top" xlink:title="GameWorld.hpp">
<polygon fill="none" stroke="#000000" points="648.5,-224.5 648.5,-243.5 735.5,-243.5 735.5,-224.5 648.5,-224.5"/>
<text text-anchor="middle" x="692" y="-231.5" font-family="Helvetica,sans-Serif" font-size="10.00" fill="#000000">GameWorld.hpp</text>
</a>
</g>
</g>
<!-- Node20&#45;&gt;Node21 -->
<g id="edge31" class="edge">
<title>Node20&#45;&gt;Node21</title>
<path fill="none" stroke="#191970" d="M703.3204,-392.4862C701.4235,-365.9293 696.0404,-290.5651 693.4404,-254.1655"/>
<polygon fill="#191970" stroke="#191970" points="696.9057,-253.5531 692.702,-243.8279 689.9234,-254.0519 696.9057,-253.5531"/>
</g>
<!-- Node20&#45;&gt;Node22 -->
<g id="edge37" class="edge">
<title>Node20&#45;&gt;Node22</title>
<path fill="none" stroke="#191970" d="M748.8999,-392.5808C802.2234,-381.2117 885.6659,-362.7757 899,-356 923.1039,-343.7517 945.9967,-322.4493 960.4581,-307.3624"/>
<polygon fill="#191970" stroke="#191970" points="963.3244,-309.4203 967.579,-299.7172 958.2021,-304.6493 963.3244,-309.4203"/>
</g>
<!-- Node23 -->
<g id="node24" class="node">
<title>Node23</title>
<g id="a_node24"><a xlink:href="Gun_8hpp.html" target="_top" xlink:title="Gun.hpp">
<polygon fill="none" stroke="#000000" points="836.5,-336.5 836.5,-355.5 889.5,-355.5 889.5,-336.5 836.5,-336.5"/>
<text text-anchor="middle" x="863" y="-343.5" font-family="Helvetica,sans-Serif" font-size="10.00" fill="#000000">Gun.hpp</text>
</a>
</g>
</g>
<!-- Node20&#45;&gt;Node23 -->
<g id="edge40" class="edge">
<title>Node20&#45;&gt;Node23</title>
<path fill="none" stroke="#191970" d="M731.3331,-392.3733C757.6229,-383.114 797.5394,-369.0553 826.5299,-358.8448"/>
<polygon fill="#191970" stroke="#191970" points="828.0189,-362.0312 836.2882,-355.4079 825.6934,-355.4287 828.0189,-362.0312"/>
</g>
<!-- Node24 -->
<g id="node25" class="node">
<title>Node24</title>
<polygon fill="none" stroke="#bfbfbf" points="770,-336.5 770,-355.5 818,-355.5 818,-336.5 770,-336.5"/>
<text text-anchor="middle" x="794" y="-343.5" font-family="Helvetica,sans-Serif" font-size="10.00" fill="#000000">stdlib.h</text>
</g>
<!-- Node20&#45;&gt;Node24 -->
<g id="edge45" class="edge">
<title>Node20&#45;&gt;Node24</title>
<path fill="none" stroke="#191970" d="M719.6768,-392.2455C733.4856,-383.6534 753.8193,-371.0014 769.7292,-361.1018"/>
<polygon fill="#191970" stroke="#191970" points="771.8613,-363.8974 778.5028,-355.6427 768.1632,-357.954 771.8613,-363.8974"/>
</g>
<!-- Node25 -->
<g id="node26" class="node">
<title>Node25</title>
<polygon fill="none" stroke="#bfbfbf" points="562,-336.5 562,-355.5 606,-355.5 606,-336.5 562,-336.5"/>
<text text-anchor="middle" x="584" y="-343.5" font-family="Helvetica,sans-Serif" font-size="10.00" fill="#000000">time.h</text>
</g>
<!-- Node20&#45;&gt;Node25 -->
<g id="edge46" class="edge">
<title>Node20&#45;&gt;Node25</title>
<path fill="none" stroke="#191970" d="M683.3713,-392.3733C664.1081,-383.3838 635.1514,-369.8706 613.4581,-359.7471"/>
<polygon fill="#191970" stroke="#191970" points="614.9015,-356.5584 604.3595,-355.5011 611.9413,-362.9017 614.9015,-356.5584"/>
</g>
<!-- Node26 -->
<g id="node27" class="node">
<title>Node26</title>
<polygon fill="none" stroke="#bfbfbf" points="624.5,-336.5 624.5,-355.5 675.5,-355.5 675.5,-336.5 624.5,-336.5"/>
<text text-anchor="middle" x="650" y="-343.5" font-family="Helvetica,sans-Serif" font-size="10.00" fill="#000000">unistd.h</text>
</g>
<!-- Node20&#45;&gt;Node26 -->
<g id="edge47" class="edge">
<title>Node20&#45;&gt;Node26</title>
<path fill="none" stroke="#191970" d="M694.5939,-392.2455C686.8507,-384.2155 675.688,-372.6394 666.4682,-363.0781"/>
<polygon fill="#191970" stroke="#191970" points="668.7591,-360.4117 659.2983,-355.6427 663.7202,-365.2706 668.7591,-360.4117"/>
</g>
<!-- Node21&#45;&gt;Node1 -->
<g id="edge32" class="edge">
<title>Node21&#45;&gt;Node1</title>
<path fill="none" stroke="#191970" d="M681.9431,-224.3924C663.8895,-206.8963 625.2365,-168.2869 597,-132 572.3186,-100.2819 577.8055,-82.96 548,-56 532.6276,-42.0952 512.2794,-31.2284 494.8203,-23.5565"/>
<polygon fill="#191970" stroke="#191970" points="496.0429,-20.2739 485.468,-19.6241 493.3296,-26.7266 496.0429,-20.2739"/>
</g>
<!-- Node21&#45;&gt;Node4 -->
<g id="edge34" class="edge">
<title>Node21&#45;&gt;Node4</title>
<path fill="none" stroke="#191970" d="M652.0398,-224.4369C609.3814,-214.228 542.1265,-198.1328 499.0533,-187.8247"/>
<polygon fill="#191970" stroke="#191970" points="499.7254,-184.3868 489.1854,-185.4632 498.0961,-191.1946 499.7254,-184.3868"/>
</g>
<!-- Node21&#45;&gt;Node12 -->
<g id="edge35" class="edge">
<title>Node21&#45;&gt;Node12</title>
<path fill="none" stroke="#191970" d="M688.5896,-224.4509C682.0067,-206.0186 667.4376,-165.2254 658.8011,-141.043"/>
<polygon fill="#191970" stroke="#191970" points="662.0613,-139.7651 655.4017,-131.5249 655.4691,-142.1195 662.0613,-139.7651"/>
</g>
<!-- Node21&#45;&gt;Node14 -->
<g id="edge36" class="edge">
<title>Node21&#45;&gt;Node14</title>
<path fill="none" stroke="#191970" d="M699.7582,-224.4862C721.8835,-197.3545 785.5516,-119.2798 814.4376,-83.8576"/>
<polygon fill="#191970" stroke="#191970" points="817.3782,-85.7897 820.9856,-75.8279 811.9533,-81.3658 817.3782,-85.7897"/>
</g>
<!-- Node21&#45;&gt;Node19 -->
<g id="edge33" class="edge">
<title>Node21&#45;&gt;Node19</title>
<path fill="none" stroke="#191970" d="M717.7859,-224.3733C742.4047,-215.1822 779.69,-201.2624 806.9875,-191.0713"/>
<polygon fill="#191970" stroke="#191970" points="808.4063,-194.2777 816.5506,-187.5011 805.958,-187.7198 808.4063,-194.2777"/>
</g>
<!-- Node22&#45;&gt;Node17 -->
<g id="edge39" class="edge">
<title>Node22&#45;&gt;Node17</title>
<path fill="none" stroke="#191970" d="M973.421,-280.4945C968.4439,-261.2857 958,-216.4032 958,-178 958,-178 958,-178 958,-122 958,-87.6118 941.7366,-50.2832 930.489,-28.5791"/>
<polygon fill="#191970" stroke="#191970" points="933.431,-26.6605 925.607,-19.5166 927.2683,-29.9804 933.431,-26.6605"/>
</g>
<!-- Node22&#45;&gt;Node21 -->
<g id="edge38" class="edge">
<title>Node22&#45;&gt;Node21</title>
<path fill="none" stroke="#191970" d="M945.733,-282.9786C941.1376,-281.9538 936.4471,-280.9312 932,-280 868.2284,-266.6458 794.5976,-252.7593 745.8875,-243.7852"/>
<polygon fill="#191970" stroke="#191970" points="746.3521,-240.312 735.8841,-241.9467 745.0867,-247.1967 746.3521,-240.312"/>
</g>
<!-- Node23&#45;&gt;Node17 -->
<g id="edge43" class="edge">
<title>Node23&#45;&gt;Node17</title>
<path fill="none" stroke="#191970" d="M865.7505,-336.4719C872.707,-312.0249 891.1478,-244.9908 901,-188 910.8503,-131.02 916.4188,-62.8388 918.7262,-29.8381"/>
<polygon fill="#191970" stroke="#191970" points="922.2284,-29.9211 919.408,-19.7086 915.2442,-29.4509 922.2284,-29.9211"/>
</g>
<!-- Node23&#45;&gt;Node21 -->
<g id="edge41" class="edge">
<title>Node23&#45;&gt;Node21</title>
<path fill="none" stroke="#191970" d="M848.4206,-336.4509C818.7641,-317.0268 751.194,-272.7703 715.3438,-249.2895"/>
<polygon fill="#191970" stroke="#191970" points="716.8256,-246.0761 706.5425,-243.5249 712.9902,-251.9319 716.8256,-246.0761"/>
</g>
<!-- Node23&#45;&gt;Node22 -->
<g id="edge42" class="edge">
<title>Node23&#45;&gt;Node22</title>
<path fill="none" stroke="#191970" d="M882.4254,-336.3733C900.4021,-327.4644 927.3441,-314.1127 947.709,-304.0203"/>
<polygon fill="#191970" stroke="#191970" points="949.4222,-307.0776 956.8281,-299.5011 946.3139,-300.8055 949.4222,-307.0776"/>
</g>
<!-- Node27&#45;&gt;Node17 -->
<g id="edge51" class="edge">
<title>Node27&#45;&gt;Node17</title>
<path fill="none" stroke="#191970" d="M926.0428,-392.3997C945.3926,-384.9772 970.0136,-373.0611 987,-356 1027.9975,-314.8223 1034,-292.1068 1034,-234 1034,-234 1034,-234 1034,-122 1034,-75.4628 985.0617,-41.828 951.3136,-24.1659"/>
<polygon fill="#191970" stroke="#191970" points="952.7576,-20.9746 942.251,-19.6105 949.6138,-27.2289 952.7576,-20.9746"/>
</g>
<!-- Node27&#45;&gt;Node21 -->
<g id="edge50" class="edge">
<title>Node27&#45;&gt;Node21</title>
<path fill="none" stroke="#191970" d="M899.6196,-392.2113C904.0125,-378.5395 909.6058,-353.4461 899,-336 866.1928,-282.0336 795.2984,-255.8532 745.6634,-243.7019"/>
<polygon fill="#191970" stroke="#191970" points="746.2604,-240.2473 735.7269,-241.3857 744.6713,-247.0645 746.2604,-240.2473"/>
</g>
<!-- Node27&#45;&gt;Node22 -->
<g id="edge54" class="edge">
<title>Node27&#45;&gt;Node22</title>
<path fill="none" stroke="#191970" d="M923.1505,-392.371C939.5831,-385.0475 959.3593,-373.2529 970,-356 978.483,-342.2456 979.4638,-323.717 978.6209,-309.7932"/>
<polygon fill="#191970" stroke="#191970" points="982.1007,-309.4133 977.6625,-299.7929 975.1326,-310.0812 982.1007,-309.4133"/>
</g>
<!-- Node27&#45;&gt;Node23 -->
<g id="edge53" class="edge">
<title>Node27&#45;&gt;Node23</title>
<path fill="none" stroke="#191970" d="M890.2518,-392.2455C885.7565,-384.617 879.3752,-373.7881 873.9175,-364.5267"/>
<polygon fill="#191970" stroke="#191970" points="876.7747,-362.4811 868.6823,-355.6427 870.7439,-366.035 876.7747,-362.4811"/>
</g>
<!-- Node27&#45;&gt;Node24 -->
<g id="edge52" class="edge">
<title>Node27&#45;&gt;Node24</title>
<path fill="none" stroke="#191970" d="M878.233,-392.2455C862.2905,-383.4928 838.6741,-370.527 820.5011,-360.5496"/>
<polygon fill="#191970" stroke="#191970" points="822.0137,-357.3873 811.5634,-355.6427 818.6448,-363.5233 822.0137,-357.3873"/>
</g>
</g>
</svg>
