<?xml version="1.0" encoding="UTF-8" standalone="no"?>
<!DOCTYPE svg PUBLIC "-//W3C//DTD SVG 1.1//EN"
 "http://www.w3.org/Graphics/SVG/1.1/DTD/svg11.dtd">
<!-- Generated by graphviz version 2.40.1 (20161225.0304)
 -->
<!-- Title: /mnt/hdd/C0de/Engines/SFML/SFML_Engine/src/SplashState.cpp Pages: 1 -->
<!--zoomable 610 -->
<svg id="main" version="1.1" xmlns="http://www.w3.org/2000/svg" xmlns:xlink="http://www.w3.org/1999/xlink" xml:space="preserve" onload="init(evt)">
<style type="text/css"><![CDATA[
.edge:hover path { stroke: red; }
.edge:hover polygon { stroke: red; fill: red; }
]]></style>
<script type="text/javascript"><![CDATA[
var edges = document.getElementsByTagName('g');
if (edges && edges.length) {
  for (var i=0;i<edges.length;i++) {
    if (edges[i].id.substr(0,4)=='edge') {
      edges[i].setAttribute('class','edge');
    }
  }
}
]]></script>
        <defs>
                <circle id="rim" cx="0" cy="0" r="7"/>
                <circle id="rim2" cx="0" cy="0" r="3.5"/>
                <g id="zoomPlus">
                        <use xlink:href="#rim" fill="#404040">
                                <set attributeName="fill" to="#808080" begin="zoomplus.mouseover" end="zoomplus.mouseout"/>
                        </use>
                        <path d="M-4,0h8M0,-4v8" fill="none" stroke="white" stroke-width="1.5" pointer-events="none"/>
                </g>
                <g id="zoomMin">
                        <use xlink:href="#rim" fill="#404040">
                                <set attributeName="fill" to="#808080" begin="zoomminus.mouseover" end="zoomminus.mouseout"/>
                        </use>
                        <path d="M-4,0h8" fill="none" stroke="white" stroke-width="1.5" pointer-events="none"/>
                </g>
                <g id="dirArrow">
                        <path fill="none" stroke="white" stroke-width="1.5" d="M0,-3.0v7 M-2.5,-0.5L0,-3.0L2.5,-0.5"/>
                </g>
               <g id="resetDef">
                       <use xlink:href="#rim2" fill="#404040">
                               <set attributeName="fill" to="#808080" begin="reset.mouseover" end="reset.mouseout"/>
                       </use>
               </g>
        </defs>

<script type="text/javascript">
var viewWidth = 1279;
var viewHeight = 610;
var sectionId = 'dynsection-0';
</script>
<script xlink:href="svgpan.js"/>
<svg id="graph" class="graph">
<g id="viewport">
<title>/mnt/hdd/C0de/Engines/SFML/SFML_Engine/src/SplashState.cpp</title>
<!-- Node0 -->
<g id="node1" class="node">
<title>Node0</title>
<polygon fill="#bfbfbf" stroke="#000000" points="407.2633,-560.5 407.2633,-601.5 534.2633,-601.5 534.2633,-560.5 407.2633,-560.5"/>
<text text-anchor="start" x="415.2633" y="-589.5" font-family="Helvetica,sans-Serif" font-size="10.00" fill="#000000">/mnt/hdd/C0de/Engines</text>
<text text-anchor="start" x="415.2633" y="-578.5" font-family="Helvetica,sans-Serif" font-size="10.00" fill="#000000">/SFML/SFML_Engine/src</text>
<text text-anchor="middle" x="470.7633" y="-567.5" font-family="Helvetica,sans-Serif" font-size="10.00" fill="#000000">/SplashState.cpp</text>
</g>
<!-- Node1 -->
<g id="node2" class="node">
<title>Node1</title>
<polygon fill="none" stroke="#bfbfbf" points="74.7633,-504.5 74.7633,-523.5 126.7633,-523.5 126.7633,-504.5 74.7633,-504.5"/>
<text text-anchor="middle" x="100.7633" y="-511.5" font-family="Helvetica,sans-Serif" font-size="10.00" fill="#000000">sstream</text>
</g>
<!-- Node0&#45;&gt;Node1 -->
<g id="edge1" class="edge">
<title>Node0&#45;&gt;Node1</title>
<path fill="none" stroke="#191970" d="M407.0671,-572.2888C341.5515,-562.85 236.4368,-546.3783 136.9726,-524.0928"/>
<polygon fill="#191970" stroke="#191970" points="137.5828,-520.6424 127.0567,-521.8472 136.0366,-527.4695 137.5828,-520.6424"/>
</g>
<!-- Node2 -->
<g id="node3" class="node">
<title>Node2</title>
<g id="a_node3"><a xlink:href="SplashState_8hpp.html" target="_top" xlink:title="../include/SplashState.hpp">
<polygon fill="none" stroke="#000000" points="145.2633,-504.5 145.2633,-523.5 276.2633,-523.5 276.2633,-504.5 145.2633,-504.5"/>
<text text-anchor="middle" x="210.7633" y="-511.5" font-family="Helvetica,sans-Serif" font-size="10.00" fill="#000000">../include/SplashState.hpp</text>
</a>
</g>
</g>
<!-- Node0&#45;&gt;Node2 -->
<g id="edge2" class="edge">
<title>Node0&#45;&gt;Node2</title>
<path fill="none" stroke="#191970" d="M407.1602,-564.61C360.9112,-552.692 299.3364,-536.8246 257.5496,-526.0565"/>
<polygon fill="#191970" stroke="#191970" points="258.1937,-522.6082 247.6366,-523.502 256.4468,-529.3867 258.1937,-522.6082"/>
</g>
<!-- Node19 -->
<g id="node20" class="node">
<title>Node19</title>
<polygon fill="none" stroke="#bfbfbf" points="1129.7633,-.5 1129.7633,-19.5 1183.7633,-19.5 1183.7633,-.5 1129.7633,-.5"/>
<text text-anchor="middle" x="1156.7633" y="-7.5" font-family="Helvetica,sans-Serif" font-size="10.00" fill="#000000">iostream</text>
</g>
<!-- Node0&#45;&gt;Node19 -->
<g id="edge69" class="edge">
<title>Node0&#45;&gt;Node19</title>
<path fill="none" stroke="#191970" d="M534.5422,-577.8954C724.0697,-567.8278 1270.7633,-532.3443 1270.7633,-458 1270.7633,-458 1270.7633,-458 1270.7633,-122 1270.7633,-75.4628 1221.825,-41.828 1188.0769,-24.1659"/>
<polygon fill="#191970" stroke="#191970" points="1189.521,-20.9746 1179.0143,-19.6105 1186.3771,-27.2289 1189.521,-20.9746"/>
</g>
<!-- Node21 -->
<g id="node22" class="node">
<title>Node21</title>
<g id="a_node22"><a xlink:href="DEFINITIONS_8hpp.html" target="_top" xlink:title="DEFINITIONS.hpp">
<polygon fill="none" stroke="#000000" points="909.7633,-168.5 909.7633,-187.5 1009.7633,-187.5 1009.7633,-168.5 909.7633,-168.5"/>
<text text-anchor="middle" x="959.7633" y="-175.5" font-family="Helvetica,sans-Serif" font-size="10.00" fill="#000000">DEFINITIONS.hpp</text>
</a>
</g>
</g>
<!-- Node0&#45;&gt;Node21 -->
<g id="edge60" class="edge">
<title>Node0&#45;&gt;Node21</title>
<path fill="none" stroke="#191970" d="M534.3774,-576.2605C704.4403,-562.7432 1156.7633,-520.8804 1156.7633,-458 1156.7633,-458 1156.7633,-458 1156.7633,-346 1156.7633,-263.7799 1056.1863,-213.2848 998.7614,-191.1552"/>
<polygon fill="#191970" stroke="#191970" points="999.8487,-187.8251 989.2562,-187.5987 997.3955,-194.3812 999.8487,-187.8251"/>
</g>
<!-- Node33 -->
<g id="node34" class="node">
<title>Node33</title>
<g id="a_node34"><a xlink:href="MainMenuState_8hpp.html" target="_top" xlink:title="../include/MainMenuState.hpp">
<polygon fill="none" stroke="#000000" points="397.7633,-504.5 397.7633,-523.5 543.7633,-523.5 543.7633,-504.5 397.7633,-504.5"/>
<text text-anchor="middle" x="470.7633" y="-511.5" font-family="Helvetica,sans-Serif" font-size="10.00" fill="#000000">../include/MainMenuState.hpp</text>
</a>
</g>
</g>
<!-- Node0&#45;&gt;Node33 -->
<g id="edge61" class="edge">
<title>Node0&#45;&gt;Node33</title>
<path fill="none" stroke="#191970" d="M470.7633,-560.168C470.7633,-551.8226 470.7633,-542.2471 470.7633,-533.9879"/>
<polygon fill="#191970" stroke="#191970" points="474.2634,-533.7804 470.7633,-523.7805 467.2634,-533.7805 474.2634,-533.7804"/>
</g>
<!-- Node3 -->
<g id="node4" class="node">
<title>Node3</title>
<polygon fill="none" stroke="#bfbfbf" points="437.7633,-.5 437.7633,-19.5 541.7633,-19.5 541.7633,-.5 437.7633,-.5"/>
<text text-anchor="middle" x="489.7633" y="-7.5" font-family="Helvetica,sans-Serif" font-size="10.00" fill="#000000">SFML/Graphics.hpp</text>
</g>
<!-- Node2&#45;&gt;Node3 -->
<g id="edge3" class="edge">
<title>Node2&#45;&gt;Node3</title>
<path fill="none" stroke="#191970" d="M145.239,-505.3548C97.3464,-497.7558 37.7521,-485.2148 19.7633,-468 -2.29,-446.8955 .7633,-432.5246 .7633,-402 .7633,-402 .7633,-402 .7633,-122 .7633,-35.5063 295.1239,-15.8072 427.0778,-11.3219"/>
<polygon fill="#191970" stroke="#191970" points="427.5491,-14.8086 437.4318,-10.9899 427.3247,-7.8122 427.5491,-14.8086"/>
</g>
<!-- Node4 -->
<g id="node5" class="node">
<title>Node4</title>
<polygon fill="none" stroke="#bfbfbf" points="239.2633,-448.5 239.2633,-467.5 328.2633,-467.5 328.2633,-448.5 239.2633,-448.5"/>
<text text-anchor="middle" x="283.7633" y="-455.5" font-family="Helvetica,sans-Serif" font-size="10.00" fill="#000000">SFML/Audio.hpp</text>
</g>
<!-- Node2&#45;&gt;Node4 -->
<g id="edge4" class="edge">
<title>Node2&#45;&gt;Node4</title>
<path fill="none" stroke="#191970" d="M223.479,-504.2455C234.3654,-495.8943 250.2516,-483.7076 262.9833,-473.9408"/>
<polygon fill="#191970" stroke="#191970" points="265.3894,-476.5063 271.1934,-467.6427 261.1288,-470.9523 265.3894,-476.5063"/>
</g>
<!-- Node5 -->
<g id="node6" class="node">
<title>Node5</title>
<g id="a_node6"><a xlink:href="State_8hpp.html" target="_top" xlink:title="State.hpp">
<polygon fill="none" stroke="#000000" points="230.2633,-56.5 230.2633,-75.5 289.2633,-75.5 289.2633,-56.5 230.2633,-56.5"/>
<text text-anchor="middle" x="259.7633" y="-63.5" font-family="Helvetica,sans-Serif" font-size="10.00" fill="#000000">State.hpp</text>
</a>
</g>
</g>
<!-- Node2&#45;&gt;Node5 -->
<g id="edge5" class="edge">
<title>Node2&#45;&gt;Node5</title>
<path fill="none" stroke="#191970" d="M208.3323,-504.4164C199.3896,-467.7754 169.7543,-333.1307 187.7633,-224 196.322,-172.1366 201.406,-158.5809 225.7633,-112 231.023,-101.9415 238.3635,-91.6952 244.8784,-83.4338"/>
<polygon fill="#191970" stroke="#191970" points="247.6333,-85.5937 251.2469,-75.6341 242.2111,-81.1665 247.6333,-85.5937"/>
</g>
<!-- Node6 -->
<g id="node7" class="node">
<title>Node6</title>
<g id="a_node7"><a xlink:href="Game_8hpp.html" target="_top" xlink:title="Game.hpp">
<polygon fill="none" stroke="#000000" points="512.7633,-168.5 512.7633,-187.5 574.7633,-187.5 574.7633,-168.5 512.7633,-168.5"/>
<text text-anchor="middle" x="543.7633" y="-175.5" font-family="Helvetica,sans-Serif" font-size="10.00" fill="#000000">Game.hpp</text>
</a>
</g>
</g>
<!-- Node2&#45;&gt;Node6 -->
<g id="edge6" class="edge">
<title>Node2&#45;&gt;Node6</title>
<path fill="none" stroke="#191970" d="M213.2099,-504.4636C216.6336,-491.5072 223.2808,-467.699 230.7633,-448 248.4875,-401.3383 277.7633,-395.9145 277.7633,-346 277.7633,-346 277.7633,-346 277.7633,-290 277.7633,-241.7848 428.0878,-202.7667 502.7236,-186.3657"/>
<polygon fill="#191970" stroke="#191970" points="503.6944,-189.7368 512.7292,-184.203 502.2154,-182.8948 503.6944,-189.7368"/>
</g>
<!-- Node20 -->
<g id="node21" class="node">
<title>Node20</title>
<g id="a_node21"><a xlink:href="LoadingGameObjects_8hpp.html" target="_top" xlink:title="LoadingGameObjects.hpp">
<polygon fill="none" stroke="#000000" points="509.2633,-448.5 509.2633,-467.5 638.2633,-467.5 638.2633,-448.5 509.2633,-448.5"/>
<text text-anchor="middle" x="573.7633" y="-455.5" font-family="Helvetica,sans-Serif" font-size="10.00" fill="#000000">LoadingGameObjects.hpp</text>
</a>
</g>
</g>
<!-- Node2&#45;&gt;Node20 -->
<g id="edge28" class="edge">
<title>Node2&#45;&gt;Node20</title>
<path fill="none" stroke="#191970" d="M272.7528,-504.4369C336.3131,-494.6314 435.0734,-479.3957 501.9856,-469.0731"/>
<polygon fill="#191970" stroke="#191970" points="502.6801,-472.5075 512.0295,-467.5237 501.6128,-465.5893 502.6801,-472.5075"/>
</g>
<!-- Node31 -->
<g id="node32" class="node">
<title>Node31</title>
<polygon fill="none" stroke="#bfbfbf" points="29.2633,-448.5 29.2633,-467.5 82.2633,-467.5 82.2633,-448.5 29.2633,-448.5"/>
<text text-anchor="middle" x="55.7633" y="-455.5" font-family="Helvetica,sans-Serif" font-size="10.00" fill="#000000">complex</text>
</g>
<!-- Node2&#45;&gt;Node31 -->
<g id="edge58" class="edge">
<title>Node2&#45;&gt;Node31</title>
<path fill="none" stroke="#191970" d="M184.1179,-504.3733C158.5669,-495.1419 119.8121,-481.1402 91.5724,-470.9375"/>
<polygon fill="#191970" stroke="#191970" points="92.6554,-467.6074 82.0611,-467.5011 90.2768,-474.1909 92.6554,-467.6074"/>
</g>
<!-- Node32 -->
<g id="node33" class="node">
<title>Node32</title>
<polygon fill="none" stroke="#bfbfbf" points="100.7633,-448.5 100.7633,-467.5 144.7633,-467.5 144.7633,-448.5 100.7633,-448.5"/>
<text text-anchor="middle" x="122.7633" y="-455.5" font-family="Helvetica,sans-Serif" font-size="10.00" fill="#000000">cmath</text>
</g>
<!-- Node2&#45;&gt;Node32 -->
<g id="edge59" class="edge">
<title>Node2&#45;&gt;Node32</title>
<path fill="none" stroke="#191970" d="M195.4349,-504.2455C181.933,-495.6534 162.0512,-483.0014 146.4948,-473.1018"/>
<polygon fill="#191970" stroke="#191970" points="148.2318,-470.0587 137.9161,-467.6427 144.4737,-475.9643 148.2318,-470.0587"/>
</g>
<!-- Node6&#45;&gt;Node3 -->
<g id="edge9" class="edge">
<title>Node6&#45;&gt;Node3</title>
<path fill="none" stroke="#191970" d="M512.505,-171.4649C477.3626,-163.4094 423.6407,-148.7169 411.7633,-132 385.411,-94.91 435.3042,-49.2866 466.8074,-25.7334"/>
<polygon fill="#191970" stroke="#191970" points="469.0857,-28.4047 475.1266,-19.7008 464.9764,-22.7378 469.0857,-28.4047"/>
</g>
<!-- Node7 -->
<g id="node8" class="node">
<title>Node7</title>
<polygon fill="none" stroke="#bfbfbf" points="500.7633,-56.5 500.7633,-75.5 552.7633,-75.5 552.7633,-56.5 500.7633,-56.5"/>
<text text-anchor="middle" x="526.7633" y="-63.5" font-family="Helvetica,sans-Serif" font-size="10.00" fill="#000000">memory</text>
</g>
<!-- Node6&#45;&gt;Node7 -->
<g id="edge7" class="edge">
<title>Node6&#45;&gt;Node7</title>
<path fill="none" stroke="#191970" d="M542.3139,-168.4509C539.5413,-150.184 533.4351,-109.9553 529.7532,-85.6976"/>
<polygon fill="#191970" stroke="#191970" points="533.1702,-84.8864 528.2091,-75.5249 526.2495,-85.9369 533.1702,-84.8864"/>
</g>
<!-- Node8 -->
<g id="node9" class="node">
<title>Node8</title>
<polygon fill="none" stroke="#bfbfbf" points="810.2633,-.5 810.2633,-19.5 851.2633,-19.5 851.2633,-.5 810.2633,-.5"/>
<text text-anchor="middle" x="830.7633" y="-7.5" font-family="Helvetica,sans-Serif" font-size="10.00" fill="#000000">string</text>
</g>
<!-- Node6&#45;&gt;Node8 -->
<g id="edge8" class="edge">
<title>Node6&#45;&gt;Node8</title>
<path fill="none" stroke="#191970" d="M574.7888,-170.7275C603.005,-163.3613 645.2347,-150.4202 678.7633,-132 733.0538,-102.1735 787.4247,-52.6194 813.9995,-26.8034"/>
<polygon fill="#191970" stroke="#191970" points="816.6471,-29.1086 821.3236,-19.6017 811.7392,-24.1173 816.6471,-29.1086"/>
</g>
<!-- Node9 -->
<g id="node10" class="node">
<title>Node9</title>
<g id="a_node10"><a xlink:href="StateMachine_8hpp.html" target="_top" xlink:title="StateMachine.hpp">
<polygon fill="none" stroke="#000000" points="420.2633,-112.5 420.2633,-131.5 515.2633,-131.5 515.2633,-112.5 420.2633,-112.5"/>
<text text-anchor="middle" x="467.7633" y="-119.5" font-family="Helvetica,sans-Serif" font-size="10.00" fill="#000000">StateMachine.hpp</text>
</a>
</g>
</g>
<!-- Node6&#45;&gt;Node9 -->
<g id="edge10" class="edge">
<title>Node6&#45;&gt;Node9</title>
<path fill="none" stroke="#191970" d="M530.5252,-168.2455C519.0824,-159.814 502.3337,-147.4729 489.0159,-137.6598"/>
<polygon fill="#191970" stroke="#191970" points="490.9766,-134.757 480.8498,-131.6427 486.8242,-140.3924 490.9766,-134.757"/>
</g>
<!-- Node11 -->
<g id="node12" class="node">
<title>Node11</title>
<g id="a_node12"><a xlink:href="AssetManager_8hpp.html" target="_top" xlink:title="AssetManager.hpp">
<polygon fill="none" stroke="#000000" points="571.7633,-112.5 571.7633,-131.5 669.7633,-131.5 669.7633,-112.5 571.7633,-112.5"/>
<text text-anchor="middle" x="620.7633" y="-119.5" font-family="Helvetica,sans-Serif" font-size="10.00" fill="#000000">AssetManager.hpp</text>
</a>
</g>
</g>
<!-- Node6&#45;&gt;Node11 -->
<g id="edge14" class="edge">
<title>Node6&#45;&gt;Node11</title>
<path fill="none" stroke="#191970" d="M557.1757,-168.2455C568.7691,-159.814 585.7381,-147.4729 599.2312,-137.6598"/>
<polygon fill="#191970" stroke="#191970" points="601.4759,-140.355 607.5047,-131.6427 597.3587,-134.6938 601.4759,-140.355"/>
</g>
<!-- Node13 -->
<g id="node14" class="node">
<title>Node13</title>
<g id="a_node14"><a xlink:href="InputManager_8hpp.html" target="_top" xlink:title="InputManager.hpp">
<polygon fill="none" stroke="#000000" points="268.2633,-112.5 268.2633,-131.5 363.2633,-131.5 363.2633,-112.5 268.2633,-112.5"/>
<text text-anchor="middle" x="315.7633" y="-119.5" font-family="Helvetica,sans-Serif" font-size="10.00" fill="#000000">InputManager.hpp</text>
</a>
</g>
</g>
<!-- Node6&#45;&gt;Node13 -->
<g id="edge17" class="edge">
<title>Node6&#45;&gt;Node13</title>
<path fill="none" stroke="#191970" d="M512.539,-170.3309C474.3284,-160.9458 409.199,-144.9491 364.4033,-133.9467"/>
<polygon fill="#191970" stroke="#191970" points="365.1552,-130.5274 354.609,-131.541 363.4855,-137.3253 365.1552,-130.5274"/>
</g>
<!-- Node14 -->
<g id="node15" class="node">
<title>Node14</title>
<g id="a_node15"><a xlink:href="entity__manager_8h.html" target="_top" xlink:title="entity_manager.h">
<polygon fill="none" stroke="#000000" points="857.7633,-112.5 857.7633,-131.5 949.7633,-131.5 949.7633,-112.5 857.7633,-112.5"/>
<text text-anchor="middle" x="903.7633" y="-119.5" font-family="Helvetica,sans-Serif" font-size="10.00" fill="#000000">entity_manager.h</text>
</a>
</g>
</g>
<!-- Node6&#45;&gt;Node14 -->
<g id="edge19" class="edge">
<title>Node6&#45;&gt;Node14</title>
<path fill="none" stroke="#191970" d="M574.7683,-173.177C635.4877,-163.7318 770.8352,-142.6777 847.6686,-130.7258"/>
<polygon fill="#191970" stroke="#191970" points="848.3085,-134.1685 857.6517,-129.1729 847.2325,-127.2517 848.3085,-134.1685"/>
</g>
<!-- Node9&#45;&gt;Node5 -->
<g id="edge13" class="edge">
<title>Node9&#45;&gt;Node5</title>
<path fill="none" stroke="#191970" d="M432.0069,-112.3733C395.0081,-102.412 337.378,-86.8963 299.1084,-76.5929"/>
<polygon fill="#191970" stroke="#191970" points="299.9073,-73.1834 289.3412,-73.9633 298.0874,-79.9427 299.9073,-73.1834"/>
</g>
<!-- Node9&#45;&gt;Node7 -->
<g id="edge11" class="edge">
<title>Node9&#45;&gt;Node7</title>
<path fill="none" stroke="#191970" d="M478.0404,-112.2455C486.5852,-104.1352 498.9411,-92.4075 509.0719,-82.7919"/>
<polygon fill="#191970" stroke="#191970" points="511.7605,-85.0655 516.6041,-75.6427 506.9415,-79.9884 511.7605,-85.0655"/>
</g>
<!-- Node10 -->
<g id="node11" class="node">
<title>Node10</title>
<polygon fill="none" stroke="#bfbfbf" points="441.2633,-56.5 441.2633,-75.5 482.2633,-75.5 482.2633,-56.5 441.2633,-56.5"/>
<text text-anchor="middle" x="461.7633" y="-63.5" font-family="Helvetica,sans-Serif" font-size="10.00" fill="#000000">stack</text>
</g>
<!-- Node9&#45;&gt;Node10 -->
<g id="edge12" class="edge">
<title>Node9&#45;&gt;Node10</title>
<path fill="none" stroke="#191970" d="M466.7182,-112.2455C465.9353,-104.9382 464.8377,-94.6944 463.8745,-85.7046"/>
<polygon fill="#191970" stroke="#191970" points="467.342,-85.2129 462.7965,-75.6427 460.3818,-85.9587 467.342,-85.2129"/>
</g>
<!-- Node11&#45;&gt;Node3 -->
<g id="edge16" class="edge">
<title>Node11&#45;&gt;Node3</title>
<path fill="none" stroke="#191970" d="M613.4725,-112.2895C602.9849,-98.7107 582.6001,-73.727 561.7633,-56 547.769,-44.0942 530.4607,-32.9404 516.3218,-24.5983"/>
<polygon fill="#191970" stroke="#191970" points="517.9661,-21.5063 507.5548,-19.5426 514.4692,-27.5703 517.9661,-21.5063"/>
</g>
<!-- Node12 -->
<g id="node13" class="node">
<title>Node12</title>
<polygon fill="none" stroke="#bfbfbf" points="609.2633,-56.5 609.2633,-75.5 644.2633,-75.5 644.2633,-56.5 609.2633,-56.5"/>
<text text-anchor="middle" x="626.7633" y="-63.5" font-family="Helvetica,sans-Serif" font-size="10.00" fill="#000000">map</text>
</g>
<!-- Node11&#45;&gt;Node12 -->
<g id="edge15" class="edge">
<title>Node11&#45;&gt;Node12</title>
<path fill="none" stroke="#191970" d="M621.8085,-112.2455C622.5914,-104.9382 623.6889,-94.6944 624.6521,-85.7046"/>
<polygon fill="#191970" stroke="#191970" points="628.1449,-85.9587 625.7302,-75.6427 621.1847,-85.2129 628.1449,-85.9587"/>
</g>
<!-- Node13&#45;&gt;Node3 -->
<g id="edge18" class="edge">
<title>Node13&#45;&gt;Node3</title>
<path fill="none" stroke="#191970" d="M322.7501,-112.2474C333.2744,-98.1605 354.4588,-72.0523 377.7633,-56 398.7053,-41.5751 424.8649,-30.5112 446.6347,-22.853"/>
<polygon fill="#191970" stroke="#191970" points="447.9494,-26.1029 456.2935,-19.5741 445.6992,-19.4744 447.9494,-26.1029"/>
</g>
<!-- Node15 -->
<g id="node16" class="node">
<title>Node15</title>
<polygon fill="none" stroke="#bfbfbf" points="864.2633,-56.5 864.2633,-75.5 947.2633,-75.5 947.2633,-56.5 864.2633,-56.5"/>
<text text-anchor="middle" x="905.7633" y="-63.5" font-family="Helvetica,sans-Serif" font-size="10.00" fill="#000000">unordered_map</text>
</g>
<!-- Node14&#45;&gt;Node15 -->
<g id="edge20" class="edge">
<title>Node14&#45;&gt;Node15</title>
<path fill="none" stroke="#191970" d="M904.1117,-112.2455C904.3727,-104.9382 904.7385,-94.6944 905.0596,-85.7046"/>
<polygon fill="#191970" stroke="#191970" points="908.5597,-85.7613 905.419,-75.6427 901.5642,-85.5113 908.5597,-85.7613"/>
</g>
<!-- Node16 -->
<g id="node17" class="node">
<title>Node16</title>
<polygon fill="none" stroke="#bfbfbf" points="801.7633,-56.5 801.7633,-75.5 845.7633,-75.5 845.7633,-56.5 801.7633,-56.5"/>
<text text-anchor="middle" x="823.7633" y="-63.5" font-family="Helvetica,sans-Serif" font-size="10.00" fill="#000000">vector</text>
</g>
<!-- Node14&#45;&gt;Node16 -->
<g id="edge21" class="edge">
<title>Node14&#45;&gt;Node16</title>
<path fill="none" stroke="#191970" d="M889.8284,-112.2455C877.6687,-103.7337 859.8169,-91.2375 845.7349,-81.3801"/>
<polygon fill="#191970" stroke="#191970" points="847.7381,-78.51 837.5386,-75.6427 843.7238,-84.2447 847.7381,-78.51"/>
</g>
<!-- Node17 -->
<g id="node18" class="node">
<title>Node17</title>
<polygon fill="none" stroke="#bfbfbf" points="975.7633,-.5 975.7633,-19.5 1055.7633,-19.5 1055.7633,-.5 975.7633,-.5"/>
<text text-anchor="middle" x="1015.7633" y="-7.5" font-family="Helvetica,sans-Serif" font-size="10.00" fill="#000000">box2d/box2d.h</text>
</g>
<!-- Node14&#45;&gt;Node17 -->
<g id="edge22" class="edge">
<title>Node14&#45;&gt;Node17</title>
<path fill="none" stroke="#191970" d="M941.7122,-112.4828C973.1182,-103.7482 1014.0925,-90.0642 1023.7633,-76 1033.0396,-62.5096 1029.5803,-43.7066 1024.6506,-29.6197"/>
<polygon fill="#191970" stroke="#191970" points="1027.7409,-27.9207 1020.7808,-19.9327 1021.2404,-30.5176 1027.7409,-27.9207"/>
</g>
<!-- Node18 -->
<g id="node19" class="node">
<title>Node18</title>
<g id="a_node19"><a xlink:href="entity_8h.html" target="_top" xlink:title="entity.h">
<polygon fill="none" stroke="#000000" points="965.2633,-56.5 965.2633,-75.5 1014.2633,-75.5 1014.2633,-56.5 965.2633,-56.5"/>
<text text-anchor="middle" x="989.7633" y="-63.5" font-family="Helvetica,sans-Serif" font-size="10.00" fill="#000000">entity.h</text>
</a>
</g>
</g>
<!-- Node14&#45;&gt;Node18 -->
<g id="edge23" class="edge">
<title>Node14&#45;&gt;Node18</title>
<path fill="none" stroke="#191970" d="M918.7434,-112.2455C931.9384,-103.6534 951.3684,-91.0014 966.5713,-81.1018"/>
<polygon fill="#191970" stroke="#191970" points="968.4848,-84.0325 974.955,-75.6427 964.6651,-78.1665 968.4848,-84.0325"/>
</g>
<!-- Node18&#45;&gt;Node3 -->
<g id="edge24" class="edge">
<title>Node18&#45;&gt;Node3</title>
<path fill="none" stroke="#191970" d="M965.0294,-57.9364C962.26,-57.2037 959.4643,-56.5369 956.7633,-56 813.6543,-27.5547 642.2148,-16.3958 552.1282,-12.2585"/>
<polygon fill="#191970" stroke="#191970" points="552.2272,-8.7595 542.0813,-11.8108 551.9155,-15.7526 552.2272,-8.7595"/>
</g>
<!-- Node18&#45;&gt;Node8 -->
<g id="edge25" class="edge">
<title>Node18&#45;&gt;Node8</title>
<path fill="none" stroke="#191970" d="M964.9196,-57.25C936.8271,-47.3558 891.0867,-31.246 860.9579,-20.6346"/>
<polygon fill="#191970" stroke="#191970" points="861.9816,-17.2844 851.3868,-17.2636 859.6562,-23.8869 861.9816,-17.2844"/>
</g>
<!-- Node18&#45;&gt;Node17 -->
<g id="edge26" class="edge">
<title>Node18&#45;&gt;Node17</title>
<path fill="none" stroke="#191970" d="M994.2922,-56.2455C997.7967,-48.6973 1002.756,-38.0158 1007.0256,-28.8197"/>
<polygon fill="#191970" stroke="#191970" points="1010.2498,-30.1867 1011.2864,-19.6427 1003.9007,-27.2389 1010.2498,-30.1867"/>
</g>
<!-- Node18&#45;&gt;Node19 -->
<g id="edge27" class="edge">
<title>Node18&#45;&gt;Node19</title>
<path fill="none" stroke="#191970" d="M1014.4048,-57.737C1042.2788,-48.39 1087.9573,-33.0727 1120.0377,-22.3152"/>
<polygon fill="#191970" stroke="#191970" points="1121.154,-25.6325 1129.5224,-19.1347 1118.9285,-18.9957 1121.154,-25.6325"/>
</g>
<!-- Node20&#45;&gt;Node3 -->
<g id="edge29" class="edge">
<title>Node20&#45;&gt;Node3</title>
<path fill="none" stroke="#191970" d="M533.9528,-448.4463C437.987,-422.7935 201.7633,-342.9002 201.7633,-178 201.7633,-178 201.7633,-178 201.7633,-122 201.7633,-91.3494 198.7864,-76.2858 221.7633,-56 251.5115,-29.736 357.7698,-18.1293 427.2175,-13.2555"/>
<polygon fill="#191970" stroke="#191970" points="427.8637,-16.7201 437.6063,-12.5571 427.3941,-9.7359 427.8637,-16.7201"/>
</g>
<!-- Node20&#45;&gt;Node6 -->
<g id="edge31" class="edge">
<title>Node20&#45;&gt;Node6</title>
<path fill="none" stroke="#191970" d="M572.7307,-448.3618C568.4214,-408.1418 551.8222,-253.2159 545.8879,-197.8288"/>
<polygon fill="#191970" stroke="#191970" points="549.3372,-197.1679 544.7917,-187.5977 542.377,-197.9137 549.3372,-197.1679"/>
</g>
<!-- Node20&#45;&gt;Node21 -->
<g id="edge30" class="edge">
<title>Node20&#45;&gt;Node21</title>
<path fill="none" stroke="#191970" d="M580.9016,-448.3839C594.0497,-429.6891 620.7633,-386.6982 620.7633,-346 620.7633,-346 620.7633,-346 620.7633,-290 620.7633,-231.9314 802.3634,-198.8672 899.7334,-185.3124"/>
<polygon fill="#191970" stroke="#191970" points="900.3079,-188.7665 909.7427,-183.9464 899.3613,-181.8308 900.3079,-188.7665"/>
</g>
<!-- Node22 -->
<g id="node23" class="node">
<title>Node22</title>
<g id="a_node23"><a xlink:href="Main__Player_8hpp.html" target="_top" xlink:title="Main_Player.hpp">
<polygon fill="none" stroke="#000000" points="765.2633,-392.5 765.2633,-411.5 854.2633,-411.5 854.2633,-392.5 765.2633,-392.5"/>
<text text-anchor="middle" x="809.7633" y="-399.5" font-family="Helvetica,sans-Serif" font-size="10.00" fill="#000000">Main_Player.hpp</text>
</a>
</g>
</g>
<!-- Node20&#45;&gt;Node22 -->
<g id="edge32" class="edge">
<title>Node20&#45;&gt;Node22</title>
<path fill="none" stroke="#191970" d="M614.065,-448.4369C654.3698,-438.8731 716.4454,-424.1432 759.8451,-413.845"/>
<polygon fill="#191970" stroke="#191970" points="760.7061,-417.238 769.6279,-411.5237 759.0899,-410.4271 760.7061,-417.238"/>
</g>
<!-- Node24 -->
<g id="node25" class="node">
<title>Node24</title>
<g id="a_node25"><a xlink:href="Bullet_8hpp.html" target="_top" xlink:title="Bullet.hpp">
<polygon fill="none" stroke="#000000" points="1030.7633,-280.5 1030.7633,-299.5 1090.7633,-299.5 1090.7633,-280.5 1030.7633,-280.5"/>
<text text-anchor="middle" x="1060.7633" y="-287.5" font-family="Helvetica,sans-Serif" font-size="10.00" fill="#000000">Bullet.hpp</text>
</a>
</g>
</g>
<!-- Node20&#45;&gt;Node24 -->
<g id="edge50" class="edge">
<title>Node20&#45;&gt;Node24</title>
<path fill="none" stroke="#191970" d="M638.3213,-449.1484C641.5127,-448.7509 644.6736,-448.3658 647.7633,-448 726.2874,-438.7041 932.9208,-450.8992 1001.7633,-412 1038.8338,-391.0535 1052.9771,-338.7517 1058.0831,-309.8954"/>
<polygon fill="#191970" stroke="#191970" points="1061.5791,-310.1932 1059.6712,-299.7716 1054.6637,-309.1084 1061.5791,-310.1932"/>
</g>
<!-- Node29 -->
<g id="node30" class="node">
<title>Node29</title>
<g id="a_node30"><a xlink:href="Enemy_8hpp.html" target="_top" xlink:title="Enemy.hpp">
<polygon fill="none" stroke="#000000" points="926.7633,-392.5 926.7633,-411.5 992.7633,-411.5 992.7633,-392.5 926.7633,-392.5"/>
<text text-anchor="middle" x="959.7633" y="-399.5" font-family="Helvetica,sans-Serif" font-size="10.00" fill="#000000">Enemy.hpp</text>
</a>
</g>
</g>
<!-- Node20&#45;&gt;Node29 -->
<g id="edge51" class="edge">
<title>Node20&#45;&gt;Node29</title>
<path fill="none" stroke="#191970" d="M638.3711,-448.6269C717.373,-437.1654 848.9029,-418.0834 916.595,-408.2628"/>
<polygon fill="#191970" stroke="#191970" points="917.1056,-411.7254 926.4995,-406.8258 916.1006,-404.7979 917.1056,-411.7254"/>
</g>
<!-- Node30 -->
<g id="node31" class="node">
<title>Node30</title>
<polygon fill="none" stroke="#bfbfbf" points="498.7633,-392.5 498.7633,-411.5 554.7633,-411.5 554.7633,-392.5 498.7633,-392.5"/>
<text text-anchor="middle" x="526.7633" y="-399.5" font-family="Helvetica,sans-Serif" font-size="10.00" fill="#000000">tinyxml.h</text>
</g>
<!-- Node20&#45;&gt;Node30 -->
<g id="edge57" class="edge">
<title>Node20&#45;&gt;Node30</title>
<path fill="none" stroke="#191970" d="M565.5766,-448.2455C558.9045,-440.2958 549.3154,-428.8706 541.338,-419.3656"/>
<polygon fill="#191970" stroke="#191970" points="543.966,-417.0524 534.8563,-411.6427 538.6041,-421.5525 543.966,-417.0524"/>
</g>
<!-- Node22&#45;&gt;Node19 -->
<g id="edge46" class="edge">
<title>Node22&#45;&gt;Node19</title>
<path fill="none" stroke="#191970" d="M854.5061,-397.9342C899.03,-392.6305 968.5028,-380.9021 1023.7633,-356 1113.7995,-315.4269 1156.7633,-276.7557 1156.7633,-178 1156.7633,-178 1156.7633,-178 1156.7633,-122 1156.7633,-89.7116 1156.7633,-52.1872 1156.7633,-29.8048"/>
<polygon fill="#191970" stroke="#191970" points="1160.2634,-29.5883 1156.7633,-19.5884 1153.2634,-29.5884 1160.2634,-29.5883"/>
</g>
<!-- Node23 -->
<g id="node24" class="node">
<title>Node23</title>
<g id="a_node24"><a xlink:href="GameWorld_8hpp.html" target="_top" xlink:title="GameWorld.hpp">
<polygon fill="none" stroke="#000000" points="838.2633,-224.5 838.2633,-243.5 925.2633,-243.5 925.2633,-224.5 838.2633,-224.5"/>
<text text-anchor="middle" x="881.7633" y="-231.5" font-family="Helvetica,sans-Serif" font-size="10.00" fill="#000000">GameWorld.hpp</text>
</a>
</g>
</g>
<!-- Node22&#45;&gt;Node23 -->
<g id="edge33" class="edge">
<title>Node22&#45;&gt;Node23</title>
<path fill="none" stroke="#191970" d="M811.071,-392.3488C813.0412,-379.2623 817.3517,-355.3072 824.7633,-336 836.634,-305.0773 856.5503,-272.106 869.4198,-252.279"/>
<polygon fill="#191970" stroke="#191970" points="872.516,-253.9418 875.1053,-243.6682 866.6744,-250.0847 872.516,-253.9418"/>
</g>
<!-- Node22&#45;&gt;Node24 -->
<g id="edge39" class="edge">
<title>Node22&#45;&gt;Node24</title>
<path fill="none" stroke="#191970" d="M812.5811,-392.2003C817.3202,-377.5607 828.3269,-350.1876 847.7633,-336 874.8349,-316.2392 966.4708,-301.7962 1020.3273,-294.7763"/>
<polygon fill="#191970" stroke="#191970" points="1021.0872,-298.2079 1030.5646,-293.4719 1020.2024,-291.264 1021.0872,-298.2079"/>
</g>
<!-- Node25 -->
<g id="node26" class="node">
<title>Node25</title>
<g id="a_node26"><a xlink:href="Gun_8hpp.html" target="_top" xlink:title="Gun.hpp">
<polygon fill="none" stroke="#000000" points="961.2633,-336.5 961.2633,-355.5 1014.2633,-355.5 1014.2633,-336.5 961.2633,-336.5"/>
<text text-anchor="middle" x="987.7633" y="-343.5" font-family="Helvetica,sans-Serif" font-size="10.00" fill="#000000">Gun.hpp</text>
</a>
</g>
</g>
<!-- Node22&#45;&gt;Node25 -->
<g id="edge42" class="edge">
<title>Node22&#45;&gt;Node25</title>
<path fill="none" stroke="#191970" d="M840.3626,-392.3733C871.1704,-382.6809 918.6936,-367.7298 951.4057,-357.4384"/>
<polygon fill="#191970" stroke="#191970" points="952.5586,-360.7449 961.0472,-354.4051 950.4578,-354.0675 952.5586,-360.7449"/>
</g>
<!-- Node26 -->
<g id="node27" class="node">
<title>Node26</title>
<polygon fill="none" stroke="#bfbfbf" points="856.7633,-336.5 856.7633,-355.5 904.7633,-355.5 904.7633,-336.5 856.7633,-336.5"/>
<text text-anchor="middle" x="880.7633" y="-343.5" font-family="Helvetica,sans-Serif" font-size="10.00" fill="#000000">stdlib.h</text>
</g>
<!-- Node22&#45;&gt;Node26 -->
<g id="edge47" class="edge">
<title>Node22&#45;&gt;Node26</title>
<path fill="none" stroke="#191970" d="M822.1306,-392.2455C832.7188,-383.8943 848.1697,-371.7076 860.5527,-361.9408"/>
<polygon fill="#191970" stroke="#191970" points="862.8536,-364.5837 868.5378,-355.6427 858.5186,-359.0875 862.8536,-364.5837"/>
</g>
<!-- Node27 -->
<g id="node28" class="node">
<title>Node27</title>
<polygon fill="none" stroke="#bfbfbf" points="648.7633,-336.5 648.7633,-355.5 692.7633,-355.5 692.7633,-336.5 648.7633,-336.5"/>
<text text-anchor="middle" x="670.7633" y="-343.5" font-family="Helvetica,sans-Serif" font-size="10.00" fill="#000000">time.h</text>
</g>
<!-- Node22&#45;&gt;Node27 -->
<g id="edge48" class="edge">
<title>Node22&#45;&gt;Node27</title>
<path fill="none" stroke="#191970" d="M785.8684,-392.3733C762.8439,-383.0972 727.8637,-369.0045 702.5087,-358.7895"/>
<polygon fill="#191970" stroke="#191970" points="703.5543,-355.4374 692.9709,-354.9469 700.9385,-361.9303 703.5543,-355.4374"/>
</g>
<!-- Node28 -->
<g id="node29" class="node">
<title>Node28</title>
<polygon fill="none" stroke="#bfbfbf" points="711.2633,-336.5 711.2633,-355.5 762.2633,-355.5 762.2633,-336.5 711.2633,-336.5"/>
<text text-anchor="middle" x="736.7633" y="-343.5" font-family="Helvetica,sans-Serif" font-size="10.00" fill="#000000">unistd.h</text>
</g>
<!-- Node22&#45;&gt;Node28 -->
<g id="edge49" class="edge">
<title>Node22&#45;&gt;Node28</title>
<path fill="none" stroke="#191970" d="M797.0477,-392.2455C786.1613,-383.8943 770.2751,-371.7076 757.5433,-361.9408"/>
<polygon fill="#191970" stroke="#191970" points="759.3979,-358.9523 749.3333,-355.6427 755.1373,-364.5063 759.3979,-358.9523"/>
</g>
<!-- Node23&#45;&gt;Node3 -->
<g id="edge34" class="edge">
<title>Node23&#45;&gt;Node3</title>
<path fill="none" stroke="#191970" d="M875.978,-224.3941C855.4249,-190.5869 785.2647,-77.9575 749.7633,-56 717.5219,-36.0587 618.4074,-22.6831 552.292,-15.7134"/>
<polygon fill="#191970" stroke="#191970" points="552.2859,-12.1943 541.9795,-14.6498 551.5676,-19.1573 552.2859,-12.1943"/>
</g>
<!-- Node23&#45;&gt;Node6 -->
<g id="edge36" class="edge">
<title>Node23&#45;&gt;Node6</title>
<path fill="none" stroke="#191970" d="M837.9223,-226.7364C772.2717,-215.8594 649.2931,-195.4842 585.1226,-184.8524"/>
<polygon fill="#191970" stroke="#191970" points="585.4099,-181.3524 574.9722,-183.1707 584.2656,-188.2582 585.4099,-181.3524"/>
</g>
<!-- Node23&#45;&gt;Node14 -->
<g id="edge37" class="edge">
<title>Node23&#45;&gt;Node14</title>
<path fill="none" stroke="#191970" d="M883.6391,-224.4509C887.2434,-206.1013 895.2009,-165.5908 899.9587,-141.3693"/>
<polygon fill="#191970" stroke="#191970" points="903.3992,-142.012 901.8924,-131.5249 896.5305,-140.6627 903.3992,-142.012"/>
</g>
<!-- Node23&#45;&gt;Node16 -->
<g id="edge38" class="edge">
<title>Node23&#45;&gt;Node16</title>
<path fill="none" stroke="#191970" d="M878.4788,-224.4862C869.2707,-197.8144 843.0662,-121.9117 830.5628,-85.695"/>
<polygon fill="#191970" stroke="#191970" points="833.7281,-84.1382 827.1563,-75.8279 827.1114,-86.4226 833.7281,-84.1382"/>
</g>
<!-- Node23&#45;&gt;Node21 -->
<g id="edge35" class="edge">
<title>Node23&#45;&gt;Node21</title>
<path fill="none" stroke="#191970" d="M895.3499,-224.2455C907.0938,-215.814 924.2832,-203.4729 937.9515,-193.6598"/>
<polygon fill="#191970" stroke="#191970" points="940.2505,-196.3179 946.3325,-187.6427 936.168,-190.6316 940.2505,-196.3179"/>
</g>
<!-- Node24&#45;&gt;Node19 -->
<g id="edge41" class="edge">
<title>Node24&#45;&gt;Node19</title>
<path fill="none" stroke="#191970" d="M1069.8258,-280.3829C1086.1383,-262.0212 1118.7633,-220.0423 1118.7633,-178 1118.7633,-178 1118.7633,-178 1118.7633,-122 1118.7633,-87.6118 1135.0268,-50.2832 1146.2744,-28.5791"/>
<polygon fill="#191970" stroke="#191970" points="1149.495,-29.9804 1151.1563,-19.5166 1143.3323,-26.6605 1149.495,-29.9804"/>
</g>
<!-- Node24&#45;&gt;Node23 -->
<g id="edge40" class="edge">
<title>Node24&#45;&gt;Node23</title>
<path fill="none" stroke="#191970" d="M1030.3984,-280.5004C1000.5684,-271.1681 954.8748,-256.8729 922.0271,-246.5965"/>
<polygon fill="#191970" stroke="#191970" points="922.8661,-243.1917 912.2772,-243.5462 920.776,-249.8724 922.8661,-243.1917"/>
</g>
<!-- Node25&#45;&gt;Node19 -->
<g id="edge45" class="edge">
<title>Node25&#45;&gt;Node19</title>
<path fill="none" stroke="#191970" d="M992.6839,-336.0812C999.1673,-323.0988 1011.01,-299.6814 1021.7633,-280 1046.8737,-234.0415 1080.7633,-230.3709 1080.7633,-178 1080.7633,-178 1080.7633,-178 1080.7633,-122 1080.7633,-82.2361 1113.9704,-46.1042 1136.4841,-26.177"/>
<polygon fill="#191970" stroke="#191970" points="1138.8713,-28.7412 1144.2135,-19.5918 1134.3316,-23.4128 1138.8713,-28.7412"/>
</g>
<!-- Node25&#45;&gt;Node23 -->
<g id="edge43" class="edge">
<title>Node25&#45;&gt;Node23</title>
<path fill="none" stroke="#191970" d="M982.1553,-336.3892C974.0384,-322.929 958.0802,-298.0852 940.7633,-280 929.883,-268.6369 916.0905,-257.7288 904.5774,-249.3889"/>
<polygon fill="#191970" stroke="#191970" points="906.4912,-246.4557 896.3035,-243.5469 902.4537,-252.1739 906.4912,-246.4557"/>
</g>
<!-- Node25&#45;&gt;Node24 -->
<g id="edge44" class="edge">
<title>Node25&#45;&gt;Node24</title>
<path fill="none" stroke="#191970" d="M1000.479,-336.2455C1011.3654,-327.8943 1027.2516,-315.7076 1039.9833,-305.9408"/>
<polygon fill="#191970" stroke="#191970" points="1042.3894,-308.5063 1048.1934,-299.6427 1038.1288,-302.9523 1042.3894,-308.5063"/>
</g>
<!-- Node29&#45;&gt;Node19 -->
<g id="edge53" class="edge">
<title>Node29&#45;&gt;Node19</title>
<path fill="none" stroke="#191970" d="M992.9347,-393.5929C1057.7126,-376.199 1194.7633,-334.1784 1194.7633,-290 1194.7633,-290 1194.7633,-290 1194.7633,-122 1194.7633,-87.6118 1178.4999,-50.2832 1167.2523,-28.5791"/>
<polygon fill="#191970" stroke="#191970" points="1170.1944,-26.6605 1162.3704,-19.5166 1164.0317,-29.9804 1170.1944,-26.6605"/>
</g>
<!-- Node29&#45;&gt;Node23 -->
<g id="edge52" class="edge">
<title>Node29&#45;&gt;Node23</title>
<path fill="none" stroke="#191970" d="M955.3462,-392.4862C942.9095,-365.6994 907.4181,-289.2565 890.6911,-253.2289"/>
<polygon fill="#191970" stroke="#191970" points="893.712,-251.4241 886.3263,-243.8279 887.3629,-254.3719 893.712,-251.4241"/>
</g>
<!-- Node29&#45;&gt;Node24 -->
<g id="edge56" class="edge">
<title>Node29&#45;&gt;Node24</title>
<path fill="none" stroke="#191970" d="M977.1194,-392.4095C990.9871,-384.1157 1010.2693,-371.1006 1023.7633,-356 1036.3005,-341.9702 1046.3913,-322.9786 1052.8484,-308.9697"/>
<polygon fill="#191970" stroke="#191970" points="1056.063,-310.3542 1056.891,-299.7918 1049.6569,-307.5325 1056.063,-310.3542"/>
</g>
<!-- Node29&#45;&gt;Node25 -->
<g id="edge55" class="edge">
<title>Node29&#45;&gt;Node25</title>
<path fill="none" stroke="#191970" d="M964.6406,-392.2455C968.4147,-384.6973 973.7555,-374.0158 978.3535,-364.8197"/>
<polygon fill="#191970" stroke="#191970" points="981.6003,-366.1522 982.942,-355.6427 975.3393,-363.0217 981.6003,-366.1522"/>
</g>
<!-- Node29&#45;&gt;Node26 -->
<g id="edge54" class="edge">
<title>Node29&#45;&gt;Node26</title>
<path fill="none" stroke="#191970" d="M946.0026,-392.2455C934.1081,-383.814 916.6983,-371.4729 902.8548,-361.6598"/>
<polygon fill="#191970" stroke="#191970" points="904.5487,-358.5704 894.3664,-355.6427 900.5006,-364.2811 904.5487,-358.5704"/>
</g>
<!-- Node33&#45;&gt;Node3 -->
<g id="edge62" class="edge">
<title>Node33&#45;&gt;Node3</title>
<path fill="none" stroke="#191970" d="M470.7487,-504.4128C471.0334,-483.2785 473.4851,-431.4293 489.7633,-392 544.2796,-259.9505 634.6001,-267.8628 678.7633,-132 689.7557,-98.1834 680.6786,-79.2371 653.7633,-56 638.1842,-42.5499 591.0567,-30.126 551.2968,-21.5891"/>
<polygon fill="#191970" stroke="#191970" points="551.8767,-18.1346 541.3708,-19.5042 550.4378,-24.9851 551.8767,-18.1346"/>
</g>
<!-- Node33&#45;&gt;Node4 -->
<g id="edge63" class="edge">
<title>Node33&#45;&gt;Node4</title>
<path fill="none" stroke="#191970" d="M438.6169,-504.3733C407.2524,-494.9807 359.3968,-480.6496 325.1917,-470.4064"/>
<polygon fill="#191970" stroke="#191970" points="326.0741,-467.0171 315.4903,-467.5011 324.0659,-473.7229 326.0741,-467.0171"/>
</g>
<!-- Node33&#45;&gt;Node5 -->
<g id="edge64" class="edge">
<title>Node33&#45;&gt;Node5</title>
<path fill="none" stroke="#191970" d="M450.2636,-504.3312C393.7293,-477.0029 239.7633,-397.8202 239.7633,-346 239.7633,-346 239.7633,-346 239.7633,-178 239.7633,-145.2193 248.1688,-107.8705 254.0815,-85.6533"/>
<polygon fill="#191970" stroke="#191970" points="257.5189,-86.3545 256.8123,-75.7832 250.7723,-84.4878 257.5189,-86.3545"/>
</g>
<!-- Node33&#45;&gt;Node6 -->
<g id="edge65" class="edge">
<title>Node33&#45;&gt;Node6</title>
<path fill="none" stroke="#191970" d="M458.2135,-504.4082C436.6274,-486.7155 394.7633,-446.6472 394.7633,-402 394.7633,-402 394.7633,-402 394.7633,-290 394.7633,-235.6952 458.7862,-204.4597 502.8976,-189.3834"/>
<polygon fill="#191970" stroke="#191970" points="504.1095,-192.6696 512.5281,-186.2371 501.9355,-186.0158 504.1095,-192.6696"/>
</g>
<!-- Node33&#45;&gt;Node19 -->
<g id="edge68" class="edge">
<title>Node33&#45;&gt;Node19</title>
<path fill="none" stroke="#191970" d="M543.8271,-510.8663C734.5496,-501.7176 1232.7633,-471.1965 1232.7633,-402 1232.7633,-402 1232.7633,-402 1232.7633,-122 1232.7633,-82.2361 1199.5563,-46.1042 1177.0426,-26.177"/>
<polygon fill="#191970" stroke="#191970" points="1179.195,-23.4128 1169.3132,-19.5918 1174.6554,-28.7412 1179.195,-23.4128"/>
</g>
<!-- Node33&#45;&gt;Node20 -->
<g id="edge67" class="edge">
<title>Node33&#45;&gt;Node20</title>
<path fill="none" stroke="#191970" d="M488.7046,-504.2455C504.8033,-495.4928 528.6513,-482.527 547.0024,-472.5496"/>
<polygon fill="#191970" stroke="#191970" points="548.914,-475.4942 556.0277,-467.6427 545.5704,-469.3444 548.914,-475.4942"/>
</g>
<!-- Node34 -->
<g id="node35" class="node">
<title>Node34</title>
<polygon fill="none" stroke="#bfbfbf" points="656.2633,-448.5 656.2633,-467.5 757.2633,-467.5 757.2633,-448.5 656.2633,-448.5"/>
<text text-anchor="middle" x="706.7633" y="-455.5" font-family="Helvetica,sans-Serif" font-size="10.00" fill="#000000">SFML/Network.hpp</text>
</g>
<!-- Node33&#45;&gt;Node34 -->
<g id="edge66" class="edge">
<title>Node33&#45;&gt;Node34</title>
<path fill="none" stroke="#191970" d="M511.065,-504.4369C551.3698,-494.8731 613.4454,-480.1432 656.8451,-469.845"/>
<polygon fill="#191970" stroke="#191970" points="657.7061,-473.238 666.6279,-467.5237 656.0899,-466.4271 657.7061,-473.238"/>
</g>
</g>
</svg>
        <g id="navigator" transform="translate(0 0)" fill="#404254">
                <rect fill="#f2f5e9" fill-opacity="0.5" stroke="#606060" stroke-width=".5" x="0" y="0" width="60" height="60"/>
                <use id="zoomplus" xlink:href="#zoomPlus" x="17" y="9" onmousedown="handleZoom(evt,'in')"/>
                <use id="zoomminus" xlink:href="#zoomMin" x="42" y="9" onmousedown="handleZoom(evt,'out')"/>
                <use id="reset" xlink:href="#resetDef" x="30" y="36" onmousedown="handleReset()"/>
                <g id="arrowUp" xlink:href="#dirArrow" transform="translate(30 24)" onmousedown="handlePan(0,-1)">
                  <use xlink:href="#rim" fill="#404040">
                        <set attributeName="fill" to="#808080" begin="arrowUp.mouseover" end="arrowUp.mouseout"/>
                  </use>
                  <path fill="none" stroke="white" stroke-width="1.5" d="M0,-3.0v7 M-2.5,-0.5L0,-3.0L2.5,-0.5"/>
                </g>
                <g id="arrowRight" xlink:href="#dirArrow" transform="rotate(90) translate(36 -43)" onmousedown="handlePan(1,0)">
                  <use xlink:href="#rim" fill="#404040">
                        <set attributeName="fill" to="#808080" begin="arrowRight.mouseover" end="arrowRight.mouseout"/>
                  </use>
                  <path fill="none" stroke="white" stroke-width="1.5" d="M0,-3.0v7 M-2.5,-0.5L0,-3.0L2.5,-0.5"/>
                </g>
                <g id="arrowDown" xlink:href="#dirArrow" transform="rotate(180) translate(-30 -48)" onmousedown="handlePan(0,1)">
                  <use xlink:href="#rim" fill="#404040">
                        <set attributeName="fill" to="#808080" begin="arrowDown.mouseover" end="arrowDown.mouseout"/>
                  </use>
                  <path fill="none" stroke="white" stroke-width="1.5" d="M0,-3.0v7 M-2.5,-0.5L0,-3.0L2.5,-0.5"/>
                </g>
                <g id="arrowLeft" xlink:href="#dirArrow" transform="rotate(270) translate(-36 17)" onmousedown="handlePan(-1,0)">
                  <use xlink:href="#rim" fill="#404040">
                        <set attributeName="fill" to="#808080" begin="arrowLeft.mouseover" end="arrowLeft.mouseout"/>
                  </use>
                  <path fill="none" stroke="white" stroke-width="1.5" d="M0,-3.0v7 M-2.5,-0.5L0,-3.0L2.5,-0.5"/>
                </g>
        </g>
        <svg viewBox="0 0 15 15" width="100%" height="30px" preserveAspectRatio="xMaxYMin meet">
         <g id="arrow_out" transform="scale(0.3 0.3)">
          <a xlink:href="SplashState_8cpp__incl_org.svg" target="_base">
           <rect id="button" ry="5" rx="5" y="6" x="6" height="38" width="38"
                fill="#f2f5e9" fill-opacity="0.5" stroke="#606060" stroke-width="1.0"/>
           <path id="arrow"
             d="M 11.500037,31.436501 C 11.940474,20.09759 22.043105,11.32322 32.158766,21.979434 L 37.068811,17.246167 C 37.068811,17.246167 37.088388,32 37.088388,32 L 22.160133,31.978069 C 22.160133,31.978069 26.997745,27.140456 26.997745,27.140456 C 18.528582,18.264221 13.291696,25.230495 11.500037,31.436501 z"
             style="fill:#404040;"/>
          </a>
         </g>
        </svg>
</svg>
