<?xml version="1.0" encoding="UTF-8" standalone="no"?>
<!DOCTYPE svg PUBLIC "-//W3C//DTD SVG 1.1//EN"
 "http://www.w3.org/Graphics/SVG/1.1/DTD/svg11.dtd">
<!-- Generated by graphviz version 2.40.1 (20161225.0304)
 -->
<!-- Title: /mnt/hdd/C0de/Engines/SFML/SFML_Engine/include/SplashState.hpp Pages: 1 -->
<svg width="280pt" height="128pt"
 viewBox="0.00 0.00 280.00 128.00" xmlns="http://www.w3.org/2000/svg" xmlns:xlink="http://www.w3.org/1999/xlink">
<g id="graph0" class="graph" transform="scale(1 1) rotate(0) translate(4 124)">
<title>/mnt/hdd/C0de/Engines/SFML/SFML_Engine/include/SplashState.hpp</title>
<!-- Node31 -->
<g id="node1" class="node">
<title>Node31</title>
<polygon fill="#bfbfbf" stroke="#000000" points="63.5,-78.5 63.5,-119.5 207.5,-119.5 207.5,-78.5 63.5,-78.5"/>
<text text-anchor="start" x="71.5" y="-107.5" font-family="Helvetica,sans-Serif" font-size="10.00" fill="#000000">/mnt/hdd/C0de/Engines</text>
<text text-anchor="start" x="71.5" y="-96.5" font-family="Helvetica,sans-Serif" font-size="10.00" fill="#000000">/SFML/SFML_Engine/include</text>
<text text-anchor="middle" x="135.5" y="-85.5" font-family="Helvetica,sans-Serif" font-size="10.00" fill="#000000">/SplashState.hpp</text>
</g>
<!-- Node32 -->
<g id="node2" class="node">
<title>Node32</title>
<g id="a_node2"><a xlink:href="Game_8cpp.html" target="_top" xlink:title="/mnt/hdd/C0de/Engines\l/SFML/SFML_Engine/src\l/Game.cpp">
<polygon fill="none" stroke="#000000" points="0,-.5 0,-41.5 127,-41.5 127,-.5 0,-.5"/>
<text text-anchor="start" x="8" y="-29.5" font-family="Helvetica,sans-Serif" font-size="10.00" fill="#000000">/mnt/hdd/C0de/Engines</text>
<text text-anchor="start" x="8" y="-18.5" font-family="Helvetica,sans-Serif" font-size="10.00" fill="#000000">/SFML/SFML_Engine/src</text>
<text text-anchor="middle" x="63.5" y="-7.5" font-family="Helvetica,sans-Serif" font-size="10.00" fill="#000000">/Game.cpp</text>
</a>
</g>
</g>
<!-- Node31&#45;&gt;Node32 -->
<g id="edge1" class="edge">
<title>Node31&#45;&gt;Node32</title>
<path fill="none" stroke="#191970" d="M109.3408,-70.6609C100.4954,-61.0783 90.7914,-50.5657 82.5983,-41.6898"/>
<polygon fill="#191970" stroke="#191970" points="106.8507,-73.1234 116.2053,-78.0974 111.9943,-68.3754 106.8507,-73.1234"/>
</g>
<!-- Node33 -->
<g id="node3" class="node">
<title>Node33</title>
<g id="a_node3"><a xlink:href="SplashState_8cpp.html" target="_top" xlink:title="/mnt/hdd/C0de/Engines\l/SFML/SFML_Engine/src\l/SplashState.cpp">
<polygon fill="none" stroke="#000000" points="145,-.5 145,-41.5 272,-41.5 272,-.5 145,-.5"/>
<text text-anchor="start" x="153" y="-29.5" font-family="Helvetica,sans-Serif" font-size="10.00" fill="#000000">/mnt/hdd/C0de/Engines</text>
<text text-anchor="start" x="153" y="-18.5" font-family="Helvetica,sans-Serif" font-size="10.00" fill="#000000">/SFML/SFML_Engine/src</text>
<text text-anchor="middle" x="208.5" y="-7.5" font-family="Helvetica,sans-Serif" font-size="10.00" fill="#000000">/SplashState.cpp</text>
</a>
</g>
</g>
<!-- Node31&#45;&gt;Node33 -->
<g id="edge2" class="edge">
<title>Node31&#45;&gt;Node33</title>
<path fill="none" stroke="#191970" d="M162.0225,-70.6609C170.9908,-61.0783 180.8296,-50.5657 189.1365,-41.6898"/>
<polygon fill="#191970" stroke="#191970" points="159.3404,-68.4046 155.0627,-78.0974 164.4513,-73.1878 159.3404,-68.4046"/>
</g>
</g>
</svg>
