<?xml version="1.0" encoding="UTF-8" standalone="no"?>
<!DOCTYPE svg PUBLIC "-//W3C//DTD SVG 1.1//EN"
 "http://www.w3.org/Graphics/SVG/1.1/DTD/svg11.dtd">
<!-- Generated by graphviz version 2.40.1 (20161225.0304)
 -->
<!-- Title: /mnt/hdd/C0de/Engines/SFML/SFML_Engine/src/StateMachine.cpp Pages: 1 -->
<svg width="197pt" height="162pt"
 viewBox="0.00 0.00 196.50 162.00" xmlns="http://www.w3.org/2000/svg" xmlns:xlink="http://www.w3.org/1999/xlink">
<g id="graph0" class="graph" transform="scale(1 1) rotate(0) translate(4 158)">
<title>/mnt/hdd/C0de/Engines/SFML/SFML_Engine/src/StateMachine.cpp</title>
<!-- Node0 -->
<g id="node1" class="node">
<title>Node0</title>
<polygon fill="#bfbfbf" stroke="#000000" points="27.5,-112.5 27.5,-153.5 154.5,-153.5 154.5,-112.5 27.5,-112.5"/>
<text text-anchor="start" x="35.5" y="-141.5" font-family="Helvetica,sans-Serif" font-size="10.00" fill="#000000">/mnt/hdd/C0de/Engines</text>
<text text-anchor="start" x="35.5" y="-130.5" font-family="Helvetica,sans-Serif" font-size="10.00" fill="#000000">/SFML/SFML_Engine/src</text>
<text text-anchor="middle" x="91" y="-119.5" font-family="Helvetica,sans-Serif" font-size="10.00" fill="#000000">/StateMachine.cpp</text>
</g>
<!-- Node1 -->
<g id="node2" class="node">
<title>Node1</title>
<g id="a_node2"><a xlink:href="StateMachine_8hpp.html" target="_top" xlink:title="../include/StateMachine.hpp">
<polygon fill="none" stroke="#000000" points="22,-56.5 22,-75.5 160,-75.5 160,-56.5 22,-56.5"/>
<text text-anchor="middle" x="91" y="-63.5" font-family="Helvetica,sans-Serif" font-size="10.00" fill="#000000">../include/StateMachine.hpp</text>
</a>
</g>
</g>
<!-- Node0&#45;&gt;Node1 -->
<g id="edge1" class="edge">
<title>Node0&#45;&gt;Node1</title>
<path fill="none" stroke="#191970" d="M91,-112.168C91,-103.8226 91,-94.2471 91,-85.9879"/>
<polygon fill="#191970" stroke="#191970" points="94.5001,-85.7804 91,-75.7805 87.5001,-85.7805 94.5001,-85.7804"/>
</g>
<!-- Node2 -->
<g id="node3" class="node">
<title>Node2</title>
<polygon fill="none" stroke="#bfbfbf" points="0,-.5 0,-19.5 52,-19.5 52,-.5 0,-.5"/>
<text text-anchor="middle" x="26" y="-7.5" font-family="Helvetica,sans-Serif" font-size="10.00" fill="#000000">memory</text>
</g>
<!-- Node1&#45;&gt;Node2 -->
<g id="edge2" class="edge">
<title>Node1&#45;&gt;Node2</title>
<path fill="none" stroke="#191970" d="M79.6779,-56.2455C70.0777,-47.9746 56.1108,-35.9416 44.8305,-26.2232"/>
<polygon fill="#191970" stroke="#191970" points="47.053,-23.5182 37.1924,-19.6427 42.484,-28.8214 47.053,-23.5182"/>
</g>
<!-- Node3 -->
<g id="node4" class="node">
<title>Node3</title>
<polygon fill="none" stroke="#bfbfbf" points="70.5,-.5 70.5,-19.5 111.5,-19.5 111.5,-.5 70.5,-.5"/>
<text text-anchor="middle" x="91" y="-7.5" font-family="Helvetica,sans-Serif" font-size="10.00" fill="#000000">stack</text>
</g>
<!-- Node1&#45;&gt;Node3 -->
<g id="edge3" class="edge">
<title>Node1&#45;&gt;Node3</title>
<path fill="none" stroke="#191970" d="M91,-56.2455C91,-48.9382 91,-38.6944 91,-29.7046"/>
<polygon fill="#191970" stroke="#191970" points="94.5001,-29.6426 91,-19.6427 87.5001,-29.6427 94.5001,-29.6426"/>
</g>
<!-- Node4 -->
<g id="node5" class="node">
<title>Node4</title>
<g id="a_node5"><a xlink:href="State_8hpp.html" target="_top" xlink:title="State.hpp">
<polygon fill="none" stroke="#000000" points="129.5,-.5 129.5,-19.5 188.5,-19.5 188.5,-.5 129.5,-.5"/>
<text text-anchor="middle" x="159" y="-7.5" font-family="Helvetica,sans-Serif" font-size="10.00" fill="#000000">State.hpp</text>
</a>
</g>
</g>
<!-- Node1&#45;&gt;Node4 -->
<g id="edge4" class="edge">
<title>Node1&#45;&gt;Node4</title>
<path fill="none" stroke="#191970" d="M102.8447,-56.2455C112.888,-47.9746 127.4995,-35.9416 139.3004,-26.2232"/>
<polygon fill="#191970" stroke="#191970" points="141.7967,-28.7015 147.291,-19.6427 137.3467,-23.298 141.7967,-28.7015"/>
</g>
</g>
</svg>
