<?xml version="1.0" encoding="UTF-8" standalone="no"?>
<!DOCTYPE svg PUBLIC "-//W3C//DTD SVG 1.1//EN"
 "http://www.w3.org/Graphics/SVG/1.1/DTD/svg11.dtd">
<!-- Generated by graphviz version 2.40.1 (20161225.0304)
 -->
<!-- Title: /mnt/hdd/C0de/Engines/SFML/SFML_Engine/include/State.hpp Pages: 1 -->
<svg width="1188pt" height="752pt"
 viewBox="0.00 0.00 1188.00 752.00" xmlns="http://www.w3.org/2000/svg" xmlns:xlink="http://www.w3.org/1999/xlink">
<g id="graph0" class="graph" transform="scale(1 1) rotate(0) translate(4 748)">
<title>/mnt/hdd/C0de/Engines/SFML/SFML_Engine/include/State.hpp</title>
<!-- Node1 -->
<g id="node1" class="node">
<title>Node1</title>
<polygon fill="#bfbfbf" stroke="#000000" points="593,-702.5 593,-743.5 737,-743.5 737,-702.5 593,-702.5"/>
<text text-anchor="start" x="601" y="-731.5" font-family="Helvetica,sans-Serif" font-size="10.00" fill="#000000">/mnt/hdd/C0de/Engines</text>
<text text-anchor="start" x="601" y="-720.5" font-family="Helvetica,sans-Serif" font-size="10.00" fill="#000000">/SFML/SFML_Engine/include</text>
<text text-anchor="middle" x="665" y="-709.5" font-family="Helvetica,sans-Serif" font-size="10.00" fill="#000000">/State.hpp</text>
</g>
<!-- Node2 -->
<g id="node2" class="node">
<title>Node2</title>
<g id="a_node2"><a xlink:href="StateMachine_8hpp.html" target="_top" xlink:title="/mnt/hdd/C0de/Engines\l/SFML/SFML_Engine/include\l/StateMachine.hpp">
<polygon fill="none" stroke="#000000" points="593,-624.5 593,-665.5 737,-665.5 737,-624.5 593,-624.5"/>
<text text-anchor="start" x="601" y="-653.5" font-family="Helvetica,sans-Serif" font-size="10.00" fill="#000000">/mnt/hdd/C0de/Engines</text>
<text text-anchor="start" x="601" y="-642.5" font-family="Helvetica,sans-Serif" font-size="10.00" fill="#000000">/SFML/SFML_Engine/include</text>
<text text-anchor="middle" x="665" y="-631.5" font-family="Helvetica,sans-Serif" font-size="10.00" fill="#000000">/StateMachine.hpp</text>
</a>
</g>
</g>
<!-- Node1&#45;&gt;Node2 -->
<g id="edge1" class="edge">
<title>Node1&#45;&gt;Node2</title>
<path fill="none" stroke="#191970" d="M665,-692.0789C665,-683.2178 665,-673.7747 665,-665.6898"/>
<polygon fill="#191970" stroke="#191970" points="661.5001,-692.0974 665,-702.0974 668.5001,-692.0975 661.5001,-692.0974"/>
</g>
<!-- Node9 -->
<g id="node9" class="node">
<title>Node9</title>
<g id="a_node9"><a xlink:href="GameOverState_8hpp.html" target="_top" xlink:title="/mnt/hdd/C0de/Engines\l/SFML/SFML_Engine/include\l/GameOverState.hpp">
<polygon fill="none" stroke="#000000" points="66,-78.5 66,-119.5 210,-119.5 210,-78.5 66,-78.5"/>
<text text-anchor="start" x="74" y="-107.5" font-family="Helvetica,sans-Serif" font-size="10.00" fill="#000000">/mnt/hdd/C0de/Engines</text>
<text text-anchor="start" x="74" y="-96.5" font-family="Helvetica,sans-Serif" font-size="10.00" fill="#000000">/SFML/SFML_Engine/include</text>
<text text-anchor="middle" x="138" y="-85.5" font-family="Helvetica,sans-Serif" font-size="10.00" fill="#000000">/GameOverState.hpp</text>
</a>
</g>
</g>
<!-- Node1&#45;&gt;Node9 -->
<g id="edge52" class="edge">
<title>Node1&#45;&gt;Node9</title>
<path fill="none" stroke="#191970" d="M582.7259,-718.5904C431.6025,-709.9682 121.2561,-689.6391 78,-666 28.8454,-639.1374 0,-623.0159 0,-567 0,-567 0,-567 0,-411 0,-291.9505 85.0729,-167.5072 121.6277,-119.5305"/>
<polygon fill="#191970" stroke="#191970" points="582.7037,-722.0947 592.8857,-719.1661 583.0998,-715.1059 582.7037,-722.0947"/>
</g>
<!-- Node12 -->
<g id="node12" class="node">
<title>Node12</title>
<g id="a_node12"><a xlink:href="GameState_8hpp.html" target="_top" xlink:title="/mnt/hdd/C0de/Engines\l/SFML/SFML_Engine/include\l/GameState.hpp">
<polygon fill="none" stroke="#000000" points="340,-78.5 340,-119.5 484,-119.5 484,-78.5 340,-78.5"/>
<text text-anchor="start" x="348" y="-107.5" font-family="Helvetica,sans-Serif" font-size="10.00" fill="#000000">/mnt/hdd/C0de/Engines</text>
<text text-anchor="start" x="348" y="-96.5" font-family="Helvetica,sans-Serif" font-size="10.00" fill="#000000">/SFML/SFML_Engine/include</text>
<text text-anchor="middle" x="412" y="-85.5" font-family="Helvetica,sans-Serif" font-size="10.00" fill="#000000">/GameState.hpp</text>
</a>
</g>
</g>
<!-- Node1&#45;&gt;Node12 -->
<g id="edge53" class="edge">
<title>Node1&#45;&gt;Node12</title>
<path fill="none" stroke="#191970" d="M582.6017,-719.6838C412.4446,-710.5852 38,-677.9577 38,-567 38,-567 38,-567 38,-411 38,-251.8201 240.2375,-158.0351 347.2811,-119.5438"/>
<polygon fill="#191970" stroke="#191970" points="582.6009,-723.1883 592.7691,-720.2124 582.9644,-716.1978 582.6009,-723.1883"/>
</g>
<!-- Node15 -->
<g id="node15" class="node">
<title>Node15</title>
<g id="a_node15"><a xlink:href="MainMenuState_8hpp.html" target="_top" xlink:title="/mnt/hdd/C0de/Engines\l/SFML/SFML_Engine/include\l/MainMenuState.hpp">
<polygon fill="none" stroke="#000000" points="1036,-78.5 1036,-119.5 1180,-119.5 1180,-78.5 1036,-78.5"/>
<text text-anchor="start" x="1044" y="-107.5" font-family="Helvetica,sans-Serif" font-size="10.00" fill="#000000">/mnt/hdd/C0de/Engines</text>
<text text-anchor="start" x="1044" y="-96.5" font-family="Helvetica,sans-Serif" font-size="10.00" fill="#000000">/SFML/SFML_Engine/include</text>
<text text-anchor="middle" x="1108" y="-85.5" font-family="Helvetica,sans-Serif" font-size="10.00" fill="#000000">/MainMenuState.hpp</text>
</a>
</g>
</g>
<!-- Node1&#45;&gt;Node15 -->
<g id="edge54" class="edge">
<title>Node1&#45;&gt;Node15</title>
<path fill="none" stroke="#191970" d="M747.4217,-714.8474C837.6049,-705.0625 975.7736,-687.283 1024,-666 1088.5178,-637.5273 1148,-637.5212 1148,-567 1148,-567 1148,-567 1148,-255 1148,-210.4978 1145.3776,-198.7462 1133,-156 1129.3934,-143.5447 1123.6749,-130.2418 1118.6168,-119.6227"/>
<polygon fill="#191970" stroke="#191970" points="746.7858,-711.3955 737.2165,-715.9428 747.533,-718.3555 746.7858,-711.3955"/>
</g>
<!-- Node17 -->
<g id="node17" class="node">
<title>Node17</title>
<g id="a_node17"><a xlink:href="SplashState_8hpp.html" target="_top" xlink:title="/mnt/hdd/C0de/Engines\l/SFML/SFML_Engine/include\l/SplashState.hpp">
<polygon fill="none" stroke="#000000" points="874,-78.5 874,-119.5 1018,-119.5 1018,-78.5 874,-78.5"/>
<text text-anchor="start" x="882" y="-107.5" font-family="Helvetica,sans-Serif" font-size="10.00" fill="#000000">/mnt/hdd/C0de/Engines</text>
<text text-anchor="start" x="882" y="-96.5" font-family="Helvetica,sans-Serif" font-size="10.00" fill="#000000">/SFML/SFML_Engine/include</text>
<text text-anchor="middle" x="946" y="-85.5" font-family="Helvetica,sans-Serif" font-size="10.00" fill="#000000">/SplashState.hpp</text>
</a>
</g>
</g>
<!-- Node1&#45;&gt;Node17 -->
<g id="edge55" class="edge">
<title>Node1&#45;&gt;Node17</title>
<path fill="none" stroke="#191970" d="M747.706,-711.2914C876.4067,-690.7189 1110,-642.9219 1110,-567 1110,-567 1110,-567 1110,-411 1110,-293.1141 1107.8741,-250.2016 1037,-156 1025.5681,-140.8054 1008.7995,-128.6701 992.7618,-119.5684"/>
<polygon fill="#191970" stroke="#191970" points="746.82,-707.8878 737.4873,-712.903 747.9105,-714.8024 746.82,-707.8878"/>
</g>
<!-- Node3 -->
<g id="node3" class="node">
<title>Node3</title>
<g id="a_node3"><a xlink:href="Game_8hpp.html" target="_top" xlink:title="/mnt/hdd/C0de/Engines\l/SFML/SFML_Engine/include\l/Game.hpp">
<polygon fill="none" stroke="#000000" points="516,-546.5 516,-587.5 660,-587.5 660,-546.5 516,-546.5"/>
<text text-anchor="start" x="524" y="-575.5" font-family="Helvetica,sans-Serif" font-size="10.00" fill="#000000">/mnt/hdd/C0de/Engines</text>
<text text-anchor="start" x="524" y="-564.5" font-family="Helvetica,sans-Serif" font-size="10.00" fill="#000000">/SFML/SFML_Engine/include</text>
<text text-anchor="middle" x="588" y="-553.5" font-family="Helvetica,sans-Serif" font-size="10.00" fill="#000000">/Game.hpp</text>
</a>
</g>
</g>
<!-- Node2&#45;&gt;Node3 -->
<g id="edge2" class="edge">
<title>Node2&#45;&gt;Node3</title>
<path fill="none" stroke="#191970" d="M637.3049,-616.9452C627.7702,-607.2866 617.2734,-596.6535 608.4245,-587.6898"/>
<polygon fill="#191970" stroke="#191970" points="634.8493,-619.4397 644.3654,-624.0974 639.8309,-614.522 634.8493,-619.4397"/>
</g>
<!-- Node29 -->
<g id="node29" class="node">
<title>Node29</title>
<g id="a_node29"><a xlink:href="StateMachine_8cpp.html" target="_top" xlink:title="/mnt/hdd/C0de/Engines\l/SFML/SFML_Engine/src\l/StateMachine.cpp">
<polygon fill="none" stroke="#000000" points="678.5,-546.5 678.5,-587.5 805.5,-587.5 805.5,-546.5 678.5,-546.5"/>
<text text-anchor="start" x="686.5" y="-575.5" font-family="Helvetica,sans-Serif" font-size="10.00" fill="#000000">/mnt/hdd/C0de/Engines</text>
<text text-anchor="start" x="686.5" y="-564.5" font-family="Helvetica,sans-Serif" font-size="10.00" fill="#000000">/SFML/SFML_Engine/src</text>
<text text-anchor="middle" x="742" y="-553.5" font-family="Helvetica,sans-Serif" font-size="10.00" fill="#000000">/StateMachine.cpp</text>
</a>
</g>
</g>
<!-- Node2&#45;&gt;Node29 -->
<g id="edge51" class="edge">
<title>Node2&#45;&gt;Node29</title>
<path fill="none" stroke="#191970" d="M692.6951,-616.9452C702.2298,-607.2866 712.7266,-596.6535 721.5755,-587.6898"/>
<polygon fill="#191970" stroke="#191970" points="690.1691,-614.522 685.6346,-624.0974 695.1507,-619.4397 690.1691,-614.522"/>
</g>
<!-- Node4 -->
<g id="node4" class="node">
<title>Node4</title>
<g id="a_node4"><a xlink:href="GameWorld_8hpp.html" target="_top" xlink:title="/mnt/hdd/C0de/Engines\l/SFML/SFML_Engine/include\l/GameWorld.hpp">
<polygon fill="none" stroke="#000000" points="516,-468.5 516,-509.5 660,-509.5 660,-468.5 516,-468.5"/>
<text text-anchor="start" x="524" y="-497.5" font-family="Helvetica,sans-Serif" font-size="10.00" fill="#000000">/mnt/hdd/C0de/Engines</text>
<text text-anchor="start" x="524" y="-486.5" font-family="Helvetica,sans-Serif" font-size="10.00" fill="#000000">/SFML/SFML_Engine/include</text>
<text text-anchor="middle" x="588" y="-475.5" font-family="Helvetica,sans-Serif" font-size="10.00" fill="#000000">/GameWorld.hpp</text>
</a>
</g>
</g>
<!-- Node3&#45;&gt;Node4 -->
<g id="edge3" class="edge">
<title>Node3&#45;&gt;Node4</title>
<path fill="none" stroke="#191970" d="M588,-536.0789C588,-527.2178 588,-517.7747 588,-509.6898"/>
<polygon fill="#191970" stroke="#191970" points="584.5001,-536.0974 588,-546.0974 591.5001,-536.0975 584.5001,-536.0974"/>
</g>
<!-- Node8 -->
<g id="node8" class="node">
<title>Node8</title>
<g id="a_node8"><a xlink:href="LoadingGameObjects_8hpp.html" target="_top" xlink:title="/mnt/hdd/C0de/Engines\l/SFML/SFML_Engine/include\l/LoadingGameObjects.hpp">
<polygon fill="none" stroke="#000000" points="716,-156.5 716,-197.5 860,-197.5 860,-156.5 716,-156.5"/>
<text text-anchor="start" x="724" y="-185.5" font-family="Helvetica,sans-Serif" font-size="10.00" fill="#000000">/mnt/hdd/C0de/Engines</text>
<text text-anchor="start" x="724" y="-174.5" font-family="Helvetica,sans-Serif" font-size="10.00" fill="#000000">/SFML/SFML_Engine/include</text>
<text text-anchor="middle" x="788" y="-163.5" font-family="Helvetica,sans-Serif" font-size="10.00" fill="#000000">/LoadingGameObjects.hpp</text>
</a>
</g>
</g>
<!-- Node3&#45;&gt;Node8 -->
<g id="edge41" class="edge">
<title>Node3&#45;&gt;Node8</title>
<path fill="none" stroke="#191970" d="M629.2325,-540.611C642.4091,-531.499 656.7449,-520.8417 669,-510 687.8539,-493.3204 684.7178,-479.7126 707,-468 760.5797,-439.836 937.1268,-477.5426 977,-432 1034.9678,-365.7902 1029.4785,-304.64 977,-234 973.2573,-228.962 911.903,-211.0233 860.1011,-196.5991"/>
<polygon fill="#191970" stroke="#191970" points="627.076,-537.8448 620.7746,-546.3621 631.0121,-543.6334 627.076,-537.8448"/>
</g>
<!-- Node3&#45;&gt;Node9 -->
<g id="edge40" class="edge">
<title>Node3&#45;&gt;Node9</title>
<path fill="none" stroke="#191970" d="M505.7169,-560.6033C387.8975,-550.7802 182.2519,-530.9122 155,-510 117.218,-481.0074 114,-458.624 114,-411 114,-411 114,-411 114,-255 114,-205.9505 125.7338,-149.2242 132.7924,-119.5372"/>
<polygon fill="#191970" stroke="#191970" points="505.5338,-564.1 515.7883,-561.4364 506.1109,-557.1239 505.5338,-564.1"/>
</g>
<!-- Node11 -->
<g id="node11" class="node">
<title>Node11</title>
<g id="a_node11"><a xlink:href="GameState_8cpp.html" target="_top" xlink:title="/mnt/hdd/C0de/Engines\l/SFML/SFML_Engine/src\l/GameState.cpp">
<polygon fill="none" stroke="#000000" points="66.5,-.5 66.5,-41.5 193.5,-41.5 193.5,-.5 66.5,-.5"/>
<text text-anchor="start" x="74.5" y="-29.5" font-family="Helvetica,sans-Serif" font-size="10.00" fill="#000000">/mnt/hdd/C0de/Engines</text>
<text text-anchor="start" x="74.5" y="-18.5" font-family="Helvetica,sans-Serif" font-size="10.00" fill="#000000">/SFML/SFML_Engine/src</text>
<text text-anchor="middle" x="130" y="-7.5" font-family="Helvetica,sans-Serif" font-size="10.00" fill="#000000">/GameState.cpp</text>
</a>
</g>
</g>
<!-- Node3&#45;&gt;Node11 -->
<g id="edge49" class="edge">
<title>Node3&#45;&gt;Node11</title>
<path fill="none" stroke="#191970" d="M505.8854,-562.3726C378.5896,-554.4166 145.3386,-536.4122 118,-510 -21.4537,-375.2718 -28.0273,-252.2681 57,-78 64.3329,-62.9709 77.7556,-50.7457 91.11,-41.5266"/>
<polygon fill="#191970" stroke="#191970" points="505.7912,-565.8734 515.9881,-562.9969 506.223,-558.8867 505.7912,-565.8734"/>
</g>
<!-- Node3&#45;&gt;Node12 -->
<g id="edge42" class="edge">
<title>Node3&#45;&gt;Node12</title>
<path fill="none" stroke="#191970" d="M505.4795,-557.0868C447.8262,-548.267 378.0618,-533.1331 360,-510 311.8094,-448.2787 383.2211,-194.1989 405.6368,-119.6506"/>
<polygon fill="#191970" stroke="#191970" points="505.3138,-560.6005 515.7194,-558.6075 506.3421,-553.6764 505.3138,-560.6005"/>
</g>
<!-- Node13 -->
<g id="node13" class="node">
<title>Node13</title>
<g id="a_node13"><a xlink:href="Game_8cpp.html" target="_top" xlink:title="/mnt/hdd/C0de/Engines\l/SFML/SFML_Engine/src\l/Game.cpp">
<polygon fill="none" stroke="#000000" points="356.5,-.5 356.5,-41.5 483.5,-41.5 483.5,-.5 356.5,-.5"/>
<text text-anchor="start" x="364.5" y="-29.5" font-family="Helvetica,sans-Serif" font-size="10.00" fill="#000000">/mnt/hdd/C0de/Engines</text>
<text text-anchor="start" x="364.5" y="-18.5" font-family="Helvetica,sans-Serif" font-size="10.00" fill="#000000">/SFML/SFML_Engine/src</text>
<text text-anchor="middle" x="420" y="-7.5" font-family="Helvetica,sans-Serif" font-size="10.00" fill="#000000">/Game.cpp</text>
</a>
</g>
</g>
<!-- Node3&#45;&gt;Node13 -->
<g id="edge48" class="edge">
<title>Node3&#45;&gt;Node13</title>
<path fill="none" stroke="#191970" d="M544.203,-540.9905C508.0022,-517.1791 458.137,-478.6111 430,-432 345.5712,-292.1374 252.5928,-221.3251 331,-78 339.542,-62.3856 354.3885,-50.4205 369.5355,-41.581"/>
<polygon fill="#191970" stroke="#191970" points="542.3281,-543.946 552.6279,-546.4293 546.1248,-538.065 542.3281,-543.946"/>
</g>
<!-- Node3&#45;&gt;Node15 -->
<g id="edge46" class="edge">
<title>Node3&#45;&gt;Node15</title>
<path fill="none" stroke="#191970" d="M670.2959,-546.1444C766.1855,-533.9215 980.7194,-564.3733 1039,-510 1152.4786,-404.1293 1124.2341,-187.1278 1112.0945,-119.5541"/>
<polygon fill="#191970" stroke="#191970" points="669.6639,-542.7001 660.3,-547.6567 670.711,-549.6214 669.6639,-542.7001"/>
</g>
<!-- Node3&#45;&gt;Node17 -->
<g id="edge47" class="edge">
<title>Node3&#45;&gt;Node17</title>
<path fill="none" stroke="#191970" d="M670.2566,-546.1455C760.6646,-534.3746 960.1539,-560.3241 1015,-510 1048.0122,-479.7096 1034,-455.803 1034,-411 1034,-411 1034,-411 1034,-255 1034,-210.197 1037.8417,-194.543 1015,-156 1006.4446,-141.5637 992.8273,-129.1632 979.9418,-119.6502"/>
<polygon fill="#191970" stroke="#191970" points="669.6536,-542.697 660.3043,-547.681 670.7211,-549.6152 669.6536,-542.697"/>
</g>
<!-- Node25 -->
<g id="node25" class="node">
<title>Node25</title>
<g id="a_node25"><a xlink:href="Button_8hpp.html" target="_top" xlink:title="/mnt/hdd/C0de/Engines\l/SFML/SFML_Engine/include\l/Button.hpp">
<polygon fill="none" stroke="#000000" points="716,-468.5 716,-509.5 860,-509.5 860,-468.5 716,-468.5"/>
<text text-anchor="start" x="724" y="-497.5" font-family="Helvetica,sans-Serif" font-size="10.00" fill="#000000">/mnt/hdd/C0de/Engines</text>
<text text-anchor="start" x="724" y="-486.5" font-family="Helvetica,sans-Serif" font-size="10.00" fill="#000000">/SFML/SFML_Engine/include</text>
<text text-anchor="middle" x="788" y="-475.5" font-family="Helvetica,sans-Serif" font-size="10.00" fill="#000000">/Button.hpp</text>
</a>
</g>
</g>
<!-- Node3&#45;&gt;Node25 -->
<g id="edge39" class="edge">
<title>Node3&#45;&gt;Node25</title>
<path fill="none" stroke="#191970" d="M650.2525,-542.7215C677.5135,-532.0897 709.1609,-519.7473 735.2419,-509.5757"/>
<polygon fill="#191970" stroke="#191970" points="648.8541,-539.5101 640.8093,-546.4044 651.3975,-546.0317 648.8541,-539.5101"/>
</g>
<!-- Node26 -->
<g id="node26" class="node">
<title>Node26</title>
<g id="a_node26"><a xlink:href="HUD_8hpp.html" target="_top" xlink:title="/mnt/hdd/C0de/Engines\l/SFML/SFML_Engine/include\l/HUD.hpp">
<polygon fill="none" stroke="#000000" points="164,-468.5 164,-509.5 308,-509.5 308,-468.5 164,-468.5"/>
<text text-anchor="start" x="172" y="-497.5" font-family="Helvetica,sans-Serif" font-size="10.00" fill="#000000">/mnt/hdd/C0de/Engines</text>
<text text-anchor="start" x="172" y="-486.5" font-family="Helvetica,sans-Serif" font-size="10.00" fill="#000000">/SFML/SFML_Engine/include</text>
<text text-anchor="middle" x="236" y="-475.5" font-family="Helvetica,sans-Serif" font-size="10.00" fill="#000000">/HUD.hpp</text>
</a>
</g>
</g>
<!-- Node3&#45;&gt;Node26 -->
<g id="edge43" class="edge">
<title>Node3&#45;&gt;Node26</title>
<path fill="none" stroke="#191970" d="M505.9461,-550.0454C453.2974,-539.0115 383.5204,-524.0997 322,-510 317.5058,-508.97 312.8838,-507.893 308.2258,-506.7941"/>
<polygon fill="#191970" stroke="#191970" points="505.4005,-553.5069 515.9054,-552.1291 506.8341,-546.6553 505.4005,-553.5069"/>
</g>
<!-- Node28 -->
<g id="node28" class="node">
<title>Node28</title>
<g id="a_node28"><a xlink:href="main_8cpp.html" target="_top" xlink:title="/mnt/hdd/C0de/Engines\l/SFML/SFML_Engine/src\l/main.cpp">
<polygon fill="none" stroke="#000000" points="878.5,-468.5 878.5,-509.5 1005.5,-509.5 1005.5,-468.5 878.5,-468.5"/>
<text text-anchor="start" x="886.5" y="-497.5" font-family="Helvetica,sans-Serif" font-size="10.00" fill="#000000">/mnt/hdd/C0de/Engines</text>
<text text-anchor="start" x="886.5" y="-486.5" font-family="Helvetica,sans-Serif" font-size="10.00" fill="#000000">/SFML/SFML_Engine/src</text>
<text text-anchor="middle" x="942" y="-475.5" font-family="Helvetica,sans-Serif" font-size="10.00" fill="#000000">/main.cpp</text>
</a>
</g>
</g>
<!-- Node3&#45;&gt;Node28 -->
<g id="edge50" class="edge">
<title>Node3&#45;&gt;Node28</title>
<path fill="none" stroke="#191970" d="M670.3094,-545.7961C758.9751,-526.8942 784.1347,-529.7901 869,-510 872.0823,-509.2812 875.2283,-508.5126 878.3989,-507.7099"/>
<polygon fill="#191970" stroke="#191970" points="669.3909,-542.4138 660.3583,-547.9513 670.8726,-549.2552 669.3909,-542.4138"/>
</g>
<!-- Node5 -->
<g id="node5" class="node">
<title>Node5</title>
<g id="a_node5"><a xlink:href="Bullet_8hpp.html" target="_top" xlink:title="/mnt/hdd/C0de/Engines\l/SFML/SFML_Engine/include\l/Bullet.hpp">
<polygon fill="none" stroke="#000000" points="616,-390.5 616,-431.5 760,-431.5 760,-390.5 616,-390.5"/>
<text text-anchor="start" x="624" y="-419.5" font-family="Helvetica,sans-Serif" font-size="10.00" fill="#000000">/mnt/hdd/C0de/Engines</text>
<text text-anchor="start" x="624" y="-408.5" font-family="Helvetica,sans-Serif" font-size="10.00" fill="#000000">/SFML/SFML_Engine/include</text>
<text text-anchor="middle" x="688" y="-397.5" font-family="Helvetica,sans-Serif" font-size="10.00" fill="#000000">/Bullet.hpp</text>
</a>
</g>
</g>
<!-- Node4&#45;&gt;Node5 -->
<g id="edge4" class="edge">
<title>Node4&#45;&gt;Node5</title>
<path fill="none" stroke="#191970" d="M622.6892,-461.9424C635.4822,-451.9639 649.7551,-440.831 661.6874,-431.5239"/>
<polygon fill="#191970" stroke="#191970" points="620.268,-459.3921 614.5356,-468.3022 624.5733,-464.9116 620.268,-459.3921"/>
</g>
<!-- Node6 -->
<g id="node6" class="node">
<title>Node6</title>
<g id="a_node6"><a xlink:href="Gun_8hpp.html" target="_top" xlink:title="/mnt/hdd/C0de/Engines\l/SFML/SFML_Engine/include\l/Gun.hpp">
<polygon fill="none" stroke="#000000" points="516,-312.5 516,-353.5 660,-353.5 660,-312.5 516,-312.5"/>
<text text-anchor="start" x="524" y="-341.5" font-family="Helvetica,sans-Serif" font-size="10.00" fill="#000000">/mnt/hdd/C0de/Engines</text>
<text text-anchor="start" x="524" y="-330.5" font-family="Helvetica,sans-Serif" font-size="10.00" fill="#000000">/SFML/SFML_Engine/include</text>
<text text-anchor="middle" x="588" y="-319.5" font-family="Helvetica,sans-Serif" font-size="10.00" fill="#000000">/Gun.hpp</text>
</a>
</g>
</g>
<!-- Node4&#45;&gt;Node6 -->
<g id="edge35" class="edge">
<title>Node4&#45;&gt;Node6</title>
<path fill="none" stroke="#191970" d="M588,-458.0704C588,-427.1728 588,-380.5341 588,-353.8013"/>
<polygon fill="#191970" stroke="#191970" points="584.5001,-458.2844 588,-468.2844 591.5001,-458.2844 584.5001,-458.2844"/>
</g>
<!-- Node7 -->
<g id="node7" class="node">
<title>Node7</title>
<g id="a_node7"><a xlink:href="Enemy_8hpp.html" target="_top" xlink:title="/mnt/hdd/C0de/Engines\l/SFML/SFML_Engine/include\l/Enemy.hpp">
<polygon fill="none" stroke="#000000" points="824,-234.5 824,-275.5 968,-275.5 968,-234.5 824,-234.5"/>
<text text-anchor="start" x="832" y="-263.5" font-family="Helvetica,sans-Serif" font-size="10.00" fill="#000000">/mnt/hdd/C0de/Engines</text>
<text text-anchor="start" x="832" y="-252.5" font-family="Helvetica,sans-Serif" font-size="10.00" fill="#000000">/SFML/SFML_Engine/include</text>
<text text-anchor="middle" x="896" y="-241.5" font-family="Helvetica,sans-Serif" font-size="10.00" fill="#000000">/Enemy.hpp</text>
</a>
</g>
</g>
<!-- Node4&#45;&gt;Node7 -->
<g id="edge34" class="edge">
<title>Node4&#45;&gt;Node7</title>
<path fill="none" stroke="#191970" d="M670.0097,-468.6468C701.7238,-459.3774 737.8182,-447.0721 769,-432 798.9659,-417.5157 802.0567,-406.4328 831,-390 863.8521,-371.348 887.718,-385.8717 908,-354 923.058,-330.3374 914.2528,-296.978 905.7563,-275.6701"/>
<polygon fill="#191970" stroke="#191970" points="668.9662,-465.3049 660.3183,-471.4258 670.8957,-472.0338 668.9662,-465.3049"/>
</g>
<!-- Node4&#45;&gt;Node12 -->
<g id="edge37" class="edge">
<title>Node4&#45;&gt;Node12</title>
<path fill="none" stroke="#191970" d="M525.4321,-463.889C474.8483,-438.9795 412,-395.4623 412,-333 412,-333 412,-333 412,-255 412,-206.5208 412,-149.5673 412,-119.692"/>
<polygon fill="#191970" stroke="#191970" points="524.1846,-467.1719 534.7166,-468.324 527.2018,-460.8555 524.1846,-467.1719"/>
</g>
<!-- Node20 -->
<g id="node20" class="node">
<title>Node20</title>
<g id="a_node20"><a xlink:href="Main__Player_8hpp.html" target="_top" xlink:title="/mnt/hdd/C0de/Engines\l/SFML/SFML_Engine/include\l/Main_Player.hpp">
<polygon fill="none" stroke="#000000" points="440,-234.5 440,-275.5 584,-275.5 584,-234.5 440,-234.5"/>
<text text-anchor="start" x="448" y="-263.5" font-family="Helvetica,sans-Serif" font-size="10.00" fill="#000000">/mnt/hdd/C0de/Engines</text>
<text text-anchor="start" x="448" y="-252.5" font-family="Helvetica,sans-Serif" font-size="10.00" fill="#000000">/SFML/SFML_Engine/include</text>
<text text-anchor="middle" x="512" y="-241.5" font-family="Helvetica,sans-Serif" font-size="10.00" fill="#000000">/Main_Player.hpp</text>
</a>
</g>
</g>
<!-- Node4&#45;&gt;Node20 -->
<g id="edge36" class="edge">
<title>Node4&#45;&gt;Node20</title>
<path fill="none" stroke="#191970" d="M560.3262,-460.9498C537.276,-435.4669 506.1695,-395.5984 493,-354 484.6541,-327.6377 493.8476,-296.1053 502.1095,-275.8265"/>
<polygon fill="#191970" stroke="#191970" points="557.8357,-463.4119 567.1923,-468.3825 562.9776,-458.662 557.8357,-463.4119"/>
</g>
<!-- Node24 -->
<g id="node24" class="node">
<title>Node24</title>
<g id="a_node24"><a xlink:href="GameWorld_8cpp.html" target="_top" xlink:title="/mnt/hdd/C0de/Engines\l/SFML/SFML_Engine/src\l/GameWorld.cpp">
<polygon fill="none" stroke="#000000" points="840.5,-390.5 840.5,-431.5 967.5,-431.5 967.5,-390.5 840.5,-390.5"/>
<text text-anchor="start" x="848.5" y="-419.5" font-family="Helvetica,sans-Serif" font-size="10.00" fill="#000000">/mnt/hdd/C0de/Engines</text>
<text text-anchor="start" x="848.5" y="-408.5" font-family="Helvetica,sans-Serif" font-size="10.00" fill="#000000">/SFML/SFML_Engine/src</text>
<text text-anchor="middle" x="904" y="-397.5" font-family="Helvetica,sans-Serif" font-size="10.00" fill="#000000">/GameWorld.cpp</text>
</a>
</g>
</g>
<!-- Node4&#45;&gt;Node24 -->
<g id="edge38" class="edge">
<title>Node4&#45;&gt;Node24</title>
<path fill="none" stroke="#191970" d="M670.1886,-468.9177C671.468,-468.6093 672.7392,-468.3032 674,-468 741.4996,-451.7656 758.6958,-449.0262 826,-432 830.6225,-430.8306 835.393,-429.6014 840.1907,-428.349"/>
<polygon fill="#191970" stroke="#191970" points="669.1505,-465.5677 660.2523,-471.3185 670.7946,-472.3719 669.1505,-465.5677"/>
</g>
<!-- Node5&#45;&gt;Node6 -->
<g id="edge5" class="edge">
<title>Node5&#45;&gt;Node6</title>
<path fill="none" stroke="#191970" d="M653.3108,-383.9424C640.5178,-373.9639 626.2449,-362.831 614.3126,-353.5239"/>
<polygon fill="#191970" stroke="#191970" points="651.4267,-386.9116 661.4644,-390.3022 655.732,-381.3921 651.4267,-386.9116"/>
</g>
<!-- Node5&#45;&gt;Node7 -->
<g id="edge29" class="edge">
<title>Node5&#45;&gt;Node7</title>
<path fill="none" stroke="#191970" d="M770.012,-391.963C820.8966,-379.3741 878.0723,-363.4969 886,-354 904.1554,-332.2509 903.1532,-297.7382 900.0881,-275.7411"/>
<polygon fill="#191970" stroke="#191970" points="769.1451,-388.5718 760.2669,-394.3535 770.8128,-395.3703 769.1451,-388.5718"/>
</g>
<!-- Node5&#45;&gt;Node8 -->
<g id="edge31" class="edge">
<title>Node5&#45;&gt;Node8</title>
<path fill="none" stroke="#191970" d="M770.2706,-391.8966C805.8198,-381.8194 841.6611,-368.539 852,-354 862.8178,-338.7875 859.2614,-329.1964 852,-312 843.0748,-290.8633 826.6518,-295.765 815,-276 800.4339,-251.2914 793.5101,-218.5048 790.3772,-197.5736"/>
<polygon fill="#191970" stroke="#191970" points="768.9835,-388.6208 760.2731,-394.6524 770.8437,-395.3692 768.9835,-388.6208"/>
</g>
<!-- Node5&#45;&gt;Node12 -->
<g id="edge32" class="edge">
<title>Node5&#45;&gt;Node12</title>
<path fill="none" stroke="#191970" d="M689.8002,-380.0929C691.9527,-359.8838 696.6701,-333.3703 707,-312 716.1891,-292.9898 730.6518,-295.7947 738,-276 744.4963,-258.5002 747.0254,-250.3397 738,-234 722.2601,-205.5042 643.7476,-169.2224 614,-156 572.5443,-137.5734 523.6347,-123.5882 484.3262,-114.0826"/>
<polygon fill="#191970" stroke="#191970" points="686.2911,-380.0357 688.8706,-390.3117 693.2623,-380.6699 686.2911,-380.0357"/>
</g>
<!-- Node5&#45;&gt;Node20 -->
<g id="edge30" class="edge">
<title>Node5&#45;&gt;Node20</title>
<path fill="none" stroke="#191970" d="M605.6988,-394.9764C563.8975,-384.9913 519.3568,-370.8464 507,-354 490.409,-331.381 496.9727,-297.4302 503.9311,-275.748"/>
<polygon fill="#191970" stroke="#191970" points="605.1487,-398.4417 615.6815,-397.2969 606.7337,-391.6235 605.1487,-398.4417"/>
</g>
<!-- Node23 -->
<g id="node23" class="node">
<title>Node23</title>
<g id="a_node23"><a xlink:href="Bullet_8cpp.html" target="_top" xlink:title="/mnt/hdd/C0de/Engines\l/SFML/SFML_Engine/src\l/Bullet.cpp">
<polygon fill="none" stroke="#000000" points="716.5,-312.5 716.5,-353.5 843.5,-353.5 843.5,-312.5 716.5,-312.5"/>
<text text-anchor="start" x="724.5" y="-341.5" font-family="Helvetica,sans-Serif" font-size="10.00" fill="#000000">/mnt/hdd/C0de/Engines</text>
<text text-anchor="start" x="724.5" y="-330.5" font-family="Helvetica,sans-Serif" font-size="10.00" fill="#000000">/SFML/SFML_Engine/src</text>
<text text-anchor="middle" x="780" y="-319.5" font-family="Helvetica,sans-Serif" font-size="10.00" fill="#000000">/Bullet.cpp</text>
</a>
</g>
</g>
<!-- Node5&#45;&gt;Node23 -->
<g id="edge33" class="edge">
<title>Node5&#45;&gt;Node23</title>
<path fill="none" stroke="#191970" d="M720.4215,-383.5122C731.9898,-373.7043 744.8167,-362.8293 755.5966,-353.6898"/>
<polygon fill="#191970" stroke="#191970" points="718.0185,-380.9609 712.6543,-390.0974 722.5453,-386.3002 718.0185,-380.9609"/>
</g>
<!-- Node6&#45;&gt;Node7 -->
<g id="edge6" class="edge">
<title>Node6&#45;&gt;Node7</title>
<path fill="none" stroke="#191970" d="M669.941,-312.2487C717.8815,-300.1079 777.8506,-284.921 823.9738,-273.2404"/>
<polygon fill="#191970" stroke="#191970" points="669.047,-308.8645 660.2123,-314.7125 670.7656,-315.6503 669.047,-308.8645"/>
</g>
<!-- Node6&#45;&gt;Node20 -->
<g id="edge24" class="edge">
<title>Node6&#45;&gt;Node20</title>
<path fill="none" stroke="#191970" d="M560.3875,-304.6609C551.0507,-295.0783 540.8076,-284.5657 532.1593,-275.6898"/>
<polygon fill="#191970" stroke="#191970" points="558.1479,-307.3776 567.6334,-312.0974 563.1615,-302.4926 558.1479,-307.3776"/>
</g>
<!-- Node22 -->
<g id="node22" class="node">
<title>Node22</title>
<g id="a_node22"><a xlink:href="Gun_8cpp.html" target="_top" xlink:title="/mnt/hdd/C0de/Engines\l/SFML/SFML_Engine/src\l/Gun.cpp">
<polygon fill="none" stroke="#000000" points="602.5,-234.5 602.5,-275.5 729.5,-275.5 729.5,-234.5 602.5,-234.5"/>
<text text-anchor="start" x="610.5" y="-263.5" font-family="Helvetica,sans-Serif" font-size="10.00" fill="#000000">/mnt/hdd/C0de/Engines</text>
<text text-anchor="start" x="610.5" y="-252.5" font-family="Helvetica,sans-Serif" font-size="10.00" fill="#000000">/SFML/SFML_Engine/src</text>
<text text-anchor="middle" x="666" y="-241.5" font-family="Helvetica,sans-Serif" font-size="10.00" fill="#000000">/Gun.cpp</text>
</a>
</g>
</g>
<!-- Node6&#45;&gt;Node22 -->
<g id="edge28" class="edge">
<title>Node6&#45;&gt;Node22</title>
<path fill="none" stroke="#191970" d="M616.0548,-304.9452C625.7134,-295.2866 636.3465,-284.6535 645.3102,-275.6898"/>
<polygon fill="#191970" stroke="#191970" points="613.4988,-302.5515 608.9026,-312.0974 618.4485,-307.5012 613.4988,-302.5515"/>
</g>
<!-- Node7&#45;&gt;Node8 -->
<g id="edge7" class="edge">
<title>Node7&#45;&gt;Node8</title>
<path fill="none" stroke="#191970" d="M858.93,-228.2272C845.0131,-218.1761 829.4272,-206.9196 816.4176,-197.5239"/>
<polygon fill="#191970" stroke="#191970" points="857.1855,-231.2847 867.3415,-234.3022 861.2839,-225.6099 857.1855,-231.2847"/>
</g>
<!-- Node19 -->
<g id="node19" class="node">
<title>Node19</title>
<g id="a_node19"><a xlink:href="Enemy_8cpp.html" target="_top" xlink:title="/mnt/hdd/C0de/Engines\l/SFML/SFML_Engine/src\l/Enemy.cpp">
<polygon fill="none" stroke="#000000" points="878.5,-156.5 878.5,-197.5 1005.5,-197.5 1005.5,-156.5 878.5,-156.5"/>
<text text-anchor="start" x="886.5" y="-185.5" font-family="Helvetica,sans-Serif" font-size="10.00" fill="#000000">/mnt/hdd/C0de/Engines</text>
<text text-anchor="start" x="886.5" y="-174.5" font-family="Helvetica,sans-Serif" font-size="10.00" fill="#000000">/SFML/SFML_Engine/src</text>
<text text-anchor="middle" x="942" y="-163.5" font-family="Helvetica,sans-Serif" font-size="10.00" fill="#000000">/Enemy.cpp</text>
</a>
</g>
</g>
<!-- Node7&#45;&gt;Node19 -->
<g id="edge23" class="edge">
<title>Node7&#45;&gt;Node19</title>
<path fill="none" stroke="#191970" d="M913.556,-225.2312C918.9755,-216.0415 924.823,-206.1263 929.7983,-197.6898"/>
<polygon fill="#191970" stroke="#191970" points="910.3923,-223.7058 908.3272,-234.0974 916.4218,-227.2617 910.3923,-223.7058"/>
</g>
<!-- Node8&#45;&gt;Node9 -->
<g id="edge8" class="edge">
<title>Node8&#45;&gt;Node9</title>
<path fill="none" stroke="#191970" d="M705.5503,-167.0333C676.6037,-163.5383 643.8613,-159.5899 614,-156 470.8361,-138.789 303.4382,-118.7673 210.1767,-107.6219"/>
<polygon fill="#191970" stroke="#191970" points="705.2723,-170.5251 715.6198,-168.2492 706.1116,-163.5755 705.2723,-170.5251"/>
</g>
<!-- Node8&#45;&gt;Node12 -->
<g id="edge11" class="edge">
<title>Node8&#45;&gt;Node12</title>
<path fill="none" stroke="#191970" d="M705.8271,-156.8495C704.5428,-156.5623 703.2664,-156.2789 702,-156 628.0885,-139.721 543.076,-123.2785 484.2913,-112.2651"/>
<polygon fill="#191970" stroke="#191970" points="705.2671,-160.3114 715.7943,-159.1164 706.8195,-153.4857 705.2671,-160.3114"/>
</g>
<!-- Node8&#45;&gt;Node15 -->
<g id="edge16" class="edge">
<title>Node8&#45;&gt;Node15</title>
<path fill="none" stroke="#191970" d="M870.1998,-155.7406C940.624,-138.7677 960.0295,-136.3071 1027,-120 1029.823,-119.3126 1032.6993,-118.6044 1035.6033,-117.883"/>
<polygon fill="#191970" stroke="#191970" points="869.2906,-152.3595 860.3967,-158.117 870.9398,-159.1625 869.2906,-152.3595"/>
</g>
<!-- Node8&#45;&gt;Node17 -->
<g id="edge19" class="edge">
<title>Node8&#45;&gt;Node17</title>
<path fill="none" stroke="#191970" d="M839.0835,-151.7816C860.2156,-141.3493 884.406,-129.4072 904.426,-119.5239"/>
<polygon fill="#191970" stroke="#191970" points="837.3438,-148.7371 829.9263,-156.3022 840.4425,-155.0139 837.3438,-148.7371"/>
</g>
<!-- Node18 -->
<g id="node18" class="node">
<title>Node18</title>
<g id="a_node18"><a xlink:href="LoadingGameObjects_8cpp.html" target="_top" xlink:title="/mnt/hdd/C0de/Engines\l/SFML/SFML_Engine/src\l/LoadingGameObjects.cpp">
<polygon fill="none" stroke="#000000" points="722,-78.5 722,-119.5 854,-119.5 854,-78.5 722,-78.5"/>
<text text-anchor="start" x="730" y="-107.5" font-family="Helvetica,sans-Serif" font-size="10.00" fill="#000000">/mnt/hdd/C0de/Engines</text>
<text text-anchor="start" x="730" y="-96.5" font-family="Helvetica,sans-Serif" font-size="10.00" fill="#000000">/SFML/SFML_Engine/src</text>
<text text-anchor="middle" x="788" y="-85.5" font-family="Helvetica,sans-Serif" font-size="10.00" fill="#000000">/LoadingGameObjects.cpp</text>
</a>
</g>
</g>
<!-- Node8&#45;&gt;Node18 -->
<g id="edge22" class="edge">
<title>Node8&#45;&gt;Node18</title>
<path fill="none" stroke="#191970" d="M788,-146.0789C788,-137.2178 788,-127.7747 788,-119.6898"/>
<polygon fill="#191970" stroke="#191970" points="784.5001,-146.0974 788,-156.0974 791.5001,-146.0975 784.5001,-146.0974"/>
</g>
<!-- Node10 -->
<g id="node10" class="node">
<title>Node10</title>
<g id="a_node10"><a xlink:href="GameOverState_8cpp.html" target="_top" xlink:title="/mnt/hdd/C0de/Engines\l/SFML/SFML_Engine/src\l/GameOverState.cpp">
<polygon fill="none" stroke="#000000" points="211.5,-.5 211.5,-41.5 338.5,-41.5 338.5,-.5 211.5,-.5"/>
<text text-anchor="start" x="219.5" y="-29.5" font-family="Helvetica,sans-Serif" font-size="10.00" fill="#000000">/mnt/hdd/C0de/Engines</text>
<text text-anchor="start" x="219.5" y="-18.5" font-family="Helvetica,sans-Serif" font-size="10.00" fill="#000000">/SFML/SFML_Engine/src</text>
<text text-anchor="middle" x="275" y="-7.5" font-family="Helvetica,sans-Serif" font-size="10.00" fill="#000000">/GameOverState.cpp</text>
</a>
</g>
</g>
<!-- Node9&#45;&gt;Node10 -->
<g id="edge9" class="edge">
<title>Node9&#45;&gt;Node10</title>
<path fill="none" stroke="#191970" d="M183.5303,-73.0776C201.5561,-62.8148 221.9818,-51.1856 238.9517,-41.5239"/>
<polygon fill="#191970" stroke="#191970" points="181.3123,-70.3129 174.3538,-78.3022 184.7758,-76.396 181.3123,-70.3129"/>
</g>
<!-- Node9&#45;&gt;Node11 -->
<g id="edge10" class="edge">
<title>Node9&#45;&gt;Node11</title>
<path fill="none" stroke="#191970" d="M134.8286,-68.0789C133.9198,-59.2178 132.9513,-49.7747 132.122,-41.6898"/>
<polygon fill="#191970" stroke="#191970" points="131.354,-68.5067 135.8561,-78.0974 138.3175,-67.7925 131.354,-68.5067"/>
</g>
<!-- Node12&#45;&gt;Node10 -->
<g id="edge13" class="edge">
<title>Node12&#45;&gt;Node10</title>
<path fill="none" stroke="#191970" d="M366.4697,-73.0776C348.4439,-62.8148 328.0182,-51.1856 311.0483,-41.5239"/>
<polygon fill="#191970" stroke="#191970" points="365.2242,-76.396 375.6462,-78.3022 368.6877,-70.3129 365.2242,-76.396"/>
</g>
<!-- Node12&#45;&gt;Node11 -->
<g id="edge14" class="edge">
<title>Node12&#45;&gt;Node11</title>
<path fill="none" stroke="#191970" d="M330.2812,-77.2008C291.3813,-66.7264 244.239,-53.8912 202,-42 199.2426,-41.2237 196.4274,-40.4258 193.5847,-39.6157"/>
<polygon fill="#191970" stroke="#191970" points="329.4196,-80.5934 339.9855,-79.8109 331.2378,-73.8336 329.4196,-80.5934"/>
</g>
<!-- Node12&#45;&gt;Node13 -->
<g id="edge12" class="edge">
<title>Node12&#45;&gt;Node13</title>
<path fill="none" stroke="#191970" d="M415.1714,-68.0789C416.0802,-59.2178 417.0487,-49.7747 417.878,-41.6898"/>
<polygon fill="#191970" stroke="#191970" points="411.6825,-67.7925 414.1439,-78.0974 418.646,-68.5067 411.6825,-67.7925"/>
</g>
<!-- Node14 -->
<g id="node14" class="node">
<title>Node14</title>
<g id="a_node14"><a xlink:href="MainMenuState_8cpp.html" target="_top" xlink:title="/mnt/hdd/C0de/Engines\l/SFML/SFML_Engine/src\l/MainMenuState.cpp">
<polygon fill="none" stroke="#000000" points="697.5,-.5 697.5,-41.5 824.5,-41.5 824.5,-.5 697.5,-.5"/>
<text text-anchor="start" x="705.5" y="-29.5" font-family="Helvetica,sans-Serif" font-size="10.00" fill="#000000">/mnt/hdd/C0de/Engines</text>
<text text-anchor="start" x="705.5" y="-18.5" font-family="Helvetica,sans-Serif" font-size="10.00" fill="#000000">/SFML/SFML_Engine/src</text>
<text text-anchor="middle" x="761" y="-7.5" font-family="Helvetica,sans-Serif" font-size="10.00" fill="#000000">/MainMenuState.cpp</text>
</a>
</g>
</g>
<!-- Node12&#45;&gt;Node14 -->
<g id="edge15" class="edge">
<title>Node12&#45;&gt;Node14</title>
<path fill="none" stroke="#191970" d="M494.0824,-80.6549C556.1735,-66.7778 640.207,-47.9967 697.2814,-35.2408"/>
<polygon fill="#191970" stroke="#191970" points="493.3088,-77.2414 484.313,-82.8383 494.8357,-84.0729 493.3088,-77.2414"/>
</g>
<!-- Node15&#45;&gt;Node14 -->
<g id="edge17" class="edge">
<title>Node15&#45;&gt;Node14</title>
<path fill="none" stroke="#191970" d="M1025.6089,-77.7098C951.278,-60.2546 876.2658,-44.4433 824.5902,-33.8331"/>
<polygon fill="#191970" stroke="#191970" points="1025.078,-81.1805 1035.6145,-80.0705 1026.6855,-74.3676 1025.078,-81.1805"/>
</g>
<!-- Node16 -->
<g id="node16" class="node">
<title>Node16</title>
<g id="a_node16"><a xlink:href="SplashState_8cpp.html" target="_top" xlink:title="/mnt/hdd/C0de/Engines\l/SFML/SFML_Engine/src\l/SplashState.cpp">
<polygon fill="none" stroke="#000000" points="963.5,-.5 963.5,-41.5 1090.5,-41.5 1090.5,-.5 963.5,-.5"/>
<text text-anchor="start" x="971.5" y="-29.5" font-family="Helvetica,sans-Serif" font-size="10.00" fill="#000000">/mnt/hdd/C0de/Engines</text>
<text text-anchor="start" x="971.5" y="-18.5" font-family="Helvetica,sans-Serif" font-size="10.00" fill="#000000">/SFML/SFML_Engine/src</text>
<text text-anchor="middle" x="1027" y="-7.5" font-family="Helvetica,sans-Serif" font-size="10.00" fill="#000000">/SplashState.cpp</text>
</a>
</g>
</g>
<!-- Node15&#45;&gt;Node16 -->
<g id="edge18" class="edge">
<title>Node15&#45;&gt;Node16</title>
<path fill="none" stroke="#191970" d="M1078.8662,-70.9452C1068.8361,-61.2866 1057.7941,-50.6535 1048.4856,-41.6898"/>
<polygon fill="#191970" stroke="#191970" points="1076.6625,-73.6821 1086.2935,-78.0974 1081.518,-68.6399 1076.6625,-73.6821"/>
</g>
<!-- Node17&#45;&gt;Node13 -->
<g id="edge20" class="edge">
<title>Node17&#45;&gt;Node13</title>
<path fill="none" stroke="#191970" d="M863.6579,-78.1256C863.4383,-78.0835 863.219,-78.0416 863,-78 729.1153,-52.5444 570.2683,-35.1756 483.8352,-26.7876"/>
<polygon fill="#191970" stroke="#191970" points="863.19,-81.6019 873.6864,-80.1608 864.5823,-74.7418 863.19,-81.6019"/>
</g>
<!-- Node17&#45;&gt;Node16 -->
<g id="edge21" class="edge">
<title>Node17&#45;&gt;Node16</title>
<path fill="none" stroke="#191970" d="M975.1338,-70.9452C985.1639,-61.2866 996.2059,-50.6535 1005.5144,-41.6898"/>
<polygon fill="#191970" stroke="#191970" points="972.482,-68.6399 967.7065,-78.0974 977.3375,-73.6821 972.482,-68.6399"/>
</g>
<!-- Node20&#45;&gt;Node8 -->
<g id="edge25" class="edge">
<title>Node20&#45;&gt;Node8</title>
<path fill="none" stroke="#191970" d="M593.8357,-231.8725C632.5518,-220.931 678.3791,-207.9798 715.7871,-197.408"/>
<polygon fill="#191970" stroke="#191970" points="592.8265,-228.5206 584.1552,-234.6083 594.7302,-235.2567 592.8265,-228.5206"/>
</g>
<!-- Node20&#45;&gt;Node12 -->
<g id="edge26" class="edge">
<title>Node20&#45;&gt;Node12</title>
<path fill="none" stroke="#191970" d="M489.1788,-226.1939C482.4451,-217.3169 475.2186,-207.4021 469,-198 451.6039,-171.6984 433.8289,-139.8783 422.8563,-119.5408"/>
<polygon fill="#191970" stroke="#191970" points="486.5667,-228.539 495.4348,-234.3362 492.1175,-224.2741 486.5667,-228.539"/>
</g>
<!-- Node21 -->
<g id="node21" class="node">
<title>Node21</title>
<g id="a_node21"><a xlink:href="Main__Player_8cpp.html" target="_top" xlink:title="/mnt/hdd/C0de/Engines\l/SFML/SFML_Engine/src\l/Main_Player.cpp">
<polygon fill="none" stroke="#000000" points="478.5,-156.5 478.5,-197.5 605.5,-197.5 605.5,-156.5 478.5,-156.5"/>
<text text-anchor="start" x="486.5" y="-185.5" font-family="Helvetica,sans-Serif" font-size="10.00" fill="#000000">/mnt/hdd/C0de/Engines</text>
<text text-anchor="start" x="486.5" y="-174.5" font-family="Helvetica,sans-Serif" font-size="10.00" fill="#000000">/SFML/SFML_Engine/src</text>
<text text-anchor="middle" x="542" y="-163.5" font-family="Helvetica,sans-Serif" font-size="10.00" fill="#000000">/Main_Player.cpp</text>
</a>
</g>
</g>
<!-- Node20&#45;&gt;Node21 -->
<g id="edge27" class="edge">
<title>Node20&#45;&gt;Node21</title>
<path fill="none" stroke="#191970" d="M523.6708,-224.6559C527.1427,-215.629 530.8652,-205.9505 534.0424,-197.6898"/>
<polygon fill="#191970" stroke="#191970" points="520.3626,-223.5075 520.0394,-234.0974 526.896,-226.0204 520.3626,-223.5075"/>
</g>
<!-- Node26&#45;&gt;Node12 -->
<g id="edge44" class="edge">
<title>Node26&#45;&gt;Node12</title>
<path fill="none" stroke="#191970" d="M259.9841,-460.5044C266.5004,-451.7603 273.1014,-441.8399 278,-432 335.0293,-317.4445 297.0639,-267.4197 360,-156 367.5761,-142.5875 378.8391,-129.7228 388.9476,-119.6204"/>
<polygon fill="#191970" stroke="#191970" points="257.1621,-458.4323 253.8207,-468.4865 262.7026,-462.7105 257.1621,-458.4323"/>
</g>
<!-- Node27 -->
<g id="node27" class="node">
<title>Node27</title>
<g id="a_node27"><a xlink:href="HUD_8cpp.html" target="_top" xlink:title="/mnt/hdd/C0de/Engines\l/SFML/SFML_Engine/src\l/HUD.cpp">
<polygon fill="none" stroke="#000000" points="142.5,-390.5 142.5,-431.5 269.5,-431.5 269.5,-390.5 142.5,-390.5"/>
<text text-anchor="start" x="150.5" y="-419.5" font-family="Helvetica,sans-Serif" font-size="10.00" fill="#000000">/mnt/hdd/C0de/Engines</text>
<text text-anchor="start" x="150.5" y="-408.5" font-family="Helvetica,sans-Serif" font-size="10.00" fill="#000000">/SFML/SFML_Engine/src</text>
<text text-anchor="middle" x="206" y="-397.5" font-family="Helvetica,sans-Serif" font-size="10.00" fill="#000000">/HUD.cpp</text>
</a>
</g>
</g>
<!-- Node26&#45;&gt;Node27 -->
<g id="edge45" class="edge">
<title>Node26&#45;&gt;Node27</title>
<path fill="none" stroke="#191970" d="M224.3292,-458.6559C220.8573,-449.629 217.1348,-439.9505 213.9576,-431.6898"/>
<polygon fill="#191970" stroke="#191970" points="221.104,-460.0204 227.9606,-468.0974 227.6374,-457.5075 221.104,-460.0204"/>
</g>
</g>
</svg>
