<?xml version="1.0" encoding="UTF-8" standalone="no"?>
<!DOCTYPE svg PUBLIC "-//W3C//DTD SVG 1.1//EN"
 "http://www.w3.org/Graphics/SVG/1.1/DTD/svg11.dtd">
<!-- Generated by graphviz version 2.40.1 (20161225.0304)
 -->
<!-- Title: /mnt/hdd/C0de/Engines/SFML/SFML_Engine/include/StateMachine.hpp Pages: 1 -->
<!--zoomable 674 -->
<svg id="main" version="1.1" xmlns="http://www.w3.org/2000/svg" xmlns:xlink="http://www.w3.org/1999/xlink" xml:space="preserve" onload="init(evt)">
<style type="text/css"><![CDATA[
.edge:hover path { stroke: red; }
.edge:hover polygon { stroke: red; fill: red; }
]]></style>
<script type="text/javascript"><![CDATA[
var edges = document.getElementsByTagName('g');
if (edges && edges.length) {
  for (var i=0;i<edges.length;i++) {
    if (edges[i].id.substr(0,4)=='edge') {
      edges[i].setAttribute('class','edge');
    }
  }
}
]]></script>
        <defs>
                <circle id="rim" cx="0" cy="0" r="7"/>
                <circle id="rim2" cx="0" cy="0" r="3.5"/>
                <g id="zoomPlus">
                        <use xlink:href="#rim" fill="#404040">
                                <set attributeName="fill" to="#808080" begin="zoomplus.mouseover" end="zoomplus.mouseout"/>
                        </use>
                        <path d="M-4,0h8M0,-4v8" fill="none" stroke="white" stroke-width="1.5" pointer-events="none"/>
                </g>
                <g id="zoomMin">
                        <use xlink:href="#rim" fill="#404040">
                                <set attributeName="fill" to="#808080" begin="zoomminus.mouseover" end="zoomminus.mouseout"/>
                        </use>
                        <path d="M-4,0h8" fill="none" stroke="white" stroke-width="1.5" pointer-events="none"/>
                </g>
                <g id="dirArrow">
                        <path fill="none" stroke="white" stroke-width="1.5" d="M0,-3.0v7 M-2.5,-0.5L0,-3.0L2.5,-0.5"/>
                </g>
               <g id="resetDef">
                       <use xlink:href="#rim2" fill="#404040">
                               <set attributeName="fill" to="#808080" begin="reset.mouseover" end="reset.mouseout"/>
                       </use>
               </g>
        </defs>

<script type="text/javascript">
var viewWidth = 1211;
var viewHeight = 674;
var sectionId = 'dynsection-1';
</script>
<script xlink:href="svgpan.js"/>
<svg id="graph" class="graph">
<g id="viewport">
<title>/mnt/hdd/C0de/Engines/SFML/SFML_Engine/include/StateMachine.hpp</title>
<!-- Node4 -->
<g id="node1" class="node">
<title>Node4</title>
<polygon fill="#bfbfbf" stroke="#000000" points="776,-624.5 776,-665.5 920,-665.5 920,-624.5 776,-624.5"/>
<text text-anchor="start" x="784" y="-653.5" font-family="Helvetica,sans-Serif" font-size="10.00" fill="#000000">/mnt/hdd/C0de/Engines</text>
<text text-anchor="start" x="784" y="-642.5" font-family="Helvetica,sans-Serif" font-size="10.00" fill="#000000">/SFML/SFML_Engine/include</text>
<text text-anchor="middle" x="848" y="-631.5" font-family="Helvetica,sans-Serif" font-size="10.00" fill="#000000">/StateMachine.hpp</text>
</g>
<!-- Node5 -->
<g id="node2" class="node">
<title>Node5</title>
<g id="a_node2"><a xlink:href="Game_8hpp.html" target="_top" xlink:title="/mnt/hdd/C0de/Engines\l/SFML/SFML_Engine/include\l/Game.hpp">
<polygon fill="none" stroke="#000000" points="699,-546.5 699,-587.5 843,-587.5 843,-546.5 699,-546.5"/>
<text text-anchor="start" x="707" y="-575.5" font-family="Helvetica,sans-Serif" font-size="10.00" fill="#000000">/mnt/hdd/C0de/Engines</text>
<text text-anchor="start" x="707" y="-564.5" font-family="Helvetica,sans-Serif" font-size="10.00" fill="#000000">/SFML/SFML_Engine/include</text>
<text text-anchor="middle" x="771" y="-553.5" font-family="Helvetica,sans-Serif" font-size="10.00" fill="#000000">/Game.hpp</text>
</a>
</g>
</g>
<!-- Node4&#45;&gt;Node5 -->
<g id="edge1" class="edge">
<title>Node4&#45;&gt;Node5</title>
<path fill="none" stroke="#191970" d="M820.3049,-616.9452C810.7702,-607.2866 800.2734,-596.6535 791.4245,-587.6898"/>
<polygon fill="#191970" stroke="#191970" points="817.8493,-619.4397 827.3654,-624.0974 822.8309,-614.522 817.8493,-619.4397"/>
</g>
<!-- Node31 -->
<g id="node28" class="node">
<title>Node31</title>
<g id="a_node28"><a xlink:href="StateMachine_8cpp.html" target="_top" xlink:title="/mnt/hdd/C0de/Engines\l/SFML/SFML_Engine/src\l/StateMachine.cpp">
<polygon fill="none" stroke="#000000" points="861.5,-546.5 861.5,-587.5 988.5,-587.5 988.5,-546.5 861.5,-546.5"/>
<text text-anchor="start" x="869.5" y="-575.5" font-family="Helvetica,sans-Serif" font-size="10.00" fill="#000000">/mnt/hdd/C0de/Engines</text>
<text text-anchor="start" x="869.5" y="-564.5" font-family="Helvetica,sans-Serif" font-size="10.00" fill="#000000">/SFML/SFML_Engine/src</text>
<text text-anchor="middle" x="925" y="-553.5" font-family="Helvetica,sans-Serif" font-size="10.00" fill="#000000">/StateMachine.cpp</text>
</a>
</g>
</g>
<!-- Node4&#45;&gt;Node31 -->
<g id="edge50" class="edge">
<title>Node4&#45;&gt;Node31</title>
<path fill="none" stroke="#191970" d="M875.6951,-616.9452C885.2298,-607.2866 895.7266,-596.6535 904.5755,-587.6898"/>
<polygon fill="#191970" stroke="#191970" points="873.1691,-614.522 868.6346,-624.0974 878.1507,-619.4397 873.1691,-614.522"/>
</g>
<!-- Node6 -->
<g id="node3" class="node">
<title>Node6</title>
<g id="a_node3"><a xlink:href="GameWorld_8hpp.html" target="_top" xlink:title="/mnt/hdd/C0de/Engines\l/SFML/SFML_Engine/include\l/GameWorld.hpp">
<polygon fill="none" stroke="#000000" points="509,-468.5 509,-509.5 653,-509.5 653,-468.5 509,-468.5"/>
<text text-anchor="start" x="517" y="-497.5" font-family="Helvetica,sans-Serif" font-size="10.00" fill="#000000">/mnt/hdd/C0de/Engines</text>
<text text-anchor="start" x="517" y="-486.5" font-family="Helvetica,sans-Serif" font-size="10.00" fill="#000000">/SFML/SFML_Engine/include</text>
<text text-anchor="middle" x="581" y="-475.5" font-family="Helvetica,sans-Serif" font-size="10.00" fill="#000000">/GameWorld.hpp</text>
</a>
</g>
</g>
<!-- Node5&#45;&gt;Node6 -->
<g id="edge2" class="edge">
<title>Node5&#45;&gt;Node6</title>
<path fill="none" stroke="#191970" d="M711.2742,-542.481C685.4655,-531.8858 655.6085,-519.6288 630.994,-509.5239"/>
<polygon fill="#191970" stroke="#191970" points="710.0023,-545.7422 720.5823,-546.3022 712.6607,-539.2667 710.0023,-545.7422"/>
</g>
<!-- Node10 -->
<g id="node7" class="node">
<title>Node10</title>
<g id="a_node7"><a xlink:href="LoadingGameObjects_8hpp.html" target="_top" xlink:title="/mnt/hdd/C0de/Engines\l/SFML/SFML_Engine/include\l/LoadingGameObjects.hpp">
<polygon fill="none" stroke="#000000" points="551,-156.5 551,-197.5 695,-197.5 695,-156.5 551,-156.5"/>
<text text-anchor="start" x="559" y="-185.5" font-family="Helvetica,sans-Serif" font-size="10.00" fill="#000000">/mnt/hdd/C0de/Engines</text>
<text text-anchor="start" x="559" y="-174.5" font-family="Helvetica,sans-Serif" font-size="10.00" fill="#000000">/SFML/SFML_Engine/include</text>
<text text-anchor="middle" x="623" y="-163.5" font-family="Helvetica,sans-Serif" font-size="10.00" fill="#000000">/LoadingGameObjects.hpp</text>
</a>
</g>
</g>
<!-- Node5&#45;&gt;Node10 -->
<g id="edge40" class="edge">
<title>Node5&#45;&gt;Node10</title>
<path fill="none" stroke="#191970" d="M762.5505,-536.2916C745.6753,-476.6549 705.1641,-341.5804 656,-234 650.2966,-221.5199 642.6892,-208.2155 636.2159,-197.6018"/>
<polygon fill="#191970" stroke="#191970" points="759.2583,-537.5139 765.3313,-546.1954 765.9977,-535.6216 759.2583,-537.5139"/>
</g>
<!-- Node11 -->
<g id="node8" class="node">
<title>Node11</title>
<g id="a_node8"><a xlink:href="GameOverState_8hpp.html" target="_top" xlink:title="/mnt/hdd/C0de/Engines\l/SFML/SFML_Engine/include\l/GameOverState.hpp">
<polygon fill="none" stroke="#000000" points="77,-78.5 77,-119.5 221,-119.5 221,-78.5 77,-78.5"/>
<text text-anchor="start" x="85" y="-107.5" font-family="Helvetica,sans-Serif" font-size="10.00" fill="#000000">/mnt/hdd/C0de/Engines</text>
<text text-anchor="start" x="85" y="-96.5" font-family="Helvetica,sans-Serif" font-size="10.00" fill="#000000">/SFML/SFML_Engine/include</text>
<text text-anchor="middle" x="149" y="-85.5" font-family="Helvetica,sans-Serif" font-size="10.00" fill="#000000">/GameOverState.hpp</text>
</a>
</g>
</g>
<!-- Node5&#45;&gt;Node11 -->
<g id="edge39" class="edge">
<title>Node5&#45;&gt;Node11</title>
<path fill="none" stroke="#191970" d="M688.8467,-564.8598C516.8035,-559.7139 130.4827,-544.4337 82,-510 42.7435,-482.119 38,-459.15 38,-411 38,-411 38,-411 38,-255 38,-197.6617 88.3989,-146.7648 121.2763,-119.6626"/>
<polygon fill="#191970" stroke="#191970" points="688.7698,-568.359 698.8687,-565.1554 688.9762,-561.362 688.7698,-568.359"/>
</g>
<!-- Node13 -->
<g id="node10" class="node">
<title>Node13</title>
<g id="a_node10"><a xlink:href="GameState_8cpp.html" target="_top" xlink:title="/mnt/hdd/C0de/Engines\l/SFML/SFML_Engine/src\l/GameState.cpp">
<polygon fill="none" stroke="#000000" points="85.5,-.5 85.5,-41.5 212.5,-41.5 212.5,-.5 85.5,-.5"/>
<text text-anchor="start" x="93.5" y="-29.5" font-family="Helvetica,sans-Serif" font-size="10.00" fill="#000000">/mnt/hdd/C0de/Engines</text>
<text text-anchor="start" x="93.5" y="-18.5" font-family="Helvetica,sans-Serif" font-size="10.00" fill="#000000">/SFML/SFML_Engine/src</text>
<text text-anchor="middle" x="149" y="-7.5" font-family="Helvetica,sans-Serif" font-size="10.00" fill="#000000">/GameState.cpp</text>
</a>
</g>
</g>
<!-- Node5&#45;&gt;Node13 -->
<g id="edge48" class="edge">
<title>Node5&#45;&gt;Node13</title>
<path fill="none" stroke="#191970" d="M688.6558,-565.3248C508.9456,-560.993 93.4865,-547.0527 42,-510 3.2058,-482.0813 0,-458.7959 0,-411 0,-411 0,-411 0,-177 0,-114.2677 63.7876,-66.8422 107.8907,-41.5491"/>
<polygon fill="#191970" stroke="#191970" points="688.7708,-568.8284 698.8509,-565.5663 688.9366,-561.8304 688.7708,-568.8284"/>
</g>
<!-- Node14 -->
<g id="node11" class="node">
<title>Node14</title>
<g id="a_node11"><a xlink:href="GameState_8hpp.html" target="_top" xlink:title="/mnt/hdd/C0de/Engines\l/SFML/SFML_Engine/include\l/GameState.hpp">
<polygon fill="none" stroke="#000000" points="239,-78.5 239,-119.5 383,-119.5 383,-78.5 239,-78.5"/>
<text text-anchor="start" x="247" y="-107.5" font-family="Helvetica,sans-Serif" font-size="10.00" fill="#000000">/mnt/hdd/C0de/Engines</text>
<text text-anchor="start" x="247" y="-96.5" font-family="Helvetica,sans-Serif" font-size="10.00" fill="#000000">/SFML/SFML_Engine/include</text>
<text text-anchor="middle" x="311" y="-85.5" font-family="Helvetica,sans-Serif" font-size="10.00" fill="#000000">/GameState.hpp</text>
</a>
</g>
</g>
<!-- Node5&#45;&gt;Node14 -->
<g id="edge41" class="edge">
<title>Node5&#45;&gt;Node14</title>
<path fill="none" stroke="#191970" d="M688.7343,-564.2068C525.098,-558.0092 170.5497,-541.1356 125,-510 84.4695,-482.2953 76,-460.0945 76,-411 76,-411 76,-411 76,-255 76,-205.5048 89.0724,-187.8006 127,-156 136.0653,-148.3991 191.324,-131.7864 238.9412,-118.4464"/>
<polygon fill="#191970" stroke="#191970" points="688.6329,-567.7054 698.7569,-564.5821 688.8949,-560.7103 688.6329,-567.7054"/>
</g>
<!-- Node15 -->
<g id="node12" class="node">
<title>Node15</title>
<g id="a_node12"><a xlink:href="Game_8cpp.html" target="_top" xlink:title="/mnt/hdd/C0de/Engines\l/SFML/SFML_Engine/src\l/Game.cpp">
<polygon fill="none" stroke="#000000" points="721.5,-.5 721.5,-41.5 848.5,-41.5 848.5,-.5 721.5,-.5"/>
<text text-anchor="start" x="729.5" y="-29.5" font-family="Helvetica,sans-Serif" font-size="10.00" fill="#000000">/mnt/hdd/C0de/Engines</text>
<text text-anchor="start" x="729.5" y="-18.5" font-family="Helvetica,sans-Serif" font-size="10.00" fill="#000000">/SFML/SFML_Engine/src</text>
<text text-anchor="middle" x="785" y="-7.5" font-family="Helvetica,sans-Serif" font-size="10.00" fill="#000000">/Game.cpp</text>
</a>
</g>
</g>
<!-- Node5&#45;&gt;Node15 -->
<g id="edge47" class="edge">
<title>Node5&#45;&gt;Node15</title>
<path fill="none" stroke="#191970" d="M814.3939,-540.3146C825.8107,-531.7268 837.3405,-521.4361 846,-510 874.5483,-472.298 885,-458.2911 885,-411 885,-411 885,-411 885,-177 885,-132.197 890.3128,-115.6324 866,-78 856.2955,-62.979 841.1077,-50.7553 826.4935,-41.5352"/>
<polygon fill="#191970" stroke="#191970" points="812.211,-537.5736 806.1434,-546.259 816.3029,-543.2531 812.211,-537.5736"/>
</g>
<!-- Node17 -->
<g id="node14" class="node">
<title>Node17</title>
<g id="a_node14"><a xlink:href="MainMenuState_8hpp.html" target="_top" xlink:title="/mnt/hdd/C0de/Engines\l/SFML/SFML_Engine/include\l/MainMenuState.hpp">
<polygon fill="none" stroke="#000000" points="551,-78.5 551,-119.5 695,-119.5 695,-78.5 551,-78.5"/>
<text text-anchor="start" x="559" y="-107.5" font-family="Helvetica,sans-Serif" font-size="10.00" fill="#000000">/mnt/hdd/C0de/Engines</text>
<text text-anchor="start" x="559" y="-96.5" font-family="Helvetica,sans-Serif" font-size="10.00" fill="#000000">/SFML/SFML_Engine/include</text>
<text text-anchor="middle" x="623" y="-85.5" font-family="Helvetica,sans-Serif" font-size="10.00" fill="#000000">/MainMenuState.hpp</text>
</a>
</g>
</g>
<!-- Node5&#45;&gt;Node17 -->
<g id="edge45" class="edge">
<title>Node5&#45;&gt;Node17</title>
<path fill="none" stroke="#191970" d="M782.8948,-536.8151C794.0415,-505.772 809,-455.7725 809,-411 809,-411 809,-411 809,-255 809,-187.2508 735.661,-143.0749 681.0865,-119.5808"/>
<polygon fill="#191970" stroke="#191970" points="779.6111,-535.604 779.4334,-546.1973 786.1784,-538.0269 779.6111,-535.604"/>
</g>
<!-- Node19 -->
<g id="node16" class="node">
<title>Node19</title>
<g id="a_node16"><a xlink:href="SplashState_8hpp.html" target="_top" xlink:title="/mnt/hdd/C0de/Engines\l/SFML/SFML_Engine/include\l/SplashState.hpp">
<polygon fill="none" stroke="#000000" points="713,-78.5 713,-119.5 857,-119.5 857,-78.5 713,-78.5"/>
<text text-anchor="start" x="721" y="-107.5" font-family="Helvetica,sans-Serif" font-size="10.00" fill="#000000">/mnt/hdd/C0de/Engines</text>
<text text-anchor="start" x="721" y="-96.5" font-family="Helvetica,sans-Serif" font-size="10.00" fill="#000000">/SFML/SFML_Engine/include</text>
<text text-anchor="middle" x="785" y="-85.5" font-family="Helvetica,sans-Serif" font-size="10.00" fill="#000000">/SplashState.hpp</text>
</a>
</g>
</g>
<!-- Node5&#45;&gt;Node19 -->
<g id="edge46" class="edge">
<title>Node5&#45;&gt;Node19</title>
<path fill="none" stroke="#191970" d="M801.5943,-539.0729C809.5613,-530.4347 817.4552,-520.4282 823,-510 844.2553,-470.0251 847,-456.2745 847,-411 847,-411 847,-411 847,-255 847,-209.7255 841.168,-197.4693 823,-156 817.3683,-143.1454 808.8547,-130.0307 801.3125,-119.6269"/>
<polygon fill="#191970" stroke="#191970" points="799.057,-536.6619 794.6313,-546.2881 804.094,-541.5228 799.057,-536.6619"/>
</g>
<!-- Node27 -->
<g id="node24" class="node">
<title>Node27</title>
<g id="a_node24"><a xlink:href="Button_8hpp.html" target="_top" xlink:title="/mnt/hdd/C0de/Engines\l/SFML/SFML_Engine/include\l/Button.hpp">
<polygon fill="none" stroke="#000000" points="913,-468.5 913,-509.5 1057,-509.5 1057,-468.5 913,-468.5"/>
<text text-anchor="start" x="921" y="-497.5" font-family="Helvetica,sans-Serif" font-size="10.00" fill="#000000">/mnt/hdd/C0de/Engines</text>
<text text-anchor="start" x="921" y="-486.5" font-family="Helvetica,sans-Serif" font-size="10.00" fill="#000000">/SFML/SFML_Engine/include</text>
<text text-anchor="middle" x="985" y="-475.5" font-family="Helvetica,sans-Serif" font-size="10.00" fill="#000000">/Button.hpp</text>
</a>
</g>
</g>
<!-- Node5&#45;&gt;Node27 -->
<g id="edge38" class="edge">
<title>Node5&#45;&gt;Node27</title>
<path fill="none" stroke="#191970" d="M837.2284,-542.8607C866.4836,-532.1976 900.5203,-519.7917 928.5488,-509.5757"/>
<polygon fill="#191970" stroke="#191970" points="835.7027,-539.6915 827.5059,-546.4044 838.0999,-546.2682 835.7027,-539.6915"/>
</g>
<!-- Node28 -->
<g id="node25" class="node">
<title>Node28</title>
<g id="a_node25"><a xlink:href="HUD_8hpp.html" target="_top" xlink:title="/mnt/hdd/C0de/Engines\l/SFML/SFML_Engine/include\l/HUD.hpp">
<polygon fill="none" stroke="#000000" points="134,-468.5 134,-509.5 278,-509.5 278,-468.5 134,-468.5"/>
<text text-anchor="start" x="142" y="-497.5" font-family="Helvetica,sans-Serif" font-size="10.00" fill="#000000">/mnt/hdd/C0de/Engines</text>
<text text-anchor="start" x="142" y="-486.5" font-family="Helvetica,sans-Serif" font-size="10.00" fill="#000000">/SFML/SFML_Engine/include</text>
<text text-anchor="middle" x="206" y="-475.5" font-family="Helvetica,sans-Serif" font-size="10.00" fill="#000000">/HUD.hpp</text>
</a>
</g>
</g>
<!-- Node5&#45;&gt;Node28 -->
<g id="edge42" class="edge">
<title>Node5&#45;&gt;Node28</title>
<path fill="none" stroke="#191970" d="M688.7632,-555.647C578.1776,-540.3803 383.3109,-513.4783 278.1478,-498.9602"/>
<polygon fill="#191970" stroke="#191970" points="688.4837,-559.1415 698.8685,-557.042 689.4411,-552.2073 688.4837,-559.1415"/>
</g>
<!-- Node30 -->
<g id="node27" class="node">
<title>Node30</title>
<g id="a_node27"><a xlink:href="main_8cpp.html" target="_top" xlink:title="/mnt/hdd/C0de/Engines\l/SFML/SFML_Engine/src\l/main.cpp">
<polygon fill="none" stroke="#000000" points="1075.5,-468.5 1075.5,-509.5 1202.5,-509.5 1202.5,-468.5 1075.5,-468.5"/>
<text text-anchor="start" x="1083.5" y="-497.5" font-family="Helvetica,sans-Serif" font-size="10.00" fill="#000000">/mnt/hdd/C0de/Engines</text>
<text text-anchor="start" x="1083.5" y="-486.5" font-family="Helvetica,sans-Serif" font-size="10.00" fill="#000000">/SFML/SFML_Engine/src</text>
<text text-anchor="middle" x="1139" y="-475.5" font-family="Helvetica,sans-Serif" font-size="10.00" fill="#000000">/main.cpp</text>
</a>
</g>
</g>
<!-- Node5&#45;&gt;Node30 -->
<g id="edge49" class="edge">
<title>Node5&#45;&gt;Node30</title>
<path fill="none" stroke="#191970" d="M853.4226,-546.0127C948.6848,-526.3914 975.4928,-530.5977 1066,-510 1069.0861,-509.2977 1072.2352,-508.5424 1075.4083,-507.7504"/>
<polygon fill="#191970" stroke="#191970" points="852.4301,-542.6445 843.3601,-548.1205 853.8653,-549.4958 852.4301,-542.6445"/>
</g>
<!-- Node7 -->
<g id="node4" class="node">
<title>Node7</title>
<g id="a_node4"><a xlink:href="Bullet_8hpp.html" target="_top" xlink:title="/mnt/hdd/C0de/Engines\l/SFML/SFML_Engine/include\l/Bullet.hpp">
<polygon fill="none" stroke="#000000" points="509,-390.5 509,-431.5 653,-431.5 653,-390.5 509,-390.5"/>
<text text-anchor="start" x="517" y="-419.5" font-family="Helvetica,sans-Serif" font-size="10.00" fill="#000000">/mnt/hdd/C0de/Engines</text>
<text text-anchor="start" x="517" y="-408.5" font-family="Helvetica,sans-Serif" font-size="10.00" fill="#000000">/SFML/SFML_Engine/include</text>
<text text-anchor="middle" x="581" y="-397.5" font-family="Helvetica,sans-Serif" font-size="10.00" fill="#000000">/Bullet.hpp</text>
</a>
</g>
</g>
<!-- Node6&#45;&gt;Node7 -->
<g id="edge3" class="edge">
<title>Node6&#45;&gt;Node7</title>
<path fill="none" stroke="#191970" d="M581,-458.0789C581,-449.2178 581,-439.7747 581,-431.6898"/>
<polygon fill="#191970" stroke="#191970" points="577.5001,-458.0974 581,-468.0974 584.5001,-458.0975 577.5001,-458.0974"/>
</g>
<!-- Node8 -->
<g id="node5" class="node">
<title>Node8</title>
<g id="a_node5"><a xlink:href="Gun_8hpp.html" target="_top" xlink:title="/mnt/hdd/C0de/Engines\l/SFML/SFML_Engine/include\l/Gun.hpp">
<polygon fill="none" stroke="#000000" points="263,-312.5 263,-353.5 407,-353.5 407,-312.5 263,-312.5"/>
<text text-anchor="start" x="271" y="-341.5" font-family="Helvetica,sans-Serif" font-size="10.00" fill="#000000">/mnt/hdd/C0de/Engines</text>
<text text-anchor="start" x="271" y="-330.5" font-family="Helvetica,sans-Serif" font-size="10.00" fill="#000000">/SFML/SFML_Engine/include</text>
<text text-anchor="middle" x="335" y="-319.5" font-family="Helvetica,sans-Serif" font-size="10.00" fill="#000000">/Gun.hpp</text>
</a>
</g>
</g>
<!-- Node6&#45;&gt;Node8 -->
<g id="edge34" class="edge">
<title>Node6&#45;&gt;Node8</title>
<path fill="none" stroke="#191970" d="M540.8359,-462.6285C527.5018,-453.3815 512.8008,-442.6388 500,-432 479.4546,-414.9247 478.9676,-405.2021 457,-390 436.142,-375.5657 411.0495,-363.1278 389.0587,-353.5869"/>
<polygon fill="#191970" stroke="#191970" points="539.1393,-465.7088 549.3672,-468.473 543.0955,-459.9339 539.1393,-465.7088"/>
</g>
<!-- Node9 -->
<g id="node6" class="node">
<title>Node9</title>
<g id="a_node6"><a xlink:href="Enemy_8hpp.html" target="_top" xlink:title="/mnt/hdd/C0de/Engines\l/SFML/SFML_Engine/include\l/Enemy.hpp">
<polygon fill="none" stroke="#000000" points="326,-234.5 326,-275.5 470,-275.5 470,-234.5 326,-234.5"/>
<text text-anchor="start" x="334" y="-263.5" font-family="Helvetica,sans-Serif" font-size="10.00" fill="#000000">/mnt/hdd/C0de/Engines</text>
<text text-anchor="start" x="334" y="-252.5" font-family="Helvetica,sans-Serif" font-size="10.00" fill="#000000">/SFML/SFML_Engine/include</text>
<text text-anchor="middle" x="398" y="-241.5" font-family="Helvetica,sans-Serif" font-size="10.00" fill="#000000">/Enemy.hpp</text>
</a>
</g>
</g>
<!-- Node6&#45;&gt;Node9 -->
<g id="edge33" class="edge">
<title>Node6&#45;&gt;Node9</title>
<path fill="none" stroke="#191970" d="M512.7636,-464.3796C493.6872,-455.7565 473.6409,-444.9304 457,-432 438.0356,-417.2642 443.4736,-402.5547 423,-390 357.5324,-349.8544 302.3163,-413.6926 254,-354 242.2559,-339.4907 243.5071,-327.4384 254,-312 262.9549,-298.8244 294.4741,-285.6332 325.7492,-275.2641"/>
<polygon fill="#191970" stroke="#191970" points="511.4669,-467.6326 522.0313,-468.4354 514.2733,-461.2198 511.4669,-467.6326"/>
</g>
<!-- Node6&#45;&gt;Node14 -->
<g id="edge36" class="edge">
<title>Node6&#45;&gt;Node14</title>
<path fill="none" stroke="#191970" d="M644.078,-463.4265C657.2356,-455.2679 669.6336,-444.9076 678,-432 745.0151,-328.6094 785.9774,-247.9802 704,-156 657.5631,-103.8969 460.6117,-132.7885 392,-120 389.1437,-119.4676 386.2393,-118.8902 383.3118,-118.2782"/>
<polygon fill="#191970" stroke="#191970" points="642.258,-460.4359 635.3566,-468.4746 645.7647,-466.4942 642.258,-460.4359"/>
</g>
<!-- Node22 -->
<g id="node19" class="node">
<title>Node22</title>
<g id="a_node19"><a xlink:href="Main__Player_8hpp.html" target="_top" xlink:title="/mnt/hdd/C0de/Engines\l/SFML/SFML_Engine/include\l/Main_Player.hpp">
<polygon fill="none" stroke="#000000" points="488,-234.5 488,-275.5 632,-275.5 632,-234.5 488,-234.5"/>
<text text-anchor="start" x="496" y="-263.5" font-family="Helvetica,sans-Serif" font-size="10.00" fill="#000000">/mnt/hdd/C0de/Engines</text>
<text text-anchor="start" x="496" y="-252.5" font-family="Helvetica,sans-Serif" font-size="10.00" fill="#000000">/SFML/SFML_Engine/include</text>
<text text-anchor="middle" x="560" y="-241.5" font-family="Helvetica,sans-Serif" font-size="10.00" fill="#000000">/Main_Player.hpp</text>
</a>
</g>
</g>
<!-- Node6&#45;&gt;Node22 -->
<g id="edge35" class="edge">
<title>Node6&#45;&gt;Node22</title>
<path fill="none" stroke="#191970" d="M634.0307,-462.6764C645.2549,-454.4732 655.6252,-444.281 662,-432 670.5999,-415.4324 667.4093,-407.8657 662,-390 647.7842,-343.0484 608.7092,-299.9044 583.2581,-275.5806"/>
<polygon fill="#191970" stroke="#191970" points="632.0576,-459.7855 625.7518,-468.2994 635.9907,-465.5761 632.0576,-459.7855"/>
</g>
<!-- Node26 -->
<g id="node23" class="node">
<title>Node26</title>
<g id="a_node23"><a xlink:href="GameWorld_8cpp.html" target="_top" xlink:title="/mnt/hdd/C0de/Engines\l/SFML/SFML_Engine/src\l/GameWorld.cpp">
<polygon fill="none" stroke="#000000" points="287.5,-390.5 287.5,-431.5 414.5,-431.5 414.5,-390.5 287.5,-390.5"/>
<text text-anchor="start" x="295.5" y="-419.5" font-family="Helvetica,sans-Serif" font-size="10.00" fill="#000000">/mnt/hdd/C0de/Engines</text>
<text text-anchor="start" x="295.5" y="-408.5" font-family="Helvetica,sans-Serif" font-size="10.00" fill="#000000">/SFML/SFML_Engine/src</text>
<text text-anchor="middle" x="351" y="-397.5" font-family="Helvetica,sans-Serif" font-size="10.00" fill="#000000">/GameWorld.cpp</text>
</a>
</g>
</g>
<!-- Node6&#45;&gt;Node26 -->
<g id="edge37" class="edge">
<title>Node6&#45;&gt;Node26</title>
<path fill="none" stroke="#191970" d="M510.6391,-465.1385C479.0141,-454.4135 442.0579,-441.8805 411.6719,-431.5757"/>
<polygon fill="#191970" stroke="#191970" points="509.675,-468.5073 520.2694,-468.4044 511.9232,-461.8781 509.675,-468.5073"/>
</g>
<!-- Node7&#45;&gt;Node8 -->
<g id="edge4" class="edge">
<title>Node7&#45;&gt;Node8</title>
<path fill="none" stroke="#191970" d="M506.1815,-387.277C472.2604,-376.5216 432.5324,-363.9249 399.8925,-353.5757"/>
<polygon fill="#191970" stroke="#191970" points="505.4544,-390.7182 516.0446,-390.4044 507.5702,-384.0456 505.4544,-390.7182"/>
</g>
<!-- Node7&#45;&gt;Node9 -->
<g id="edge28" class="edge">
<title>Node7&#45;&gt;Node9</title>
<path fill="none" stroke="#191970" d="M582.7065,-379.9932C582.2235,-358.5227 578.0598,-330.5731 562,-312 555.272,-304.2191 509.0927,-288.5304 467.446,-275.579"/>
<polygon fill="#191970" stroke="#191970" points="579.2059,-380.2337 582.6758,-390.2442 586.2058,-380.2547 579.2059,-380.2337"/>
</g>
<!-- Node7&#45;&gt;Node10 -->
<g id="edge30" class="edge">
<title>Node7&#45;&gt;Node10</title>
<path fill="none" stroke="#191970" d="M598.7498,-381.7231C613.6404,-355.2164 633.6235,-314.5328 641,-276 644.5097,-257.6663 643.8438,-252.4488 641,-234 639.1029,-221.6923 635.0292,-208.3987 631.2364,-197.7477"/>
<polygon fill="#191970" stroke="#191970" points="595.6657,-380.0654 593.7242,-390.4808 601.7371,-383.5495 595.6657,-380.0654"/>
</g>
<!-- Node7&#45;&gt;Node14 -->
<g id="edge31" class="edge">
<title>Node7&#45;&gt;Node14</title>
<path fill="none" stroke="#191970" d="M498.5883,-399.1516C408.983,-385.8716 275.5912,-364.7907 254,-354 208.7183,-331.3695 191.0958,-322.4621 171,-276 148.5685,-224.1375 173.7064,-196.6066 213,-156 227.3714,-141.1484 246.4401,-128.8907 263.9352,-119.5976"/>
<polygon fill="#191970" stroke="#191970" points="498.3403,-402.6529 508.7443,-400.6513 499.3629,-395.728 498.3403,-402.6529"/>
</g>
<!-- Node7&#45;&gt;Node22 -->
<g id="edge29" class="edge">
<title>Node7&#45;&gt;Node22</title>
<path fill="none" stroke="#191970" d="M591.751,-380.4708C597.1577,-360.6726 601.3497,-334.4756 595,-312 591.3062,-298.9251 583.678,-285.8955 576.4833,-275.6008"/>
<polygon fill="#191970" stroke="#191970" points="588.3572,-379.6044 588.8623,-390.1872 595.067,-381.5993 588.3572,-379.6044"/>
</g>
<!-- Node25 -->
<g id="node22" class="node">
<title>Node25</title>
<g id="a_node22"><a xlink:href="Bullet_8cpp.html" target="_top" xlink:title="/mnt/hdd/C0de/Engines\l/SFML/SFML_Engine/src\l/Bullet.cpp">
<polygon fill="none" stroke="#000000" points="425.5,-312.5 425.5,-353.5 552.5,-353.5 552.5,-312.5 425.5,-312.5"/>
<text text-anchor="start" x="433.5" y="-341.5" font-family="Helvetica,sans-Serif" font-size="10.00" fill="#000000">/mnt/hdd/C0de/Engines</text>
<text text-anchor="start" x="433.5" y="-330.5" font-family="Helvetica,sans-Serif" font-size="10.00" fill="#000000">/SFML/SFML_Engine/src</text>
<text text-anchor="middle" x="489" y="-319.5" font-family="Helvetica,sans-Serif" font-size="10.00" fill="#000000">/Bullet.cpp</text>
</a>
</g>
</g>
<!-- Node7&#45;&gt;Node25 -->
<g id="edge32" class="edge">
<title>Node7&#45;&gt;Node25</title>
<path fill="none" stroke="#191970" d="M548.5785,-383.5122C537.0102,-373.7043 524.1833,-362.8293 513.4034,-353.6898"/>
<polygon fill="#191970" stroke="#191970" points="546.4547,-386.3002 556.3457,-390.0974 550.9815,-380.9609 546.4547,-386.3002"/>
</g>
<!-- Node8&#45;&gt;Node9 -->
<g id="edge5" class="edge">
<title>Node8&#45;&gt;Node9</title>
<path fill="none" stroke="#191970" d="M358.35,-304.0905C365.9648,-294.6626 374.262,-284.3899 381.289,-275.6898"/>
<polygon fill="#191970" stroke="#191970" points="355.4434,-302.1188 351.8828,-312.0974 360.8891,-306.5172 355.4434,-302.1188"/>
</g>
<!-- Node8&#45;&gt;Node22 -->
<g id="edge23" class="edge">
<title>Node8&#45;&gt;Node22</title>
<path fill="none" stroke="#191970" d="M404.2317,-308.9997C435.0803,-298.3055 471.0497,-285.8361 500.6471,-275.5757"/>
<polygon fill="#191970" stroke="#191970" points="402.7124,-305.822 394.4104,-312.4044 405.0052,-312.4358 402.7124,-305.822"/>
</g>
<!-- Node24 -->
<g id="node21" class="node">
<title>Node24</title>
<g id="a_node21"><a xlink:href="Gun_8cpp.html" target="_top" xlink:title="/mnt/hdd/C0de/Engines\l/SFML/SFML_Engine/src\l/Gun.cpp">
<polygon fill="none" stroke="#000000" points="180.5,-234.5 180.5,-275.5 307.5,-275.5 307.5,-234.5 180.5,-234.5"/>
<text text-anchor="start" x="188.5" y="-263.5" font-family="Helvetica,sans-Serif" font-size="10.00" fill="#000000">/mnt/hdd/C0de/Engines</text>
<text text-anchor="start" x="188.5" y="-252.5" font-family="Helvetica,sans-Serif" font-size="10.00" fill="#000000">/SFML/SFML_Engine/src</text>
<text text-anchor="middle" x="244" y="-241.5" font-family="Helvetica,sans-Serif" font-size="10.00" fill="#000000">/Gun.cpp</text>
</a>
</g>
</g>
<!-- Node8&#45;&gt;Node24 -->
<g id="edge27" class="edge">
<title>Node8&#45;&gt;Node24</title>
<path fill="none" stroke="#191970" d="M302.9309,-305.5122C291.4883,-295.7043 278.8009,-284.8293 268.1381,-275.6898"/>
<polygon fill="#191970" stroke="#191970" points="300.7433,-308.2469 310.6137,-312.0974 305.2989,-302.9321 300.7433,-308.2469"/>
</g>
<!-- Node9&#45;&gt;Node10 -->
<g id="edge6" class="edge">
<title>Node9&#45;&gt;Node10</title>
<path fill="none" stroke="#191970" d="M467.2317,-230.9997C498.0803,-220.3055 534.0497,-207.8361 563.6471,-197.5757"/>
<polygon fill="#191970" stroke="#191970" points="465.7124,-227.822 457.4104,-234.4044 468.0052,-234.4358 465.7124,-227.822"/>
</g>
<!-- Node21 -->
<g id="node18" class="node">
<title>Node21</title>
<g id="a_node18"><a xlink:href="Enemy_8cpp.html" target="_top" xlink:title="/mnt/hdd/C0de/Engines\l/SFML/SFML_Engine/src\l/Enemy.cpp">
<polygon fill="none" stroke="#000000" points="222.5,-156.5 222.5,-197.5 349.5,-197.5 349.5,-156.5 222.5,-156.5"/>
<text text-anchor="start" x="230.5" y="-185.5" font-family="Helvetica,sans-Serif" font-size="10.00" fill="#000000">/mnt/hdd/C0de/Engines</text>
<text text-anchor="start" x="230.5" y="-174.5" font-family="Helvetica,sans-Serif" font-size="10.00" fill="#000000">/SFML/SFML_Engine/src</text>
<text text-anchor="middle" x="286" y="-163.5" font-family="Helvetica,sans-Serif" font-size="10.00" fill="#000000">/Enemy.cpp</text>
</a>
</g>
</g>
<!-- Node9&#45;&gt;Node21 -->
<g id="edge22" class="edge">
<title>Node9&#45;&gt;Node21</title>
<path fill="none" stroke="#191970" d="M359.965,-228.5113C345.4299,-218.3887 329.0888,-207.0083 315.4702,-197.5239"/>
<polygon fill="#191970" stroke="#191970" points="358.0738,-231.4594 368.2801,-234.3022 362.0743,-225.7151 358.0738,-231.4594"/>
</g>
<!-- Node10&#45;&gt;Node11 -->
<g id="edge7" class="edge">
<title>Node10&#45;&gt;Node11</title>
<path fill="none" stroke="#191970" d="M540.5168,-161.9594C528.2879,-159.8703 515.8254,-157.8194 504,-156 382.604,-137.3229 350.5638,-143.4565 230,-120 227.148,-119.4451 224.2472,-118.8488 221.3227,-118.2208"/>
<polygon fill="#191970" stroke="#191970" points="540.2654,-165.4677 550.7149,-163.719 541.4557,-158.5696 540.2654,-165.4677"/>
</g>
<!-- Node10&#45;&gt;Node14 -->
<g id="edge10" class="edge">
<title>Node10&#45;&gt;Node14</title>
<path fill="none" stroke="#191970" d="M540.7263,-156.8067C486.2985,-143.4271 419.9914,-127.0817 392,-120 389.1833,-119.2874 386.3123,-118.5579 383.4127,-117.8186"/>
<polygon fill="#191970" stroke="#191970" points="540.1926,-160.2797 550.739,-159.2676 541.8634,-153.482 540.1926,-160.2797"/>
</g>
<!-- Node10&#45;&gt;Node17 -->
<g id="edge15" class="edge">
<title>Node10&#45;&gt;Node17</title>
<path fill="none" stroke="#191970" d="M623,-146.0789C623,-137.2178 623,-127.7747 623,-119.6898"/>
<polygon fill="#191970" stroke="#191970" points="619.5001,-146.0974 623,-156.0974 626.5001,-146.0975 619.5001,-146.0974"/>
</g>
<!-- Node10&#45;&gt;Node19 -->
<g id="edge18" class="edge">
<title>Node10&#45;&gt;Node19</title>
<path fill="none" stroke="#191970" d="M675.0854,-151.9218C696.8213,-141.4564 721.7546,-129.4515 742.3735,-119.5239"/>
<polygon fill="#191970" stroke="#191970" points="673.4794,-148.8105 665.9877,-156.3022 676.5161,-155.1175 673.4794,-148.8105"/>
</g>
<!-- Node20 -->
<g id="node17" class="node">
<title>Node20</title>
<g id="a_node17"><a xlink:href="LoadingGameObjects_8cpp.html" target="_top" xlink:title="/mnt/hdd/C0de/Engines\l/SFML/SFML_Engine/src\l/LoadingGameObjects.cpp">
<polygon fill="none" stroke="#000000" points="401,-78.5 401,-119.5 533,-119.5 533,-78.5 401,-78.5"/>
<text text-anchor="start" x="409" y="-107.5" font-family="Helvetica,sans-Serif" font-size="10.00" fill="#000000">/mnt/hdd/C0de/Engines</text>
<text text-anchor="start" x="409" y="-96.5" font-family="Helvetica,sans-Serif" font-size="10.00" fill="#000000">/SFML/SFML_Engine/src</text>
<text text-anchor="middle" x="467" y="-85.5" font-family="Helvetica,sans-Serif" font-size="10.00" fill="#000000">/LoadingGameObjects.cpp</text>
</a>
</g>
</g>
<!-- Node10&#45;&gt;Node20 -->
<g id="edge21" class="edge">
<title>Node10&#45;&gt;Node20</title>
<path fill="none" stroke="#191970" d="M572.5632,-151.7816C551.6986,-141.3493 527.8143,-129.4072 508.0477,-119.5239"/>
<polygon fill="#191970" stroke="#191970" points="571.0949,-154.9605 581.6044,-156.3022 574.2254,-148.6995 571.0949,-154.9605"/>
</g>
<!-- Node12 -->
<g id="node9" class="node">
<title>Node12</title>
<g id="a_node9"><a xlink:href="GameOverState_8cpp.html" target="_top" xlink:title="/mnt/hdd/C0de/Engines\l/SFML/SFML_Engine/src\l/GameOverState.cpp">
<polygon fill="none" stroke="#000000" points="239.5,-.5 239.5,-41.5 366.5,-41.5 366.5,-.5 239.5,-.5"/>
<text text-anchor="start" x="247.5" y="-29.5" font-family="Helvetica,sans-Serif" font-size="10.00" fill="#000000">/mnt/hdd/C0de/Engines</text>
<text text-anchor="start" x="247.5" y="-18.5" font-family="Helvetica,sans-Serif" font-size="10.00" fill="#000000">/SFML/SFML_Engine/src</text>
<text text-anchor="middle" x="303" y="-7.5" font-family="Helvetica,sans-Serif" font-size="10.00" fill="#000000">/GameOverState.cpp</text>
</a>
</g>
</g>
<!-- Node11&#45;&gt;Node12 -->
<g id="edge8" class="edge">
<title>Node11&#45;&gt;Node12</title>
<path fill="none" stroke="#191970" d="M198.7902,-73.7816C219.3873,-63.3493 242.9653,-51.4072 262.4785,-41.5239"/>
<polygon fill="#191970" stroke="#191970" points="197.2044,-70.6614 189.8649,-78.3022 200.3673,-76.9061 197.2044,-70.6614"/>
</g>
<!-- Node11&#45;&gt;Node13 -->
<g id="edge9" class="edge">
<title>Node11&#45;&gt;Node13</title>
<path fill="none" stroke="#191970" d="M149,-68.0789C149,-59.2178 149,-49.7747 149,-41.6898"/>
<polygon fill="#191970" stroke="#191970" points="145.5001,-68.0974 149,-78.0974 152.5001,-68.0975 145.5001,-68.0974"/>
</g>
<!-- Node14&#45;&gt;Node12 -->
<g id="edge12" class="edge">
<title>Node14&#45;&gt;Node12</title>
<path fill="none" stroke="#191970" d="M307.8286,-68.0789C306.9198,-59.2178 305.9513,-49.7747 305.122,-41.6898"/>
<polygon fill="#191970" stroke="#191970" points="304.354,-68.5067 308.8561,-78.0974 311.3175,-67.7925 304.354,-68.5067"/>
</g>
<!-- Node14&#45;&gt;Node13 -->
<g id="edge13" class="edge">
<title>Node14&#45;&gt;Node13</title>
<path fill="none" stroke="#191970" d="M258.9146,-73.9218C237.1787,-63.4564 212.2454,-51.4515 191.6265,-41.5239"/>
<polygon fill="#191970" stroke="#191970" points="257.4839,-77.1175 268.0123,-78.3022 260.5206,-70.8105 257.4839,-77.1175"/>
</g>
<!-- Node14&#45;&gt;Node15 -->
<g id="edge11" class="edge">
<title>Node14&#45;&gt;Node15</title>
<path fill="none" stroke="#191970" d="M393.3953,-77.8713C531.0384,-53.1109 569.9928,-66.9776 704,-42 709.5698,-40.9619 715.3224,-39.7526 721.0729,-38.4486"/>
<polygon fill="#191970" stroke="#191970" points="392.5157,-74.4742 383.3118,-79.7218 393.7793,-81.3592 392.5157,-74.4742"/>
</g>
<!-- Node16 -->
<g id="node13" class="node">
<title>Node16</title>
<g id="a_node13"><a xlink:href="MainMenuState_8cpp.html" target="_top" xlink:title="/mnt/hdd/C0de/Engines\l/SFML/SFML_Engine/src\l/MainMenuState.cpp">
<polygon fill="none" stroke="#000000" points="407.5,-.5 407.5,-41.5 534.5,-41.5 534.5,-.5 407.5,-.5"/>
<text text-anchor="start" x="415.5" y="-29.5" font-family="Helvetica,sans-Serif" font-size="10.00" fill="#000000">/mnt/hdd/C0de/Engines</text>
<text text-anchor="start" x="415.5" y="-18.5" font-family="Helvetica,sans-Serif" font-size="10.00" fill="#000000">/SFML/SFML_Engine/src</text>
<text text-anchor="middle" x="471" y="-7.5" font-family="Helvetica,sans-Serif" font-size="10.00" fill="#000000">/MainMenuState.cpp</text>
</a>
</g>
</g>
<!-- Node14&#45;&gt;Node16 -->
<g id="edge14" class="edge">
<title>Node14&#45;&gt;Node16</title>
<path fill="none" stroke="#191970" d="M362.7301,-73.7816C384.1297,-63.3493 408.6263,-51.4072 428.8998,-41.5239"/>
<polygon fill="#191970" stroke="#191970" points="360.912,-70.7741 353.457,-78.3022 363.9795,-77.0662 360.912,-70.7741"/>
</g>
<!-- Node17&#45;&gt;Node16 -->
<g id="edge16" class="edge">
<title>Node17&#45;&gt;Node16</title>
<path fill="none" stroke="#191970" d="M573.5828,-73.6411C553.3182,-63.2422 530.1686,-51.3628 510.9952,-41.5239"/>
<polygon fill="#191970" stroke="#191970" points="572.1709,-76.8506 582.6659,-78.3022 575.3668,-70.6227 572.1709,-76.8506"/>
</g>
<!-- Node18 -->
<g id="node15" class="node">
<title>Node18</title>
<g id="a_node15"><a xlink:href="SplashState_8cpp.html" target="_top" xlink:title="/mnt/hdd/C0de/Engines\l/SFML/SFML_Engine/src\l/SplashState.cpp">
<polygon fill="none" stroke="#000000" points="567.5,-.5 567.5,-41.5 694.5,-41.5 694.5,-.5 567.5,-.5"/>
<text text-anchor="start" x="575.5" y="-29.5" font-family="Helvetica,sans-Serif" font-size="10.00" fill="#000000">/mnt/hdd/C0de/Engines</text>
<text text-anchor="start" x="575.5" y="-18.5" font-family="Helvetica,sans-Serif" font-size="10.00" fill="#000000">/SFML/SFML_Engine/src</text>
<text text-anchor="middle" x="631" y="-7.5" font-family="Helvetica,sans-Serif" font-size="10.00" fill="#000000">/SplashState.cpp</text>
</a>
</g>
</g>
<!-- Node17&#45;&gt;Node18 -->
<g id="edge17" class="edge">
<title>Node17&#45;&gt;Node18</title>
<path fill="none" stroke="#191970" d="M626.1714,-68.0789C627.0802,-59.2178 628.0487,-49.7747 628.878,-41.6898"/>
<polygon fill="#191970" stroke="#191970" points="622.6825,-67.7925 625.1439,-78.0974 629.646,-68.5067 622.6825,-67.7925"/>
</g>
<!-- Node19&#45;&gt;Node15 -->
<g id="edge19" class="edge">
<title>Node19&#45;&gt;Node15</title>
<path fill="none" stroke="#191970" d="M785,-68.0789C785,-59.2178 785,-49.7747 785,-41.6898"/>
<polygon fill="#191970" stroke="#191970" points="781.5001,-68.0974 785,-78.0974 788.5001,-68.0975 781.5001,-68.0974"/>
</g>
<!-- Node19&#45;&gt;Node18 -->
<g id="edge20" class="edge">
<title>Node19&#45;&gt;Node18</title>
<path fill="none" stroke="#191970" d="M735.2098,-73.7816C714.6127,-63.3493 691.0347,-51.4072 671.5215,-41.5239"/>
<polygon fill="#191970" stroke="#191970" points="733.6327,-76.9061 744.1351,-78.3022 736.7956,-70.6614 733.6327,-76.9061"/>
</g>
<!-- Node22&#45;&gt;Node10 -->
<g id="edge24" class="edge">
<title>Node22&#45;&gt;Node10</title>
<path fill="none" stroke="#191970" d="M583.35,-226.0905C590.9648,-216.6626 599.262,-206.3899 606.289,-197.6898"/>
<polygon fill="#191970" stroke="#191970" points="580.4434,-224.1188 576.8828,-234.0974 585.8891,-228.5172 580.4434,-224.1188"/>
</g>
<!-- Node22&#45;&gt;Node14 -->
<g id="edge25" class="edge">
<title>Node22&#45;&gt;Node14</title>
<path fill="none" stroke="#191970" d="M549.9962,-224.8712C541.1865,-202.787 526.2528,-173.6876 504,-156 498.9658,-151.9986 435.8689,-133.7419 383.1697,-118.953"/>
<polygon fill="#191970" stroke="#191970" points="546.8095,-226.3399 553.6172,-234.4582 553.358,-223.8665 546.8095,-226.3399"/>
</g>
<!-- Node23 -->
<g id="node20" class="node">
<title>Node23</title>
<g id="a_node20"><a xlink:href="Main__Player_8cpp.html" target="_top" xlink:title="/mnt/hdd/C0de/Engines\l/SFML/SFML_Engine/src\l/Main_Player.cpp">
<polygon fill="none" stroke="#000000" points="367.5,-156.5 367.5,-197.5 494.5,-197.5 494.5,-156.5 367.5,-156.5"/>
<text text-anchor="start" x="375.5" y="-185.5" font-family="Helvetica,sans-Serif" font-size="10.00" fill="#000000">/mnt/hdd/C0de/Engines</text>
<text text-anchor="start" x="375.5" y="-174.5" font-family="Helvetica,sans-Serif" font-size="10.00" fill="#000000">/SFML/SFML_Engine/src</text>
<text text-anchor="middle" x="431" y="-163.5" font-family="Helvetica,sans-Serif" font-size="10.00" fill="#000000">/Main_Player.cpp</text>
</a>
</g>
</g>
<!-- Node22&#45;&gt;Node23 -->
<g id="edge26" class="edge">
<title>Node22&#45;&gt;Node23</title>
<path fill="none" stroke="#191970" d="M517.1284,-229.0776C500.1552,-218.8148 480.9223,-207.1856 464.9433,-197.5239"/>
<polygon fill="#191970" stroke="#191970" points="515.4007,-232.123 525.769,-234.3022 519.0227,-226.1329 515.4007,-232.123"/>
</g>
<!-- Node28&#45;&gt;Node14 -->
<g id="edge43" class="edge">
<title>Node28&#45;&gt;Node14</title>
<path fill="none" stroke="#191970" d="M161.4429,-462.3665C150.6372,-453.9259 140.1514,-443.6973 133,-432 109.6303,-393.7748 114,-377.803 114,-333 114,-333 114,-333 114,-255 114,-203.5499 134.9857,-189.5409 174,-156 192.6555,-139.9617 216.4578,-127.9571 238.9706,-119.2087"/>
<polygon fill="#191970" stroke="#191970" points="159.5925,-465.3506 169.7186,-468.4673 163.7462,-459.7162 159.5925,-465.3506"/>
</g>
<!-- Node29 -->
<g id="node26" class="node">
<title>Node29</title>
<g id="a_node26"><a xlink:href="HUD_8cpp.html" target="_top" xlink:title="/mnt/hdd/C0de/Engines\l/SFML/SFML_Engine/src\l/HUD.cpp">
<polygon fill="none" stroke="#000000" points="142.5,-390.5 142.5,-431.5 269.5,-431.5 269.5,-390.5 142.5,-390.5"/>
<text text-anchor="start" x="150.5" y="-419.5" font-family="Helvetica,sans-Serif" font-size="10.00" fill="#000000">/mnt/hdd/C0de/Engines</text>
<text text-anchor="start" x="150.5" y="-408.5" font-family="Helvetica,sans-Serif" font-size="10.00" fill="#000000">/SFML/SFML_Engine/src</text>
<text text-anchor="middle" x="206" y="-397.5" font-family="Helvetica,sans-Serif" font-size="10.00" fill="#000000">/HUD.cpp</text>
</a>
</g>
</g>
<!-- Node28&#45;&gt;Node29 -->
<g id="edge44" class="edge">
<title>Node28&#45;&gt;Node29</title>
<path fill="none" stroke="#191970" d="M206,-458.0789C206,-449.2178 206,-439.7747 206,-431.6898"/>
<polygon fill="#191970" stroke="#191970" points="202.5001,-458.0974 206,-468.0974 209.5001,-458.0975 202.5001,-458.0974"/>
</g>
</g>
</svg>
        <g id="navigator" transform="translate(0 0)" fill="#404254">
                <rect fill="#f2f5e9" fill-opacity="0.5" stroke="#606060" stroke-width=".5" x="0" y="0" width="60" height="60"/>
                <use id="zoomplus" xlink:href="#zoomPlus" x="17" y="9" onmousedown="handleZoom(evt,'in')"/>
                <use id="zoomminus" xlink:href="#zoomMin" x="42" y="9" onmousedown="handleZoom(evt,'out')"/>
                <use id="reset" xlink:href="#resetDef" x="30" y="36" onmousedown="handleReset()"/>
                <g id="arrowUp" xlink:href="#dirArrow" transform="translate(30 24)" onmousedown="handlePan(0,-1)">
                  <use xlink:href="#rim" fill="#404040">
                        <set attributeName="fill" to="#808080" begin="arrowUp.mouseover" end="arrowUp.mouseout"/>
                  </use>
                  <path fill="none" stroke="white" stroke-width="1.5" d="M0,-3.0v7 M-2.5,-0.5L0,-3.0L2.5,-0.5"/>
                </g>
                <g id="arrowRight" xlink:href="#dirArrow" transform="rotate(90) translate(36 -43)" onmousedown="handlePan(1,0)">
                  <use xlink:href="#rim" fill="#404040">
                        <set attributeName="fill" to="#808080" begin="arrowRight.mouseover" end="arrowRight.mouseout"/>
                  </use>
                  <path fill="none" stroke="white" stroke-width="1.5" d="M0,-3.0v7 M-2.5,-0.5L0,-3.0L2.5,-0.5"/>
                </g>
                <g id="arrowDown" xlink:href="#dirArrow" transform="rotate(180) translate(-30 -48)" onmousedown="handlePan(0,1)">
                  <use xlink:href="#rim" fill="#404040">
                        <set attributeName="fill" to="#808080" begin="arrowDown.mouseover" end="arrowDown.mouseout"/>
                  </use>
                  <path fill="none" stroke="white" stroke-width="1.5" d="M0,-3.0v7 M-2.5,-0.5L0,-3.0L2.5,-0.5"/>
                </g>
                <g id="arrowLeft" xlink:href="#dirArrow" transform="rotate(270) translate(-36 17)" onmousedown="handlePan(-1,0)">
                  <use xlink:href="#rim" fill="#404040">
                        <set attributeName="fill" to="#808080" begin="arrowLeft.mouseover" end="arrowLeft.mouseout"/>
                  </use>
                  <path fill="none" stroke="white" stroke-width="1.5" d="M0,-3.0v7 M-2.5,-0.5L0,-3.0L2.5,-0.5"/>
                </g>
        </g>
        <svg viewBox="0 0 15 15" width="100%" height="30px" preserveAspectRatio="xMaxYMin meet">
         <g id="arrow_out" transform="scale(0.3 0.3)">
          <a xlink:href="StateMachine_8hpp__dep__incl_org.svg" target="_base">
           <rect id="button" ry="5" rx="5" y="6" x="6" height="38" width="38"
                fill="#f2f5e9" fill-opacity="0.5" stroke="#606060" stroke-width="1.0"/>
           <path id="arrow"
             d="M 11.500037,31.436501 C 11.940474,20.09759 22.043105,11.32322 32.158766,21.979434 L 37.068811,17.246167 C 37.068811,17.246167 37.088388,32 37.088388,32 L 22.160133,31.978069 C 22.160133,31.978069 26.997745,27.140456 26.997745,27.140456 C 18.528582,18.264221 13.291696,25.230495 11.500037,31.436501 z"
             style="fill:#404040;"/>
          </a>
         </g>
        </svg>
</svg>
