<?xml version="1.0" encoding="UTF-8" standalone="no"?>
<!DOCTYPE svg PUBLIC "-//W3C//DTD SVG 1.1//EN"
 "http://www.w3.org/Graphics/SVG/1.1/DTD/svg11.dtd">
<!-- Generated by graphviz version 2.40.1 (20161225.0304)
 -->
<!-- Title: MapLayer::Chunk Pages: 1 -->
<svg width="178pt" height="369pt"
 viewBox="0.00 0.00 177.50 369.00" xmlns="http://www.w3.org/2000/svg" xmlns:xlink="http://www.w3.org/1999/xlink">
<g id="graph0" class="graph" transform="scale(1 1) rotate(0) translate(4 365)">
<title>MapLayer::Chunk</title>
<!-- Node3 -->
<g id="node1" class="node">
<title>Node3</title>
<polygon fill="#bfbfbf" stroke="#000000" points="32.5,-.5 32.5,-266.5 154.5,-266.5 154.5,-.5 32.5,-.5"/>
<text text-anchor="middle" x="93.5" y="-254.5" font-family="Helvetica,sans-Serif" font-size="10.00" fill="#000000">MapLayer::Chunk</text>
<polyline fill="none" stroke="#000000" points="32.5,-247.5 154.5,-247.5 "/>
<text text-anchor="start" x="40.5" y="-235.5" font-family="Helvetica,sans-Serif" font-size="10.00" fill="#000000">&#45; layerOpacity</text>
<text text-anchor="start" x="40.5" y="-224.5" font-family="Helvetica,sans-Serif" font-size="10.00" fill="#000000">&#45; layerOffset</text>
<text text-anchor="start" x="40.5" y="-213.5" font-family="Helvetica,sans-Serif" font-size="10.00" fill="#000000">&#45; mapTileSize</text>
<text text-anchor="start" x="40.5" y="-202.5" font-family="Helvetica,sans-Serif" font-size="10.00" fill="#000000">&#45; chunkTileCount</text>
<text text-anchor="start" x="40.5" y="-191.5" font-family="Helvetica,sans-Serif" font-size="10.00" fill="#000000">&#45; m_chunkTileIDs</text>
<text text-anchor="start" x="40.5" y="-180.5" font-family="Helvetica,sans-Serif" font-size="10.00" fill="#000000">&#45; m_chunkColors</text>
<text text-anchor="start" x="40.5" y="-169.5" font-family="Helvetica,sans-Serif" font-size="10.00" fill="#000000">&#45; m_animTiles</text>
<text text-anchor="start" x="40.5" y="-158.5" font-family="Helvetica,sans-Serif" font-size="10.00" fill="#000000">&#45; m_activeAnimations</text>
<text text-anchor="start" x="40.5" y="-147.5" font-family="Helvetica,sans-Serif" font-size="10.00" fill="#000000">&#45; m_chunkArrays</text>
<polyline fill="none" stroke="#000000" points="32.5,-140.5 154.5,-140.5 "/>
<text text-anchor="start" x="40.5" y="-128.5" font-family="Helvetica,sans-Serif" font-size="10.00" fill="#000000">+ Chunk()</text>
<text text-anchor="start" x="40.5" y="-117.5" font-family="Helvetica,sans-Serif" font-size="10.00" fill="#000000">+ generateTiles()</text>
<text text-anchor="start" x="40.5" y="-106.5" font-family="Helvetica,sans-Serif" font-size="10.00" fill="#000000">+ ~Chunk()</text>
<text text-anchor="start" x="40.5" y="-95.5" font-family="Helvetica,sans-Serif" font-size="10.00" fill="#000000">+ Chunk()</text>
<text text-anchor="start" x="40.5" y="-84.5" font-family="Helvetica,sans-Serif" font-size="10.00" fill="#000000">+ operator=()</text>
<text text-anchor="start" x="40.5" y="-73.5" font-family="Helvetica,sans-Serif" font-size="10.00" fill="#000000">+ getActiveAnimations()</text>
<text text-anchor="start" x="40.5" y="-62.5" font-family="Helvetica,sans-Serif" font-size="10.00" fill="#000000">+ getTile()</text>
<text text-anchor="start" x="40.5" y="-51.5" font-family="Helvetica,sans-Serif" font-size="10.00" fill="#000000">+ setTile()</text>
<text text-anchor="start" x="40.5" y="-40.5" font-family="Helvetica,sans-Serif" font-size="10.00" fill="#000000">+ getColor()</text>
<text text-anchor="start" x="40.5" y="-29.5" font-family="Helvetica,sans-Serif" font-size="10.00" fill="#000000">+ setColor()</text>
<text text-anchor="start" x="40.5" y="-18.5" font-family="Helvetica,sans-Serif" font-size="10.00" fill="#000000">and 7 more...</text>
<text text-anchor="start" x="40.5" y="-7.5" font-family="Helvetica,sans-Serif" font-size="10.00" fill="#000000">&#45; draw()</text>
</g>
<!-- Node4 -->
<g id="node2" class="node">
<title>Node4</title>
<polygon fill="none" stroke="#bfbfbf" points="0,-303.5 0,-360.5 93,-360.5 93,-303.5 0,-303.5"/>
<text text-anchor="middle" x="46.5" y="-348.5" font-family="Helvetica,sans-Serif" font-size="10.00" fill="#000000">sf::Transformable</text>
<polyline fill="none" stroke="#bfbfbf" points="0,-341.5 93,-341.5 "/>
<text text-anchor="middle" x="46.5" y="-329.5" font-family="Helvetica,sans-Serif" font-size="10.00" fill="#000000"> </text>
<polyline fill="none" stroke="#bfbfbf" points="0,-322.5 93,-322.5 "/>
<text text-anchor="middle" x="46.5" y="-310.5" font-family="Helvetica,sans-Serif" font-size="10.00" fill="#000000"> </text>
</g>
<!-- Node4&#45;&gt;Node3 -->
<g id="edge1" class="edge">
<title>Node4&#45;&gt;Node3</title>
<path fill="none" stroke="#191970" d="M55.6601,-293.3132C57.5904,-285.1609 59.7296,-276.126 61.9804,-266.6202"/>
<polygon fill="none" stroke="#191970" points="52.2325,-292.599 53.3342,-303.1364 59.0442,-294.2119 52.2325,-292.599"/>
</g>
<!-- Node5 -->
<g id="node3" class="node">
<title>Node5</title>
<polygon fill="none" stroke="#bfbfbf" points="111.5,-303.5 111.5,-360.5 169.5,-360.5 169.5,-303.5 111.5,-303.5"/>
<text text-anchor="middle" x="140.5" y="-348.5" font-family="Helvetica,sans-Serif" font-size="10.00" fill="#000000">Drawable</text>
<polyline fill="none" stroke="#bfbfbf" points="111.5,-341.5 169.5,-341.5 "/>
<text text-anchor="middle" x="140.5" y="-329.5" font-family="Helvetica,sans-Serif" font-size="10.00" fill="#000000"> </text>
<polyline fill="none" stroke="#bfbfbf" points="111.5,-322.5 169.5,-322.5 "/>
<text text-anchor="middle" x="140.5" y="-310.5" font-family="Helvetica,sans-Serif" font-size="10.00" fill="#000000"> </text>
</g>
<!-- Node5&#45;&gt;Node3 -->
<g id="edge2" class="edge">
<title>Node5&#45;&gt;Node3</title>
<path fill="none" stroke="#191970" d="M131.3399,-293.3132C129.4096,-285.1609 127.2704,-276.126 125.0196,-266.6202"/>
<polygon fill="none" stroke="#191970" points="127.9558,-294.2119 133.6658,-303.1364 134.7675,-292.599 127.9558,-294.2119"/>
</g>
</g>
</svg>
