<?xml version="1.0" encoding="UTF-8" standalone="no"?>
<!DOCTYPE svg PUBLIC "-//W3C//DTD SVG 1.1//EN"
 "http://www.w3.org/Graphics/SVG/1.1/DTD/svg11.dtd">
<!-- Generated by graphviz version 2.40.1 (20161225.0304)
 -->
<!-- Title: Orthographic_camera Pages: 1 -->
<svg width="187pt" height="314pt"
 viewBox="0.00 0.00 187.00 314.00" xmlns="http://www.w3.org/2000/svg" xmlns:xlink="http://www.w3.org/1999/xlink">
<g id="graph0" class="graph" transform="scale(1 1) rotate(0) translate(4 310)">
<title>Orthographic_camera</title>
<!-- Node1 -->
<g id="node1" class="node">
<title>Node1</title>
<polygon fill="#bfbfbf" stroke="#000000" points="11,-.5 11,-167.5 145,-167.5 145,-.5 11,-.5"/>
<text text-anchor="middle" x="78" y="-155.5" font-family="Helvetica,sans-Serif" font-size="10.00" fill="#000000">Orthographic_camera</text>
<polyline fill="none" stroke="#000000" points="11,-148.5 145,-148.5 "/>
<text text-anchor="start" x="19" y="-136.5" font-family="Helvetica,sans-Serif" font-size="10.00" fill="#000000">&#45; m_scale</text>
<text text-anchor="start" x="19" y="-125.5" font-family="Helvetica,sans-Serif" font-size="10.00" fill="#000000">&#45; m_rotation</text>
<polyline fill="none" stroke="#000000" points="11,-118.5 145,-118.5 "/>
<text text-anchor="start" x="19" y="-106.5" font-family="Helvetica,sans-Serif" font-size="10.00" fill="#000000">+ Orthographic_camera()</text>
<text text-anchor="start" x="19" y="-95.5" font-family="Helvetica,sans-Serif" font-size="10.00" fill="#000000">+ ~Orthographic_camera()</text>
<text text-anchor="start" x="19" y="-84.5" font-family="Helvetica,sans-Serif" font-size="10.00" fill="#000000">+ GetPosition()</text>
<text text-anchor="start" x="19" y="-73.5" font-family="Helvetica,sans-Serif" font-size="10.00" fill="#000000">+ SetPosition()</text>
<text text-anchor="start" x="19" y="-62.5" font-family="Helvetica,sans-Serif" font-size="10.00" fill="#000000">+ GetRotation()</text>
<text text-anchor="start" x="19" y="-51.5" font-family="Helvetica,sans-Serif" font-size="10.00" fill="#000000">+ SetRotation()</text>
<text text-anchor="start" x="19" y="-40.5" font-family="Helvetica,sans-Serif" font-size="10.00" fill="#000000">+ GetScale()</text>
<text text-anchor="start" x="19" y="-29.5" font-family="Helvetica,sans-Serif" font-size="10.00" fill="#000000">+ SetScale()</text>
<text text-anchor="start" x="19" y="-18.5" font-family="Helvetica,sans-Serif" font-size="10.00" fill="#000000">+ return_matrix()</text>
<text text-anchor="start" x="19" y="-7.5" font-family="Helvetica,sans-Serif" font-size="10.00" fill="#000000">&#45; recalculate_view_matrix()</text>
</g>
<!-- Node2 -->
<g id="node2" class="node">
<title>Node2</title>
<polygon fill="none" stroke="#bfbfbf" points="0,-248.5 0,-305.5 38,-305.5 38,-248.5 0,-248.5"/>
<text text-anchor="middle" x="19" y="-293.5" font-family="Helvetica,sans-Serif" font-size="10.00" fill="#000000">mat4</text>
<polyline fill="none" stroke="#bfbfbf" points="0,-286.5 38,-286.5 "/>
<text text-anchor="middle" x="19" y="-274.5" font-family="Helvetica,sans-Serif" font-size="10.00" fill="#000000"> </text>
<polyline fill="none" stroke="#bfbfbf" points="0,-267.5 38,-267.5 "/>
<text text-anchor="middle" x="19" y="-255.5" font-family="Helvetica,sans-Serif" font-size="10.00" fill="#000000"> </text>
</g>
<!-- Node2&#45;&gt;Node1 -->
<g id="edge1" class="edge">
<title>Node2&#45;&gt;Node1</title>
<path fill="none" stroke="#404040" d="M15.6731,-248.2133C14.4608,-230.055 14.5165,-206.2853 20,-186 20.618,-183.7139 21.2994,-181.4251 22.0373,-179.1386"/>
<polygon fill="none" stroke="#404040" points="22.0766,-179.0299 20.3598,-172.0262 26.1645,-167.7476 27.8813,-174.7514 22.0766,-179.0299"/>
<text text-anchor="middle" x="68" y="-222" font-family="Helvetica,sans-Serif" font-size="10.00" fill="#000000"> &#45;m_Projection_matrix</text>
<text text-anchor="middle" x="68" y="-211" font-family="Helvetica,sans-Serif" font-size="10.00" fill="#000000">&#45;m_View_matrix</text>
<text text-anchor="start" x="20" y="-200" font-family="Helvetica,sans-Serif" font-size="10.00" fill="#000000">&#45;m_View_Projection</text>
<text text-anchor="middle" x="68" y="-189" font-family="Helvetica,sans-Serif" font-size="10.00" fill="#000000">_matrix</text>
</g>
<!-- Node3 -->
<g id="node3" class="node">
<title>Node3</title>
<polygon fill="none" stroke="#bfbfbf" points="119,-248.5 119,-305.5 157,-305.5 157,-248.5 119,-248.5"/>
<text text-anchor="middle" x="138" y="-293.5" font-family="Helvetica,sans-Serif" font-size="10.00" fill="#000000">vec3</text>
<polyline fill="none" stroke="#bfbfbf" points="119,-286.5 157,-286.5 "/>
<text text-anchor="middle" x="138" y="-274.5" font-family="Helvetica,sans-Serif" font-size="10.00" fill="#000000"> </text>
<polyline fill="none" stroke="#bfbfbf" points="119,-267.5 157,-267.5 "/>
<text text-anchor="middle" x="138" y="-255.5" font-family="Helvetica,sans-Serif" font-size="10.00" fill="#000000"> </text>
</g>
<!-- Node3&#45;&gt;Node1 -->
<g id="edge2" class="edge">
<title>Node3&#45;&gt;Node1</title>
<path fill="none" stroke="#404040" d="M132.0243,-248.4808C128.0157,-230.4262 122.3246,-206.6716 116,-186 115.3158,-183.7638 114.609,-181.5054 113.8833,-179.2323"/>
<polygon fill="none" stroke="#404040" points="113.865,-179.1765 108.1904,-174.7269 110.1152,-167.7774 115.7898,-172.227 113.865,-179.1765"/>
<text text-anchor="middle" x="153" y="-205.5" font-family="Helvetica,sans-Serif" font-size="10.00" fill="#000000"> &#45;m_positon</text>
</g>
</g>
</svg>
