<?xml version="1.0" encoding="UTF-8" standalone="no"?>
<!DOCTYPE svg PUBLIC "-//W3C//DTD SVG 1.1//EN"
 "http://www.w3.org/Graphics/SVG/1.1/DTD/svg11.dtd">
<!-- Generated by graphviz version 2.40.1 (20161225.0304)
 -->
<!-- Title: Line Pages: 1 -->
<svg width="212pt" height="259pt"
 viewBox="0.00 0.00 212.00 259.00" xmlns="http://www.w3.org/2000/svg" xmlns:xlink="http://www.w3.org/1999/xlink">
<g id="graph0" class="graph" transform="scale(1 1) rotate(0) translate(4 255)">
<title>Line</title>
<!-- Node1 -->
<g id="node1" class="node">
<title>Node1</title>
<polygon fill="#bfbfbf" stroke="#000000" points="51.5,-.5 51.5,-123.5 140.5,-123.5 140.5,-.5 51.5,-.5"/>
<text text-anchor="middle" x="96" y="-111.5" font-family="Helvetica,sans-Serif" font-size="10.00" fill="#000000">Line</text>
<polyline fill="none" stroke="#000000" points="51.5,-104.5 140.5,-104.5 "/>
<text text-anchor="start" x="59.5" y="-92.5" font-family="Helvetica,sans-Serif" font-size="10.00" fill="#000000">&#45; shaderProgram</text>
<text text-anchor="start" x="59.5" y="-81.5" font-family="Helvetica,sans-Serif" font-size="10.00" fill="#000000">&#45; VBO</text>
<text text-anchor="start" x="59.5" y="-70.5" font-family="Helvetica,sans-Serif" font-size="10.00" fill="#000000">&#45; VAO</text>
<polyline fill="none" stroke="#000000" points="51.5,-63.5 140.5,-63.5 "/>
<text text-anchor="start" x="59.5" y="-51.5" font-family="Helvetica,sans-Serif" font-size="10.00" fill="#000000">+ Line()</text>
<text text-anchor="start" x="59.5" y="-40.5" font-family="Helvetica,sans-Serif" font-size="10.00" fill="#000000">+ setMVP()</text>
<text text-anchor="start" x="59.5" y="-29.5" font-family="Helvetica,sans-Serif" font-size="10.00" fill="#000000">+ setColor()</text>
<text text-anchor="start" x="59.5" y="-18.5" font-family="Helvetica,sans-Serif" font-size="10.00" fill="#000000">+ draw()</text>
<text text-anchor="start" x="59.5" y="-7.5" font-family="Helvetica,sans-Serif" font-size="10.00" fill="#000000">+ ~Line()</text>
</g>
<!-- Node2 -->
<g id="node2" class="node">
<title>Node2</title>
<polygon fill="none" stroke="#bfbfbf" points="0,-193.5 0,-250.5 38,-250.5 38,-193.5 0,-193.5"/>
<text text-anchor="middle" x="19" y="-238.5" font-family="Helvetica,sans-Serif" font-size="10.00" fill="#000000">mat4</text>
<polyline fill="none" stroke="#bfbfbf" points="0,-231.5 38,-231.5 "/>
<text text-anchor="middle" x="19" y="-219.5" font-family="Helvetica,sans-Serif" font-size="10.00" fill="#000000"> </text>
<polyline fill="none" stroke="#bfbfbf" points="0,-212.5 38,-212.5 "/>
<text text-anchor="middle" x="19" y="-200.5" font-family="Helvetica,sans-Serif" font-size="10.00" fill="#000000"> </text>
</g>
<!-- Node2&#45;&gt;Node1 -->
<g id="edge1" class="edge">
<title>Node2&#45;&gt;Node1</title>
<path fill="none" stroke="#404040" d="M32.7661,-193.3952C40.7228,-176.8618 51.1237,-155.2495 61.1857,-134.3414"/>
<polygon fill="none" stroke="#404040" points="61.198,-134.3156 60.1956,-127.1745 66.4019,-123.5026 67.4043,-130.6437 61.198,-134.3156"/>
<text text-anchor="middle" x="72" y="-156" font-family="Helvetica,sans-Serif" font-size="10.00" fill="#000000"> &#45;MVP</text>
</g>
<!-- Node3 -->
<g id="node3" class="node">
<title>Node3</title>
<polygon fill="none" stroke="#bfbfbf" points="56,-193.5 56,-250.5 136,-250.5 136,-193.5 56,-193.5"/>
<text text-anchor="middle" x="96" y="-238.5" font-family="Helvetica,sans-Serif" font-size="10.00" fill="#000000">vector&lt; float &gt;</text>
<polyline fill="none" stroke="#bfbfbf" points="56,-231.5 136,-231.5 "/>
<text text-anchor="middle" x="96" y="-219.5" font-family="Helvetica,sans-Serif" font-size="10.00" fill="#000000"> </text>
<polyline fill="none" stroke="#bfbfbf" points="56,-212.5 136,-212.5 "/>
<text text-anchor="middle" x="96" y="-200.5" font-family="Helvetica,sans-Serif" font-size="10.00" fill="#000000"> </text>
</g>
<!-- Node3&#45;&gt;Node1 -->
<g id="edge2" class="edge">
<title>Node3&#45;&gt;Node1</title>
<path fill="none" stroke="#404040" d="M96,-193.3952C96,-177.241 96,-156.2382 96,-135.7811"/>
<polygon fill="none" stroke="#404040" points="96.0001,-135.5026 92,-129.5027 96,-123.5026 100,-129.5026 96.0001,-135.5026"/>
<text text-anchor="middle" x="116.5" y="-156" font-family="Helvetica,sans-Serif" font-size="10.00" fill="#000000"> &#45;vertices</text>
</g>
<!-- Node4 -->
<g id="node4" class="node">
<title>Node4</title>
<polygon fill="none" stroke="#bfbfbf" points="154,-193.5 154,-250.5 192,-250.5 192,-193.5 154,-193.5"/>
<text text-anchor="middle" x="173" y="-238.5" font-family="Helvetica,sans-Serif" font-size="10.00" fill="#000000">vec3</text>
<polyline fill="none" stroke="#bfbfbf" points="154,-231.5 192,-231.5 "/>
<text text-anchor="middle" x="173" y="-219.5" font-family="Helvetica,sans-Serif" font-size="10.00" fill="#000000"> </text>
<polyline fill="none" stroke="#bfbfbf" points="154,-212.5 192,-212.5 "/>
<text text-anchor="middle" x="173" y="-200.5" font-family="Helvetica,sans-Serif" font-size="10.00" fill="#000000"> </text>
</g>
<!-- Node4&#45;&gt;Node1 -->
<g id="edge3" class="edge">
<title>Node4&#45;&gt;Node1</title>
<path fill="none" stroke="#404040" d="M162.6381,-193.4703C156.7668,-178.0232 149.0088,-158.7309 141,-142 139.7809,-139.4532 138.515,-136.8757 137.2145,-134.2839"/>
<polygon fill="none" stroke="#404040" points="137.2015,-134.2586 130.8978,-130.7568 131.7057,-123.5911 138.0095,-127.0929 137.2015,-134.2586"/>
<text text-anchor="middle" x="179.5" y="-167" font-family="Helvetica,sans-Serif" font-size="10.00" fill="#000000"> &#45;startPoint</text>
<text text-anchor="middle" x="179.5" y="-156" font-family="Helvetica,sans-Serif" font-size="10.00" fill="#000000">&#45;lineColor</text>
<text text-anchor="middle" x="179.5" y="-145" font-family="Helvetica,sans-Serif" font-size="10.00" fill="#000000">&#45;endPoint</text>
</g>
</g>
</svg>
