<?xml version="1.0" encoding="UTF-8" standalone="no"?>
<!DOCTYPE svg PUBLIC "-//W3C//DTD SVG 1.1//EN"
 "http://www.w3.org/Graphics/SVG/1.1/DTD/svg11.dtd">
<!-- Generated by graphviz version 2.40.1 (20161225.0304)
 -->
<!-- Title: GamePlayState Pages: 1 -->
<svg width="174pt" height="358pt"
 viewBox="0.00 0.00 173.50 358.00" xmlns="http://www.w3.org/2000/svg" xmlns:xlink="http://www.w3.org/1999/xlink">
<g id="graph0" class="graph" transform="scale(1 1) rotate(0) translate(4 354)">
<title>GamePlayState</title>
<!-- Node2 -->
<g id="node1" class="node">
<title>Node2</title>
<polygon fill="#bfbfbf" stroke="#000000" points="27.5,-.5 27.5,-200.5 131.5,-200.5 131.5,-.5 27.5,-.5"/>
<text text-anchor="middle" x="79.5" y="-188.5" font-family="Helvetica,sans-Serif" font-size="10.00" fill="#000000">GamePlayState</text>
<polyline fill="none" stroke="#000000" points="27.5,-181.5 131.5,-181.5 "/>
<text text-anchor="start" x="35.5" y="-169.5" font-family="Helvetica,sans-Serif" font-size="10.00" fill="#000000">&#45; _data</text>
<text text-anchor="start" x="35.5" y="-158.5" font-family="Helvetica,sans-Serif" font-size="10.00" fill="#000000">&#45; x</text>
<text text-anchor="start" x="35.5" y="-147.5" font-family="Helvetica,sans-Serif" font-size="10.00" fill="#000000">&#45; y</text>
<text text-anchor="start" x="35.5" y="-136.5" font-family="Helvetica,sans-Serif" font-size="10.00" fill="#000000">&#45; x_cam</text>
<text text-anchor="start" x="35.5" y="-125.5" font-family="Helvetica,sans-Serif" font-size="10.00" fill="#000000">&#45; y_cam</text>
<text text-anchor="start" x="35.5" y="-114.5" font-family="Helvetica,sans-Serif" font-size="10.00" fill="#000000">&#45; z_cam</text>
<text text-anchor="start" x="35.5" y="-103.5" font-family="Helvetica,sans-Serif" font-size="10.00" fill="#000000">&#45; r_cam</text>
<text text-anchor="start" x="35.5" y="-92.5" font-family="Helvetica,sans-Serif" font-size="10.00" fill="#000000">&#45; z_scale</text>
<polyline fill="none" stroke="#000000" points="27.5,-85.5 131.5,-85.5 "/>
<text text-anchor="start" x="35.5" y="-73.5" font-family="Helvetica,sans-Serif" font-size="10.00" fill="#000000">+ GamePlayState()</text>
<text text-anchor="start" x="35.5" y="-62.5" font-family="Helvetica,sans-Serif" font-size="10.00" fill="#000000">+ Init()</text>
<text text-anchor="start" x="35.5" y="-51.5" font-family="Helvetica,sans-Serif" font-size="10.00" fill="#000000">+ Input()</text>
<text text-anchor="start" x="35.5" y="-40.5" font-family="Helvetica,sans-Serif" font-size="10.00" fill="#000000">+ Update()</text>
<text text-anchor="start" x="35.5" y="-29.5" font-family="Helvetica,sans-Serif" font-size="10.00" fill="#000000">+ Render()</text>
<text text-anchor="start" x="35.5" y="-18.5" font-family="Helvetica,sans-Serif" font-size="10.00" fill="#000000">+ DeleteData()</text>
<text text-anchor="start" x="35.5" y="-7.5" font-family="Helvetica,sans-Serif" font-size="10.00" fill="#000000">&#45; ~GamePlayState()</text>
</g>
<!-- Node3 -->
<g id="node2" class="node">
<title>Node3</title>
<g id="a_node2"><a xlink:href="classState.html" target="_top" xlink:title="{State\n||+ Init()\l+ Input()\l+ Update()\l+ Render()\l+ DeleteData()\l}">
<polygon fill="none" stroke="#000000" points="0,-248.5 0,-349.5 81,-349.5 81,-248.5 0,-248.5"/>
<text text-anchor="middle" x="40.5" y="-337.5" font-family="Helvetica,sans-Serif" font-size="10.00" fill="#000000">State</text>
<polyline fill="none" stroke="#000000" points="0,-330.5 81,-330.5 "/>
<text text-anchor="middle" x="40.5" y="-318.5" font-family="Helvetica,sans-Serif" font-size="10.00" fill="#000000"> </text>
<polyline fill="none" stroke="#000000" points="0,-311.5 81,-311.5 "/>
<text text-anchor="start" x="8" y="-299.5" font-family="Helvetica,sans-Serif" font-size="10.00" fill="#000000">+ Init()</text>
<text text-anchor="start" x="8" y="-288.5" font-family="Helvetica,sans-Serif" font-size="10.00" fill="#000000">+ Input()</text>
<text text-anchor="start" x="8" y="-277.5" font-family="Helvetica,sans-Serif" font-size="10.00" fill="#000000">+ Update()</text>
<text text-anchor="start" x="8" y="-266.5" font-family="Helvetica,sans-Serif" font-size="10.00" fill="#000000">+ Render()</text>
<text text-anchor="start" x="8" y="-255.5" font-family="Helvetica,sans-Serif" font-size="10.00" fill="#000000">+ DeleteData()</text>
</a>
</g>
</g>
<!-- Node3&#45;&gt;Node2 -->
<g id="edge1" class="edge">
<title>Node3&#45;&gt;Node2</title>
<path fill="none" stroke="#191970" d="M52.3719,-238.5749C54.7228,-226.6096 57.2493,-213.7506 59.7806,-200.8665"/>
<polygon fill="none" stroke="#191970" points="48.9359,-237.9093 50.4423,-248.3965 55.8046,-239.2588 48.9359,-237.9093"/>
</g>
<!-- Node4 -->
<g id="node3" class="node">
<title>Node4</title>
<polygon fill="none" stroke="#bfbfbf" points="99.5,-270.5 99.5,-327.5 137.5,-327.5 137.5,-270.5 99.5,-270.5"/>
<text text-anchor="middle" x="118.5" y="-315.5" font-family="Helvetica,sans-Serif" font-size="10.00" fill="#000000">mat4</text>
<polyline fill="none" stroke="#bfbfbf" points="99.5,-308.5 137.5,-308.5 "/>
<text text-anchor="middle" x="118.5" y="-296.5" font-family="Helvetica,sans-Serif" font-size="10.00" fill="#000000"> </text>
<polyline fill="none" stroke="#bfbfbf" points="99.5,-289.5 137.5,-289.5 "/>
<text text-anchor="middle" x="118.5" y="-277.5" font-family="Helvetica,sans-Serif" font-size="10.00" fill="#000000"> </text>
</g>
<!-- Node4&#45;&gt;Node2 -->
<g id="edge2" class="edge">
<title>Node4&#45;&gt;Node2</title>
<path fill="none" stroke="#404040" d="M112.8291,-270.1364C109.7453,-254.4409 105.7109,-233.9069 101.5186,-212.569"/>
<polygon fill="none" stroke="#404040" points="101.4918,-212.4324 96.4101,-207.3161 99.1783,-200.6575 104.26,-205.7738 101.4918,-212.4324"/>
<text text-anchor="middle" x="135" y="-222" font-family="Helvetica,sans-Serif" font-size="10.00" fill="#000000"> &#45;temp_matrix</text>
</g>
</g>
</svg>
