<?xml version="1.0" encoding="UTF-8" standalone="no"?>
<!DOCTYPE svg PUBLIC "-//W3C//DTD SVG 1.1//EN"
 "http://www.w3.org/Graphics/SVG/1.1/DTD/svg11.dtd">
<!-- Generated by graphviz version 2.40.1 (20161225.0304)
 -->
<!-- Title: /mnt/hdd/C0de/smart_engine/include/entity.h Pages: 1 -->
<svg width="525pt" height="207pt"
 viewBox="0.00 0.00 525.00 207.00" xmlns="http://www.w3.org/2000/svg" xmlns:xlink="http://www.w3.org/1999/xlink">
<g id="graph0" class="graph" transform="scale(1 1) rotate(0) translate(4 203)">
<title>/mnt/hdd/C0de/smart_engine/include/entity.h</title>
<!-- Node0 -->
<g id="node1" class="node">
<title>Node0</title>
<polygon fill="#bfbfbf" stroke="#000000" points="241.5,-168.5 241.5,-198.5 360.5,-198.5 360.5,-168.5 241.5,-168.5"/>
<text text-anchor="start" x="249.5" y="-186.5" font-family="Helvetica,sans-Serif" font-size="10.00" fill="#000000">/mnt/hdd/C0de/smart</text>
<text text-anchor="middle" x="301" y="-175.5" font-family="Helvetica,sans-Serif" font-size="10.00" fill="#000000">_engine/include/entity.h</text>
</g>
<!-- Node1 -->
<g id="node2" class="node">
<title>Node1</title>
<g id="a_node2"><a xlink:href="texture_8h.html" target="_top" xlink:title="texture.h">
<polygon fill="none" stroke="#000000" points="19.5,-56.5 19.5,-75.5 74.5,-75.5 74.5,-56.5 19.5,-56.5"/>
<text text-anchor="middle" x="47" y="-63.5" font-family="Helvetica,sans-Serif" font-size="10.00" fill="#000000">texture.h</text>
</a>
</g>
</g>
<!-- Node0&#45;&gt;Node1 -->
<g id="edge1" class="edge">
<title>Node0&#45;&gt;Node1</title>
<path fill="none" stroke="#191970" d="M241.4921,-173.1558C189.8089,-163.3486 119.6451,-147.8024 96,-132 78.2857,-120.1612 64.5676,-99.6836 56.2094,-84.6699"/>
<polygon fill="#191970" stroke="#191970" points="59.2612,-82.9535 51.5027,-75.7384 53.0684,-86.2169 59.2612,-82.9535"/>
</g>
<!-- Node3 -->
<g id="node4" class="node">
<title>Node3</title>
<polygon fill="none" stroke="#bfbfbf" points="295,-112.5 295,-131.5 375,-131.5 375,-112.5 295,-112.5"/>
<text text-anchor="middle" x="335" y="-119.5" font-family="Helvetica,sans-Serif" font-size="10.00" fill="#000000">box2d/box2d.h</text>
</g>
<!-- Node0&#45;&gt;Node3 -->
<g id="edge3" class="edge">
<title>Node0&#45;&gt;Node3</title>
<path fill="none" stroke="#191970" d="M309.4045,-168.2977C314.0257,-159.9388 319.7969,-149.4997 324.6889,-140.6509"/>
<polygon fill="#191970" stroke="#191970" points="327.7809,-142.292 329.5562,-131.8469 321.6548,-138.9051 327.7809,-142.292"/>
</g>
<!-- Node4 -->
<g id="node5" class="node">
<title>Node4</title>
<polygon fill="none" stroke="#bfbfbf" points="393,-112.5 393,-131.5 447,-131.5 447,-112.5 393,-112.5"/>
<text text-anchor="middle" x="420" y="-119.5" font-family="Helvetica,sans-Serif" font-size="10.00" fill="#000000">iostream</text>
</g>
<!-- Node0&#45;&gt;Node4 -->
<g id="edge4" class="edge">
<title>Node0&#45;&gt;Node4</title>
<path fill="none" stroke="#191970" d="M330.1107,-168.4554C349.1824,-158.599 373.9482,-145.7999 392.6539,-136.1327"/>
<polygon fill="#191970" stroke="#191970" points="394.2824,-139.2309 401.5592,-131.5303 391.0685,-133.0122 394.2824,-139.2309"/>
</g>
<!-- Node5 -->
<g id="node6" class="node">
<title>Node5</title>
<polygon fill="none" stroke="#bfbfbf" points="465,-112.5 465,-131.5 517,-131.5 517,-112.5 465,-112.5"/>
<text text-anchor="middle" x="491" y="-119.5" font-family="Helvetica,sans-Serif" font-size="10.00" fill="#000000">memory</text>
</g>
<!-- Node0&#45;&gt;Node5 -->
<g id="edge5" class="edge">
<title>Node0&#45;&gt;Node5</title>
<path fill="none" stroke="#191970" d="M347.4792,-168.4554C380.6438,-157.7206 424.5925,-143.4951 455.0798,-133.6268"/>
<polygon fill="#191970" stroke="#191970" points="456.4317,-136.8681 464.8679,-130.4586 454.276,-130.2082 456.4317,-136.8681"/>
</g>
<!-- Node6 -->
<g id="node7" class="node">
<title>Node6</title>
<g id="a_node7"><a xlink:href="resource__manager_8h.html" target="_top" xlink:title="resource_manager.h">
<polygon fill="none" stroke="#000000" points="105.5,-112.5 105.5,-131.5 210.5,-131.5 210.5,-112.5 105.5,-112.5"/>
<text text-anchor="middle" x="158" y="-119.5" font-family="Helvetica,sans-Serif" font-size="10.00" fill="#000000">resource_manager.h</text>
</a>
</g>
</g>
<!-- Node0&#45;&gt;Node6 -->
<g id="edge6" class="edge">
<title>Node0&#45;&gt;Node6</title>
<path fill="none" stroke="#191970" d="M266.0183,-168.4554C242.6816,-158.419 212.2502,-145.3314 189.637,-135.6061"/>
<polygon fill="#191970" stroke="#191970" points="190.7292,-132.2659 180.1599,-131.5303 187.9636,-138.6965 190.7292,-132.2659"/>
</g>
<!-- Node10 -->
<g id="node11" class="node">
<title>Node10</title>
<polygon fill="none" stroke="#bfbfbf" points="266,-.5 266,-19.5 336,-19.5 336,-.5 266,-.5"/>
<text text-anchor="middle" x="301" y="-7.5" font-family="Helvetica,sans-Serif" font-size="10.00" fill="#000000">glm/glm.hpp</text>
</g>
<!-- Node0&#45;&gt;Node10 -->
<g id="edge15" class="edge">
<title>Node0&#45;&gt;Node10</title>
<path fill="none" stroke="#191970" d="M295.3813,-168.4257C291.9104,-158.2891 287.7888,-144.538 286,-132 280.8249,-95.7258 289.3397,-53.2281 295.5084,-29.1736"/>
<polygon fill="#191970" stroke="#191970" points="298.8904,-30.0747 298.12,-19.5079 292.1327,-28.2488 298.8904,-30.0747"/>
</g>
<!-- Node2 -->
<g id="node3" class="node">
<title>Node2</title>
<polygon fill="none" stroke="#bfbfbf" points="0,-.5 0,-19.5 64,-19.5 64,-.5 0,-.5"/>
<text text-anchor="middle" x="32" y="-7.5" font-family="Helvetica,sans-Serif" font-size="10.00" fill="#000000">glad/glad.h</text>
</g>
<!-- Node1&#45;&gt;Node2 -->
<g id="edge2" class="edge">
<title>Node1&#45;&gt;Node2</title>
<path fill="none" stroke="#191970" d="M44.3872,-56.2455C42.4084,-48.8579 39.6256,-38.4689 37.1988,-29.4087"/>
<polygon fill="#191970" stroke="#191970" points="40.5511,-28.3966 34.5829,-19.6427 33.7895,-30.2078 40.5511,-28.3966"/>
</g>
<!-- Node6&#45;&gt;Node1 -->
<g id="edge9" class="edge">
<title>Node6&#45;&gt;Node1</title>
<path fill="none" stroke="#191970" d="M138.9184,-112.3733C121.2598,-103.4644 94.7947,-90.1127 74.7902,-80.0203"/>
<polygon fill="#191970" stroke="#191970" points="76.3372,-76.8806 65.8326,-75.5011 73.1842,-83.1303 76.3372,-76.8806"/>
</g>
<!-- Node7 -->
<g id="node8" class="node">
<title>Node7</title>
<polygon fill="none" stroke="#bfbfbf" points="203.5,-56.5 203.5,-75.5 238.5,-75.5 238.5,-56.5 203.5,-56.5"/>
<text text-anchor="middle" x="221" y="-63.5" font-family="Helvetica,sans-Serif" font-size="10.00" fill="#000000">map</text>
</g>
<!-- Node6&#45;&gt;Node7 -->
<g id="edge7" class="edge">
<title>Node6&#45;&gt;Node7</title>
<path fill="none" stroke="#191970" d="M168.9738,-112.2455C178.1882,-104.0549 191.5532,-92.1749 202.4297,-82.5069"/>
<polygon fill="#191970" stroke="#191970" points="205.0032,-84.9023 210.152,-75.6427 200.3526,-79.6704 205.0032,-84.9023"/>
</g>
<!-- Node8 -->
<g id="node9" class="node">
<title>Node8</title>
<polygon fill="none" stroke="#bfbfbf" points="82.5,-.5 82.5,-19.5 123.5,-19.5 123.5,-.5 82.5,-.5"/>
<text text-anchor="middle" x="103" y="-7.5" font-family="Helvetica,sans-Serif" font-size="10.00" fill="#000000">string</text>
</g>
<!-- Node6&#45;&gt;Node8 -->
<g id="edge8" class="edge">
<title>Node6&#45;&gt;Node8</title>
<path fill="none" stroke="#191970" d="M148.4743,-112.1898C140.3877,-103.3706 129.0108,-89.7278 122,-76 114.5432,-61.3988 109.6153,-43.4424 106.651,-29.9473"/>
<polygon fill="#191970" stroke="#191970" points="110.0189,-28.9425 104.6104,-19.8322 103.1572,-30.3269 110.0189,-28.9425"/>
</g>
<!-- Node9 -->
<g id="node10" class="node">
<title>Node9</title>
<g id="a_node10"><a xlink:href="shader_8h.html" target="_top" xlink:title="shader.h">
<polygon fill="none" stroke="#000000" points="131,-56.5 131,-75.5 185,-75.5 185,-56.5 131,-56.5"/>
<text text-anchor="middle" x="158" y="-63.5" font-family="Helvetica,sans-Serif" font-size="10.00" fill="#000000">shader.h</text>
</a>
</g>
</g>
<!-- Node6&#45;&gt;Node9 -->
<g id="edge10" class="edge">
<title>Node6&#45;&gt;Node9</title>
<path fill="none" stroke="#191970" d="M158,-112.2455C158,-104.9382 158,-94.6944 158,-85.7046"/>
<polygon fill="#191970" stroke="#191970" points="161.5001,-85.6426 158,-75.6427 154.5001,-85.6427 161.5001,-85.6426"/>
</g>
<!-- Node9&#45;&gt;Node2 -->
<g id="edge12" class="edge">
<title>Node9&#45;&gt;Node2</title>
<path fill="none" stroke="#191970" d="M136.3398,-56.3733C116.0228,-47.3435 85.436,-33.7494 62.625,-23.6111"/>
<polygon fill="#191970" stroke="#191970" points="63.9372,-20.3642 53.3775,-19.5011 61.0941,-26.7609 63.9372,-20.3642"/>
</g>
<!-- Node9&#45;&gt;Node8 -->
<g id="edge11" class="edge">
<title>Node9&#45;&gt;Node8</title>
<path fill="none" stroke="#191970" d="M148.4197,-56.2455C140.4542,-48.1352 128.9359,-36.4075 119.4921,-26.7919"/>
<polygon fill="#191970" stroke="#191970" points="121.9747,-24.3247 112.4705,-19.6427 116.9805,-29.2297 121.9747,-24.3247"/>
</g>
<!-- Node9&#45;&gt;Node10 -->
<g id="edge13" class="edge">
<title>Node9&#45;&gt;Node10</title>
<path fill="none" stroke="#191970" d="M182.5826,-56.3733C205.9496,-47.2226 241.2862,-33.3844 267.2784,-23.2057"/>
<polygon fill="#191970" stroke="#191970" points="268.703,-26.4066 276.7382,-19.5011 266.1505,-19.8886 268.703,-26.4066"/>
</g>
<!-- Node11 -->
<g id="node12" class="node">
<title>Node11</title>
<polygon fill="none" stroke="#bfbfbf" points="142,-.5 142,-19.5 248,-19.5 248,-.5 142,-.5"/>
<text text-anchor="middle" x="195" y="-7.5" font-family="Helvetica,sans-Serif" font-size="10.00" fill="#000000">glm/gtc/type_ptr.hpp</text>
</g>
<!-- Node9&#45;&gt;Node11 -->
<g id="edge14" class="edge">
<title>Node9&#45;&gt;Node11</title>
<path fill="none" stroke="#191970" d="M164.4449,-56.2455C169.5382,-48.5367 176.7908,-37.5598 182.952,-28.2348"/>
<polygon fill="#191970" stroke="#191970" points="186.0365,-29.9155 188.6289,-19.6427 180.1962,-26.0566 186.0365,-29.9155"/>
</g>
</g>
</svg>
