<?xml version="1.0" encoding="UTF-8" standalone="no"?>
<!DOCTYPE svg PUBLIC "-//W3C//DTD SVG 1.1//EN"
 "http://www.w3.org/Graphics/SVG/1.1/DTD/svg11.dtd">
<!-- Generated by graphviz version 2.40.1 (20161225.0304)
 -->
<!-- Title: /mnt/hdd/C0de/smart_engine/src/entity.cpp Pages: 1 -->
<!--zoomable 263 -->
<svg id="main" version="1.1" xmlns="http://www.w3.org/2000/svg" xmlns:xlink="http://www.w3.org/1999/xlink" xml:space="preserve" onload="init(evt)">
<style type="text/css"><![CDATA[
.edge:hover path { stroke: red; }
.edge:hover polygon { stroke: red; fill: red; }
]]></style>
<script type="text/javascript"><![CDATA[
var edges = document.getElementsByTagName('g');
if (edges && edges.length) {
  for (var i=0;i<edges.length;i++) {
    if (edges[i].id.substr(0,4)=='edge') {
      edges[i].setAttribute('class','edge');
    }
  }
}
]]></script>
        <defs>
                <circle id="rim" cx="0" cy="0" r="7"/>
                <circle id="rim2" cx="0" cy="0" r="3.5"/>
                <g id="zoomPlus">
                        <use xlink:href="#rim" fill="#404040">
                                <set attributeName="fill" to="#808080" begin="zoomplus.mouseover" end="zoomplus.mouseout"/>
                        </use>
                        <path d="M-4,0h8M0,-4v8" fill="none" stroke="white" stroke-width="1.5" pointer-events="none"/>
                </g>
                <g id="zoomMin">
                        <use xlink:href="#rim" fill="#404040">
                                <set attributeName="fill" to="#808080" begin="zoomminus.mouseover" end="zoomminus.mouseout"/>
                        </use>
                        <path d="M-4,0h8" fill="none" stroke="white" stroke-width="1.5" pointer-events="none"/>
                </g>
                <g id="dirArrow">
                        <path fill="none" stroke="white" stroke-width="1.5" d="M0,-3.0v7 M-2.5,-0.5L0,-3.0L2.5,-0.5"/>
                </g>
               <g id="resetDef">
                       <use xlink:href="#rim2" fill="#404040">
                               <set attributeName="fill" to="#808080" begin="reset.mouseover" end="reset.mouseout"/>
                       </use>
               </g>
        </defs>

<script type="text/javascript">
var viewWidth = 525;
var viewHeight = 263;
var sectionId = 'dynsection-0';
</script>
<script xlink:href="svgpan.js"/>
<svg id="graph" class="graph">
<g id="viewport">
<title>/mnt/hdd/C0de/smart_engine/src/entity.cpp</title>
<!-- Node0 -->
<g id="node1" class="node">
<title>Node0</title>
<polygon fill="#bfbfbf" stroke="#000000" points="244.5,-224.5 244.5,-254.5 357.5,-254.5 357.5,-224.5 244.5,-224.5"/>
<text text-anchor="start" x="252.5" y="-242.5" font-family="Helvetica,sans-Serif" font-size="10.00" fill="#000000">/mnt/hdd/C0de/smart</text>
<text text-anchor="middle" x="301" y="-231.5" font-family="Helvetica,sans-Serif" font-size="10.00" fill="#000000">_engine/src/entity.cpp</text>
</g>
<!-- Node1 -->
<g id="node2" class="node">
<title>Node1</title>
<g id="a_node2"><a xlink:href="entity_8h.html" target="_top" xlink:title="../include/entity.h">
<polygon fill="none" stroke="#000000" points="255,-168.5 255,-187.5 347,-187.5 347,-168.5 255,-168.5"/>
<text text-anchor="middle" x="301" y="-175.5" font-family="Helvetica,sans-Serif" font-size="10.00" fill="#000000">../include/entity.h</text>
</a>
</g>
</g>
<!-- Node0&#45;&gt;Node1 -->
<g id="edge1" class="edge">
<title>Node0&#45;&gt;Node1</title>
<path fill="none" stroke="#191970" d="M301,-224.2977C301,-216.3834 301,-206.6043 301,-198.0759"/>
<polygon fill="#191970" stroke="#191970" points="304.5001,-197.8469 301,-187.8469 297.5001,-197.847 304.5001,-197.8469"/>
</g>
<!-- Node2 -->
<g id="node3" class="node">
<title>Node2</title>
<g id="a_node3"><a xlink:href="texture_8h.html" target="_top" xlink:title="texture.h">
<polygon fill="none" stroke="#000000" points="19.5,-56.5 19.5,-75.5 74.5,-75.5 74.5,-56.5 19.5,-56.5"/>
<text text-anchor="middle" x="47" y="-63.5" font-family="Helvetica,sans-Serif" font-size="10.00" fill="#000000">texture.h</text>
</a>
</g>
</g>
<!-- Node1&#45;&gt;Node2 -->
<g id="edge2" class="edge">
<title>Node1&#45;&gt;Node2</title>
<path fill="none" stroke="#191970" d="M254.5539,-171.4221C202.4249,-163.3786 121.7645,-148.7496 96,-132 78.1368,-120.3871 64.4435,-99.8719 56.1318,-84.7876"/>
<polygon fill="#191970" stroke="#191970" points="59.1792,-83.0615 51.4572,-75.8074 52.97,-86.2937 59.1792,-83.0615"/>
</g>
<!-- Node4 -->
<g id="node5" class="node">
<title>Node4</title>
<polygon fill="none" stroke="#bfbfbf" points="295,-112.5 295,-131.5 375,-131.5 375,-112.5 295,-112.5"/>
<text text-anchor="middle" x="335" y="-119.5" font-family="Helvetica,sans-Serif" font-size="10.00" fill="#000000">box2d/box2d.h</text>
</g>
<!-- Node1&#45;&gt;Node4 -->
<g id="edge4" class="edge">
<title>Node1&#45;&gt;Node4</title>
<path fill="none" stroke="#191970" d="M306.9223,-168.2455C311.6027,-160.5367 318.2673,-149.5598 323.9289,-140.2348"/>
<polygon fill="#191970" stroke="#191970" points="326.9475,-142.007 329.1455,-131.6427 320.9639,-138.3741 326.9475,-142.007"/>
</g>
<!-- Node5 -->
<g id="node6" class="node">
<title>Node5</title>
<polygon fill="none" stroke="#bfbfbf" points="393,-112.5 393,-131.5 447,-131.5 447,-112.5 393,-112.5"/>
<text text-anchor="middle" x="420" y="-119.5" font-family="Helvetica,sans-Serif" font-size="10.00" fill="#000000">iostream</text>
</g>
<!-- Node1&#45;&gt;Node5 -->
<g id="edge5" class="edge">
<title>Node1&#45;&gt;Node5</title>
<path fill="none" stroke="#191970" d="M321.4568,-168.3733C340.4738,-159.4241 369.0175,-145.9917 390.4976,-135.8835"/>
<polygon fill="#191970" stroke="#191970" points="392.2522,-138.926 399.8101,-131.5011 389.2716,-132.5923 392.2522,-138.926"/>
</g>
<!-- Node6 -->
<g id="node7" class="node">
<title>Node6</title>
<polygon fill="none" stroke="#bfbfbf" points="465,-112.5 465,-131.5 517,-131.5 517,-112.5 465,-112.5"/>
<text text-anchor="middle" x="491" y="-119.5" font-family="Helvetica,sans-Serif" font-size="10.00" fill="#000000">memory</text>
</g>
<!-- Node1&#45;&gt;Node6 -->
<g id="edge6" class="edge">
<title>Node1&#45;&gt;Node6</title>
<path fill="none" stroke="#191970" d="M333.6622,-168.3733C367.4612,-158.4114 420.1084,-142.8944 455.0663,-132.591"/>
<polygon fill="#191970" stroke="#191970" points="456.2638,-135.887 464.8663,-129.7026 454.2848,-129.1725 456.2638,-135.887"/>
</g>
<!-- Node7 -->
<g id="node8" class="node">
<title>Node7</title>
<g id="a_node8"><a xlink:href="resource__manager_8h.html" target="_top" xlink:title="resource_manager.h">
<polygon fill="none" stroke="#000000" points="105.5,-112.5 105.5,-131.5 210.5,-131.5 210.5,-112.5 105.5,-112.5"/>
<text text-anchor="middle" x="158" y="-119.5" font-family="Helvetica,sans-Serif" font-size="10.00" fill="#000000">resource_manager.h</text>
</a>
</g>
</g>
<!-- Node1&#45;&gt;Node7 -->
<g id="edge7" class="edge">
<title>Node1&#45;&gt;Node7</title>
<path fill="none" stroke="#191970" d="M276.4174,-168.3733C253.0504,-159.2226 217.7138,-145.3844 191.7216,-135.2057"/>
<polygon fill="#191970" stroke="#191970" points="192.8495,-131.8886 182.2618,-131.5011 190.297,-138.4066 192.8495,-131.8886"/>
</g>
<!-- Node11 -->
<g id="node12" class="node">
<title>Node11</title>
<polygon fill="none" stroke="#bfbfbf" points="266,-.5 266,-19.5 336,-19.5 336,-.5 266,-.5"/>
<text text-anchor="middle" x="301" y="-7.5" font-family="Helvetica,sans-Serif" font-size="10.00" fill="#000000">glm/glm.hpp</text>
</g>
<!-- Node1&#45;&gt;Node11 -->
<g id="edge16" class="edge">
<title>Node1&#45;&gt;Node11</title>
<path fill="none" stroke="#191970" d="M296.8632,-168.3507C293.1769,-159.1921 288.0567,-144.9416 286,-132 280.2489,-95.8126 288.9604,-53.2853 295.3211,-29.2018"/>
<polygon fill="#191970" stroke="#191970" points="298.7052,-30.0959 298.0178,-19.5234 291.9621,-28.217 298.7052,-30.0959"/>
</g>
<!-- Node3 -->
<g id="node4" class="node">
<title>Node3</title>
<polygon fill="none" stroke="#bfbfbf" points="0,-.5 0,-19.5 64,-19.5 64,-.5 0,-.5"/>
<text text-anchor="middle" x="32" y="-7.5" font-family="Helvetica,sans-Serif" font-size="10.00" fill="#000000">glad/glad.h</text>
</g>
<!-- Node2&#45;&gt;Node3 -->
<g id="edge3" class="edge">
<title>Node2&#45;&gt;Node3</title>
<path fill="none" stroke="#191970" d="M44.3872,-56.2455C42.4084,-48.8579 39.6256,-38.4689 37.1988,-29.4087"/>
<polygon fill="#191970" stroke="#191970" points="40.5511,-28.3966 34.5829,-19.6427 33.7895,-30.2078 40.5511,-28.3966"/>
</g>
<!-- Node7&#45;&gt;Node2 -->
<g id="edge10" class="edge">
<title>Node7&#45;&gt;Node2</title>
<path fill="none" stroke="#191970" d="M138.9184,-112.3733C121.2598,-103.4644 94.7947,-90.1127 74.7902,-80.0203"/>
<polygon fill="#191970" stroke="#191970" points="76.3372,-76.8806 65.8326,-75.5011 73.1842,-83.1303 76.3372,-76.8806"/>
</g>
<!-- Node8 -->
<g id="node9" class="node">
<title>Node8</title>
<polygon fill="none" stroke="#bfbfbf" points="203.5,-56.5 203.5,-75.5 238.5,-75.5 238.5,-56.5 203.5,-56.5"/>
<text text-anchor="middle" x="221" y="-63.5" font-family="Helvetica,sans-Serif" font-size="10.00" fill="#000000">map</text>
</g>
<!-- Node7&#45;&gt;Node8 -->
<g id="edge8" class="edge">
<title>Node7&#45;&gt;Node8</title>
<path fill="none" stroke="#191970" d="M168.9738,-112.2455C178.1882,-104.0549 191.5532,-92.1749 202.4297,-82.5069"/>
<polygon fill="#191970" stroke="#191970" points="205.0032,-84.9023 210.152,-75.6427 200.3526,-79.6704 205.0032,-84.9023"/>
</g>
<!-- Node9 -->
<g id="node10" class="node">
<title>Node9</title>
<polygon fill="none" stroke="#bfbfbf" points="82.5,-.5 82.5,-19.5 123.5,-19.5 123.5,-.5 82.5,-.5"/>
<text text-anchor="middle" x="103" y="-7.5" font-family="Helvetica,sans-Serif" font-size="10.00" fill="#000000">string</text>
</g>
<!-- Node7&#45;&gt;Node9 -->
<g id="edge9" class="edge">
<title>Node7&#45;&gt;Node9</title>
<path fill="none" stroke="#191970" d="M148.4743,-112.1898C140.3877,-103.3706 129.0108,-89.7278 122,-76 114.5432,-61.3988 109.6153,-43.4424 106.651,-29.9473"/>
<polygon fill="#191970" stroke="#191970" points="110.0189,-28.9425 104.6104,-19.8322 103.1572,-30.3269 110.0189,-28.9425"/>
</g>
<!-- Node10 -->
<g id="node11" class="node">
<title>Node10</title>
<g id="a_node11"><a xlink:href="shader_8h.html" target="_top" xlink:title="shader.h">
<polygon fill="none" stroke="#000000" points="131,-56.5 131,-75.5 185,-75.5 185,-56.5 131,-56.5"/>
<text text-anchor="middle" x="158" y="-63.5" font-family="Helvetica,sans-Serif" font-size="10.00" fill="#000000">shader.h</text>
</a>
</g>
</g>
<!-- Node7&#45;&gt;Node10 -->
<g id="edge11" class="edge">
<title>Node7&#45;&gt;Node10</title>
<path fill="none" stroke="#191970" d="M158,-112.2455C158,-104.9382 158,-94.6944 158,-85.7046"/>
<polygon fill="#191970" stroke="#191970" points="161.5001,-85.6426 158,-75.6427 154.5001,-85.6427 161.5001,-85.6426"/>
</g>
<!-- Node10&#45;&gt;Node3 -->
<g id="edge13" class="edge">
<title>Node10&#45;&gt;Node3</title>
<path fill="none" stroke="#191970" d="M136.3398,-56.3733C116.0228,-47.3435 85.436,-33.7494 62.625,-23.6111"/>
<polygon fill="#191970" stroke="#191970" points="63.9372,-20.3642 53.3775,-19.5011 61.0941,-26.7609 63.9372,-20.3642"/>
</g>
<!-- Node10&#45;&gt;Node9 -->
<g id="edge12" class="edge">
<title>Node10&#45;&gt;Node9</title>
<path fill="none" stroke="#191970" d="M148.4197,-56.2455C140.4542,-48.1352 128.9359,-36.4075 119.4921,-26.7919"/>
<polygon fill="#191970" stroke="#191970" points="121.9747,-24.3247 112.4705,-19.6427 116.9805,-29.2297 121.9747,-24.3247"/>
</g>
<!-- Node10&#45;&gt;Node11 -->
<g id="edge14" class="edge">
<title>Node10&#45;&gt;Node11</title>
<path fill="none" stroke="#191970" d="M182.5826,-56.3733C205.9496,-47.2226 241.2862,-33.3844 267.2784,-23.2057"/>
<polygon fill="#191970" stroke="#191970" points="268.703,-26.4066 276.7382,-19.5011 266.1505,-19.8886 268.703,-26.4066"/>
</g>
<!-- Node12 -->
<g id="node13" class="node">
<title>Node12</title>
<polygon fill="none" stroke="#bfbfbf" points="142,-.5 142,-19.5 248,-19.5 248,-.5 142,-.5"/>
<text text-anchor="middle" x="195" y="-7.5" font-family="Helvetica,sans-Serif" font-size="10.00" fill="#000000">glm/gtc/type_ptr.hpp</text>
</g>
<!-- Node10&#45;&gt;Node12 -->
<g id="edge15" class="edge">
<title>Node10&#45;&gt;Node12</title>
<path fill="none" stroke="#191970" d="M164.4449,-56.2455C169.5382,-48.5367 176.7908,-37.5598 182.952,-28.2348"/>
<polygon fill="#191970" stroke="#191970" points="186.0365,-29.9155 188.6289,-19.6427 180.1962,-26.0566 186.0365,-29.9155"/>
</g>
</g>
</svg>
        <g id="navigator" transform="translate(0 0)" fill="#404254">
                <rect fill="#f2f5e9" fill-opacity="0.5" stroke="#606060" stroke-width=".5" x="0" y="0" width="60" height="60"/>
                <use id="zoomplus" xlink:href="#zoomPlus" x="17" y="9" onmousedown="handleZoom(evt,'in')"/>
                <use id="zoomminus" xlink:href="#zoomMin" x="42" y="9" onmousedown="handleZoom(evt,'out')"/>
                <use id="reset" xlink:href="#resetDef" x="30" y="36" onmousedown="handleReset()"/>
                <g id="arrowUp" xlink:href="#dirArrow" transform="translate(30 24)" onmousedown="handlePan(0,-1)">
                  <use xlink:href="#rim" fill="#404040">
                        <set attributeName="fill" to="#808080" begin="arrowUp.mouseover" end="arrowUp.mouseout"/>
                  </use>
                  <path fill="none" stroke="white" stroke-width="1.5" d="M0,-3.0v7 M-2.5,-0.5L0,-3.0L2.5,-0.5"/>
                </g>
                <g id="arrowRight" xlink:href="#dirArrow" transform="rotate(90) translate(36 -43)" onmousedown="handlePan(1,0)">
                  <use xlink:href="#rim" fill="#404040">
                        <set attributeName="fill" to="#808080" begin="arrowRight.mouseover" end="arrowRight.mouseout"/>
                  </use>
                  <path fill="none" stroke="white" stroke-width="1.5" d="M0,-3.0v7 M-2.5,-0.5L0,-3.0L2.5,-0.5"/>
                </g>
                <g id="arrowDown" xlink:href="#dirArrow" transform="rotate(180) translate(-30 -48)" onmousedown="handlePan(0,1)">
                  <use xlink:href="#rim" fill="#404040">
                        <set attributeName="fill" to="#808080" begin="arrowDown.mouseover" end="arrowDown.mouseout"/>
                  </use>
                  <path fill="none" stroke="white" stroke-width="1.5" d="M0,-3.0v7 M-2.5,-0.5L0,-3.0L2.5,-0.5"/>
                </g>
                <g id="arrowLeft" xlink:href="#dirArrow" transform="rotate(270) translate(-36 17)" onmousedown="handlePan(-1,0)">
                  <use xlink:href="#rim" fill="#404040">
                        <set attributeName="fill" to="#808080" begin="arrowLeft.mouseover" end="arrowLeft.mouseout"/>
                  </use>
                  <path fill="none" stroke="white" stroke-width="1.5" d="M0,-3.0v7 M-2.5,-0.5L0,-3.0L2.5,-0.5"/>
                </g>
        </g>
        <svg viewBox="0 0 15 15" width="100%" height="30px" preserveAspectRatio="xMaxYMin meet">
         <g id="arrow_out" transform="scale(0.3 0.3)">
          <a xlink:href="entity_8cpp__incl_org.svg" target="_base">
           <rect id="button" ry="5" rx="5" y="6" x="6" height="38" width="38"
                fill="#f2f5e9" fill-opacity="0.5" stroke="#606060" stroke-width="1.0"/>
           <path id="arrow"
             d="M 11.500037,31.436501 C 11.940474,20.09759 22.043105,11.32322 32.158766,21.979434 L 37.068811,17.246167 C 37.068811,17.246167 37.088388,32 37.088388,32 L 22.160133,31.978069 C 22.160133,31.978069 26.997745,27.140456 26.997745,27.140456 C 18.528582,18.264221 13.291696,25.230495 11.500037,31.436501 z"
             style="fill:#404040;"/>
          </a>
         </g>
        </svg>
</svg>
