<?xml version="1.0" encoding="UTF-8" standalone="no"?>
<!DOCTYPE svg PUBLIC "-//W3C//DTD SVG 1.1//EN"
 "http://www.w3.org/Graphics/SVG/1.1/DTD/svg11.dtd">
<!-- Generated by graphviz version 2.40.1 (20161225.0304)
 -->
<!-- Title: /mnt/hdd/C0de/smart_engine/src/entity_manager.cpp Pages: 1 -->
<svg width="1011pt" height="330pt"
 viewBox="0.00 0.00 1010.50 330.00" xmlns="http://www.w3.org/2000/svg" xmlns:xlink="http://www.w3.org/1999/xlink">
<g id="graph0" class="graph" transform="scale(1 1) rotate(0) translate(4 326)">
<title>/mnt/hdd/C0de/smart_engine/src/entity_manager.cpp</title>
<!-- Node0 -->
<g id="node1" class="node">
<title>Node0</title>
<polygon fill="#bfbfbf" stroke="#000000" points="423,-291.5 423,-321.5 578,-321.5 578,-291.5 423,-291.5"/>
<text text-anchor="start" x="431" y="-309.5" font-family="Helvetica,sans-Serif" font-size="10.00" fill="#000000">/mnt/hdd/C0de/smart</text>
<text text-anchor="middle" x="500.5" y="-298.5" font-family="Helvetica,sans-Serif" font-size="10.00" fill="#000000">_engine/src/entity_manager.cpp</text>
</g>
<!-- Node1 -->
<g id="node2" class="node">
<title>Node1</title>
<g id="a_node2"><a xlink:href="entity__manager_8h.html" target="_top" xlink:title="../include/entity_manager.h">
<polygon fill="none" stroke="#000000" points="433.5,-235.5 433.5,-254.5 567.5,-254.5 567.5,-235.5 433.5,-235.5"/>
<text text-anchor="middle" x="500.5" y="-242.5" font-family="Helvetica,sans-Serif" font-size="10.00" fill="#000000">../include/entity_manager.h</text>
</a>
</g>
</g>
<!-- Node0&#45;&gt;Node1 -->
<g id="edge1" class="edge">
<title>Node0&#45;&gt;Node1</title>
<path fill="none" stroke="#191970" d="M500.5,-291.2977C500.5,-283.3834 500.5,-273.6043 500.5,-265.0759"/>
<polygon fill="#191970" stroke="#191970" points="504.0001,-264.8469 500.5,-254.8469 497.0001,-264.847 504.0001,-264.8469"/>
</g>
<!-- Node2 -->
<g id="node3" class="node">
<title>Node2</title>
<g id="a_node3"><a xlink:href="entity_8h.html" target="_top" xlink:title="entity.h">
<polygon fill="none" stroke="#000000" points="277,-179.5 277,-198.5 326,-198.5 326,-179.5 277,-179.5"/>
<text text-anchor="middle" x="301.5" y="-186.5" font-family="Helvetica,sans-Serif" font-size="10.00" fill="#000000">entity.h</text>
</a>
</g>
</g>
<!-- Node1&#45;&gt;Node2 -->
<g id="edge2" class="edge">
<title>Node1&#45;&gt;Node2</title>
<path fill="none" stroke="#191970" d="M466.2907,-235.3733C429.8245,-225.1114 372.4104,-208.9547 335.8793,-198.6746"/>
<polygon fill="#191970" stroke="#191970" points="336.7384,-195.2805 326.1642,-195.9407 334.8422,-202.0187 336.7384,-195.2805"/>
</g>
<!-- Node14 -->
<g id="node15" class="node">
<title>Node14</title>
<polygon fill="none" stroke="#bfbfbf" points="605,-179.5 605,-198.5 688,-198.5 688,-179.5 605,-179.5"/>
<text text-anchor="middle" x="646.5" y="-186.5" font-family="Helvetica,sans-Serif" font-size="10.00" fill="#000000">unordered_map</text>
</g>
<!-- Node1&#45;&gt;Node14 -->
<g id="edge18" class="edge">
<title>Node1&#45;&gt;Node14</title>
<path fill="none" stroke="#191970" d="M525.5983,-235.3733C549.4555,-226.2226 585.5335,-212.3844 612.071,-202.2057"/>
<polygon fill="#191970" stroke="#191970" points="613.6459,-205.3503 621.7292,-198.5011 611.139,-198.8145 613.6459,-205.3503"/>
</g>
<!-- Node15 -->
<g id="node16" class="node">
<title>Node15</title>
<polygon fill="none" stroke="#bfbfbf" points="439.5,-118 439.5,-137 483.5,-137 483.5,-118 439.5,-118"/>
<text text-anchor="middle" x="461.5" y="-125" font-family="Helvetica,sans-Serif" font-size="10.00" fill="#000000">vector</text>
</g>
<!-- Node1&#45;&gt;Node15 -->
<g id="edge19" class="edge">
<title>Node1&#45;&gt;Node15</title>
<path fill="none" stroke="#191970" d="M497.3085,-235.3845C490.9094,-216.1053 476.4017,-172.3963 467.9471,-146.9241"/>
<polygon fill="#191970" stroke="#191970" points="471.2077,-145.6367 464.7356,-137.2484 464.5641,-147.8418 471.2077,-145.6367"/>
</g>
<!-- Node16 -->
<g id="node17" class="node">
<title>Node16</title>
<g id="a_node17"><a xlink:href="Lines_8cpp.html" target="_top" xlink:title="../src/Lines.cpp">
<polygon fill="none" stroke="#000000" points="502.5,-179.5 502.5,-198.5 586.5,-198.5 586.5,-179.5 502.5,-179.5"/>
<text text-anchor="middle" x="544.5" y="-186.5" font-family="Helvetica,sans-Serif" font-size="10.00" fill="#000000">../src/Lines.cpp</text>
</a>
</g>
</g>
<!-- Node1&#45;&gt;Node16 -->
<g id="edge20" class="edge">
<title>Node1&#45;&gt;Node16</title>
<path fill="none" stroke="#191970" d="M508.1642,-235.2455C514.3473,-227.3761 523.2063,-216.101 530.6289,-206.6542"/>
<polygon fill="#191970" stroke="#191970" points="533.4975,-208.6683 536.9236,-198.6427 527.9932,-204.3435 533.4975,-208.6683"/>
</g>
<!-- Node3 -->
<g id="node4" class="node">
<title>Node3</title>
<g id="a_node4"><a xlink:href="texture_8h.html" target="_top" xlink:title="texture.h">
<polygon fill="none" stroke="#000000" points="330,-56.5 330,-75.5 385,-75.5 385,-56.5 330,-56.5"/>
<text text-anchor="middle" x="357.5" y="-63.5" font-family="Helvetica,sans-Serif" font-size="10.00" fill="#000000">texture.h</text>
</a>
</g>
</g>
<!-- Node2&#45;&gt;Node3 -->
<g id="edge3" class="edge">
<title>Node2&#45;&gt;Node3</title>
<path fill="none" stroke="#191970" d="M305.8942,-179.3484C315.1358,-159.0499 336.7283,-111.6235 348.8505,-84.9981"/>
<polygon fill="#191970" stroke="#191970" points="352.1679,-86.1582 353.1262,-75.6068 345.7971,-83.2576 352.1679,-86.1582"/>
</g>
<!-- Node5 -->
<g id="node6" class="node">
<title>Node5</title>
<polygon fill="none" stroke="#bfbfbf" points="123.5,-118 123.5,-137 203.5,-137 203.5,-118 123.5,-118"/>
<text text-anchor="middle" x="163.5" y="-125" font-family="Helvetica,sans-Serif" font-size="10.00" fill="#000000">box2d/box2d.h</text>
</g>
<!-- Node2&#45;&gt;Node5 -->
<g id="edge5" class="edge">
<title>Node2&#45;&gt;Node5</title>
<path fill="none" stroke="#191970" d="M279.9375,-179.3906C256.9488,-169.1457 220.344,-152.8326 194.3176,-141.2339"/>
<polygon fill="#191970" stroke="#191970" points="195.4698,-137.9156 184.9111,-137.0419 192.6204,-144.3095 195.4698,-137.9156"/>
</g>
<!-- Node6 -->
<g id="node7" class="node">
<title>Node6</title>
<polygon fill="none" stroke="#bfbfbf" points="367.5,-118 367.5,-137 421.5,-137 421.5,-118 367.5,-118"/>
<text text-anchor="middle" x="394.5" y="-125" font-family="Helvetica,sans-Serif" font-size="10.00" fill="#000000">iostream</text>
</g>
<!-- Node2&#45;&gt;Node6 -->
<g id="edge6" class="edge">
<title>Node2&#45;&gt;Node6</title>
<path fill="none" stroke="#191970" d="M316.0313,-179.3906C330.9094,-169.5519 354.2504,-154.1167 371.6128,-142.6351"/>
<polygon fill="#191970" stroke="#191970" points="373.6602,-145.4773 380.0708,-137.0419 369.799,-139.6385 373.6602,-145.4773"/>
</g>
<!-- Node7 -->
<g id="node8" class="node">
<title>Node7</title>
<polygon fill="none" stroke="#bfbfbf" points="221.5,-118 221.5,-137 273.5,-137 273.5,-118 221.5,-118"/>
<text text-anchor="middle" x="247.5" y="-125" font-family="Helvetica,sans-Serif" font-size="10.00" fill="#000000">memory</text>
</g>
<!-- Node2&#45;&gt;Node7 -->
<g id="edge7" class="edge">
<title>Node2&#45;&gt;Node7</title>
<path fill="none" stroke="#191970" d="M293.0625,-179.3906C284.9469,-170.1478 272.4945,-155.966 262.6576,-144.7628"/>
<polygon fill="#191970" stroke="#191970" points="265.2846,-142.45 256.0565,-137.2449 260.0245,-147.0686 265.2846,-142.45"/>
</g>
<!-- Node8 -->
<g id="node9" class="node">
<title>Node8</title>
<g id="a_node9"><a xlink:href="resource__manager_8h.html" target="_top" xlink:title="resource_manager.h">
<polygon fill="none" stroke="#000000" points="0,-118 0,-137 105,-137 105,-118 0,-118"/>
<text text-anchor="middle" x="52.5" y="-125" font-family="Helvetica,sans-Serif" font-size="10.00" fill="#000000">resource_manager.h</text>
</a>
</g>
</g>
<!-- Node2&#45;&gt;Node8 -->
<g id="edge8" class="edge">
<title>Node2&#45;&gt;Node8</title>
<path fill="none" stroke="#191970" d="M276.9881,-183.0016C241.2493,-174.2488 172.748,-157.4451 114.5,-143 109.8963,-141.8583 105.1012,-140.6657 100.307,-139.471"/>
<polygon fill="#191970" stroke="#191970" points="101.079,-136.0564 90.5291,-137.0314 99.3844,-142.8482 101.079,-136.0564"/>
</g>
<!-- Node12 -->
<g id="node13" class="node">
<title>Node12</title>
<polygon fill="none" stroke="#bfbfbf" points="252.5,-.5 252.5,-19.5 322.5,-19.5 322.5,-.5 252.5,-.5"/>
<text text-anchor="middle" x="287.5" y="-7.5" font-family="Helvetica,sans-Serif" font-size="10.00" fill="#000000">glm/glm.hpp</text>
</g>
<!-- Node2&#45;&gt;Node12 -->
<g id="edge17" class="edge">
<title>Node2&#45;&gt;Node12</title>
<path fill="none" stroke="#191970" d="M300.7473,-179.3762C298.5443,-151.2097 292.0764,-68.5126 289.0698,-30.0713"/>
<polygon fill="#191970" stroke="#191970" points="292.5256,-29.368 288.2564,-19.6714 285.5469,-29.9139 292.5256,-29.368"/>
</g>
<!-- Node4 -->
<g id="node5" class="node">
<title>Node4</title>
<polygon fill="none" stroke="#bfbfbf" points="340.5,-.5 340.5,-19.5 404.5,-19.5 404.5,-.5 340.5,-.5"/>
<text text-anchor="middle" x="372.5" y="-7.5" font-family="Helvetica,sans-Serif" font-size="10.00" fill="#000000">glad/glad.h</text>
</g>
<!-- Node3&#45;&gt;Node4 -->
<g id="edge4" class="edge">
<title>Node3&#45;&gt;Node4</title>
<path fill="none" stroke="#191970" d="M360.1128,-56.2455C362.0916,-48.8579 364.8744,-38.4689 367.3012,-29.4087"/>
<polygon fill="#191970" stroke="#191970" points="370.7105,-30.2078 369.9171,-19.6427 363.9489,-28.3966 370.7105,-30.2078"/>
</g>
<!-- Node8&#45;&gt;Node3 -->
<g id="edge11" class="edge">
<title>Node8&#45;&gt;Node3</title>
<path fill="none" stroke="#191970" d="M89.1357,-117.968C97.4533,-115.9079 106.2637,-113.8075 114.5,-112 186.7828,-96.137 271.8814,-80.7831 319.7753,-72.4431"/>
<polygon fill="#191970" stroke="#191970" points="320.4421,-75.8798 329.6973,-70.7231 319.2464,-68.9827 320.4421,-75.8798"/>
</g>
<!-- Node9 -->
<g id="node10" class="node">
<title>Node9</title>
<polygon fill="none" stroke="#bfbfbf" points="172,-56.5 172,-75.5 207,-75.5 207,-56.5 172,-56.5"/>
<text text-anchor="middle" x="189.5" y="-63.5" font-family="Helvetica,sans-Serif" font-size="10.00" fill="#000000">map</text>
</g>
<!-- Node8&#45;&gt;Node9 -->
<g id="edge9" class="edge">
<title>Node8&#45;&gt;Node9</title>
<path fill="none" stroke="#191970" d="M73.9063,-117.8906C97.796,-107.1664 136.4977,-89.793 162.4607,-78.1381"/>
<polygon fill="#191970" stroke="#191970" points="164.0405,-81.2654 171.7301,-73.977 161.1737,-74.8794 164.0405,-81.2654"/>
</g>
<!-- Node10 -->
<g id="node11" class="node">
<title>Node10</title>
<polygon fill="none" stroke="#bfbfbf" points="32,-.5 32,-19.5 73,-19.5 73,-.5 32,-.5"/>
<text text-anchor="middle" x="52.5" y="-7.5" font-family="Helvetica,sans-Serif" font-size="10.00" fill="#000000">string</text>
</g>
<!-- Node8&#45;&gt;Node10 -->
<g id="edge10" class="edge">
<title>Node8&#45;&gt;Node10</title>
<path fill="none" stroke="#191970" d="M52.5,-117.8845C52.5,-98.6913 52.5,-55.286 52.5,-29.7663"/>
<polygon fill="#191970" stroke="#191970" points="56.0001,-29.7483 52.5,-19.7484 49.0001,-29.7484 56.0001,-29.7483"/>
</g>
<!-- Node11 -->
<g id="node12" class="node">
<title>Node11</title>
<g id="a_node12"><a xlink:href="shader_8h.html" target="_top" xlink:title="shader.h">
<polygon fill="none" stroke="#000000" points="99.5,-56.5 99.5,-75.5 153.5,-75.5 153.5,-56.5 99.5,-56.5"/>
<text text-anchor="middle" x="126.5" y="-63.5" font-family="Helvetica,sans-Serif" font-size="10.00" fill="#000000">shader.h</text>
</a>
</g>
</g>
<!-- Node8&#45;&gt;Node11 -->
<g id="edge12" class="edge">
<title>Node8&#45;&gt;Node11</title>
<path fill="none" stroke="#191970" d="M64.0625,-117.8906C75.5079,-108.3786 93.2473,-93.6357 106.897,-82.2917"/>
<polygon fill="#191970" stroke="#191970" points="109.3208,-84.8283 114.7745,-75.7449 104.8467,-79.4447 109.3208,-84.8283"/>
</g>
<!-- Node11&#45;&gt;Node4 -->
<g id="edge14" class="edge">
<title>Node11&#45;&gt;Node4</title>
<path fill="none" stroke="#191970" d="M153.5803,-58.2868C156.583,-57.4885 159.602,-56.7105 162.5,-56 234.0284,-38.4644 254.9359,-37.1806 330.3134,-20.2155"/>
<polygon fill="#191970" stroke="#191970" points="331.3152,-23.5772 340.2922,-17.9501 329.7654,-16.7509 331.3152,-23.5772"/>
</g>
<!-- Node11&#45;&gt;Node10 -->
<g id="edge13" class="edge">
<title>Node11&#45;&gt;Node10</title>
<path fill="none" stroke="#191970" d="M113.6102,-56.2455C102.5746,-47.8943 86.4708,-35.7076 73.5647,-25.9408"/>
<polygon fill="#191970" stroke="#191970" points="75.3283,-22.8862 65.2421,-19.6427 71.1041,-28.4681 75.3283,-22.8862"/>
</g>
<!-- Node11&#45;&gt;Node12 -->
<g id="edge15" class="edge">
<title>Node11&#45;&gt;Node12</title>
<path fill="none" stroke="#191970" d="M153.8115,-56.5004C180.4105,-47.2485 221.033,-33.119 250.5184,-22.8632"/>
<polygon fill="#191970" stroke="#191970" points="251.7594,-26.1373 260.0546,-19.5462 249.4597,-19.5258 251.7594,-26.1373"/>
</g>
<!-- Node13 -->
<g id="node14" class="node">
<title>Node13</title>
<polygon fill="none" stroke="#bfbfbf" points="91.5,-.5 91.5,-19.5 197.5,-19.5 197.5,-.5 91.5,-.5"/>
<text text-anchor="middle" x="144.5" y="-7.5" font-family="Helvetica,sans-Serif" font-size="10.00" fill="#000000">glm/gtc/type_ptr.hpp</text>
</g>
<!-- Node11&#45;&gt;Node13 -->
<g id="edge16" class="edge">
<title>Node11&#45;&gt;Node13</title>
<path fill="none" stroke="#191970" d="M129.6354,-56.2455C132.01,-48.8579 135.3493,-38.4689 138.2615,-29.4087"/>
<polygon fill="#191970" stroke="#191970" points="141.6725,-30.234 141.4006,-19.6427 135.0083,-28.0919 141.6725,-30.234"/>
</g>
<!-- Node16&#45;&gt;Node4 -->
<g id="edge25" class="edge">
<title>Node16&#45;&gt;Node4</title>
<path fill="none" stroke="#191970" d="M546.3072,-179.232C550.17,-155.1117 556.5273,-92.0748 525.5,-56 511.0247,-39.1698 454.8358,-25.4024 414.756,-17.4475"/>
<polygon fill="#191970" stroke="#191970" points="415.176,-13.964 404.6937,-15.504 413.8485,-20.837 415.176,-13.964"/>
</g>
<!-- Node16&#45;&gt;Node6 -->
<g id="edge22" class="edge">
<title>Node16&#45;&gt;Node6</title>
<path fill="none" stroke="#191970" d="M520.4149,-179.4682C497.2966,-170.275 461.4264,-155.8953 430.5,-143 429.0869,-142.4108 427.644,-141.8054 426.1877,-141.1912"/>
<polygon fill="#191970" stroke="#191970" points="427.1225,-137.7853 416.5506,-137.0892 424.381,-144.2262 427.1225,-137.7853"/>
</g>
<!-- Node16&#45;&gt;Node12 -->
<g id="edge27" class="edge">
<title>Node16&#45;&gt;Node12</title>
<path fill="none" stroke="#191970" d="M539.9058,-179.4437C532.0029,-163.7817 514.5388,-132.3592 492.5,-112 444.4503,-67.6122 373.4704,-38.1442 328.8921,-22.7555"/>
<polygon fill="#191970" stroke="#191970" points="329.8463,-19.3836 319.2521,-19.5051 327.6098,-26.0167 329.8463,-19.3836"/>
</g>
<!-- Node16&#45;&gt;Node15 -->
<g id="edge23" class="edge">
<title>Node16&#45;&gt;Node15</title>
<path fill="none" stroke="#191970" d="M531.5313,-179.3906C518.4966,-169.7324 498.1836,-154.6812 482.7845,-143.271"/>
<polygon fill="#191970" stroke="#191970" points="484.4961,-140.1832 474.3777,-137.0419 480.3287,-145.8075 484.4961,-140.1832"/>
</g>
<!-- Node17 -->
<g id="node18" class="node">
<title>Node17</title>
<polygon fill="none" stroke="#bfbfbf" points="578,-112.5 578,-142.5 677,-142.5 677,-112.5 578,-112.5"/>
<text text-anchor="start" x="586" y="-130.5" font-family="Helvetica,sans-Serif" font-size="10.00" fill="#000000">glm/ext/matrix_clip</text>
<text text-anchor="middle" x="627.5" y="-119.5" font-family="Helvetica,sans-Serif" font-size="10.00" fill="#000000">_space.hpp</text>
</g>
<!-- Node16&#45;&gt;Node17 -->
<g id="edge21" class="edge">
<title>Node16&#45;&gt;Node17</title>
<path fill="none" stroke="#191970" d="M557.4688,-179.3906C568.4938,-171.2215 584.7258,-159.1941 598.7872,-148.7752"/>
<polygon fill="#191970" stroke="#191970" points="601.2449,-151.3102 607.1959,-142.5446 597.0775,-145.6859 601.2449,-151.3102"/>
</g>
<!-- Node18 -->
<g id="node19" class="node">
<title>Node18</title>
<polygon fill="none" stroke="#bfbfbf" points="695,-118 695,-137 742,-137 742,-118 695,-118"/>
<text text-anchor="middle" x="718.5" y="-125" font-family="Helvetica,sans-Serif" font-size="10.00" fill="#000000">math.h</text>
</g>
<!-- Node16&#45;&gt;Node18 -->
<g id="edge24" class="edge">
<title>Node16&#45;&gt;Node18</title>
<path fill="none" stroke="#191970" d="M577.6737,-179.4458C606.5101,-170.8414 649.2332,-157.3692 685.5,-143 686.8976,-142.4463 688.3199,-141.8619 689.7503,-141.2573"/>
<polygon fill="#191970" stroke="#191970" points="691.4169,-144.3466 699.1316,-137.0848 688.5722,-137.9507 691.4169,-144.3466"/>
</g>
<!-- Node19 -->
<g id="node20" class="node">
<title>Node19</title>
<polygon fill="none" stroke="#bfbfbf" points="760.5,-118 760.5,-137 840.5,-137 840.5,-118 760.5,-118"/>
<text text-anchor="middle" x="800.5" y="-125" font-family="Helvetica,sans-Serif" font-size="10.00" fill="#000000">GLFW/glfw3.h</text>
</g>
<!-- Node16&#45;&gt;Node19 -->
<g id="edge26" class="edge">
<title>Node16&#45;&gt;Node19</title>
<path fill="none" stroke="#191970" d="M586.7879,-180.7348C628.8098,-172.2564 694.9709,-158.1905 751.5,-143 754.9211,-142.0807 758.4597,-141.0737 761.9969,-140.0283"/>
<polygon fill="#191970" stroke="#191970" points="763.3183,-143.2847 771.8638,-137.0217 761.2778,-136.5886 763.3183,-143.2847"/>
</g>
<!-- Node20 -->
<g id="node21" class="node">
<title>Node20</title>
<polygon fill="none" stroke="#bfbfbf" points="858.5,-118 858.5,-137 1002.5,-137 1002.5,-118 858.5,-118"/>
<text text-anchor="middle" x="930.5" y="-125" font-family="Helvetica,sans-Serif" font-size="10.00" fill="#000000">glm/gtc/matrix_transform.hpp</text>
</g>
<!-- Node16&#45;&gt;Node20 -->
<g id="edge28" class="edge">
<title>Node16&#45;&gt;Node20</title>
<path fill="none" stroke="#191970" d="M586.7694,-180.5334C589.7208,-179.9972 592.653,-179.4805 595.5,-179 707.9269,-160.0241 737.0302,-161.7201 849.5,-143 856.9633,-141.7578 864.7968,-140.3679 872.5297,-138.9444"/>
<polygon fill="#191970" stroke="#191970" points="873.4109,-142.3404 882.5978,-137.0631 872.1251,-135.4595 873.4109,-142.3404"/>
</g>
</g>
</svg>
