<?xml version="1.0" encoding="UTF-8" standalone="no"?>
<!DOCTYPE svg PUBLIC "-//W3C//DTD SVG 1.1//EN"
 "http://www.w3.org/Graphics/SVG/1.1/DTD/svg11.dtd">
<!-- Generated by graphviz version 2.40.1 (20161225.0304)
 -->
<!-- Title: /mnt/hdd/C0de/smart_engine/include/entity_manager.h Pages: 1 -->
<svg width="1067pt" height="128pt"
 viewBox="0.00 0.00 1066.50 128.00" xmlns="http://www.w3.org/2000/svg" xmlns:xlink="http://www.w3.org/1999/xlink">
<g id="graph0" class="graph" transform="scale(1 1) rotate(0) translate(4 124)">
<title>/mnt/hdd/C0de/smart_engine/include/entity_manager.h</title>
<!-- Node20 -->
<g id="node1" class="node">
<title>Node20</title>
<polygon fill="#bfbfbf" stroke="#000000" points="444,-78.5 444,-119.5 555,-119.5 555,-78.5 444,-78.5"/>
<text text-anchor="start" x="452" y="-107.5" font-family="Helvetica,sans-Serif" font-size="10.00" fill="#000000">/mnt/hdd/C0de/smart</text>
<text text-anchor="start" x="452" y="-96.5" font-family="Helvetica,sans-Serif" font-size="10.00" fill="#000000">_engine/include/entity</text>
<text text-anchor="middle" x="499.5" y="-85.5" font-family="Helvetica,sans-Serif" font-size="10.00" fill="#000000">_manager.h</text>
</g>
<!-- Node21 -->
<g id="node2" class="node">
<title>Node21</title>
<g id="a_node2"><a xlink:href="entity__manager_8cpp.html" target="_top" xlink:title="/mnt/hdd/C0de/smart\l_engine/src/entity_manager.cpp">
<polygon fill="none" stroke="#000000" points="0,-6 0,-36 155,-36 155,-6 0,-6"/>
<text text-anchor="start" x="8" y="-24" font-family="Helvetica,sans-Serif" font-size="10.00" fill="#000000">/mnt/hdd/C0de/smart</text>
<text text-anchor="middle" x="77.5" y="-13" font-family="Helvetica,sans-Serif" font-size="10.00" fill="#000000">_engine/src/entity_manager.cpp</text>
</a>
</g>
</g>
<!-- Node20&#45;&gt;Node21 -->
<g id="edge1" class="edge">
<title>Node20&#45;&gt;Node21</title>
<path fill="none" stroke="#191970" d="M433.8523,-89.2844C365.9351,-78.9007 256.9172,-61.3037 163.5,-42 154.7703,-40.1961 145.5818,-38.1316 136.5905,-36.0173"/>
<polygon fill="#191970" stroke="#191970" points="433.5664,-92.7812 443.9792,-90.8258 434.6197,-85.8608 433.5664,-92.7812"/>
</g>
<!-- Node22 -->
<g id="node3" class="node">
<title>Node22</title>
<g id="a_node3"><a xlink:href="game_8cpp.html" target="_top" xlink:title="/mnt/hdd/C0de/smart\l_engine/src/game.cpp">
<polygon fill="none" stroke="#000000" points="173,-6 173,-36 286,-36 286,-6 173,-6"/>
<text text-anchor="start" x="181" y="-24" font-family="Helvetica,sans-Serif" font-size="10.00" fill="#000000">/mnt/hdd/C0de/smart</text>
<text text-anchor="middle" x="229.5" y="-13" font-family="Helvetica,sans-Serif" font-size="10.00" fill="#000000">_engine/src/game.cpp</text>
</a>
</g>
</g>
<!-- Node20&#45;&gt;Node22 -->
<g id="edge2" class="edge">
<title>Node20&#45;&gt;Node22</title>
<path fill="none" stroke="#191970" d="M434.2685,-81.4092C394.1413,-70.4306 341.7225,-55.8064 295.5,-42 289.1632,-40.1072 282.5029,-38.0585 275.9505,-36.0081"/>
<polygon fill="#191970" stroke="#191970" points="433.3644,-84.7903 443.9332,-84.0479 435.2081,-78.0375 433.3644,-84.7903"/>
</g>
<!-- Node23 -->
<g id="node4" class="node">
<title>Node23</title>
<g id="a_node4"><a xlink:href="game__over__state_8cpp.html" target="_top" xlink:title="/mnt/hdd/C0de/smart\l_engine/src/game_over\l_state.cpp">
<polygon fill="none" stroke="#000000" points="304.5,-.5 304.5,-41.5 422.5,-41.5 422.5,-.5 304.5,-.5"/>
<text text-anchor="start" x="312.5" y="-29.5" font-family="Helvetica,sans-Serif" font-size="10.00" fill="#000000">/mnt/hdd/C0de/smart</text>
<text text-anchor="start" x="312.5" y="-18.5" font-family="Helvetica,sans-Serif" font-size="10.00" fill="#000000">_engine/src/game_over</text>
<text text-anchor="middle" x="363.5" y="-7.5" font-family="Helvetica,sans-Serif" font-size="10.00" fill="#000000">_state.cpp</text>
</a>
</g>
</g>
<!-- Node20&#45;&gt;Node23 -->
<g id="edge3" class="edge">
<title>Node20&#45;&gt;Node23</title>
<path fill="none" stroke="#191970" d="M454.302,-73.0776C436.4078,-62.8148 416.1312,-51.1856 399.2852,-41.5239"/>
<polygon fill="#191970" stroke="#191970" points="452.9957,-76.3631 463.4116,-78.3022 456.4783,-70.2909 452.9957,-76.3631"/>
</g>
<!-- Node24 -->
<g id="node5" class="node">
<title>Node24</title>
<g id="a_node5"><a xlink:href="game__play__state_8cpp.html" target="_top" xlink:title="/mnt/hdd/C0de/smart\l_engine/src/game_play\l_state.cpp">
<polygon fill="none" stroke="#000000" points="441,-.5 441,-41.5 558,-41.5 558,-.5 441,-.5"/>
<text text-anchor="start" x="449" y="-29.5" font-family="Helvetica,sans-Serif" font-size="10.00" fill="#000000">/mnt/hdd/C0de/smart</text>
<text text-anchor="start" x="449" y="-18.5" font-family="Helvetica,sans-Serif" font-size="10.00" fill="#000000">_engine/src/game_play</text>
<text text-anchor="middle" x="499.5" y="-7.5" font-family="Helvetica,sans-Serif" font-size="10.00" fill="#000000">_state.cpp</text>
</a>
</g>
</g>
<!-- Node20&#45;&gt;Node24 -->
<g id="edge4" class="edge">
<title>Node20&#45;&gt;Node24</title>
<path fill="none" stroke="#191970" d="M499.5,-68.0789C499.5,-59.2178 499.5,-49.7747 499.5,-41.6898"/>
<polygon fill="#191970" stroke="#191970" points="496.0001,-68.0974 499.5,-78.0974 503.0001,-68.0975 496.0001,-68.0974"/>
</g>
<!-- Node25 -->
<g id="node6" class="node">
<title>Node25</title>
<g id="a_node6"><a xlink:href="LoadingGameObjects_8cpp.html" target="_top" xlink:title="/mnt/hdd/C0de/smart\l_engine/src/LoadingGameObjects.cpp">
<polygon fill="none" stroke="#000000" points="576.5,-6 576.5,-36 758.5,-36 758.5,-6 576.5,-6"/>
<text text-anchor="start" x="584.5" y="-24" font-family="Helvetica,sans-Serif" font-size="10.00" fill="#000000">/mnt/hdd/C0de/smart</text>
<text text-anchor="middle" x="667.5" y="-13" font-family="Helvetica,sans-Serif" font-size="10.00" fill="#000000">_engine/src/LoadingGameObjects.cpp</text>
</a>
</g>
</g>
<!-- Node20&#45;&gt;Node25 -->
<g id="edge5" class="edge">
<title>Node20&#45;&gt;Node25</title>
<path fill="none" stroke="#191970" d="M553.3636,-73.9919C580.2306,-61.5179 611.8394,-46.8424 634.9726,-36.102"/>
<polygon fill="#191970" stroke="#191970" points="551.676,-70.9165 544.0798,-78.3022 554.6239,-77.2656 551.676,-70.9165"/>
</g>
<!-- Node26 -->
<g id="node7" class="node">
<title>Node26</title>
<g id="a_node7"><a xlink:href="main__menu__state_8cpp.html" target="_top" xlink:title="/mnt/hdd/C0de/smart\l_engine/src/main_menu\l_state.cpp">
<polygon fill="none" stroke="#000000" points="776.5,-.5 776.5,-41.5 896.5,-41.5 896.5,-.5 776.5,-.5"/>
<text text-anchor="start" x="784.5" y="-29.5" font-family="Helvetica,sans-Serif" font-size="10.00" fill="#000000">/mnt/hdd/C0de/smart</text>
<text text-anchor="start" x="784.5" y="-18.5" font-family="Helvetica,sans-Serif" font-size="10.00" fill="#000000">_engine/src/main_menu</text>
<text text-anchor="middle" x="836.5" y="-7.5" font-family="Helvetica,sans-Serif" font-size="10.00" fill="#000000">_state.cpp</text>
</a>
</g>
</g>
<!-- Node20&#45;&gt;Node26 -->
<g id="edge6" class="edge">
<title>Node20&#45;&gt;Node26</title>
<path fill="none" stroke="#191970" d="M564.8756,-86.7261C619.3662,-76.1064 698.8808,-59.7044 767.5,-42 770.4099,-41.2492 773.3807,-40.4546 776.3753,-39.6311"/>
<polygon fill="#191970" stroke="#191970" points="564.1515,-83.3012 555.0005,-88.6407 565.4839,-90.1733 564.1515,-83.3012"/>
</g>
<!-- Node27 -->
<g id="node8" class="node">
<title>Node27</title>
<g id="a_node8"><a xlink:href="splash__state_8cpp.html" target="_top" xlink:title="/mnt/hdd/C0de/smart\l_engine/src/splash_state.cpp">
<polygon fill="none" stroke="#000000" points="914.5,-6 914.5,-36 1058.5,-36 1058.5,-6 914.5,-6"/>
<text text-anchor="start" x="922.5" y="-24" font-family="Helvetica,sans-Serif" font-size="10.00" fill="#000000">/mnt/hdd/C0de/smart</text>
<text text-anchor="middle" x="986.5" y="-13" font-family="Helvetica,sans-Serif" font-size="10.00" fill="#000000">_engine/src/splash_state.cpp</text>
</a>
</g>
</g>
<!-- Node20&#45;&gt;Node27 -->
<g id="edge7" class="edge">
<title>Node20&#45;&gt;Node27</title>
<path fill="none" stroke="#191970" d="M565.3408,-92.0982C645.9729,-83.1084 786.5081,-65.6972 905.5,-42 914.0486,-40.2975 923.0395,-38.2396 931.7958,-36.0862"/>
<polygon fill="#191970" stroke="#191970" points="564.8847,-88.6272 555.3301,-93.2053 565.6543,-95.5848 564.8847,-88.6272"/>
</g>
</g>
</svg>
