<?xml version="1.0" encoding="UTF-8" standalone="no"?>
<!DOCTYPE svg PUBLIC "-//W3C//DTD SVG 1.1//EN"
 "http://www.w3.org/Graphics/SVG/1.1/DTD/svg11.dtd">
<!-- Generated by graphviz version 2.40.1 (20161225.0304)
 -->
<!-- Title: /mnt/hdd/C0de/smart_engine/src/game_play_state.cpp Pages: 1 -->
<!--zoomable 352 -->
<svg id="main" version="1.1" xmlns="http://www.w3.org/2000/svg" xmlns:xlink="http://www.w3.org/1999/xlink" xml:space="preserve" onload="init(evt)">
<style type="text/css"><![CDATA[
.edge:hover path { stroke: red; }
.edge:hover polygon { stroke: red; fill: red; }
]]></style>
<script type="text/javascript"><![CDATA[
var edges = document.getElementsByTagName('g');
if (edges && edges.length) {
  for (var i=0;i<edges.length;i++) {
    if (edges[i].id.substr(0,4)=='edge') {
      edges[i].setAttribute('class','edge');
    }
  }
}
]]></script>
        <defs>
                <circle id="rim" cx="0" cy="0" r="7"/>
                <circle id="rim2" cx="0" cy="0" r="3.5"/>
                <g id="zoomPlus">
                        <use xlink:href="#rim" fill="#404040">
                                <set attributeName="fill" to="#808080" begin="zoomplus.mouseover" end="zoomplus.mouseout"/>
                        </use>
                        <path d="M-4,0h8M0,-4v8" fill="none" stroke="white" stroke-width="1.5" pointer-events="none"/>
                </g>
                <g id="zoomMin">
                        <use xlink:href="#rim" fill="#404040">
                                <set attributeName="fill" to="#808080" begin="zoomminus.mouseover" end="zoomminus.mouseout"/>
                        </use>
                        <path d="M-4,0h8" fill="none" stroke="white" stroke-width="1.5" pointer-events="none"/>
                </g>
                <g id="dirArrow">
                        <path fill="none" stroke="white" stroke-width="1.5" d="M0,-3.0v7 M-2.5,-0.5L0,-3.0L2.5,-0.5"/>
                </g>
               <g id="resetDef">
                       <use xlink:href="#rim2" fill="#404040">
                               <set attributeName="fill" to="#808080" begin="reset.mouseover" end="reset.mouseout"/>
                       </use>
               </g>
        </defs>

<script type="text/javascript">
var viewWidth = 1827;
var viewHeight = 352;
var sectionId = 'dynsection-0';
</script>
<script xlink:href="svgpan.js"/>
<svg id="graph" class="graph">
<g id="viewport">
<title>/mnt/hdd/C0de/smart_engine/src/game_play_state.cpp</title>
<!-- Node0 -->
<g id="node1" class="node">
<title>Node0</title>
<polygon fill="#bfbfbf" stroke="#000000" points="826.5,-302.5 826.5,-343.5 943.5,-343.5 943.5,-302.5 826.5,-302.5"/>
<text text-anchor="start" x="834.5" y="-331.5" font-family="Helvetica,sans-Serif" font-size="10.00" fill="#000000">/mnt/hdd/C0de/smart</text>
<text text-anchor="start" x="834.5" y="-320.5" font-family="Helvetica,sans-Serif" font-size="10.00" fill="#000000">_engine/src/game_play</text>
<text text-anchor="middle" x="885" y="-309.5" font-family="Helvetica,sans-Serif" font-size="10.00" fill="#000000">_state.cpp</text>
</g>
<!-- Node1 -->
<g id="node2" class="node">
<title>Node1</title>
<g id="a_node2"><a xlink:href="sprite__renderer_8h.html" target="_top" xlink:title="../include/sprite_renderer.h">
<polygon fill="none" stroke="#000000" points="510,-123.5 510,-142.5 642,-142.5 642,-123.5 510,-123.5"/>
<text text-anchor="middle" x="576" y="-130.5" font-family="Helvetica,sans-Serif" font-size="10.00" fill="#000000">../include/sprite_renderer.h</text>
</a>
</g>
</g>
<!-- Node0&#45;&gt;Node1 -->
<g id="edge1" class="edge">
<title>Node0&#45;&gt;Node1</title>
<path fill="none" stroke="#191970" d="M851.638,-302.4861C789.0888,-264.0255 655.551,-181.9149 600.5019,-148.0659"/>
<polygon fill="#191970" stroke="#191970" points="602.1166,-144.9501 591.7649,-142.6936 598.4501,-150.913 602.1166,-144.9501"/>
</g>
<!-- Node6 -->
<g id="node7" class="node">
<title>Node6</title>
<polygon fill="none" stroke="#bfbfbf" points="62.5,-.5 62.5,-19.5 103.5,-19.5 103.5,-.5 62.5,-.5"/>
<text text-anchor="middle" x="83" y="-7.5" font-family="Helvetica,sans-Serif" font-size="10.00" fill="#000000">string</text>
</g>
<!-- Node0&#45;&gt;Node6 -->
<g id="edge72" class="edge">
<title>Node0&#45;&gt;Node6</title>
<path fill="none" stroke="#191970" d="M826.2473,-320.32C628.5864,-310.5324 0,-272.8173 0,-189 0,-189 0,-189 0,-133 0,-88.3304 38.0793,-47.7429 62.6528,-26.2014"/>
<polygon fill="#191970" stroke="#191970" points="65.0232,-28.7804 70.3941,-19.6478 60.5003,-23.4378 65.0232,-28.7804"/>
</g>
<!-- Node16 -->
<g id="node17" class="node">
<title>Node16</title>
<g id="a_node17"><a xlink:href="text__renderer_8h.html" target="_top" xlink:title="../include/text_renderer.h">
<polygon fill="none" stroke="#000000" points="269.5,-123.5 269.5,-142.5 394.5,-142.5 394.5,-123.5 269.5,-123.5"/>
<text text-anchor="middle" x="332" y="-130.5" font-family="Helvetica,sans-Serif" font-size="10.00" fill="#000000">../include/text_renderer.h</text>
</a>
</g>
</g>
<!-- Node0&#45;&gt;Node16 -->
<g id="edge20" class="edge">
<title>Node0&#45;&gt;Node16</title>
<path fill="none" stroke="#191970" d="M826.3429,-302.8466C712.3584,-263.6837 463.865,-178.3062 369.4314,-145.8607"/>
<polygon fill="#191970" stroke="#191970" points="370.331,-142.469 359.7363,-142.5296 368.0564,-149.0892 370.331,-142.469"/>
</g>
<!-- Node19 -->
<g id="node20" class="node">
<title>Node19</title>
<g id="a_node20"><a xlink:href="entity__manager_8h.html" target="_top" xlink:title="../include/entity_manager.h">
<polygon fill="none" stroke="#000000" points="818,-241 818,-260 952,-260 952,-241 818,-241"/>
<text text-anchor="middle" x="885" y="-248" font-family="Helvetica,sans-Serif" font-size="10.00" fill="#000000">../include/entity_manager.h</text>
</a>
</g>
</g>
<!-- Node0&#45;&gt;Node19 -->
<g id="edge28" class="edge">
<title>Node0&#45;&gt;Node19</title>
<path fill="none" stroke="#191970" d="M885,-302.4183C885,-292.32 885,-280.213 885,-270.2314"/>
<polygon fill="#191970" stroke="#191970" points="888.5001,-270.0853 885,-260.0853 881.5001,-270.0854 888.5001,-270.0853"/>
</g>
<!-- Node28 -->
<g id="node29" class="node">
<title>Node28</title>
<g id="a_node29"><a xlink:href="LoadingGameObjects_8h.html" target="_top" xlink:title="../include/LoadingGameObjects.h">
<polygon fill="none" stroke="#000000" points="1290.5,-123.5 1290.5,-142.5 1451.5,-142.5 1451.5,-123.5 1290.5,-123.5"/>
<text text-anchor="middle" x="1371" y="-130.5" font-family="Helvetica,sans-Serif" font-size="10.00" fill="#000000">../include/LoadingGameObjects.h</text>
</a>
</g>
</g>
<!-- Node0&#45;&gt;Node28 -->
<g id="edge51" class="edge">
<title>Node0&#45;&gt;Node28</title>
<path fill="none" stroke="#191970" d="M937.4723,-302.4861C1037.5946,-263.3437 1253.3627,-178.9899 1336.9501,-146.3117"/>
<polygon fill="#191970" stroke="#191970" points="1338.4326,-149.4901 1346.4718,-142.5892 1335.8838,-142.9706 1338.4326,-149.4901"/>
</g>
<!-- Node30 -->
<g id="node31" class="node">
<title>Node30</title>
<g id="a_node31"><a xlink:href="game__play__state_8h.html" target="_top" xlink:title="../include/game_play\l_state.h">
<polygon fill="none" stroke="#000000" points="1464.5,-235.5 1464.5,-265.5 1571.5,-265.5 1571.5,-235.5 1464.5,-235.5"/>
<text text-anchor="start" x="1472.5" y="-253.5" font-family="Helvetica,sans-Serif" font-size="10.00" fill="#000000">../include/game_play</text>
<text text-anchor="middle" x="1518" y="-242.5" font-family="Helvetica,sans-Serif" font-size="10.00" fill="#000000">_state.h</text>
</a>
</g>
</g>
<!-- Node0&#45;&gt;Node30 -->
<g id="edge55" class="edge">
<title>Node0&#45;&gt;Node30</title>
<path fill="none" stroke="#191970" d="M943.6993,-316.2769C1062.6457,-302.6535 1331.2343,-271.891 1454.2709,-257.7991"/>
<polygon fill="#191970" stroke="#191970" points="1454.7591,-261.2662 1464.2958,-256.6509 1453.9625,-254.3117 1454.7591,-261.2662"/>
</g>
<!-- Node37 -->
<g id="node38" class="node">
<title>Node37</title>
<g id="a_node38"><a xlink:href="game__text_8h.html" target="_top" xlink:title="../include/game_text.h">
<polygon fill="none" stroke="#000000" points="1092.5,-123.5 1092.5,-142.5 1205.5,-142.5 1205.5,-123.5 1092.5,-123.5"/>
<text text-anchor="middle" x="1149" y="-130.5" font-family="Helvetica,sans-Serif" font-size="10.00" fill="#000000">../include/game_text.h</text>
</a>
</g>
</g>
<!-- Node0&#45;&gt;Node37 -->
<g id="edge69" class="edge">
<title>Node0&#45;&gt;Node37</title>
<path fill="none" stroke="#191970" d="M921.1445,-302.407C960.9165,-279.1559 1026.0864,-239.2902 1078,-199 1097.7829,-183.6465 1118.5551,-163.8438 1132.4832,-149.951"/>
<polygon fill="#191970" stroke="#191970" points="1135.2816,-152.0994 1139.8337,-142.5323 1130.309,-147.1725 1135.2816,-152.0994"/>
</g>
<!-- Node2 -->
<g id="node3" class="node">
<title>Node2</title>
<polygon fill="none" stroke="#bfbfbf" points="454,-62 454,-81 498,-81 498,-62 454,-62"/>
<text text-anchor="middle" x="476" y="-69" font-family="Helvetica,sans-Serif" font-size="10.00" fill="#000000">cmath</text>
</g>
<!-- Node1&#45;&gt;Node2 -->
<g id="edge2" class="edge">
<title>Node1&#45;&gt;Node2</title>
<path fill="none" stroke="#191970" d="M560.375,-123.3906C544.2302,-113.4616 518.8178,-97.833 500.0977,-86.3201"/>
<polygon fill="#191970" stroke="#191970" points="501.8669,-83.2992 491.5153,-81.0419 498.1998,-89.2619 501.8669,-83.2992"/>
</g>
<!-- Node3 -->
<g id="node4" class="node">
<title>Node3</title>
<polygon fill="none" stroke="#bfbfbf" points="300,-.5 300,-19.5 364,-19.5 364,-.5 300,-.5"/>
<text text-anchor="middle" x="332" y="-7.5" font-family="Helvetica,sans-Serif" font-size="10.00" fill="#000000">glad/glad.h</text>
</g>
<!-- Node1&#45;&gt;Node3 -->
<g id="edge3" class="edge">
<title>Node1&#45;&gt;Node3</title>
<path fill="none" stroke="#191970" d="M570.076,-123.3126C559.5091,-106.8756 535.7943,-73.5981 507,-56 465.9611,-30.9184 411.4153,-19.3842 374.1978,-14.1643"/>
<polygon fill="#191970" stroke="#191970" points="374.5554,-10.6813 364.1857,-12.8534 373.6466,-17.6221 374.5554,-10.6813"/>
</g>
<!-- Node4 -->
<g id="node5" class="node">
<title>Node4</title>
<polygon fill="none" stroke="#bfbfbf" points="872,-62 872,-81 952,-81 952,-62 872,-62"/>
<text text-anchor="middle" x="912" y="-69" font-family="Helvetica,sans-Serif" font-size="10.00" fill="#000000">GLFW/glfw3.h</text>
</g>
<!-- Node1&#45;&gt;Node4 -->
<g id="edge4" class="edge">
<title>Node1&#45;&gt;Node4</title>
<path fill="none" stroke="#191970" d="M628.1313,-123.4581C691.8633,-111.7929 798.9707,-92.1884 861.8075,-80.687"/>
<polygon fill="#191970" stroke="#191970" points="862.6688,-84.0876 871.8752,-78.8443 861.4084,-77.202 862.6688,-84.0876"/>
</g>
<!-- Node5 -->
<g id="node6" class="node">
<title>Node5</title>
<polygon fill="none" stroke="#bfbfbf" points="656,-62 656,-81 710,-81 710,-62 656,-62"/>
<text text-anchor="middle" x="683" y="-69" font-family="Helvetica,sans-Serif" font-size="10.00" fill="#000000">iostream</text>
</g>
<!-- Node1&#45;&gt;Node5 -->
<g id="edge5" class="edge">
<title>Node1&#45;&gt;Node5</title>
<path fill="none" stroke="#191970" d="M592.7188,-123.3906C610.0722,-113.4165 637.4323,-97.6908 657.4882,-86.1633"/>
<polygon fill="#191970" stroke="#191970" points="659.4728,-89.0596 666.3987,-81.0419 655.9846,-82.9907 659.4728,-89.0596"/>
</g>
<!-- Node1&#45;&gt;Node6 -->
<g id="edge6" class="edge">
<title>Node1&#45;&gt;Node6</title>
<path fill="none" stroke="#191970" d="M547.7579,-123.4938C521.1371,-114.4364 480.1896,-100.2543 445,-87 410.4761,-73.9965 403.5414,-65.8893 368,-56 320.4155,-42.7597 177.1646,-22.6399 113.7634,-14.0823"/>
<polygon fill="#191970" stroke="#191970" points="113.9724,-10.579 103.5955,-12.7167 113.0406,-17.5167 113.9724,-10.579"/>
</g>
<!-- Node7 -->
<g id="node8" class="node">
<title>Node7</title>
<polygon fill="none" stroke="#bfbfbf" points="554.5,-62 554.5,-81 637.5,-81 637.5,-62 554.5,-62"/>
<text text-anchor="middle" x="596" y="-69" font-family="Helvetica,sans-Serif" font-size="10.00" fill="#000000">unordered_map</text>
</g>
<!-- Node1&#45;&gt;Node7 -->
<g id="edge7" class="edge">
<title>Node1&#45;&gt;Node7</title>
<path fill="none" stroke="#191970" d="M579.125,-123.3906C581.9265,-114.776 586.1233,-101.8708 589.6306,-91.0858"/>
<polygon fill="#191970" stroke="#191970" points="593.0667,-91.8371 592.8309,-81.2449 586.4098,-89.6722 593.0667,-91.8371"/>
</g>
<!-- Node8 -->
<g id="node9" class="node">
<title>Node8</title>
<polygon fill="none" stroke="#bfbfbf" points="1528,-62 1528,-81 1580,-81 1580,-62 1528,-62"/>
<text text-anchor="middle" x="1554" y="-69" font-family="Helvetica,sans-Serif" font-size="10.00" fill="#000000">memory</text>
</g>
<!-- Node1&#45;&gt;Node8 -->
<g id="edge8" class="edge">
<title>Node1&#45;&gt;Node8</title>
<path fill="none" stroke="#191970" d="M642.1341,-128.3227C668.5265,-126.5338 699.1942,-124.5525 727,-123 902.9077,-113.1784 1347.5045,-127.3646 1519,-87 1521.4905,-86.4138 1524.0235,-85.6534 1526.5299,-84.7844"/>
<polygon fill="#191970" stroke="#191970" points="1527.9308,-87.9937 1535.9187,-81.0335 1525.3338,-81.4933 1527.9308,-87.9937"/>
</g>
<!-- Node9 -->
<g id="node10" class="node">
<title>Node9</title>
<g id="a_node10"><a xlink:href="texture_8h.html" target="_top" xlink:title="texture.h">
<polygon fill="none" stroke="#000000" points="304.5,-62 304.5,-81 359.5,-81 359.5,-62 304.5,-62"/>
<text text-anchor="middle" x="332" y="-69" font-family="Helvetica,sans-Serif" font-size="10.00" fill="#000000">texture.h</text>
</a>
</g>
</g>
<!-- Node1&#45;&gt;Node9 -->
<g id="edge9" class="edge">
<title>Node1&#45;&gt;Node9</title>
<path fill="none" stroke="#191970" d="M538.1427,-123.4581C492.2223,-111.8839 415.2925,-92.4938 369.5231,-80.9577"/>
<polygon fill="#191970" stroke="#191970" points="370.2522,-77.532 359.7,-78.4818 368.5413,-84.3198 370.2522,-77.532"/>
</g>
<!-- Node10 -->
<g id="node11" class="node">
<title>Node10</title>
<g id="a_node11"><a xlink:href="shader_8h.html" target="_top" xlink:title="shader.h">
<polygon fill="none" stroke="#000000" points="194,-62 194,-81 248,-81 248,-62 194,-62"/>
<text text-anchor="middle" x="221" y="-69" font-family="Helvetica,sans-Serif" font-size="10.00" fill="#000000">shader.h</text>
</a>
</g>
</g>
<!-- Node1&#45;&gt;Node10 -->
<g id="edge11" class="edge">
<title>Node1&#45;&gt;Node10</title>
<path fill="none" stroke="#191970" d="M512.8056,-123.4724C455.7628,-114.6781 369.5953,-100.911 295,-87 282.9241,-84.748 269.7879,-82.0711 257.9805,-79.5809"/>
<polygon fill="#191970" stroke="#191970" points="258.5162,-76.1166 248.0063,-77.456 257.0575,-82.9629 258.5162,-76.1166"/>
</g>
<!-- Node13 -->
<g id="node14" class="node">
<title>Node13</title>
<g id="a_node14"><a xlink:href="sprite_8h.html" target="_top" xlink:title="sprite.h">
<polygon fill="none" stroke="#000000" points="766.5,-62 766.5,-81 815.5,-81 815.5,-62 766.5,-62"/>
<text text-anchor="middle" x="791" y="-69" font-family="Helvetica,sans-Serif" font-size="10.00" fill="#000000">sprite.h</text>
</a>
</g>
</g>
<!-- Node1&#45;&gt;Node13 -->
<g id="edge16" class="edge">
<title>Node1&#45;&gt;Node13</title>
<path fill="none" stroke="#191970" d="M609.5938,-123.3906C649.6602,-111.9298 716.2746,-92.8749 756.6651,-81.3214"/>
<polygon fill="#191970" stroke="#191970" points="757.6849,-84.6701 766.3368,-78.5548 755.7598,-77.94 757.6849,-84.6701"/>
</g>
<!-- Node9&#45;&gt;Node3 -->
<g id="edge10" class="edge">
<title>Node9&#45;&gt;Node3</title>
<path fill="none" stroke="#191970" d="M332,-61.8906C332,-53.3657 332,-40.6392 332,-29.9235"/>
<polygon fill="#191970" stroke="#191970" points="335.5001,-29.7448 332,-19.7449 328.5001,-29.7449 335.5001,-29.7448"/>
</g>
<!-- Node10&#45;&gt;Node3 -->
<g id="edge13" class="edge">
<title>Node10&#45;&gt;Node3</title>
<path fill="none" stroke="#191970" d="M238.3438,-61.8906C256.4273,-51.8713 284.9859,-36.0483 305.8165,-24.5071"/>
<polygon fill="#191970" stroke="#191970" points="307.7271,-27.4498 314.778,-19.5419 304.3346,-21.3268 307.7271,-27.4498"/>
</g>
<!-- Node10&#45;&gt;Node6 -->
<g id="edge12" class="edge">
<title>Node10&#45;&gt;Node6</title>
<path fill="none" stroke="#191970" d="M199.4375,-61.8906C176.18,-51.5259 138.9859,-34.9502 112.9087,-23.3289"/>
<polygon fill="#191970" stroke="#191970" points="114.0697,-20.0145 103.511,-19.1408 111.2203,-26.4083 114.0697,-20.0145"/>
</g>
<!-- Node11 -->
<g id="node12" class="node">
<title>Node11</title>
<polygon fill="none" stroke="#bfbfbf" points="809,-.5 809,-19.5 879,-19.5 879,-.5 809,-.5"/>
<text text-anchor="middle" x="844" y="-7.5" font-family="Helvetica,sans-Serif" font-size="10.00" fill="#000000">glm/glm.hpp</text>
</g>
<!-- Node10&#45;&gt;Node11 -->
<g id="edge14" class="edge">
<title>Node10&#45;&gt;Node11</title>
<path fill="none" stroke="#191970" d="M248.2563,-64.8698C262.1656,-61.7216 279.4003,-58.1796 295,-56 514.585,-25.3198 575.643,-52.2172 798.4988,-20.0207"/>
<polygon fill="#191970" stroke="#191970" points="799.1608,-23.4611 808.5462,-18.5452 798.1437,-16.5354 799.1608,-23.4611"/>
</g>
<!-- Node12 -->
<g id="node13" class="node">
<title>Node12</title>
<polygon fill="none" stroke="#bfbfbf" points="168,-.5 168,-19.5 274,-19.5 274,-.5 168,-.5"/>
<text text-anchor="middle" x="221" y="-7.5" font-family="Helvetica,sans-Serif" font-size="10.00" fill="#000000">glm/gtc/type_ptr.hpp</text>
</g>
<!-- Node10&#45;&gt;Node12 -->
<g id="edge15" class="edge">
<title>Node10&#45;&gt;Node12</title>
<path fill="none" stroke="#191970" d="M221,-61.8906C221,-53.3657 221,-40.6392 221,-29.9235"/>
<polygon fill="#191970" stroke="#191970" points="224.5001,-29.7448 221,-19.7449 217.5001,-29.7449 224.5001,-29.7448"/>
</g>
<!-- Node13&#45;&gt;Node11 -->
<g id="edge19" class="edge">
<title>Node13&#45;&gt;Node11</title>
<path fill="none" stroke="#191970" d="M799.2813,-61.8906C807.1693,-52.7376 819.2314,-38.7409 828.8412,-27.59"/>
<polygon fill="#191970" stroke="#191970" points="831.7251,-29.6049 835.602,-19.7449 826.4225,-25.0352 831.7251,-29.6049"/>
</g>
<!-- Node14 -->
<g id="node15" class="node">
<title>Node14</title>
<polygon fill="none" stroke="#bfbfbf" points="1150,-.5 1150,-19.5 1196,-19.5 1196,-.5 1150,-.5"/>
<text text-anchor="middle" x="1173" y="-7.5" font-family="Helvetica,sans-Serif" font-size="10.00" fill="#000000">stdio.h</text>
</g>
<!-- Node13&#45;&gt;Node14 -->
<g id="edge17" class="edge">
<title>Node13&#45;&gt;Node14</title>
<path fill="none" stroke="#191970" d="M815.5807,-65.7958C829.459,-62.679 847.1485,-58.8792 863,-56 963.3317,-37.7762 1082.9118,-21.5806 1139.7796,-14.2113"/>
<polygon fill="#191970" stroke="#191970" points="1140.5007,-17.6474 1149.9714,-12.8983 1139.6062,-10.7048 1140.5007,-17.6474"/>
</g>
<!-- Node15 -->
<g id="node16" class="node">
<title>Node15</title>
<polygon fill="none" stroke="#bfbfbf" points="721,-.5 721,-19.5 791,-19.5 791,-.5 721,-.5"/>
<text text-anchor="middle" x="756" y="-7.5" font-family="Helvetica,sans-Serif" font-size="10.00" fill="#000000">glm/fwd.hpp</text>
</g>
<!-- Node13&#45;&gt;Node15 -->
<g id="edge18" class="edge">
<title>Node13&#45;&gt;Node15</title>
<path fill="none" stroke="#191970" d="M785.5313,-61.8906C780.4754,-53.0068 772.8228,-39.5601 766.5746,-28.5811"/>
<polygon fill="#191970" stroke="#191970" points="769.534,-26.7048 761.5459,-19.7449 763.4502,-30.1672 769.534,-26.7048"/>
</g>
<!-- Node16&#45;&gt;Node3 -->
<g id="edge22" class="edge">
<title>Node16&#45;&gt;Node3</title>
<path fill="none" stroke="#191970" d="M320.8498,-123.3293C311.9329,-114.8007 300.1079,-101.5 295,-87 290.4223,-74.0049 290.4223,-68.9951 295,-56 298.8309,-45.125 306.4402,-34.9246 313.7672,-26.9061"/>
<polygon fill="#191970" stroke="#191970" points="316.3557,-29.2652 320.8498,-19.6707 311.3534,-24.3686 316.3557,-29.2652"/>
</g>
<!-- Node16&#45;&gt;Node5 -->
<g id="edge24" class="edge">
<title>Node16&#45;&gt;Node5</title>
<path fill="none" stroke="#191970" d="M394.5696,-128.7076C458.8654,-123.1771 561.3817,-111.2298 647,-87 649.1812,-86.3827 651.4042,-85.6637 653.6214,-84.8797"/>
<polygon fill="#191970" stroke="#191970" points="655.1229,-88.0505 663.1556,-81.1421 652.568,-81.5334 655.1229,-88.0505"/>
</g>
<!-- Node16&#45;&gt;Node9 -->
<g id="edge26" class="edge">
<title>Node16&#45;&gt;Node9</title>
<path fill="none" stroke="#191970" d="M332,-123.3906C332,-114.8657 332,-102.1392 332,-91.4235"/>
<polygon fill="#191970" stroke="#191970" points="335.5001,-91.2448 332,-81.2449 328.5001,-91.2449 335.5001,-91.2448"/>
</g>
<!-- Node16&#45;&gt;Node10 -->
<g id="edge27" class="edge">
<title>Node16&#45;&gt;Node10</title>
<path fill="none" stroke="#191970" d="M314.6563,-123.3906C296.5727,-113.3713 268.0141,-97.5483 247.1835,-86.0071"/>
<polygon fill="#191970" stroke="#191970" points="248.6654,-82.8268 238.222,-81.0419 245.2729,-88.9498 248.6654,-82.8268"/>
</g>
<!-- Node16&#45;&gt;Node11 -->
<g id="edge23" class="edge">
<title>Node16&#45;&gt;Node11</title>
<path fill="none" stroke="#191970" d="M342.2096,-123.3657C360.9042,-106.3811 402.6231,-71.4498 445,-56 590.9383,-2.7939 641.4241,-43.8601 798.5221,-20.0361"/>
<polygon fill="#191970" stroke="#191970" points="799.2014,-23.4723 808.5318,-18.4529 798.1077,-16.5582 799.2014,-23.4723"/>
</g>
<!-- Node17 -->
<g id="node18" class="node">
<title>Node17</title>
<polygon fill="none" stroke="#bfbfbf" points="66.5,-62 66.5,-81 101.5,-81 101.5,-62 66.5,-62"/>
<text text-anchor="middle" x="84" y="-69" font-family="Helvetica,sans-Serif" font-size="10.00" fill="#000000">map</text>
</g>
<!-- Node16&#45;&gt;Node17 -->
<g id="edge21" class="edge">
<title>Node16&#45;&gt;Node17</title>
<path fill="none" stroke="#191970" d="M276.2385,-123.4644C221.0427,-113.6547 140.6278,-98.2596 111,-87 109.9642,-86.6064 108.9212,-86.1764 107.8788,-85.7184"/>
<polygon fill="#191970" stroke="#191970" points="109.2228,-82.4755 98.7222,-81.0658 106.0518,-88.7161 109.2228,-82.4755"/>
</g>
<!-- Node18 -->
<g id="node19" class="node">
<title>Node18</title>
<polygon fill="none" stroke="#bfbfbf" points="120,-62 120,-81 176,-81 176,-62 120,-62"/>
<text text-anchor="middle" x="148" y="-69" font-family="Helvetica,sans-Serif" font-size="10.00" fill="#000000">ft2build.h</text>
</g>
<!-- Node16&#45;&gt;Node18 -->
<g id="edge25" class="edge">
<title>Node16&#45;&gt;Node18</title>
<path fill="none" stroke="#191970" d="M298.4244,-123.4656C268.4344,-114.7198 223.4336,-101.029 185,-87 183.1355,-86.3194 181.2275,-85.5982 179.3089,-84.854"/>
<polygon fill="#191970" stroke="#191970" points="180.3626,-81.5054 169.7788,-81.0211 177.7505,-87.9998 180.3626,-81.5054"/>
</g>
<!-- Node19&#45;&gt;Node7 -->
<g id="edge40" class="edge">
<title>Node19&#45;&gt;Node7</title>
<path fill="none" stroke="#191970" d="M847.4663,-240.9755C817.84,-232.5143 776.1242,-218.4615 743,-199 714.9396,-182.5136 645.8499,-118.6218 613.3848,-88.0201"/>
<polygon fill="#191970" stroke="#191970" points="615.6381,-85.3338 605.9673,-81.0064 610.8287,-90.4201 615.6381,-85.3338"/>
</g>
<!-- Node20 -->
<g id="node21" class="node">
<title>Node20</title>
<g id="a_node21"><a xlink:href="entity_8h.html" target="_top" xlink:title="entity.h">
<polygon fill="none" stroke="#000000" points="751.5,-179.5 751.5,-198.5 800.5,-198.5 800.5,-179.5 751.5,-179.5"/>
<text text-anchor="middle" x="776" y="-186.5" font-family="Helvetica,sans-Serif" font-size="10.00" fill="#000000">entity.h</text>
</a>
</g>
</g>
<!-- Node19&#45;&gt;Node20 -->
<g id="edge29" class="edge">
<title>Node19&#45;&gt;Node20</title>
<path fill="none" stroke="#191970" d="M867.9688,-240.8906C850.211,-230.8713 822.167,-215.0483 801.7118,-203.5071"/>
<polygon fill="#191970" stroke="#191970" points="803.3409,-200.4077 792.9117,-198.5419 799.9011,-206.5042 803.3409,-200.4077"/>
</g>
<!-- Node23 -->
<g id="node24" class="node">
<title>Node23</title>
<polygon fill="none" stroke="#bfbfbf" points="1354,-62 1354,-81 1398,-81 1398,-62 1354,-62"/>
<text text-anchor="middle" x="1376" y="-69" font-family="Helvetica,sans-Serif" font-size="10.00" fill="#000000">vector</text>
</g>
<!-- Node19&#45;&gt;Node23 -->
<g id="edge41" class="edge">
<title>Node19&#45;&gt;Node23</title>
<path fill="none" stroke="#191970" d="M899.1065,-240.9705C941.1058,-212.6683 1063.679,-130.5991 1084,-123 1187.086,-84.4506 1221.8962,-112.3292 1329,-87 1333.8653,-85.8494 1338.947,-84.4211 1343.8954,-82.9007"/>
<polygon fill="#191970" stroke="#191970" points="1345.3171,-86.1194 1353.7535,-79.7102 1343.1616,-79.4595 1345.3171,-86.1194"/>
</g>
<!-- Node24 -->
<g id="node25" class="node">
<title>Node24</title>
<g id="a_node25"><a xlink:href="Lines_8cpp.html" target="_top" xlink:title="../src/Lines.cpp">
<polygon fill="none" stroke="#000000" points="952,-123.5 952,-142.5 1036,-142.5 1036,-123.5 952,-123.5"/>
<text text-anchor="middle" x="994" y="-130.5" font-family="Helvetica,sans-Serif" font-size="10.00" fill="#000000">../src/Lines.cpp</text>
</a>
</g>
</g>
<!-- Node19&#45;&gt;Node24 -->
<g id="edge42" class="edge">
<title>Node19&#45;&gt;Node24</title>
<path fill="none" stroke="#191970" d="M893.9199,-240.8845C912.3634,-221.0028 954.9079,-175.1406 978.1455,-150.0908"/>
<polygon fill="#191970" stroke="#191970" points="980.7218,-152.46 984.9568,-142.7484 975.5899,-147.6993 980.7218,-152.46"/>
</g>
<!-- Node20&#45;&gt;Node5 -->
<g id="edge32" class="edge">
<title>Node20&#45;&gt;Node5</title>
<path fill="none" stroke="#191970" d="M763.8608,-179.1971C753.3837,-170.3826 738.2114,-156.7425 727,-143 713.3955,-126.3241 700.8468,-105.0984 692.662,-90.1192"/>
<polygon fill="#191970" stroke="#191970" points="695.7442,-88.4607 687.9462,-81.2883 689.5694,-91.7581 695.7442,-88.4607"/>
</g>
<!-- Node20&#45;&gt;Node8 -->
<g id="edge33" class="edge">
<title>Node20&#45;&gt;Node8</title>
<path fill="none" stroke="#191970" d="M800.5578,-188.1952C915.5935,-184.3119 1398.2124,-166.7227 1461,-143 1492.06,-131.2648 1521.2771,-105.4785 1538.4017,-88.2972"/>
<polygon fill="#191970" stroke="#191970" points="1540.939,-90.7082 1545.382,-81.0899 1535.9108,-85.8382 1540.939,-90.7082"/>
</g>
<!-- Node20&#45;&gt;Node9 -->
<g id="edge30" class="edge">
<title>Node20&#45;&gt;Node9</title>
<path fill="none" stroke="#191970" d="M751.2901,-186.8266C702.6046,-182.1181 591.1732,-169.2218 501,-143 449.4913,-128.0216 392.6293,-101.8151 359.7392,-85.6305"/>
<polygon fill="#191970" stroke="#191970" points="361.2408,-82.4684 350.7282,-81.151 358.1248,-88.7366 361.2408,-82.4684"/>
</g>
<!-- Node20&#45;&gt;Node11 -->
<g id="edge39" class="edge">
<title>Node20&#45;&gt;Node11</title>
<path fill="none" stroke="#191970" d="M791.0136,-179.1916C802.3094,-170.9511 817.1419,-158.1149 825,-143 844.0167,-106.4216 845.8312,-56.9526 845.1322,-29.8298"/>
<polygon fill="#191970" stroke="#191970" points="848.6229,-29.527 844.7215,-19.6766 841.6286,-29.8099 848.6229,-29.527"/>
</g>
<!-- Node21 -->
<g id="node22" class="node">
<title>Node21</title>
<polygon fill="none" stroke="#bfbfbf" points="736,-123.5 736,-142.5 816,-142.5 816,-123.5 736,-123.5"/>
<text text-anchor="middle" x="776" y="-130.5" font-family="Helvetica,sans-Serif" font-size="10.00" fill="#000000">box2d/box2d.h</text>
</g>
<!-- Node20&#45;&gt;Node21 -->
<g id="edge31" class="edge">
<title>Node20&#45;&gt;Node21</title>
<path fill="none" stroke="#191970" d="M776,-179.2455C776,-171.9382 776,-161.6944 776,-152.7046"/>
<polygon fill="#191970" stroke="#191970" points="779.5001,-152.6426 776,-142.6427 772.5001,-152.6427 779.5001,-152.6426"/>
</g>
<!-- Node22 -->
<g id="node23" class="node">
<title>Node22</title>
<g id="a_node23"><a xlink:href="resource__manager_8h.html" target="_top" xlink:title="resource_manager.h">
<polygon fill="none" stroke="#000000" points="146.5,-123.5 146.5,-142.5 251.5,-142.5 251.5,-123.5 146.5,-123.5"/>
<text text-anchor="middle" x="199" y="-130.5" font-family="Helvetica,sans-Serif" font-size="10.00" fill="#000000">resource_manager.h</text>
</a>
</g>
</g>
<!-- Node20&#45;&gt;Node22 -->
<g id="edge34" class="edge">
<title>Node20&#45;&gt;Node22</title>
<path fill="none" stroke="#191970" d="M751.4901,-187.4581C678.5373,-182.7333 456.2705,-167.3576 261.6617,-143.1359"/>
<polygon fill="#191970" stroke="#191970" points="261.895,-139.6377 251.5368,-141.8644 261.0227,-146.5832 261.895,-139.6377"/>
</g>
<!-- Node22&#45;&gt;Node6 -->
<g id="edge36" class="edge">
<title>Node22&#45;&gt;Node6</title>
<path fill="none" stroke="#191970" d="M149.785,-123.4614C113.3607,-115.2851 68.2022,-102.4043 57,-87 44.1167,-69.2841 56.4216,-44.7369 68.1023,-28.1595"/>
<polygon fill="#191970" stroke="#191970" points="71.1329,-29.9541 74.3635,-19.8638 65.5456,-25.7371 71.1329,-29.9541"/>
</g>
<!-- Node22&#45;&gt;Node9 -->
<g id="edge37" class="edge">
<title>Node22&#45;&gt;Node9</title>
<path fill="none" stroke="#191970" d="M219.7813,-123.3906C241.8394,-113.1908 276.905,-96.9763 301.9669,-85.3875"/>
<polygon fill="#191970" stroke="#191970" points="303.7571,-88.4158 311.3647,-81.0419 300.8191,-82.0622 303.7571,-88.4158"/>
</g>
<!-- Node22&#45;&gt;Node10 -->
<g id="edge38" class="edge">
<title>Node22&#45;&gt;Node10</title>
<path fill="none" stroke="#191970" d="M202.4375,-123.3906C205.5513,-114.6862 210.232,-101.6015 214.114,-90.7494"/>
<polygon fill="#191970" stroke="#191970" points="217.4412,-91.8394 217.514,-81.2449 210.8503,-89.4817 217.4412,-91.8394"/>
</g>
<!-- Node22&#45;&gt;Node17 -->
<g id="edge35" class="edge">
<title>Node22&#45;&gt;Node17</title>
<path fill="none" stroke="#191970" d="M180.0026,-123.3437C162.1018,-114.1802 134.5828,-99.9263 111,-87 110.4668,-86.7077 109.9283,-86.4112 109.386,-86.1114"/>
<polygon fill="#191970" stroke="#191970" points="110.9364,-82.9678 100.5053,-81.1125 107.5028,-89.0678 110.9364,-82.9678"/>
</g>
<!-- Node24&#45;&gt;Node3 -->
<g id="edge47" class="edge">
<title>Node24&#45;&gt;Node3</title>
<path fill="none" stroke="#191970" d="M951.9996,-127.2646C893.7913,-118.9006 791.9271,-102.6441 758,-87 737.8926,-77.7283 739.4374,-64.5196 719,-56 657.4127,-30.3266 461.0098,-16.9083 374.0826,-12.1006"/>
<polygon fill="#191970" stroke="#191970" points="374.2155,-8.6027 364.0408,-11.5567 373.8368,-15.5925 374.2155,-8.6027"/>
</g>
<!-- Node24&#45;&gt;Node4 -->
<g id="edge48" class="edge">
<title>Node24&#45;&gt;Node4</title>
<path fill="none" stroke="#191970" d="M981.1875,-123.3906C968.3099,-113.7324 948.2416,-98.6812 933.028,-87.271"/>
<polygon fill="#191970" stroke="#191970" points="934.8226,-84.2419 924.7225,-81.0419 930.6225,-89.8419 934.8226,-84.2419"/>
</g>
<!-- Node24&#45;&gt;Node5 -->
<g id="edge44" class="edge">
<title>Node24&#45;&gt;Node5</title>
<path fill="none" stroke="#191970" d="M951.8289,-128.3699C898.231,-121.9053 803.1592,-108.4905 724,-87 721.246,-86.2523 718.4191,-85.3911 715.5998,-84.4657"/>
<polygon fill="#191970" stroke="#191970" points="716.7548,-81.1618 706.16,-81.1434 714.4308,-87.7648 716.7548,-81.1618"/>
</g>
<!-- Node24&#45;&gt;Node11 -->
<g id="edge49" class="edge">
<title>Node24&#45;&gt;Node11</title>
<path fill="none" stroke="#191970" d="M1036.1686,-125.2951C1040.8314,-124.4952 1045.5136,-123.7145 1050,-123 1166.5708,-104.4341 1386.2335,-143.4956 1307,-56 1279.292,-25.4027 1000.6499,-14.3401 889.4613,-11.1238"/>
<polygon fill="#191970" stroke="#191970" points="889.3323,-7.6188 879.2379,-10.8366 889.1357,-14.6161 889.3323,-7.6188"/>
</g>
<!-- Node24&#45;&gt;Node23 -->
<g id="edge45" class="edge">
<title>Node24&#45;&gt;Node23</title>
<path fill="none" stroke="#191970" d="M1036.1575,-125.2241C1040.8224,-124.4375 1045.5081,-123.6794 1050,-123 1178.4177,-103.5774 1214.6568,-121.0209 1340,-87 1342.3272,-86.3683 1344.7,-85.6146 1347.0611,-84.7845"/>
<polygon fill="#191970" stroke="#191970" points="1348.5232,-87.9707 1356.5548,-81.061 1345.9673,-81.454 1348.5232,-87.9707"/>
</g>
<!-- Node25 -->
<g id="node26" class="node">
<title>Node25</title>
<polygon fill="none" stroke="#bfbfbf" points="1198.5,-56.5 1198.5,-86.5 1297.5,-86.5 1297.5,-56.5 1198.5,-56.5"/>
<text text-anchor="start" x="1206.5" y="-74.5" font-family="Helvetica,sans-Serif" font-size="10.00" fill="#000000">glm/ext/matrix_clip</text>
<text text-anchor="middle" x="1248" y="-63.5" font-family="Helvetica,sans-Serif" font-size="10.00" fill="#000000">_space.hpp</text>
</g>
<!-- Node24&#45;&gt;Node25 -->
<g id="edge43" class="edge">
<title>Node24&#45;&gt;Node25</title>
<path fill="none" stroke="#191970" d="M1035.9164,-123.4342C1073.3704,-114.8145 1129.986,-101.6085 1188.6374,-87.0569"/>
<polygon fill="#191970" stroke="#191970" points="1189.5903,-90.4265 1198.4488,-84.6146 1187.8994,-83.6338 1189.5903,-90.4265"/>
</g>
<!-- Node26 -->
<g id="node27" class="node">
<title>Node26</title>
<polygon fill="none" stroke="#bfbfbf" points="970.5,-62 970.5,-81 1017.5,-81 1017.5,-62 970.5,-62"/>
<text text-anchor="middle" x="994" y="-69" font-family="Helvetica,sans-Serif" font-size="10.00" fill="#000000">math.h</text>
</g>
<!-- Node24&#45;&gt;Node26 -->
<g id="edge46" class="edge">
<title>Node24&#45;&gt;Node26</title>
<path fill="none" stroke="#191970" d="M994,-123.3906C994,-114.8657 994,-102.1392 994,-91.4235"/>
<polygon fill="#191970" stroke="#191970" points="997.5001,-91.2448 994,-81.2449 990.5001,-91.2449 997.5001,-91.2448"/>
</g>
<!-- Node27 -->
<g id="node28" class="node">
<title>Node27</title>
<polygon fill="none" stroke="#bfbfbf" points="1036,-62 1036,-81 1180,-81 1180,-62 1036,-62"/>
<text text-anchor="middle" x="1108" y="-69" font-family="Helvetica,sans-Serif" font-size="10.00" fill="#000000">glm/gtc/matrix_transform.hpp</text>
</g>
<!-- Node24&#45;&gt;Node27 -->
<g id="edge50" class="edge">
<title>Node24&#45;&gt;Node27</title>
<path fill="none" stroke="#191970" d="M1011.8125,-123.3906C1030.4685,-113.3262 1059.9797,-97.4057 1081.3974,-85.8514"/>
<polygon fill="#191970" stroke="#191970" points="1083.1734,-88.8702 1090.3126,-81.0419 1079.8498,-82.7095 1083.1734,-88.8702"/>
</g>
<!-- Node28&#45;&gt;Node8 -->
<g id="edge52" class="edge">
<title>Node28&#45;&gt;Node8</title>
<path fill="none" stroke="#191970" d="M1405.7725,-123.4245C1436.01,-114.8066 1480.8365,-101.3266 1519,-87 1520.6254,-86.3898 1522.2836,-85.7428 1523.9509,-85.0727"/>
<polygon fill="#191970" stroke="#191970" points="1525.5768,-88.1858 1533.4356,-81.0802 1522.861,-81.7341 1525.5768,-88.1858"/>
</g>
<!-- Node28&#45;&gt;Node23 -->
<g id="edge53" class="edge">
<title>Node28&#45;&gt;Node23</title>
<path fill="none" stroke="#191970" d="M1371.7813,-123.3906C1372.4743,-114.8657 1373.509,-102.1392 1374.3802,-91.4235"/>
<polygon fill="#191970" stroke="#191970" points="1377.8858,-91.4956 1375.2077,-81.2449 1370.9088,-90.9283 1377.8858,-91.4956"/>
</g>
<!-- Node29 -->
<g id="node30" class="node">
<title>Node29</title>
<polygon fill="none" stroke="#bfbfbf" points="1454,-62 1454,-81 1510,-81 1510,-62 1454,-62"/>
<text text-anchor="middle" x="1482" y="-69" font-family="Helvetica,sans-Serif" font-size="10.00" fill="#000000">tinyxml.h</text>
</g>
<!-- Node28&#45;&gt;Node29 -->
<g id="edge54" class="edge">
<title>Node28&#45;&gt;Node29</title>
<path fill="none" stroke="#191970" d="M1388.3438,-123.3906C1406.4273,-113.3713 1434.9859,-97.5483 1455.8165,-86.0071"/>
<polygon fill="#191970" stroke="#191970" points="1457.7271,-88.9498 1464.778,-81.0419 1454.3346,-82.8268 1457.7271,-88.9498"/>
</g>
<!-- Node31 -->
<g id="node32" class="node">
<title>Node31</title>
<g id="a_node32"><a xlink:href="state_8h.html" target="_top" xlink:title="state.h">
<polygon fill="none" stroke="#000000" points="1771.5,-62 1771.5,-81 1818.5,-81 1818.5,-62 1771.5,-62"/>
<text text-anchor="middle" x="1795" y="-69" font-family="Helvetica,sans-Serif" font-size="10.00" fill="#000000">state.h</text>
</a>
</g>
</g>
<!-- Node30&#45;&gt;Node31 -->
<g id="edge56" class="edge">
<title>Node30&#45;&gt;Node31</title>
<path fill="none" stroke="#191970" d="M1571.7504,-243.7234C1632.1313,-233.1493 1728.5312,-206.8237 1781,-143 1792.8933,-128.5328 1795.7123,-106.8829 1795.9752,-91.1981"/>
<polygon fill="#191970" stroke="#191970" points="1799.4719,-90.9607 1795.808,-81.0195 1792.4728,-91.0757 1799.4719,-90.9607"/>
</g>
<!-- Node32 -->
<g id="node33" class="node">
<title>Node32</title>
<g id="a_node33"><a xlink:href="game_8h.html" target="_top" xlink:title="game.h">
<polygon fill="none" stroke="#000000" points="1493.5,-179.5 1493.5,-198.5 1542.5,-198.5 1542.5,-179.5 1493.5,-179.5"/>
<text text-anchor="middle" x="1518" y="-186.5" font-family="Helvetica,sans-Serif" font-size="10.00" fill="#000000">game.h</text>
</a>
</g>
</g>
<!-- Node30&#45;&gt;Node32 -->
<g id="edge57" class="edge">
<title>Node30&#45;&gt;Node32</title>
<path fill="none" stroke="#191970" d="M1518,-235.2977C1518,-227.3834 1518,-217.6043 1518,-209.0759"/>
<polygon fill="#191970" stroke="#191970" points="1521.5001,-208.8469 1518,-198.8469 1514.5001,-208.847 1521.5001,-208.8469"/>
</g>
<!-- Node32&#45;&gt;Node4 -->
<g id="edge68" class="edge">
<title>Node32&#45;&gt;Node4</title>
<path fill="none" stroke="#191970" d="M1493.3656,-188.5076C1389.2174,-186.2287 988.3131,-175.4015 943,-143 926.1177,-130.9281 918.3368,-107.651 914.8117,-90.9318"/>
<polygon fill="#191970" stroke="#191970" points="918.2556,-90.3072 913.0569,-81.0755 911.364,-91.5342 918.2556,-90.3072"/>
</g>
<!-- Node32&#45;&gt;Node5 -->
<g id="edge59" class="edge">
<title>Node32&#45;&gt;Node5</title>
<path fill="none" stroke="#191970" d="M1493.3857,-188.7452C1411.5539,-187.5492 1141.3757,-180.7969 922,-143 875.0383,-134.9088 759.6384,-103.6818 715,-87 713.5905,-86.4733 712.1594,-85.9063 710.7234,-85.3116"/>
<polygon fill="#191970" stroke="#191970" points="711.9136,-82.0097 701.3566,-81.1154 709.0517,-88.3979 711.9136,-82.0097"/>
</g>
<!-- Node32&#45;&gt;Node8 -->
<g id="edge58" class="edge">
<title>Node32&#45;&gt;Node8</title>
<path fill="none" stroke="#191970" d="M1520.7148,-179.1248C1524.3002,-166.1896 1530.8774,-142.8232 1537,-123 1540.2705,-112.4112 1544.1273,-100.6725 1547.3399,-91.0798"/>
<polygon fill="#191970" stroke="#191970" points="1550.7466,-91.9309 1550.6278,-81.3367 1544.114,-89.6927 1550.7466,-91.9309"/>
</g>
<!-- Node33 -->
<g id="node34" class="node">
<title>Node33</title>
<g id="a_node34"><a xlink:href="Orthographic__camera_8h.html" target="_top" xlink:title="Orthographic_camera.h">
<polygon fill="none" stroke="#000000" points="1546,-123.5 1546,-142.5 1664,-142.5 1664,-123.5 1546,-123.5"/>
<text text-anchor="middle" x="1605" y="-130.5" font-family="Helvetica,sans-Serif" font-size="10.00" fill="#000000">Orthographic_camera.h</text>
</a>
</g>
</g>
<!-- Node32&#45;&gt;Node33 -->
<g id="edge60" class="edge">
<title>Node32&#45;&gt;Node33</title>
<path fill="none" stroke="#191970" d="M1533.1542,-179.2455C1546.5027,-170.6534 1566.1586,-158.0014 1581.5383,-148.1018"/>
<polygon fill="#191970" stroke="#191970" points="1583.5051,-150.9982 1590.0194,-142.6427 1579.7164,-145.1121 1583.5051,-150.9982"/>
</g>
<!-- Node35 -->
<g id="node36" class="node">
<title>Node35</title>
<g id="a_node36"><a xlink:href="state__machine_8h.html" target="_top" xlink:title="state_machine.h">
<polygon fill="none" stroke="#000000" points="1682.5,-123.5 1682.5,-142.5 1771.5,-142.5 1771.5,-123.5 1682.5,-123.5"/>
<text text-anchor="middle" x="1727" y="-130.5" font-family="Helvetica,sans-Serif" font-size="10.00" fill="#000000">state_machine.h</text>
</a>
</g>
</g>
<!-- Node32&#45;&gt;Node35 -->
<g id="edge63" class="edge">
<title>Node32&#45;&gt;Node35</title>
<path fill="none" stroke="#191970" d="M1542.7958,-182.3562C1576.9311,-173.2099 1639.0019,-156.5784 1681.5816,-145.1695"/>
<polygon fill="#191970" stroke="#191970" points="1682.6687,-148.5018 1691.4221,-142.5328 1680.8569,-141.7403 1682.6687,-148.5018"/>
</g>
<!-- Node33&#45;&gt;Node11 -->
<g id="edge62" class="edge">
<title>Node33&#45;&gt;Node11</title>
<path fill="none" stroke="#191970" d="M1606.2941,-123.4097C1607.931,-106.813 1608.5058,-72.8949 1589,-56 1562.4886,-33.0372 1047.8671,-16.0109 889.7886,-11.306"/>
<polygon fill="#191970" stroke="#191970" points="889.566,-7.798 879.467,-11.0013 889.3593,-14.7949 889.566,-7.798"/>
</g>
<!-- Node34 -->
<g id="node35" class="node">
<title>Node34</title>
<polygon fill="none" stroke="#bfbfbf" points="1642.5,-62 1642.5,-81 1685.5,-81 1685.5,-62 1642.5,-62"/>
<text text-anchor="middle" x="1664" y="-69" font-family="Helvetica,sans-Serif" font-size="10.00" fill="#000000">cstdio</text>
</g>
<!-- Node33&#45;&gt;Node34 -->
<g id="edge61" class="edge">
<title>Node33&#45;&gt;Node34</title>
<path fill="none" stroke="#191970" d="M1614.2188,-123.3906C1623.0858,-114.1478 1636.6912,-99.966 1647.4389,-88.7628"/>
<polygon fill="#191970" stroke="#191970" points="1650.2541,-90.8841 1654.6513,-81.2449 1645.2027,-86.0381 1650.2541,-90.8841"/>
</g>
<!-- Node35&#45;&gt;Node8 -->
<g id="edge65" class="edge">
<title>Node35&#45;&gt;Node8</title>
<path fill="none" stroke="#191970" d="M1699.9688,-123.3906C1670.3426,-112.8588 1622.6775,-95.9143 1589.9245,-84.2708"/>
<polygon fill="#191970" stroke="#191970" points="1590.8697,-80.8923 1580.275,-80.8405 1588.525,-87.488 1590.8697,-80.8923"/>
</g>
<!-- Node35&#45;&gt;Node31 -->
<g id="edge67" class="edge">
<title>Node35&#45;&gt;Node31</title>
<path fill="none" stroke="#191970" d="M1737.625,-123.3906C1748.0431,-113.9683 1764.1364,-99.4134 1776.6304,-88.1137"/>
<polygon fill="#191970" stroke="#191970" points="1779.1562,-90.5484 1784.2252,-81.2449 1774.4608,-85.3568 1779.1562,-90.5484"/>
</g>
<!-- Node35&#45;&gt;Node34 -->
<g id="edge64" class="edge">
<title>Node35&#45;&gt;Node34</title>
<path fill="none" stroke="#191970" d="M1717.1563,-123.3906C1707.5961,-114.0581 1692.8777,-99.6902 1681.3505,-88.4374"/>
<polygon fill="#191970" stroke="#191970" points="1683.5832,-85.7257 1673.9825,-81.2449 1678.6934,-90.7348 1683.5832,-85.7257"/>
</g>
<!-- Node36 -->
<g id="node37" class="node">
<title>Node36</title>
<polygon fill="none" stroke="#bfbfbf" points="1706.5,-62 1706.5,-81 1747.5,-81 1747.5,-62 1706.5,-62"/>
<text text-anchor="middle" x="1727" y="-69" font-family="Helvetica,sans-Serif" font-size="10.00" fill="#000000">stack</text>
</g>
<!-- Node35&#45;&gt;Node36 -->
<g id="edge66" class="edge">
<title>Node35&#45;&gt;Node36</title>
<path fill="none" stroke="#191970" d="M1727,-123.3906C1727,-114.8657 1727,-102.1392 1727,-91.4235"/>
<polygon fill="#191970" stroke="#191970" points="1730.5001,-91.2448 1727,-81.2449 1723.5001,-91.2449 1730.5001,-91.2448"/>
</g>
<!-- Node37&#45;&gt;Node5 -->
<g id="edge71" class="edge">
<title>Node37&#45;&gt;Node5</title>
<path fill="none" stroke="#191970" d="M1092.4759,-126.9614C1000.1592,-116.9958 821.0021,-97.1965 758,-87 745.7167,-85.012 732.391,-82.4061 720.4268,-79.8997"/>
<polygon fill="#191970" stroke="#191970" points="720.8342,-76.4078 710.3236,-77.7407 719.3714,-83.2533 720.8342,-76.4078"/>
</g>
<!-- Node37&#45;&gt;Node14 -->
<g id="edge70" class="edge">
<title>Node37&#45;&gt;Node14</title>
<path fill="none" stroke="#191970" d="M1205.6875,-126.7549C1277.6859,-118.2437 1394.1831,-102.3042 1407,-87 1415.8461,-76.4372 1415.7525,-66.6406 1407,-56 1381.9921,-25.5974 1265.0176,-14.9801 1206.5065,-11.5299"/>
<polygon fill="#191970" stroke="#191970" points="1206.4747,-8.0229 1196.2969,-10.9659 1206.0886,-15.0123 1206.4747,-8.0229"/>
</g>
</g>
</svg>
        <g id="navigator" transform="translate(0 0)" fill="#404254">
                <rect fill="#f2f5e9" fill-opacity="0.5" stroke="#606060" stroke-width=".5" x="0" y="0" width="60" height="60"/>
                <use id="zoomplus" xlink:href="#zoomPlus" x="17" y="9" onmousedown="handleZoom(evt,'in')"/>
                <use id="zoomminus" xlink:href="#zoomMin" x="42" y="9" onmousedown="handleZoom(evt,'out')"/>
                <use id="reset" xlink:href="#resetDef" x="30" y="36" onmousedown="handleReset()"/>
                <g id="arrowUp" xlink:href="#dirArrow" transform="translate(30 24)" onmousedown="handlePan(0,-1)">
                  <use xlink:href="#rim" fill="#404040">
                        <set attributeName="fill" to="#808080" begin="arrowUp.mouseover" end="arrowUp.mouseout"/>
                  </use>
                  <path fill="none" stroke="white" stroke-width="1.5" d="M0,-3.0v7 M-2.5,-0.5L0,-3.0L2.5,-0.5"/>
                </g>
                <g id="arrowRight" xlink:href="#dirArrow" transform="rotate(90) translate(36 -43)" onmousedown="handlePan(1,0)">
                  <use xlink:href="#rim" fill="#404040">
                        <set attributeName="fill" to="#808080" begin="arrowRight.mouseover" end="arrowRight.mouseout"/>
                  </use>
                  <path fill="none" stroke="white" stroke-width="1.5" d="M0,-3.0v7 M-2.5,-0.5L0,-3.0L2.5,-0.5"/>
                </g>
                <g id="arrowDown" xlink:href="#dirArrow" transform="rotate(180) translate(-30 -48)" onmousedown="handlePan(0,1)">
                  <use xlink:href="#rim" fill="#404040">
                        <set attributeName="fill" to="#808080" begin="arrowDown.mouseover" end="arrowDown.mouseout"/>
                  </use>
                  <path fill="none" stroke="white" stroke-width="1.5" d="M0,-3.0v7 M-2.5,-0.5L0,-3.0L2.5,-0.5"/>
                </g>
                <g id="arrowLeft" xlink:href="#dirArrow" transform="rotate(270) translate(-36 17)" onmousedown="handlePan(-1,0)">
                  <use xlink:href="#rim" fill="#404040">
                        <set attributeName="fill" to="#808080" begin="arrowLeft.mouseover" end="arrowLeft.mouseout"/>
                  </use>
                  <path fill="none" stroke="white" stroke-width="1.5" d="M0,-3.0v7 M-2.5,-0.5L0,-3.0L2.5,-0.5"/>
                </g>
        </g>
        <svg viewBox="0 0 15 15" width="100%" height="30px" preserveAspectRatio="xMaxYMin meet">
         <g id="arrow_out" transform="scale(0.3 0.3)">
          <a xlink:href="game__play__state_8cpp__incl_org.svg" target="_base">
           <rect id="button" ry="5" rx="5" y="6" x="6" height="38" width="38"
                fill="#f2f5e9" fill-opacity="0.5" stroke="#606060" stroke-width="1.0"/>
           <path id="arrow"
             d="M 11.500037,31.436501 C 11.940474,20.09759 22.043105,11.32322 32.158766,21.979434 L 37.068811,17.246167 C 37.068811,17.246167 37.088388,32 37.088388,32 L 22.160133,31.978069 C 22.160133,31.978069 26.997745,27.140456 26.997745,27.140456 C 18.528582,18.264221 13.291696,25.230495 11.500037,31.436501 z"
             style="fill:#404040;"/>
          </a>
         </g>
        </svg>
</svg>
