<?xml version="1.0" encoding="UTF-8" standalone="no"?>
<!DOCTYPE svg PUBLIC "-//W3C//DTD SVG 1.1//EN"
 "http://www.w3.org/Graphics/SVG/1.1/DTD/svg11.dtd">
<!-- Generated by graphviz version 2.40.1 (20161225.0304)
 -->
<!-- Title: /mnt/hdd/C0de/smart_engine/include/game_over_state.h Pages: 1 -->
<svg width="494pt" height="218pt"
 viewBox="0.00 0.00 493.50 218.00" xmlns="http://www.w3.org/2000/svg" xmlns:xlink="http://www.w3.org/1999/xlink">
<g id="graph0" class="graph" transform="scale(1 1) rotate(0) translate(4 214)">
<title>/mnt/hdd/C0de/smart_engine/include/game_over_state.h</title>
<!-- Node0 -->
<g id="node1" class="node">
<title>Node0</title>
<polygon fill="#bfbfbf" stroke="#000000" points="23,-168.5 23,-209.5 134,-209.5 134,-168.5 23,-168.5"/>
<text text-anchor="start" x="31" y="-197.5" font-family="Helvetica,sans-Serif" font-size="10.00" fill="#000000">/mnt/hdd/C0de/smart</text>
<text text-anchor="start" x="31" y="-186.5" font-family="Helvetica,sans-Serif" font-size="10.00" fill="#000000">_engine/include/game</text>
<text text-anchor="middle" x="78.5" y="-175.5" font-family="Helvetica,sans-Serif" font-size="10.00" fill="#000000">_over_state.h</text>
</g>
<!-- Node1 -->
<g id="node2" class="node">
<title>Node1</title>
<g id="a_node2"><a xlink:href="state_8h.html" target="_top" xlink:title="state.h">
<polygon fill="none" stroke="#000000" points="0,-.5 0,-19.5 47,-19.5 47,-.5 0,-.5"/>
<text text-anchor="middle" x="23.5" y="-7.5" font-family="Helvetica,sans-Serif" font-size="10.00" fill="#000000">state.h</text>
</a>
</g>
</g>
<!-- Node0&#45;&gt;Node1 -->
<g id="edge1" class="edge">
<title>Node0&#45;&gt;Node1</title>
<path fill="none" stroke="#191970" d="M72.1908,-168.4664C61.4973,-133.6639 39.9568,-63.5593 29.4862,-29.4824"/>
<polygon fill="#191970" stroke="#191970" points="32.7863,-28.3058 26.5034,-19.7749 26.095,-30.3618 32.7863,-28.3058"/>
</g>
<!-- Node2 -->
<g id="node3" class="node">
<title>Node2</title>
<g id="a_node3"><a xlink:href="game_8h.html" target="_top" xlink:title="game.h">
<polygon fill="none" stroke="#000000" points="155,-112.5 155,-131.5 204,-131.5 204,-112.5 155,-112.5"/>
<text text-anchor="middle" x="179.5" y="-119.5" font-family="Helvetica,sans-Serif" font-size="10.00" fill="#000000">game.h</text>
</a>
</g>
</g>
<!-- Node0&#45;&gt;Node2 -->
<g id="edge2" class="edge">
<title>Node0&#45;&gt;Node2</title>
<path fill="none" stroke="#191970" d="M109.6275,-168.3511C124.7472,-158.3212 142.5978,-146.4797 156.4717,-137.2762"/>
<polygon fill="#191970" stroke="#191970" points="158.5476,-140.0992 164.946,-131.6546 154.678,-134.266 158.5476,-140.0992"/>
</g>
<!-- Node3 -->
<g id="node4" class="node">
<title>Node3</title>
<polygon fill="none" stroke="#bfbfbf" points="65.5,-.5 65.5,-19.5 117.5,-19.5 117.5,-.5 65.5,-.5"/>
<text text-anchor="middle" x="91.5" y="-7.5" font-family="Helvetica,sans-Serif" font-size="10.00" fill="#000000">memory</text>
</g>
<!-- Node2&#45;&gt;Node3 -->
<g id="edge3" class="edge">
<title>Node2&#45;&gt;Node3</title>
<path fill="none" stroke="#191970" d="M154.6119,-118.1338C130.9729,-112.9961 96.7084,-101.4038 80.5,-76 71.5505,-61.9732 76.0592,-42.9813 81.7678,-28.9715"/>
<polygon fill="#191970" stroke="#191970" points="84.9891,-30.343 85.9613,-19.7928 78.6221,-27.434 84.9891,-30.343"/>
</g>
<!-- Node4 -->
<g id="node5" class="node">
<title>Node4</title>
<polygon fill="none" stroke="#bfbfbf" points="197.5,-56.5 197.5,-75.5 251.5,-75.5 251.5,-56.5 197.5,-56.5"/>
<text text-anchor="middle" x="224.5" y="-63.5" font-family="Helvetica,sans-Serif" font-size="10.00" fill="#000000">iostream</text>
</g>
<!-- Node2&#45;&gt;Node4 -->
<g id="edge4" class="edge">
<title>Node2&#45;&gt;Node4</title>
<path fill="none" stroke="#191970" d="M187.3384,-112.2455C193.662,-104.3761 202.7224,-93.101 210.3136,-83.6542"/>
<polygon fill="#191970" stroke="#191970" points="213.2158,-85.6302 216.7514,-75.6427 207.7592,-81.2454 213.2158,-85.6302"/>
</g>
<!-- Node5 -->
<g id="node6" class="node">
<title>Node5</title>
<g id="a_node6"><a xlink:href="Orthographic__camera_8h.html" target="_top" xlink:title="Orthographic_camera.h">
<polygon fill="none" stroke="#000000" points="269.5,-56.5 269.5,-75.5 387.5,-75.5 387.5,-56.5 269.5,-56.5"/>
<text text-anchor="middle" x="328.5" y="-63.5" font-family="Helvetica,sans-Serif" font-size="10.00" fill="#000000">Orthographic_camera.h</text>
</a>
</g>
</g>
<!-- Node2&#45;&gt;Node5 -->
<g id="edge5" class="edge">
<title>Node2&#45;&gt;Node5</title>
<path fill="none" stroke="#191970" d="M204.1043,-112.7527C228.4712,-103.5947 266.0177,-89.4833 293.4888,-79.1586"/>
<polygon fill="#191970" stroke="#191970" points="294.9814,-82.3367 303.1107,-75.5423 292.5187,-75.7842 294.9814,-82.3367"/>
</g>
<!-- Node8 -->
<g id="node9" class="node">
<title>Node8</title>
<g id="a_node9"><a xlink:href="state__machine_8h.html" target="_top" xlink:title="state_machine.h">
<polygon fill="none" stroke="#000000" points="90,-56.5 90,-75.5 179,-75.5 179,-56.5 90,-56.5"/>
<text text-anchor="middle" x="134.5" y="-63.5" font-family="Helvetica,sans-Serif" font-size="10.00" fill="#000000">state_machine.h</text>
</a>
</g>
</g>
<!-- Node2&#45;&gt;Node8 -->
<g id="edge8" class="edge">
<title>Node2&#45;&gt;Node8</title>
<path fill="none" stroke="#191970" d="M171.6616,-112.2455C165.338,-104.3761 156.2776,-93.101 148.6864,-83.6542"/>
<polygon fill="#191970" stroke="#191970" points="151.2408,-81.2454 142.2486,-75.6427 145.7842,-85.6302 151.2408,-81.2454"/>
</g>
<!-- Node10 -->
<g id="node11" class="node">
<title>Node10</title>
<polygon fill="none" stroke="#bfbfbf" points="405.5,-56.5 405.5,-75.5 485.5,-75.5 485.5,-56.5 405.5,-56.5"/>
<text text-anchor="middle" x="445.5" y="-63.5" font-family="Helvetica,sans-Serif" font-size="10.00" fill="#000000">GLFW/glfw3.h</text>
</g>
<!-- Node2&#45;&gt;Node10 -->
<g id="edge13" class="edge">
<title>Node2&#45;&gt;Node10</title>
<path fill="none" stroke="#191970" d="M204.0479,-116.832C247.3625,-107.7132 338.1625,-88.5974 395.2381,-76.5815"/>
<polygon fill="#191970" stroke="#191970" points="396.072,-79.9827 405.1365,-74.4976 394.6299,-73.1328 396.072,-79.9827"/>
</g>
<!-- Node6 -->
<g id="node7" class="node">
<title>Node6</title>
<polygon fill="none" stroke="#bfbfbf" points="214,-.5 214,-19.5 257,-19.5 257,-.5 214,-.5"/>
<text text-anchor="middle" x="235.5" y="-7.5" font-family="Helvetica,sans-Serif" font-size="10.00" fill="#000000">cstdio</text>
</g>
<!-- Node5&#45;&gt;Node6 -->
<g id="edge6" class="edge">
<title>Node5&#45;&gt;Node6</title>
<path fill="none" stroke="#191970" d="M312.3006,-56.2455C297.8982,-47.5731 276.6268,-34.7645 260.1201,-24.825"/>
<polygon fill="#191970" stroke="#191970" points="261.886,-21.8028 251.5137,-19.6427 258.275,-27.7996 261.886,-21.8028"/>
</g>
<!-- Node7 -->
<g id="node8" class="node">
<title>Node7</title>
<polygon fill="none" stroke="#bfbfbf" points="293.5,-.5 293.5,-19.5 363.5,-19.5 363.5,-.5 293.5,-.5"/>
<text text-anchor="middle" x="328.5" y="-7.5" font-family="Helvetica,sans-Serif" font-size="10.00" fill="#000000">glm/glm.hpp</text>
</g>
<!-- Node5&#45;&gt;Node7 -->
<g id="edge7" class="edge">
<title>Node5&#45;&gt;Node7</title>
<path fill="none" stroke="#191970" d="M328.5,-56.2455C328.5,-48.9382 328.5,-38.6944 328.5,-29.7046"/>
<polygon fill="#191970" stroke="#191970" points="332.0001,-29.6426 328.5,-19.6427 325.0001,-29.6427 332.0001,-29.6426"/>
</g>
<!-- Node8&#45;&gt;Node1 -->
<g id="edge12" class="edge">
<title>Node8&#45;&gt;Node1</title>
<path fill="none" stroke="#191970" d="M115.4184,-56.3733C97.7598,-47.4644 71.2947,-34.1127 51.2902,-24.0203"/>
<polygon fill="#191970" stroke="#191970" points="52.8372,-20.8806 42.3326,-19.5011 49.6842,-27.1303 52.8372,-20.8806"/>
</g>
<!-- Node8&#45;&gt;Node3 -->
<g id="edge10" class="edge">
<title>Node8&#45;&gt;Node3</title>
<path fill="none" stroke="#191970" d="M127.01,-56.2455C120.9674,-48.3761 112.3097,-37.101 105.0559,-27.6542"/>
<polygon fill="#191970" stroke="#191970" points="107.7705,-25.4426 98.9042,-19.6427 102.2185,-29.7058 107.7705,-25.4426"/>
</g>
<!-- Node8&#45;&gt;Node6 -->
<g id="edge9" class="edge">
<title>Node8&#45;&gt;Node6</title>
<path fill="none" stroke="#191970" d="M152.0929,-56.2455C167.879,-47.4928 191.2639,-34.527 209.2587,-24.5496"/>
<polygon fill="#191970" stroke="#191970" points="211.0603,-27.5528 218.1087,-19.6427 207.6659,-21.4308 211.0603,-27.5528"/>
</g>
<!-- Node9 -->
<g id="node10" class="node">
<title>Node9</title>
<polygon fill="none" stroke="#bfbfbf" points="136,-.5 136,-19.5 177,-19.5 177,-.5 136,-.5"/>
<text text-anchor="middle" x="156.5" y="-7.5" font-family="Helvetica,sans-Serif" font-size="10.00" fill="#000000">stack</text>
</g>
<!-- Node8&#45;&gt;Node9 -->
<g id="edge11" class="edge">
<title>Node8&#45;&gt;Node9</title>
<path fill="none" stroke="#191970" d="M138.3321,-56.2455C141.2659,-48.7776 145.4047,-38.2427 148.991,-29.1137"/>
<polygon fill="#191970" stroke="#191970" points="152.3129,-30.23 152.7118,-19.6427 145.7976,-27.6704 152.3129,-30.23"/>
</g>
</g>
</svg>
