<?xml version="1.0" encoding="UTF-8" standalone="no"?>
<!DOCTYPE svg PUBLIC "-//W3C//DTD SVG 1.1//EN"
 "http://www.w3.org/Graphics/SVG/1.1/DTD/svg11.dtd">
<!-- Generated by graphviz version 2.40.1 (20161225.0304)
 -->
<!-- Title: /mnt/hdd/C0de/smart_engine/include/game.h Pages: 1 -->
<svg width="467pt" height="151pt"
 viewBox="0.00 0.00 467.00 151.00" xmlns="http://www.w3.org/2000/svg" xmlns:xlink="http://www.w3.org/1999/xlink">
<g id="graph0" class="graph" transform="scale(1 1) rotate(0) translate(4 147)">
<title>/mnt/hdd/C0de/smart_engine/include/game.h</title>
<!-- Node0 -->
<g id="node1" class="node">
<title>Node0</title>
<polygon fill="#bfbfbf" stroke="#000000" points="184.5,-112.5 184.5,-142.5 303.5,-142.5 303.5,-112.5 184.5,-112.5"/>
<text text-anchor="start" x="192.5" y="-130.5" font-family="Helvetica,sans-Serif" font-size="10.00" fill="#000000">/mnt/hdd/C0de/smart</text>
<text text-anchor="middle" x="244" y="-119.5" font-family="Helvetica,sans-Serif" font-size="10.00" fill="#000000">_engine/include/game.h</text>
</g>
<!-- Node1 -->
<g id="node2" class="node">
<title>Node1</title>
<polygon fill="none" stroke="#bfbfbf" points="150,-.5 150,-19.5 202,-19.5 202,-.5 150,-.5"/>
<text text-anchor="middle" x="176" y="-7.5" font-family="Helvetica,sans-Serif" font-size="10.00" fill="#000000">memory</text>
</g>
<!-- Node0&#45;&gt;Node1 -->
<g id="edge1" class="edge">
<title>Node0&#45;&gt;Node1</title>
<path fill="none" stroke="#191970" d="M223.5301,-112.4896C212.2901,-103.1945 199.0401,-90.3195 191,-76 182.9999,-61.7517 179.2651,-43.5079 177.5224,-29.8137"/>
<polygon fill="#191970" stroke="#191970" points="180.9741,-29.1613 176.4771,-19.5683 174.0102,-29.8719 180.9741,-29.1613"/>
</g>
<!-- Node2 -->
<g id="node3" class="node">
<title>Node2</title>
<polygon fill="none" stroke="#bfbfbf" points="307,-56.5 307,-75.5 361,-75.5 361,-56.5 307,-56.5"/>
<text text-anchor="middle" x="334" y="-63.5" font-family="Helvetica,sans-Serif" font-size="10.00" fill="#000000">iostream</text>
</g>
<!-- Node0&#45;&gt;Node2 -->
<g id="edge2" class="edge">
<title>Node0&#45;&gt;Node2</title>
<path fill="none" stroke="#191970" d="M266.2472,-112.2977C279.9967,-102.9022 297.5921,-90.8787 311.4057,-81.4395"/>
<polygon fill="#191970" stroke="#191970" points="313.5768,-84.195 319.8586,-75.6633 309.6275,-78.4155 313.5768,-84.195"/>
</g>
<!-- Node3 -->
<g id="node4" class="node">
<title>Node3</title>
<g id="a_node4"><a xlink:href="Orthographic__camera_8h.html" target="_top" xlink:title="Orthographic_camera.h">
<polygon fill="none" stroke="#000000" points="25,-56.5 25,-75.5 143,-75.5 143,-56.5 25,-56.5"/>
<text text-anchor="middle" x="84" y="-63.5" font-family="Helvetica,sans-Serif" font-size="10.00" fill="#000000">Orthographic_camera.h</text>
</a>
</g>
</g>
<!-- Node0&#45;&gt;Node3 -->
<g id="edge3" class="edge">
<title>Node0&#45;&gt;Node3</title>
<path fill="none" stroke="#191970" d="M204.8596,-112.4554C178.3974,-102.284 143.7819,-88.9787 118.3817,-79.2155"/>
<polygon fill="#191970" stroke="#191970" points="119.3843,-75.8512 108.7943,-75.5303 116.8728,-82.3852 119.3843,-75.8512"/>
</g>
<!-- Node6 -->
<g id="node7" class="node">
<title>Node6</title>
<g id="a_node7"><a xlink:href="state__machine_8h.html" target="_top" xlink:title="state_machine.h">
<polygon fill="none" stroke="#000000" points="199.5,-56.5 199.5,-75.5 288.5,-75.5 288.5,-56.5 199.5,-56.5"/>
<text text-anchor="middle" x="244" y="-63.5" font-family="Helvetica,sans-Serif" font-size="10.00" fill="#000000">state_machine.h</text>
</a>
</g>
</g>
<!-- Node0&#45;&gt;Node6 -->
<g id="edge6" class="edge">
<title>Node0&#45;&gt;Node6</title>
<path fill="none" stroke="#191970" d="M244,-112.2977C244,-104.3834 244,-94.6043 244,-86.0759"/>
<polygon fill="#191970" stroke="#191970" points="247.5001,-85.8469 244,-75.8469 240.5001,-85.847 247.5001,-85.8469"/>
</g>
<!-- Node9 -->
<g id="node10" class="node">
<title>Node9</title>
<polygon fill="none" stroke="#bfbfbf" points="379,-56.5 379,-75.5 459,-75.5 459,-56.5 379,-56.5"/>
<text text-anchor="middle" x="419" y="-63.5" font-family="Helvetica,sans-Serif" font-size="10.00" fill="#000000">GLFW/glfw3.h</text>
</g>
<!-- Node0&#45;&gt;Node9 -->
<g id="edge11" class="edge">
<title>Node0&#45;&gt;Node9</title>
<path fill="none" stroke="#191970" d="M286.8098,-112.4554C316.009,-102.194 354.2843,-88.7429 382.1302,-78.9571"/>
<polygon fill="#191970" stroke="#191970" points="383.6073,-82.1479 391.8812,-75.5303 381.2864,-75.5439 383.6073,-82.1479"/>
</g>
<!-- Node4 -->
<g id="node5" class="node">
<title>Node4</title>
<polygon fill="none" stroke="#bfbfbf" points="88.5,-.5 88.5,-19.5 131.5,-19.5 131.5,-.5 88.5,-.5"/>
<text text-anchor="middle" x="110" y="-7.5" font-family="Helvetica,sans-Serif" font-size="10.00" fill="#000000">cstdio</text>
</g>
<!-- Node3&#45;&gt;Node4 -->
<g id="edge4" class="edge">
<title>Node3&#45;&gt;Node4</title>
<path fill="none" stroke="#191970" d="M88.5289,-56.2455C92.0334,-48.6973 96.9927,-38.0158 101.2623,-28.8197"/>
<polygon fill="#191970" stroke="#191970" points="104.4864,-30.1867 105.523,-19.6427 98.1373,-27.2389 104.4864,-30.1867"/>
</g>
<!-- Node5 -->
<g id="node6" class="node">
<title>Node5</title>
<polygon fill="none" stroke="#bfbfbf" points="0,-.5 0,-19.5 70,-19.5 70,-.5 0,-.5"/>
<text text-anchor="middle" x="35" y="-7.5" font-family="Helvetica,sans-Serif" font-size="10.00" fill="#000000">glm/glm.hpp</text>
</g>
<!-- Node3&#45;&gt;Node5 -->
<g id="edge5" class="edge">
<title>Node3&#45;&gt;Node5</title>
<path fill="none" stroke="#191970" d="M75.4649,-56.2455C68.5088,-48.2958 58.5117,-36.8706 50.1949,-27.3656"/>
<polygon fill="#191970" stroke="#191970" points="52.6564,-24.8637 43.4373,-19.6427 47.3884,-29.4732 52.6564,-24.8637"/>
</g>
<!-- Node6&#45;&gt;Node1 -->
<g id="edge8" class="edge">
<title>Node6&#45;&gt;Node1</title>
<path fill="none" stroke="#191970" d="M232.1553,-56.2455C222.112,-47.9746 207.5005,-35.9416 195.6996,-26.2232"/>
<polygon fill="#191970" stroke="#191970" points="197.6533,-23.298 187.709,-19.6427 193.2033,-28.7015 197.6533,-23.298"/>
</g>
<!-- Node6&#45;&gt;Node4 -->
<g id="edge7" class="edge">
<title>Node6&#45;&gt;Node4</title>
<path fill="none" stroke="#191970" d="M220.9646,-56.3733C198.9981,-47.1932 165.7433,-33.2957 141.3654,-23.1079"/>
<polygon fill="#191970" stroke="#191970" points="142.4238,-19.7569 131.8475,-19.1303 139.7246,-26.2156 142.4238,-19.7569"/>
</g>
<!-- Node7 -->
<g id="node8" class="node">
<title>Node7</title>
<polygon fill="none" stroke="#bfbfbf" points="285.5,-.5 285.5,-19.5 326.5,-19.5 326.5,-.5 285.5,-.5"/>
<text text-anchor="middle" x="306" y="-7.5" font-family="Helvetica,sans-Serif" font-size="10.00" fill="#000000">stack</text>
</g>
<!-- Node6&#45;&gt;Node7 -->
<g id="edge9" class="edge">
<title>Node6&#45;&gt;Node7</title>
<path fill="none" stroke="#191970" d="M254.7996,-56.2455C263.8678,-48.0549 277.0206,-36.1749 287.7245,-26.5069"/>
<polygon fill="#191970" stroke="#191970" points="290.2491,-28.9429 295.3242,-19.6427 285.5571,-23.7482 290.2491,-28.9429"/>
</g>
<!-- Node8 -->
<g id="node9" class="node">
<title>Node8</title>
<g id="a_node9"><a xlink:href="state_8h.html" target="_top" xlink:title="state.h">
<polygon fill="none" stroke="#000000" points="220.5,-.5 220.5,-19.5 267.5,-19.5 267.5,-.5 220.5,-.5"/>
<text text-anchor="middle" x="244" y="-7.5" font-family="Helvetica,sans-Serif" font-size="10.00" fill="#000000">state.h</text>
</a>
</g>
</g>
<!-- Node6&#45;&gt;Node8 -->
<g id="edge10" class="edge">
<title>Node6&#45;&gt;Node8</title>
<path fill="none" stroke="#191970" d="M244,-56.2455C244,-48.9382 244,-38.6944 244,-29.7046"/>
<polygon fill="#191970" stroke="#191970" points="247.5001,-29.6426 244,-19.6427 240.5001,-29.6427 247.5001,-29.6426"/>
</g>
</g>
</svg>
