<?xml version="1.0" encoding="UTF-8" standalone="no"?>
<!DOCTYPE svg PUBLIC "-//W3C//DTD SVG 1.1//EN"
 "http://www.w3.org/Graphics/SVG/1.1/DTD/svg11.dtd">
<!-- Generated by graphviz version 2.40.1 (20161225.0304)
 -->
<!-- Title: /mnt/hdd/C0de/smart_engine/src/game.cpp Pages: 1 -->
<svg width="1847pt" height="352pt"
 viewBox="0.00 0.00 1846.74 352.00" xmlns="http://www.w3.org/2000/svg" xmlns:xlink="http://www.w3.org/1999/xlink">
<g id="graph0" class="graph" transform="scale(1 1) rotate(0) translate(4 348)">
<title>/mnt/hdd/C0de/smart_engine/src/game.cpp</title>
<!-- Node0 -->
<g id="node1" class="node">
<title>Node0</title>
<polygon fill="#bfbfbf" stroke="#000000" points="1154.8579,-313.5 1154.8579,-343.5 1267.8579,-343.5 1267.8579,-313.5 1154.8579,-313.5"/>
<text text-anchor="start" x="1162.8579" y="-331.5" font-family="Helvetica,sans-Serif" font-size="10.00" fill="#000000">/mnt/hdd/C0de/smart</text>
<text text-anchor="middle" x="1211.3579" y="-320.5" font-family="Helvetica,sans-Serif" font-size="10.00" fill="#000000">_engine/src/game.cpp</text>
</g>
<!-- Node1 -->
<g id="node2" class="node">
<title>Node1</title>
<polygon fill="none" stroke="#bfbfbf" points="458.3579,-.5 458.3579,-19.5 522.3579,-19.5 522.3579,-.5 458.3579,-.5"/>
<text text-anchor="middle" x="490.3579" y="-7.5" font-family="Helvetica,sans-Serif" font-size="10.00" fill="#000000">glad/glad.h</text>
</g>
<!-- Node0&#45;&gt;Node1 -->
<g id="edge1" class="edge">
<title>Node0&#45;&gt;Node1</title>
<path fill="none" stroke="#191970" d="M1154.667,-325.4904C915.6431,-312.4341 2.3579,-258.7061 2.3579,-200 2.3579,-200 2.3579,-200 2.3579,-138.5 2.3579,-100.8735 -7.0738,-80.6452 21.3579,-56 91.2269,4.5637 338.9847,-32.8396 448.1088,-19.7648"/>
<polygon fill="#191970" stroke="#191970" points="448.813,-23.2002 458.2257,-18.3369 447.8347,-16.2689 448.813,-23.2002"/>
</g>
<!-- Node2 -->
<g id="node3" class="node">
<title>Node2</title>
<polygon fill="none" stroke="#bfbfbf" points="1255.3579,-62 1255.3579,-81 1335.3579,-81 1335.3579,-62 1255.3579,-62"/>
<text text-anchor="middle" x="1295.3579" y="-69" font-family="Helvetica,sans-Serif" font-size="10.00" fill="#000000">GLFW/glfw3.h</text>
</g>
<!-- Node0&#45;&gt;Node2 -->
<g id="edge2" class="edge">
<title>Node0&#45;&gt;Node2</title>
<path fill="none" stroke="#191970" d="M1208.4439,-313.3855C1202.3704,-277.6828 1191.6363,-186.3706 1226.3579,-123 1235.0193,-107.1922 1250.8305,-94.8499 1265.1341,-86.2157"/>
<polygon fill="#191970" stroke="#191970" points="1267.2415,-89.0451 1274.2257,-81.0781 1263.7976,-82.9508 1267.2415,-89.0451"/>
</g>
<!-- Node3 -->
<g id="node4" class="node">
<title>Node3</title>
<polygon fill="none" stroke="#bfbfbf" points="1415.3579,-62 1415.3579,-81 1467.3579,-81 1467.3579,-62 1415.3579,-62"/>
<text text-anchor="middle" x="1441.3579" y="-69" font-family="Helvetica,sans-Serif" font-size="10.00" fill="#000000">memory</text>
</g>
<!-- Node0&#45;&gt;Node3 -->
<g id="edge3" class="edge">
<title>Node0&#45;&gt;Node3</title>
<path fill="none" stroke="#191970" d="M1213.4398,-313.4251C1219.4308,-275.771 1240.1735,-176.775 1298.3579,-123 1335.5153,-88.6586 1359.1731,-105.2646 1406.3579,-87 1407.977,-86.3733 1409.6302,-85.713 1411.2935,-85.0327"/>
<polygon fill="#191970" stroke="#191970" points="1412.9307,-88.14 1420.7663,-81.0087 1410.1939,-81.6971 1412.9307,-88.14"/>
</g>
<!-- Node4 -->
<g id="node5" class="node">
<title>Node4</title>
<g id="a_node5"><a xlink:href="game_8h.html" target="_top" xlink:title="../include/game.h">
<polygon fill="none" stroke="#000000" points="1429.3579,-190.5 1429.3579,-209.5 1521.3579,-209.5 1521.3579,-190.5 1429.3579,-190.5"/>
<text text-anchor="middle" x="1475.3579" y="-197.5" font-family="Helvetica,sans-Serif" font-size="10.00" fill="#000000">../include/game.h</text>
</a>
</g>
</g>
<!-- Node0&#45;&gt;Node4 -->
<g id="edge4" class="edge">
<title>Node0&#45;&gt;Node4</title>
<path fill="none" stroke="#191970" d="M1268.0921,-318.4508C1303.8332,-310.5687 1350.0945,-297.4418 1387.3579,-277 1395.1992,-272.6985 1433.9441,-237.8324 1457.3308,-216.5194"/>
<polygon fill="#191970" stroke="#191970" points="1459.8633,-218.9466 1464.8867,-209.6183 1455.1425,-213.778 1459.8633,-218.9466"/>
</g>
<!-- Node12 -->
<g id="node13" class="node">
<title>Node12</title>
<g id="a_node13"><a xlink:href="resource__manager_8h.html" target="_top" xlink:title="../include/resource\l_manager.h">
<polygon fill="none" stroke="#000000" points="389.8579,-123.5 389.8579,-153.5 486.8579,-153.5 486.8579,-123.5 389.8579,-123.5"/>
<text text-anchor="start" x="397.8579" y="-141.5" font-family="Helvetica,sans-Serif" font-size="10.00" fill="#000000">../include/resource</text>
<text text-anchor="middle" x="438.3579" y="-130.5" font-family="Helvetica,sans-Serif" font-size="10.00" fill="#000000">_manager.h</text>
</a>
</g>
</g>
<!-- Node0&#45;&gt;Node12 -->
<g id="edge16" class="edge">
<title>Node0&#45;&gt;Node12</title>
<path fill="none" stroke="#191970" d="M1154.8049,-323.5697C1083.5725,-316.6345 957.7388,-301.9701 852.3579,-277 716.316,-244.7648 561.3697,-187.0719 485.4003,-157.3474"/>
<polygon fill="#191970" stroke="#191970" points="486.2415,-153.9174 475.6542,-153.5176 483.6814,-160.4325 486.2415,-153.9174"/>
</g>
<!-- Node18 -->
<g id="node19" class="node">
<title>Node18</title>
<g id="a_node19"><a xlink:href="sprite__renderer_8h.html" target="_top" xlink:title="../include/sprite_renderer.h">
<polygon fill="none" stroke="#000000" points="239.3579,-129 239.3579,-148 371.3579,-148 371.3579,-129 239.3579,-129"/>
<text text-anchor="middle" x="305.3579" y="-136" font-family="Helvetica,sans-Serif" font-size="10.00" fill="#000000">../include/sprite_renderer.h</text>
</a>
</g>
</g>
<!-- Node0&#45;&gt;Node18 -->
<g id="edge26" class="edge">
<title>Node0&#45;&gt;Node18</title>
<path fill="none" stroke="#191970" d="M1154.594,-325.9488C1065.5144,-321.1287 887.8291,-308.2129 740.3579,-277 587.0633,-244.5546 411.1039,-179.6208 338.9115,-151.7288"/>
<polygon fill="#191970" stroke="#191970" points="340.0155,-148.4029 329.4266,-148.0462 337.4818,-154.9284 340.0155,-148.4029"/>
</g>
<!-- Node24 -->
<g id="node25" class="node">
<title>Node24</title>
<g id="a_node25"><a xlink:href="text__renderer_8h.html" target="_top" xlink:title="../include/text_renderer.h">
<polygon fill="none" stroke="#000000" points="543.8579,-129 543.8579,-148 668.8579,-148 668.8579,-129 543.8579,-129"/>
<text text-anchor="middle" x="606.3579" y="-136" font-family="Helvetica,sans-Serif" font-size="10.00" fill="#000000">../include/text_renderer.h</text>
</a>
</g>
</g>
<!-- Node0&#45;&gt;Node24 -->
<g id="edge40" class="edge">
<title>Node0&#45;&gt;Node24</title>
<path fill="none" stroke="#191970" d="M1154.8493,-319.1455C1103.2526,-310.0976 1025.0842,-295.1154 958.3579,-277 869.5138,-252.8798 847.8655,-244.1105 762.3579,-210 717.1629,-191.9709 666.1395,-167.8441 635.12,-152.7384"/>
<polygon fill="#191970" stroke="#191970" points="636.3051,-149.4217 625.7844,-148.1701 633.2283,-155.7093 636.3051,-149.4217"/>
</g>
<!-- Node26 -->
<g id="node27" class="node">
<title>Node26</title>
<g id="a_node27"><a xlink:href="entity__manager_8h.html" target="_top" xlink:title="../include/entity_manager.h">
<polygon fill="none" stroke="#000000" points="967.3579,-252 967.3579,-271 1101.3579,-271 1101.3579,-252 967.3579,-252"/>
<text text-anchor="middle" x="1034.3579" y="-259" font-family="Helvetica,sans-Serif" font-size="10.00" fill="#000000">../include/entity_manager.h</text>
</a>
</g>
</g>
<!-- Node0&#45;&gt;Node26 -->
<g id="edge48" class="edge">
<title>Node0&#45;&gt;Node26</title>
<path fill="none" stroke="#191970" d="M1171.6357,-313.4639C1140.7756,-301.7824 1098.408,-285.7449 1068.9347,-274.5884"/>
<polygon fill="#191970" stroke="#191970" points="1070.0604,-271.2722 1059.4689,-271.0053 1067.5822,-277.8189 1070.0604,-271.2722"/>
</g>
<!-- Node34 -->
<g id="node35" class="node">
<title>Node34</title>
<g id="a_node35"><a xlink:href="splash__state_8h.html" target="_top" xlink:title="../include/splash_state.h">
<polygon fill="none" stroke="#000000" points="1434.8579,-252 1434.8579,-271 1557.8579,-271 1557.8579,-252 1434.8579,-252"/>
<text text-anchor="middle" x="1496.3579" y="-259" font-family="Helvetica,sans-Serif" font-size="10.00" fill="#000000">../include/splash_state.h</text>
</a>
</g>
</g>
<!-- Node0&#45;&gt;Node34 -->
<g id="edge67" class="edge">
<title>Node0&#45;&gt;Node34</title>
<path fill="none" stroke="#191970" d="M1268.0055,-315.1828C1319.9452,-302.9725 1396.1452,-285.0588 1446.0007,-273.3384"/>
<polygon fill="#191970" stroke="#191970" points="1446.9796,-276.7037 1455.9132,-271.0081 1445.3776,-269.8895 1446.9796,-276.7037"/>
</g>
<!-- Node35 -->
<g id="node36" class="node">
<title>Node35</title>
<g id="a_node36"><a xlink:href="main__menu__state_8h.html" target="_top" xlink:title="../include/main_menu\l_state.h">
<polygon fill="none" stroke="#000000" points="1268.3579,-246.5 1268.3579,-276.5 1378.3579,-276.5 1378.3579,-246.5 1268.3579,-246.5"/>
<text text-anchor="start" x="1276.3579" y="-264.5" font-family="Helvetica,sans-Serif" font-size="10.00" fill="#000000">../include/main_menu</text>
<text text-anchor="middle" x="1323.3579" y="-253.5" font-family="Helvetica,sans-Serif" font-size="10.00" fill="#000000">_state.h</text>
</a>
</g>
</g>
<!-- Node0&#45;&gt;Node35 -->
<g id="edge70" class="edge">
<title>Node0&#45;&gt;Node35</title>
<path fill="none" stroke="#191970" d="M1236.4929,-313.4639C1251.9475,-304.2188 1271.963,-292.2452 1288.8851,-282.1222"/>
<polygon fill="#191970" stroke="#191970" points="1291.1345,-284.8551 1297.9193,-276.7177 1287.5408,-278.8479 1291.1345,-284.8551"/>
</g>
<!-- Node38 -->
<g id="node39" class="node">
<title>Node38</title>
<g id="a_node39"><a xlink:href="game__play__state_8h.html" target="_top" xlink:title="../include/game_play\l_state.h">
<polygon fill="none" stroke="#000000" points="1575.8579,-246.5 1575.8579,-276.5 1682.8579,-276.5 1682.8579,-246.5 1575.8579,-246.5"/>
<text text-anchor="start" x="1583.8579" y="-264.5" font-family="Helvetica,sans-Serif" font-size="10.00" fill="#000000">../include/game_play</text>
<text text-anchor="middle" x="1629.3579" y="-253.5" font-family="Helvetica,sans-Serif" font-size="10.00" fill="#000000">_state.h</text>
</a>
</g>
</g>
<!-- Node0&#45;&gt;Node38 -->
<g id="edge77" class="edge">
<title>Node0&#45;&gt;Node38</title>
<path fill="none" stroke="#191970" d="M1268.0741,-322.0942C1336.511,-313.9642 1455.2159,-298.5859 1565.686,-277.2272"/>
<polygon fill="#191970" stroke="#191970" points="1566.5213,-280.6303 1575.6642,-275.2771 1565.1785,-273.7603 1566.5213,-280.6303"/>
</g>
<!-- Node39 -->
<g id="node40" class="node">
<title>Node39</title>
<g id="a_node40"><a xlink:href="game__over__state_8h.html" target="_top" xlink:title="../include/game_over\l_state.h">
<polygon fill="none" stroke="#000000" points="1700.8579,-246.5 1700.8579,-276.5 1807.8579,-276.5 1807.8579,-246.5 1700.8579,-246.5"/>
<text text-anchor="start" x="1708.8579" y="-264.5" font-family="Helvetica,sans-Serif" font-size="10.00" fill="#000000">../include/game_over</text>
<text text-anchor="middle" x="1754.3579" y="-253.5" font-family="Helvetica,sans-Serif" font-size="10.00" fill="#000000">_state.h</text>
</a>
</g>
</g>
<!-- Node0&#45;&gt;Node39 -->
<g id="edge80" class="edge">
<title>Node0&#45;&gt;Node39</title>
<path fill="none" stroke="#191970" d="M1267.994,-324.9846C1356.4372,-318.936 1532.7863,-304.6325 1690.7881,-277.1442"/>
<polygon fill="#191970" stroke="#191970" points="1691.4462,-280.5823 1700.6873,-275.4003 1690.2317,-273.6884 1691.4462,-280.5823"/>
</g>
<!-- Node4&#45;&gt;Node2 -->
<g id="edge15" class="edge">
<title>Node4&#45;&gt;Node2</title>
<path fill="none" stroke="#191970" d="M1429.0956,-194.2506C1382.2988,-187.3903 1314.6067,-174.2403 1298.3579,-154 1284.2485,-136.4246 1286.3412,-109.3115 1290.0549,-91.01"/>
<polygon fill="#191970" stroke="#191970" points="1293.4902,-91.6911 1292.3822,-81.1543 1286.6776,-90.0823 1293.4902,-91.6911"/>
</g>
<!-- Node4&#45;&gt;Node3 -->
<g id="edge5" class="edge">
<title>Node4&#45;&gt;Node3</title>
<path fill="none" stroke="#191970" d="M1472.8024,-190.3416C1467.2399,-169.3184 1453.9419,-119.0598 1446.545,-91.1038"/>
<polygon fill="#191970" stroke="#191970" points="1449.8847,-90.0425 1443.9431,-81.2705 1443.1175,-91.8331 1449.8847,-90.0425"/>
</g>
<!-- Node5 -->
<g id="node6" class="node">
<title>Node5</title>
<polygon fill="none" stroke="#bfbfbf" points="724.3579,-62 724.3579,-81 778.3579,-81 778.3579,-62 724.3579,-62"/>
<text text-anchor="middle" x="751.3579" y="-69" font-family="Helvetica,sans-Serif" font-size="10.00" fill="#000000">iostream</text>
</g>
<!-- Node4&#45;&gt;Node5 -->
<g id="edge6" class="edge">
<title>Node4&#45;&gt;Node5</title>
<path fill="none" stroke="#191970" d="M1429.0431,-199.2063C1341.1973,-196.9243 1144.7247,-188.0969 983.3579,-154 891.639,-134.6198 870.1636,-122.394 783.3579,-87 782.0004,-86.4465 780.6193,-85.8622 779.2307,-85.2578"/>
<polygon fill="#191970" stroke="#191970" points="780.6774,-82.0707 770.1284,-81.0857 777.7607,-88.4342 780.6774,-82.0707"/>
</g>
<!-- Node6 -->
<g id="node7" class="node">
<title>Node6</title>
<g id="a_node7"><a xlink:href="Orthographic__camera_8h.html" target="_top" xlink:title="Orthographic_camera.h">
<polygon fill="none" stroke="#000000" points="1590.3579,-129 1590.3579,-148 1708.3579,-148 1708.3579,-129 1590.3579,-129"/>
<text text-anchor="middle" x="1649.3579" y="-136" font-family="Helvetica,sans-Serif" font-size="10.00" fill="#000000">Orthographic_camera.h</text>
</a>
</g>
</g>
<!-- Node4&#45;&gt;Node6 -->
<g id="edge7" class="edge">
<title>Node4&#45;&gt;Node6</title>
<path fill="none" stroke="#191970" d="M1502.5454,-190.3906C1532.1696,-179.92 1579.7266,-163.1111 1612.6497,-151.4745"/>
<polygon fill="#191970" stroke="#191970" points="1614.0993,-154.6744 1622.3614,-148.0419 1611.7666,-148.0745 1614.0993,-154.6744"/>
</g>
<!-- Node9 -->
<g id="node10" class="node">
<title>Node9</title>
<g id="a_node10"><a xlink:href="state__machine_8h.html" target="_top" xlink:title="state_machine.h">
<polygon fill="none" stroke="#000000" points="1482.8579,-129 1482.8579,-148 1571.8579,-148 1571.8579,-129 1482.8579,-129"/>
<text text-anchor="middle" x="1527.3579" y="-136" font-family="Helvetica,sans-Serif" font-size="10.00" fill="#000000">state_machine.h</text>
</a>
</g>
</g>
<!-- Node4&#45;&gt;Node9 -->
<g id="edge10" class="edge">
<title>Node4&#45;&gt;Node9</title>
<path fill="none" stroke="#191970" d="M1483.4829,-190.3906C1491.2221,-181.2376 1503.0567,-167.2409 1512.4851,-156.09"/>
<polygon fill="#191970" stroke="#191970" points="1515.3344,-158.1409 1519.1184,-148.2449 1509.989,-153.6213 1515.3344,-158.1409"/>
</g>
<!-- Node7 -->
<g id="node8" class="node">
<title>Node7</title>
<polygon fill="none" stroke="#bfbfbf" points="1618.8579,-62 1618.8579,-81 1661.8579,-81 1661.8579,-62 1618.8579,-62"/>
<text text-anchor="middle" x="1640.3579" y="-69" font-family="Helvetica,sans-Serif" font-size="10.00" fill="#000000">cstdio</text>
</g>
<!-- Node6&#45;&gt;Node7 -->
<g id="edge8" class="edge">
<title>Node6&#45;&gt;Node7</title>
<path fill="none" stroke="#191970" d="M1648.0685,-128.9005C1646.7586,-119.149 1644.6913,-103.7597 1643.027,-91.3695"/>
<polygon fill="#191970" stroke="#191970" points="1646.4453,-90.5266 1641.645,-81.0817 1639.5076,-91.4586 1646.4453,-90.5266"/>
</g>
<!-- Node8 -->
<g id="node9" class="node">
<title>Node8</title>
<polygon fill="none" stroke="#bfbfbf" points="716.3579,-.5 716.3579,-19.5 786.3579,-19.5 786.3579,-.5 716.3579,-.5"/>
<text text-anchor="middle" x="751.3579" y="-7.5" font-family="Helvetica,sans-Serif" font-size="10.00" fill="#000000">glm/glm.hpp</text>
</g>
<!-- Node6&#45;&gt;Node8 -->
<g id="edge9" class="edge">
<title>Node6&#45;&gt;Node8</title>
<path fill="none" stroke="#191970" d="M1656.8615,-128.9459C1669.2486,-111.9666 1690.7696,-76.4065 1671.3579,-56 1640.9128,-23.9946 977.5592,-12.9684 796.6042,-10.5503"/>
<polygon fill="#191970" stroke="#191970" points="796.4184,-7.0477 786.3733,-10.416 796.3264,-14.0471 796.4184,-7.0477"/>
</g>
<!-- Node9&#45;&gt;Node3 -->
<g id="edge12" class="edge">
<title>Node9&#45;&gt;Node3</title>
<path fill="none" stroke="#191970" d="M1515.0362,-128.9005C1501.1144,-118.0544 1478.2403,-100.2339 1461.6679,-87.3229"/>
<polygon fill="#191970" stroke="#191970" points="1463.6964,-84.4664 1453.6568,-81.0817 1459.3944,-89.9885 1463.6964,-84.4664"/>
</g>
<!-- Node9&#45;&gt;Node7 -->
<g id="edge11" class="edge">
<title>Node9&#45;&gt;Node7</title>
<path fill="none" stroke="#191970" d="M1543.5481,-128.9005C1562.3442,-117.7559 1593.5596,-99.2477 1615.4504,-86.2682"/>
<polygon fill="#191970" stroke="#191970" points="1617.3812,-89.1924 1624.1978,-81.0817 1613.8111,-83.1712 1617.3812,-89.1924"/>
</g>
<!-- Node10 -->
<g id="node11" class="node">
<title>Node10</title>
<polygon fill="none" stroke="#bfbfbf" points="1559.8579,-62 1559.8579,-81 1600.8579,-81 1600.8579,-62 1559.8579,-62"/>
<text text-anchor="middle" x="1580.3579" y="-69" font-family="Helvetica,sans-Serif" font-size="10.00" fill="#000000">stack</text>
</g>
<!-- Node9&#45;&gt;Node10 -->
<g id="edge13" class="edge">
<title>Node9&#45;&gt;Node10</title>
<path fill="none" stroke="#191970" d="M1534.9516,-128.9005C1543.1377,-118.552 1556.3464,-101.8542 1566.4123,-89.1295"/>
<polygon fill="#191970" stroke="#191970" points="1569.3194,-91.0959 1572.7784,-81.0817 1563.8294,-86.7531 1569.3194,-91.0959"/>
</g>
<!-- Node11 -->
<g id="node12" class="node">
<title>Node11</title>
<g id="a_node12"><a xlink:href="state_8h.html" target="_top" xlink:title="state.h">
<polygon fill="none" stroke="#000000" points="1750.8579,-62 1750.8579,-81 1797.8579,-81 1797.8579,-62 1750.8579,-62"/>
<text text-anchor="middle" x="1774.3579" y="-69" font-family="Helvetica,sans-Serif" font-size="10.00" fill="#000000">state.h</text>
</a>
</g>
</g>
<!-- Node9&#45;&gt;Node11 -->
<g id="edge14" class="edge">
<title>Node9&#45;&gt;Node11</title>
<path fill="none" stroke="#191970" d="M1560.17,-128.9752C1567.1567,-126.977 1574.4961,-124.9001 1581.3579,-123 1637.1107,-107.5614 1702.1546,-90.3754 1740.7074,-80.2748"/>
<polygon fill="#191970" stroke="#191970" points="1742.0607,-83.5386 1750.849,-77.6212 1740.2887,-76.7666 1742.0607,-83.5386"/>
</g>
<!-- Node13 -->
<g id="node14" class="node">
<title>Node13</title>
<polygon fill="none" stroke="#bfbfbf" points="520.8579,-62 520.8579,-81 555.8579,-81 555.8579,-62 520.8579,-62"/>
<text text-anchor="middle" x="538.3579" y="-69" font-family="Helvetica,sans-Serif" font-size="10.00" fill="#000000">map</text>
</g>
<!-- Node12&#45;&gt;Node13 -->
<g id="edge17" class="edge">
<title>Node12&#45;&gt;Node13</title>
<path fill="none" stroke="#191970" d="M461.0495,-123.2967C477.3863,-112.351 499.3338,-97.6462 515.6698,-86.701"/>
<polygon fill="#191970" stroke="#191970" points="517.7373,-89.5289 524.0968,-81.055 513.8409,-83.7135 517.7373,-89.5289"/>
</g>
<!-- Node14 -->
<g id="node15" class="node">
<title>Node14</title>
<polygon fill="none" stroke="#bfbfbf" points="274.8579,-.5 274.8579,-19.5 315.8579,-19.5 315.8579,-.5 274.8579,-.5"/>
<text text-anchor="middle" x="295.3579" y="-7.5" font-family="Helvetica,sans-Serif" font-size="10.00" fill="#000000">string</text>
</g>
<!-- Node12&#45;&gt;Node14 -->
<g id="edge18" class="edge">
<title>Node12&#45;&gt;Node14</title>
<path fill="none" stroke="#191970" d="M414.7476,-123.4084C400.2311,-113.7011 381.5637,-100.4285 366.3579,-87 345.198,-68.3132 323.5907,-43.9727 309.8607,-27.7084"/>
<polygon fill="#191970" stroke="#191970" points="312.1868,-25.0325 303.0962,-19.5907 306.8091,-29.5137 312.1868,-25.0325"/>
</g>
<!-- Node15 -->
<g id="node16" class="node">
<title>Node15</title>
<g id="a_node16"><a xlink:href="texture_8h.html" target="_top" xlink:title="texture.h">
<polygon fill="none" stroke="#000000" points="447.8579,-62 447.8579,-81 502.8579,-81 502.8579,-62 447.8579,-62"/>
<text text-anchor="middle" x="475.3579" y="-69" font-family="Helvetica,sans-Serif" font-size="10.00" fill="#000000">texture.h</text>
</a>
</g>
</g>
<!-- Node12&#45;&gt;Node15 -->
<g id="edge19" class="edge">
<title>Node12&#45;&gt;Node15</title>
<path fill="none" stroke="#191970" d="M446.7538,-123.2967C452.2387,-113.3645 459.433,-100.3371 465.2343,-89.8321"/>
<polygon fill="#191970" stroke="#191970" points="468.3109,-91.5009 470.0813,-81.055 462.1832,-88.1169 468.3109,-91.5009"/>
</g>
<!-- Node16 -->
<g id="node17" class="node">
<title>Node16</title>
<g id="a_node17"><a xlink:href="shader_8h.html" target="_top" xlink:title="shader.h">
<polygon fill="none" stroke="#000000" points="375.3579,-62 375.3579,-81 429.3579,-81 429.3579,-62 375.3579,-62"/>
<text text-anchor="middle" x="402.3579" y="-69" font-family="Helvetica,sans-Serif" font-size="10.00" fill="#000000">shader.h</text>
</a>
</g>
</g>
<!-- Node12&#45;&gt;Node16 -->
<g id="edge21" class="edge">
<title>Node12&#45;&gt;Node16</title>
<path fill="none" stroke="#191970" d="M430.189,-123.2967C424.9068,-113.4658 417.9952,-100.6026 412.3812,-90.1545"/>
<polygon fill="#191970" stroke="#191970" points="415.3083,-88.2073 407.492,-81.055 409.142,-91.5205 415.3083,-88.2073"/>
</g>
<!-- Node15&#45;&gt;Node1 -->
<g id="edge20" class="edge">
<title>Node15&#45;&gt;Node1</title>
<path fill="none" stroke="#191970" d="M477.7017,-61.8906C479.8028,-53.276 482.9504,-40.3708 485.5809,-29.5858"/>
<polygon fill="#191970" stroke="#191970" points="489.0118,-30.2894 487.9812,-19.7449 482.2112,-28.6307 489.0118,-30.2894"/>
</g>
<!-- Node16&#45;&gt;Node1 -->
<g id="edge23" class="edge">
<title>Node16&#45;&gt;Node1</title>
<path fill="none" stroke="#191970" d="M416.1079,-61.8906C430.057,-52.1421 451.8678,-36.8994 468.2477,-25.4521"/>
<polygon fill="#191970" stroke="#191970" points="470.5127,-28.1392 476.7045,-19.5419 466.5028,-22.4015 470.5127,-28.1392"/>
</g>
<!-- Node16&#45;&gt;Node8 -->
<g id="edge24" class="edge">
<title>Node16&#45;&gt;Node8</title>
<path fill="none" stroke="#191970" d="M422.2033,-61.8613C427.3668,-59.6591 432.9897,-57.5219 438.3579,-56 531.2684,-29.6607 644.2043,-17.8028 705.8286,-12.959"/>
<polygon fill="#191970" stroke="#191970" points="706.2884,-16.4342 715.9948,-12.1873 705.7585,-9.4543 706.2884,-16.4342"/>
</g>
<!-- Node16&#45;&gt;Node14 -->
<g id="edge22" class="edge">
<title>Node16&#45;&gt;Node14</title>
<path fill="none" stroke="#191970" d="M385.6392,-61.8906C368.2858,-51.9165 340.9256,-36.1908 320.8697,-24.6633"/>
<polygon fill="#191970" stroke="#191970" points="322.3734,-21.4907 311.9593,-19.5419 318.8851,-27.5596 322.3734,-21.4907"/>
</g>
<!-- Node17 -->
<g id="node18" class="node">
<title>Node17</title>
<polygon fill="none" stroke="#bfbfbf" points="334.3579,-.5 334.3579,-19.5 440.3579,-19.5 440.3579,-.5 334.3579,-.5"/>
<text text-anchor="middle" x="387.3579" y="-7.5" font-family="Helvetica,sans-Serif" font-size="10.00" fill="#000000">glm/gtc/type_ptr.hpp</text>
</g>
<!-- Node16&#45;&gt;Node17 -->
<g id="edge25" class="edge">
<title>Node16&#45;&gt;Node17</title>
<path fill="none" stroke="#191970" d="M400.0142,-61.8906C397.9131,-53.276 394.7655,-40.3708 392.135,-29.5858"/>
<polygon fill="#191970" stroke="#191970" points="395.5047,-28.6307 389.7347,-19.7449 388.7041,-30.2894 395.5047,-28.6307"/>
</g>
<!-- Node18&#45;&gt;Node1 -->
<g id="edge28" class="edge">
<title>Node18&#45;&gt;Node1</title>
<path fill="none" stroke="#191970" d="M310.0367,-128.9323C318.808,-111.9315 339.3062,-76.3385 366.3579,-56 379.7721,-45.9148 418.298,-32.3486 448.8835,-22.5651"/>
<polygon fill="#191970" stroke="#191970" points="450.011,-25.8795 458.493,-19.5307 447.9032,-19.2043 450.011,-25.8795"/>
</g>
<!-- Node18&#45;&gt;Node2 -->
<g id="edge29" class="edge">
<title>Node18&#45;&gt;Node2</title>
<path fill="none" stroke="#191970" d="M345.6408,-128.9378C356.8233,-126.6219 369.0107,-124.41 380.3579,-123 745.8945,-77.5792 842.2317,-127.393 1208.3579,-87 1220.3907,-85.6725 1233.2712,-83.6907 1245.3337,-81.5842"/>
<polygon fill="#191970" stroke="#191970" points="1246.0177,-85.0174 1255.2372,-79.797 1244.7745,-78.1287 1246.0177,-85.0174"/>
</g>
<!-- Node18&#45;&gt;Node3 -->
<g id="edge33" class="edge">
<title>Node18&#45;&gt;Node3</title>
<path fill="none" stroke="#191970" d="M345.2435,-128.9557C356.532,-126.6099 368.8728,-124.3783 380.3579,-123 606.873,-95.8167 1184.0184,-138.1187 1406.3579,-87 1408.8514,-86.4267 1411.3866,-85.6753 1413.8944,-84.8123"/>
<polygon fill="#191970" stroke="#191970" points="1415.2905,-88.0237 1423.2855,-81.0716 1412.7001,-81.5206 1415.2905,-88.0237"/>
</g>
<!-- Node18&#45;&gt;Node5 -->
<g id="edge30" class="edge">
<title>Node18&#45;&gt;Node5</title>
<path fill="none" stroke="#191970" d="M348.8904,-128.9976C359.1834,-126.8912 370.1381,-124.7634 380.3579,-123 384.4698,-122.2905 620.6709,-89.5863 714.0005,-76.6694"/>
<polygon fill="#191970" stroke="#191970" points="714.7073,-80.1051 724.133,-75.2672 713.7476,-73.1712 714.7073,-80.1051"/>
</g>
<!-- Node18&#45;&gt;Node14 -->
<g id="edge31" class="edge">
<title>Node18&#45;&gt;Node14</title>
<path fill="none" stroke="#191970" d="M279.5509,-128.941C261.633,-120.7853 239.1187,-107.143 228.3579,-87 221.8659,-74.8476 221.9399,-68.1916 228.3579,-56 236.2616,-40.9865 251.5232,-29.9279 265.4864,-22.4214"/>
<polygon fill="#191970" stroke="#191970" points="267.433,-25.3631 274.8395,-17.7871 264.3252,-19.0908 267.433,-25.3631"/>
</g>
<!-- Node18&#45;&gt;Node15 -->
<g id="edge34" class="edge">
<title>Node18&#45;&gt;Node15</title>
<path fill="none" stroke="#191970" d="M330.9362,-128.8329C357.7752,-118.6338 401.1527,-101.993 438.3579,-87 439.9567,-86.3557 441.5922,-85.6911 443.2423,-85.0162"/>
<polygon fill="#191970" stroke="#191970" points="444.7956,-88.1615 452.7,-81.1067 442.1214,-81.6924 444.7956,-88.1615"/>
</g>
<!-- Node18&#45;&gt;Node16 -->
<g id="edge35" class="edge">
<title>Node18&#45;&gt;Node16</title>
<path fill="none" stroke="#191970" d="M319.2557,-128.9005C335.1743,-117.9052 361.4701,-99.7422 380.2178,-86.7927"/>
<polygon fill="#191970" stroke="#191970" points="382.2471,-89.6448 388.486,-81.0817 378.2688,-83.8852 382.2471,-89.6448"/>
</g>
<!-- Node19 -->
<g id="node20" class="node">
<title>Node19</title>
<polygon fill="none" stroke="#bfbfbf" points="237.3579,-62 237.3579,-81 281.3579,-81 281.3579,-62 237.3579,-62"/>
<text text-anchor="middle" x="259.3579" y="-69" font-family="Helvetica,sans-Serif" font-size="10.00" fill="#000000">cmath</text>
</g>
<!-- Node18&#45;&gt;Node19 -->
<g id="edge27" class="edge">
<title>Node18&#45;&gt;Node19</title>
<path fill="none" stroke="#191970" d="M298.7673,-128.9005C291.7306,-118.6515 280.4182,-102.1747 271.7145,-89.4976"/>
<polygon fill="#191970" stroke="#191970" points="274.4819,-87.3446 265.9364,-81.0817 268.7111,-91.3067 274.4819,-87.3446"/>
</g>
<!-- Node20 -->
<g id="node21" class="node">
<title>Node20</title>
<polygon fill="none" stroke="#bfbfbf" points="30.8579,-62 30.8579,-81 113.8579,-81 113.8579,-62 30.8579,-62"/>
<text text-anchor="middle" x="72.3579" y="-69" font-family="Helvetica,sans-Serif" font-size="10.00" fill="#000000">unordered_map</text>
</g>
<!-- Node18&#45;&gt;Node20 -->
<g id="edge32" class="edge">
<title>Node18&#45;&gt;Node20</title>
<path fill="none" stroke="#191970" d="M270.5379,-128.9939C233.6633,-118.8584 173.7902,-102.2062 122.3579,-87 119.1769,-86.0595 115.8865,-85.0721 112.5827,-84.0703"/>
<polygon fill="#191970" stroke="#191970" points="113.313,-80.6336 102.7265,-81.0542 111.2646,-87.3272 113.313,-80.6336"/>
</g>
<!-- Node21 -->
<g id="node22" class="node">
<title>Node21</title>
<g id="a_node22"><a xlink:href="sprite_8h.html" target="_top" xlink:title="sprite.h">
<polygon fill="none" stroke="#000000" points="131.8579,-62 131.8579,-81 180.8579,-81 180.8579,-62 131.8579,-62"/>
<text text-anchor="middle" x="156.3579" y="-69" font-family="Helvetica,sans-Serif" font-size="10.00" fill="#000000">sprite.h</text>
</a>
</g>
</g>
<!-- Node18&#45;&gt;Node21 -->
<g id="edge36" class="edge">
<title>Node18&#45;&gt;Node21</title>
<path fill="none" stroke="#191970" d="M284.0099,-128.9005C258.5617,-117.4574 215.8488,-98.2509 186.9082,-85.2374"/>
<polygon fill="#191970" stroke="#191970" points="188.2222,-81.9907 177.6664,-81.0817 185.3514,-88.3749 188.2222,-81.9907"/>
</g>
<!-- Node21&#45;&gt;Node8 -->
<g id="edge39" class="edge">
<title>Node21&#45;&gt;Node8</title>
<path fill="none" stroke="#191970" d="M180.8777,-65.4295C194.7369,-62.1982 212.4277,-58.4057 228.3579,-56 403.9146,-29.4879 615.1049,-16.6895 706.0635,-12.0849"/>
<polygon fill="#191970" stroke="#191970" points="706.4788,-15.5686 716.2926,-11.5761 706.1311,-8.5773 706.4788,-15.5686"/>
</g>
<!-- Node22 -->
<g id="node23" class="node">
<title>Node22</title>
<polygon fill="none" stroke="#bfbfbf" points="171.3579,-.5 171.3579,-19.5 217.3579,-19.5 217.3579,-.5 171.3579,-.5"/>
<text text-anchor="middle" x="194.3579" y="-7.5" font-family="Helvetica,sans-Serif" font-size="10.00" fill="#000000">stdio.h</text>
</g>
<!-- Node21&#45;&gt;Node22 -->
<g id="edge37" class="edge">
<title>Node21&#45;&gt;Node22</title>
<path fill="none" stroke="#191970" d="M162.2954,-61.8906C167.7847,-53.0068 176.0932,-39.5601 182.877,-28.5811"/>
<polygon fill="#191970" stroke="#191970" points="186.0578,-30.0917 188.3367,-19.7449 180.1028,-26.4122 186.0578,-30.0917"/>
</g>
<!-- Node23 -->
<g id="node24" class="node">
<title>Node23</title>
<polygon fill="none" stroke="#bfbfbf" points="83.3579,-.5 83.3579,-19.5 153.3579,-19.5 153.3579,-.5 83.3579,-.5"/>
<text text-anchor="middle" x="118.3579" y="-7.5" font-family="Helvetica,sans-Serif" font-size="10.00" fill="#000000">glm/fwd.hpp</text>
</g>
<!-- Node21&#45;&gt;Node23 -->
<g id="edge38" class="edge">
<title>Node21&#45;&gt;Node23</title>
<path fill="none" stroke="#191970" d="M150.4204,-61.8906C144.9312,-53.0068 136.6227,-39.5601 129.8389,-28.5811"/>
<polygon fill="#191970" stroke="#191970" points="132.6131,-26.4122 124.3792,-19.7449 126.6581,-30.0917 132.6131,-26.4122"/>
</g>
<!-- Node24&#45;&gt;Node1 -->
<g id="edge42" class="edge">
<title>Node24&#45;&gt;Node1</title>
<path fill="none" stroke="#191970" d="M615.9904,-128.8096C630.9823,-112.5337 656.4851,-79.2124 639.3579,-56 626.5306,-38.6152 571.7809,-25.0275 532.3689,-17.2597"/>
<polygon fill="#191970" stroke="#191970" points="532.9425,-13.8061 522.463,-15.3649 531.6273,-20.6814 532.9425,-13.8061"/>
</g>
<!-- Node24&#45;&gt;Node5 -->
<g id="edge44" class="edge">
<title>Node24&#45;&gt;Node5</title>
<path fill="none" stroke="#191970" d="M627.1329,-128.9005C651.7902,-117.5072 693.103,-98.4178 721.2597,-85.4075"/>
<polygon fill="#191970" stroke="#191970" points="723.0119,-88.4535 730.6215,-81.0817 720.0756,-82.099 723.0119,-88.4535"/>
</g>
<!-- Node24&#45;&gt;Node8 -->
<g id="edge43" class="edge">
<title>Node24&#45;&gt;Node8</title>
<path fill="none" stroke="#191970" d="M617.2565,-128.8416C641.819,-107.0742 701.7476,-53.965 732.4897,-26.7212"/>
<polygon fill="#191970" stroke="#191970" points="735.1702,-29.0223 740.3329,-19.7705 730.5275,-23.7835 735.1702,-29.0223"/>
</g>
<!-- Node24&#45;&gt;Node13 -->
<g id="edge41" class="edge">
<title>Node24&#45;&gt;Node13</title>
<path fill="none" stroke="#191970" d="M596.6152,-128.9005C585.9102,-118.353 568.511,-101.2096 555.51,-88.3998"/>
<polygon fill="#191970" stroke="#191970" points="557.6624,-85.607 548.0826,-81.0817 552.7494,-90.5933 557.6624,-85.607"/>
</g>
<!-- Node24&#45;&gt;Node15 -->
<g id="edge46" class="edge">
<title>Node24&#45;&gt;Node15</title>
<path fill="none" stroke="#191970" d="M587.5888,-128.9005C565.5068,-117.6067 528.6391,-98.7506 503.2194,-85.7497"/>
<polygon fill="#191970" stroke="#191970" points="504.5891,-82.5191 494.0922,-81.0817 501.4016,-88.7513 504.5891,-82.5191"/>
</g>
<!-- Node24&#45;&gt;Node16 -->
<g id="edge47" class="edge">
<title>Node24&#45;&gt;Node16</title>
<path fill="none" stroke="#191970" d="M571.2396,-128.9431C536.9929,-119.341 483.6024,-103.6186 438.3579,-87 436.5375,-86.3313 434.6763,-85.6195 432.8058,-84.8823"/>
<polygon fill="#191970" stroke="#191970" points="434.1032,-81.6315 423.5234,-81.0683 431.4428,-88.1062 434.1032,-81.6315"/>
</g>
<!-- Node25 -->
<g id="node26" class="node">
<title>Node25</title>
<polygon fill="none" stroke="#bfbfbf" points="574.3579,-62 574.3579,-81 630.3579,-81 630.3579,-62 574.3579,-62"/>
<text text-anchor="middle" x="602.3579" y="-69" font-family="Helvetica,sans-Serif" font-size="10.00" fill="#000000">ft2build.h</text>
</g>
<!-- Node24&#45;&gt;Node25 -->
<g id="edge45" class="edge">
<title>Node24&#45;&gt;Node25</title>
<path fill="none" stroke="#191970" d="M605.7848,-128.9005C605.2027,-119.149 604.2839,-103.7597 603.5442,-91.3695"/>
<polygon fill="#191970" stroke="#191970" points="607.0198,-90.8553 602.93,-81.0817 600.0323,-91.2725 607.0198,-90.8553"/>
</g>
<!-- Node26&#45;&gt;Node20 -->
<g id="edge56" class="edge">
<title>Node26&#45;&gt;Node20</title>
<path fill="none" stroke="#191970" d="M967.1146,-255.5393C799.691,-240.2143 367.7845,-197.5772 230.3579,-154 179.2538,-137.7952 124.9557,-105.7387 95.1925,-86.7079"/>
<polygon fill="#191970" stroke="#191970" points="96.721,-83.5276 86.4264,-81.0234 92.9124,-89.4009 96.721,-83.5276"/>
</g>
<!-- Node27 -->
<g id="node28" class="node">
<title>Node27</title>
<g id="a_node28"><a xlink:href="entity_8h.html" target="_top" xlink:title="entity.h">
<polygon fill="none" stroke="#000000" points="770.8579,-190.5 770.8579,-209.5 819.8579,-209.5 819.8579,-190.5 770.8579,-190.5"/>
<text text-anchor="middle" x="795.3579" y="-197.5" font-family="Helvetica,sans-Serif" font-size="10.00" fill="#000000">entity.h</text>
</a>
</g>
</g>
<!-- Node26&#45;&gt;Node27 -->
<g id="edge49" class="edge">
<title>Node26&#45;&gt;Node27</title>
<path fill="none" stroke="#191970" d="M997.2764,-251.9581C951.54,-240.1891 874.3987,-220.3389 829.8749,-208.882"/>
<polygon fill="#191970" stroke="#191970" points="830.6511,-205.4678 820.0943,-206.3652 828.9066,-212.2469 830.6511,-205.4678"/>
</g>
<!-- Node29 -->
<g id="node30" class="node">
<title>Node29</title>
<polygon fill="none" stroke="#bfbfbf" points="1353.3579,-62 1353.3579,-81 1397.3579,-81 1397.3579,-62 1353.3579,-62"/>
<text text-anchor="middle" x="1375.3579" y="-69" font-family="Helvetica,sans-Serif" font-size="10.00" fill="#000000">vector</text>
</g>
<!-- Node26&#45;&gt;Node29 -->
<g id="edge57" class="edge">
<title>Node26&#45;&gt;Node29</title>
<path fill="none" stroke="#191970" d="M1045.1953,-251.658C1073.1641,-226.7325 1150.8787,-160.4445 1226.3579,-123 1275.4767,-98.6327 1293.4361,-107.3318 1344.3579,-87 1345.7201,-86.4561 1347.1039,-85.8753 1348.4928,-85.2695"/>
<polygon fill="#191970" stroke="#191970" points="1349.9797,-88.4381 1357.5598,-81.0359 1347.0181,-82.0954 1349.9797,-88.4381"/>
</g>
<!-- Node30 -->
<g id="node31" class="node">
<title>Node30</title>
<g id="a_node31"><a xlink:href="Lines_8cpp.html" target="_top" xlink:title="../src/Lines.cpp">
<polygon fill="none" stroke="#000000" points="992.3579,-129 992.3579,-148 1076.3579,-148 1076.3579,-129 992.3579,-129"/>
<text text-anchor="middle" x="1034.3579" y="-136" font-family="Helvetica,sans-Serif" font-size="10.00" fill="#000000">../src/Lines.cpp</text>
</a>
</g>
</g>
<!-- Node26&#45;&gt;Node30 -->
<g id="edge58" class="edge">
<title>Node26&#45;&gt;Node30</title>
<path fill="none" stroke="#191970" d="M1034.3579,-251.8484C1034.3579,-231.7295 1034.3579,-184.9608 1034.3579,-158.2098"/>
<polygon fill="#191970" stroke="#191970" points="1037.858,-158.1067 1034.3579,-148.1068 1030.858,-158.1068 1037.858,-158.1067"/>
</g>
<!-- Node27&#45;&gt;Node3 -->
<g id="edge53" class="edge">
<title>Node27&#45;&gt;Node3</title>
<path fill="none" stroke="#191970" d="M819.8853,-196.609C869.9468,-189.5779 987.4334,-172.5144 1085.3579,-154 1148.4044,-142.0799 1163.5631,-136.1812 1226.3579,-123 1306.2022,-106.24 1328.5918,-111.6662 1406.3579,-87 1408.2583,-86.3972 1410.1939,-85.7229 1412.1305,-85.002"/>
<polygon fill="#191970" stroke="#191970" points="1413.7167,-88.1353 1421.6614,-81.1258 1411.0796,-81.651 1413.7167,-88.1353"/>
</g>
<!-- Node27&#45;&gt;Node5 -->
<g id="edge52" class="edge">
<title>Node27&#45;&gt;Node5</title>
<path fill="none" stroke="#191970" d="M793.6488,-190.3254C790.887,-175.5427 784.8784,-146.5666 776.3579,-123 772.2949,-111.7621 766.5338,-99.7202 761.5659,-90.1084"/>
<polygon fill="#191970" stroke="#191970" points="764.5651,-88.2938 756.7803,-81.1071 758.3843,-91.5798 764.5651,-88.2938"/>
</g>
<!-- Node27&#45;&gt;Node8 -->
<g id="edge55" class="edge">
<title>Node27&#45;&gt;Node8</title>
<path fill="none" stroke="#191970" d="M796.8708,-190.4513C800.2133,-166.6803 806.4971,-103.3574 787.3579,-56 783.0261,-45.2815 775.4134,-34.9872 768.3009,-26.8648"/>
<polygon fill="#191970" stroke="#191970" points="770.863,-24.4803 761.4951,-19.5312 765.732,-29.242 770.863,-24.4803"/>
</g>
<!-- Node27&#45;&gt;Node12 -->
<g id="edge54" class="edge">
<title>Node27&#45;&gt;Node12</title>
<path fill="none" stroke="#191970" d="M770.8387,-196.89C720.231,-190.3115 600.6339,-173.9406 501.3579,-154 499.9085,-153.7089 498.4422,-153.4069 496.9643,-153.0958"/>
<polygon fill="#191970" stroke="#191970" points="497.6217,-149.6569 487.1039,-150.9323 496.1214,-156.4942 497.6217,-149.6569"/>
</g>
<!-- Node27&#45;&gt;Node15 -->
<g id="edge50" class="edge">
<title>Node27&#45;&gt;Node15</title>
<path fill="none" stroke="#191970" d="M770.6663,-198.0299C713.449,-193.0911 573.676,-178.7718 534.3579,-154 510.1109,-138.7235 492.8477,-109.5269 483.4884,-90.2838"/>
<polygon fill="#191970" stroke="#191970" points="486.5788,-88.6273 479.2133,-81.0115 480.2219,-91.5582 486.5788,-88.6273"/>
</g>
<!-- Node28 -->
<g id="node29" class="node">
<title>Node28</title>
<polygon fill="none" stroke="#bfbfbf" points="687.3579,-129 687.3579,-148 767.3579,-148 767.3579,-129 687.3579,-129"/>
<text text-anchor="middle" x="727.3579" y="-136" font-family="Helvetica,sans-Serif" font-size="10.00" fill="#000000">box2d/box2d.h</text>
</g>
<!-- Node27&#45;&gt;Node28 -->
<g id="edge51" class="edge">
<title>Node27&#45;&gt;Node28</title>
<path fill="none" stroke="#191970" d="M784.7329,-190.3906C774.3148,-180.9683 758.2215,-166.4134 745.7275,-155.1137"/>
<polygon fill="#191970" stroke="#191970" points="747.8971,-152.3568 738.1328,-148.2449 743.2017,-157.5484 747.8971,-152.3568"/>
</g>
<!-- Node30&#45;&gt;Node1 -->
<g id="edge63" class="edge">
<title>Node30&#45;&gt;Node1</title>
<path fill="none" stroke="#191970" d="M999.5541,-128.9336C964.9867,-119.2038 910.6095,-103.2802 864.3579,-87 829.5592,-74.7511 822.9306,-65.7762 787.3579,-56 698.5506,-31.5936 591.0102,-18.9747 532.7906,-13.4914"/>
<polygon fill="#191970" stroke="#191970" points="532.787,-9.9765 522.5094,-12.5494 532.1483,-16.9473 532.787,-9.9765"/>
</g>
<!-- Node30&#45;&gt;Node2 -->
<g id="edge64" class="edge">
<title>Node30&#45;&gt;Node2</title>
<path fill="none" stroke="#191970" d="M1074.5369,-128.9533C1116.3232,-118.9194 1183.5857,-102.4727 1241.3579,-87 1245.1707,-85.9789 1249.1275,-84.8932 1253.0874,-83.789"/>
<polygon fill="#191970" stroke="#191970" points="1254.1836,-87.1164 1262.8572,-81.0321 1252.2824,-80.3795 1254.1836,-87.1164"/>
</g>
<!-- Node30&#45;&gt;Node5 -->
<g id="edge60" class="edge">
<title>Node30&#45;&gt;Node5</title>
<path fill="none" stroke="#191970" d="M994.1115,-128.9717C939.3185,-115.9995 841.9881,-92.9566 788.7307,-80.348"/>
<polygon fill="#191970" stroke="#191970" points="789.2298,-76.8695 778.6925,-77.9714 787.6171,-83.6812 789.2298,-76.8695"/>
</g>
<!-- Node30&#45;&gt;Node8 -->
<g id="edge65" class="edge">
<title>Node30&#45;&gt;Node8</title>
<path fill="none" stroke="#191970" d="M1076.0738,-128.9083C1124.9316,-117.2571 1200.2751,-97.8218 1208.3579,-87 1216.6027,-75.9614 1217.5996,-66.2186 1208.3579,-56 1181.0574,-25.8135 906.6357,-14.518 796.6229,-11.1813"/>
<polygon fill="#191970" stroke="#191970" points="796.6024,-7.6793 786.5036,-10.8829 796.396,-14.6762 796.6024,-7.6793"/>
</g>
<!-- Node30&#45;&gt;Node29 -->
<g id="edge61" class="edge">
<title>Node30&#45;&gt;Node29</title>
<path fill="none" stroke="#191970" d="M1076.5806,-133.0755C1149.3383,-123.4635 1295.2597,-102.9518 1344.3579,-87 1345.971,-86.4759 1347.6047,-85.8793 1349.235,-85.2325"/>
<polygon fill="#191970" stroke="#191970" points="1350.6755,-88.4224 1358.3658,-81.1349 1347.8094,-82.0361 1350.6755,-88.4224"/>
</g>
<!-- Node31 -->
<g id="node32" class="node">
<title>Node31</title>
<polygon fill="none" stroke="#bfbfbf" points="872.8579,-56.5 872.8579,-86.5 971.8579,-86.5 971.8579,-56.5 872.8579,-56.5"/>
<text text-anchor="start" x="880.8579" y="-74.5" font-family="Helvetica,sans-Serif" font-size="10.00" fill="#000000">glm/ext/matrix_clip</text>
<text text-anchor="middle" x="922.3579" y="-63.5" font-family="Helvetica,sans-Serif" font-size="10.00" fill="#000000">_space.hpp</text>
</g>
<!-- Node30&#45;&gt;Node31 -->
<g id="edge59" class="edge">
<title>Node30&#45;&gt;Node31</title>
<path fill="none" stroke="#191970" d="M1018.3111,-128.9005C1002.1882,-119.2556 976.8458,-104.0954 956.2535,-91.7768"/>
<polygon fill="#191970" stroke="#191970" points="957.8475,-88.6519 947.469,-86.5218 954.2538,-94.6591 957.8475,-88.6519"/>
</g>
<!-- Node32 -->
<g id="node33" class="node">
<title>Node32</title>
<polygon fill="none" stroke="#bfbfbf" points="989.8579,-62 989.8579,-81 1036.8579,-81 1036.8579,-62 989.8579,-62"/>
<text text-anchor="middle" x="1013.3579" y="-69" font-family="Helvetica,sans-Serif" font-size="10.00" fill="#000000">math.h</text>
</g>
<!-- Node30&#45;&gt;Node32 -->
<g id="edge62" class="edge">
<title>Node30&#45;&gt;Node32</title>
<path fill="none" stroke="#191970" d="M1031.3492,-128.9005C1028.2615,-119.0495 1023.3706,-103.4451 1019.4671,-90.9912"/>
<polygon fill="#191970" stroke="#191970" points="1022.6919,-89.5771 1016.3612,-81.0817 1016.0123,-91.6707 1022.6919,-89.5771"/>
</g>
<!-- Node33 -->
<g id="node34" class="node">
<title>Node33</title>
<polygon fill="none" stroke="#bfbfbf" points="1055.3579,-62 1055.3579,-81 1199.3579,-81 1199.3579,-62 1055.3579,-62"/>
<text text-anchor="middle" x="1127.3579" y="-69" font-family="Helvetica,sans-Serif" font-size="10.00" fill="#000000">glm/gtc/matrix_transform.hpp</text>
</g>
<!-- Node30&#45;&gt;Node33 -->
<g id="edge66" class="edge">
<title>Node30&#45;&gt;Node33</title>
<path fill="none" stroke="#191970" d="M1047.6826,-128.9005C1062.8757,-117.9549 1087.9282,-99.9064 1105.8864,-86.9688"/>
<polygon fill="#191970" stroke="#191970" points="1107.9902,-89.7668 1114.058,-81.0817 1103.8984,-84.0872 1107.9902,-89.7668"/>
</g>
<!-- Node34&#45;&gt;Node4 -->
<g id="edge69" class="edge">
<title>Node34&#45;&gt;Node4</title>
<path fill="none" stroke="#191970" d="M1493.0767,-251.8906C1490.1045,-243.1862 1485.6365,-230.1015 1481.9309,-219.2494"/>
<polygon fill="#191970" stroke="#191970" points="1485.2292,-218.0773 1478.6855,-209.7449 1478.6047,-220.3394 1485.2292,-218.0773"/>
</g>
<!-- Node34&#45;&gt;Node11 -->
<g id="edge68" class="edge">
<title>Node34&#45;&gt;Node11</title>
<path fill="none" stroke="#191970" d="M1539.5058,-251.9308C1548.6916,-249.9356 1558.3398,-247.8712 1567.3579,-246 1648.5214,-229.1592 1692.4122,-269.2739 1750.3579,-210 1781.5191,-178.1246 1780.4304,-121.2233 1777.2494,-91.2383"/>
<polygon fill="#191970" stroke="#191970" points="1780.7045,-90.6608 1775.9907,-81.1724 1773.7586,-91.5294 1780.7045,-90.6608"/>
</g>
<!-- Node35&#45;&gt;Node4 -->
<g id="edge76" class="edge">
<title>Node35&#45;&gt;Node4</title>
<path fill="none" stroke="#191970" d="M1360.5413,-246.4554C1385.5692,-236.329 1418.2742,-223.0964 1442.3745,-213.3453"/>
<polygon fill="#191970" stroke="#191970" points="1443.8461,-216.5256 1451.8033,-209.5303 1441.2206,-210.0366 1443.8461,-216.5256"/>
</g>
<!-- Node35&#45;&gt;Node11 -->
<g id="edge75" class="edge">
<title>Node35&#45;&gt;Node11</title>
<path fill="none" stroke="#191970" d="M1378.6806,-251.4319C1473.7361,-233.3216 1663.0897,-193.45 1717.3579,-154 1740.0368,-137.5137 1756.7404,-109.1183 1766.0109,-90.3234"/>
<polygon fill="#191970" stroke="#191970" points="1769.1918,-91.7837 1770.2805,-81.245 1762.8574,-88.8046 1769.1918,-91.7837"/>
</g>
<!-- Node36 -->
<g id="node37" class="node">
<title>Node36</title>
<g id="a_node37"><a xlink:href="LoadingGameObjects_8h.html" target="_top" xlink:title="LoadingGameObjects.h">
<polygon fill="none" stroke="#000000" points="1306.8579,-129 1306.8579,-148 1425.8579,-148 1425.8579,-129 1306.8579,-129"/>
<text text-anchor="middle" x="1366.3579" y="-136" font-family="Helvetica,sans-Serif" font-size="10.00" fill="#000000">LoadingGameObjects.h</text>
</a>
</g>
</g>
<!-- Node35&#45;&gt;Node36 -->
<g id="edge71" class="edge">
<title>Node35&#45;&gt;Node36</title>
<path fill="none" stroke="#191970" d="M1328.6306,-246.4178C1336.4447,-224.0657 1351.0961,-182.1559 1359.6597,-157.6602"/>
<polygon fill="#191970" stroke="#191970" points="1363.0234,-158.6441 1363.0196,-148.0493 1356.4155,-156.334 1363.0234,-158.6441"/>
</g>
<!-- Node36&#45;&gt;Node3 -->
<g id="edge72" class="edge">
<title>Node36&#45;&gt;Node3</title>
<path fill="none" stroke="#191970" d="M1377.1036,-128.9005C1389.022,-118.2535 1408.4637,-100.8856 1422.8448,-88.0385"/>
<polygon fill="#191970" stroke="#191970" points="1425.5063,-90.354 1430.6322,-81.0817 1420.8428,-85.1337 1425.5063,-90.354"/>
</g>
<!-- Node36&#45;&gt;Node29 -->
<g id="edge73" class="edge">
<title>Node36&#45;&gt;Node29</title>
<path fill="none" stroke="#191970" d="M1367.6474,-128.9005C1368.9573,-119.149 1371.0246,-103.7597 1372.6889,-91.3695"/>
<polygon fill="#191970" stroke="#191970" points="1376.2083,-91.4586 1374.0709,-81.0817 1369.2706,-90.5266 1376.2083,-91.4586"/>
</g>
<!-- Node37 -->
<g id="node38" class="node">
<title>Node37</title>
<polygon fill="none" stroke="#bfbfbf" points="1485.3579,-62 1485.3579,-81 1541.3579,-81 1541.3579,-62 1485.3579,-62"/>
<text text-anchor="middle" x="1513.3579" y="-69" font-family="Helvetica,sans-Serif" font-size="10.00" fill="#000000">tinyxml.h</text>
</g>
<!-- Node36&#45;&gt;Node37 -->
<g id="edge74" class="edge">
<title>Node36&#45;&gt;Node37</title>
<path fill="none" stroke="#191970" d="M1387.4195,-128.9005C1412.526,-117.4574 1454.6656,-98.2509 1483.2177,-85.2374"/>
<polygon fill="#191970" stroke="#191970" points="1484.6877,-88.4139 1492.3355,-81.0817 1481.7845,-82.0443 1484.6877,-88.4139"/>
</g>
<!-- Node38&#45;&gt;Node4 -->
<g id="edge79" class="edge">
<title>Node38&#45;&gt;Node4</title>
<path fill="none" stroke="#191970" d="M1591.6853,-246.4554C1566.3281,-236.329 1533.1928,-223.0964 1508.7754,-213.3453"/>
<polygon fill="#191970" stroke="#191970" points="1509.8074,-209.9887 1499.2225,-209.5303 1507.2113,-216.4895 1509.8074,-209.9887"/>
</g>
<!-- Node38&#45;&gt;Node11 -->
<g id="edge78" class="edge">
<title>Node38&#45;&gt;Node11</title>
<path fill="none" stroke="#191970" d="M1683.121,-247.4399C1726.6738,-235.5096 1781.8515,-218.9466 1788.3579,-210 1814.3104,-174.3142 1796.1234,-119.0825 1783.5564,-90.3366"/>
<polygon fill="#191970" stroke="#191970" points="1786.6333,-88.6503 1779.2729,-81.0296 1780.2745,-91.577 1786.6333,-88.6503"/>
</g>
<!-- Node39&#45;&gt;Node4 -->
<g id="edge82" class="edge">
<title>Node39&#45;&gt;Node4</title>
<path fill="none" stroke="#191970" d="M1700.618,-247.939C1697.8267,-247.2741 1695.0606,-246.6241 1692.3579,-246 1637.8776,-233.4199 1575.3943,-220.313 1531.5098,-211.3235"/>
<polygon fill="#191970" stroke="#191970" points="1532.1041,-207.8727 1521.6059,-209.2999 1530.7028,-214.731 1532.1041,-207.8727"/>
</g>
<!-- Node39&#45;&gt;Node11 -->
<g id="edge81" class="edge">
<title>Node39&#45;&gt;Node11</title>
<path fill="none" stroke="#191970" d="M1788.0912,-246.3642C1802.6581,-237.9147 1818.2056,-225.8543 1826.3579,-210 1844.0398,-175.613 1841.2413,-158.6875 1826.3579,-123 1820.4341,-108.7957 1808.4749,-96.5036 1797.5177,-87.4942"/>
<polygon fill="#191970" stroke="#191970" points="1799.5052,-84.607 1789.4505,-81.2672 1795.2279,-90.1482 1799.5052,-84.607"/>
</g>
</g>
</svg>
