<?xml version="1.0" encoding="UTF-8" standalone="no"?>
<!DOCTYPE svg PUBLIC "-//W3C//DTD SVG 1.1//EN"
 "http://www.w3.org/Graphics/SVG/1.1/DTD/svg11.dtd">
<!-- Generated by graphviz version 2.40.1 (20161225.0304)
 -->
<!-- Title: /mnt/hdd/C0de/smart_engine/include/game.h Pages: 1 -->
<svg width="741pt" height="195pt"
 viewBox="0.00 0.00 740.50 195.00" xmlns="http://www.w3.org/2000/svg" xmlns:xlink="http://www.w3.org/1999/xlink">
<g id="graph0" class="graph" transform="scale(1 1) rotate(0) translate(4 191)">
<title>/mnt/hdd/C0de/smart_engine/include/game.h</title>
<!-- Node10 -->
<g id="node1" class="node">
<title>Node10</title>
<polygon fill="#bfbfbf" stroke="#000000" points="314,-156.5 314,-186.5 433,-186.5 433,-156.5 314,-156.5"/>
<text text-anchor="start" x="322" y="-174.5" font-family="Helvetica,sans-Serif" font-size="10.00" fill="#000000">/mnt/hdd/C0de/smart</text>
<text text-anchor="middle" x="373.5" y="-163.5" font-family="Helvetica,sans-Serif" font-size="10.00" fill="#000000">_engine/include/game.h</text>
</g>
<!-- Node11 -->
<g id="node2" class="node">
<title>Node11</title>
<g id="a_node2"><a xlink:href="game__over__state_8h.html" target="_top" xlink:title="/mnt/hdd/C0de/smart\l_engine/include/game\l_over_state.h">
<polygon fill="none" stroke="#000000" points="493,-78.5 493,-119.5 604,-119.5 604,-78.5 493,-78.5"/>
<text text-anchor="start" x="501" y="-107.5" font-family="Helvetica,sans-Serif" font-size="10.00" fill="#000000">/mnt/hdd/C0de/smart</text>
<text text-anchor="start" x="501" y="-96.5" font-family="Helvetica,sans-Serif" font-size="10.00" fill="#000000">_engine/include/game</text>
<text text-anchor="middle" x="548.5" y="-85.5" font-family="Helvetica,sans-Serif" font-size="10.00" fill="#000000">_over_state.h</text>
</a>
</g>
</g>
<!-- Node10&#45;&gt;Node11 -->
<g id="edge1" class="edge">
<title>Node10&#45;&gt;Node11</title>
<path fill="none" stroke="#191970" d="M419.1943,-152.5695C443.7081,-142.4138 473.9446,-129.8872 499.0136,-119.5015"/>
<polygon fill="#191970" stroke="#191970" points="417.6591,-149.417 409.7601,-156.478 420.3383,-155.884 417.6591,-149.417"/>
</g>
<!-- Node12 -->
<g id="node3" class="node">
<title>Node12</title>
<g id="a_node3"><a xlink:href="game_8cpp.html" target="_top" xlink:title="/mnt/hdd/C0de/smart\l_engine/src/game.cpp">
<polygon fill="none" stroke="#000000" points="274,-6 274,-36 387,-36 387,-6 274,-6"/>
<text text-anchor="start" x="282" y="-24" font-family="Helvetica,sans-Serif" font-size="10.00" fill="#000000">/mnt/hdd/C0de/smart</text>
<text text-anchor="middle" x="330.5" y="-13" font-family="Helvetica,sans-Serif" font-size="10.00" fill="#000000">_engine/src/game.cpp</text>
</a>
</g>
</g>
<!-- Node10&#45;&gt;Node12 -->
<g id="edge13" class="edge">
<title>Node10&#45;&gt;Node12</title>
<path fill="none" stroke="#191970" d="M360.5482,-146.935C356.5449,-138.5664 352.424,-129.0393 349.5,-120 340.1276,-91.0261 334.7183,-55.7031 332.2145,-36.047"/>
<polygon fill="#191970" stroke="#191970" points="357.5314,-148.7293 365.1149,-156.128 363.8005,-145.615 357.5314,-148.7293"/>
</g>
<!-- Node14 -->
<g id="node5" class="node">
<title>Node14</title>
<g id="a_node5"><a xlink:href="game__play__state_8h.html" target="_top" xlink:title="/mnt/hdd/C0de/smart\l_engine/include/game\l_play_state.h">
<polygon fill="none" stroke="#000000" points="64,-78.5 64,-119.5 175,-119.5 175,-78.5 64,-78.5"/>
<text text-anchor="start" x="72" y="-107.5" font-family="Helvetica,sans-Serif" font-size="10.00" fill="#000000">/mnt/hdd/C0de/smart</text>
<text text-anchor="start" x="72" y="-96.5" font-family="Helvetica,sans-Serif" font-size="10.00" fill="#000000">_engine/include/game</text>
<text text-anchor="middle" x="119.5" y="-85.5" font-family="Helvetica,sans-Serif" font-size="10.00" fill="#000000">_play_state.h</text>
</a>
</g>
</g>
<!-- Node10&#45;&gt;Node14 -->
<g id="edge4" class="edge">
<title>Node10&#45;&gt;Node14</title>
<path fill="none" stroke="#191970" d="M304.6817,-153.776C268.4875,-144.22 223.4527,-131.9604 183.5,-120 180.8113,-119.1951 178.0643,-118.3566 175.2935,-117.4978"/>
<polygon fill="#191970" stroke="#191970" points="304.0829,-157.2375 314.6443,-156.3971 305.8639,-150.4679 304.0829,-157.2375"/>
</g>
<!-- Node16 -->
<g id="node7" class="node">
<title>Node16</title>
<g id="a_node7"><a xlink:href="main__menu__state_8h.html" target="_top" xlink:title="/mnt/hdd/C0de/smart\l_engine/include/main\l_menu_state.h">
<polygon fill="none" stroke="#000000" points="193,-78.5 193,-119.5 302,-119.5 302,-78.5 193,-78.5"/>
<text text-anchor="start" x="201" y="-107.5" font-family="Helvetica,sans-Serif" font-size="10.00" fill="#000000">/mnt/hdd/C0de/smart</text>
<text text-anchor="start" x="201" y="-96.5" font-family="Helvetica,sans-Serif" font-size="10.00" fill="#000000">_engine/include/main</text>
<text text-anchor="middle" x="247.5" y="-85.5" font-family="Helvetica,sans-Serif" font-size="10.00" fill="#000000">_menu_state.h</text>
</a>
</g>
</g>
<!-- Node10&#45;&gt;Node16 -->
<g id="edge7" class="edge">
<title>Node10&#45;&gt;Node16</title>
<path fill="none" stroke="#191970" d="M338.7107,-151.4823C321.4136,-141.5296 300.5409,-129.5196 283.1302,-119.5015"/>
<polygon fill="#191970" stroke="#191970" points="336.9796,-154.5243 347.3927,-156.478 340.4707,-148.457 336.9796,-154.5243"/>
</g>
<!-- Node18 -->
<g id="node9" class="node">
<title>Node18</title>
<g id="a_node9"><a xlink:href="splash__state_8h.html" target="_top" xlink:title="/mnt/hdd/C0de/smart\l_engine/include/splash\l_state.h">
<polygon fill="none" stroke="#000000" points="358.5,-78.5 358.5,-119.5 474.5,-119.5 474.5,-78.5 358.5,-78.5"/>
<text text-anchor="start" x="366.5" y="-107.5" font-family="Helvetica,sans-Serif" font-size="10.00" fill="#000000">/mnt/hdd/C0de/smart</text>
<text text-anchor="start" x="366.5" y="-96.5" font-family="Helvetica,sans-Serif" font-size="10.00" fill="#000000">_engine/include/splash</text>
<text text-anchor="middle" x="416.5" y="-85.5" font-family="Helvetica,sans-Serif" font-size="10.00" fill="#000000">_state.h</text>
</a>
</g>
</g>
<!-- Node10&#45;&gt;Node18 -->
<g id="edge10" class="edge">
<title>Node10&#45;&gt;Node18</title>
<path fill="none" stroke="#191970" d="M387.5326,-147.8403C392.9578,-138.6932 399.1074,-128.3248 404.3405,-119.5015"/>
<polygon fill="#191970" stroke="#191970" points="384.5006,-146.0915 382.4096,-156.478 390.5213,-149.6624 384.5006,-146.0915"/>
</g>
<!-- Node20 -->
<g id="node11" class="node">
<title>Node20</title>
<g id="a_node11"><a xlink:href="main_8cpp.html" target="_top" xlink:title="/mnt/hdd/C0de/smart\l_engine/src/main.cpp">
<polygon fill="none" stroke="#000000" points="622.5,-84 622.5,-114 732.5,-114 732.5,-84 622.5,-84"/>
<text text-anchor="start" x="630.5" y="-102" font-family="Helvetica,sans-Serif" font-size="10.00" fill="#000000">/mnt/hdd/C0de/smart</text>
<text text-anchor="middle" x="677.5" y="-91" font-family="Helvetica,sans-Serif" font-size="10.00" fill="#000000">_engine/src/main.cpp</text>
</a>
</g>
</g>
<!-- Node10&#45;&gt;Node20 -->
<g id="edge14" class="edge">
<title>Node10&#45;&gt;Node20</title>
<path fill="none" stroke="#191970" d="M443.1029,-158.5858C491.263,-149.1579 556.6612,-135.3773 613.5,-120 620.0471,-118.2287 626.9127,-116.1821 633.6165,-114.0759"/>
<polygon fill="#191970" stroke="#191970" points="442.2455,-155.1868 433.097,-160.5305 443.5811,-162.0583 442.2455,-155.1868"/>
</g>
<!-- Node11&#45;&gt;Node12 -->
<g id="edge2" class="edge">
<title>Node11&#45;&gt;Node12</title>
<path fill="none" stroke="#191970" d="M483.4934,-75.7408C447.5738,-62.8888 403.9951,-47.2964 372.5497,-36.0453"/>
<polygon fill="#191970" stroke="#191970" points="482.3308,-79.042 492.9253,-79.1155 484.689,-72.4512 482.3308,-79.042"/>
</g>
<!-- Node13 -->
<g id="node4" class="node">
<title>Node13</title>
<g id="a_node4"><a xlink:href="game__over__state_8cpp.html" target="_top" xlink:title="/mnt/hdd/C0de/smart\l_engine/src/game_over\l_state.cpp">
<polygon fill="none" stroke="#000000" points="567.5,-.5 567.5,-41.5 685.5,-41.5 685.5,-.5 567.5,-.5"/>
<text text-anchor="start" x="575.5" y="-29.5" font-family="Helvetica,sans-Serif" font-size="10.00" fill="#000000">/mnt/hdd/C0de/smart</text>
<text text-anchor="start" x="575.5" y="-18.5" font-family="Helvetica,sans-Serif" font-size="10.00" fill="#000000">_engine/src/game_over</text>
<text text-anchor="middle" x="626.5" y="-7.5" font-family="Helvetica,sans-Serif" font-size="10.00" fill="#000000">_state.cpp</text>
</a>
</g>
</g>
<!-- Node11&#45;&gt;Node13 -->
<g id="edge3" class="edge">
<title>Node11&#45;&gt;Node13</title>
<path fill="none" stroke="#191970" d="M576.5548,-70.9452C586.2134,-61.2866 596.8465,-50.6535 605.8102,-41.6898"/>
<polygon fill="#191970" stroke="#191970" points="573.9988,-68.5515 569.4026,-78.0974 578.9485,-73.5012 573.9988,-68.5515"/>
</g>
<!-- Node14&#45;&gt;Node12 -->
<g id="edge5" class="edge">
<title>Node14&#45;&gt;Node12</title>
<path fill="none" stroke="#191970" d="M184.7074,-74.8949C219.0497,-62.1996 260.0954,-47.0263 289.8722,-36.0188"/>
<polygon fill="#191970" stroke="#191970" points="183.3798,-71.6541 175.2138,-78.4044 185.807,-78.2198 183.3798,-71.6541"/>
</g>
<!-- Node15 -->
<g id="node6" class="node">
<title>Node15</title>
<g id="a_node6"><a xlink:href="game__play__state_8cpp.html" target="_top" xlink:title="/mnt/hdd/C0de/smart\l_engine/src/game_play\l_state.cpp">
<polygon fill="none" stroke="#000000" points="0,-.5 0,-41.5 117,-41.5 117,-.5 0,-.5"/>
<text text-anchor="start" x="8" y="-29.5" font-family="Helvetica,sans-Serif" font-size="10.00" fill="#000000">/mnt/hdd/C0de/smart</text>
<text text-anchor="start" x="8" y="-18.5" font-family="Helvetica,sans-Serif" font-size="10.00" fill="#000000">_engine/src/game_play</text>
<text text-anchor="middle" x="58.5" y="-7.5" font-family="Helvetica,sans-Serif" font-size="10.00" fill="#000000">_state.cpp</text>
</a>
</g>
</g>
<!-- Node14&#45;&gt;Node15 -->
<g id="edge6" class="edge">
<title>Node14&#45;&gt;Node15</title>
<path fill="none" stroke="#191970" d="M96.8913,-70.0905C89.5182,-60.6626 81.4844,-50.3899 74.6805,-41.6898"/>
<polygon fill="#191970" stroke="#191970" points="94.2357,-72.3764 103.1531,-78.0974 99.7497,-68.0641 94.2357,-72.3764"/>
</g>
<!-- Node16&#45;&gt;Node12 -->
<g id="edge8" class="edge">
<title>Node16&#45;&gt;Node12</title>
<path fill="none" stroke="#191970" d="M277.3145,-70.9816C289.8719,-59.1807 303.9834,-45.9193 314.5137,-36.0233"/>
<polygon fill="#191970" stroke="#191970" points="274.6328,-68.6987 269.7425,-78.0974 279.4265,-73.7997 274.6328,-68.6987"/>
</g>
<!-- Node17 -->
<g id="node8" class="node">
<title>Node17</title>
<g id="a_node8"><a xlink:href="main__menu__state_8cpp.html" target="_top" xlink:title="/mnt/hdd/C0de/smart\l_engine/src/main_menu\l_state.cpp">
<polygon fill="none" stroke="#000000" points="135.5,-.5 135.5,-41.5 255.5,-41.5 255.5,-.5 135.5,-.5"/>
<text text-anchor="start" x="143.5" y="-29.5" font-family="Helvetica,sans-Serif" font-size="10.00" fill="#000000">/mnt/hdd/C0de/smart</text>
<text text-anchor="start" x="143.5" y="-18.5" font-family="Helvetica,sans-Serif" font-size="10.00" fill="#000000">_engine/src/main_menu</text>
<text text-anchor="middle" x="195.5" y="-7.5" font-family="Helvetica,sans-Serif" font-size="10.00" fill="#000000">_state.cpp</text>
</a>
</g>
</g>
<!-- Node16&#45;&gt;Node17 -->
<g id="edge9" class="edge">
<title>Node16&#45;&gt;Node17</title>
<path fill="none" stroke="#191970" d="M227.8454,-69.5181C221.6655,-60.2482 214.9761,-50.2141 209.2932,-41.6898"/>
<polygon fill="#191970" stroke="#191970" points="225.1057,-71.7184 233.565,-78.0974 230.9301,-67.8354 225.1057,-71.7184"/>
</g>
<!-- Node18&#45;&gt;Node12 -->
<g id="edge11" class="edge">
<title>Node18&#45;&gt;Node12</title>
<path fill="none" stroke="#191970" d="M385.9757,-71.3152C372.8728,-59.4312 358.078,-46.0126 347.0642,-36.0233"/>
<polygon fill="#191970" stroke="#191970" points="383.695,-73.9718 393.4536,-78.0974 388.3977,-68.7867 383.695,-73.9718"/>
</g>
<!-- Node19 -->
<g id="node10" class="node">
<title>Node19</title>
<g id="a_node10"><a xlink:href="splash__state_8cpp.html" target="_top" xlink:title="/mnt/hdd/C0de/smart\l_engine/src/splash_state.cpp">
<polygon fill="none" stroke="#000000" points="405.5,-6 405.5,-36 549.5,-36 549.5,-6 405.5,-6"/>
<text text-anchor="start" x="413.5" y="-24" font-family="Helvetica,sans-Serif" font-size="10.00" fill="#000000">/mnt/hdd/C0de/smart</text>
<text text-anchor="middle" x="477.5" y="-13" font-family="Helvetica,sans-Serif" font-size="10.00" fill="#000000">_engine/src/splash_state.cpp</text>
</a>
</g>
</g>
<!-- Node18&#45;&gt;Node19 -->
<g id="edge12" class="edge">
<title>Node18&#45;&gt;Node19</title>
<path fill="none" stroke="#191970" d="M439.1534,-70.0334C448.1164,-58.5725 458.0493,-45.8714 465.5597,-36.2679"/>
<polygon fill="#191970" stroke="#191970" points="436.2503,-68.0641 432.8469,-78.0974 441.7643,-72.3764 436.2503,-68.0641"/>
</g>
</g>
</svg>
