<?xml version="1.0" encoding="UTF-8" standalone="no"?>
<!DOCTYPE svg PUBLIC "-//W3C//DTD SVG 1.1//EN"
 "http://www.w3.org/Graphics/SVG/1.1/DTD/svg11.dtd">
<!-- Generated by graphviz version 2.40.1 (20161225.0304)
 -->
<!-- Title: /mnt/hdd/C0de/smart_engine/src/game_over_state.cpp Pages: 1 -->
<!--zoomable 352 -->
<svg id="main" version="1.1" xmlns="http://www.w3.org/2000/svg" xmlns:xlink="http://www.w3.org/1999/xlink" xml:space="preserve" onload="init(evt)">
<style type="text/css"><![CDATA[
.edge:hover path { stroke: red; }
.edge:hover polygon { stroke: red; fill: red; }
]]></style>
<script type="text/javascript"><![CDATA[
var edges = document.getElementsByTagName('g');
if (edges && edges.length) {
  for (var i=0;i<edges.length;i++) {
    if (edges[i].id.substr(0,4)=='edge') {
      edges[i].setAttribute('class','edge');
    }
  }
}
]]></script>
        <defs>
                <circle id="rim" cx="0" cy="0" r="7"/>
                <circle id="rim2" cx="0" cy="0" r="3.5"/>
                <g id="zoomPlus">
                        <use xlink:href="#rim" fill="#404040">
                                <set attributeName="fill" to="#808080" begin="zoomplus.mouseover" end="zoomplus.mouseout"/>
                        </use>
                        <path d="M-4,0h8M0,-4v8" fill="none" stroke="white" stroke-width="1.5" pointer-events="none"/>
                </g>
                <g id="zoomMin">
                        <use xlink:href="#rim" fill="#404040">
                                <set attributeName="fill" to="#808080" begin="zoomminus.mouseover" end="zoomminus.mouseout"/>
                        </use>
                        <path d="M-4,0h8" fill="none" stroke="white" stroke-width="1.5" pointer-events="none"/>
                </g>
                <g id="dirArrow">
                        <path fill="none" stroke="white" stroke-width="1.5" d="M0,-3.0v7 M-2.5,-0.5L0,-3.0L2.5,-0.5"/>
                </g>
               <g id="resetDef">
                       <use xlink:href="#rim2" fill="#404040">
                               <set attributeName="fill" to="#808080" begin="reset.mouseover" end="reset.mouseout"/>
                       </use>
               </g>
        </defs>

<script type="text/javascript">
var viewWidth = 1746;
var viewHeight = 352;
var sectionId = 'dynsection-0';
</script>
<script xlink:href="svgpan.js"/>
<svg id="graph" class="graph">
<g id="viewport">
<title>/mnt/hdd/C0de/smart_engine/src/game_over_state.cpp</title>
<!-- Node0 -->
<g id="node1" class="node">
<title>Node0</title>
<polygon fill="#bfbfbf" stroke="#000000" points="796,-302.5 796,-343.5 914,-343.5 914,-302.5 796,-302.5"/>
<text text-anchor="start" x="804" y="-331.5" font-family="Helvetica,sans-Serif" font-size="10.00" fill="#000000">/mnt/hdd/C0de/smart</text>
<text text-anchor="start" x="804" y="-320.5" font-family="Helvetica,sans-Serif" font-size="10.00" fill="#000000">_engine/src/game_over</text>
<text text-anchor="middle" x="855" y="-309.5" font-family="Helvetica,sans-Serif" font-size="10.00" fill="#000000">_state.cpp</text>
</g>
<!-- Node1 -->
<g id="node2" class="node">
<title>Node1</title>
<g id="a_node2"><a xlink:href="sprite__renderer_8h.html" target="_top" xlink:title="../include/sprite_renderer.h">
<polygon fill="none" stroke="#000000" points="281,-123.5 281,-142.5 413,-142.5 413,-123.5 281,-123.5"/>
<text text-anchor="middle" x="347" y="-130.5" font-family="Helvetica,sans-Serif" font-size="10.00" fill="#000000">../include/sprite_renderer.h</text>
</a>
</g>
</g>
<!-- Node0&#45;&gt;Node1 -->
<g id="edge1" class="edge">
<title>Node0&#45;&gt;Node1</title>
<path fill="none" stroke="#191970" d="M800.1524,-302.4861C695.2852,-263.2641 469.0451,-178.6468 382.0602,-146.1131"/>
<polygon fill="#191970" stroke="#191970" points="383.231,-142.8142 372.6386,-142.5892 380.7788,-149.3707 383.231,-142.8142"/>
</g>
<!-- Node16 -->
<g id="node17" class="node">
<title>Node16</title>
<g id="a_node17"><a xlink:href="text__renderer_8h.html" target="_top" xlink:title="../include/text_renderer.h">
<polygon fill="none" stroke="#000000" points="507.5,-123.5 507.5,-142.5 632.5,-142.5 632.5,-123.5 507.5,-123.5"/>
<text text-anchor="middle" x="570" y="-130.5" font-family="Helvetica,sans-Serif" font-size="10.00" fill="#000000">../include/text_renderer.h</text>
</a>
</g>
</g>
<!-- Node0&#45;&gt;Node16 -->
<g id="edge20" class="edge">
<title>Node0&#45;&gt;Node16</title>
<path fill="none" stroke="#191970" d="M824.2292,-302.4861C766.6575,-264.105 643.881,-182.254 592.9144,-148.2763"/>
<polygon fill="#191970" stroke="#191970" points="594.8024,-145.3285 584.5404,-142.6936 590.9195,-151.1528 594.8024,-145.3285"/>
</g>
<!-- Node19 -->
<g id="node20" class="node">
<title>Node19</title>
<g id="a_node20"><a xlink:href="entity__manager_8h.html" target="_top" xlink:title="../include/entity_manager.h">
<polygon fill="none" stroke="#000000" points="788,-241 788,-260 922,-260 922,-241 788,-241"/>
<text text-anchor="middle" x="855" y="-248" font-family="Helvetica,sans-Serif" font-size="10.00" fill="#000000">../include/entity_manager.h</text>
</a>
</g>
</g>
<!-- Node0&#45;&gt;Node19 -->
<g id="edge28" class="edge">
<title>Node0&#45;&gt;Node19</title>
<path fill="none" stroke="#191970" d="M855,-302.4183C855,-292.32 855,-280.213 855,-270.2314"/>
<polygon fill="#191970" stroke="#191970" points="858.5001,-270.0853 855,-260.0853 851.5001,-270.0854 858.5001,-270.0853"/>
</g>
<!-- Node28 -->
<g id="node29" class="node">
<title>Node28</title>
<g id="a_node29"><a xlink:href="LoadingGameObjects_8h.html" target="_top" xlink:title="../include/LoadingGameObjects.h">
<polygon fill="none" stroke="#000000" points="1209.5,-123.5 1209.5,-142.5 1370.5,-142.5 1370.5,-123.5 1209.5,-123.5"/>
<text text-anchor="middle" x="1290" y="-130.5" font-family="Helvetica,sans-Serif" font-size="10.00" fill="#000000">../include/LoadingGameObjects.h</text>
</a>
</g>
</g>
<!-- Node0&#45;&gt;Node28 -->
<g id="edge51" class="edge">
<title>Node0&#45;&gt;Node28</title>
<path fill="none" stroke="#191970" d="M901.9659,-302.4861C991.1121,-263.5487 1182.687,-179.8724 1258.3378,-146.8295"/>
<polygon fill="#191970" stroke="#191970" points="1260.0437,-149.9037 1267.8067,-142.6936 1257.2418,-143.4889 1260.0437,-149.9037"/>
</g>
<!-- Node30 -->
<g id="node31" class="node">
<title>Node30</title>
<g id="a_node31"><a xlink:href="game__over__state_8h.html" target="_top" xlink:title="../include/game_over\l_state.h">
<polygon fill="none" stroke="#000000" points="1383.5,-235.5 1383.5,-265.5 1490.5,-265.5 1490.5,-235.5 1383.5,-235.5"/>
<text text-anchor="start" x="1391.5" y="-253.5" font-family="Helvetica,sans-Serif" font-size="10.00" fill="#000000">../include/game_over</text>
<text text-anchor="middle" x="1437" y="-242.5" font-family="Helvetica,sans-Serif" font-size="10.00" fill="#000000">_state.h</text>
</a>
</g>
</g>
<!-- Node0&#45;&gt;Node30 -->
<g id="edge55" class="edge">
<title>Node0&#45;&gt;Node30</title>
<path fill="none" stroke="#191970" d="M914.0081,-315.6493C1024.1124,-301.9336 1259.9559,-272.5545 1373.4328,-258.4186"/>
<polygon fill="#191970" stroke="#191970" points="1373.8755,-261.8906 1383.3661,-257.1812 1373.0101,-254.9443 1373.8755,-261.8906"/>
</g>
<!-- Node2 -->
<g id="node3" class="node">
<title>Node2</title>
<polygon fill="none" stroke="#bfbfbf" points="24,-62 24,-81 68,-81 68,-62 24,-62"/>
<text text-anchor="middle" x="46" y="-69" font-family="Helvetica,sans-Serif" font-size="10.00" fill="#000000">cmath</text>
</g>
<!-- Node1&#45;&gt;Node2 -->
<g id="edge2" class="edge">
<title>Node1&#45;&gt;Node2</title>
<path fill="none" stroke="#191970" d="M280.8834,-124.0136C213.5269,-114.4516 113.8889,-99.0692 77,-87 75.388,-86.4726 73.7551,-85.8734 72.1256,-85.2246"/>
<polygon fill="#191970" stroke="#191970" points="73.5524,-82.0287 62.9965,-81.1215 70.6827,-88.4135 73.5524,-82.0287"/>
</g>
<!-- Node3 -->
<g id="node4" class="node">
<title>Node3</title>
<polygon fill="none" stroke="#bfbfbf" points="453,-.5 453,-19.5 517,-19.5 517,-.5 453,-.5"/>
<text text-anchor="middle" x="485" y="-7.5" font-family="Helvetica,sans-Serif" font-size="10.00" fill="#000000">glad/glad.h</text>
</g>
<!-- Node1&#45;&gt;Node3 -->
<g id="edge3" class="edge">
<title>Node1&#45;&gt;Node3</title>
<path fill="none" stroke="#191970" d="M343.7389,-123.4015C339.0492,-107.6789 332.4614,-76.1712 347,-56 358.4728,-40.0823 406.8628,-26.5402 443.1259,-18.3544"/>
<polygon fill="#191970" stroke="#191970" points="443.9739,-21.7517 452.9916,-16.1902 442.4738,-14.9143 443.9739,-21.7517"/>
</g>
<!-- Node4 -->
<g id="node5" class="node">
<title>Node4</title>
<polygon fill="none" stroke="#bfbfbf" points="791,-62 791,-81 871,-81 871,-62 791,-62"/>
<text text-anchor="middle" x="831" y="-69" font-family="Helvetica,sans-Serif" font-size="10.00" fill="#000000">GLFW/glfw3.h</text>
</g>
<!-- Node1&#45;&gt;Node4 -->
<g id="edge4" class="edge">
<title>Node1&#45;&gt;Node4</title>
<path fill="none" stroke="#191970" d="M413.1915,-126.5768C492.1306,-118.6289 627.9845,-104.0398 744,-87 755.9773,-85.2408 768.8365,-83.0935 780.8961,-80.9645"/>
<polygon fill="#191970" stroke="#191970" points="781.5754,-84.3986 790.8011,-79.1894 780.3405,-77.5084 781.5754,-84.3986"/>
</g>
<!-- Node5 -->
<g id="node6" class="node">
<title>Node5</title>
<polygon fill="none" stroke="#bfbfbf" points="681,-62 681,-81 735,-81 735,-62 681,-62"/>
<text text-anchor="middle" x="708" y="-69" font-family="Helvetica,sans-Serif" font-size="10.00" fill="#000000">iostream</text>
</g>
<!-- Node1&#45;&gt;Node5 -->
<g id="edge5" class="edge">
<title>Node1&#45;&gt;Node5</title>
<path fill="none" stroke="#191970" d="M403.0102,-123.4581C477.4872,-110.7702 607.0968,-88.6899 670.6694,-77.8597"/>
<polygon fill="#191970" stroke="#191970" points="671.3816,-81.2888 680.6518,-76.159 670.206,-74.3882 671.3816,-81.2888"/>
</g>
<!-- Node6 -->
<g id="node7" class="node">
<title>Node6</title>
<polygon fill="none" stroke="#bfbfbf" points="152.5,-.5 152.5,-19.5 193.5,-19.5 193.5,-.5 152.5,-.5"/>
<text text-anchor="middle" x="173" y="-7.5" font-family="Helvetica,sans-Serif" font-size="10.00" fill="#000000">string</text>
</g>
<!-- Node1&#45;&gt;Node6 -->
<g id="edge6" class="edge">
<title>Node1&#45;&gt;Node6</title>
<path fill="none" stroke="#191970" d="M287.8645,-123.4533C246.732,-115.5562 196.8822,-103.0454 183,-87 169.4702,-71.3619 168.5643,-46.8176 170.0115,-29.6555"/>
<polygon fill="#191970" stroke="#191970" points="173.5007,-29.9518 171.1932,-19.6113 166.5486,-29.1338 173.5007,-29.9518"/>
</g>
<!-- Node7 -->
<g id="node8" class="node">
<title>Node7</title>
<polygon fill="none" stroke="#bfbfbf" points="356.5,-62 356.5,-81 439.5,-81 439.5,-62 356.5,-62"/>
<text text-anchor="middle" x="398" y="-69" font-family="Helvetica,sans-Serif" font-size="10.00" fill="#000000">unordered_map</text>
</g>
<!-- Node1&#45;&gt;Node7 -->
<g id="edge7" class="edge">
<title>Node1&#45;&gt;Node7</title>
<path fill="none" stroke="#191970" d="M354.9688,-123.3906C362.5591,-114.2376 374.1661,-100.2409 383.4132,-89.09"/>
<polygon fill="#191970" stroke="#191970" points="386.2297,-91.1766 389.9189,-81.2449 380.8413,-86.7083 386.2297,-91.1766"/>
</g>
<!-- Node8 -->
<g id="node9" class="node">
<title>Node8</title>
<polygon fill="none" stroke="#bfbfbf" points="1447,-62 1447,-81 1499,-81 1499,-62 1447,-62"/>
<text text-anchor="middle" x="1473" y="-69" font-family="Helvetica,sans-Serif" font-size="10.00" fill="#000000">memory</text>
</g>
<!-- Node1&#45;&gt;Node8 -->
<g id="edge8" class="edge">
<title>Node1&#45;&gt;Node8</title>
<path fill="none" stroke="#191970" d="M413.1914,-128.25C439.8422,-126.4407 470.8732,-124.4641 499,-123 707.5376,-112.1447 1234.5658,-134.12 1438,-87 1440.4926,-86.4227 1443.027,-85.6684 1445.5344,-84.8035"/>
<polygon fill="#191970" stroke="#191970" points="1446.932,-88.0143 1454.9248,-81.0596 1444.3396,-81.512 1446.932,-88.0143"/>
</g>
<!-- Node9 -->
<g id="node10" class="node">
<title>Node9</title>
<g id="a_node10"><a xlink:href="texture_8h.html" target="_top" xlink:title="texture.h">
<polygon fill="none" stroke="#000000" points="457.5,-62 457.5,-81 512.5,-81 512.5,-62 457.5,-62"/>
<text text-anchor="middle" x="485" y="-69" font-family="Helvetica,sans-Serif" font-size="10.00" fill="#000000">texture.h</text>
</a>
</g>
</g>
<!-- Node1&#45;&gt;Node9 -->
<g id="edge9" class="edge">
<title>Node1&#45;&gt;Node9</title>
<path fill="none" stroke="#191970" d="M368.5625,-123.3906C391.5512,-113.1457 428.156,-96.8326 454.1824,-85.2339"/>
<polygon fill="#191970" stroke="#191970" points="455.8796,-88.3095 463.5889,-81.0419 453.0302,-81.9156 455.8796,-88.3095"/>
</g>
<!-- Node10 -->
<g id="node11" class="node">
<title>Node10</title>
<g id="a_node11"><a xlink:href="shader_8h.html" target="_top" xlink:title="shader.h">
<polygon fill="none" stroke="#000000" points="246,-62 246,-81 300,-81 300,-62 246,-62"/>
<text text-anchor="middle" x="273" y="-69" font-family="Helvetica,sans-Serif" font-size="10.00" fill="#000000">shader.h</text>
</a>
</g>
</g>
<!-- Node1&#45;&gt;Node10 -->
<g id="edge11" class="edge">
<title>Node1&#45;&gt;Node10</title>
<path fill="none" stroke="#191970" d="M335.4375,-123.3906C323.9921,-113.8786 306.2527,-99.1357 292.603,-87.7917"/>
<polygon fill="#191970" stroke="#191970" points="294.6533,-84.9447 284.7255,-81.2449 290.1792,-90.3283 294.6533,-84.9447"/>
</g>
<!-- Node13 -->
<g id="node14" class="node">
<title>Node13</title>
<g id="a_node14"><a xlink:href="sprite_8h.html" target="_top" xlink:title="sprite.h">
<polygon fill="none" stroke="#000000" points="86.5,-62 86.5,-81 135.5,-81 135.5,-62 86.5,-62"/>
<text text-anchor="middle" x="111" y="-69" font-family="Helvetica,sans-Serif" font-size="10.00" fill="#000000">sprite.h</text>
</a>
</g>
</g>
<!-- Node1&#45;&gt;Node13 -->
<g id="edge16" class="edge">
<title>Node1&#45;&gt;Node13</title>
<path fill="none" stroke="#191970" d="M297.0635,-123.4845C256.9072,-115.3213 199.2636,-102.4467 150,-87 147.7123,-86.2827 145.3683,-85.4937 143.0203,-84.6633"/>
<polygon fill="#191970" stroke="#191970" points="144.072,-81.3198 133.4796,-81.0939 141.6192,-87.8761 144.072,-81.3198"/>
</g>
<!-- Node9&#45;&gt;Node3 -->
<g id="edge10" class="edge">
<title>Node9&#45;&gt;Node3</title>
<path fill="none" stroke="#191970" d="M485,-61.8906C485,-53.3657 485,-40.6392 485,-29.9235"/>
<polygon fill="#191970" stroke="#191970" points="488.5001,-29.7448 485,-19.7449 481.5001,-29.7449 488.5001,-29.7448"/>
</g>
<!-- Node10&#45;&gt;Node3 -->
<g id="edge13" class="edge">
<title>Node10&#45;&gt;Node3</title>
<path fill="none" stroke="#191970" d="M297.1417,-61.9211C302.6465,-59.8635 308.496,-57.7759 314,-56 357.5384,-41.9519 408.2406,-28.6925 443.0666,-20.0517"/>
<polygon fill="#191970" stroke="#191970" points="444.0207,-23.4214 452.8935,-17.6316 442.3467,-16.6245 444.0207,-23.4214"/>
</g>
<!-- Node10&#45;&gt;Node6 -->
<g id="edge12" class="edge">
<title>Node10&#45;&gt;Node6</title>
<path fill="none" stroke="#191970" d="M257.375,-61.8906C241.2302,-51.9616 215.8178,-36.333 197.0977,-24.8201"/>
<polygon fill="#191970" stroke="#191970" points="198.8669,-21.7992 188.5153,-19.5419 195.1998,-27.7619 198.8669,-21.7992"/>
</g>
<!-- Node11 -->
<g id="node12" class="node">
<title>Node11</title>
<polygon fill="none" stroke="#bfbfbf" points="673,-.5 673,-19.5 743,-19.5 743,-.5 673,-.5"/>
<text text-anchor="middle" x="708" y="-7.5" font-family="Helvetica,sans-Serif" font-size="10.00" fill="#000000">glm/glm.hpp</text>
</g>
<!-- Node10&#45;&gt;Node11 -->
<g id="edge14" class="edge">
<title>Node10&#45;&gt;Node11</title>
<path fill="none" stroke="#191970" d="M300.3127,-65.236C314.2363,-62.1812 331.4669,-58.6122 347,-56 460.0447,-36.9897 594.184,-21.8199 662.7341,-14.5958"/>
<polygon fill="#191970" stroke="#191970" points="663.1794,-18.0684 672.7608,-13.5466 662.4508,-11.1064 663.1794,-18.0684"/>
</g>
<!-- Node12 -->
<g id="node13" class="node">
<title>Node12</title>
<polygon fill="none" stroke="#bfbfbf" points="220,-.5 220,-19.5 326,-19.5 326,-.5 220,-.5"/>
<text text-anchor="middle" x="273" y="-7.5" font-family="Helvetica,sans-Serif" font-size="10.00" fill="#000000">glm/gtc/type_ptr.hpp</text>
</g>
<!-- Node10&#45;&gt;Node12 -->
<g id="edge15" class="edge">
<title>Node10&#45;&gt;Node12</title>
<path fill="none" stroke="#191970" d="M273,-61.8906C273,-53.3657 273,-40.6392 273,-29.9235"/>
<polygon fill="#191970" stroke="#191970" points="276.5001,-29.7448 273,-19.7449 269.5001,-29.7449 276.5001,-29.7448"/>
</g>
<!-- Node13&#45;&gt;Node11 -->
<g id="edge19" class="edge">
<title>Node13&#45;&gt;Node11</title>
<path fill="none" stroke="#191970" d="M135.5194,-65.4275C149.3786,-62.1955 167.0694,-58.4031 183,-56 359.4061,-29.3896 571.6561,-16.6295 662.81,-12.0587"/>
<polygon fill="#191970" stroke="#191970" points="662.9849,-15.5544 672.8005,-11.5664 662.6403,-8.5629 662.9849,-15.5544"/>
</g>
<!-- Node14 -->
<g id="node15" class="node">
<title>Node14</title>
<polygon fill="none" stroke="#bfbfbf" points="88,-.5 88,-19.5 134,-19.5 134,-.5 88,-.5"/>
<text text-anchor="middle" x="111" y="-7.5" font-family="Helvetica,sans-Serif" font-size="10.00" fill="#000000">stdio.h</text>
</g>
<!-- Node13&#45;&gt;Node14 -->
<g id="edge17" class="edge">
<title>Node13&#45;&gt;Node14</title>
<path fill="none" stroke="#191970" d="M111,-61.8906C111,-53.3657 111,-40.6392 111,-29.9235"/>
<polygon fill="#191970" stroke="#191970" points="114.5001,-29.7448 111,-19.7449 107.5001,-29.7449 114.5001,-29.7448"/>
</g>
<!-- Node15 -->
<g id="node16" class="node">
<title>Node15</title>
<polygon fill="none" stroke="#bfbfbf" points="0,-.5 0,-19.5 70,-19.5 70,-.5 0,-.5"/>
<text text-anchor="middle" x="35" y="-7.5" font-family="Helvetica,sans-Serif" font-size="10.00" fill="#000000">glm/fwd.hpp</text>
</g>
<!-- Node13&#45;&gt;Node15 -->
<g id="edge18" class="edge">
<title>Node13&#45;&gt;Node15</title>
<path fill="none" stroke="#191970" d="M99.125,-61.8906C87.3703,-52.3786 69.1514,-37.6357 55.1328,-26.2917"/>
<polygon fill="#191970" stroke="#191970" points="57.0178,-23.3146 47.0424,-19.7449 52.6144,-28.7562 57.0178,-23.3146"/>
</g>
<!-- Node16&#45;&gt;Node3 -->
<g id="edge22" class="edge">
<title>Node16&#45;&gt;Node3</title>
<path fill="none" stroke="#191970" d="M578.4354,-123.2764C590.6805,-107.9213 610.4217,-77.5875 596,-56 580.6723,-33.0561 551.5495,-21.5414 526.9797,-15.7705"/>
<polygon fill="#191970" stroke="#191970" points="527.638,-12.3325 517.1314,-13.6974 526.196,-19.1824 527.638,-12.3325"/>
</g>
<!-- Node16&#45;&gt;Node5 -->
<g id="edge24" class="edge">
<title>Node16&#45;&gt;Node5</title>
<path fill="none" stroke="#191970" d="M591.5625,-123.3906C614.5512,-113.1457 651.156,-96.8326 677.1824,-85.2339"/>
<polygon fill="#191970" stroke="#191970" points="678.8796,-88.3095 686.5889,-81.0419 676.0302,-81.9156 678.8796,-88.3095"/>
</g>
<!-- Node16&#45;&gt;Node9 -->
<g id="edge26" class="edge">
<title>Node16&#45;&gt;Node9</title>
<path fill="none" stroke="#191970" d="M556.7188,-123.3906C543.2452,-113.6421 522.178,-98.3994 506.3565,-86.9521"/>
<polygon fill="#191970" stroke="#191970" points="508.3414,-84.0682 498.188,-81.0419 504.2381,-89.7394 508.3414,-84.0682"/>
</g>
<!-- Node16&#45;&gt;Node10 -->
<g id="edge27" class="edge">
<title>Node16&#45;&gt;Node10</title>
<path fill="none" stroke="#191970" d="M523.4366,-123.4381C478.317,-114.1624 407.9573,-99.6711 347,-87 334.973,-84.5 321.8499,-81.7564 310.0395,-79.2814"/>
<polygon fill="#191970" stroke="#191970" points="310.5646,-75.8154 300.0591,-77.1884 309.1278,-82.6664 310.5646,-75.8154"/>
</g>
<!-- Node16&#45;&gt;Node11 -->
<g id="edge23" class="edge">
<title>Node16&#45;&gt;Node11</title>
<path fill="none" stroke="#191970" d="M580.8286,-123.3484C604.308,-102.4212 660.138,-52.6596 689.392,-26.5854"/>
<polygon fill="#191970" stroke="#191970" points="692.0853,-28.8733 697.2217,-19.6068 687.4277,-23.6477 692.0853,-28.8733"/>
</g>
<!-- Node17 -->
<g id="node18" class="node">
<title>Node17</title>
<polygon fill="none" stroke="#bfbfbf" points="192.5,-62 192.5,-81 227.5,-81 227.5,-62 192.5,-62"/>
<text text-anchor="middle" x="210" y="-69" font-family="Helvetica,sans-Serif" font-size="10.00" fill="#000000">map</text>
</g>
<!-- Node16&#45;&gt;Node17 -->
<g id="edge21" class="edge">
<title>Node16&#45;&gt;Node17</title>
<path fill="none" stroke="#191970" d="M507.3545,-127.2297C425.1652,-119.1635 285.6692,-103.6271 237,-87 235.7916,-86.5872 234.5764,-86.1186 233.3657,-85.6079"/>
<polygon fill="#191970" stroke="#191970" points="234.8769,-82.4504 224.3684,-81.1009 231.7418,-88.7091 234.8769,-82.4504"/>
</g>
<!-- Node18 -->
<g id="node19" class="node">
<title>Node18</title>
<polygon fill="none" stroke="#bfbfbf" points="531,-62 531,-81 587,-81 587,-62 531,-62"/>
<text text-anchor="middle" x="559" y="-69" font-family="Helvetica,sans-Serif" font-size="10.00" fill="#000000">ft2build.h</text>
</g>
<!-- Node16&#45;&gt;Node18 -->
<g id="edge25" class="edge">
<title>Node16&#45;&gt;Node18</title>
<path fill="none" stroke="#191970" d="M568.2813,-123.3906C566.7565,-114.8657 564.4802,-102.1392 562.5636,-91.4235"/>
<polygon fill="#191970" stroke="#191970" points="565.9491,-90.4724 560.743,-81.2449 559.0584,-91.7049 565.9491,-90.4724"/>
</g>
<!-- Node19&#45;&gt;Node7 -->
<g id="edge40" class="edge">
<title>Node19&#45;&gt;Node7</title>
<path fill="none" stroke="#191970" d="M794.076,-240.961C717.8674,-227.2611 585.0048,-197.4517 483,-143 456.1006,-128.6407 430.0019,-104.7413 413.9776,-88.5655"/>
<polygon fill="#191970" stroke="#191970" points="416.4322,-86.0691 406.9609,-81.3208 411.4039,-90.9391 416.4322,-86.0691"/>
</g>
<!-- Node20 -->
<g id="node21" class="node">
<title>Node20</title>
<g id="a_node21"><a xlink:href="entity_8h.html" target="_top" xlink:title="entity.h">
<polygon fill="none" stroke="#000000" points="734.5,-179.5 734.5,-198.5 783.5,-198.5 783.5,-179.5 734.5,-179.5"/>
<text text-anchor="middle" x="759" y="-186.5" font-family="Helvetica,sans-Serif" font-size="10.00" fill="#000000">entity.h</text>
</a>
</g>
</g>
<!-- Node19&#45;&gt;Node20 -->
<g id="edge29" class="edge">
<title>Node19&#45;&gt;Node20</title>
<path fill="none" stroke="#191970" d="M840,-240.8906C824.6419,-231.0519 800.5479,-215.6167 782.6255,-204.1351"/>
<polygon fill="#191970" stroke="#191970" points="784.203,-200.9891 773.8947,-198.5419 780.427,-206.8833 784.203,-200.9891"/>
</g>
<!-- Node23 -->
<g id="node24" class="node">
<title>Node23</title>
<polygon fill="none" stroke="#bfbfbf" points="1311,-62 1311,-81 1355,-81 1355,-62 1311,-62"/>
<text text-anchor="middle" x="1333" y="-69" font-family="Helvetica,sans-Serif" font-size="10.00" fill="#000000">vector</text>
</g>
<!-- Node19&#45;&gt;Node23 -->
<g id="edge41" class="edge">
<title>Node19&#45;&gt;Node23</title>
<path fill="none" stroke="#191970" d="M880.6994,-240.8762C961.8296,-210.4948 1212.3798,-116.6695 1301.298,-83.3717"/>
<polygon fill="#191970" stroke="#191970" points="1302.7019,-86.5834 1310.8394,-79.7986 1300.247,-80.0279 1302.7019,-86.5834"/>
</g>
<!-- Node24 -->
<g id="node25" class="node">
<title>Node24</title>
<g id="a_node25"><a xlink:href="Lines_8cpp.html" target="_top" xlink:title="../src/Lines.cpp">
<polygon fill="none" stroke="#000000" points="909,-123.5 909,-142.5 993,-142.5 993,-123.5 909,-123.5"/>
<text text-anchor="middle" x="951" y="-130.5" font-family="Helvetica,sans-Serif" font-size="10.00" fill="#000000">../src/Lines.cpp</text>
</a>
</g>
</g>
<!-- Node19&#45;&gt;Node24 -->
<g id="edge42" class="edge">
<title>Node19&#45;&gt;Node24</title>
<path fill="none" stroke="#191970" d="M862.8561,-240.8845C878.9592,-221.1749 915.923,-175.9328 936.5011,-150.7461"/>
<polygon fill="#191970" stroke="#191970" points="939.4187,-152.7068 943.0354,-142.7484 933.9979,-148.2779 939.4187,-152.7068"/>
</g>
<!-- Node20&#45;&gt;Node5 -->
<g id="edge32" class="edge">
<title>Node20&#45;&gt;Node5</title>
<path fill="none" stroke="#191970" d="M757.0898,-179.3108C754.3064,-166.1814 748.5214,-142.1777 740,-123 734.8174,-111.3363 727.3655,-99.1684 720.9567,-89.5903"/>
<polygon fill="#191970" stroke="#191970" points="723.7988,-87.5464 715.2398,-81.3017 718.0365,-91.5208 723.7988,-87.5464"/>
</g>
<!-- Node20&#45;&gt;Node8 -->
<g id="edge33" class="edge">
<title>Node20&#45;&gt;Node8</title>
<path fill="none" stroke="#191970" d="M783.7563,-188.0058C892.3384,-183.5319 1323.5673,-164.544 1380,-143 1411.0194,-131.1579 1440.2476,-105.4009 1457.3856,-88.2549"/>
<polygon fill="#191970" stroke="#191970" points="1459.9141,-90.6751 1464.3721,-81.0638 1454.8934,-85.7973 1459.9141,-90.6751"/>
</g>
<!-- Node20&#45;&gt;Node9 -->
<g id="edge30" class="edge">
<title>Node20&#45;&gt;Node9</title>
<path fill="none" stroke="#191970" d="M734.4509,-188.0931C676.2342,-185.4225 532.1987,-175.5984 499,-143 485.5071,-129.7511 482.9989,-107.5923 483.2473,-91.4484"/>
<polygon fill="#191970" stroke="#191970" points="486.745,-91.5815 483.7585,-81.4163 479.754,-91.2252 486.745,-91.5815"/>
</g>
<!-- Node20&#45;&gt;Node11 -->
<g id="edge39" class="edge">
<title>Node20&#45;&gt;Node11</title>
<path fill="none" stroke="#191970" d="M759.8789,-179.4439C761.5554,-156.8255 763.4752,-98.7071 744,-56 739.2532,-45.5909 731.6991,-35.4229 724.7336,-27.3049"/>
<polygon fill="#191970" stroke="#191970" points="727.1309,-24.7374 717.8302,-19.6631 721.9365,-29.4298 727.1309,-24.7374"/>
</g>
<!-- Node21 -->
<g id="node22" class="node">
<title>Node21</title>
<polygon fill="none" stroke="#bfbfbf" points="651,-123.5 651,-142.5 731,-142.5 731,-123.5 651,-123.5"/>
<text text-anchor="middle" x="691" y="-130.5" font-family="Helvetica,sans-Serif" font-size="10.00" fill="#000000">box2d/box2d.h</text>
</g>
<!-- Node20&#45;&gt;Node21 -->
<g id="edge31" class="edge">
<title>Node20&#45;&gt;Node21</title>
<path fill="none" stroke="#191970" d="M747.1553,-179.2455C737.112,-170.9746 722.5005,-158.9416 710.6996,-149.2232"/>
<polygon fill="#191970" stroke="#191970" points="712.6533,-146.298 702.709,-142.6427 708.2033,-151.7015 712.6533,-146.298"/>
</g>
<!-- Node22 -->
<g id="node23" class="node">
<title>Node22</title>
<g id="a_node23"><a xlink:href="resource__manager_8h.html" target="_top" xlink:title="resource_manager.h">
<polygon fill="none" stroke="#000000" points="157.5,-123.5 157.5,-142.5 262.5,-142.5 262.5,-123.5 157.5,-123.5"/>
<text text-anchor="middle" x="210" y="-130.5" font-family="Helvetica,sans-Serif" font-size="10.00" fill="#000000">resource_manager.h</text>
</a>
</g>
</g>
<!-- Node20&#45;&gt;Node22 -->
<g id="edge34" class="edge">
<title>Node20&#45;&gt;Node22</title>
<path fill="none" stroke="#191970" d="M734.3588,-187.2482C664.0666,-182.1296 456.3832,-166.1609 272.8366,-143.0308"/>
<polygon fill="#191970" stroke="#191970" points="273.0925,-139.5352 262.731,-141.7468 272.2101,-146.4794 273.0925,-139.5352"/>
</g>
<!-- Node22&#45;&gt;Node6 -->
<g id="edge36" class="edge">
<title>Node22&#45;&gt;Node6</title>
<path fill="none" stroke="#191970" d="M157.0287,-127.8261C105.4768,-121.5666 32.4325,-109.0232 15,-87 6.4489,-76.197 6.6804,-66.9823 15,-56 48.8727,-11.2864 82.8699,-34.6538 142.5773,-19.7516"/>
<polygon fill="#191970" stroke="#191970" points="143.6933,-23.074 152.3847,-17.0151 141.8119,-16.3316 143.6933,-23.074"/>
</g>
<!-- Node22&#45;&gt;Node9 -->
<g id="edge37" class="edge">
<title>Node22&#45;&gt;Node9</title>
<path fill="none" stroke="#191970" d="M262.7513,-124.2193C322.1972,-114.0821 414.9732,-97.4644 449,-87 451.1138,-86.3499 453.2711,-85.6151 455.4269,-84.8275"/>
<polygon fill="#191970" stroke="#191970" points="456.7242,-88.0783 464.7277,-81.136 454.1418,-81.572 456.7242,-88.0783"/>
</g>
<!-- Node22&#45;&gt;Node10 -->
<g id="edge38" class="edge">
<title>Node22&#45;&gt;Node10</title>
<path fill="none" stroke="#191970" d="M219.8438,-123.3906C229.4039,-114.0581 244.1223,-99.6902 255.6495,-88.4374"/>
<polygon fill="#191970" stroke="#191970" points="258.3066,-90.7348 263.0175,-81.2449 253.4168,-85.7257 258.3066,-90.7348"/>
</g>
<!-- Node22&#45;&gt;Node17 -->
<g id="edge35" class="edge">
<title>Node22&#45;&gt;Node17</title>
<path fill="none" stroke="#191970" d="M210,-123.3906C210,-114.8657 210,-102.1392 210,-91.4235"/>
<polygon fill="#191970" stroke="#191970" points="213.5001,-91.2448 210,-81.2449 206.5001,-91.2449 213.5001,-91.2448"/>
</g>
<!-- Node24&#45;&gt;Node3 -->
<g id="edge47" class="edge">
<title>Node24&#45;&gt;Node3</title>
<path fill="none" stroke="#191970" d="M945.415,-123.4107C934.985,-106.4974 910.7882,-71.6752 880,-56 849.0519,-40.2434 622.7439,-20.8389 527.2863,-13.2543"/>
<polygon fill="#191970" stroke="#191970" points="527.3642,-9.7497 517.1198,-12.452 526.8134,-16.728 527.3642,-9.7497"/>
</g>
<!-- Node24&#45;&gt;Node4 -->
<g id="edge48" class="edge">
<title>Node24&#45;&gt;Node4</title>
<path fill="none" stroke="#191970" d="M932.25,-123.3906C912.524,-113.2811 881.2688,-97.2628 858.7,-85.6962"/>
<polygon fill="#191970" stroke="#191970" points="860.114,-82.4881 849.6183,-81.0419 856.9213,-88.7176 860.114,-82.4881"/>
</g>
<!-- Node24&#45;&gt;Node5 -->
<g id="edge44" class="edge">
<title>Node24&#45;&gt;Node5</title>
<path fill="none" stroke="#191970" d="M913.2979,-123.4581C867.4417,-111.8525 790.5356,-92.3886 744.9994,-80.864"/>
<polygon fill="#191970" stroke="#191970" points="745.786,-77.4528 735.2329,-78.3923 744.0685,-84.2389 745.786,-77.4528"/>
</g>
<!-- Node24&#45;&gt;Node11 -->
<g id="edge49" class="edge">
<title>Node24&#45;&gt;Node11</title>
<path fill="none" stroke="#191970" d="M993.1767,-129.8357C1074.4934,-123.3052 1246.5198,-107.2369 1264,-87 1273.0063,-76.5734 1273.3321,-66.136 1264,-56 1229.662,-18.7037 879.6117,-11.6446 753.2133,-10.3103"/>
<polygon fill="#191970" stroke="#191970" points="753.1294,-6.8094 743.0954,-10.2108 753.0605,-13.8091 753.1294,-6.8094"/>
</g>
<!-- Node24&#45;&gt;Node23 -->
<g id="edge45" class="edge">
<title>Node24&#45;&gt;Node23</title>
<path fill="none" stroke="#191970" d="M993.0009,-128.8722C1072.1631,-120.852 1240.5587,-102.5823 1297,-87 1299.3245,-86.3583 1301.6952,-85.5972 1304.0549,-84.7621"/>
<polygon fill="#191970" stroke="#191970" points="1305.5213,-87.9464 1313.546,-81.0287 1302.9588,-81.4323 1305.5213,-87.9464"/>
</g>
<!-- Node25 -->
<g id="node26" class="node">
<title>Node25</title>
<polygon fill="none" stroke="#bfbfbf" points="1155.5,-56.5 1155.5,-86.5 1254.5,-86.5 1254.5,-56.5 1155.5,-56.5"/>
<text text-anchor="start" x="1163.5" y="-74.5" font-family="Helvetica,sans-Serif" font-size="10.00" fill="#000000">glm/ext/matrix_clip</text>
<text text-anchor="middle" x="1205" y="-63.5" font-family="Helvetica,sans-Serif" font-size="10.00" fill="#000000">_space.hpp</text>
</g>
<!-- Node24&#45;&gt;Node25 -->
<g id="edge43" class="edge">
<title>Node24&#45;&gt;Node25</title>
<path fill="none" stroke="#191970" d="M992.9164,-123.4342C1030.3704,-114.8145 1086.986,-101.6085 1145.6374,-87.0569"/>
<polygon fill="#191970" stroke="#191970" points="1146.5903,-90.4265 1155.4488,-84.6146 1144.8994,-83.6338 1146.5903,-90.4265"/>
</g>
<!-- Node26 -->
<g id="node27" class="node">
<title>Node26</title>
<polygon fill="none" stroke="#bfbfbf" points="927.5,-62 927.5,-81 974.5,-81 974.5,-62 927.5,-62"/>
<text text-anchor="middle" x="951" y="-69" font-family="Helvetica,sans-Serif" font-size="10.00" fill="#000000">math.h</text>
</g>
<!-- Node24&#45;&gt;Node26 -->
<g id="edge46" class="edge">
<title>Node24&#45;&gt;Node26</title>
<path fill="none" stroke="#191970" d="M951,-123.3906C951,-114.8657 951,-102.1392 951,-91.4235"/>
<polygon fill="#191970" stroke="#191970" points="954.5001,-91.2448 951,-81.2449 947.5001,-91.2449 954.5001,-91.2448"/>
</g>
<!-- Node27 -->
<g id="node28" class="node">
<title>Node27</title>
<polygon fill="none" stroke="#bfbfbf" points="993,-62 993,-81 1137,-81 1137,-62 993,-62"/>
<text text-anchor="middle" x="1065" y="-69" font-family="Helvetica,sans-Serif" font-size="10.00" fill="#000000">glm/gtc/matrix_transform.hpp</text>
</g>
<!-- Node24&#45;&gt;Node27 -->
<g id="edge50" class="edge">
<title>Node24&#45;&gt;Node27</title>
<path fill="none" stroke="#191970" d="M968.8125,-123.3906C987.4685,-113.3262 1016.9797,-97.4057 1038.3974,-85.8514"/>
<polygon fill="#191970" stroke="#191970" points="1040.1734,-88.8702 1047.3126,-81.0419 1036.8498,-82.7095 1040.1734,-88.8702"/>
</g>
<!-- Node28&#45;&gt;Node8 -->
<g id="edge52" class="edge">
<title>Node28&#45;&gt;Node8</title>
<path fill="none" stroke="#191970" d="M1324.7725,-123.4245C1355.01,-114.8066 1399.8365,-101.3266 1438,-87 1439.6254,-86.3898 1441.2836,-85.7428 1442.9509,-85.0727"/>
<polygon fill="#191970" stroke="#191970" points="1444.5768,-88.1858 1452.4356,-81.0802 1441.861,-81.7341 1444.5768,-88.1858"/>
</g>
<!-- Node28&#45;&gt;Node23 -->
<g id="edge53" class="edge">
<title>Node28&#45;&gt;Node23</title>
<path fill="none" stroke="#191970" d="M1296.7188,-123.3906C1302.993,-114.417 1312.5223,-100.7879 1320.2404,-89.7491"/>
<polygon fill="#191970" stroke="#191970" points="1323.3247,-91.4459 1326.1865,-81.2449 1317.5879,-87.4348 1323.3247,-91.4459"/>
</g>
<!-- Node29 -->
<g id="node30" class="node">
<title>Node29</title>
<polygon fill="none" stroke="#bfbfbf" points="1373,-62 1373,-81 1429,-81 1429,-62 1373,-62"/>
<text text-anchor="middle" x="1401" y="-69" font-family="Helvetica,sans-Serif" font-size="10.00" fill="#000000">tinyxml.h</text>
</g>
<!-- Node28&#45;&gt;Node29 -->
<g id="edge54" class="edge">
<title>Node28&#45;&gt;Node29</title>
<path fill="none" stroke="#191970" d="M1307.3438,-123.3906C1325.4273,-113.3713 1353.9859,-97.5483 1374.8165,-86.0071"/>
<polygon fill="#191970" stroke="#191970" points="1376.7271,-88.9498 1383.778,-81.0419 1373.3346,-82.8268 1376.7271,-88.9498"/>
</g>
<!-- Node31 -->
<g id="node32" class="node">
<title>Node31</title>
<g id="a_node32"><a xlink:href="state_8h.html" target="_top" xlink:title="state.h">
<polygon fill="none" stroke="#000000" points="1690.5,-62 1690.5,-81 1737.5,-81 1737.5,-62 1690.5,-62"/>
<text text-anchor="middle" x="1714" y="-69" font-family="Helvetica,sans-Serif" font-size="10.00" fill="#000000">state.h</text>
</a>
</g>
</g>
<!-- Node30&#45;&gt;Node31 -->
<g id="edge56" class="edge">
<title>Node30&#45;&gt;Node31</title>
<path fill="none" stroke="#191970" d="M1490.7504,-243.7234C1551.1313,-233.1493 1647.5312,-206.8237 1700,-143 1711.8933,-128.5328 1714.7123,-106.8829 1714.9752,-91.1981"/>
<polygon fill="#191970" stroke="#191970" points="1718.4719,-90.9607 1714.808,-81.0195 1711.4728,-91.0757 1718.4719,-90.9607"/>
</g>
<!-- Node32 -->
<g id="node33" class="node">
<title>Node32</title>
<g id="a_node33"><a xlink:href="game_8h.html" target="_top" xlink:title="game.h">
<polygon fill="none" stroke="#000000" points="1412.5,-179.5 1412.5,-198.5 1461.5,-198.5 1461.5,-179.5 1412.5,-179.5"/>
<text text-anchor="middle" x="1437" y="-186.5" font-family="Helvetica,sans-Serif" font-size="10.00" fill="#000000">game.h</text>
</a>
</g>
</g>
<!-- Node30&#45;&gt;Node32 -->
<g id="edge57" class="edge">
<title>Node30&#45;&gt;Node32</title>
<path fill="none" stroke="#191970" d="M1437,-235.2977C1437,-227.3834 1437,-217.6043 1437,-209.0759"/>
<polygon fill="#191970" stroke="#191970" points="1440.5001,-208.8469 1437,-198.8469 1433.5001,-208.847 1440.5001,-208.8469"/>
</g>
<!-- Node32&#45;&gt;Node4 -->
<g id="edge68" class="edge">
<title>Node32&#45;&gt;Node4</title>
<path fill="none" stroke="#191970" d="M1412.2493,-187.9017C1312.9652,-183.358 946.678,-165.222 900,-143 875.293,-131.2377 854.7125,-106.6002 842.6307,-89.5592"/>
<polygon fill="#191970" stroke="#191970" points="845.3341,-87.3101 836.8207,-81.0036 839.5431,-91.2427 845.3341,-87.3101"/>
</g>
<!-- Node32&#45;&gt;Node5 -->
<g id="edge59" class="edge">
<title>Node32&#45;&gt;Node5</title>
<path fill="none" stroke="#191970" d="M1412.3951,-188.1079C1317.3626,-184.4927 974.3412,-169.8277 869,-143 818.7733,-130.2086 764.4909,-103.0194 733.5331,-86.1003"/>
<polygon fill="#191970" stroke="#191970" points="735.1478,-82.9936 724.7047,-81.2066 731.754,-89.1159 735.1478,-82.9936"/>
</g>
<!-- Node32&#45;&gt;Node8 -->
<g id="edge58" class="edge">
<title>Node32&#45;&gt;Node8</title>
<path fill="none" stroke="#191970" d="M1439.7148,-179.1248C1443.3002,-166.1896 1449.8774,-142.8232 1456,-123 1459.2705,-112.4112 1463.1273,-100.6725 1466.3399,-91.0798"/>
<polygon fill="#191970" stroke="#191970" points="1469.7466,-91.9309 1469.6278,-81.3367 1463.114,-89.6927 1469.7466,-91.9309"/>
</g>
<!-- Node33 -->
<g id="node34" class="node">
<title>Node33</title>
<g id="a_node34"><a xlink:href="Orthographic__camera_8h.html" target="_top" xlink:title="Orthographic_camera.h">
<polygon fill="none" stroke="#000000" points="1465,-123.5 1465,-142.5 1583,-142.5 1583,-123.5 1465,-123.5"/>
<text text-anchor="middle" x="1524" y="-130.5" font-family="Helvetica,sans-Serif" font-size="10.00" fill="#000000">Orthographic_camera.h</text>
</a>
</g>
</g>
<!-- Node32&#45;&gt;Node33 -->
<g id="edge60" class="edge">
<title>Node32&#45;&gt;Node33</title>
<path fill="none" stroke="#191970" d="M1452.1542,-179.2455C1465.5027,-170.6534 1485.1586,-158.0014 1500.5383,-148.1018"/>
<polygon fill="#191970" stroke="#191970" points="1502.5051,-150.9982 1509.0194,-142.6427 1498.7164,-145.1121 1502.5051,-150.9982"/>
</g>
<!-- Node35 -->
<g id="node36" class="node">
<title>Node35</title>
<g id="a_node36"><a xlink:href="state__machine_8h.html" target="_top" xlink:title="state_machine.h">
<polygon fill="none" stroke="#000000" points="1601.5,-123.5 1601.5,-142.5 1690.5,-142.5 1690.5,-123.5 1601.5,-123.5"/>
<text text-anchor="middle" x="1646" y="-130.5" font-family="Helvetica,sans-Serif" font-size="10.00" fill="#000000">state_machine.h</text>
</a>
</g>
</g>
<!-- Node32&#45;&gt;Node35 -->
<g id="edge63" class="edge">
<title>Node32&#45;&gt;Node35</title>
<path fill="none" stroke="#191970" d="M1461.7958,-182.3562C1495.9311,-173.2099 1558.0019,-156.5784 1600.5816,-145.1695"/>
<polygon fill="#191970" stroke="#191970" points="1601.6687,-148.5018 1610.4221,-142.5328 1599.8569,-141.7403 1601.6687,-148.5018"/>
</g>
<!-- Node33&#45;&gt;Node11 -->
<g id="edge62" class="edge">
<title>Node33&#45;&gt;Node11</title>
<path fill="none" stroke="#191970" d="M1525.3014,-123.4012C1526.9497,-106.7914 1527.5415,-72.8536 1508,-56 1479.2808,-31.2311 918.9051,-15.2797 753.5529,-11.0982"/>
<polygon fill="#191970" stroke="#191970" points="753.3271,-7.5915 743.2426,-10.8398 753.1517,-14.5893 753.3271,-7.5915"/>
</g>
<!-- Node34 -->
<g id="node35" class="node">
<title>Node34</title>
<polygon fill="none" stroke="#bfbfbf" points="1561.5,-62 1561.5,-81 1604.5,-81 1604.5,-62 1561.5,-62"/>
<text text-anchor="middle" x="1583" y="-69" font-family="Helvetica,sans-Serif" font-size="10.00" fill="#000000">cstdio</text>
</g>
<!-- Node33&#45;&gt;Node34 -->
<g id="edge61" class="edge">
<title>Node33&#45;&gt;Node34</title>
<path fill="none" stroke="#191970" d="M1533.2188,-123.3906C1542.0858,-114.1478 1555.6912,-99.966 1566.4389,-88.7628"/>
<polygon fill="#191970" stroke="#191970" points="1569.2541,-90.8841 1573.6513,-81.2449 1564.2027,-86.0381 1569.2541,-90.8841"/>
</g>
<!-- Node35&#45;&gt;Node8 -->
<g id="edge65" class="edge">
<title>Node35&#45;&gt;Node8</title>
<path fill="none" stroke="#191970" d="M1618.9688,-123.3906C1589.3426,-112.8588 1541.6775,-95.9143 1508.9245,-84.2708"/>
<polygon fill="#191970" stroke="#191970" points="1509.8697,-80.8923 1499.275,-80.8405 1507.525,-87.488 1509.8697,-80.8923"/>
</g>
<!-- Node35&#45;&gt;Node31 -->
<g id="edge67" class="edge">
<title>Node35&#45;&gt;Node31</title>
<path fill="none" stroke="#191970" d="M1656.625,-123.3906C1667.0431,-113.9683 1683.1364,-99.4134 1695.6304,-88.1137"/>
<polygon fill="#191970" stroke="#191970" points="1698.1562,-90.5484 1703.2252,-81.2449 1693.4608,-85.3568 1698.1562,-90.5484"/>
</g>
<!-- Node35&#45;&gt;Node34 -->
<g id="edge64" class="edge">
<title>Node35&#45;&gt;Node34</title>
<path fill="none" stroke="#191970" d="M1636.1563,-123.3906C1626.5961,-114.0581 1611.8777,-99.6902 1600.3505,-88.4374"/>
<polygon fill="#191970" stroke="#191970" points="1602.5832,-85.7257 1592.9825,-81.2449 1597.6934,-90.7348 1602.5832,-85.7257"/>
</g>
<!-- Node36 -->
<g id="node37" class="node">
<title>Node36</title>
<polygon fill="none" stroke="#bfbfbf" points="1625.5,-62 1625.5,-81 1666.5,-81 1666.5,-62 1625.5,-62"/>
<text text-anchor="middle" x="1646" y="-69" font-family="Helvetica,sans-Serif" font-size="10.00" fill="#000000">stack</text>
</g>
<!-- Node35&#45;&gt;Node36 -->
<g id="edge66" class="edge">
<title>Node35&#45;&gt;Node36</title>
<path fill="none" stroke="#191970" d="M1646,-123.3906C1646,-114.8657 1646,-102.1392 1646,-91.4235"/>
<polygon fill="#191970" stroke="#191970" points="1649.5001,-91.2448 1646,-81.2449 1642.5001,-91.2449 1649.5001,-91.2448"/>
</g>
</g>
</svg>
        <g id="navigator" transform="translate(0 0)" fill="#404254">
                <rect fill="#f2f5e9" fill-opacity="0.5" stroke="#606060" stroke-width=".5" x="0" y="0" width="60" height="60"/>
                <use id="zoomplus" xlink:href="#zoomPlus" x="17" y="9" onmousedown="handleZoom(evt,'in')"/>
                <use id="zoomminus" xlink:href="#zoomMin" x="42" y="9" onmousedown="handleZoom(evt,'out')"/>
                <use id="reset" xlink:href="#resetDef" x="30" y="36" onmousedown="handleReset()"/>
                <g id="arrowUp" xlink:href="#dirArrow" transform="translate(30 24)" onmousedown="handlePan(0,-1)">
                  <use xlink:href="#rim" fill="#404040">
                        <set attributeName="fill" to="#808080" begin="arrowUp.mouseover" end="arrowUp.mouseout"/>
                  </use>
                  <path fill="none" stroke="white" stroke-width="1.5" d="M0,-3.0v7 M-2.5,-0.5L0,-3.0L2.5,-0.5"/>
                </g>
                <g id="arrowRight" xlink:href="#dirArrow" transform="rotate(90) translate(36 -43)" onmousedown="handlePan(1,0)">
                  <use xlink:href="#rim" fill="#404040">
                        <set attributeName="fill" to="#808080" begin="arrowRight.mouseover" end="arrowRight.mouseout"/>
                  </use>
                  <path fill="none" stroke="white" stroke-width="1.5" d="M0,-3.0v7 M-2.5,-0.5L0,-3.0L2.5,-0.5"/>
                </g>
                <g id="arrowDown" xlink:href="#dirArrow" transform="rotate(180) translate(-30 -48)" onmousedown="handlePan(0,1)">
                  <use xlink:href="#rim" fill="#404040">
                        <set attributeName="fill" to="#808080" begin="arrowDown.mouseover" end="arrowDown.mouseout"/>
                  </use>
                  <path fill="none" stroke="white" stroke-width="1.5" d="M0,-3.0v7 M-2.5,-0.5L0,-3.0L2.5,-0.5"/>
                </g>
                <g id="arrowLeft" xlink:href="#dirArrow" transform="rotate(270) translate(-36 17)" onmousedown="handlePan(-1,0)">
                  <use xlink:href="#rim" fill="#404040">
                        <set attributeName="fill" to="#808080" begin="arrowLeft.mouseover" end="arrowLeft.mouseout"/>
                  </use>
                  <path fill="none" stroke="white" stroke-width="1.5" d="M0,-3.0v7 M-2.5,-0.5L0,-3.0L2.5,-0.5"/>
                </g>
        </g>
        <svg viewBox="0 0 15 15" width="100%" height="30px" preserveAspectRatio="xMaxYMin meet">
         <g id="arrow_out" transform="scale(0.3 0.3)">
          <a xlink:href="game__over__state_8cpp__incl_org.svg" target="_base">
           <rect id="button" ry="5" rx="5" y="6" x="6" height="38" width="38"
                fill="#f2f5e9" fill-opacity="0.5" stroke="#606060" stroke-width="1.0"/>
           <path id="arrow"
             d="M 11.500037,31.436501 C 11.940474,20.09759 22.043105,11.32322 32.158766,21.979434 L 37.068811,17.246167 C 37.068811,17.246167 37.088388,32 37.088388,32 L 22.160133,31.978069 C 22.160133,31.978069 26.997745,27.140456 26.997745,27.140456 C 18.528582,18.264221 13.291696,25.230495 11.500037,31.436501 z"
             style="fill:#404040;"/>
          </a>
         </g>
        </svg>
</svg>
