<?xml version="1.0" encoding="UTF-8" standalone="no"?>
<!DOCTYPE svg PUBLIC "-//W3C//DTD SVG 1.1//EN"
 "http://www.w3.org/Graphics/SVG/1.1/DTD/svg11.dtd">
<!-- Generated by graphviz version 2.40.1 (20161225.0304)
 -->
<!-- Title: /mnt/hdd/C0de/smart_engine/include/game_text.h Pages: 1 -->
<svg width="488pt" height="128pt"
 viewBox="0.00 0.00 487.50 128.00" xmlns="http://www.w3.org/2000/svg" xmlns:xlink="http://www.w3.org/1999/xlink">
<g id="graph0" class="graph" transform="scale(1 1) rotate(0) translate(4 124)">
<title>/mnt/hdd/C0de/smart_engine/include/game_text.h</title>
<!-- Node3 -->
<g id="node1" class="node">
<title>Node3</title>
<polygon fill="#bfbfbf" stroke="#000000" points="171,-78.5 171,-119.5 282,-119.5 282,-78.5 171,-78.5"/>
<text text-anchor="start" x="179" y="-107.5" font-family="Helvetica,sans-Serif" font-size="10.00" fill="#000000">/mnt/hdd/C0de/smart</text>
<text text-anchor="start" x="179" y="-96.5" font-family="Helvetica,sans-Serif" font-size="10.00" fill="#000000">_engine/include/game</text>
<text text-anchor="middle" x="226.5" y="-85.5" font-family="Helvetica,sans-Serif" font-size="10.00" fill="#000000">_text.h</text>
</g>
<!-- Node4 -->
<g id="node2" class="node">
<title>Node4</title>
<g id="a_node2"><a xlink:href="game__play__state_8cpp.html" target="_top" xlink:title="/mnt/hdd/C0de/smart\l_engine/src/game_play\l_state.cpp">
<polygon fill="none" stroke="#000000" points="0,-.5 0,-41.5 117,-41.5 117,-.5 0,-.5"/>
<text text-anchor="start" x="8" y="-29.5" font-family="Helvetica,sans-Serif" font-size="10.00" fill="#000000">/mnt/hdd/C0de/smart</text>
<text text-anchor="start" x="8" y="-18.5" font-family="Helvetica,sans-Serif" font-size="10.00" fill="#000000">_engine/src/game_play</text>
<text text-anchor="middle" x="58.5" y="-7.5" font-family="Helvetica,sans-Serif" font-size="10.00" fill="#000000">_state.cpp</text>
</a>
</g>
</g>
<!-- Node3&#45;&gt;Node4 -->
<g id="edge1" class="edge">
<title>Node3&#45;&gt;Node4</title>
<path fill="none" stroke="#191970" d="M172.7872,-74.0619C150.1756,-63.5637 124.1833,-51.4958 102.7052,-41.5239"/>
<polygon fill="#191970" stroke="#191970" points="171.3761,-77.2656 181.9202,-78.3022 174.324,-70.9165 171.3761,-77.2656"/>
</g>
<!-- Node5 -->
<g id="node3" class="node">
<title>Node5</title>
<g id="a_node3"><a xlink:href="LoadingGameObjects_8cpp.html" target="_top" xlink:title="/mnt/hdd/C0de/smart\l_engine/src/LoadingGameObjects.cpp">
<polygon fill="none" stroke="#000000" points="135.5,-6 135.5,-36 317.5,-36 317.5,-6 135.5,-6"/>
<text text-anchor="start" x="143.5" y="-24" font-family="Helvetica,sans-Serif" font-size="10.00" fill="#000000">/mnt/hdd/C0de/smart</text>
<text text-anchor="middle" x="226.5" y="-13" font-family="Helvetica,sans-Serif" font-size="10.00" fill="#000000">_engine/src/LoadingGameObjects.cpp</text>
</a>
</g>
</g>
<!-- Node3&#45;&gt;Node5 -->
<g id="edge2" class="edge">
<title>Node3&#45;&gt;Node5</title>
<path fill="none" stroke="#191970" d="M226.5,-68.0187C226.5,-57.1033 226.5,-45.3119 226.5,-36.2679"/>
<polygon fill="#191970" stroke="#191970" points="223.0001,-68.0974 226.5,-78.0974 230.0001,-68.0975 223.0001,-68.0974"/>
</g>
<!-- Node6 -->
<g id="node4" class="node">
<title>Node6</title>
<g id="a_node4"><a xlink:href="splash__state_8cpp.html" target="_top" xlink:title="/mnt/hdd/C0de/smart\l_engine/src/splash_state.cpp">
<polygon fill="none" stroke="#000000" points="335.5,-6 335.5,-36 479.5,-36 479.5,-6 335.5,-6"/>
<text text-anchor="start" x="343.5" y="-24" font-family="Helvetica,sans-Serif" font-size="10.00" fill="#000000">/mnt/hdd/C0de/smart</text>
<text text-anchor="middle" x="407.5" y="-13" font-family="Helvetica,sans-Serif" font-size="10.00" fill="#000000">_engine/src/splash_state.cpp</text>
</a>
</g>
</g>
<!-- Node3&#45;&gt;Node6 -->
<g id="edge3" class="edge">
<title>Node3&#45;&gt;Node6</title>
<path fill="none" stroke="#191970" d="M283.7744,-74.3182C312.8821,-61.7746 347.3147,-46.9362 372.4556,-36.102"/>
<polygon fill="#191970" stroke="#191970" points="282.3279,-71.1304 274.5295,-78.3022 285.0982,-77.5588 282.3279,-71.1304"/>
</g>
</g>
</svg>
