<?xml version="1.0" encoding="UTF-8" standalone="no"?>
<!DOCTYPE svg PUBLIC "-//W3C//DTD SVG 1.1//EN"
 "http://www.w3.org/Graphics/SVG/1.1/DTD/svg11.dtd">
<!-- Generated by graphviz version 2.40.1 (20161225.0304)
 -->
<!-- Title: /mnt/hdd/C0de/smart_engine/include/gltext.h Pages: 1 -->
<svg width="257pt" height="95pt"
 viewBox="0.00 0.00 256.50 95.00" xmlns="http://www.w3.org/2000/svg" xmlns:xlink="http://www.w3.org/1999/xlink">
<g id="graph0" class="graph" transform="scale(1 1) rotate(0) translate(4 91)">
<title>/mnt/hdd/C0de/smart_engine/include/gltext.h</title>
<!-- Node0 -->
<g id="node1" class="node">
<title>Node0</title>
<polygon fill="#bfbfbf" stroke="#000000" points="63.5,-56.5 63.5,-86.5 182.5,-86.5 182.5,-56.5 63.5,-56.5"/>
<text text-anchor="start" x="71.5" y="-74.5" font-family="Helvetica,sans-Serif" font-size="10.00" fill="#000000">/mnt/hdd/C0de/smart</text>
<text text-anchor="middle" x="123" y="-63.5" font-family="Helvetica,sans-Serif" font-size="10.00" fill="#000000">_engine/include/gltext.h</text>
</g>
<!-- Node1 -->
<g id="node2" class="node">
<title>Node1</title>
<polygon fill="none" stroke="#bfbfbf" points="0,-.5 0,-19.5 48,-19.5 48,-.5 0,-.5"/>
<text text-anchor="middle" x="24" y="-7.5" font-family="Helvetica,sans-Serif" font-size="10.00" fill="#000000">GL/gl.h</text>
</g>
<!-- Node0&#45;&gt;Node1 -->
<g id="edge1" class="edge">
<title>Node0&#45;&gt;Node1</title>
<path fill="none" stroke="#191970" d="M98.7819,-56.4554C83.4227,-46.9141 63.6243,-34.6151 48.2575,-25.0691"/>
<polygon fill="#191970" stroke="#191970" points="49.6828,-21.8341 39.3415,-19.5303 45.989,-27.7802 49.6828,-21.8341"/>
</g>
<!-- Node2 -->
<g id="node3" class="node">
<title>Node2</title>
<polygon fill="none" stroke="#bfbfbf" points="66,-.5 66,-19.5 114,-19.5 114,-.5 66,-.5"/>
<text text-anchor="middle" x="90" y="-7.5" font-family="Helvetica,sans-Serif" font-size="10.00" fill="#000000">stdlib.h</text>
</g>
<!-- Node0&#45;&gt;Node2 -->
<g id="edge2" class="edge">
<title>Node0&#45;&gt;Node2</title>
<path fill="none" stroke="#191970" d="M114.8427,-56.2977C110.4051,-48.0277 104.875,-37.7215 100.1596,-28.9339"/>
<polygon fill="#191970" stroke="#191970" points="103.096,-27.0037 95.2837,-19.8469 96.9279,-30.3134 103.096,-27.0037"/>
</g>
<!-- Node3 -->
<g id="node4" class="node">
<title>Node3</title>
<polygon fill="none" stroke="#bfbfbf" points="132.5,-.5 132.5,-19.5 181.5,-19.5 181.5,-.5 132.5,-.5"/>
<text text-anchor="middle" x="157" y="-7.5" font-family="Helvetica,sans-Serif" font-size="10.00" fill="#000000">string.h</text>
</g>
<!-- Node0&#45;&gt;Node3 -->
<g id="edge3" class="edge">
<title>Node0&#45;&gt;Node3</title>
<path fill="none" stroke="#191970" d="M131.4045,-56.2977C136.0257,-47.9388 141.7969,-37.4997 146.6889,-28.6509"/>
<polygon fill="#191970" stroke="#191970" points="149.7809,-30.292 151.5562,-19.8469 143.6548,-26.9051 149.7809,-30.292"/>
</g>
<!-- Node4 -->
<g id="node5" class="node">
<title>Node4</title>
<polygon fill="none" stroke="#bfbfbf" points="199.5,-.5 199.5,-19.5 248.5,-19.5 248.5,-.5 199.5,-.5"/>
<text text-anchor="middle" x="224" y="-7.5" font-family="Helvetica,sans-Serif" font-size="10.00" fill="#000000">stdint.h</text>
</g>
<!-- Node0&#45;&gt;Node4 -->
<g id="edge4" class="edge">
<title>Node0&#45;&gt;Node4</title>
<path fill="none" stroke="#191970" d="M147.7074,-56.4554C163.5247,-46.8241 183.9567,-34.3828 199.6949,-24.7996"/>
<polygon fill="#191970" stroke="#191970" points="201.6277,-27.7206 208.3486,-19.5303 197.9871,-21.7418 201.6277,-27.7206"/>
</g>
</g>
</svg>
