<?xml version="1.0" encoding="UTF-8" standalone="no"?>
<!DOCTYPE svg PUBLIC "-//W3C//DTD SVG 1.1//EN"
 "http://www.w3.org/Graphics/SVG/1.1/DTD/svg11.dtd">
<!-- Generated by graphviz version 2.40.1 (20161225.0304)
 -->
<!-- Title: Graphical Class Hierarchy Pages: 1 -->
<svg width="171pt" height="142pt"
 viewBox="0.00 0.00 171.00 142.00" xmlns="http://www.w3.org/2000/svg" xmlns:xlink="http://www.w3.org/1999/xlink">
<g id="graph0" class="graph" transform="scale(1 1) rotate(0) translate(4 138)">
<title>Graphical Class Hierarchy</title>
<!-- Node0 -->
<g id="node1" class="node">
<title>Node0</title>
<g id="a_node1"><a xlink:href="classState.html" target="_top" xlink:title="State">
<polygon fill="none" stroke="#000000" points="0,-57.5 0,-76.5 40,-76.5 40,-57.5 0,-57.5"/>
<text text-anchor="middle" x="20" y="-64.5" font-family="Helvetica,sans-Serif" font-size="10.00" fill="#000000">State</text>
</a>
</g>
</g>
<!-- Node1 -->
<g id="node2" class="node">
<title>Node1</title>
<g id="a_node2"><a xlink:href="classGameOverState.html" target="_top" xlink:title="GameOverState">
<polygon fill="none" stroke="#000000" points="76,-114.5 76,-133.5 163,-133.5 163,-114.5 76,-114.5"/>
<text text-anchor="middle" x="119.5" y="-121.5" font-family="Helvetica,sans-Serif" font-size="10.00" fill="#000000">GameOverState</text>
</a>
</g>
</g>
<!-- Node0&#45;&gt;Node1 -->
<g id="edge1" class="edge">
<title>Node0&#45;&gt;Node1</title>
<path fill="none" stroke="#191970" d="M41.2141,-82.7557C51.4453,-89.9964 64.064,-98.4171 76,-105 82.0617,-108.3431 88.8289,-111.538 95.1859,-114.3219"/>
<polygon fill="#191970" stroke="#191970" points="43.0733,-79.7813 32.9148,-76.7721 38.9795,-85.4595 43.0733,-79.7813"/>
</g>
<!-- Node2 -->
<g id="node3" class="node">
<title>Node2</title>
<g id="a_node3"><a xlink:href="classGamePlayState.html" target="_top" xlink:title="GamePlayState">
<polygon fill="none" stroke="#000000" points="76.5,-76.5 76.5,-95.5 162.5,-95.5 162.5,-76.5 76.5,-76.5"/>
<text text-anchor="middle" x="119.5" y="-83.5" font-family="Helvetica,sans-Serif" font-size="10.00" fill="#000000">GamePlayState</text>
</a>
</g>
</g>
<!-- Node0&#45;&gt;Node2 -->
<g id="edge2" class="edge">
<title>Node0&#45;&gt;Node2</title>
<path fill="none" stroke="#191970" d="M50.0787,-72.7437C58.3636,-74.3257 67.516,-76.0734 76.3823,-77.7665"/>
<polygon fill="#191970" stroke="#191970" points="50.6143,-69.2828 40.1353,-70.8449 49.3013,-76.1586 50.6143,-69.2828"/>
</g>
<!-- Node3 -->
<g id="node4" class="node">
<title>Node3</title>
<g id="a_node4"><a xlink:href="classMainMenuState.html" target="_top" xlink:title="MainMenuState">
<polygon fill="none" stroke="#000000" points="77,-38.5 77,-57.5 162,-57.5 162,-38.5 77,-38.5"/>
<text text-anchor="middle" x="119.5" y="-45.5" font-family="Helvetica,sans-Serif" font-size="10.00" fill="#000000">MainMenuState</text>
</a>
</g>
</g>
<!-- Node0&#45;&gt;Node3 -->
<g id="edge3" class="edge">
<title>Node0&#45;&gt;Node3</title>
<path fill="none" stroke="#191970" d="M50.1928,-61.2345C58.5758,-59.6338 67.8399,-57.8648 76.7933,-56.155"/>
<polygon fill="#191970" stroke="#191970" points="49.3013,-57.8414 40.1353,-63.1551 50.6143,-64.7172 49.3013,-57.8414"/>
</g>
<!-- Node4 -->
<g id="node5" class="node">
<title>Node4</title>
<g id="a_node5"><a xlink:href="classSplashState.html" target="_top" xlink:title="SplashState">
<polygon fill="none" stroke="#000000" points="84.5,-.5 84.5,-19.5 154.5,-19.5 154.5,-.5 84.5,-.5"/>
<text text-anchor="middle" x="119.5" y="-7.5" font-family="Helvetica,sans-Serif" font-size="10.00" fill="#000000">SplashState</text>
</a>
</g>
</g>
<!-- Node0&#45;&gt;Node4 -->
<g id="edge4" class="edge">
<title>Node0&#45;&gt;Node4</title>
<path fill="none" stroke="#191970" d="M41.2141,-51.2443C51.4453,-44.0036 64.064,-35.5829 76,-29 82.0617,-25.6569 88.8289,-22.462 95.1859,-19.6781"/>
<polygon fill="#191970" stroke="#191970" points="38.9795,-48.5405 32.9148,-57.2279 43.0733,-54.2187 38.9795,-48.5405"/>
</g>
</g>
</svg>
