<?xml version="1.0" encoding="UTF-8" standalone="no"?>
<!DOCTYPE svg PUBLIC "-//W3C//DTD SVG 1.1//EN"
 "http://www.w3.org/Graphics/SVG/1.1/DTD/svg11.dtd">
<!-- Generated by graphviz version 2.40.1 (20161225.0304)
 -->
<!-- Title: Graphical Class Hierarchy Pages: 1 -->
<svg width="254pt" height="122pt"
 viewBox="0.00 0.00 254.00 122.00" xmlns="http://www.w3.org/2000/svg" xmlns:xlink="http://www.w3.org/1999/xlink">
<g id="graph0" class="graph" transform="scale(1 1) rotate(0) translate(4 118)">
<title>Graphical Class Hierarchy</title>
<!-- Node24 -->
<g id="node1" class="node">
<title>Node24</title>
<polygon fill="none" stroke="#bfbfbf" points="0,-38.5 0,-57.5 58,-57.5 58,-38.5 0,-38.5"/>
<text text-anchor="middle" x="29" y="-45.5" font-family="Helvetica,sans-Serif" font-size="10.00" fill="#000000">Drawable</text>
</g>
<!-- Node25 -->
<g id="node2" class="node">
<title>Node25</title>
<g id="a_node2"><a xlink:href="classMapLayer.html" target="_top" xlink:title="MapLayer">
<polygon fill="none" stroke="#000000" points="140.5,-94.5 140.5,-113.5 199.5,-113.5 199.5,-94.5 140.5,-94.5"/>
<text text-anchor="middle" x="170" y="-101.5" font-family="Helvetica,sans-Serif" font-size="10.00" fill="#000000">MapLayer</text>
</a>
</g>
</g>
<!-- Node24&#45;&gt;Node25 -->
<g id="edge1" class="edge">
<title>Node24&#45;&gt;Node25</title>
<path fill="none" stroke="#191970" d="M51.959,-63.116C64.0658,-70.5508 79.4012,-79.1482 94,-85 108.7702,-90.9205 125.9142,-95.398 140.177,-98.5148"/>
<polygon fill="#191970" stroke="#191970" points="53.7226,-60.0905 43.3959,-57.722 49.9917,-66.0133 53.7226,-60.0905"/>
</g>
<!-- Node0 -->
<g id="node3" class="node">
<title>Node0</title>
<g id="a_node3"><a xlink:href="classMapLayer_1_1Chunk.html" target="_top" xlink:title="Transformable">
<polygon fill="none" stroke="#bfbfbf" points="130.5,-38.5 130.5,-57.5 209.5,-57.5 209.5,-38.5 130.5,-38.5"/>
<text text-anchor="middle" x="170" y="-45.5" font-family="Helvetica,sans-Serif" font-size="10.00" fill="#000000">Transformable</text>
</a>
</g>
</g>
<!-- Node24&#45;&gt;Node0 -->
<g id="edge2" class="edge">
<title>Node24&#45;&gt;Node0</title>
<path fill="none" stroke="#191970" d="M68.2379,-48C87.6221,-48 110.9601,-48 130.3939,-48"/>
<polygon fill="#191970" stroke="#191970" points="68.2153,-44.5001 58.2153,-48 68.2153,-51.5001 68.2153,-44.5001"/>
</g>
<!-- Node26 -->
<g id="node4" class="node">
<title>Node26</title>
<g id="a_node4"><a xlink:href="classMapLayer_1_1Chunk_1_1ChunkArray.html" target="_top" xlink:title="MapLayer::Chunk::ChunkArray">
<polygon fill="none" stroke="#000000" points="94,-.5 94,-19.5 246,-19.5 246,-.5 94,-.5"/>
<text text-anchor="middle" x="170" y="-7.5" font-family="Helvetica,sans-Serif" font-size="10.00" fill="#000000">MapLayer::Chunk::ChunkArray</text>
</a>
</g>
</g>
<!-- Node24&#45;&gt;Node26 -->
<g id="edge3" class="edge">
<title>Node24&#45;&gt;Node26</title>
<path fill="none" stroke="#191970" d="M67.8549,-36.3711C76.4471,-33.8754 85.5177,-31.299 94,-29 105.8142,-25.7979 118.7149,-22.4989 130.4779,-19.567"/>
<polygon fill="#191970" stroke="#191970" points="66.6651,-33.0725 58.0521,-39.2424 68.6328,-39.7903 66.6651,-33.0725"/>
</g>
<!-- Node0&#45;&gt;Node0 -->
<g id="edge4" class="edge">
<title>Node0&#45;&gt;Node0</title>
<path fill="none" stroke="#191970" d="M143.9584,-67.0292C145.3789,-72.128 154.0594,-76 170,-76 194.8828,-76 202.0755,-66.5653 191.5781,-57.7571"/>
<polygon fill="#191970" stroke="#191970" points="147.238,-68.2855 148.4219,-57.7571 140.9308,-65.2493 147.238,-68.2855"/>
</g>
</g>
</svg>
