<?xml version="1.0" encoding="UTF-8" standalone="no"?>
<!DOCTYPE svg PUBLIC "-//W3C//DTD SVG 1.1//EN"
 "http://www.w3.org/Graphics/SVG/1.1/DTD/svg11.dtd">
<!-- Generated by graphviz version 2.40.1 (20161225.0304)
 -->
<!-- Title: /mnt/hdd/C0de/smart_engine/src/Lines.cpp Pages: 1 -->
<svg width="738pt" height="106pt"
 viewBox="0.00 0.00 737.50 106.00" xmlns="http://www.w3.org/2000/svg" xmlns:xlink="http://www.w3.org/1999/xlink">
<g id="graph0" class="graph" transform="scale(1 1) rotate(0) translate(4 102)">
<title>/mnt/hdd/C0de/smart_engine/src/Lines.cpp</title>
<!-- Node0 -->
<g id="node1" class="node">
<title>Node0</title>
<polygon fill="#bfbfbf" stroke="#000000" points="256.5,-67.5 256.5,-97.5 368.5,-97.5 368.5,-67.5 256.5,-67.5"/>
<text text-anchor="start" x="264.5" y="-85.5" font-family="Helvetica,sans-Serif" font-size="10.00" fill="#000000">/mnt/hdd/C0de/smart</text>
<text text-anchor="middle" x="312.5" y="-74.5" font-family="Helvetica,sans-Serif" font-size="10.00" fill="#000000">_engine/src/Lines.cpp</text>
</g>
<!-- Node1 -->
<g id="node2" class="node">
<title>Node1</title>
<polygon fill="none" stroke="#bfbfbf" points="0,-.5 0,-30.5 99,-30.5 99,-.5 0,-.5"/>
<text text-anchor="start" x="8" y="-18.5" font-family="Helvetica,sans-Serif" font-size="10.00" fill="#000000">glm/ext/matrix_clip</text>
<text text-anchor="middle" x="49.5" y="-7.5" font-family="Helvetica,sans-Serif" font-size="10.00" fill="#000000">_space.hpp</text>
</g>
<!-- Node0&#45;&gt;Node1 -->
<g id="edge1" class="edge">
<title>Node0&#45;&gt;Node1</title>
<path fill="none" stroke="#191970" d="M256.1804,-68.4368C217.4375,-58.7269 164.5436,-45.4008 108.7716,-31.0575"/>
<polygon fill="#191970" stroke="#191970" points="109.6224,-27.6624 99.0655,-28.5584 107.8769,-34.4413 109.6224,-27.6624"/>
</g>
<!-- Node2 -->
<g id="node3" class="node">
<title>Node2</title>
<polygon fill="none" stroke="#bfbfbf" points="117.5,-6 117.5,-25 171.5,-25 171.5,-6 117.5,-6"/>
<text text-anchor="middle" x="144.5" y="-13" font-family="Helvetica,sans-Serif" font-size="10.00" fill="#000000">iostream</text>
</g>
<!-- Node0&#45;&gt;Node2 -->
<g id="edge2" class="edge">
<title>Node0&#45;&gt;Node2</title>
<path fill="none" stroke="#191970" d="M272.7917,-67.4189C246.5116,-57.3368 211.338,-43.6501 180.5,-31 179.0835,-30.4189 177.6379,-29.8203 176.1792,-29.2116"/>
<polygon fill="#191970" stroke="#191970" points="177.1072,-25.8038 166.5338,-25.1297 174.3791,-32.2504 177.1072,-25.8038"/>
</g>
<!-- Node3 -->
<g id="node4" class="node">
<title>Node3</title>
<polygon fill="none" stroke="#bfbfbf" points="189.5,-6 189.5,-25 233.5,-25 233.5,-6 189.5,-6"/>
<text text-anchor="middle" x="211.5" y="-13" font-family="Helvetica,sans-Serif" font-size="10.00" fill="#000000">vector</text>
</g>
<!-- Node0&#45;&gt;Node3 -->
<g id="edge3" class="edge">
<title>Node0&#45;&gt;Node3</title>
<path fill="none" stroke="#191970" d="M289.8336,-67.4639C273.3451,-56.526 251.0996,-41.769 234.5278,-30.7759"/>
<polygon fill="#191970" stroke="#191970" points="236.2455,-27.7153 225.9776,-25.1039 232.3759,-33.5485 236.2455,-27.7153"/>
</g>
<!-- Node4 -->
<g id="node5" class="node">
<title>Node4</title>
<polygon fill="none" stroke="#bfbfbf" points="252,-6 252,-25 299,-25 299,-6 252,-6"/>
<text text-anchor="middle" x="275.5" y="-13" font-family="Helvetica,sans-Serif" font-size="10.00" fill="#000000">math.h</text>
</g>
<!-- Node0&#45;&gt;Node4 -->
<g id="edge4" class="edge">
<title>Node0&#45;&gt;Node4</title>
<path fill="none" stroke="#191970" d="M304.1041,-67.2967C298.6192,-57.3645 291.4249,-44.3371 285.6237,-33.8321"/>
<polygon fill="#191970" stroke="#191970" points="288.6748,-32.1169 280.7766,-25.055 282.547,-35.5009 288.6748,-32.1169"/>
</g>
<!-- Node5 -->
<g id="node6" class="node">
<title>Node5</title>
<polygon fill="none" stroke="#bfbfbf" points="317.5,-6 317.5,-25 381.5,-25 381.5,-6 317.5,-6"/>
<text text-anchor="middle" x="349.5" y="-13" font-family="Helvetica,sans-Serif" font-size="10.00" fill="#000000">glad/glad.h</text>
</g>
<!-- Node0&#45;&gt;Node5 -->
<g id="edge5" class="edge">
<title>Node0&#45;&gt;Node5</title>
<path fill="none" stroke="#191970" d="M320.8959,-67.2967C326.3808,-57.3645 333.5751,-44.3371 339.3763,-33.8321"/>
<polygon fill="#191970" stroke="#191970" points="342.453,-35.5009 344.2234,-25.055 336.3252,-32.1169 342.453,-35.5009"/>
</g>
<!-- Node6 -->
<g id="node7" class="node">
<title>Node6</title>
<polygon fill="none" stroke="#bfbfbf" points="399.5,-6 399.5,-25 479.5,-25 479.5,-6 399.5,-6"/>
<text text-anchor="middle" x="439.5" y="-13" font-family="Helvetica,sans-Serif" font-size="10.00" fill="#000000">GLFW/glfw3.h</text>
</g>
<!-- Node0&#45;&gt;Node6 -->
<g id="edge6" class="edge">
<title>Node0&#45;&gt;Node6</title>
<path fill="none" stroke="#191970" d="M341.0013,-67.4639C362.3103,-56.2222 391.266,-40.9463 412.2639,-29.8686"/>
<polygon fill="#191970" stroke="#191970" points="414.084,-32.8657 421.2956,-25.1039 410.8178,-26.6744 414.084,-32.8657"/>
</g>
<!-- Node7 -->
<g id="node8" class="node">
<title>Node7</title>
<polygon fill="none" stroke="#bfbfbf" points="497.5,-6 497.5,-25 567.5,-25 567.5,-6 497.5,-6"/>
<text text-anchor="middle" x="532.5" y="-13" font-family="Helvetica,sans-Serif" font-size="10.00" fill="#000000">glm/glm.hpp</text>
</g>
<!-- Node0&#45;&gt;Node7 -->
<g id="edge7" class="edge">
<title>Node0&#45;&gt;Node7</title>
<path fill="none" stroke="#191970" d="M366.6508,-67.4728C401.5759,-57.5796 447.8941,-44.0825 488.5,-31 491.0849,-30.1672 493.7474,-29.2866 496.4231,-28.3851"/>
<polygon fill="#191970" stroke="#191970" points="497.7335,-31.6358 506.0538,-25.0765 495.4591,-25.0156 497.7335,-31.6358"/>
</g>
<!-- Node8 -->
<g id="node9" class="node">
<title>Node8</title>
<polygon fill="none" stroke="#bfbfbf" points="585.5,-6 585.5,-25 729.5,-25 729.5,-6 585.5,-6"/>
<text text-anchor="middle" x="657.5" y="-13" font-family="Helvetica,sans-Serif" font-size="10.00" fill="#000000">glm/gtc/matrix_transform.hpp</text>
</g>
<!-- Node0&#45;&gt;Node8 -->
<g id="edge8" class="edge">
<title>Node0&#45;&gt;Node8</title>
<path fill="none" stroke="#191970" d="M368.698,-71.5862C431.8606,-59.3198 533.9633,-39.4912 598.3209,-26.9928"/>
<polygon fill="#191970" stroke="#191970" points="599.1647,-30.3944 608.314,-25.0521 597.8302,-23.5227 599.1647,-30.3944"/>
</g>
</g>
</svg>
