<?xml version="1.0" encoding="UTF-8" standalone="no"?>
<!DOCTYPE svg PUBLIC "-//W3C//DTD SVG 1.1//EN"
 "http://www.w3.org/Graphics/SVG/1.1/DTD/svg11.dtd">
<!-- Generated by graphviz version 2.40.1 (20161225.0304)
 -->
<!-- Title: /mnt/hdd/C0de/smart_engine/src/LoadingGameObjects.cpp Pages: 1 -->
<!--zoomable 330 -->
<svg id="main" version="1.1" xmlns="http://www.w3.org/2000/svg" xmlns:xlink="http://www.w3.org/1999/xlink" xml:space="preserve" onload="init(evt)">
<style type="text/css"><![CDATA[
.edge:hover path { stroke: red; }
.edge:hover polygon { stroke: red; fill: red; }
]]></style>
<script type="text/javascript"><![CDATA[
var edges = document.getElementsByTagName('g');
if (edges && edges.length) {
  for (var i=0;i<edges.length;i++) {
    if (edges[i].id.substr(0,4)=='edge') {
      edges[i].setAttribute('class','edge');
    }
  }
}
]]></script>
        <defs>
                <circle id="rim" cx="0" cy="0" r="7"/>
                <circle id="rim2" cx="0" cy="0" r="3.5"/>
                <g id="zoomPlus">
                        <use xlink:href="#rim" fill="#404040">
                                <set attributeName="fill" to="#808080" begin="zoomplus.mouseover" end="zoomplus.mouseout"/>
                        </use>
                        <path d="M-4,0h8M0,-4v8" fill="none" stroke="white" stroke-width="1.5" pointer-events="none"/>
                </g>
                <g id="zoomMin">
                        <use xlink:href="#rim" fill="#404040">
                                <set attributeName="fill" to="#808080" begin="zoomminus.mouseover" end="zoomminus.mouseout"/>
                        </use>
                        <path d="M-4,0h8" fill="none" stroke="white" stroke-width="1.5" pointer-events="none"/>
                </g>
                <g id="dirArrow">
                        <path fill="none" stroke="white" stroke-width="1.5" d="M0,-3.0v7 M-2.5,-0.5L0,-3.0L2.5,-0.5"/>
                </g>
               <g id="resetDef">
                       <use xlink:href="#rim2" fill="#404040">
                               <set attributeName="fill" to="#808080" begin="reset.mouseover" end="reset.mouseout"/>
                       </use>
               </g>
        </defs>

<script type="text/javascript">
var viewWidth = 1211;
var viewHeight = 330;
var sectionId = 'dynsection-0';
</script>
<script xlink:href="svgpan.js"/>
<svg id="graph" class="graph">
<g id="viewport">
<title>/mnt/hdd/C0de/smart_engine/src/LoadingGameObjects.cpp</title>
<!-- Node0 -->
<g id="node1" class="node">
<title>Node0</title>
<polygon fill="#bfbfbf" stroke="#000000" points="570,-291.5 570,-321.5 752,-321.5 752,-291.5 570,-291.5"/>
<text text-anchor="start" x="578" y="-309.5" font-family="Helvetica,sans-Serif" font-size="10.00" fill="#000000">/mnt/hdd/C0de/smart</text>
<text text-anchor="middle" x="661" y="-298.5" font-family="Helvetica,sans-Serif" font-size="10.00" fill="#000000">_engine/src/LoadingGameObjects.cpp</text>
</g>
<!-- Node1 -->
<g id="node2" class="node">
<title>Node1</title>
<g id="a_node2"><a xlink:href="LoadingGameObjects_8h.html" target="_top" xlink:title="../include/LoadingGameObjects.h">
<polygon fill="none" stroke="#000000" points="96.5,-179.5 96.5,-198.5 257.5,-198.5 257.5,-179.5 96.5,-179.5"/>
<text text-anchor="middle" x="177" y="-186.5" font-family="Helvetica,sans-Serif" font-size="10.00" fill="#000000">../include/LoadingGameObjects.h</text>
</a>
</g>
</g>
<!-- Node0&#45;&gt;Node1 -->
<g id="edge1" class="edge">
<title>Node0&#45;&gt;Node1</title>
<path fill="none" stroke="#191970" d="M596.5672,-291.4786C553.1447,-281.3062 494.5922,-267.4941 443,-255 366.5382,-236.4831 277.883,-214.3533 224.6815,-201.0019"/>
<polygon fill="#191970" stroke="#191970" points="225.401,-197.574 214.8497,-198.5331 223.6962,-204.3632 225.401,-197.574"/>
</g>
<!-- Node5 -->
<g id="node6" class="node">
<title>Node5</title>
<polygon fill="none" stroke="#bfbfbf" points="846.5,-235.5 846.5,-254.5 889.5,-254.5 889.5,-235.5 846.5,-235.5"/>
<text text-anchor="middle" x="868" y="-242.5" font-family="Helvetica,sans-Serif" font-size="10.00" fill="#000000">cstdio</text>
</g>
<!-- Node0&#45;&gt;Node5 -->
<g id="edge5" class="edge">
<title>Node0&#45;&gt;Node5</title>
<path fill="none" stroke="#191970" d="M713.8675,-291.4392C746.6192,-282.0148 789.7717,-269.4297 836.6123,-255.0634"/>
<polygon fill="#191970" stroke="#191970" points="837.8151,-258.3554 846.3437,-252.0693 835.7565,-251.6649 837.8151,-258.3554"/>
</g>
<!-- Node6 -->
<g id="node7" class="node">
<title>Node6</title>
<g id="a_node7"><a xlink:href="entity__manager_8h.html" target="_top" xlink:title="../include/entity_manager.h">
<polygon fill="none" stroke="#000000" points="452,-235.5 452,-254.5 586,-254.5 586,-235.5 452,-235.5"/>
<text text-anchor="middle" x="519" y="-242.5" font-family="Helvetica,sans-Serif" font-size="10.00" fill="#000000">../include/entity_manager.h</text>
</a>
</g>
</g>
<!-- Node0&#45;&gt;Node6 -->
<g id="edge6" class="edge">
<title>Node0&#45;&gt;Node6</title>
<path fill="none" stroke="#191970" d="M626.2629,-291.4554C603.0894,-281.419 572.8708,-268.3314 550.4158,-258.6061"/>
<polygon fill="#191970" stroke="#191970" points="551.5723,-255.2929 541.005,-254.5303 548.7903,-261.7164 551.5723,-255.2929"/>
</g>
<!-- Node24 -->
<g id="node25" class="node">
<title>Node24</title>
<g id="a_node25"><a xlink:href="game__text_8h.html" target="_top" xlink:title="../include/game_text.h">
<polygon fill="none" stroke="#000000" points="604.5,-235.5 604.5,-254.5 717.5,-254.5 717.5,-235.5 604.5,-235.5"/>
<text text-anchor="middle" x="661" y="-242.5" font-family="Helvetica,sans-Serif" font-size="10.00" fill="#000000">../include/game_text.h</text>
</a>
</g>
</g>
<!-- Node0&#45;&gt;Node24 -->
<g id="edge34" class="edge">
<title>Node0&#45;&gt;Node24</title>
<path fill="none" stroke="#191970" d="M661,-291.2977C661,-283.3834 661,-273.6043 661,-265.0759"/>
<polygon fill="#191970" stroke="#191970" points="664.5001,-264.8469 661,-254.8469 657.5001,-264.847 664.5001,-264.8469"/>
</g>
<!-- Node26 -->
<g id="node27" class="node">
<title>Node26</title>
<g id="a_node27"><a xlink:href="sprite_8h.html" target="_top" xlink:title="../include/sprite.h">
<polygon fill="none" stroke="#000000" points="736,-235.5 736,-254.5 828,-254.5 828,-235.5 736,-235.5"/>
<text text-anchor="middle" x="782" y="-242.5" font-family="Helvetica,sans-Serif" font-size="10.00" fill="#000000">../include/sprite.h</text>
</a>
</g>
</g>
<!-- Node0&#45;&gt;Node26 -->
<g id="edge37" class="edge">
<title>Node0&#45;&gt;Node26</title>
<path fill="none" stroke="#191970" d="M690.5999,-291.4554C709.9922,-281.599 735.1742,-268.7999 754.1943,-259.1327"/>
<polygon fill="#191970" stroke="#191970" points="755.9205,-262.1815 763.2493,-254.5303 752.7488,-255.9412 755.9205,-262.1815"/>
</g>
<!-- Node2 -->
<g id="node3" class="node">
<title>Node2</title>
<polygon fill="none" stroke="#bfbfbf" points="74,-118 74,-137 126,-137 126,-118 74,-118"/>
<text text-anchor="middle" x="100" y="-125" font-family="Helvetica,sans-Serif" font-size="10.00" fill="#000000">memory</text>
</g>
<!-- Node1&#45;&gt;Node2 -->
<g id="edge2" class="edge">
<title>Node1&#45;&gt;Node2</title>
<path fill="none" stroke="#191970" d="M164.9688,-179.3906C152.9893,-169.8227 134.3834,-154.9621 120.1475,-143.5919"/>
<polygon fill="#191970" stroke="#191970" points="121.9447,-140.5479 111.9468,-137.0419 117.5761,-146.0175 121.9447,-140.5479"/>
</g>
<!-- Node3 -->
<g id="node4" class="node">
<title>Node3</title>
<polygon fill="none" stroke="#bfbfbf" points="442,-118 442,-137 486,-137 486,-118 442,-118"/>
<text text-anchor="middle" x="464" y="-125" font-family="Helvetica,sans-Serif" font-size="10.00" fill="#000000">vector</text>
</g>
<!-- Node1&#45;&gt;Node3 -->
<g id="edge3" class="edge">
<title>Node1&#45;&gt;Node3</title>
<path fill="none" stroke="#191970" d="M221.5289,-179.4581C279.8593,-166.9587 380.7281,-145.344 432.0342,-134.3498"/>
<polygon fill="#191970" stroke="#191970" points="432.8577,-137.7529 441.9024,-132.2352 431.391,-130.9083 432.8577,-137.7529"/>
</g>
<!-- Node4 -->
<g id="node5" class="node">
<title>Node4</title>
<polygon fill="none" stroke="#bfbfbf" points="0,-118 0,-137 56,-137 56,-118 0,-118"/>
<text text-anchor="middle" x="28" y="-125" font-family="Helvetica,sans-Serif" font-size="10.00" fill="#000000">tinyxml.h</text>
</g>
<!-- Node1&#45;&gt;Node4 -->
<g id="edge4" class="edge">
<title>Node1&#45;&gt;Node4</title>
<path fill="none" stroke="#191970" d="M153.3823,-179.3559C130.702,-170.0813 95.4837,-155.645 65,-143 63.4078,-142.3396 61.7777,-141.6619 60.1318,-140.9766"/>
<polygon fill="#191970" stroke="#191970" points="61.2642,-137.6567 50.6877,-137.0338 58.5673,-144.1163 61.2642,-137.6567"/>
</g>
<!-- Node6&#45;&gt;Node3 -->
<g id="edge24" class="edge">
<title>Node6&#45;&gt;Node3</title>
<path fill="none" stroke="#191970" d="M507.4023,-235.2645C497.9838,-226.6963 485.1336,-213.374 478,-199 469.9344,-182.7481 466.512,-162.2615 465.0617,-147.3878"/>
<polygon fill="#191970" stroke="#191970" points="468.5407,-146.9769 464.2929,-137.2709 461.5608,-147.5074 468.5407,-146.9769"/>
</g>
<!-- Node7 -->
<g id="node8" class="node">
<title>Node7</title>
<g id="a_node8"><a xlink:href="entity_8h.html" target="_top" xlink:title="entity.h">
<polygon fill="none" stroke="#000000" points="351.5,-179.5 351.5,-198.5 400.5,-198.5 400.5,-179.5 351.5,-179.5"/>
<text text-anchor="middle" x="376" y="-186.5" font-family="Helvetica,sans-Serif" font-size="10.00" fill="#000000">entity.h</text>
</a>
</g>
</g>
<!-- Node6&#45;&gt;Node7 -->
<g id="edge7" class="edge">
<title>Node6&#45;&gt;Node7</title>
<path fill="none" stroke="#191970" d="M494.4174,-235.3733C471.0504,-226.2226 435.7138,-212.3844 409.7216,-202.2057"/>
<polygon fill="#191970" stroke="#191970" points="410.8495,-198.8886 400.2618,-198.5011 408.297,-205.4066 410.8495,-198.8886"/>
</g>
<!-- Node18 -->
<g id="node19" class="node">
<title>Node18</title>
<polygon fill="none" stroke="#bfbfbf" points="487.5,-179.5 487.5,-198.5 570.5,-198.5 570.5,-179.5 487.5,-179.5"/>
<text text-anchor="middle" x="529" y="-186.5" font-family="Helvetica,sans-Serif" font-size="10.00" fill="#000000">unordered_map</text>
</g>
<!-- Node6&#45;&gt;Node18 -->
<g id="edge23" class="edge">
<title>Node6&#45;&gt;Node18</title>
<path fill="none" stroke="#191970" d="M520.7419,-235.2455C522.0467,-227.9382 523.876,-217.6944 525.4813,-208.7046"/>
<polygon fill="#191970" stroke="#191970" points="528.9656,-209.1022 527.2781,-198.6427 522.0746,-207.8717 528.9656,-209.1022"/>
</g>
<!-- Node19 -->
<g id="node20" class="node">
<title>Node19</title>
<g id="a_node20"><a xlink:href="Lines_8cpp.html" target="_top" xlink:title="../src/Lines.cpp">
<polygon fill="none" stroke="#000000" points="627,-179.5 627,-198.5 711,-198.5 711,-179.5 627,-179.5"/>
<text text-anchor="middle" x="669" y="-186.5" font-family="Helvetica,sans-Serif" font-size="10.00" fill="#000000">../src/Lines.cpp</text>
</a>
</g>
</g>
<!-- Node6&#45;&gt;Node19 -->
<g id="edge25" class="edge">
<title>Node6&#45;&gt;Node19</title>
<path fill="none" stroke="#191970" d="M544.7859,-235.3733C569.4047,-226.1822 606.69,-212.2624 633.9875,-202.0713"/>
<polygon fill="#191970" stroke="#191970" points="635.4063,-205.2777 643.5506,-198.5011 632.958,-198.7198 635.4063,-205.2777"/>
</g>
<!-- Node7&#45;&gt;Node2 -->
<g id="edge12" class="edge">
<title>Node7&#45;&gt;Node2</title>
<path fill="none" stroke="#191970" d="M351.2591,-186.1724C307.0839,-180.7086 212.0476,-167.066 135,-143 133.097,-142.4056 131.1594,-141.7376 129.2213,-141.0215"/>
<polygon fill="#191970" stroke="#191970" points="130.269,-137.6697 119.6866,-137.1574 127.6398,-144.1572 130.269,-137.6697"/>
</g>
<!-- Node8 -->
<g id="node9" class="node">
<title>Node8</title>
<g id="a_node9"><a xlink:href="texture_8h.html" target="_top" xlink:title="texture.h">
<polygon fill="none" stroke="#000000" points="348.5,-56.5 348.5,-75.5 403.5,-75.5 403.5,-56.5 348.5,-56.5"/>
<text text-anchor="middle" x="376" y="-63.5" font-family="Helvetica,sans-Serif" font-size="10.00" fill="#000000">texture.h</text>
</a>
</g>
</g>
<!-- Node7&#45;&gt;Node8 -->
<g id="edge8" class="edge">
<title>Node7&#45;&gt;Node8</title>
<path fill="none" stroke="#191970" d="M376,-179.3484C376,-159.2295 376,-112.4608 376,-85.7098"/>
<polygon fill="#191970" stroke="#191970" points="379.5001,-85.6067 376,-75.6068 372.5001,-85.6068 379.5001,-85.6067"/>
</g>
<!-- Node10 -->
<g id="node11" class="node">
<title>Node10</title>
<polygon fill="none" stroke="#bfbfbf" points="268,-118 268,-137 348,-137 348,-118 268,-118"/>
<text text-anchor="middle" x="308" y="-125" font-family="Helvetica,sans-Serif" font-size="10.00" fill="#000000">box2d/box2d.h</text>
</g>
<!-- Node7&#45;&gt;Node10 -->
<g id="edge10" class="edge">
<title>Node7&#45;&gt;Node10</title>
<path fill="none" stroke="#191970" d="M365.375,-179.3906C354.9569,-169.9683 338.8636,-155.4134 326.3696,-144.1137"/>
<polygon fill="#191970" stroke="#191970" points="328.5392,-141.3568 318.7748,-137.2449 323.8438,-146.5484 328.5392,-141.3568"/>
</g>
<!-- Node11 -->
<g id="node12" class="node">
<title>Node11</title>
<polygon fill="none" stroke="#bfbfbf" points="504,-118 504,-137 558,-137 558,-118 504,-118"/>
<text text-anchor="middle" x="531" y="-125" font-family="Helvetica,sans-Serif" font-size="10.00" fill="#000000">iostream</text>
</g>
<!-- Node7&#45;&gt;Node11 -->
<g id="edge11" class="edge">
<title>Node7&#45;&gt;Node11</title>
<path fill="none" stroke="#191970" d="M400.7214,-179.7548C424.8652,-170.6524 462.6013,-156.2312 495,-143 496.4174,-142.4211 497.8638,-141.8243 499.323,-141.2171"/>
<polygon fill="#191970" stroke="#191970" points="501.1214,-144.2569 508.9706,-137.1407 498.3969,-137.8089 501.1214,-144.2569"/>
</g>
<!-- Node12 -->
<g id="node13" class="node">
<title>Node12</title>
<g id="a_node13"><a xlink:href="resource__manager_8h.html" target="_top" xlink:title="resource_manager.h">
<polygon fill="none" stroke="#000000" points="144.5,-118 144.5,-137 249.5,-137 249.5,-118 144.5,-118"/>
<text text-anchor="middle" x="197" y="-125" font-family="Helvetica,sans-Serif" font-size="10.00" fill="#000000">resource_manager.h</text>
</a>
</g>
</g>
<!-- Node7&#45;&gt;Node12 -->
<g id="edge13" class="edge">
<title>Node7&#45;&gt;Node12</title>
<path fill="none" stroke="#191970" d="M351.4861,-180.5776C321.3334,-170.2179 269.8293,-152.5224 234.646,-140.4342"/>
<polygon fill="#191970" stroke="#191970" points="235.3348,-136.9701 224.7402,-137.0308 233.0603,-143.5903 235.3348,-136.9701"/>
</g>
<!-- Node16 -->
<g id="node17" class="node">
<title>Node16</title>
<polygon fill="none" stroke="#bfbfbf" points="733,-.5 733,-19.5 803,-19.5 803,-.5 733,-.5"/>
<text text-anchor="middle" x="768" y="-7.5" font-family="Helvetica,sans-Serif" font-size="10.00" fill="#000000">glm/glm.hpp</text>
</g>
<!-- Node7&#45;&gt;Node16 -->
<g id="edge22" class="edge">
<title>Node7&#45;&gt;Node16</title>
<path fill="none" stroke="#191970" d="M380.521,-179.4039C388.6875,-163.1048 407.4526,-130.0295 433,-112 523.359,-48.2313 654.4565,-23.5856 722.7696,-14.6615"/>
<polygon fill="#191970" stroke="#191970" points="723.2921,-18.1235 732.7798,-13.4082 722.4224,-11.1777 723.2921,-18.1235"/>
</g>
<!-- Node9 -->
<g id="node10" class="node">
<title>Node9</title>
<polygon fill="none" stroke="#bfbfbf" points="347,-.5 347,-19.5 411,-19.5 411,-.5 347,-.5"/>
<text text-anchor="middle" x="379" y="-7.5" font-family="Helvetica,sans-Serif" font-size="10.00" fill="#000000">glad/glad.h</text>
</g>
<!-- Node8&#45;&gt;Node9 -->
<g id="edge9" class="edge">
<title>Node8&#45;&gt;Node9</title>
<path fill="none" stroke="#191970" d="M376.5226,-56.2455C376.914,-48.9382 377.4628,-38.6944 377.9444,-29.7046"/>
<polygon fill="#191970" stroke="#191970" points="381.4434,-29.8156 378.4834,-19.6427 374.4534,-29.4411 381.4434,-29.8156"/>
</g>
<!-- Node12&#45;&gt;Node8 -->
<g id="edge16" class="edge">
<title>Node12&#45;&gt;Node8</title>
<path fill="none" stroke="#191970" d="M224.9688,-117.8906C255.5755,-107.3749 304.7899,-90.466 338.6741,-78.8243"/>
<polygon fill="#191970" stroke="#191970" points="339.9076,-82.1014 348.2276,-75.5419 337.633,-75.4812 339.9076,-82.1014"/>
</g>
<!-- Node13 -->
<g id="node14" class="node">
<title>Node13</title>
<polygon fill="none" stroke="#bfbfbf" points="293.5,-56.5 293.5,-75.5 328.5,-75.5 328.5,-56.5 293.5,-56.5"/>
<text text-anchor="middle" x="311" y="-63.5" font-family="Helvetica,sans-Serif" font-size="10.00" fill="#000000">map</text>
</g>
<!-- Node12&#45;&gt;Node13 -->
<g id="edge14" class="edge">
<title>Node12&#45;&gt;Node13</title>
<path fill="none" stroke="#191970" d="M214.8125,-117.8906C233.4685,-107.8262 262.9797,-91.9057 284.3974,-80.3514"/>
<polygon fill="#191970" stroke="#191970" points="286.1734,-83.3702 293.3126,-75.5419 282.8498,-77.2095 286.1734,-83.3702"/>
</g>
<!-- Node14 -->
<g id="node15" class="node">
<title>Node14</title>
<polygon fill="none" stroke="#bfbfbf" points="163.5,-.5 163.5,-19.5 204.5,-19.5 204.5,-.5 163.5,-.5"/>
<text text-anchor="middle" x="184" y="-7.5" font-family="Helvetica,sans-Serif" font-size="10.00" fill="#000000">string</text>
</g>
<!-- Node12&#45;&gt;Node14 -->
<g id="edge15" class="edge">
<title>Node12&#45;&gt;Node14</title>
<path fill="none" stroke="#191970" d="M195.9362,-117.8845C193.8127,-98.6913 189.0104,-55.286 186.1869,-29.7663"/>
<polygon fill="#191970" stroke="#191970" points="189.6571,-29.3028 185.0785,-19.7484 182.6995,-30.0726 189.6571,-29.3028"/>
</g>
<!-- Node15 -->
<g id="node16" class="node">
<title>Node15</title>
<g id="a_node16"><a xlink:href="shader_8h.html" target="_top" xlink:title="shader.h">
<polygon fill="none" stroke="#000000" points="221,-56.5 221,-75.5 275,-75.5 275,-56.5 221,-56.5"/>
<text text-anchor="middle" x="248" y="-63.5" font-family="Helvetica,sans-Serif" font-size="10.00" fill="#000000">shader.h</text>
</a>
</g>
</g>
<!-- Node12&#45;&gt;Node15 -->
<g id="edge17" class="edge">
<title>Node12&#45;&gt;Node15</title>
<path fill="none" stroke="#191970" d="M204.9688,-117.8906C212.5591,-108.7376 224.1661,-94.7409 233.4132,-83.59"/>
<polygon fill="#191970" stroke="#191970" points="236.2297,-85.6766 239.9189,-75.7449 230.8413,-81.2083 236.2297,-85.6766"/>
</g>
<!-- Node15&#45;&gt;Node9 -->
<g id="edge19" class="edge">
<title>Node15&#45;&gt;Node9</title>
<path fill="none" stroke="#191970" d="M270.5197,-56.3733C291.7372,-47.3032 323.7276,-33.6279 347.4769,-23.4755"/>
<polygon fill="#191970" stroke="#191970" points="348.9548,-26.6502 356.7742,-19.5011 346.2033,-20.2136 348.9548,-26.6502"/>
</g>
<!-- Node15&#45;&gt;Node14 -->
<g id="edge18" class="edge">
<title>Node15&#45;&gt;Node14</title>
<path fill="none" stroke="#191970" d="M236.8521,-56.2455C227.4913,-48.0549 213.9142,-36.1749 202.8651,-26.5069"/>
<polygon fill="#191970" stroke="#191970" points="204.8508,-23.5937 195.0202,-19.6427 200.2412,-28.8618 204.8508,-23.5937"/>
</g>
<!-- Node15&#45;&gt;Node16 -->
<g id="edge20" class="edge">
<title>Node15&#45;&gt;Node16</title>
<path fill="none" stroke="#191970" d="M275.0075,-57.9479C278.0239,-57.213 281.0659,-56.5426 284,-56 443.5514,-26.4962 636.3951,-15.364 722.5675,-11.6487"/>
<polygon fill="#191970" stroke="#191970" points="722.938,-15.1364 732.7831,-11.2218 722.6456,-8.1425 722.938,-15.1364"/>
</g>
<!-- Node17 -->
<g id="node18" class="node">
<title>Node17</title>
<polygon fill="none" stroke="#bfbfbf" points="223,-.5 223,-19.5 329,-19.5 329,-.5 223,-.5"/>
<text text-anchor="middle" x="276" y="-7.5" font-family="Helvetica,sans-Serif" font-size="10.00" fill="#000000">glm/gtc/type_ptr.hpp</text>
</g>
<!-- Node15&#45;&gt;Node17 -->
<g id="edge21" class="edge">
<title>Node15&#45;&gt;Node17</title>
<path fill="none" stroke="#191970" d="M252.8772,-56.2455C256.6513,-48.6973 261.9921,-38.0158 266.5901,-28.8197"/>
<polygon fill="#191970" stroke="#191970" points="269.837,-30.1522 271.1787,-19.6427 263.576,-27.0217 269.837,-30.1522"/>
</g>
<!-- Node19&#45;&gt;Node3 -->
<g id="edge28" class="edge">
<title>Node19&#45;&gt;Node3</title>
<path fill="none" stroke="#191970" d="M626.7614,-180.3872C591.0493,-172.504 538.8474,-159.5569 495,-143 493.6279,-142.4819 492.236,-141.9219 490.8406,-141.3327"/>
<polygon fill="#191970" stroke="#191970" points="492.2997,-138.1514 481.7518,-137.1553 489.3763,-144.5118 492.2997,-138.1514"/>
</g>
<!-- Node19&#45;&gt;Node9 -->
<g id="edge30" class="edge">
<title>Node19&#45;&gt;Node9</title>
<path fill="none" stroke="#191970" d="M655.0892,-179.3692C642.0037,-170.2237 621.9447,-155.9819 605,-143 587.6982,-129.7445 585.1026,-124.1391 567,-112 513.7751,-76.3088 446.8739,-42.3844 408.924,-24.0647"/>
<polygon fill="#191970" stroke="#191970" points="410.0049,-20.7016 399.4742,-19.5372 406.9803,-27.0145 410.0049,-20.7016"/>
</g>
<!-- Node19&#45;&gt;Node11 -->
<g id="edge27" class="edge">
<title>Node19&#45;&gt;Node11</title>
<path fill="none" stroke="#191970" d="M647.4375,-179.3906C624.4488,-169.1457 587.844,-152.8326 561.8176,-141.2339"/>
<polygon fill="#191970" stroke="#191970" points="562.9698,-137.9156 552.4111,-137.0419 560.1204,-144.3095 562.9698,-137.9156"/>
</g>
<!-- Node19&#45;&gt;Node16 -->
<g id="edge32" class="edge">
<title>Node19&#45;&gt;Node16</title>
<path fill="none" stroke="#191970" d="M711.0264,-182.9138C720.5477,-181.5814 730.617,-180.209 740,-179 808.3454,-170.194 1002.1887,-194.4778 1048,-143 1119.3683,-62.8041 909.4994,-26.8331 813.3529,-14.8589"/>
<polygon fill="#191970" stroke="#191970" points="813.663,-11.371 803.315,-13.6446 812.8222,-18.3203 813.663,-11.371"/>
</g>
<!-- Node20 -->
<g id="node21" class="node">
<title>Node20</title>
<polygon fill="none" stroke="#bfbfbf" points="614.5,-112.5 614.5,-142.5 713.5,-142.5 713.5,-112.5 614.5,-112.5"/>
<text text-anchor="start" x="622.5" y="-130.5" font-family="Helvetica,sans-Serif" font-size="10.00" fill="#000000">glm/ext/matrix_clip</text>
<text text-anchor="middle" x="664" y="-119.5" font-family="Helvetica,sans-Serif" font-size="10.00" fill="#000000">_space.hpp</text>
</g>
<!-- Node19&#45;&gt;Node20 -->
<g id="edge26" class="edge">
<title>Node19&#45;&gt;Node20</title>
<path fill="none" stroke="#191970" d="M668.2188,-179.3906C667.636,-172.2234 666.8119,-162.0862 666.0464,-152.671"/>
<polygon fill="#191970" stroke="#191970" points="669.5221,-152.2281 665.2231,-142.5446 662.5451,-152.7954 669.5221,-152.2281"/>
</g>
<!-- Node21 -->
<g id="node22" class="node">
<title>Node21</title>
<polygon fill="none" stroke="#bfbfbf" points="731.5,-118 731.5,-137 778.5,-137 778.5,-118 731.5,-118"/>
<text text-anchor="middle" x="755" y="-125" font-family="Helvetica,sans-Serif" font-size="10.00" fill="#000000">math.h</text>
</g>
<!-- Node19&#45;&gt;Node21 -->
<g id="edge29" class="edge">
<title>Node19&#45;&gt;Node21</title>
<path fill="none" stroke="#191970" d="M682.4375,-179.3906C696.0695,-169.6421 717.3846,-154.3994 733.3922,-142.9521"/>
<polygon fill="#191970" stroke="#191970" points="735.5586,-145.7057 741.6569,-137.0419 731.4868,-140.0118 735.5586,-145.7057"/>
</g>
<!-- Node22 -->
<g id="node23" class="node">
<title>Node22</title>
<polygon fill="none" stroke="#bfbfbf" points="797,-118 797,-137 877,-137 877,-118 797,-118"/>
<text text-anchor="middle" x="837" y="-125" font-family="Helvetica,sans-Serif" font-size="10.00" fill="#000000">GLFW/glfw3.h</text>
</g>
<!-- Node19&#45;&gt;Node22 -->
<g id="edge31" class="edge">
<title>Node19&#45;&gt;Node22</title>
<path fill="none" stroke="#191970" d="M695.25,-179.3906C723.7293,-168.9652 769.3743,-152.2559 801.1457,-140.6252"/>
<polygon fill="#191970" stroke="#191970" points="802.7469,-143.7663 810.9343,-137.0419 800.3406,-137.1929 802.7469,-143.7663"/>
</g>
<!-- Node23 -->
<g id="node24" class="node">
<title>Node23</title>
<polygon fill="none" stroke="#bfbfbf" points="895,-118 895,-137 1039,-137 1039,-118 895,-118"/>
<text text-anchor="middle" x="967" y="-125" font-family="Helvetica,sans-Serif" font-size="10.00" fill="#000000">glm/gtc/matrix_transform.hpp</text>
</g>
<!-- Node19&#45;&gt;Node23 -->
<g id="edge33" class="edge">
<title>Node19&#45;&gt;Node23</title>
<path fill="none" stroke="#191970" d="M711.0641,-180.319C763.2798,-169.5429 852.5275,-151.1244 910.6289,-139.1336"/>
<polygon fill="#191970" stroke="#191970" points="911.6566,-142.4954 920.7428,-137.0464 910.2417,-135.6398 911.6566,-142.4954"/>
</g>
<!-- Node24&#45;&gt;Node11 -->
<g id="edge36" class="edge">
<title>Node24&#45;&gt;Node11</title>
<path fill="none" stroke="#191970" d="M650.3616,-235.3845C628.2696,-215.4167 577.1838,-169.243 549.5503,-144.2667"/>
<polygon fill="#191970" stroke="#191970" points="551.5511,-141.3572 541.7854,-137.2484 546.8573,-146.5504 551.5511,-141.3572"/>
</g>
<!-- Node25 -->
<g id="node26" class="node">
<title>Node25</title>
<polygon fill="none" stroke="#bfbfbf" points="749,-179.5 749,-198.5 795,-198.5 795,-179.5 749,-179.5"/>
<text text-anchor="middle" x="772" y="-186.5" font-family="Helvetica,sans-Serif" font-size="10.00" fill="#000000">stdio.h</text>
</g>
<!-- Node24&#45;&gt;Node25 -->
<g id="edge35" class="edge">
<title>Node24&#45;&gt;Node25</title>
<path fill="none" stroke="#191970" d="M680.0816,-235.3733C697.7402,-226.4644 724.2053,-213.1127 744.2098,-203.0203"/>
<polygon fill="#191970" stroke="#191970" points="745.8158,-206.1303 753.1674,-198.5011 742.6628,-199.8806 745.8158,-206.1303"/>
</g>
<!-- Node26&#45;&gt;Node16 -->
<g id="edge40" class="edge">
<title>Node26&#45;&gt;Node16</title>
<path fill="none" stroke="#191970" d="M827.686,-235.436C901.2391,-219.0085 1040.5638,-183.285 1069,-143 1076.9454,-131.744 1072.8826,-125.2194 1069,-112 1060.6621,-83.611 1057.6571,-72.355 1033,-56 997.7252,-32.6024 879.5018,-19.2739 813.5114,-13.4877"/>
<polygon fill="#191970" stroke="#191970" points="813.6511,-9.9869 803.3895,-12.6234 813.0555,-16.9616 813.6511,-9.9869"/>
</g>
<!-- Node26&#45;&gt;Node25 -->
<g id="edge38" class="edge">
<title>Node26&#45;&gt;Node25</title>
<path fill="none" stroke="#191970" d="M780.2581,-235.2455C778.9533,-227.9382 777.124,-217.6944 775.5187,-208.7046"/>
<polygon fill="#191970" stroke="#191970" points="778.9254,-207.8717 773.7219,-198.6427 772.0344,-209.1022 778.9254,-207.8717"/>
</g>
<!-- Node27 -->
<g id="node28" class="node">
<title>Node27</title>
<polygon fill="none" stroke="#bfbfbf" points="1133,-179.5 1133,-198.5 1203,-198.5 1203,-179.5 1133,-179.5"/>
<text text-anchor="middle" x="1168" y="-186.5" font-family="Helvetica,sans-Serif" font-size="10.00" fill="#000000">glm/fwd.hpp</text>
</g>
<!-- Node26&#45;&gt;Node27 -->
<g id="edge39" class="edge">
<title>Node26&#45;&gt;Node27</title>
<path fill="none" stroke="#191970" d="M828.1836,-236.4201C831.1644,-235.9229 834.1226,-235.4449 837,-235 961.8665,-215.6921 994.3479,-219.6468 1119,-199 1120.2768,-198.7885 1121.5711,-198.5678 1122.8764,-198.3395"/>
<polygon fill="#191970" stroke="#191970" points="1123.7957,-201.7291 1132.9949,-196.4732 1122.5259,-194.8452 1123.7957,-201.7291"/>
</g>
</g>
</svg>
        <g id="navigator" transform="translate(0 0)" fill="#404254">
                <rect fill="#f2f5e9" fill-opacity="0.5" stroke="#606060" stroke-width=".5" x="0" y="0" width="60" height="60"/>
                <use id="zoomplus" xlink:href="#zoomPlus" x="17" y="9" onmousedown="handleZoom(evt,'in')"/>
                <use id="zoomminus" xlink:href="#zoomMin" x="42" y="9" onmousedown="handleZoom(evt,'out')"/>
                <use id="reset" xlink:href="#resetDef" x="30" y="36" onmousedown="handleReset()"/>
                <g id="arrowUp" xlink:href="#dirArrow" transform="translate(30 24)" onmousedown="handlePan(0,-1)">
                  <use xlink:href="#rim" fill="#404040">
                        <set attributeName="fill" to="#808080" begin="arrowUp.mouseover" end="arrowUp.mouseout"/>
                  </use>
                  <path fill="none" stroke="white" stroke-width="1.5" d="M0,-3.0v7 M-2.5,-0.5L0,-3.0L2.5,-0.5"/>
                </g>
                <g id="arrowRight" xlink:href="#dirArrow" transform="rotate(90) translate(36 -43)" onmousedown="handlePan(1,0)">
                  <use xlink:href="#rim" fill="#404040">
                        <set attributeName="fill" to="#808080" begin="arrowRight.mouseover" end="arrowRight.mouseout"/>
                  </use>
                  <path fill="none" stroke="white" stroke-width="1.5" d="M0,-3.0v7 M-2.5,-0.5L0,-3.0L2.5,-0.5"/>
                </g>
                <g id="arrowDown" xlink:href="#dirArrow" transform="rotate(180) translate(-30 -48)" onmousedown="handlePan(0,1)">
                  <use xlink:href="#rim" fill="#404040">
                        <set attributeName="fill" to="#808080" begin="arrowDown.mouseover" end="arrowDown.mouseout"/>
                  </use>
                  <path fill="none" stroke="white" stroke-width="1.5" d="M0,-3.0v7 M-2.5,-0.5L0,-3.0L2.5,-0.5"/>
                </g>
                <g id="arrowLeft" xlink:href="#dirArrow" transform="rotate(270) translate(-36 17)" onmousedown="handlePan(-1,0)">
                  <use xlink:href="#rim" fill="#404040">
                        <set attributeName="fill" to="#808080" begin="arrowLeft.mouseover" end="arrowLeft.mouseout"/>
                  </use>
                  <path fill="none" stroke="white" stroke-width="1.5" d="M0,-3.0v7 M-2.5,-0.5L0,-3.0L2.5,-0.5"/>
                </g>
        </g>
        <svg viewBox="0 0 15 15" width="100%" height="30px" preserveAspectRatio="xMaxYMin meet">
         <g id="arrow_out" transform="scale(0.3 0.3)">
          <a xlink:href="LoadingGameObjects_8cpp__incl_org.svg" target="_base">
           <rect id="button" ry="5" rx="5" y="6" x="6" height="38" width="38"
                fill="#f2f5e9" fill-opacity="0.5" stroke="#606060" stroke-width="1.0"/>
           <path id="arrow"
             d="M 11.500037,31.436501 C 11.940474,20.09759 22.043105,11.32322 32.158766,21.979434 L 37.068811,17.246167 C 37.068811,17.246167 37.088388,32 37.088388,32 L 22.160133,31.978069 C 22.160133,31.978069 26.997745,27.140456 26.997745,27.140456 C 18.528582,18.264221 13.291696,25.230495 11.500037,31.436501 z"
             style="fill:#404040;"/>
          </a>
         </g>
        </svg>
</svg>
