<?xml version="1.0" encoding="UTF-8" standalone="no"?>
<!DOCTYPE svg PUBLIC "-//W3C//DTD SVG 1.1//EN"
 "http://www.w3.org/Graphics/SVG/1.1/DTD/svg11.dtd">
<!-- Generated by graphviz version 2.40.1 (20161225.0304)
 -->
<!-- Title: /mnt/hdd/C0de/smart_engine/include/LoadingGameObjects.h Pages: 1 -->
<svg width="844pt" height="206pt"
 viewBox="0.00 0.00 843.50 206.00" xmlns="http://www.w3.org/2000/svg" xmlns:xlink="http://www.w3.org/1999/xlink">
<g id="graph0" class="graph" transform="scale(1 1) rotate(0) translate(4 202)">
<title>/mnt/hdd/C0de/smart_engine/include/LoadingGameObjects.h</title>
<!-- Node4 -->
<g id="node1" class="node">
<title>Node4</title>
<polygon fill="#bfbfbf" stroke="#000000" points="273,-156.5 273,-197.5 420,-197.5 420,-156.5 273,-156.5"/>
<text text-anchor="start" x="281" y="-185.5" font-family="Helvetica,sans-Serif" font-size="10.00" fill="#000000">/mnt/hdd/C0de/smart</text>
<text text-anchor="start" x="281" y="-174.5" font-family="Helvetica,sans-Serif" font-size="10.00" fill="#000000">_engine/include/LoadingGame</text>
<text text-anchor="middle" x="346.5" y="-163.5" font-family="Helvetica,sans-Serif" font-size="10.00" fill="#000000">Objects.h</text>
</g>
<!-- Node5 -->
<g id="node2" class="node">
<title>Node5</title>
<g id="a_node2"><a xlink:href="main__menu__state_8h.html" target="_top" xlink:title="/mnt/hdd/C0de/smart\l_engine/include/main\l_menu_state.h">
<polygon fill="none" stroke="#000000" points="54,-78.5 54,-119.5 163,-119.5 163,-78.5 54,-78.5"/>
<text text-anchor="start" x="62" y="-107.5" font-family="Helvetica,sans-Serif" font-size="10.00" fill="#000000">/mnt/hdd/C0de/smart</text>
<text text-anchor="start" x="62" y="-96.5" font-family="Helvetica,sans-Serif" font-size="10.00" fill="#000000">_engine/include/main</text>
<text text-anchor="middle" x="108.5" y="-85.5" font-family="Helvetica,sans-Serif" font-size="10.00" fill="#000000">_menu_state.h</text>
</a>
</g>
</g>
<!-- Node4&#45;&gt;Node5 -->
<g id="edge1" class="edge">
<title>Node4&#45;&gt;Node5</title>
<path fill="none" stroke="#191970" d="M273.7992,-153.1737C238.1857,-141.502 196.0178,-127.6823 163.186,-116.9223"/>
<polygon fill="#191970" stroke="#191970" points="273.0643,-156.6159 283.657,-156.4044 275.2443,-149.9641 273.0643,-156.6159"/>
</g>
<!-- Node7 -->
<g id="node4" class="node">
<title>Node7</title>
<g id="a_node4"><a xlink:href="main__menu__state_8cpp.html" target="_top" xlink:title="/mnt/hdd/C0de/smart\l_engine/src/main_menu\l_state.cpp">
<polygon fill="none" stroke="#000000" points="131.5,-.5 131.5,-41.5 251.5,-41.5 251.5,-.5 131.5,-.5"/>
<text text-anchor="start" x="139.5" y="-29.5" font-family="Helvetica,sans-Serif" font-size="10.00" fill="#000000">/mnt/hdd/C0de/smart</text>
<text text-anchor="start" x="139.5" y="-18.5" font-family="Helvetica,sans-Serif" font-size="10.00" fill="#000000">_engine/src/main_menu</text>
<text text-anchor="middle" x="191.5" y="-7.5" font-family="Helvetica,sans-Serif" font-size="10.00" fill="#000000">_state.cpp</text>
</a>
</g>
</g>
<!-- Node4&#45;&gt;Node7 -->
<g id="edge7" class="edge">
<title>Node4&#45;&gt;Node7</title>
<path fill="none" stroke="#191970" d="M263.2911,-157.0474C243.4307,-148.6225 224.079,-136.7315 210.5,-120 192.413,-97.7141 189.7024,-63.3524 190.0901,-41.5331"/>
<polygon fill="#191970" stroke="#191970" points="262.1583,-160.3633 272.7444,-160.7948 264.738,-153.8559 262.1583,-160.3633"/>
</g>
<!-- Node8 -->
<g id="node5" class="node">
<title>Node8</title>
<g id="a_node5"><a xlink:href="game__over__state_8cpp.html" target="_top" xlink:title="/mnt/hdd/C0de/smart\l_engine/src/game_over\l_state.cpp">
<polygon fill="none" stroke="#000000" points="219.5,-78.5 219.5,-119.5 337.5,-119.5 337.5,-78.5 219.5,-78.5"/>
<text text-anchor="start" x="227.5" y="-107.5" font-family="Helvetica,sans-Serif" font-size="10.00" fill="#000000">/mnt/hdd/C0de/smart</text>
<text text-anchor="start" x="227.5" y="-96.5" font-family="Helvetica,sans-Serif" font-size="10.00" fill="#000000">_engine/src/game_over</text>
<text text-anchor="middle" x="278.5" y="-85.5" font-family="Helvetica,sans-Serif" font-size="10.00" fill="#000000">_state.cpp</text>
</a>
</g>
</g>
<!-- Node4&#45;&gt;Node8 -->
<g id="edge4" class="edge">
<title>Node4&#45;&gt;Node8</title>
<path fill="none" stroke="#191970" d="M321.5457,-148.376C313.2587,-138.8703 304.1986,-128.4778 296.5373,-119.6898"/>
<polygon fill="#191970" stroke="#191970" points="319.0676,-150.8597 328.2772,-156.0974 324.3441,-146.2597 319.0676,-150.8597"/>
</g>
<!-- Node9 -->
<g id="node6" class="node">
<title>Node9</title>
<g id="a_node6"><a xlink:href="game__play__state_8cpp.html" target="_top" xlink:title="/mnt/hdd/C0de/smart\l_engine/src/game_play\l_state.cpp">
<polygon fill="none" stroke="#000000" points="356,-78.5 356,-119.5 473,-119.5 473,-78.5 356,-78.5"/>
<text text-anchor="start" x="364" y="-107.5" font-family="Helvetica,sans-Serif" font-size="10.00" fill="#000000">/mnt/hdd/C0de/smart</text>
<text text-anchor="start" x="364" y="-96.5" font-family="Helvetica,sans-Serif" font-size="10.00" fill="#000000">_engine/src/game_play</text>
<text text-anchor="middle" x="414.5" y="-85.5" font-family="Helvetica,sans-Serif" font-size="10.00" fill="#000000">_state.cpp</text>
</a>
</g>
</g>
<!-- Node4&#45;&gt;Node9 -->
<g id="edge5" class="edge">
<title>Node4&#45;&gt;Node9</title>
<path fill="none" stroke="#191970" d="M371.4543,-148.376C379.7413,-138.8703 388.8014,-128.4778 396.4627,-119.6898"/>
<polygon fill="#191970" stroke="#191970" points="368.6559,-146.2597 364.7228,-156.0974 373.9324,-150.8597 368.6559,-146.2597"/>
</g>
<!-- Node10 -->
<g id="node7" class="node">
<title>Node10</title>
<g id="a_node7"><a xlink:href="LoadingGameObjects_8cpp.html" target="_top" xlink:title="/mnt/hdd/C0de/smart\l_engine/src/LoadingGameObjects.cpp">
<polygon fill="none" stroke="#000000" points="491.5,-84 491.5,-114 673.5,-114 673.5,-84 491.5,-84"/>
<text text-anchor="start" x="499.5" y="-102" font-family="Helvetica,sans-Serif" font-size="10.00" fill="#000000">/mnt/hdd/C0de/smart</text>
<text text-anchor="middle" x="582.5" y="-91" font-family="Helvetica,sans-Serif" font-size="10.00" fill="#000000">_engine/src/LoadingGameObjects.cpp</text>
</a>
</g>
</g>
<!-- Node4&#45;&gt;Node10 -->
<g id="edge6" class="edge">
<title>Node4&#45;&gt;Node10</title>
<path fill="none" stroke="#191970" d="M418.4501,-153.2199C457.059,-140.4593 503.469,-125.1204 537.0585,-114.0188"/>
<polygon fill="#191970" stroke="#191970" points="417.2114,-149.943 408.8149,-156.4044 419.4081,-156.5894 417.2114,-149.943"/>
</g>
<!-- Node11 -->
<g id="node8" class="node">
<title>Node11</title>
<g id="a_node8"><a xlink:href="splash__state_8cpp.html" target="_top" xlink:title="/mnt/hdd/C0de/smart\l_engine/src/splash_state.cpp">
<polygon fill="none" stroke="#000000" points="691.5,-84 691.5,-114 835.5,-114 835.5,-84 691.5,-84"/>
<text text-anchor="start" x="699.5" y="-102" font-family="Helvetica,sans-Serif" font-size="10.00" fill="#000000">/mnt/hdd/C0de/smart</text>
<text text-anchor="middle" x="763.5" y="-91" font-family="Helvetica,sans-Serif" font-size="10.00" fill="#000000">_engine/src/splash_state.cpp</text>
</a>
</g>
</g>
<!-- Node4&#45;&gt;Node11 -->
<g id="edge8" class="edge">
<title>Node4&#45;&gt;Node11</title>
<path fill="none" stroke="#191970" d="M430.5133,-164.7911C498.7107,-154.3907 597.2015,-138.2573 682.5,-120 690.7393,-118.2365 699.4029,-116.1941 707.8757,-114.0897"/>
<polygon fill="#191970" stroke="#191970" points="429.618,-161.3868 420.256,-166.347 430.6678,-168.3076 429.618,-161.3868"/>
</g>
<!-- Node6 -->
<g id="node3" class="node">
<title>Node6</title>
<g id="a_node3"><a xlink:href="game_8cpp.html" target="_top" xlink:title="/mnt/hdd/C0de/smart\l_engine/src/game.cpp">
<polygon fill="none" stroke="#000000" points="0,-6 0,-36 113,-36 113,-6 0,-6"/>
<text text-anchor="start" x="8" y="-24" font-family="Helvetica,sans-Serif" font-size="10.00" fill="#000000">/mnt/hdd/C0de/smart</text>
<text text-anchor="middle" x="56.5" y="-13" font-family="Helvetica,sans-Serif" font-size="10.00" fill="#000000">_engine/src/game.cpp</text>
</a>
</g>
</g>
<!-- Node5&#45;&gt;Node6 -->
<g id="edge2" class="edge">
<title>Node5&#45;&gt;Node6</title>
<path fill="none" stroke="#191970" d="M88.9661,-69.6992C81.3841,-58.3262 73.0187,-45.7781 66.6786,-36.2679"/>
<polygon fill="#191970" stroke="#191970" points="86.1057,-71.7184 94.565,-78.0974 91.9301,-67.8354 86.1057,-71.7184"/>
</g>
<!-- Node5&#45;&gt;Node7 -->
<g id="edge3" class="edge">
<title>Node5&#45;&gt;Node7</title>
<path fill="none" stroke="#191970" d="M138.0512,-71.229C148.4088,-61.4953 159.8521,-50.7414 169.4839,-41.6898"/>
<polygon fill="#191970" stroke="#191970" points="135.6328,-68.6987 130.7425,-78.0974 140.4265,-73.7997 135.6328,-68.6987"/>
</g>
</g>
</svg>
