<?xml version="1.0" encoding="UTF-8" standalone="no"?>
<!DOCTYPE svg PUBLIC "-//W3C//DTD SVG 1.1//EN"
 "http://www.w3.org/Graphics/SVG/1.1/DTD/svg11.dtd">
<!-- Generated by graphviz version 2.40.1 (20161225.0304)
 -->
<!-- Title: /mnt/hdd/C0de/smart_engine/src/main.cpp Pages: 1 -->
<svg width="467pt" height="207pt"
 viewBox="0.00 0.00 467.00 207.00" xmlns="http://www.w3.org/2000/svg" xmlns:xlink="http://www.w3.org/1999/xlink">
<g id="graph0" class="graph" transform="scale(1 1) rotate(0) translate(4 203)">
<title>/mnt/hdd/C0de/smart_engine/src/main.cpp</title>
<!-- Node0 -->
<g id="node1" class="node">
<title>Node0</title>
<polygon fill="#bfbfbf" stroke="#000000" points="232,-168.5 232,-198.5 342,-198.5 342,-168.5 232,-168.5"/>
<text text-anchor="start" x="240" y="-186.5" font-family="Helvetica,sans-Serif" font-size="10.00" fill="#000000">/mnt/hdd/C0de/smart</text>
<text text-anchor="middle" x="287" y="-175.5" font-family="Helvetica,sans-Serif" font-size="10.00" fill="#000000">_engine/src/main.cpp</text>
</g>
<!-- Node1 -->
<g id="node2" class="node">
<title>Node1</title>
<g id="a_node2"><a xlink:href="game_8h.html" target="_top" xlink:title="../include/game.h">
<polygon fill="none" stroke="#000000" points="198,-112.5 198,-131.5 290,-131.5 290,-112.5 198,-112.5"/>
<text text-anchor="middle" x="244" y="-119.5" font-family="Helvetica,sans-Serif" font-size="10.00" fill="#000000">../include/game.h</text>
</a>
</g>
</g>
<!-- Node0&#45;&gt;Node1 -->
<g id="edge1" class="edge">
<title>Node0&#45;&gt;Node1</title>
<path fill="none" stroke="#191970" d="M276.3708,-168.2977C270.4019,-159.7609 262.9162,-149.0545 256.6471,-140.0883"/>
<polygon fill="#191970" stroke="#191970" points="259.4835,-138.0368 250.8848,-131.8469 253.7466,-142.048 259.4835,-138.0368"/>
</g>
<!-- Node11 -->
<g id="node12" class="node">
<title>Node11</title>
<polygon fill="none" stroke="#bfbfbf" points="308,-112.5 308,-131.5 352,-131.5 352,-112.5 308,-112.5"/>
<text text-anchor="middle" x="330" y="-119.5" font-family="Helvetica,sans-Serif" font-size="10.00" fill="#000000">thread</text>
</g>
<!-- Node0&#45;&gt;Node11 -->
<g id="edge13" class="edge">
<title>Node0&#45;&gt;Node11</title>
<path fill="none" stroke="#191970" d="M297.6292,-168.2977C303.5981,-159.7609 311.0838,-149.0545 317.3529,-140.0883"/>
<polygon fill="#191970" stroke="#191970" points="320.2534,-142.048 323.1152,-131.8469 314.5165,-138.0368 320.2534,-142.048"/>
</g>
<!-- Node2 -->
<g id="node3" class="node">
<title>Node2</title>
<polygon fill="none" stroke="#bfbfbf" points="150,-.5 150,-19.5 202,-19.5 202,-.5 150,-.5"/>
<text text-anchor="middle" x="176" y="-7.5" font-family="Helvetica,sans-Serif" font-size="10.00" fill="#000000">memory</text>
</g>
<!-- Node1&#45;&gt;Node2 -->
<g id="edge2" class="edge">
<title>Node1&#45;&gt;Node2</title>
<path fill="none" stroke="#191970" d="M228.1164,-112.2718C216.0946,-104.0755 200.1415,-91.2596 191,-76 182.6025,-61.9823 178.902,-43.7185 177.2736,-29.958"/>
<polygon fill="#191970" stroke="#191970" points="180.7275,-29.292 176.3354,-19.6504 173.7563,-29.9266 180.7275,-29.292"/>
</g>
<!-- Node3 -->
<g id="node4" class="node">
<title>Node3</title>
<polygon fill="none" stroke="#bfbfbf" points="307,-56.5 307,-75.5 361,-75.5 361,-56.5 307,-56.5"/>
<text text-anchor="middle" x="334" y="-63.5" font-family="Helvetica,sans-Serif" font-size="10.00" fill="#000000">iostream</text>
</g>
<!-- Node1&#45;&gt;Node3 -->
<g id="edge3" class="edge">
<title>Node1&#45;&gt;Node3</title>
<path fill="none" stroke="#191970" d="M259.6768,-112.2455C273.4856,-103.6534 293.8193,-91.0014 309.7292,-81.1018"/>
<polygon fill="#191970" stroke="#191970" points="311.8613,-83.8974 318.5028,-75.6427 308.1632,-77.954 311.8613,-83.8974"/>
</g>
<!-- Node4 -->
<g id="node5" class="node">
<title>Node4</title>
<g id="a_node5"><a xlink:href="Orthographic__camera_8h.html" target="_top" xlink:title="Orthographic_camera.h">
<polygon fill="none" stroke="#000000" points="25,-56.5 25,-75.5 143,-75.5 143,-56.5 25,-56.5"/>
<text text-anchor="middle" x="84" y="-63.5" font-family="Helvetica,sans-Serif" font-size="10.00" fill="#000000">Orthographic_camera.h</text>
</a>
</g>
</g>
<!-- Node1&#45;&gt;Node4 -->
<g id="edge4" class="edge">
<title>Node1&#45;&gt;Node4</title>
<path fill="none" stroke="#191970" d="M216.495,-112.3733C190.1198,-103.1419 150.1149,-89.1402 120.9642,-78.9375"/>
<polygon fill="#191970" stroke="#191970" points="121.7409,-75.5012 111.1461,-75.5011 119.4284,-82.1082 121.7409,-75.5012"/>
</g>
<!-- Node7 -->
<g id="node8" class="node">
<title>Node7</title>
<g id="a_node8"><a xlink:href="state__machine_8h.html" target="_top" xlink:title="state_machine.h">
<polygon fill="none" stroke="#000000" points="199.5,-56.5 199.5,-75.5 288.5,-75.5 288.5,-56.5 199.5,-56.5"/>
<text text-anchor="middle" x="244" y="-63.5" font-family="Helvetica,sans-Serif" font-size="10.00" fill="#000000">state_machine.h</text>
</a>
</g>
</g>
<!-- Node1&#45;&gt;Node7 -->
<g id="edge7" class="edge">
<title>Node1&#45;&gt;Node7</title>
<path fill="none" stroke="#191970" d="M244,-112.2455C244,-104.9382 244,-94.6944 244,-85.7046"/>
<polygon fill="#191970" stroke="#191970" points="247.5001,-85.6426 244,-75.6427 240.5001,-85.6427 247.5001,-85.6426"/>
</g>
<!-- Node10 -->
<g id="node11" class="node">
<title>Node10</title>
<polygon fill="none" stroke="#bfbfbf" points="379,-56.5 379,-75.5 459,-75.5 459,-56.5 379,-56.5"/>
<text text-anchor="middle" x="419" y="-63.5" font-family="Helvetica,sans-Serif" font-size="10.00" fill="#000000">GLFW/glfw3.h</text>
</g>
<!-- Node1&#45;&gt;Node10 -->
<g id="edge12" class="edge">
<title>Node1&#45;&gt;Node10</title>
<path fill="none" stroke="#191970" d="M274.0836,-112.3733C303.1834,-103.0613 347.4523,-88.8953 379.403,-78.671"/>
<polygon fill="#191970" stroke="#191970" points="380.8515,-81.8824 389.309,-75.5011 378.718,-75.2155 380.8515,-81.8824"/>
</g>
<!-- Node5 -->
<g id="node6" class="node">
<title>Node5</title>
<polygon fill="none" stroke="#bfbfbf" points="88.5,-.5 88.5,-19.5 131.5,-19.5 131.5,-.5 88.5,-.5"/>
<text text-anchor="middle" x="110" y="-7.5" font-family="Helvetica,sans-Serif" font-size="10.00" fill="#000000">cstdio</text>
</g>
<!-- Node4&#45;&gt;Node5 -->
<g id="edge5" class="edge">
<title>Node4&#45;&gt;Node5</title>
<path fill="none" stroke="#191970" d="M88.5289,-56.2455C92.0334,-48.6973 96.9927,-38.0158 101.2623,-28.8197"/>
<polygon fill="#191970" stroke="#191970" points="104.4864,-30.1867 105.523,-19.6427 98.1373,-27.2389 104.4864,-30.1867"/>
</g>
<!-- Node6 -->
<g id="node7" class="node">
<title>Node6</title>
<polygon fill="none" stroke="#bfbfbf" points="0,-.5 0,-19.5 70,-19.5 70,-.5 0,-.5"/>
<text text-anchor="middle" x="35" y="-7.5" font-family="Helvetica,sans-Serif" font-size="10.00" fill="#000000">glm/glm.hpp</text>
</g>
<!-- Node4&#45;&gt;Node6 -->
<g id="edge6" class="edge">
<title>Node4&#45;&gt;Node6</title>
<path fill="none" stroke="#191970" d="M75.4649,-56.2455C68.5088,-48.2958 58.5117,-36.8706 50.1949,-27.3656"/>
<polygon fill="#191970" stroke="#191970" points="52.6564,-24.8637 43.4373,-19.6427 47.3884,-29.4732 52.6564,-24.8637"/>
</g>
<!-- Node7&#45;&gt;Node2 -->
<g id="edge9" class="edge">
<title>Node7&#45;&gt;Node2</title>
<path fill="none" stroke="#191970" d="M232.1553,-56.2455C222.112,-47.9746 207.5005,-35.9416 195.6996,-26.2232"/>
<polygon fill="#191970" stroke="#191970" points="197.6533,-23.298 187.709,-19.6427 193.2033,-28.7015 197.6533,-23.298"/>
</g>
<!-- Node7&#45;&gt;Node5 -->
<g id="edge8" class="edge">
<title>Node7&#45;&gt;Node5</title>
<path fill="none" stroke="#191970" d="M220.9646,-56.3733C198.9981,-47.1932 165.7433,-33.2957 141.3654,-23.1079"/>
<polygon fill="#191970" stroke="#191970" points="142.4238,-19.7569 131.8475,-19.1303 139.7246,-26.2156 142.4238,-19.7569"/>
</g>
<!-- Node8 -->
<g id="node9" class="node">
<title>Node8</title>
<polygon fill="none" stroke="#bfbfbf" points="285.5,-.5 285.5,-19.5 326.5,-19.5 326.5,-.5 285.5,-.5"/>
<text text-anchor="middle" x="306" y="-7.5" font-family="Helvetica,sans-Serif" font-size="10.00" fill="#000000">stack</text>
</g>
<!-- Node7&#45;&gt;Node8 -->
<g id="edge10" class="edge">
<title>Node7&#45;&gt;Node8</title>
<path fill="none" stroke="#191970" d="M254.7996,-56.2455C263.8678,-48.0549 277.0206,-36.1749 287.7245,-26.5069"/>
<polygon fill="#191970" stroke="#191970" points="290.2491,-28.9429 295.3242,-19.6427 285.5571,-23.7482 290.2491,-28.9429"/>
</g>
<!-- Node9 -->
<g id="node10" class="node">
<title>Node9</title>
<g id="a_node10"><a xlink:href="state_8h.html" target="_top" xlink:title="state.h">
<polygon fill="none" stroke="#000000" points="220.5,-.5 220.5,-19.5 267.5,-19.5 267.5,-.5 220.5,-.5"/>
<text text-anchor="middle" x="244" y="-7.5" font-family="Helvetica,sans-Serif" font-size="10.00" fill="#000000">state.h</text>
</a>
</g>
</g>
<!-- Node7&#45;&gt;Node9 -->
<g id="edge11" class="edge">
<title>Node7&#45;&gt;Node9</title>
<path fill="none" stroke="#191970" d="M244,-56.2455C244,-48.9382 244,-38.6944 244,-29.7046"/>
<polygon fill="#191970" stroke="#191970" points="247.5001,-29.6426 244,-19.6427 240.5001,-29.6427 247.5001,-29.6426"/>
</g>
</g>
</svg>
