<?xml version="1.0" encoding="UTF-8" standalone="no"?>
<!DOCTYPE svg PUBLIC "-//W3C//DTD SVG 1.1//EN"
 "http://www.w3.org/Graphics/SVG/1.1/DTD/svg11.dtd">
<!-- Generated by graphviz version 2.40.1 (20161225.0304)
 -->
<!-- Title: /mnt/hdd/C0de/smart_engine/include/main_menu_state.h Pages: 1 -->
<!--zoomable 218 -->
<svg id="main" version="1.1" xmlns="http://www.w3.org/2000/svg" xmlns:xlink="http://www.w3.org/1999/xlink" xml:space="preserve" onload="init(evt)">
<style type="text/css"><![CDATA[
.edge:hover path { stroke: red; }
.edge:hover polygon { stroke: red; fill: red; }
]]></style>
<script type="text/javascript"><![CDATA[
var edges = document.getElementsByTagName('g');
if (edges && edges.length) {
  for (var i=0;i<edges.length;i++) {
    if (edges[i].id.substr(0,4)=='edge') {
      edges[i].setAttribute('class','edge');
    }
  }
}
]]></script>
        <defs>
                <circle id="rim" cx="0" cy="0" r="7"/>
                <circle id="rim2" cx="0" cy="0" r="3.5"/>
                <g id="zoomPlus">
                        <use xlink:href="#rim" fill="#404040">
                                <set attributeName="fill" to="#808080" begin="zoomplus.mouseover" end="zoomplus.mouseout"/>
                        </use>
                        <path d="M-4,0h8M0,-4v8" fill="none" stroke="white" stroke-width="1.5" pointer-events="none"/>
                </g>
                <g id="zoomMin">
                        <use xlink:href="#rim" fill="#404040">
                                <set attributeName="fill" to="#808080" begin="zoomminus.mouseover" end="zoomminus.mouseout"/>
                        </use>
                        <path d="M-4,0h8" fill="none" stroke="white" stroke-width="1.5" pointer-events="none"/>
                </g>
                <g id="dirArrow">
                        <path fill="none" stroke="white" stroke-width="1.5" d="M0,-3.0v7 M-2.5,-0.5L0,-3.0L2.5,-0.5"/>
                </g>
               <g id="resetDef">
                       <use xlink:href="#rim2" fill="#404040">
                               <set attributeName="fill" to="#808080" begin="reset.mouseover" end="reset.mouseout"/>
                       </use>
               </g>
        </defs>

<script type="text/javascript">
var viewWidth = 654;
var viewHeight = 218;
var sectionId = 'dynsection-0';
</script>
<script xlink:href="svgpan.js"/>
<svg id="graph" class="graph">
<g id="viewport">
<title>/mnt/hdd/C0de/smart_engine/include/main_menu_state.h</title>
<!-- Node0 -->
<g id="node1" class="node">
<title>Node0</title>
<polygon fill="#bfbfbf" stroke="#000000" points="407.5,-168.5 407.5,-209.5 516.5,-209.5 516.5,-168.5 407.5,-168.5"/>
<text text-anchor="start" x="415.5" y="-197.5" font-family="Helvetica,sans-Serif" font-size="10.00" fill="#000000">/mnt/hdd/C0de/smart</text>
<text text-anchor="start" x="415.5" y="-186.5" font-family="Helvetica,sans-Serif" font-size="10.00" fill="#000000">_engine/include/main</text>
<text text-anchor="middle" x="462" y="-175.5" font-family="Helvetica,sans-Serif" font-size="10.00" fill="#000000">_menu_state.h</text>
</g>
<!-- Node1 -->
<g id="node2" class="node">
<title>Node1</title>
<g id="a_node2"><a xlink:href="LoadingGameObjects_8h.html" target="_top" xlink:title="LoadingGameObjects.h">
<polygon fill="none" stroke="#000000" points="490.5,-112.5 490.5,-131.5 609.5,-131.5 609.5,-112.5 490.5,-112.5"/>
<text text-anchor="middle" x="550" y="-119.5" font-family="Helvetica,sans-Serif" font-size="10.00" fill="#000000">LoadingGameObjects.h</text>
</a>
</g>
</g>
<!-- Node0&#45;&gt;Node1 -->
<g id="edge1" class="edge">
<title>Node0&#45;&gt;Node1</title>
<path fill="none" stroke="#191970" d="M489.3614,-168.168C502.191,-158.4001 517.2339,-146.9469 529.1272,-137.8918"/>
<polygon fill="#191970" stroke="#191970" points="531.3178,-140.623 537.154,-131.7805 527.0774,-135.0535 531.3178,-140.623"/>
</g>
<!-- Node5 -->
<g id="node6" class="node">
<title>Node5</title>
<g id="a_node6"><a xlink:href="state_8h.html" target="_top" xlink:title="state.h">
<polygon fill="none" stroke="#000000" points="318.5,-.5 318.5,-19.5 365.5,-19.5 365.5,-.5 318.5,-.5"/>
<text text-anchor="middle" x="342" y="-7.5" font-family="Helvetica,sans-Serif" font-size="10.00" fill="#000000">state.h</text>
</a>
</g>
</g>
<!-- Node0&#45;&gt;Node5 -->
<g id="edge5" class="edge">
<title>Node0&#45;&gt;Node5</title>
<path fill="none" stroke="#191970" d="M456.849,-168.2857C449.1557,-140.4801 432.5428,-90.5869 405,-56 395.0885,-43.5537 381.0058,-32.8431 368.6678,-24.8964"/>
<polygon fill="#191970" stroke="#191970" points="370.4285,-21.8703 360.0769,-19.6132 366.7616,-27.833 370.4285,-21.8703"/>
</g>
<!-- Node6 -->
<g id="node7" class="node">
<title>Node6</title>
<g id="a_node7"><a xlink:href="game_8h.html" target="_top" xlink:title="game.h">
<polygon fill="none" stroke="#000000" points="280.5,-112.5 280.5,-131.5 329.5,-131.5 329.5,-112.5 280.5,-112.5"/>
<text text-anchor="middle" x="305" y="-119.5" font-family="Helvetica,sans-Serif" font-size="10.00" fill="#000000">game.h</text>
</a>
</g>
</g>
<!-- Node0&#45;&gt;Node6 -->
<g id="edge6" class="edge">
<title>Node0&#45;&gt;Node6</title>
<path fill="none" stroke="#191970" d="M413.6138,-168.3511C388.6558,-157.7003 358.9111,-145.0066 336.8647,-135.5983"/>
<polygon fill="#191970" stroke="#191970" points="338.1948,-132.3606 327.6236,-131.6546 335.4473,-138.7989 338.1948,-132.3606"/>
</g>
<!-- Node2 -->
<g id="node3" class="node">
<title>Node2</title>
<polygon fill="none" stroke="#bfbfbf" points="398,-.5 398,-19.5 450,-19.5 450,-.5 398,-.5"/>
<text text-anchor="middle" x="424" y="-7.5" font-family="Helvetica,sans-Serif" font-size="10.00" fill="#000000">memory</text>
</g>
<!-- Node1&#45;&gt;Node2 -->
<g id="edge2" class="edge">
<title>Node1&#45;&gt;Node2</title>
<path fill="none" stroke="#191970" d="M539.2277,-112.3676C524.8333,-99.5021 498.5234,-76.0063 476,-56 464.8764,-46.1195 452.3902,-35.0725 442.4415,-26.2811"/>
<polygon fill="#191970" stroke="#191970" points="444.579,-23.4993 434.7671,-19.502 439.9447,-28.7456 444.579,-23.4993"/>
</g>
<!-- Node3 -->
<g id="node4" class="node">
<title>Node3</title>
<polygon fill="none" stroke="#bfbfbf" points="528,-56.5 528,-75.5 572,-75.5 572,-56.5 528,-56.5"/>
<text text-anchor="middle" x="550" y="-63.5" font-family="Helvetica,sans-Serif" font-size="10.00" fill="#000000">vector</text>
</g>
<!-- Node1&#45;&gt;Node3 -->
<g id="edge3" class="edge">
<title>Node1&#45;&gt;Node3</title>
<path fill="none" stroke="#191970" d="M550,-112.2455C550,-104.9382 550,-94.6944 550,-85.7046"/>
<polygon fill="#191970" stroke="#191970" points="553.5001,-85.6426 550,-75.6427 546.5001,-85.6427 553.5001,-85.6426"/>
</g>
<!-- Node4 -->
<g id="node5" class="node">
<title>Node4</title>
<polygon fill="none" stroke="#bfbfbf" points="590,-56.5 590,-75.5 646,-75.5 646,-56.5 590,-56.5"/>
<text text-anchor="middle" x="618" y="-63.5" font-family="Helvetica,sans-Serif" font-size="10.00" fill="#000000">tinyxml.h</text>
</g>
<!-- Node1&#45;&gt;Node4 -->
<g id="edge4" class="edge">
<title>Node1&#45;&gt;Node4</title>
<path fill="none" stroke="#191970" d="M561.8447,-112.2455C571.888,-103.9746 586.4995,-91.9416 598.3004,-82.2232"/>
<polygon fill="#191970" stroke="#191970" points="600.7967,-84.7015 606.291,-75.6427 596.3467,-79.298 600.7967,-84.7015"/>
</g>
<!-- Node6&#45;&gt;Node2 -->
<g id="edge7" class="edge">
<title>Node6&#45;&gt;Node2</title>
<path fill="none" stroke="#191970" d="M329.5246,-116.891C352.2632,-110.8994 385.4439,-98.7531 405,-76 416.0388,-63.1566 420.6772,-44.2488 422.6193,-29.9591"/>
<polygon fill="#191970" stroke="#191970" points="426.1335,-29.9976 423.6695,-19.6933 419.1699,-29.2851 426.1335,-29.9976"/>
</g>
<!-- Node7 -->
<g id="node8" class="node">
<title>Node7</title>
<polygon fill="none" stroke="#bfbfbf" points="0,-56.5 0,-75.5 54,-75.5 54,-56.5 0,-56.5"/>
<text text-anchor="middle" x="27" y="-63.5" font-family="Helvetica,sans-Serif" font-size="10.00" fill="#000000">iostream</text>
</g>
<!-- Node6&#45;&gt;Node7 -->
<g id="edge8" class="edge">
<title>Node6&#45;&gt;Node7</title>
<path fill="none" stroke="#191970" d="M280.4706,-118.0311C238.2319,-111.0485 148.8764,-95.629 63.8707,-76.0587"/>
<polygon fill="#191970" stroke="#191970" points="64.5978,-72.6344 54.0648,-73.7777 63.0118,-79.4524 64.5978,-72.6344"/>
</g>
<!-- Node8 -->
<g id="node9" class="node">
<title>Node8</title>
<g id="a_node9"><a xlink:href="Orthographic__camera_8h.html" target="_top" xlink:title="Orthographic_camera.h">
<polygon fill="none" stroke="#000000" points="72,-56.5 72,-75.5 190,-75.5 190,-56.5 72,-56.5"/>
<text text-anchor="middle" x="131" y="-63.5" font-family="Helvetica,sans-Serif" font-size="10.00" fill="#000000">Orthographic_camera.h</text>
</a>
</g>
</g>
<!-- Node6&#45;&gt;Node8 -->
<g id="edge9" class="edge">
<title>Node6&#45;&gt;Node8</title>
<path fill="none" stroke="#191970" d="M280.4391,-114.0953C251.7911,-104.8753 204.0523,-89.5111 170.2484,-78.6317"/>
<polygon fill="#191970" stroke="#191970" points="171.2684,-75.2832 160.6769,-75.5512 169.1238,-81.9466 171.2684,-75.2832"/>
</g>
<!-- Node11 -->
<g id="node12" class="node">
<title>Node11</title>
<g id="a_node12"><a xlink:href="state__machine_8h.html" target="_top" xlink:title="state_machine.h">
<polygon fill="none" stroke="#000000" points="208.5,-56.5 208.5,-75.5 297.5,-75.5 297.5,-56.5 208.5,-56.5"/>
<text text-anchor="middle" x="253" y="-63.5" font-family="Helvetica,sans-Serif" font-size="10.00" fill="#000000">state_machine.h</text>
</a>
</g>
</g>
<!-- Node6&#45;&gt;Node11 -->
<g id="edge12" class="edge">
<title>Node6&#45;&gt;Node11</title>
<path fill="none" stroke="#191970" d="M295.9423,-112.2455C288.4858,-104.2155 277.7366,-92.6394 268.8583,-83.0781"/>
<polygon fill="#191970" stroke="#191970" points="271.3232,-80.589 261.9539,-75.6427 266.1937,-85.3522 271.3232,-80.589"/>
</g>
<!-- Node13 -->
<g id="node14" class="node">
<title>Node13</title>
<polygon fill="none" stroke="#bfbfbf" points="316,-56.5 316,-75.5 396,-75.5 396,-56.5 316,-56.5"/>
<text text-anchor="middle" x="356" y="-63.5" font-family="Helvetica,sans-Serif" font-size="10.00" fill="#000000">GLFW/glfw3.h</text>
</g>
<!-- Node6&#45;&gt;Node13 -->
<g id="edge17" class="edge">
<title>Node6&#45;&gt;Node13</title>
<path fill="none" stroke="#191970" d="M313.8835,-112.2455C321.1966,-104.2155 331.7391,-92.6394 340.4467,-83.0781"/>
<polygon fill="#191970" stroke="#191970" points="343.0727,-85.3928 347.2183,-75.6427 337.8972,-80.6795 343.0727,-85.3928"/>
</g>
<!-- Node9 -->
<g id="node10" class="node">
<title>Node9</title>
<polygon fill="none" stroke="#bfbfbf" points="178.5,-.5 178.5,-19.5 221.5,-19.5 221.5,-.5 178.5,-.5"/>
<text text-anchor="middle" x="200" y="-7.5" font-family="Helvetica,sans-Serif" font-size="10.00" fill="#000000">cstdio</text>
</g>
<!-- Node8&#45;&gt;Node9 -->
<g id="edge10" class="edge">
<title>Node8&#45;&gt;Node9</title>
<path fill="none" stroke="#191970" d="M143.0189,-56.2455C153.2098,-47.9746 168.0362,-35.9416 180.0107,-26.2232"/>
<polygon fill="#191970" stroke="#191970" points="182.5598,-28.662 188.1188,-19.6427 178.1486,-23.2268 182.5598,-28.662"/>
</g>
<!-- Node10 -->
<g id="node11" class="node">
<title>Node10</title>
<polygon fill="none" stroke="#bfbfbf" points="90,-.5 90,-19.5 160,-19.5 160,-.5 90,-.5"/>
<text text-anchor="middle" x="125" y="-7.5" font-family="Helvetica,sans-Serif" font-size="10.00" fill="#000000">glm/glm.hpp</text>
</g>
<!-- Node8&#45;&gt;Node10 -->
<g id="edge11" class="edge">
<title>Node8&#45;&gt;Node10</title>
<path fill="none" stroke="#191970" d="M129.9549,-56.2455C129.172,-48.9382 128.0744,-38.6944 127.1112,-29.7046"/>
<polygon fill="#191970" stroke="#191970" points="130.5786,-29.2129 126.0331,-19.6427 123.6185,-29.9587 130.5786,-29.2129"/>
</g>
<!-- Node11&#45;&gt;Node2 -->
<g id="edge14" class="edge">
<title>Node11&#45;&gt;Node2</title>
<path fill="none" stroke="#191970" d="M282.3959,-56.3733C311.6923,-46.7791 356.7229,-32.0323 388.1124,-21.7527"/>
<polygon fill="#191970" stroke="#191970" points="389.3732,-25.0227 397.7873,-18.5843 387.1946,-18.3704 389.3732,-25.0227"/>
</g>
<!-- Node11&#45;&gt;Node5 -->
<g id="edge16" class="edge">
<title>Node11&#45;&gt;Node5</title>
<path fill="none" stroke="#191970" d="M268.5026,-56.2455C282.158,-47.6534 302.2657,-35.0014 317.9989,-25.1018"/>
<polygon fill="#191970" stroke="#191970" points="320.0751,-27.9307 326.675,-19.6427 316.3471,-22.006 320.0751,-27.9307"/>
</g>
<!-- Node11&#45;&gt;Node9 -->
<g id="edge13" class="edge">
<title>Node11&#45;&gt;Node9</title>
<path fill="none" stroke="#191970" d="M243.7681,-56.2455C236.1683,-48.2155 225.2123,-36.6394 216.1632,-27.0781"/>
<polygon fill="#191970" stroke="#191970" points="218.542,-24.4998 209.1261,-19.6427 213.4579,-29.3115 218.542,-24.4998"/>
</g>
<!-- Node12 -->
<g id="node13" class="node">
<title>Node12</title>
<polygon fill="none" stroke="#bfbfbf" points="239.5,-.5 239.5,-19.5 280.5,-19.5 280.5,-.5 239.5,-.5"/>
<text text-anchor="middle" x="260" y="-7.5" font-family="Helvetica,sans-Serif" font-size="10.00" fill="#000000">stack</text>
</g>
<!-- Node11&#45;&gt;Node12 -->
<g id="edge15" class="edge">
<title>Node11&#45;&gt;Node12</title>
<path fill="none" stroke="#191970" d="M254.2193,-56.2455C255.1327,-48.9382 256.4132,-38.6944 257.5369,-29.7046"/>
<polygon fill="#191970" stroke="#191970" points="261.0272,-29.9996 258.7947,-19.6427 254.0813,-29.1313 261.0272,-29.9996"/>
</g>
</g>
</svg>
        <g id="navigator" transform="translate(0 0)" fill="#404254">
                <rect fill="#f2f5e9" fill-opacity="0.5" stroke="#606060" stroke-width=".5" x="0" y="0" width="60" height="60"/>
                <use id="zoomplus" xlink:href="#zoomPlus" x="17" y="9" onmousedown="handleZoom(evt,'in')"/>
                <use id="zoomminus" xlink:href="#zoomMin" x="42" y="9" onmousedown="handleZoom(evt,'out')"/>
                <use id="reset" xlink:href="#resetDef" x="30" y="36" onmousedown="handleReset()"/>
                <g id="arrowUp" xlink:href="#dirArrow" transform="translate(30 24)" onmousedown="handlePan(0,-1)">
                  <use xlink:href="#rim" fill="#404040">
                        <set attributeName="fill" to="#808080" begin="arrowUp.mouseover" end="arrowUp.mouseout"/>
                  </use>
                  <path fill="none" stroke="white" stroke-width="1.5" d="M0,-3.0v7 M-2.5,-0.5L0,-3.0L2.5,-0.5"/>
                </g>
                <g id="arrowRight" xlink:href="#dirArrow" transform="rotate(90) translate(36 -43)" onmousedown="handlePan(1,0)">
                  <use xlink:href="#rim" fill="#404040">
                        <set attributeName="fill" to="#808080" begin="arrowRight.mouseover" end="arrowRight.mouseout"/>
                  </use>
                  <path fill="none" stroke="white" stroke-width="1.5" d="M0,-3.0v7 M-2.5,-0.5L0,-3.0L2.5,-0.5"/>
                </g>
                <g id="arrowDown" xlink:href="#dirArrow" transform="rotate(180) translate(-30 -48)" onmousedown="handlePan(0,1)">
                  <use xlink:href="#rim" fill="#404040">
                        <set attributeName="fill" to="#808080" begin="arrowDown.mouseover" end="arrowDown.mouseout"/>
                  </use>
                  <path fill="none" stroke="white" stroke-width="1.5" d="M0,-3.0v7 M-2.5,-0.5L0,-3.0L2.5,-0.5"/>
                </g>
                <g id="arrowLeft" xlink:href="#dirArrow" transform="rotate(270) translate(-36 17)" onmousedown="handlePan(-1,0)">
                  <use xlink:href="#rim" fill="#404040">
                        <set attributeName="fill" to="#808080" begin="arrowLeft.mouseover" end="arrowLeft.mouseout"/>
                  </use>
                  <path fill="none" stroke="white" stroke-width="1.5" d="M0,-3.0v7 M-2.5,-0.5L0,-3.0L2.5,-0.5"/>
                </g>
        </g>
        <svg viewBox="0 0 15 15" width="100%" height="30px" preserveAspectRatio="xMaxYMin meet">
         <g id="arrow_out" transform="scale(0.3 0.3)">
          <a xlink:href="main__menu__state_8h__incl_org.svg" target="_base">
           <rect id="button" ry="5" rx="5" y="6" x="6" height="38" width="38"
                fill="#f2f5e9" fill-opacity="0.5" stroke="#606060" stroke-width="1.0"/>
           <path id="arrow"
             d="M 11.500037,31.436501 C 11.940474,20.09759 22.043105,11.32322 32.158766,21.979434 L 37.068811,17.246167 C 37.068811,17.246167 37.088388,32 37.088388,32 L 22.160133,31.978069 C 22.160133,31.978069 26.997745,27.140456 26.997745,27.140456 C 18.528582,18.264221 13.291696,25.230495 11.500037,31.436501 z"
             style="fill:#404040;"/>
          </a>
         </g>
        </svg>
</svg>
