<?xml version="1.0" encoding="UTF-8" standalone="no"?>
<!DOCTYPE svg PUBLIC "-//W3C//DTD SVG 1.1//EN"
 "http://www.w3.org/Graphics/SVG/1.1/DTD/svg11.dtd">
<!-- Generated by graphviz version 2.40.1 (20161225.0304)
 -->
<!-- Title: /mnt/hdd/C0de/smart_engine/src/main_menu_state.cpp Pages: 1 -->
<svg width="1779pt" height="352pt"
 viewBox="0.00 0.00 1778.96 352.00" xmlns="http://www.w3.org/2000/svg" xmlns:xlink="http://www.w3.org/1999/xlink">
<g id="graph0" class="graph" transform="scale(1 1) rotate(0) translate(4 348)">
<title>/mnt/hdd/C0de/smart_engine/src/main_menu_state.cpp</title>
<!-- Node0 -->
<g id="node1" class="node">
<title>Node0</title>
<polygon fill="#bfbfbf" stroke="#000000" points="1130.5,-302.5 1130.5,-343.5 1250.5,-343.5 1250.5,-302.5 1130.5,-302.5"/>
<text text-anchor="start" x="1138.5" y="-331.5" font-family="Helvetica,sans-Serif" font-size="10.00" fill="#000000">/mnt/hdd/C0de/smart</text>
<text text-anchor="start" x="1138.5" y="-320.5" font-family="Helvetica,sans-Serif" font-size="10.00" fill="#000000">_engine/src/main_menu</text>
<text text-anchor="middle" x="1190.5" y="-309.5" font-family="Helvetica,sans-Serif" font-size="10.00" fill="#000000">_state.cpp</text>
</g>
<!-- Node1 -->
<g id="node2" class="node">
<title>Node1</title>
<g id="a_node2"><a xlink:href="sprite__renderer_8h.html" target="_top" xlink:title="../include/sprite_renderer.h">
<polygon fill="none" stroke="#000000" points="241.5,-123.5 241.5,-142.5 373.5,-142.5 373.5,-123.5 241.5,-123.5"/>
<text text-anchor="middle" x="307.5" y="-130.5" font-family="Helvetica,sans-Serif" font-size="10.00" fill="#000000">../include/sprite_renderer.h</text>
</a>
</g>
</g>
<!-- Node0&#45;&gt;Node1 -->
<g id="edge1" class="edge">
<title>Node0&#45;&gt;Node1</title>
<path fill="none" stroke="#191970" d="M1130.4603,-314.7716C1060.525,-304.8291 941.6539,-286.8198 840.5,-266 657.2714,-228.2873 441.9184,-170.2863 351.2348,-145.2265"/>
<polygon fill="#191970" stroke="#191970" points="352.1416,-141.8459 341.5702,-142.5499 350.2732,-148.592 352.1416,-141.8459"/>
</g>
<!-- Node16 -->
<g id="node17" class="node">
<title>Node16</title>
<g id="a_node17"><a xlink:href="text__renderer_8h.html" target="_top" xlink:title="../include/text_renderer.h">
<polygon fill="none" stroke="#000000" points="554,-123.5 554,-142.5 679,-142.5 679,-123.5 554,-123.5"/>
<text text-anchor="middle" x="616.5" y="-130.5" font-family="Helvetica,sans-Serif" font-size="10.00" fill="#000000">../include/text_renderer.h</text>
</a>
</g>
</g>
<!-- Node0&#45;&gt;Node16 -->
<g id="edge20" class="edge">
<title>Node0&#45;&gt;Node16</title>
<path fill="none" stroke="#191970" d="M1130.1808,-311.4063C1042.5965,-293.4441 876.09,-255.0197 742.5,-199 706.354,-183.8425 666.5937,-162.1094 641.596,-147.7813"/>
<polygon fill="#191970" stroke="#191970" points="643.1855,-144.6574 632.7765,-142.6816 639.6815,-150.7173 643.1855,-144.6574"/>
</g>
<!-- Node19 -->
<g id="node20" class="node">
<title>Node19</title>
<g id="a_node20"><a xlink:href="entity__manager_8h.html" target="_top" xlink:title="../include/entity_manager.h">
<polygon fill="none" stroke="#000000" points="959.5,-241 959.5,-260 1093.5,-260 1093.5,-241 959.5,-241"/>
<text text-anchor="middle" x="1026.5" y="-248" font-family="Helvetica,sans-Serif" font-size="10.00" fill="#000000">../include/entity_manager.h</text>
</a>
</g>
</g>
<!-- Node0&#45;&gt;Node19 -->
<g id="edge28" class="edge">
<title>Node0&#45;&gt;Node19</title>
<path fill="none" stroke="#191970" d="M1143.9429,-302.4183C1116.3102,-290.2027 1082.0282,-275.0475 1057.6512,-264.2711"/>
<polygon fill="#191970" stroke="#191970" points="1058.744,-260.9275 1048.1827,-260.0853 1055.9137,-267.3298 1058.744,-260.9275"/>
</g>
<!-- Node28 -->
<g id="node29" class="node">
<title>Node28</title>
<g id="a_node29"><a xlink:href="LoadingGameObjects_8h.html" target="_top" xlink:title="../include/LoadingGameObjects.h">
<polygon fill="none" stroke="#000000" points="1238,-123.5 1238,-142.5 1399,-142.5 1399,-123.5 1238,-123.5"/>
<text text-anchor="middle" x="1318.5" y="-130.5" font-family="Helvetica,sans-Serif" font-size="10.00" fill="#000000">../include/LoadingGameObjects.h</text>
</a>
</g>
</g>
<!-- Node0&#45;&gt;Node28 -->
<g id="edge51" class="edge">
<title>Node0&#45;&gt;Node28</title>
<path fill="none" stroke="#191970" d="M1204.4419,-302.305C1229.6611,-264.8702 1282.4508,-186.5105 1306.3192,-151.0809"/>
<polygon fill="#191970" stroke="#191970" points="1309.3003,-152.9201 1311.9848,-142.671 1303.4948,-149.009 1309.3003,-152.9201"/>
</g>
<!-- Node30 -->
<g id="node31" class="node">
<title>Node30</title>
<g id="a_node31"><a xlink:href="main__menu__state_8h.html" target="_top" xlink:title="../include/main_menu\l_state.h">
<polygon fill="none" stroke="#000000" points="1345.5,-235.5 1345.5,-265.5 1455.5,-265.5 1455.5,-235.5 1345.5,-235.5"/>
<text text-anchor="start" x="1353.5" y="-253.5" font-family="Helvetica,sans-Serif" font-size="10.00" fill="#000000">../include/main_menu</text>
<text text-anchor="middle" x="1400.5" y="-242.5" font-family="Helvetica,sans-Serif" font-size="10.00" fill="#000000">_state.h</text>
</a>
</g>
</g>
<!-- Node0&#45;&gt;Node30 -->
<g id="edge55" class="edge">
<title>Node0&#45;&gt;Node30</title>
<path fill="none" stroke="#191970" d="M1250.1159,-302.4183C1280.6204,-291.887 1317.4531,-279.171 1347.0315,-268.9594"/>
<polygon fill="#191970" stroke="#191970" points="1348.4543,-272.1709 1356.7647,-265.5991 1346.1699,-265.5542 1348.4543,-272.1709"/>
</g>
<!-- Node34 -->
<g id="node35" class="node">
<title>Node34</title>
<polygon fill="none" stroke="#bfbfbf" points="1692,-62 1692,-81 1735,-81 1735,-62 1692,-62"/>
<text text-anchor="middle" x="1713.5" y="-69" font-family="Helvetica,sans-Serif" font-size="10.00" fill="#000000">cstdio</text>
</g>
<!-- Node0&#45;&gt;Node34 -->
<g id="edge70" class="edge">
<title>Node0&#45;&gt;Node34</title>
<path fill="none" stroke="#191970" d="M1250.7004,-313.7438C1386.166,-291.5082 1707.7431,-230.3741 1766.5,-143 1779.8696,-123.1188 1757.6006,-101.0911 1737.9597,-86.8106"/>
<polygon fill="#191970" stroke="#191970" points="1739.7584,-83.7996 1729.5369,-81.0118 1735.7889,-89.5654 1739.7584,-83.7996"/>
</g>
<!-- Node2 -->
<g id="node3" class="node">
<title>Node2</title>
<polygon fill="none" stroke="#bfbfbf" points="168.5,-62 168.5,-81 212.5,-81 212.5,-62 168.5,-62"/>
<text text-anchor="middle" x="190.5" y="-69" font-family="Helvetica,sans-Serif" font-size="10.00" fill="#000000">cmath</text>
</g>
<!-- Node1&#45;&gt;Node2 -->
<g id="edge2" class="edge">
<title>Node1&#45;&gt;Node2</title>
<path fill="none" stroke="#191970" d="M289.2188,-123.3906C269.9859,-113.2811 239.5121,-97.2628 217.5075,-85.6962"/>
<polygon fill="#191970" stroke="#191970" points="219.133,-82.5967 208.6529,-81.0419 215.876,-88.7928 219.133,-82.5967"/>
</g>
<!-- Node3 -->
<g id="node4" class="node">
<title>Node3</title>
<polygon fill="none" stroke="#bfbfbf" points="442.5,-.5 442.5,-19.5 506.5,-19.5 506.5,-.5 442.5,-.5"/>
<text text-anchor="middle" x="474.5" y="-7.5" font-family="Helvetica,sans-Serif" font-size="10.00" fill="#000000">glad/glad.h</text>
</g>
<!-- Node1&#45;&gt;Node3 -->
<g id="edge3" class="edge">
<title>Node1&#45;&gt;Node3</title>
<path fill="none" stroke="#191970" d="M308.3472,-123.2729C310.2736,-107.0762 316.4187,-74.5324 335.5,-56 342.7185,-48.9891 394.1895,-33.0515 432.406,-21.9128"/>
<polygon fill="#191970" stroke="#191970" points="433.66,-25.1936 442.2928,-19.0515 431.7139,-18.4696 433.66,-25.1936"/>
</g>
<!-- Node4 -->
<g id="node5" class="node">
<title>Node4</title>
<polygon fill="none" stroke="#bfbfbf" points="803.5,-62 803.5,-81 883.5,-81 883.5,-62 803.5,-62"/>
<text text-anchor="middle" x="843.5" y="-69" font-family="Helvetica,sans-Serif" font-size="10.00" fill="#000000">GLFW/glfw3.h</text>
</g>
<!-- Node1&#45;&gt;Node4 -->
<g id="edge4" class="edge">
<title>Node1&#45;&gt;Node4</title>
<path fill="none" stroke="#191970" d="M373.737,-124.0347C376.6974,-123.6762 379.6289,-123.3295 382.5,-123 548.4017,-103.9618 591.0545,-109.6633 756.5,-87 768.4938,-85.357 781.3593,-83.2543 793.4197,-81.1314"/>
<polygon fill="#191970" stroke="#191970" points="794.1003,-84.5652 803.3243,-79.353 792.8631,-77.6754 794.1003,-84.5652"/>
</g>
<!-- Node5 -->
<g id="node6" class="node">
<title>Node5</title>
<polygon fill="none" stroke="#bfbfbf" points="693.5,-62 693.5,-81 747.5,-81 747.5,-62 693.5,-62"/>
<text text-anchor="middle" x="720.5" y="-69" font-family="Helvetica,sans-Serif" font-size="10.00" fill="#000000">iostream</text>
</g>
<!-- Node1&#45;&gt;Node5 -->
<g id="edge5" class="edge">
<title>Node1&#45;&gt;Node5</title>
<path fill="none" stroke="#191970" d="M371.5781,-123.4581C458.8586,-110.4611 612.3232,-87.6086 682.9703,-77.0886"/>
<polygon fill="#191970" stroke="#191970" points="683.7999,-80.5037 693.1753,-75.5689 682.7688,-73.58 683.7999,-80.5037"/>
</g>
<!-- Node6 -->
<g id="node7" class="node">
<title>Node6</title>
<polygon fill="none" stroke="#bfbfbf" points="258,-.5 258,-19.5 299,-19.5 299,-.5 258,-.5"/>
<text text-anchor="middle" x="278.5" y="-7.5" font-family="Helvetica,sans-Serif" font-size="10.00" fill="#000000">string</text>
</g>
<!-- Node1&#45;&gt;Node6 -->
<g id="edge6" class="edge">
<title>Node1&#45;&gt;Node6</title>
<path fill="none" stroke="#191970" d="M294.169,-123.3825C283.8827,-115.0729 270.4389,-102.0499 264.5,-87 257.054,-68.1307 263.0544,-45.0816 269.3501,-29.1456"/>
<polygon fill="#191970" stroke="#191970" points="272.6282,-30.3833 273.3915,-19.816 266.2049,-27.6008 272.6282,-30.3833"/>
</g>
<!-- Node7 -->
<g id="node8" class="node">
<title>Node7</title>
<polygon fill="none" stroke="#bfbfbf" points="0,-62 0,-81 83,-81 83,-62 0,-62"/>
<text text-anchor="middle" x="41.5" y="-69" font-family="Helvetica,sans-Serif" font-size="10.00" fill="#000000">unordered_map</text>
</g>
<!-- Node1&#45;&gt;Node7 -->
<g id="edge7" class="edge">
<title>Node1&#45;&gt;Node7</title>
<path fill="none" stroke="#191970" d="M256.1308,-123.4241C212.1724,-114.9051 147.334,-101.5675 91.5,-87 87.9028,-86.0615 84.1786,-85.0271 80.4597,-83.9515"/>
<polygon fill="#191970" stroke="#191970" points="81.3026,-80.5506 70.7193,-81.0456 79.3013,-87.2585 81.3026,-80.5506"/>
</g>
<!-- Node8 -->
<g id="node9" class="node">
<title>Node8</title>
<polygon fill="none" stroke="#bfbfbf" points="1458.5,-62 1458.5,-81 1510.5,-81 1510.5,-62 1458.5,-62"/>
<text text-anchor="middle" x="1484.5" y="-69" font-family="Helvetica,sans-Serif" font-size="10.00" fill="#000000">memory</text>
</g>
<!-- Node1&#45;&gt;Node8 -->
<g id="edge8" class="edge">
<title>Node1&#45;&gt;Node8</title>
<path fill="none" stroke="#191970" d="M373.7148,-123.8104C376.6812,-123.5126 379.62,-123.24 382.5,-123 618.9266,-103.2983 1218.2505,-140.0033 1449.5,-87 1451.9939,-86.4284 1454.5293,-85.6781 1457.0372,-84.8159"/>
<polygon fill="#191970" stroke="#191970" points="1458.4328,-88.0276 1466.4286,-81.0765 1455.8433,-81.5241 1458.4328,-88.0276"/>
</g>
<!-- Node9 -->
<g id="node10" class="node">
<title>Node9</title>
<g id="a_node10"><a xlink:href="texture_8h.html" target="_top" xlink:title="texture.h">
<polygon fill="none" stroke="#000000" points="417,-62 417,-81 472,-81 472,-62 417,-62"/>
<text text-anchor="middle" x="444.5" y="-69" font-family="Helvetica,sans-Serif" font-size="10.00" fill="#000000">texture.h</text>
</a>
</g>
</g>
<!-- Node1&#45;&gt;Node9 -->
<g id="edge9" class="edge">
<title>Node1&#45;&gt;Node9</title>
<path fill="none" stroke="#191970" d="M328.9063,-123.3906C351.7283,-113.1457 388.0679,-96.8326 413.9057,-85.2339"/>
<polygon fill="#191970" stroke="#191970" points="415.5545,-88.3303 423.2441,-81.0419 412.6877,-81.9443 415.5545,-88.3303"/>
</g>
<!-- Node10 -->
<g id="node11" class="node">
<title>Node10</title>
<g id="a_node11"><a xlink:href="shader_8h.html" target="_top" xlink:title="shader.h">
<polygon fill="none" stroke="#000000" points="344.5,-62 344.5,-81 398.5,-81 398.5,-62 344.5,-62"/>
<text text-anchor="middle" x="371.5" y="-69" font-family="Helvetica,sans-Serif" font-size="10.00" fill="#000000">shader.h</text>
</a>
</g>
</g>
<!-- Node1&#45;&gt;Node10 -->
<g id="edge11" class="edge">
<title>Node1&#45;&gt;Node10</title>
<path fill="none" stroke="#191970" d="M317.5,-123.3906C327.2119,-114.0581 342.1639,-99.6902 353.8741,-88.4374"/>
<polygon fill="#191970" stroke="#191970" points="356.5736,-90.6974 361.359,-81.2449 351.7234,-85.65 356.5736,-90.6974"/>
</g>
<!-- Node13 -->
<g id="node14" class="node">
<title>Node13</title>
<g id="a_node14"><a xlink:href="sprite_8h.html" target="_top" xlink:title="sprite.h">
<polygon fill="none" stroke="#000000" points="101,-62 101,-81 150,-81 150,-62 101,-62"/>
<text text-anchor="middle" x="125.5" y="-69" font-family="Helvetica,sans-Serif" font-size="10.00" fill="#000000">sprite.h</text>
</a>
</g>
</g>
<!-- Node1&#45;&gt;Node13 -->
<g id="edge16" class="edge">
<title>Node1&#45;&gt;Node13</title>
<path fill="none" stroke="#191970" d="M272.3883,-123.443C242.1303,-114.8865 197.4596,-101.4852 159.5,-87 157.9166,-86.3958 156.3023,-85.7535 154.6798,-85.0871"/>
<polygon fill="#191970" stroke="#191970" points="156.0259,-81.856 145.4576,-81.1058 153.2514,-88.2827 156.0259,-81.856"/>
</g>
<!-- Node9&#45;&gt;Node3 -->
<g id="edge10" class="edge">
<title>Node9&#45;&gt;Node3</title>
<path fill="none" stroke="#191970" d="M449.1875,-61.8906C453.4773,-53.0965 459.9482,-39.8312 465.2734,-28.9145"/>
<polygon fill="#191970" stroke="#191970" points="468.5078,-30.2671 469.7464,-19.7449 462.2164,-27.1981 468.5078,-30.2671"/>
</g>
<!-- Node10&#45;&gt;Node3 -->
<g id="edge13" class="edge">
<title>Node10&#45;&gt;Node3</title>
<path fill="none" stroke="#191970" d="M387.5938,-61.8906C404.2228,-51.9616 430.3976,-36.333 449.6794,-24.8201"/>
<polygon fill="#191970" stroke="#191970" points="451.7276,-27.6736 458.5193,-19.5419 448.139,-21.6634 451.7276,-27.6736"/>
</g>
<!-- Node10&#45;&gt;Node6 -->
<g id="edge12" class="edge">
<title>Node10&#45;&gt;Node6</title>
<path fill="none" stroke="#191970" d="M356.9688,-61.8906C342.0906,-52.0519 318.7496,-36.6167 301.3872,-25.1351"/>
<polygon fill="#191970" stroke="#191970" points="303.201,-22.1385 292.9292,-19.5419 299.3398,-27.9773 303.201,-22.1385"/>
</g>
<!-- Node11 -->
<g id="node12" class="node">
<title>Node11</title>
<polygon fill="none" stroke="#bfbfbf" points="685.5,-.5 685.5,-19.5 755.5,-19.5 755.5,-.5 685.5,-.5"/>
<text text-anchor="middle" x="720.5" y="-7.5" font-family="Helvetica,sans-Serif" font-size="10.00" fill="#000000">glm/glm.hpp</text>
</g>
<!-- Node10&#45;&gt;Node11 -->
<g id="edge14" class="edge">
<title>Node10&#45;&gt;Node11</title>
<path fill="none" stroke="#191970" d="M391.3453,-61.8613C396.5089,-59.6591 402.1317,-57.5219 407.5,-56 500.4105,-29.6607 613.3464,-17.8028 674.9707,-12.959"/>
<polygon fill="#191970" stroke="#191970" points="675.4304,-16.4342 685.1368,-12.1873 674.9006,-9.4543 675.4304,-16.4342"/>
</g>
<!-- Node12 -->
<g id="node13" class="node">
<title>Node12</title>
<polygon fill="none" stroke="#bfbfbf" points="318.5,-.5 318.5,-19.5 424.5,-19.5 424.5,-.5 318.5,-.5"/>
<text text-anchor="middle" x="371.5" y="-7.5" font-family="Helvetica,sans-Serif" font-size="10.00" fill="#000000">glm/gtc/type_ptr.hpp</text>
</g>
<!-- Node10&#45;&gt;Node12 -->
<g id="edge15" class="edge">
<title>Node10&#45;&gt;Node12</title>
<path fill="none" stroke="#191970" d="M371.5,-61.8906C371.5,-53.3657 371.5,-40.6392 371.5,-29.9235"/>
<polygon fill="#191970" stroke="#191970" points="375.0001,-29.7448 371.5,-19.7449 368.0001,-29.7449 375.0001,-29.7448"/>
</g>
<!-- Node13&#45;&gt;Node11 -->
<g id="edge19" class="edge">
<title>Node13&#45;&gt;Node11</title>
<path fill="none" stroke="#191970" d="M143.4245,-61.9326C148.4925,-59.6167 154.1011,-57.4061 159.5,-56 208.8335,-43.1519 550.4735,-20.6864 675.1186,-12.8183"/>
<polygon fill="#191970" stroke="#191970" points="675.6912,-16.2893 685.4516,-12.1682 675.2515,-9.3032 675.6912,-16.2893"/>
</g>
<!-- Node14 -->
<g id="node15" class="node">
<title>Node14</title>
<polygon fill="none" stroke="#bfbfbf" points="140.5,-.5 140.5,-19.5 186.5,-19.5 186.5,-.5 140.5,-.5"/>
<text text-anchor="middle" x="163.5" y="-7.5" font-family="Helvetica,sans-Serif" font-size="10.00" fill="#000000">stdio.h</text>
</g>
<!-- Node13&#45;&gt;Node14 -->
<g id="edge17" class="edge">
<title>Node13&#45;&gt;Node14</title>
<path fill="none" stroke="#191970" d="M131.4375,-61.8906C136.9267,-53.0068 145.2353,-39.5601 152.019,-28.5811"/>
<polygon fill="#191970" stroke="#191970" points="155.1998,-30.0917 157.4788,-19.7449 149.2449,-26.4122 155.1998,-30.0917"/>
</g>
<!-- Node15 -->
<g id="node16" class="node">
<title>Node15</title>
<polygon fill="none" stroke="#bfbfbf" points="52.5,-.5 52.5,-19.5 122.5,-19.5 122.5,-.5 52.5,-.5"/>
<text text-anchor="middle" x="87.5" y="-7.5" font-family="Helvetica,sans-Serif" font-size="10.00" fill="#000000">glm/fwd.hpp</text>
</g>
<!-- Node13&#45;&gt;Node15 -->
<g id="edge18" class="edge">
<title>Node13&#45;&gt;Node15</title>
<path fill="none" stroke="#191970" d="M119.5625,-61.8906C114.0733,-53.0068 105.7647,-39.5601 98.981,-28.5811"/>
<polygon fill="#191970" stroke="#191970" points="101.7551,-26.4122 93.5212,-19.7449 95.8002,-30.0917 101.7551,-26.4122"/>
</g>
<!-- Node16&#45;&gt;Node3 -->
<g id="edge22" class="edge">
<title>Node16&#45;&gt;Node3</title>
<path fill="none" stroke="#191970" d="M618.5227,-123.2657C621.2322,-107.3479 624.0593,-75.566 608.5,-56 596.7957,-41.2817 551.2679,-27.7348 516.497,-19.2109"/>
<polygon fill="#191970" stroke="#191970" points="517.0969,-15.7558 506.5574,-16.8371 515.4709,-22.5643 517.0969,-15.7558"/>
</g>
<!-- Node16&#45;&gt;Node5 -->
<g id="edge24" class="edge">
<title>Node16&#45;&gt;Node5</title>
<path fill="none" stroke="#191970" d="M632.75,-123.3906C649.6169,-113.4165 676.2099,-97.6908 695.7035,-86.1633"/>
<polygon fill="#191970" stroke="#191970" points="697.538,-89.1447 704.3641,-81.0419 693.9749,-83.1194 697.538,-89.1447"/>
</g>
<!-- Node16&#45;&gt;Node9 -->
<g id="edge26" class="edge">
<title>Node16&#45;&gt;Node9</title>
<path fill="none" stroke="#191970" d="M586.0016,-123.4601C558.2733,-114.6035 516.3374,-100.7502 480.5,-87 478.8839,-86.3799 477.2336,-85.7301 475.5717,-85.0624"/>
<polygon fill="#191970" stroke="#191970" points="476.6642,-81.7265 466.0863,-81.1282 473.9824,-88.1924 476.6642,-81.7265"/>
</g>
<!-- Node16&#45;&gt;Node10 -->
<g id="edge27" class="edge">
<title>Node16&#45;&gt;Node10</title>
<path fill="none" stroke="#191970" d="M559.3982,-123.4633C516.9434,-115.646 457.8937,-103.2317 407.5,-87 405.395,-86.322 403.2442,-85.5663 401.0933,-84.7636"/>
<polygon fill="#191970" stroke="#191970" points="402.3873,-81.5116 391.803,-81.0385 399.7821,-88.0088 402.3873,-81.5116"/>
</g>
<!-- Node16&#45;&gt;Node11 -->
<g id="edge23" class="edge">
<title>Node16&#45;&gt;Node11</title>
<path fill="none" stroke="#191970" d="M624.6607,-123.3484C642.2034,-102.6008 683.7096,-53.5117 705.9045,-27.262"/>
<polygon fill="#191970" stroke="#191970" points="708.5932,-29.5028 712.3772,-19.6068 703.2478,-24.9832 708.5932,-29.5028"/>
</g>
<!-- Node17 -->
<g id="node18" class="node">
<title>Node17</title>
<polygon fill="none" stroke="#bfbfbf" points="490,-62 490,-81 525,-81 525,-62 490,-62"/>
<text text-anchor="middle" x="507.5" y="-69" font-family="Helvetica,sans-Serif" font-size="10.00" fill="#000000">map</text>
</g>
<!-- Node16&#45;&gt;Node17 -->
<g id="edge21" class="edge">
<title>Node16&#45;&gt;Node17</title>
<path fill="none" stroke="#191970" d="M599.1949,-123.3576C582.58,-114.0843 556.7883,-99.6488 534.5,-87 533.9712,-86.6999 533.4367,-86.3962 532.898,-86.0899"/>
<polygon fill="#191970" stroke="#191970" points="534.4679,-82.9559 524.0487,-81.0346 530.9957,-89.034 534.4679,-82.9559"/>
</g>
<!-- Node18 -->
<g id="node19" class="node">
<title>Node18</title>
<polygon fill="none" stroke="#bfbfbf" points="543.5,-62 543.5,-81 599.5,-81 599.5,-62 543.5,-62"/>
<text text-anchor="middle" x="571.5" y="-69" font-family="Helvetica,sans-Serif" font-size="10.00" fill="#000000">ft2build.h</text>
</g>
<!-- Node16&#45;&gt;Node18 -->
<g id="edge25" class="edge">
<title>Node16&#45;&gt;Node18</title>
<path fill="none" stroke="#191970" d="M609.4688,-123.3906C602.837,-114.3273 592.7304,-100.5149 584.6113,-89.4188"/>
<polygon fill="#191970" stroke="#191970" points="587.3601,-87.2484 578.6304,-81.2449 581.7109,-91.382 587.3601,-87.2484"/>
</g>
<!-- Node19&#45;&gt;Node7 -->
<g id="edge40" class="edge">
<title>Node19&#45;&gt;Node7</title>
<path fill="none" stroke="#191970" d="M959.4076,-246.4933C821.4568,-237.1502 496.7432,-209.4556 232.5,-143 173.871,-128.2552 108.4846,-101.3729 71.435,-85.1027"/>
<polygon fill="#191970" stroke="#191970" points="72.7669,-81.8646 62.2064,-81.0113 69.9298,-88.264 72.7669,-81.8646"/>
</g>
<!-- Node20 -->
<g id="node21" class="node">
<title>Node20</title>
<g id="a_node21"><a xlink:href="entity_8h.html" target="_top" xlink:title="entity.h">
<polygon fill="none" stroke="#000000" points="751,-179.5 751,-198.5 800,-198.5 800,-179.5 751,-179.5"/>
<text text-anchor="middle" x="775.5" y="-186.5" font-family="Helvetica,sans-Serif" font-size="10.00" fill="#000000">entity.h</text>
</a>
</g>
</g>
<!-- Node19&#45;&gt;Node20 -->
<g id="edge29" class="edge">
<title>Node19&#45;&gt;Node20</title>
<path fill="none" stroke="#191970" d="M987.5566,-240.9581C938.9106,-229.0389 856.4355,-208.8308 809.9761,-197.4473"/>
<polygon fill="#191970" stroke="#191970" points="810.6288,-194.0038 800.0831,-195.0234 808.9629,-200.8027 810.6288,-194.0038"/>
</g>
<!-- Node23 -->
<g id="node24" class="node">
<title>Node23</title>
<polygon fill="none" stroke="#bfbfbf" points="1322.5,-62 1322.5,-81 1366.5,-81 1366.5,-62 1322.5,-62"/>
<text text-anchor="middle" x="1344.5" y="-69" font-family="Helvetica,sans-Serif" font-size="10.00" fill="#000000">vector</text>
</g>
<!-- Node19&#45;&gt;Node23 -->
<g id="edge41" class="edge">
<title>Node19&#45;&gt;Node23</title>
<path fill="none" stroke="#191970" d="M1040.3684,-240.8344C1072.6575,-218.5456 1155.7277,-162.4372 1229.5,-123 1257.0155,-108.2907 1289.5668,-93.9862 1313.0021,-84.201"/>
<polygon fill="#191970" stroke="#191970" points="1314.5426,-87.3515 1322.4464,-80.2961 1311.8678,-80.8827 1314.5426,-87.3515"/>
</g>
<!-- Node24 -->
<g id="node25" class="node">
<title>Node24</title>
<g id="a_node25"><a xlink:href="Lines_8cpp.html" target="_top" xlink:title="../src/Lines.cpp">
<polygon fill="none" stroke="#000000" points="984.5,-123.5 984.5,-142.5 1068.5,-142.5 1068.5,-123.5 984.5,-123.5"/>
<text text-anchor="middle" x="1026.5" y="-130.5" font-family="Helvetica,sans-Serif" font-size="10.00" fill="#000000">../src/Lines.cpp</text>
</a>
</g>
</g>
<!-- Node19&#45;&gt;Node24 -->
<g id="edge42" class="edge">
<title>Node19&#45;&gt;Node24</title>
<path fill="none" stroke="#191970" d="M1026.5,-240.8845C1026.5,-221.6913 1026.5,-178.286 1026.5,-152.7663"/>
<polygon fill="#191970" stroke="#191970" points="1030.0001,-152.7483 1026.5,-142.7484 1023.0001,-152.7484 1030.0001,-152.7483"/>
</g>
<!-- Node20&#45;&gt;Node5 -->
<g id="edge32" class="edge">
<title>Node20&#45;&gt;Node5</title>
<path fill="none" stroke="#191970" d="M760.2411,-179.3147C748.8099,-171.1421 733.9151,-158.337 726.5,-143 718.7226,-126.9137 717.777,-106.4071 718.449,-91.4838"/>
<polygon fill="#191970" stroke="#191970" points="721.9531,-91.5545 719.1919,-81.3259 714.9717,-91.0439 721.9531,-91.5545"/>
</g>
<!-- Node20&#45;&gt;Node8 -->
<g id="edge33" class="edge">
<title>Node20&#45;&gt;Node8</title>
<path fill="none" stroke="#191970" d="M800.0509,-188.1862C909.7349,-184.4203 1352.0019,-167.8062 1408.5,-143 1435.0553,-131.3406 1458.1193,-106.3015 1471.6734,-89.177"/>
<polygon fill="#191970" stroke="#191970" points="1474.5846,-91.1312 1477.8626,-81.0562 1469.0172,-86.8881 1474.5846,-91.1312"/>
</g>
<!-- Node20&#45;&gt;Node9 -->
<g id="edge30" class="edge">
<title>Node20&#45;&gt;Node9</title>
<path fill="none" stroke="#191970" d="M750.8877,-187.5074C707.5317,-184.1477 615.4215,-173.7103 544.5,-143 512.7677,-129.2593 481.1456,-104.2711 462.2052,-87.7767"/>
<polygon fill="#191970" stroke="#191970" points="464.469,-85.1061 454.6706,-81.076 459.8172,-90.3368 464.469,-85.1061"/>
</g>
<!-- Node20&#45;&gt;Node11 -->
<g id="edge39" class="edge">
<title>Node20&#45;&gt;Node11</title>
<path fill="none" stroke="#191970" d="M791.118,-179.4791C802.7472,-171.3972 817.7332,-158.6339 824.5,-143 828.0308,-134.8425 827.7307,-131.281 824.5,-123 822.1872,-117.0717 765.47,-57.1257 736.7901,-27.038"/>
<polygon fill="#191970" stroke="#191970" points="739.268,-24.5649 729.8319,-19.7471 734.204,-29.3978 739.268,-24.5649"/>
</g>
<!-- Node21 -->
<g id="node22" class="node">
<title>Node21</title>
<polygon fill="none" stroke="#bfbfbf" points="735.5,-123.5 735.5,-142.5 815.5,-142.5 815.5,-123.5 735.5,-123.5"/>
<text text-anchor="middle" x="775.5" y="-130.5" font-family="Helvetica,sans-Serif" font-size="10.00" fill="#000000">box2d/box2d.h</text>
</g>
<!-- Node20&#45;&gt;Node21 -->
<g id="edge31" class="edge">
<title>Node20&#45;&gt;Node21</title>
<path fill="none" stroke="#191970" d="M775.5,-179.2455C775.5,-171.9382 775.5,-161.6944 775.5,-152.7046"/>
<polygon fill="#191970" stroke="#191970" points="779.0001,-152.6426 775.5,-142.6427 772.0001,-152.6427 779.0001,-152.6426"/>
</g>
<!-- Node22 -->
<g id="node23" class="node">
<title>Node22</title>
<g id="a_node23"><a xlink:href="resource__manager_8h.html" target="_top" xlink:title="resource_manager.h">
<polygon fill="none" stroke="#000000" points="392,-123.5 392,-142.5 497,-142.5 497,-123.5 392,-123.5"/>
<text text-anchor="middle" x="444.5" y="-130.5" font-family="Helvetica,sans-Serif" font-size="10.00" fill="#000000">resource_manager.h</text>
</a>
</g>
</g>
<!-- Node20&#45;&gt;Node22 -->
<g id="edge34" class="edge">
<title>Node20&#45;&gt;Node22</title>
<path fill="none" stroke="#191970" d="M750.8916,-184.8366C699.8071,-176.1939 580.8827,-156.0738 507.1284,-143.5957"/>
<polygon fill="#191970" stroke="#191970" points="507.4767,-140.105 497.0329,-141.8877 506.3089,-147.0069 507.4767,-140.105"/>
</g>
<!-- Node22&#45;&gt;Node6 -->
<g id="edge36" class="edge">
<title>Node22&#45;&gt;Node6</title>
<path fill="none" stroke="#191970" d="M409.3252,-123.4553C386.6311,-116.0843 357.376,-104.2053 335.5,-87 315.0638,-70.927 298.3321,-45.7727 288.4007,-28.6206"/>
<polygon fill="#191970" stroke="#191970" points="291.2863,-26.6086 283.3624,-19.5756 285.171,-30.0149 291.2863,-26.6086"/>
</g>
<!-- Node22&#45;&gt;Node9 -->
<g id="edge37" class="edge">
<title>Node22&#45;&gt;Node9</title>
<path fill="none" stroke="#191970" d="M444.5,-123.3906C444.5,-114.8657 444.5,-102.1392 444.5,-91.4235"/>
<polygon fill="#191970" stroke="#191970" points="448.0001,-91.2448 444.5,-81.2449 441.0001,-91.2449 448.0001,-91.2448"/>
</g>
<!-- Node22&#45;&gt;Node10 -->
<g id="edge38" class="edge">
<title>Node22&#45;&gt;Node10</title>
<path fill="none" stroke="#191970" d="M433.0938,-123.3906C421.8031,-113.8786 404.3033,-99.1357 390.8381,-87.7917"/>
<polygon fill="#191970" stroke="#191970" points="392.9699,-85.0111 383.0671,-81.2449 388.4598,-90.3646 392.9699,-85.0111"/>
</g>
<!-- Node22&#45;&gt;Node17 -->
<g id="edge35" class="edge">
<title>Node22&#45;&gt;Node17</title>
<path fill="none" stroke="#191970" d="M454.3438,-123.3906C463.9039,-114.0581 478.6223,-99.6902 490.1495,-88.4374"/>
<polygon fill="#191970" stroke="#191970" points="492.8066,-90.7348 497.5175,-81.2449 487.9168,-85.7257 492.8066,-90.7348"/>
</g>
<!-- Node24&#45;&gt;Node3 -->
<g id="edge47" class="edge">
<title>Node24&#45;&gt;Node3</title>
<path fill="none" stroke="#191970" d="M1003.0943,-123.3964C983.3862,-114.9087 954.7701,-101.6304 931.5,-87 912.755,-75.2146 912.9743,-64.4306 892.5,-56 825.1403,-28.2637 608.7948,-15.8173 516.6726,-11.6774"/>
<polygon fill="#191970" stroke="#191970" points="516.7345,-8.1768 506.5908,-11.2353 516.4278,-15.1701 516.7345,-8.1768"/>
</g>
<!-- Node24&#45;&gt;Node4 -->
<g id="edge48" class="edge">
<title>Node24&#45;&gt;Node4</title>
<path fill="none" stroke="#191970" d="M997.9063,-123.3906C966.6155,-112.8749 916.3014,-95.966 881.66,-84.3243"/>
<polygon fill="#191970" stroke="#191970" points="882.487,-80.9099 871.893,-81.0419 880.257,-87.5452 882.487,-80.9099"/>
</g>
<!-- Node24&#45;&gt;Node5 -->
<g id="edge44" class="edge">
<title>Node24&#45;&gt;Node5</title>
<path fill="none" stroke="#191970" d="M984.138,-124.7423C937.6066,-115.6389 860.6855,-100.4927 794.5,-87 782.4635,-84.5462 769.3378,-81.815 757.528,-79.3372"/>
<polygon fill="#191970" stroke="#191970" points="758.0551,-75.8716 747.5488,-77.2383 756.6143,-82.7217 758.0551,-75.8716"/>
</g>
<!-- Node24&#45;&gt;Node11 -->
<g id="edge49" class="edge">
<title>Node24&#45;&gt;Node11</title>
<path fill="none" stroke="#191970" d="M1068.693,-128.1533C1136.2282,-119.9682 1262.3891,-102.7549 1275.5,-87 1284.3131,-76.4096 1284.8313,-66.1367 1275.5,-56 1241.2261,-18.7678 891.8039,-11.6679 765.6322,-10.3167"/>
<polygon fill="#191970" stroke="#191970" points="765.567,-6.816 755.5325,-10.2159 765.497,-13.8156 765.567,-6.816"/>
</g>
<!-- Node24&#45;&gt;Node23 -->
<g id="edge45" class="edge">
<title>Node24&#45;&gt;Node23</title>
<path fill="none" stroke="#191970" d="M1068.5612,-127.4269C1135.7628,-118.3059 1264.2762,-99.9148 1308.5,-87 1310.6759,-86.3646 1312.8951,-85.632 1315.1096,-84.8384"/>
<polygon fill="#191970" stroke="#191970" points="1316.6196,-88.0053 1324.6378,-81.0801 1314.051,-81.4936 1316.6196,-88.0053"/>
</g>
<!-- Node25 -->
<g id="node26" class="node">
<title>Node25</title>
<polygon fill="none" stroke="#bfbfbf" points="940,-56.5 940,-86.5 1039,-86.5 1039,-56.5 940,-56.5"/>
<text text-anchor="start" x="948" y="-74.5" font-family="Helvetica,sans-Serif" font-size="10.00" fill="#000000">glm/ext/matrix_clip</text>
<text text-anchor="middle" x="989.5" y="-63.5" font-family="Helvetica,sans-Serif" font-size="10.00" fill="#000000">_space.hpp</text>
</g>
<!-- Node24&#45;&gt;Node25 -->
<g id="edge43" class="edge">
<title>Node24&#45;&gt;Node25</title>
<path fill="none" stroke="#191970" d="M1020.7188,-123.3906C1016.1749,-115.838 1009.647,-104.9876 1003.7341,-95.1593"/>
<polygon fill="#191970" stroke="#191970" points="1006.7055,-93.309 998.5512,-86.5446 1000.7074,-96.9177 1006.7055,-93.309"/>
</g>
<!-- Node26 -->
<g id="node27" class="node">
<title>Node26</title>
<polygon fill="none" stroke="#bfbfbf" points="1057,-62 1057,-81 1104,-81 1104,-62 1057,-62"/>
<text text-anchor="middle" x="1080.5" y="-69" font-family="Helvetica,sans-Serif" font-size="10.00" fill="#000000">math.h</text>
</g>
<!-- Node24&#45;&gt;Node26 -->
<g id="edge46" class="edge">
<title>Node24&#45;&gt;Node26</title>
<path fill="none" stroke="#191970" d="M1034.9375,-123.3906C1043.0531,-114.1478 1055.5055,-99.966 1065.3424,-88.7628"/>
<polygon fill="#191970" stroke="#191970" points="1067.9755,-91.0686 1071.9435,-81.2449 1062.7154,-86.45 1067.9755,-91.0686"/>
</g>
<!-- Node27 -->
<g id="node28" class="node">
<title>Node27</title>
<polygon fill="none" stroke="#bfbfbf" points="1122.5,-62 1122.5,-81 1266.5,-81 1266.5,-62 1122.5,-62"/>
<text text-anchor="middle" x="1194.5" y="-69" font-family="Helvetica,sans-Serif" font-size="10.00" fill="#000000">glm/gtc/matrix_transform.hpp</text>
</g>
<!-- Node24&#45;&gt;Node27 -->
<g id="edge50" class="edge">
<title>Node24&#45;&gt;Node27</title>
<path fill="none" stroke="#191970" d="M1052.75,-123.3906C1081.2293,-112.9652 1126.8743,-96.2559 1158.6457,-84.6252"/>
<polygon fill="#191970" stroke="#191970" points="1160.2469,-87.7663 1168.4343,-81.0419 1157.8406,-81.1929 1160.2469,-87.7663"/>
</g>
<!-- Node28&#45;&gt;Node8 -->
<g id="edge52" class="edge">
<title>Node28&#45;&gt;Node8</title>
<path fill="none" stroke="#191970" d="M1347.8818,-123.4246C1374.594,-114.5441 1414.9901,-100.6756 1449.5,-87 1451.0716,-86.3772 1452.6764,-85.7252 1454.2923,-85.0558"/>
<polygon fill="#191970" stroke="#191970" points="1455.6938,-88.2632 1463.515,-81.1162 1452.944,-81.8259 1455.6938,-88.2632"/>
</g>
<!-- Node28&#45;&gt;Node23 -->
<g id="edge53" class="edge">
<title>Node28&#45;&gt;Node23</title>
<path fill="none" stroke="#191970" d="M1322.5625,-123.3906C1326.2424,-114.6862 1331.7742,-101.6015 1336.362,-90.7494"/>
<polygon fill="#191970" stroke="#191970" points="1339.71,-91.8185 1340.3802,-81.2449 1333.2625,-89.0927 1339.71,-91.8185"/>
</g>
<!-- Node29 -->
<g id="node30" class="node">
<title>Node29</title>
<polygon fill="none" stroke="#bfbfbf" points="1384.5,-62 1384.5,-81 1440.5,-81 1440.5,-62 1384.5,-62"/>
<text text-anchor="middle" x="1412.5" y="-69" font-family="Helvetica,sans-Serif" font-size="10.00" fill="#000000">tinyxml.h</text>
</g>
<!-- Node28&#45;&gt;Node29 -->
<g id="edge54" class="edge">
<title>Node28&#45;&gt;Node29</title>
<path fill="none" stroke="#191970" d="M1333.1875,-123.3906C1348.2256,-113.5519 1371.8176,-98.1167 1389.3667,-86.6351"/>
<polygon fill="#191970" stroke="#191970" points="1391.4637,-89.4457 1397.9156,-81.0419 1387.6313,-83.588 1391.4637,-89.4457"/>
</g>
<!-- Node30&#45;&gt;Node28 -->
<g id="edge56" class="edge">
<title>Node30&#45;&gt;Node28</title>
<path fill="none" stroke="#191970" d="M1389.7799,-235.1389C1374.6704,-213.4881 1347.1647,-174.0745 1331.0983,-151.0525"/>
<polygon fill="#191970" stroke="#191970" points="1333.7644,-148.757 1325.1713,-142.5595 1328.0241,-152.763 1333.7644,-148.757"/>
</g>
<!-- Node31 -->
<g id="node32" class="node">
<title>Node31</title>
<g id="a_node32"><a xlink:href="state_8h.html" target="_top" xlink:title="state.h">
<polygon fill="none" stroke="#000000" points="1588,-62 1588,-81 1635,-81 1635,-62 1588,-62"/>
<text text-anchor="middle" x="1611.5" y="-69" font-family="Helvetica,sans-Serif" font-size="10.00" fill="#000000">state.h</text>
</a>
</g>
</g>
<!-- Node30&#45;&gt;Node31 -->
<g id="edge57" class="edge">
<title>Node30&#45;&gt;Node31</title>
<path fill="none" stroke="#191970" d="M1449.6211,-235.3475C1493.4652,-219.3181 1556.1923,-189.7763 1592.5,-143 1604.0339,-128.1406 1608.5894,-106.8824 1610.3761,-91.4098"/>
<polygon fill="#191970" stroke="#191970" points="1613.8723,-91.6049 1611.248,-81.3402 1606.8984,-91.001 1613.8723,-91.6049"/>
</g>
<!-- Node32 -->
<g id="node33" class="node">
<title>Node32</title>
<g id="a_node33"><a xlink:href="game_8h.html" target="_top" xlink:title="game.h">
<polygon fill="none" stroke="#000000" points="1408,-179.5 1408,-198.5 1457,-198.5 1457,-179.5 1408,-179.5"/>
<text text-anchor="middle" x="1432.5" y="-186.5" font-family="Helvetica,sans-Serif" font-size="10.00" fill="#000000">game.h</text>
</a>
</g>
</g>
<!-- Node30&#45;&gt;Node32 -->
<g id="edge58" class="edge">
<title>Node30&#45;&gt;Node32</title>
<path fill="none" stroke="#191970" d="M1408.4101,-235.2977C1412.7132,-227.0277 1418.0758,-216.7215 1422.6482,-207.9339"/>
<polygon fill="#191970" stroke="#191970" points="1425.8654,-209.3335 1427.3764,-198.8469 1419.6557,-206.1024 1425.8654,-209.3335"/>
</g>
<!-- Node32&#45;&gt;Node4 -->
<g id="edge69" class="edge">
<title>Node32&#45;&gt;Node4</title>
<path fill="none" stroke="#191970" d="M1407.9716,-187.8068C1325.3251,-183.5883 1057.6249,-168.2577 975.5,-143 934.0113,-130.2401 890.637,-103.8206 865.3905,-86.9152"/>
<polygon fill="#191970" stroke="#191970" points="867.181,-83.8999 856.9464,-81.1603 863.2387,-89.6843 867.181,-83.8999"/>
</g>
<!-- Node32&#45;&gt;Node5 -->
<g id="edge60" class="edge">
<title>Node32&#45;&gt;Node5</title>
<path fill="none" stroke="#191970" d="M1407.9223,-187.5706C1319.7272,-182.3168 1019.443,-163.3215 925.5,-143 861.9899,-129.2617 791.0542,-101.6031 751.4936,-85.002"/>
<polygon fill="#191970" stroke="#191970" points="752.7084,-81.7156 742.1354,-81.0349 749.9762,-88.1604 752.7084,-81.7156"/>
</g>
<!-- Node32&#45;&gt;Node8 -->
<g id="edge59" class="edge">
<title>Node32&#45;&gt;Node8</title>
<path fill="none" stroke="#191970" d="M1436.7554,-179.3845C1445.3255,-160.0192 1464.8039,-116.0055 1476.0543,-90.584"/>
<polygon fill="#191970" stroke="#191970" points="1479.3394,-91.8094 1480.1858,-81.2484 1472.9382,-88.9765 1479.3394,-91.8094"/>
</g>
<!-- Node33 -->
<g id="node34" class="node">
<title>Node33</title>
<g id="a_node34"><a xlink:href="Orthographic__camera_8h.html" target="_top" xlink:title="Orthographic_camera.h">
<polygon fill="none" stroke="#000000" points="1639.5,-123.5 1639.5,-142.5 1757.5,-142.5 1757.5,-123.5 1639.5,-123.5"/>
<text text-anchor="middle" x="1698.5" y="-130.5" font-family="Helvetica,sans-Serif" font-size="10.00" fill="#000000">Orthographic_camera.h</text>
</a>
</g>
</g>
<!-- Node32&#45;&gt;Node33 -->
<g id="edge61" class="edge">
<title>Node32&#45;&gt;Node33</title>
<path fill="none" stroke="#191970" d="M1457.0479,-183.832C1499.1492,-174.9686 1586.1129,-156.6604 1643.3642,-144.6075"/>
<polygon fill="#191970" stroke="#191970" points="1644.2746,-147.9927 1653.3391,-142.5076 1642.8325,-141.1428 1644.2746,-147.9927"/>
</g>
<!-- Node35 -->
<g id="node36" class="node">
<title>Node35</title>
<g id="a_node36"><a xlink:href="state__machine_8h.html" target="_top" xlink:title="state_machine.h">
<polygon fill="none" stroke="#000000" points="1494,-123.5 1494,-142.5 1583,-142.5 1583,-123.5 1494,-123.5"/>
<text text-anchor="middle" x="1538.5" y="-130.5" font-family="Helvetica,sans-Serif" font-size="10.00" fill="#000000">state_machine.h</text>
</a>
</g>
</g>
<!-- Node32&#45;&gt;Node35 -->
<g id="edge64" class="edge">
<title>Node32&#45;&gt;Node35</title>
<path fill="none" stroke="#191970" d="M1450.9638,-179.2455C1467.6074,-170.4527 1492.2993,-157.4079 1511.2192,-147.4125"/>
<polygon fill="#191970" stroke="#191970" points="1513.0408,-150.4086 1520.2478,-142.6427 1509.7709,-144.2193 1513.0408,-150.4086"/>
</g>
<!-- Node33&#45;&gt;Node11 -->
<g id="edge63" class="edge">
<title>Node33&#45;&gt;Node11</title>
<path fill="none" stroke="#191970" d="M1694.9984,-123.275C1688.249,-106.1465 1671.6582,-70.9947 1644.5,-56 1605.6834,-34.5685 946.1564,-15.8794 765.7789,-11.1514"/>
<polygon fill="#191970" stroke="#191970" points="765.6663,-7.6473 755.5785,-10.8855 765.4839,-14.645 765.6663,-7.6473"/>
</g>
<!-- Node33&#45;&gt;Node34 -->
<g id="edge62" class="edge">
<title>Node33&#45;&gt;Node34</title>
<path fill="none" stroke="#191970" d="M1700.8438,-123.3906C1702.9449,-114.776 1706.0925,-101.8708 1708.723,-91.0858"/>
<polygon fill="#191970" stroke="#191970" points="1712.1539,-91.7894 1711.1232,-81.2449 1705.3532,-90.1307 1712.1539,-91.7894"/>
</g>
<!-- Node35&#45;&gt;Node8 -->
<g id="edge66" class="edge">
<title>Node35&#45;&gt;Node8</title>
<path fill="none" stroke="#191970" d="M1530.0625,-123.3906C1521.9469,-114.1478 1509.4945,-99.966 1499.6576,-88.7628"/>
<polygon fill="#191970" stroke="#191970" points="1502.2846,-86.45 1493.0565,-81.2449 1497.0245,-91.0686 1502.2846,-86.45"/>
</g>
<!-- Node35&#45;&gt;Node31 -->
<g id="edge68" class="edge">
<title>Node35&#45;&gt;Node31</title>
<path fill="none" stroke="#191970" d="M1549.9063,-123.3906C1561.1969,-113.8786 1578.6967,-99.1357 1592.1619,-87.7917"/>
<polygon fill="#191970" stroke="#191970" points="1594.5402,-90.3646 1599.9329,-81.2449 1590.0301,-85.0111 1594.5402,-90.3646"/>
</g>
<!-- Node35&#45;&gt;Node34 -->
<g id="edge65" class="edge">
<title>Node35&#45;&gt;Node34</title>
<path fill="none" stroke="#191970" d="M1565.8438,-123.3906C1597.3805,-112.3077 1649.1244,-94.1234 1682.2324,-82.4883"/>
<polygon fill="#191970" stroke="#191970" points="1683.5921,-85.7204 1691.866,-79.1028 1681.2712,-79.1163 1683.5921,-85.7204"/>
</g>
<!-- Node36 -->
<g id="node37" class="node">
<title>Node36</title>
<polygon fill="none" stroke="#bfbfbf" points="1529,-62 1529,-81 1570,-81 1570,-62 1529,-62"/>
<text text-anchor="middle" x="1549.5" y="-69" font-family="Helvetica,sans-Serif" font-size="10.00" fill="#000000">stack</text>
</g>
<!-- Node35&#45;&gt;Node36 -->
<g id="edge67" class="edge">
<title>Node35&#45;&gt;Node36</title>
<path fill="none" stroke="#191970" d="M1540.2188,-123.3906C1541.7435,-114.8657 1544.0198,-102.1392 1545.9364,-91.4235"/>
<polygon fill="#191970" stroke="#191970" points="1549.4416,-91.7049 1547.757,-81.2449 1542.5509,-90.4724 1549.4416,-91.7049"/>
</g>
</g>
</svg>
