<?xml version="1.0" encoding="UTF-8" standalone="no"?>
<!DOCTYPE svg PUBLIC "-//W3C//DTD SVG 1.1//EN"
 "http://www.w3.org/Graphics/SVG/1.1/DTD/svg11.dtd">
<!-- Generated by graphviz version 2.40.1 (20161225.0304)
 -->
<!-- Title: /mnt/hdd/C0de/smart_engine/src/map.cpp Pages: 1 -->
<svg width="568pt" height="95pt"
 viewBox="0.00 0.00 568.00 95.00" xmlns="http://www.w3.org/2000/svg" xmlns:xlink="http://www.w3.org/1999/xlink">
<g id="graph0" class="graph" transform="scale(1 1) rotate(0) translate(4 91)">
<title>/mnt/hdd/C0de/smart_engine/src/map.cpp</title>
<!-- Node0 -->
<g id="node1" class="node">
<title>Node0</title>
<polygon fill="#bfbfbf" stroke="#000000" points="248.5,-56.5 248.5,-86.5 357.5,-86.5 357.5,-56.5 248.5,-56.5"/>
<text text-anchor="start" x="256.5" y="-74.5" font-family="Helvetica,sans-Serif" font-size="10.00" fill="#000000">/mnt/hdd/C0de/smart</text>
<text text-anchor="middle" x="303" y="-63.5" font-family="Helvetica,sans-Serif" font-size="10.00" fill="#000000">_engine/src/map.cpp</text>
</g>
<!-- Node1 -->
<g id="node2" class="node">
<title>Node1</title>
<polygon fill="none" stroke="#bfbfbf" points="0,-.5 0,-19.5 86,-19.5 86,-.5 0,-.5"/>
<text text-anchor="middle" x="43" y="-7.5" font-family="Helvetica,sans-Serif" font-size="10.00" fill="#000000">tmxlite/Map.hpp</text>
</g>
<!-- Node0&#45;&gt;Node1 -->
<g id="edge1" class="edge">
<title>Node0&#45;&gt;Node1</title>
<path fill="none" stroke="#191970" d="M248.4955,-58.6076C202.6729,-47.7688 137.6994,-32.4001 93.1483,-21.862"/>
<polygon fill="#191970" stroke="#191970" points="93.9448,-18.4539 83.4076,-19.558 92.3334,-25.2659 93.9448,-18.4539"/>
</g>
<!-- Node2 -->
<g id="node3" class="node">
<title>Node2</title>
<polygon fill="none" stroke="#bfbfbf" points="104,-.5 104,-19.5 226,-19.5 226,-.5 104,-.5"/>
<text text-anchor="middle" x="165" y="-7.5" font-family="Helvetica,sans-Serif" font-size="10.00" fill="#000000">tmxlite/ObjectGroup.hpp</text>
</g>
<!-- Node0&#45;&gt;Node2 -->
<g id="edge2" class="edge">
<title>Node0&#45;&gt;Node2</title>
<path fill="none" stroke="#191970" d="M269.2414,-56.4554C246.7207,-46.419 217.3533,-33.3314 195.5308,-23.6061"/>
<polygon fill="#191970" stroke="#191970" points="196.9439,-20.4041 186.3851,-19.5303 194.0944,-26.7979 196.9439,-20.4041"/>
</g>
<!-- Node3 -->
<g id="node4" class="node">
<title>Node3</title>
<polygon fill="none" stroke="#bfbfbf" points="244,-.5 244,-19.5 362,-19.5 362,-.5 244,-.5"/>
<text text-anchor="middle" x="303" y="-7.5" font-family="Helvetica,sans-Serif" font-size="10.00" fill="#000000">tmxlite/LayerGroup.hpp</text>
</g>
<!-- Node0&#45;&gt;Node3 -->
<g id="edge3" class="edge">
<title>Node0&#45;&gt;Node3</title>
<path fill="none" stroke="#191970" d="M303,-56.2977C303,-48.3834 303,-38.6043 303,-30.0759"/>
<polygon fill="#191970" stroke="#191970" points="306.5001,-29.8469 303,-19.8469 299.5001,-29.847 306.5001,-29.8469"/>
</g>
<!-- Node4 -->
<g id="node5" class="node">
<title>Node4</title>
<polygon fill="none" stroke="#bfbfbf" points="380.5,-.5 380.5,-19.5 487.5,-19.5 487.5,-.5 380.5,-.5"/>
<text text-anchor="middle" x="434" y="-7.5" font-family="Helvetica,sans-Serif" font-size="10.00" fill="#000000">tmxlite/TileLayer.hpp</text>
</g>
<!-- Node0&#45;&gt;Node4 -->
<g id="edge4" class="edge">
<title>Node0&#45;&gt;Node4</title>
<path fill="none" stroke="#191970" d="M335.0462,-56.4554C356.2328,-46.509 383.8028,-33.5659 404.4588,-23.8686"/>
<polygon fill="#191970" stroke="#191970" points="406.1349,-26.9483 413.6996,-19.5303 403.1601,-20.6118 406.1349,-26.9483"/>
</g>
<!-- Node5 -->
<g id="node6" class="node">
<title>Node5</title>
<polygon fill="none" stroke="#bfbfbf" points="506,-.5 506,-19.5 560,-19.5 560,-.5 506,-.5"/>
<text text-anchor="middle" x="533" y="-7.5" font-family="Helvetica,sans-Serif" font-size="10.00" fill="#000000">iostream</text>
</g>
<!-- Node0&#45;&gt;Node5 -->
<g id="edge5" class="edge">
<title>Node0&#45;&gt;Node5</title>
<path fill="none" stroke="#191970" d="M357.817,-57.1272C394.4183,-47.4893 443.8809,-34.3864 496.1019,-20.2246"/>
<polygon fill="#191970" stroke="#191970" points="497.1492,-23.567 505.8824,-17.5685 495.3146,-16.8117 497.1492,-23.567"/>
</g>
</g>
</svg>
