<?xml version="1.0" encoding="UTF-8" standalone="no"?>
<!DOCTYPE svg PUBLIC "-//W3C//DTD SVG 1.1//EN"
 "http://www.w3.org/Graphics/SVG/1.1/DTD/svg11.dtd">
<!-- Generated by graphviz version 2.40.1 (20161225.0304)
 -->
<!-- Title: /mnt/hdd/C0de/smart_engine/src/Orthographic_camera.cpp Pages: 1 -->
<svg width="707pt" height="173pt"
 viewBox="0.00 0.00 707.00 173.00" xmlns="http://www.w3.org/2000/svg" xmlns:xlink="http://www.w3.org/1999/xlink">
<g id="graph0" class="graph" transform="scale(1 1) rotate(0) translate(4 169)">
<title>/mnt/hdd/C0de/smart_engine/src/Orthographic_camera.cpp</title>
<!-- Node0 -->
<g id="node1" class="node">
<title>Node0</title>
<polygon fill="#bfbfbf" stroke="#000000" points="330,-123.5 330,-164.5 455,-164.5 455,-123.5 330,-123.5"/>
<text text-anchor="start" x="338" y="-152.5" font-family="Helvetica,sans-Serif" font-size="10.00" fill="#000000">/mnt/hdd/C0de/smart</text>
<text text-anchor="start" x="338" y="-141.5" font-family="Helvetica,sans-Serif" font-size="10.00" fill="#000000">_engine/src/Orthographic</text>
<text text-anchor="middle" x="392.5" y="-130.5" font-family="Helvetica,sans-Serif" font-size="10.00" fill="#000000">_camera.cpp</text>
</g>
<!-- Node1 -->
<g id="node2" class="node">
<title>Node1</title>
<g id="a_node2"><a xlink:href="Orthographic__camera_8h.html" target="_top" xlink:title="../include/Orthographic\l_camera.h">
<polygon fill="none" stroke="#000000" points="1,-56.5 1,-86.5 116,-86.5 116,-56.5 1,-56.5"/>
<text text-anchor="start" x="9" y="-74.5" font-family="Helvetica,sans-Serif" font-size="10.00" fill="#000000">../include/Orthographic</text>
<text text-anchor="middle" x="58.5" y="-63.5" font-family="Helvetica,sans-Serif" font-size="10.00" fill="#000000">_camera.h</text>
</a>
</g>
</g>
<!-- Node0&#45;&gt;Node1 -->
<g id="edge1" class="edge">
<title>Node0&#45;&gt;Node1</title>
<path fill="none" stroke="#191970" d="M329.855,-130.9406C278.0315,-120.0653 202.2209,-103.9916 126.4349,-87.1883"/>
<polygon fill="#191970" stroke="#191970" points="126.7504,-83.6731 116.2294,-84.9209 125.2323,-90.5065 126.7504,-83.6731"/>
</g>
<!-- Node4 -->
<g id="node5" class="node">
<title>Node4</title>
<polygon fill="none" stroke="#bfbfbf" points="134,-56.5 134,-86.5 233,-86.5 233,-56.5 134,-56.5"/>
<text text-anchor="start" x="142" y="-74.5" font-family="Helvetica,sans-Serif" font-size="10.00" fill="#000000">glm/ext/matrix_clip</text>
<text text-anchor="middle" x="183.5" y="-63.5" font-family="Helvetica,sans-Serif" font-size="10.00" fill="#000000">_space.hpp</text>
</g>
<!-- Node0&#45;&gt;Node4 -->
<g id="edge4" class="edge">
<title>Node0&#45;&gt;Node4</title>
<path fill="none" stroke="#191970" d="M333.168,-123.4183C302.8088,-112.887 266.1515,-100.171 236.7139,-89.9594"/>
<polygon fill="#191970" stroke="#191970" points="237.6219,-86.5698 227.0271,-86.5991 235.3277,-93.1832 237.6219,-86.5698"/>
</g>
<!-- Node5 -->
<g id="node6" class="node">
<title>Node5</title>
<polygon fill="none" stroke="#bfbfbf" points="251.5,-62 251.5,-81 395.5,-81 395.5,-62 251.5,-62"/>
<text text-anchor="middle" x="323.5" y="-69" font-family="Helvetica,sans-Serif" font-size="10.00" fill="#000000">glm/ext/matrix_transform.hpp</text>
</g>
<!-- Node0&#45;&gt;Node5 -->
<g id="edge5" class="edge">
<title>Node0&#45;&gt;Node5</title>
<path fill="none" stroke="#191970" d="M372.9119,-123.4183C362.3711,-112.3428 349.5305,-98.8509 339.5813,-88.397"/>
<polygon fill="#191970" stroke="#191970" points="342.052,-85.9162 332.6226,-81.0853 336.9814,-90.7421 342.052,-85.9162"/>
</g>
<!-- Node6 -->
<g id="node7" class="node">
<title>Node6</title>
<polygon fill="none" stroke="#bfbfbf" points="414,-56.5 414,-86.5 511,-86.5 511,-56.5 414,-56.5"/>
<text text-anchor="start" x="422" y="-74.5" font-family="Helvetica,sans-Serif" font-size="10.00" fill="#000000">glm/ext/quaternion</text>
<text text-anchor="middle" x="462.5" y="-63.5" font-family="Helvetica,sans-Serif" font-size="10.00" fill="#000000">_common.hpp</text>
</g>
<!-- Node0&#45;&gt;Node6 -->
<g id="edge6" class="edge">
<title>Node0&#45;&gt;Node6</title>
<path fill="none" stroke="#191970" d="M412.372,-123.4183C421.2138,-114.2607 431.6507,-103.451 440.7057,-94.0726"/>
<polygon fill="#191970" stroke="#191970" points="443.4935,-96.2242 447.9216,-86.5991 438.4577,-91.3621 443.4935,-96.2242"/>
</g>
<!-- Node7 -->
<g id="node8" class="node">
<title>Node7</title>
<polygon fill="none" stroke="#bfbfbf" points="529.5,-62 529.5,-81 599.5,-81 599.5,-62 529.5,-62"/>
<text text-anchor="middle" x="564.5" y="-69" font-family="Helvetica,sans-Serif" font-size="10.00" fill="#000000">glm/fwd.hpp</text>
</g>
<!-- Node0&#45;&gt;Node7 -->
<g id="edge7" class="edge">
<title>Node0&#45;&gt;Node7</title>
<path fill="none" stroke="#191970" d="M441.3282,-123.4183C470.5665,-111.0941 506.9029,-95.7779 532.5085,-84.9848"/>
<polygon fill="#191970" stroke="#191970" points="533.9042,-88.1948 541.7596,-81.0853 531.1853,-81.7444 533.9042,-88.1948"/>
</g>
<!-- Node8 -->
<g id="node9" class="node">
<title>Node8</title>
<polygon fill="none" stroke="#bfbfbf" points="618,-62 618,-81 699,-81 699,-62 618,-62"/>
<text text-anchor="middle" x="658.5" y="-69" font-family="Helvetica,sans-Serif" font-size="10.00" fill="#000000">glm/matrix.hpp</text>
</g>
<!-- Node0&#45;&gt;Node8 -->
<g id="edge8" class="edge">
<title>Node0&#45;&gt;Node8</title>
<path fill="none" stroke="#191970" d="M455.0774,-128.2379C498.3048,-117.1661 557.0526,-101.7553 608.5,-87 611.8333,-86.044 615.2837,-85.0286 618.7423,-83.9929"/>
<polygon fill="#191970" stroke="#191970" points="619.87,-87.3083 628.4204,-81.052 617.8348,-80.6107 619.87,-87.3083"/>
</g>
<!-- Node2 -->
<g id="node3" class="node">
<title>Node2</title>
<polygon fill="none" stroke="#bfbfbf" points="0,-.5 0,-19.5 43,-19.5 43,-.5 0,-.5"/>
<text text-anchor="middle" x="21.5" y="-7.5" font-family="Helvetica,sans-Serif" font-size="10.00" fill="#000000">cstdio</text>
</g>
<!-- Node1&#45;&gt;Node2 -->
<g id="edge2" class="edge">
<title>Node1&#45;&gt;Node2</title>
<path fill="none" stroke="#191970" d="M49.3539,-56.2977C44.3249,-47.9388 38.0445,-37.4997 32.7209,-28.6509"/>
<polygon fill="#191970" stroke="#191970" points="35.5785,-26.6114 27.4242,-19.8469 29.5803,-30.2201 35.5785,-26.6114"/>
</g>
<!-- Node3 -->
<g id="node4" class="node">
<title>Node3</title>
<polygon fill="none" stroke="#bfbfbf" points="61.5,-.5 61.5,-19.5 131.5,-19.5 131.5,-.5 61.5,-.5"/>
<text text-anchor="middle" x="96.5" y="-7.5" font-family="Helvetica,sans-Serif" font-size="10.00" fill="#000000">glm/glm.hpp</text>
</g>
<!-- Node1&#45;&gt;Node3 -->
<g id="edge3" class="edge">
<title>Node1&#45;&gt;Node3</title>
<path fill="none" stroke="#191970" d="M67.8933,-56.2977C73.1131,-47.8498 79.6457,-37.2773 85.15,-28.369"/>
<polygon fill="#191970" stroke="#191970" points="88.1368,-30.1938 90.4157,-19.8469 82.1818,-26.5143 88.1368,-30.1938"/>
</g>
</g>
</svg>
