<?xml version="1.0" encoding="UTF-8" standalone="no"?>
<!DOCTYPE svg PUBLIC "-//W3C//DTD SVG 1.1//EN"
 "http://www.w3.org/Graphics/SVG/1.1/DTD/svg11.dtd">
<!-- Generated by graphviz version 2.40.1 (20161225.0304)
 -->
<!-- Title: /mnt/hdd/C0de/smart_engine/include/Orthographic_camera.h Pages: 1 -->
<!--zoomable 284 -->
<svg id="main" version="1.1" xmlns="http://www.w3.org/2000/svg" xmlns:xlink="http://www.w3.org/1999/xlink" xml:space="preserve" onload="init(evt)">
<style type="text/css"><![CDATA[
.edge:hover path { stroke: red; }
.edge:hover polygon { stroke: red; fill: red; }
]]></style>
<script type="text/javascript"><![CDATA[
var edges = document.getElementsByTagName('g');
if (edges && edges.length) {
  for (var i=0;i<edges.length;i++) {
    if (edges[i].id.substr(0,4)=='edge') {
      edges[i].setAttribute('class','edge');
    }
  }
}
]]></script>
        <defs>
                <circle id="rim" cx="0" cy="0" r="7"/>
                <circle id="rim2" cx="0" cy="0" r="3.5"/>
                <g id="zoomPlus">
                        <use xlink:href="#rim" fill="#404040">
                                <set attributeName="fill" to="#808080" begin="zoomplus.mouseover" end="zoomplus.mouseout"/>
                        </use>
                        <path d="M-4,0h8M0,-4v8" fill="none" stroke="white" stroke-width="1.5" pointer-events="none"/>
                </g>
                <g id="zoomMin">
                        <use xlink:href="#rim" fill="#404040">
                                <set attributeName="fill" to="#808080" begin="zoomminus.mouseover" end="zoomminus.mouseout"/>
                        </use>
                        <path d="M-4,0h8" fill="none" stroke="white" stroke-width="1.5" pointer-events="none"/>
                </g>
                <g id="dirArrow">
                        <path fill="none" stroke="white" stroke-width="1.5" d="M0,-3.0v7 M-2.5,-0.5L0,-3.0L2.5,-0.5"/>
                </g>
               <g id="resetDef">
                       <use xlink:href="#rim2" fill="#404040">
                               <set attributeName="fill" to="#808080" begin="reset.mouseover" end="reset.mouseout"/>
                       </use>
               </g>
        </defs>

<script type="text/javascript">
var viewWidth = 741;
var viewHeight = 284;
var sectionId = 'dynsection-1';
</script>
<script xlink:href="svgpan.js"/>
<svg id="graph" class="graph">
<g id="viewport">
<title>/mnt/hdd/C0de/smart_engine/include/Orthographic_camera.h</title>
<!-- Node3 -->
<g id="node1" class="node">
<title>Node3</title>
<polygon fill="#bfbfbf" stroke="#000000" points="372,-234.5 372,-275.5 515,-275.5 515,-234.5 372,-234.5"/>
<text text-anchor="start" x="380" y="-263.5" font-family="Helvetica,sans-Serif" font-size="10.00" fill="#000000">/mnt/hdd/C0de/smart</text>
<text text-anchor="start" x="380" y="-252.5" font-family="Helvetica,sans-Serif" font-size="10.00" fill="#000000">_engine/include/Orthographic</text>
<text text-anchor="middle" x="443.5" y="-241.5" font-family="Helvetica,sans-Serif" font-size="10.00" fill="#000000">_camera.h</text>
</g>
<!-- Node4 -->
<g id="node2" class="node">
<title>Node4</title>
<g id="a_node2"><a xlink:href="game_8h.html" target="_top" xlink:title="/mnt/hdd/C0de/smart\l_engine/include/game.h">
<polygon fill="none" stroke="#000000" points="314,-162 314,-192 433,-192 433,-162 314,-162"/>
<text text-anchor="start" x="322" y="-180" font-family="Helvetica,sans-Serif" font-size="10.00" fill="#000000">/mnt/hdd/C0de/smart</text>
<text text-anchor="middle" x="373.5" y="-169" font-family="Helvetica,sans-Serif" font-size="10.00" fill="#000000">_engine/include/game.h</text>
</a>
</g>
</g>
<!-- Node3&#45;&gt;Node4 -->
<g id="edge1" class="edge">
<title>Node3&#45;&gt;Node4</title>
<path fill="none" stroke="#191970" d="M417.8036,-226.3668C407.4405,-214.8194 395.9041,-201.9646 387.2019,-192.2679"/>
<polygon fill="#191970" stroke="#191970" points="415.4573,-228.9927 424.7413,-234.0974 420.667,-224.3173 415.4573,-228.9927"/>
</g>
<!-- Node15 -->
<g id="node13" class="node">
<title>Node15</title>
<g id="a_node13"><a xlink:href="Orthographic__camera_8cpp.html" target="_top" xlink:title="/mnt/hdd/C0de/smart\l_engine/src/Orthographic\l_camera.cpp">
<polygon fill="none" stroke="#000000" points="451,-156.5 451,-197.5 576,-197.5 576,-156.5 451,-156.5"/>
<text text-anchor="start" x="459" y="-185.5" font-family="Helvetica,sans-Serif" font-size="10.00" fill="#000000">/mnt/hdd/C0de/smart</text>
<text text-anchor="start" x="459" y="-174.5" font-family="Helvetica,sans-Serif" font-size="10.00" fill="#000000">_engine/src/Orthographic</text>
<text text-anchor="middle" x="513.5" y="-163.5" font-family="Helvetica,sans-Serif" font-size="10.00" fill="#000000">_camera.cpp</text>
</a>
</g>
</g>
<!-- Node3&#45;&gt;Node15 -->
<g id="edge16" class="edge">
<title>Node3&#45;&gt;Node15</title>
<path fill="none" stroke="#191970" d="M469.1882,-226.376C477.719,-216.8703 487.0456,-206.4778 494.9322,-197.6898"/>
<polygon fill="#191970" stroke="#191970" points="466.333,-224.3173 462.2587,-234.0974 471.5427,-228.9927 466.333,-224.3173"/>
</g>
<!-- Node5 -->
<g id="node3" class="node">
<title>Node5</title>
<g id="a_node3"><a xlink:href="game__over__state_8h.html" target="_top" xlink:title="/mnt/hdd/C0de/smart\l_engine/include/game\l_over_state.h">
<polygon fill="none" stroke="#000000" points="493,-78.5 493,-119.5 604,-119.5 604,-78.5 493,-78.5"/>
<text text-anchor="start" x="501" y="-107.5" font-family="Helvetica,sans-Serif" font-size="10.00" fill="#000000">/mnt/hdd/C0de/smart</text>
<text text-anchor="start" x="501" y="-96.5" font-family="Helvetica,sans-Serif" font-size="10.00" fill="#000000">_engine/include/game</text>
<text text-anchor="middle" x="548.5" y="-85.5" font-family="Helvetica,sans-Serif" font-size="10.00" fill="#000000">_over_state.h</text>
</a>
</g>
</g>
<!-- Node4&#45;&gt;Node5 -->
<g id="edge2" class="edge">
<title>Node4&#45;&gt;Node5</title>
<path fill="none" stroke="#191970" d="M416.4814,-157.8426C442.5094,-146.2415 475.7013,-131.4474 502.2919,-119.5956"/>
<polygon fill="#191970" stroke="#191970" points="414.9507,-154.6929 407.2418,-161.9608 417.8005,-161.0865 414.9507,-154.6929"/>
</g>
<!-- Node6 -->
<g id="node4" class="node">
<title>Node6</title>
<g id="a_node4"><a xlink:href="game_8cpp.html" target="_top" xlink:title="/mnt/hdd/C0de/smart\l_engine/src/game.cpp">
<polygon fill="none" stroke="#000000" points="274,-6 274,-36 387,-36 387,-6 274,-6"/>
<text text-anchor="start" x="282" y="-24" font-family="Helvetica,sans-Serif" font-size="10.00" fill="#000000">/mnt/hdd/C0de/smart</text>
<text text-anchor="middle" x="330.5" y="-13" font-family="Helvetica,sans-Serif" font-size="10.00" fill="#000000">_engine/src/game.cpp</text>
</a>
</g>
</g>
<!-- Node4&#45;&gt;Node6 -->
<g id="edge14" class="edge">
<title>Node4&#45;&gt;Node6</title>
<path fill="none" stroke="#191970" d="M361.8961,-152.5841C357.5248,-142.6475 352.8145,-130.9443 349.5,-120 340.7243,-91.0227 335.1326,-55.9987 332.4292,-36.3338"/>
<polygon fill="#191970" stroke="#191970" points="358.7742,-154.1747 366.09,-161.8383 365.15,-151.2852 358.7742,-154.1747"/>
</g>
<!-- Node8 -->
<g id="node6" class="node">
<title>Node8</title>
<g id="a_node6"><a xlink:href="game__play__state_8h.html" target="_top" xlink:title="/mnt/hdd/C0de/smart\l_engine/include/game\l_play_state.h">
<polygon fill="none" stroke="#000000" points="64,-78.5 64,-119.5 175,-119.5 175,-78.5 64,-78.5"/>
<text text-anchor="start" x="72" y="-107.5" font-family="Helvetica,sans-Serif" font-size="10.00" fill="#000000">/mnt/hdd/C0de/smart</text>
<text text-anchor="start" x="72" y="-96.5" font-family="Helvetica,sans-Serif" font-size="10.00" fill="#000000">_engine/include/game</text>
<text text-anchor="middle" x="119.5" y="-85.5" font-family="Helvetica,sans-Serif" font-size="10.00" fill="#000000">_play_state.h</text>
</a>
</g>
</g>
<!-- Node4&#45;&gt;Node8 -->
<g id="edge5" class="edge">
<title>Node4&#45;&gt;Node8</title>
<path fill="none" stroke="#191970" d="M312.4634,-159.1209C275.1452,-148.0823 226.4801,-133.496 183.5,-120 180.8224,-119.1592 178.0843,-118.2915 175.3206,-117.4093"/>
<polygon fill="#191970" stroke="#191970" points="311.602,-162.5159 322.1839,-161.9919 313.5849,-155.8026 311.602,-162.5159"/>
</g>
<!-- Node10 -->
<g id="node8" class="node">
<title>Node10</title>
<g id="a_node8"><a xlink:href="main__menu__state_8h.html" target="_top" xlink:title="/mnt/hdd/C0de/smart\l_engine/include/main\l_menu_state.h">
<polygon fill="none" stroke="#000000" points="193,-78.5 193,-119.5 302,-119.5 302,-78.5 193,-78.5"/>
<text text-anchor="start" x="201" y="-107.5" font-family="Helvetica,sans-Serif" font-size="10.00" fill="#000000">/mnt/hdd/C0de/smart</text>
<text text-anchor="start" x="201" y="-96.5" font-family="Helvetica,sans-Serif" font-size="10.00" fill="#000000">_engine/include/main</text>
<text text-anchor="middle" x="247.5" y="-85.5" font-family="Helvetica,sans-Serif" font-size="10.00" fill="#000000">_menu_state.h</text>
</a>
</g>
</g>
<!-- Node4&#45;&gt;Node10 -->
<g id="edge8" class="edge">
<title>Node4&#45;&gt;Node10</title>
<path fill="none" stroke="#191970" d="M340.5621,-156.6099C322.1421,-145.207 299.2433,-131.0316 280.7698,-119.5956"/>
<polygon fill="#191970" stroke="#191970" points="338.861,-159.6732 349.2059,-161.9608 342.5455,-153.7213 338.861,-159.6732"/>
</g>
<!-- Node12 -->
<g id="node10" class="node">
<title>Node12</title>
<g id="a_node10"><a xlink:href="splash__state_8h.html" target="_top" xlink:title="/mnt/hdd/C0de/smart\l_engine/include/splash\l_state.h">
<polygon fill="none" stroke="#000000" points="358.5,-78.5 358.5,-119.5 474.5,-119.5 474.5,-78.5 358.5,-78.5"/>
<text text-anchor="start" x="366.5" y="-107.5" font-family="Helvetica,sans-Serif" font-size="10.00" fill="#000000">/mnt/hdd/C0de/smart</text>
<text text-anchor="start" x="366.5" y="-96.5" font-family="Helvetica,sans-Serif" font-size="10.00" fill="#000000">_engine/include/splash</text>
<text text-anchor="middle" x="416.5" y="-85.5" font-family="Helvetica,sans-Serif" font-size="10.00" fill="#000000">_state.h</text>
</a>
</g>
</g>
<!-- Node4&#45;&gt;Node12 -->
<g id="edge11" class="edge">
<title>Node4&#45;&gt;Node12</title>
<path fill="none" stroke="#191970" d="M386.6694,-153.1114C392.5747,-142.3993 399.472,-129.888 405.146,-119.5956"/>
<polygon fill="#191970" stroke="#191970" points="383.5536,-151.5136 381.7908,-161.9608 389.6838,-154.8931 383.5536,-151.5136"/>
</g>
<!-- Node14 -->
<g id="node12" class="node">
<title>Node14</title>
<g id="a_node12"><a xlink:href="main_8cpp.html" target="_top" xlink:title="/mnt/hdd/C0de/smart\l_engine/src/main.cpp">
<polygon fill="none" stroke="#000000" points="622.5,-84 622.5,-114 732.5,-114 732.5,-84 622.5,-84"/>
<text text-anchor="start" x="630.5" y="-102" font-family="Helvetica,sans-Serif" font-size="10.00" fill="#000000">/mnt/hdd/C0de/smart</text>
<text text-anchor="middle" x="677.5" y="-91" font-family="Helvetica,sans-Serif" font-size="10.00" fill="#000000">_engine/src/main.cpp</text>
</a>
</g>
</g>
<!-- Node4&#45;&gt;Node14 -->
<g id="edge15" class="edge">
<title>Node4&#45;&gt;Node14</title>
<path fill="none" stroke="#191970" d="M430.7269,-159.1629C434.7004,-158.054 438.6532,-156.9883 442.5,-156 517.7232,-136.6746 538.49,-140.1372 613.5,-120 620.0506,-118.2414 626.918,-116.2018 633.6226,-114.0987"/>
<polygon fill="#191970" stroke="#191970" points="429.5065,-155.8716 420.8558,-161.9885 431.4329,-162.6013 429.5065,-155.8716"/>
</g>
<!-- Node5&#45;&gt;Node6 -->
<g id="edge3" class="edge">
<title>Node5&#45;&gt;Node6</title>
<path fill="none" stroke="#191970" d="M483.4934,-75.7408C447.5738,-62.8888 403.9951,-47.2964 372.5497,-36.0453"/>
<polygon fill="#191970" stroke="#191970" points="482.3308,-79.042 492.9253,-79.1155 484.689,-72.4512 482.3308,-79.042"/>
</g>
<!-- Node7 -->
<g id="node5" class="node">
<title>Node7</title>
<g id="a_node5"><a xlink:href="game__over__state_8cpp.html" target="_top" xlink:title="/mnt/hdd/C0de/smart\l_engine/src/game_over\l_state.cpp">
<polygon fill="none" stroke="#000000" points="567.5,-.5 567.5,-41.5 685.5,-41.5 685.5,-.5 567.5,-.5"/>
<text text-anchor="start" x="575.5" y="-29.5" font-family="Helvetica,sans-Serif" font-size="10.00" fill="#000000">/mnt/hdd/C0de/smart</text>
<text text-anchor="start" x="575.5" y="-18.5" font-family="Helvetica,sans-Serif" font-size="10.00" fill="#000000">_engine/src/game_over</text>
<text text-anchor="middle" x="626.5" y="-7.5" font-family="Helvetica,sans-Serif" font-size="10.00" fill="#000000">_state.cpp</text>
</a>
</g>
</g>
<!-- Node5&#45;&gt;Node7 -->
<g id="edge4" class="edge">
<title>Node5&#45;&gt;Node7</title>
<path fill="none" stroke="#191970" d="M576.5548,-70.9452C586.2134,-61.2866 596.8465,-50.6535 605.8102,-41.6898"/>
<polygon fill="#191970" stroke="#191970" points="573.9988,-68.5515 569.4026,-78.0974 578.9485,-73.5012 573.9988,-68.5515"/>
</g>
<!-- Node8&#45;&gt;Node6 -->
<g id="edge6" class="edge">
<title>Node8&#45;&gt;Node6</title>
<path fill="none" stroke="#191970" d="M184.7074,-74.8949C219.0497,-62.1996 260.0954,-47.0263 289.8722,-36.0188"/>
<polygon fill="#191970" stroke="#191970" points="183.3798,-71.6541 175.2138,-78.4044 185.807,-78.2198 183.3798,-71.6541"/>
</g>
<!-- Node9 -->
<g id="node7" class="node">
<title>Node9</title>
<g id="a_node7"><a xlink:href="game__play__state_8cpp.html" target="_top" xlink:title="/mnt/hdd/C0de/smart\l_engine/src/game_play\l_state.cpp">
<polygon fill="none" stroke="#000000" points="0,-.5 0,-41.5 117,-41.5 117,-.5 0,-.5"/>
<text text-anchor="start" x="8" y="-29.5" font-family="Helvetica,sans-Serif" font-size="10.00" fill="#000000">/mnt/hdd/C0de/smart</text>
<text text-anchor="start" x="8" y="-18.5" font-family="Helvetica,sans-Serif" font-size="10.00" fill="#000000">_engine/src/game_play</text>
<text text-anchor="middle" x="58.5" y="-7.5" font-family="Helvetica,sans-Serif" font-size="10.00" fill="#000000">_state.cpp</text>
</a>
</g>
</g>
<!-- Node8&#45;&gt;Node9 -->
<g id="edge7" class="edge">
<title>Node8&#45;&gt;Node9</title>
<path fill="none" stroke="#191970" d="M96.8913,-70.0905C89.5182,-60.6626 81.4844,-50.3899 74.6805,-41.6898"/>
<polygon fill="#191970" stroke="#191970" points="94.2357,-72.3764 103.1531,-78.0974 99.7497,-68.0641 94.2357,-72.3764"/>
</g>
<!-- Node10&#45;&gt;Node6 -->
<g id="edge9" class="edge">
<title>Node10&#45;&gt;Node6</title>
<path fill="none" stroke="#191970" d="M277.3145,-70.9816C289.8719,-59.1807 303.9834,-45.9193 314.5137,-36.0233"/>
<polygon fill="#191970" stroke="#191970" points="274.6328,-68.6987 269.7425,-78.0974 279.4265,-73.7997 274.6328,-68.6987"/>
</g>
<!-- Node11 -->
<g id="node9" class="node">
<title>Node11</title>
<g id="a_node9"><a xlink:href="main__menu__state_8cpp.html" target="_top" xlink:title="/mnt/hdd/C0de/smart\l_engine/src/main_menu\l_state.cpp">
<polygon fill="none" stroke="#000000" points="135.5,-.5 135.5,-41.5 255.5,-41.5 255.5,-.5 135.5,-.5"/>
<text text-anchor="start" x="143.5" y="-29.5" font-family="Helvetica,sans-Serif" font-size="10.00" fill="#000000">/mnt/hdd/C0de/smart</text>
<text text-anchor="start" x="143.5" y="-18.5" font-family="Helvetica,sans-Serif" font-size="10.00" fill="#000000">_engine/src/main_menu</text>
<text text-anchor="middle" x="195.5" y="-7.5" font-family="Helvetica,sans-Serif" font-size="10.00" fill="#000000">_state.cpp</text>
</a>
</g>
</g>
<!-- Node10&#45;&gt;Node11 -->
<g id="edge10" class="edge">
<title>Node10&#45;&gt;Node11</title>
<path fill="none" stroke="#191970" d="M227.8454,-69.5181C221.6655,-60.2482 214.9761,-50.2141 209.2932,-41.6898"/>
<polygon fill="#191970" stroke="#191970" points="225.1057,-71.7184 233.565,-78.0974 230.9301,-67.8354 225.1057,-71.7184"/>
</g>
<!-- Node12&#45;&gt;Node6 -->
<g id="edge12" class="edge">
<title>Node12&#45;&gt;Node6</title>
<path fill="none" stroke="#191970" d="M385.9757,-71.3152C372.8728,-59.4312 358.078,-46.0126 347.0642,-36.0233"/>
<polygon fill="#191970" stroke="#191970" points="383.695,-73.9718 393.4536,-78.0974 388.3977,-68.7867 383.695,-73.9718"/>
</g>
<!-- Node13 -->
<g id="node11" class="node">
<title>Node13</title>
<g id="a_node11"><a xlink:href="splash__state_8cpp.html" target="_top" xlink:title="/mnt/hdd/C0de/smart\l_engine/src/splash_state.cpp">
<polygon fill="none" stroke="#000000" points="405.5,-6 405.5,-36 549.5,-36 549.5,-6 405.5,-6"/>
<text text-anchor="start" x="413.5" y="-24" font-family="Helvetica,sans-Serif" font-size="10.00" fill="#000000">/mnt/hdd/C0de/smart</text>
<text text-anchor="middle" x="477.5" y="-13" font-family="Helvetica,sans-Serif" font-size="10.00" fill="#000000">_engine/src/splash_state.cpp</text>
</a>
</g>
</g>
<!-- Node12&#45;&gt;Node13 -->
<g id="edge13" class="edge">
<title>Node12&#45;&gt;Node13</title>
<path fill="none" stroke="#191970" d="M439.1534,-70.0334C448.1164,-58.5725 458.0493,-45.8714 465.5597,-36.2679"/>
<polygon fill="#191970" stroke="#191970" points="436.2503,-68.0641 432.8469,-78.0974 441.7643,-72.3764 436.2503,-68.0641"/>
</g>
</g>
</svg>
        <g id="navigator" transform="translate(0 0)" fill="#404254">
                <rect fill="#f2f5e9" fill-opacity="0.5" stroke="#606060" stroke-width=".5" x="0" y="0" width="60" height="60"/>
                <use id="zoomplus" xlink:href="#zoomPlus" x="17" y="9" onmousedown="handleZoom(evt,'in')"/>
                <use id="zoomminus" xlink:href="#zoomMin" x="42" y="9" onmousedown="handleZoom(evt,'out')"/>
                <use id="reset" xlink:href="#resetDef" x="30" y="36" onmousedown="handleReset()"/>
                <g id="arrowUp" xlink:href="#dirArrow" transform="translate(30 24)" onmousedown="handlePan(0,-1)">
                  <use xlink:href="#rim" fill="#404040">
                        <set attributeName="fill" to="#808080" begin="arrowUp.mouseover" end="arrowUp.mouseout"/>
                  </use>
                  <path fill="none" stroke="white" stroke-width="1.5" d="M0,-3.0v7 M-2.5,-0.5L0,-3.0L2.5,-0.5"/>
                </g>
                <g id="arrowRight" xlink:href="#dirArrow" transform="rotate(90) translate(36 -43)" onmousedown="handlePan(1,0)">
                  <use xlink:href="#rim" fill="#404040">
                        <set attributeName="fill" to="#808080" begin="arrowRight.mouseover" end="arrowRight.mouseout"/>
                  </use>
                  <path fill="none" stroke="white" stroke-width="1.5" d="M0,-3.0v7 M-2.5,-0.5L0,-3.0L2.5,-0.5"/>
                </g>
                <g id="arrowDown" xlink:href="#dirArrow" transform="rotate(180) translate(-30 -48)" onmousedown="handlePan(0,1)">
                  <use xlink:href="#rim" fill="#404040">
                        <set attributeName="fill" to="#808080" begin="arrowDown.mouseover" end="arrowDown.mouseout"/>
                  </use>
                  <path fill="none" stroke="white" stroke-width="1.5" d="M0,-3.0v7 M-2.5,-0.5L0,-3.0L2.5,-0.5"/>
                </g>
                <g id="arrowLeft" xlink:href="#dirArrow" transform="rotate(270) translate(-36 17)" onmousedown="handlePan(-1,0)">
                  <use xlink:href="#rim" fill="#404040">
                        <set attributeName="fill" to="#808080" begin="arrowLeft.mouseover" end="arrowLeft.mouseout"/>
                  </use>
                  <path fill="none" stroke="white" stroke-width="1.5" d="M0,-3.0v7 M-2.5,-0.5L0,-3.0L2.5,-0.5"/>
                </g>
        </g>
        <svg viewBox="0 0 15 15" width="100%" height="30px" preserveAspectRatio="xMaxYMin meet">
         <g id="arrow_out" transform="scale(0.3 0.3)">
          <a xlink:href="Orthographic__camera_8h__dep__incl_org.svg" target="_base">
           <rect id="button" ry="5" rx="5" y="6" x="6" height="38" width="38"
                fill="#f2f5e9" fill-opacity="0.5" stroke="#606060" stroke-width="1.0"/>
           <path id="arrow"
             d="M 11.500037,31.436501 C 11.940474,20.09759 22.043105,11.32322 32.158766,21.979434 L 37.068811,17.246167 C 37.068811,17.246167 37.088388,32 37.088388,32 L 22.160133,31.978069 C 22.160133,31.978069 26.997745,27.140456 26.997745,27.140456 C 18.528582,18.264221 13.291696,25.230495 11.500037,31.436501 z"
             style="fill:#404040;"/>
          </a>
         </g>
        </svg>
</svg>
