<?xml version="1.0" encoding="UTF-8" standalone="no"?>
<!DOCTYPE svg PUBLIC "-//W3C//DTD SVG 1.1//EN"
 "http://www.w3.org/Graphics/SVG/1.1/DTD/svg11.dtd">
<!-- Generated by graphviz version 2.40.1 (20161225.0304)
 -->
<!-- Title: /mnt/hdd/C0de/smart_engine/include/resource_manager.h Pages: 1 -->
<svg width="379pt" height="162pt"
 viewBox="0.00 0.00 378.50 162.00" xmlns="http://www.w3.org/2000/svg" xmlns:xlink="http://www.w3.org/1999/xlink">
<g id="graph0" class="graph" transform="scale(1 1) rotate(0) translate(4 158)">
<title>/mnt/hdd/C0de/smart_engine/include/resource_manager.h</title>
<!-- Node0 -->
<g id="node1" class="node">
<title>Node0</title>
<polygon fill="#bfbfbf" stroke="#000000" points="29,-112.5 29,-153.5 154,-153.5 154,-112.5 29,-112.5"/>
<text text-anchor="start" x="37" y="-141.5" font-family="Helvetica,sans-Serif" font-size="10.00" fill="#000000">/mnt/hdd/C0de/smart</text>
<text text-anchor="start" x="37" y="-130.5" font-family="Helvetica,sans-Serif" font-size="10.00" fill="#000000">_engine/include/resource</text>
<text text-anchor="middle" x="91.5" y="-119.5" font-family="Helvetica,sans-Serif" font-size="10.00" fill="#000000">_manager.h</text>
</g>
<!-- Node1 -->
<g id="node2" class="node">
<title>Node1</title>
<polygon fill="none" stroke="#bfbfbf" points="0,-56.5 0,-75.5 35,-75.5 35,-56.5 0,-56.5"/>
<text text-anchor="middle" x="17.5" y="-63.5" font-family="Helvetica,sans-Serif" font-size="10.00" fill="#000000">map</text>
</g>
<!-- Node0&#45;&gt;Node1 -->
<g id="edge1" class="edge">
<title>Node0&#45;&gt;Node1</title>
<path fill="none" stroke="#191970" d="M68.4916,-112.168C58.0173,-102.6846 45.7886,-91.6127 35.9327,-82.689"/>
<polygon fill="#191970" stroke="#191970" points="38.0644,-79.8977 28.3023,-75.7805 33.3662,-85.0868 38.0644,-79.8977"/>
</g>
<!-- Node2 -->
<g id="node3" class="node">
<title>Node2</title>
<polygon fill="none" stroke="#bfbfbf" points="35,-.5 35,-19.5 76,-19.5 76,-.5 35,-.5"/>
<text text-anchor="middle" x="55.5" y="-7.5" font-family="Helvetica,sans-Serif" font-size="10.00" fill="#000000">string</text>
</g>
<!-- Node0&#45;&gt;Node2 -->
<g id="edge2" class="edge">
<title>Node0&#45;&gt;Node2</title>
<path fill="none" stroke="#191970" d="M85.4744,-112.4126C78.697,-89.2565 67.7747,-51.9384 61.1536,-29.3165"/>
<polygon fill="#191970" stroke="#191970" points="64.4539,-28.1324 58.2858,-19.5182 57.7358,-30.0987 64.4539,-28.1324"/>
</g>
<!-- Node3 -->
<g id="node4" class="node">
<title>Node3</title>
<g id="a_node4"><a xlink:href="texture_8h.html" target="_top" xlink:title="texture.h">
<polygon fill="none" stroke="#000000" points="92,-56.5 92,-75.5 147,-75.5 147,-56.5 92,-56.5"/>
<text text-anchor="middle" x="119.5" y="-63.5" font-family="Helvetica,sans-Serif" font-size="10.00" fill="#000000">texture.h</text>
</a>
</g>
</g>
<!-- Node0&#45;&gt;Node3 -->
<g id="edge3" class="edge">
<title>Node0&#45;&gt;Node3</title>
<path fill="none" stroke="#191970" d="M100.2059,-112.168C103.8124,-103.5381 107.9687,-93.5928 111.4979,-85.1479"/>
<polygon fill="#191970" stroke="#191970" points="114.786,-86.3568 115.4126,-75.7805 108.3273,-83.6576 114.786,-86.3568"/>
</g>
<!-- Node5 -->
<g id="node6" class="node">
<title>Node5</title>
<g id="a_node6"><a xlink:href="shader_8h.html" target="_top" xlink:title="shader.h">
<polygon fill="none" stroke="#000000" points="165.5,-56.5 165.5,-75.5 219.5,-75.5 219.5,-56.5 165.5,-56.5"/>
<text text-anchor="middle" x="192.5" y="-63.5" font-family="Helvetica,sans-Serif" font-size="10.00" fill="#000000">shader.h</text>
</a>
</g>
</g>
<!-- Node0&#45;&gt;Node5 -->
<g id="edge5" class="edge">
<title>Node0&#45;&gt;Node5</title>
<path fill="none" stroke="#191970" d="M122.6275,-112.3511C137.7472,-102.3212 155.5978,-90.4797 169.4717,-81.2762"/>
<polygon fill="#191970" stroke="#191970" points="171.5476,-84.0992 177.946,-75.6546 167.678,-78.266 171.5476,-84.0992"/>
</g>
<!-- Node4 -->
<g id="node5" class="node">
<title>Node4</title>
<polygon fill="none" stroke="#bfbfbf" points="94.5,-.5 94.5,-19.5 158.5,-19.5 158.5,-.5 94.5,-.5"/>
<text text-anchor="middle" x="126.5" y="-7.5" font-family="Helvetica,sans-Serif" font-size="10.00" fill="#000000">glad/glad.h</text>
</g>
<!-- Node3&#45;&gt;Node4 -->
<g id="edge4" class="edge">
<title>Node3&#45;&gt;Node4</title>
<path fill="none" stroke="#191970" d="M120.7193,-56.2455C121.6327,-48.9382 122.9132,-38.6944 124.0369,-29.7046"/>
<polygon fill="#191970" stroke="#191970" points="127.5272,-29.9996 125.2947,-19.6427 120.5813,-29.1313 127.5272,-29.9996"/>
</g>
<!-- Node5&#45;&gt;Node2 -->
<g id="edge6" class="edge">
<title>Node5&#45;&gt;Node2</title>
<path fill="none" stroke="#191970" d="M168.9489,-56.3733C145.8505,-46.9316 110.5437,-32.4996 85.459,-22.246"/>
<polygon fill="#191970" stroke="#191970" points="86.6433,-18.949 76.0624,-18.4051 83.9946,-25.4286 86.6433,-18.949"/>
</g>
<!-- Node5&#45;&gt;Node4 -->
<g id="edge7" class="edge">
<title>Node5&#45;&gt;Node4</title>
<path fill="none" stroke="#191970" d="M181.0037,-56.2455C171.2558,-47.9746 157.0741,-35.9416 145.6202,-26.2232"/>
<polygon fill="#191970" stroke="#191970" points="147.7541,-23.4437 137.8646,-19.6427 143.2253,-28.7813 147.7541,-23.4437"/>
</g>
<!-- Node6 -->
<g id="node7" class="node">
<title>Node6</title>
<polygon fill="none" stroke="#bfbfbf" points="176.5,-.5 176.5,-19.5 246.5,-19.5 246.5,-.5 176.5,-.5"/>
<text text-anchor="middle" x="211.5" y="-7.5" font-family="Helvetica,sans-Serif" font-size="10.00" fill="#000000">glm/glm.hpp</text>
</g>
<!-- Node5&#45;&gt;Node6 -->
<g id="edge8" class="edge">
<title>Node5&#45;&gt;Node6</title>
<path fill="none" stroke="#191970" d="M195.8095,-56.2455C198.3433,-48.7776 201.9177,-38.2427 205.015,-29.1137"/>
<polygon fill="#191970" stroke="#191970" points="208.3298,-30.237 208.2284,-19.6427 201.7009,-27.9879 208.3298,-30.237"/>
</g>
<!-- Node7 -->
<g id="node8" class="node">
<title>Node7</title>
<polygon fill="none" stroke="#bfbfbf" points="264.5,-.5 264.5,-19.5 370.5,-19.5 370.5,-.5 264.5,-.5"/>
<text text-anchor="middle" x="317.5" y="-7.5" font-family="Helvetica,sans-Serif" font-size="10.00" fill="#000000">glm/gtc/type_ptr.hpp</text>
</g>
<!-- Node5&#45;&gt;Node7 -->
<g id="edge9" class="edge">
<title>Node5&#45;&gt;Node7</title>
<path fill="none" stroke="#191970" d="M213.9883,-56.3733C234.144,-47.3435 264.488,-33.7494 287.118,-23.6111"/>
<polygon fill="#191970" stroke="#191970" points="288.5971,-26.7838 296.2921,-19.5011 285.7351,-20.3955 288.5971,-26.7838"/>
</g>
</g>
</svg>
