<?xml version="1.0" encoding="UTF-8" standalone="no"?>
<!DOCTYPE svg PUBLIC "-//W3C//DTD SVG 1.1//EN"
 "http://www.w3.org/Graphics/SVG/1.1/DTD/svg11.dtd">
<!-- Generated by graphviz version 2.40.1 (20161225.0304)
 -->
<!-- Title: /mnt/hdd/C0de/smart_engine/src/resource_manager.cpp Pages: 1 -->
<!--zoomable 229 -->
<svg id="main" version="1.1" xmlns="http://www.w3.org/2000/svg" xmlns:xlink="http://www.w3.org/1999/xlink" xml:space="preserve" onload="init(evt)">
<style type="text/css"><![CDATA[
.edge:hover path { stroke: red; }
.edge:hover polygon { stroke: red; fill: red; }
]]></style>
<script type="text/javascript"><![CDATA[
var edges = document.getElementsByTagName('g');
if (edges && edges.length) {
  for (var i=0;i<edges.length;i++) {
    if (edges[i].id.substr(0,4)=='edge') {
      edges[i].setAttribute('class','edge');
    }
  }
}
]]></script>
        <defs>
                <circle id="rim" cx="0" cy="0" r="7"/>
                <circle id="rim2" cx="0" cy="0" r="3.5"/>
                <g id="zoomPlus">
                        <use xlink:href="#rim" fill="#404040">
                                <set attributeName="fill" to="#808080" begin="zoomplus.mouseover" end="zoomplus.mouseout"/>
                        </use>
                        <path d="M-4,0h8M0,-4v8" fill="none" stroke="white" stroke-width="1.5" pointer-events="none"/>
                </g>
                <g id="zoomMin">
                        <use xlink:href="#rim" fill="#404040">
                                <set attributeName="fill" to="#808080" begin="zoomminus.mouseover" end="zoomminus.mouseout"/>
                        </use>
                        <path d="M-4,0h8" fill="none" stroke="white" stroke-width="1.5" pointer-events="none"/>
                </g>
                <g id="dirArrow">
                        <path fill="none" stroke="white" stroke-width="1.5" d="M0,-3.0v7 M-2.5,-0.5L0,-3.0L2.5,-0.5"/>
                </g>
               <g id="resetDef">
                       <use xlink:href="#rim2" fill="#404040">
                               <set attributeName="fill" to="#808080" begin="reset.mouseover" end="reset.mouseout"/>
                       </use>
               </g>
        </defs>

<script type="text/javascript">
var viewWidth = 905;
var viewHeight = 229;
var sectionId = 'dynsection-0';
</script>
<script xlink:href="svgpan.js"/>
<svg id="graph" class="graph">
<g id="viewport">
<title>/mnt/hdd/C0de/smart_engine/src/resource_manager.cpp</title>
<!-- Node0 -->
<g id="node1" class="node">
<title>Node0</title>
<polygon fill="#bfbfbf" stroke="#000000" points="360.5,-179.5 360.5,-220.5 469.5,-220.5 469.5,-179.5 360.5,-179.5"/>
<text text-anchor="start" x="368.5" y="-208.5" font-family="Helvetica,sans-Serif" font-size="10.00" fill="#000000">/mnt/hdd/C0de/smart</text>
<text text-anchor="start" x="368.5" y="-197.5" font-family="Helvetica,sans-Serif" font-size="10.00" fill="#000000">_engine/src/resource</text>
<text text-anchor="middle" x="415" y="-186.5" font-family="Helvetica,sans-Serif" font-size="10.00" fill="#000000">_manager.cpp</text>
</g>
<!-- Node1 -->
<g id="node2" class="node">
<title>Node1</title>
<g id="a_node2"><a xlink:href="resource__manager_8h.html" target="_top" xlink:title="../include/resource\l_manager.h">
<polygon fill="none" stroke="#000000" points="184.5,-112.5 184.5,-142.5 281.5,-142.5 281.5,-112.5 184.5,-112.5"/>
<text text-anchor="start" x="192.5" y="-130.5" font-family="Helvetica,sans-Serif" font-size="10.00" fill="#000000">../include/resource</text>
<text text-anchor="middle" x="233" y="-119.5" font-family="Helvetica,sans-Serif" font-size="10.00" fill="#000000">_manager.h</text>
</a>
</g>
</g>
<!-- Node0&#45;&gt;Node1 -->
<g id="edge1" class="edge">
<title>Node0&#45;&gt;Node1</title>
<path fill="none" stroke="#191970" d="M363.3329,-179.4183C337.2405,-169.0244 305.8058,-156.5023 280.3457,-146.3602"/>
<polygon fill="#191970" stroke="#191970" points="281.4893,-143.0484 270.904,-142.5991 278.8987,-149.5514 281.4893,-143.0484"/>
</g>
<!-- Node9 -->
<g id="node10" class="node">
<title>Node9</title>
<polygon fill="none" stroke="#bfbfbf" points="317,-118 317,-137 371,-137 371,-118 317,-118"/>
<text text-anchor="middle" x="344" y="-125" font-family="Helvetica,sans-Serif" font-size="10.00" fill="#000000">iostream</text>
</g>
<!-- Node0&#45;&gt;Node9 -->
<g id="edge11" class="edge">
<title>Node0&#45;&gt;Node9</title>
<path fill="none" stroke="#191970" d="M394.8442,-179.4183C383.9978,-168.3428 370.785,-154.8509 360.5474,-144.397"/>
<polygon fill="#191970" stroke="#191970" points="362.8844,-141.7811 353.387,-137.0853 357.8832,-146.6788 362.8844,-141.7811"/>
</g>
<!-- Node10 -->
<g id="node11" class="node">
<title>Node10</title>
<polygon fill="none" stroke="#bfbfbf" points="389,-118 389,-137 441,-137 441,-118 389,-118"/>
<text text-anchor="middle" x="415" y="-125" font-family="Helvetica,sans-Serif" font-size="10.00" fill="#000000">sstream</text>
</g>
<!-- Node0&#45;&gt;Node10 -->
<g id="edge12" class="edge">
<title>Node0&#45;&gt;Node10</title>
<path fill="none" stroke="#191970" d="M415,-179.4183C415,-169.32 415,-157.213 415,-147.2314"/>
<polygon fill="#191970" stroke="#191970" points="418.5001,-147.0853 415,-137.0853 411.5001,-147.0854 418.5001,-147.0853"/>
</g>
<!-- Node11 -->
<g id="node12" class="node">
<title>Node11</title>
<polygon fill="none" stroke="#bfbfbf" points="459,-118 459,-137 509,-137 509,-118 459,-118"/>
<text text-anchor="middle" x="484" y="-125" font-family="Helvetica,sans-Serif" font-size="10.00" fill="#000000">fstream</text>
</g>
<!-- Node0&#45;&gt;Node11 -->
<g id="edge13" class="edge">
<title>Node0&#45;&gt;Node11</title>
<path fill="none" stroke="#191970" d="M434.5881,-179.4183C445.1289,-168.3428 457.9695,-154.8509 467.9187,-144.397"/>
<polygon fill="#191970" stroke="#191970" points="470.5186,-146.7421 474.8774,-137.0853 465.448,-141.9162 470.5186,-146.7421"/>
</g>
<!-- Node12 -->
<g id="node13" class="node">
<title>Node12</title>
<g id="a_node13"><a xlink:href="stb__image_8h.html" target="_top" xlink:title="../include/stb_image.h">
<polygon fill="none" stroke="#000000" points="535.5,-118 535.5,-137 648.5,-137 648.5,-118 535.5,-118"/>
<text text-anchor="middle" x="592" y="-125" font-family="Helvetica,sans-Serif" font-size="10.00" fill="#000000">../include/stb_image.h</text>
</a>
</g>
</g>
<!-- Node0&#45;&gt;Node12 -->
<g id="edge14" class="edge">
<title>Node0&#45;&gt;Node12</title>
<path fill="none" stroke="#191970" d="M465.2476,-179.4183C495.3358,-167.0941 532.7285,-151.7779 559.0786,-140.9848"/>
<polygon fill="#191970" stroke="#191970" points="560.6714,-144.1146 568.5985,-137.0853 558.0181,-137.637 560.6714,-144.1146"/>
</g>
<!-- Node2 -->
<g id="node3" class="node">
<title>Node2</title>
<polygon fill="none" stroke="#bfbfbf" points="215.5,-56.5 215.5,-75.5 250.5,-75.5 250.5,-56.5 215.5,-56.5"/>
<text text-anchor="middle" x="233" y="-63.5" font-family="Helvetica,sans-Serif" font-size="10.00" fill="#000000">map</text>
</g>
<!-- Node1&#45;&gt;Node2 -->
<g id="edge2" class="edge">
<title>Node1&#45;&gt;Node2</title>
<path fill="none" stroke="#191970" d="M233,-112.2977C233,-104.3834 233,-94.6043 233,-86.0759"/>
<polygon fill="#191970" stroke="#191970" points="236.5001,-85.8469 233,-75.8469 229.5001,-85.847 236.5001,-85.8469"/>
</g>
<!-- Node3 -->
<g id="node4" class="node">
<title>Node3</title>
<polygon fill="none" stroke="#bfbfbf" points="294.5,-.5 294.5,-19.5 335.5,-19.5 335.5,-.5 294.5,-.5"/>
<text text-anchor="middle" x="315" y="-7.5" font-family="Helvetica,sans-Serif" font-size="10.00" fill="#000000">string</text>
</g>
<!-- Node1&#45;&gt;Node3 -->
<g id="edge3" class="edge">
<title>Node1&#45;&gt;Node3</title>
<path fill="none" stroke="#191970" d="M243.7201,-112.1389C258.8296,-90.4881 286.3353,-51.0745 302.4017,-28.0525"/>
<polygon fill="#191970" stroke="#191970" points="305.4759,-29.763 308.3287,-19.5595 299.7356,-25.757 305.4759,-29.763"/>
</g>
<!-- Node4 -->
<g id="node5" class="node">
<title>Node4</title>
<g id="a_node5"><a xlink:href="texture_8h.html" target="_top" xlink:title="texture.h">
<polygon fill="none" stroke="#000000" points="54.5,-56.5 54.5,-75.5 109.5,-75.5 109.5,-56.5 54.5,-56.5"/>
<text text-anchor="middle" x="82" y="-63.5" font-family="Helvetica,sans-Serif" font-size="10.00" fill="#000000">texture.h</text>
</a>
</g>
</g>
<!-- Node1&#45;&gt;Node4 -->
<g id="edge4" class="edge">
<title>Node1&#45;&gt;Node4</title>
<path fill="none" stroke="#191970" d="M196.0612,-112.4554C171.198,-102.329 138.7082,-89.0964 114.7664,-79.3453"/>
<polygon fill="#191970" stroke="#191970" points="115.9812,-76.0609 105.3996,-75.5303 113.3407,-82.5438 115.9812,-76.0609"/>
</g>
<!-- Node6 -->
<g id="node7" class="node">
<title>Node6</title>
<g id="a_node7"><a xlink:href="shader_8h.html" target="_top" xlink:title="shader.h">
<polygon fill="none" stroke="#000000" points="143,-56.5 143,-75.5 197,-75.5 197,-56.5 143,-56.5"/>
<text text-anchor="middle" x="170" y="-63.5" font-family="Helvetica,sans-Serif" font-size="10.00" fill="#000000">shader.h</text>
</a>
</g>
</g>
<!-- Node1&#45;&gt;Node6 -->
<g id="edge6" class="edge">
<title>Node1&#45;&gt;Node6</title>
<path fill="none" stroke="#191970" d="M217.427,-112.2977C208.3175,-103.4052 196.7966,-92.1586 187.3909,-82.9769"/>
<polygon fill="#191970" stroke="#191970" points="189.6878,-80.3278 180.0871,-75.8469 184.798,-85.3368 189.6878,-80.3278"/>
</g>
<!-- Node5 -->
<g id="node6" class="node">
<title>Node5</title>
<polygon fill="none" stroke="#bfbfbf" points="0,-.5 0,-19.5 64,-19.5 64,-.5 0,-.5"/>
<text text-anchor="middle" x="32" y="-7.5" font-family="Helvetica,sans-Serif" font-size="10.00" fill="#000000">glad/glad.h</text>
</g>
<!-- Node4&#45;&gt;Node5 -->
<g id="edge5" class="edge">
<title>Node4&#45;&gt;Node5</title>
<path fill="none" stroke="#191970" d="M73.2907,-56.2455C66.1927,-48.2958 55.9916,-36.8706 47.505,-27.3656"/>
<polygon fill="#191970" stroke="#191970" points="49.8805,-24.771 40.6095,-19.6427 44.6589,-29.4331 49.8805,-24.771"/>
</g>
<!-- Node6&#45;&gt;Node3 -->
<g id="edge7" class="edge">
<title>Node6&#45;&gt;Node3</title>
<path fill="none" stroke="#191970" d="M194.9264,-56.3733C219.769,-46.7789 257.9541,-32.0315 284.5711,-21.7519"/>
<polygon fill="#191970" stroke="#191970" points="286.0864,-24.9187 294.1539,-18.0509 283.5645,-18.3887 286.0864,-24.9187"/>
</g>
<!-- Node6&#45;&gt;Node5 -->
<g id="edge8" class="edge">
<title>Node6&#45;&gt;Node5</title>
<path fill="none" stroke="#191970" d="M146.277,-56.3733C123.8263,-47.2629 89.9261,-33.5062 64.8745,-23.3404"/>
<polygon fill="#191970" stroke="#191970" points="65.9957,-20.0182 55.4135,-19.5011 63.3635,-26.5045 65.9957,-20.0182"/>
</g>
<!-- Node7 -->
<g id="node8" class="node">
<title>Node7</title>
<polygon fill="none" stroke="#bfbfbf" points="206,-.5 206,-19.5 276,-19.5 276,-.5 206,-.5"/>
<text text-anchor="middle" x="241" y="-7.5" font-family="Helvetica,sans-Serif" font-size="10.00" fill="#000000">glm/glm.hpp</text>
</g>
<!-- Node6&#45;&gt;Node7 -->
<g id="edge9" class="edge">
<title>Node6&#45;&gt;Node7</title>
<path fill="none" stroke="#191970" d="M182.3673,-56.2455C192.9554,-47.8943 208.4064,-35.7076 220.7893,-25.9408"/>
<polygon fill="#191970" stroke="#191970" points="223.0903,-28.5837 228.7745,-19.6427 218.7553,-23.0875 223.0903,-28.5837"/>
</g>
<!-- Node8 -->
<g id="node9" class="node">
<title>Node8</title>
<polygon fill="none" stroke="#bfbfbf" points="82,-.5 82,-19.5 188,-19.5 188,-.5 82,-.5"/>
<text text-anchor="middle" x="135" y="-7.5" font-family="Helvetica,sans-Serif" font-size="10.00" fill="#000000">glm/gtc/type_ptr.hpp</text>
</g>
<!-- Node6&#45;&gt;Node8 -->
<g id="edge10" class="edge">
<title>Node6&#45;&gt;Node8</title>
<path fill="none" stroke="#191970" d="M163.9035,-56.2455C159.0855,-48.5367 152.2249,-37.5598 146.3968,-28.2348"/>
<polygon fill="#191970" stroke="#191970" points="149.2947,-26.2677 141.0267,-19.6427 143.3587,-29.9777 149.2947,-26.2677"/>
</g>
<!-- Node13 -->
<g id="node14" class="node">
<title>Node13</title>
<polygon fill="none" stroke="#bfbfbf" points="375,-56.5 375,-75.5 421,-75.5 421,-56.5 375,-56.5"/>
<text text-anchor="middle" x="398" y="-63.5" font-family="Helvetica,sans-Serif" font-size="10.00" fill="#000000">stdio.h</text>
</g>
<!-- Node12&#45;&gt;Node13 -->
<g id="edge15" class="edge">
<title>Node12&#45;&gt;Node13</title>
<path fill="none" stroke="#191970" d="M561.6875,-117.8906C526.1331,-106.6195 467.4106,-88.0039 430.8108,-76.4014"/>
<polygon fill="#191970" stroke="#191970" points="431.7023,-73.0124 421.1121,-73.3268 429.5869,-79.6851 431.7023,-73.0124"/>
</g>
<!-- Node14 -->
<g id="node15" class="node">
<title>Node14</title>
<polygon fill="none" stroke="#bfbfbf" points="439,-56.5 439,-75.5 487,-75.5 487,-56.5 439,-56.5"/>
<text text-anchor="middle" x="463" y="-63.5" font-family="Helvetica,sans-Serif" font-size="10.00" fill="#000000">stdlib.h</text>
</g>
<!-- Node12&#45;&gt;Node14 -->
<g id="edge16" class="edge">
<title>Node12&#45;&gt;Node14</title>
<path fill="none" stroke="#191970" d="M571.8438,-117.8906C550.449,-107.6908 516.438,-91.4763 492.1298,-79.8875"/>
<polygon fill="#191970" stroke="#191970" points="493.5476,-76.686 483.0147,-75.5419 490.5352,-83.0047 493.5476,-76.686"/>
</g>
<!-- Node15 -->
<g id="node16" class="node">
<title>Node15</title>
<polygon fill="none" stroke="#bfbfbf" points="505,-56.5 505,-75.5 557,-75.5 557,-56.5 505,-56.5"/>
<text text-anchor="middle" x="531" y="-63.5" font-family="Helvetica,sans-Serif" font-size="10.00" fill="#000000">stdarg.h</text>
</g>
<!-- Node12&#45;&gt;Node15 -->
<g id="edge17" class="edge">
<title>Node12&#45;&gt;Node15</title>
<path fill="none" stroke="#191970" d="M582.4688,-117.8906C573.2121,-108.5581 558.961,-94.1902 547.7997,-82.9374"/>
<polygon fill="#191970" stroke="#191970" points="550.1928,-80.38 540.6656,-75.7449 545.2228,-85.3095 550.1928,-80.38"/>
</g>
<!-- Node16 -->
<g id="node17" class="node">
<title>Node16</title>
<polygon fill="none" stroke="#bfbfbf" points="575,-56.5 575,-75.5 627,-75.5 627,-56.5 575,-56.5"/>
<text text-anchor="middle" x="601" y="-63.5" font-family="Helvetica,sans-Serif" font-size="10.00" fill="#000000">stddef.h</text>
</g>
<!-- Node12&#45;&gt;Node16 -->
<g id="edge18" class="edge">
<title>Node12&#45;&gt;Node16</title>
<path fill="none" stroke="#191970" d="M593.4063,-117.8906C594.6538,-109.3657 596.5162,-96.6392 598.0844,-85.9235"/>
<polygon fill="#191970" stroke="#191970" points="601.589,-86.1463 599.5739,-75.7449 594.6627,-85.1326 601.589,-86.1463"/>
</g>
<!-- Node17 -->
<g id="node18" class="node">
<title>Node17</title>
<polygon fill="none" stroke="#bfbfbf" points="645.5,-56.5 645.5,-75.5 694.5,-75.5 694.5,-56.5 645.5,-56.5"/>
<text text-anchor="middle" x="670" y="-63.5" font-family="Helvetica,sans-Serif" font-size="10.00" fill="#000000">string.h</text>
</g>
<!-- Node12&#45;&gt;Node17 -->
<g id="edge19" class="edge">
<title>Node12&#45;&gt;Node17</title>
<path fill="none" stroke="#191970" d="M604.1875,-117.8906C616.437,-108.2324 635.5263,-93.1812 649.9977,-81.771"/>
<polygon fill="#191970" stroke="#191970" points="652.2124,-84.4819 657.8981,-75.5419 647.8783,-78.985 652.2124,-84.4819"/>
</g>
<!-- Node18 -->
<g id="node19" class="node">
<title>Node18</title>
<polygon fill="none" stroke="#bfbfbf" points="713,-56.5 713,-75.5 761,-75.5 761,-56.5 713,-56.5"/>
<text text-anchor="middle" x="737" y="-63.5" font-family="Helvetica,sans-Serif" font-size="10.00" fill="#000000">limits.h</text>
</g>
<!-- Node12&#45;&gt;Node18 -->
<g id="edge20" class="edge">
<title>Node12&#45;&gt;Node18</title>
<path fill="none" stroke="#191970" d="M614.6563,-117.8906C638.9174,-107.6005 677.6118,-91.1888 704.98,-79.5809"/>
<polygon fill="#191970" stroke="#191970" points="706.6633,-82.6688 714.5028,-75.5419 703.93,-76.2245 706.6633,-82.6688"/>
</g>
<!-- Node19 -->
<g id="node20" class="node">
<title>Node19</title>
<polygon fill="none" stroke="#bfbfbf" points="779.5,-56.5 779.5,-75.5 826.5,-75.5 826.5,-56.5 779.5,-56.5"/>
<text text-anchor="middle" x="803" y="-63.5" font-family="Helvetica,sans-Serif" font-size="10.00" fill="#000000">math.h</text>
</g>
<!-- Node12&#45;&gt;Node19 -->
<g id="edge21" class="edge">
<title>Node12&#45;&gt;Node19</title>
<path fill="none" stroke="#191970" d="M625.4995,-117.9439C659.3481,-108.2581 713.3998,-92.7095 769.4698,-76.1322"/>
<polygon fill="#191970" stroke="#191970" points="770.623,-79.4411 779.2177,-73.2458 768.6355,-72.7291 770.623,-79.4411"/>
</g>
<!-- Node20 -->
<g id="node21" class="node">
<title>Node20</title>
<polygon fill="none" stroke="#bfbfbf" points="845,-56.5 845,-75.5 897,-75.5 897,-56.5 845,-56.5"/>
<text text-anchor="middle" x="871" y="-63.5" font-family="Helvetica,sans-Serif" font-size="10.00" fill="#000000">assert.h</text>
</g>
<!-- Node12&#45;&gt;Node20 -->
<g id="edge22" class="edge">
<title>Node12&#45;&gt;Node20</title>
<path fill="none" stroke="#191970" d="M642.2368,-117.9691C689.6067,-108.7411 762.7748,-93.8687 834.9647,-76.1395"/>
<polygon fill="#191970" stroke="#191970" points="835.814,-79.535 844.6799,-73.7345 834.1318,-72.7401 835.814,-79.535"/>
</g>
<!-- Node21 -->
<g id="node22" class="node">
<title>Node21</title>
<polygon fill="none" stroke="#bfbfbf" points="307.5,-56.5 307.5,-75.5 356.5,-75.5 356.5,-56.5 307.5,-56.5"/>
<text text-anchor="middle" x="332" y="-63.5" font-family="Helvetica,sans-Serif" font-size="10.00" fill="#000000">stdint.h</text>
</g>
<!-- Node12&#45;&gt;Node21 -->
<g id="edge23" class="edge">
<title>Node12&#45;&gt;Node21</title>
<path fill="none" stroke="#191970" d="M546.3469,-117.9666C502.7016,-108.658 434.8427,-93.6806 366.861,-76.108"/>
<polygon fill="#191970" stroke="#191970" points="367.3922,-72.6297 356.8329,-73.4969 365.6282,-79.4038 367.3922,-72.6297"/>
</g>
</g>
</svg>
        <g id="navigator" transform="translate(0 0)" fill="#404254">
                <rect fill="#f2f5e9" fill-opacity="0.5" stroke="#606060" stroke-width=".5" x="0" y="0" width="60" height="60"/>
                <use id="zoomplus" xlink:href="#zoomPlus" x="17" y="9" onmousedown="handleZoom(evt,'in')"/>
                <use id="zoomminus" xlink:href="#zoomMin" x="42" y="9" onmousedown="handleZoom(evt,'out')"/>
                <use id="reset" xlink:href="#resetDef" x="30" y="36" onmousedown="handleReset()"/>
                <g id="arrowUp" xlink:href="#dirArrow" transform="translate(30 24)" onmousedown="handlePan(0,-1)">
                  <use xlink:href="#rim" fill="#404040">
                        <set attributeName="fill" to="#808080" begin="arrowUp.mouseover" end="arrowUp.mouseout"/>
                  </use>
                  <path fill="none" stroke="white" stroke-width="1.5" d="M0,-3.0v7 M-2.5,-0.5L0,-3.0L2.5,-0.5"/>
                </g>
                <g id="arrowRight" xlink:href="#dirArrow" transform="rotate(90) translate(36 -43)" onmousedown="handlePan(1,0)">
                  <use xlink:href="#rim" fill="#404040">
                        <set attributeName="fill" to="#808080" begin="arrowRight.mouseover" end="arrowRight.mouseout"/>
                  </use>
                  <path fill="none" stroke="white" stroke-width="1.5" d="M0,-3.0v7 M-2.5,-0.5L0,-3.0L2.5,-0.5"/>
                </g>
                <g id="arrowDown" xlink:href="#dirArrow" transform="rotate(180) translate(-30 -48)" onmousedown="handlePan(0,1)">
                  <use xlink:href="#rim" fill="#404040">
                        <set attributeName="fill" to="#808080" begin="arrowDown.mouseover" end="arrowDown.mouseout"/>
                  </use>
                  <path fill="none" stroke="white" stroke-width="1.5" d="M0,-3.0v7 M-2.5,-0.5L0,-3.0L2.5,-0.5"/>
                </g>
                <g id="arrowLeft" xlink:href="#dirArrow" transform="rotate(270) translate(-36 17)" onmousedown="handlePan(-1,0)">
                  <use xlink:href="#rim" fill="#404040">
                        <set attributeName="fill" to="#808080" begin="arrowLeft.mouseover" end="arrowLeft.mouseout"/>
                  </use>
                  <path fill="none" stroke="white" stroke-width="1.5" d="M0,-3.0v7 M-2.5,-0.5L0,-3.0L2.5,-0.5"/>
                </g>
        </g>
        <svg viewBox="0 0 15 15" width="100%" height="30px" preserveAspectRatio="xMaxYMin meet">
         <g id="arrow_out" transform="scale(0.3 0.3)">
          <a xlink:href="resource__manager_8cpp__incl_org.svg" target="_base">
           <rect id="button" ry="5" rx="5" y="6" x="6" height="38" width="38"
                fill="#f2f5e9" fill-opacity="0.5" stroke="#606060" stroke-width="1.0"/>
           <path id="arrow"
             d="M 11.500037,31.436501 C 11.940474,20.09759 22.043105,11.32322 32.158766,21.979434 L 37.068811,17.246167 C 37.068811,17.246167 37.088388,32 37.088388,32 L 22.160133,31.978069 C 22.160133,31.978069 26.997745,27.140456 26.997745,27.140456 C 18.528582,18.264221 13.291696,25.230495 11.500037,31.436501 z"
             style="fill:#404040;"/>
          </a>
         </g>
        </svg>
</svg>
