<?xml version="1.0" encoding="UTF-8" standalone="no"?>
<!DOCTYPE svg PUBLIC "-//W3C//DTD SVG 1.1//EN"
 "http://www.w3.org/Graphics/SVG/1.1/DTD/svg11.dtd">
<!-- Generated by graphviz version 2.40.1 (20161225.0304)
 -->
<!-- Title: /mnt/hdd/C0de/smart_engine/include/resource_manager.h Pages: 1 -->
<!--zoomable 284 -->
<svg id="main" version="1.1" xmlns="http://www.w3.org/2000/svg" xmlns:xlink="http://www.w3.org/1999/xlink" xml:space="preserve" onload="init(evt)">
<style type="text/css"><![CDATA[
.edge:hover path { stroke: red; }
.edge:hover polygon { stroke: red; fill: red; }
]]></style>
<script type="text/javascript"><![CDATA[
var edges = document.getElementsByTagName('g');
if (edges && edges.length) {
  for (var i=0;i<edges.length;i++) {
    if (edges[i].id.substr(0,4)=='edge') {
      edges[i].setAttribute('class','edge');
    }
  }
}
]]></script>
        <defs>
                <circle id="rim" cx="0" cy="0" r="7"/>
                <circle id="rim2" cx="0" cy="0" r="3.5"/>
                <g id="zoomPlus">
                        <use xlink:href="#rim" fill="#404040">
                                <set attributeName="fill" to="#808080" begin="zoomplus.mouseover" end="zoomplus.mouseout"/>
                        </use>
                        <path d="M-4,0h8M0,-4v8" fill="none" stroke="white" stroke-width="1.5" pointer-events="none"/>
                </g>
                <g id="zoomMin">
                        <use xlink:href="#rim" fill="#404040">
                                <set attributeName="fill" to="#808080" begin="zoomminus.mouseover" end="zoomminus.mouseout"/>
                        </use>
                        <path d="M-4,0h8" fill="none" stroke="white" stroke-width="1.5" pointer-events="none"/>
                </g>
                <g id="dirArrow">
                        <path fill="none" stroke="white" stroke-width="1.5" d="M0,-3.0v7 M-2.5,-0.5L0,-3.0L2.5,-0.5"/>
                </g>
               <g id="resetDef">
                       <use xlink:href="#rim2" fill="#404040">
                               <set attributeName="fill" to="#808080" begin="reset.mouseover" end="reset.mouseout"/>
                       </use>
               </g>
        </defs>

<script type="text/javascript">
var viewWidth = 1282;
var viewHeight = 284;
var sectionId = 'dynsection-1';
</script>
<script xlink:href="svgpan.js"/>
<svg id="graph" class="graph">
<g id="viewport">
<title>/mnt/hdd/C0de/smart_engine/include/resource_manager.h</title>
<!-- Node8 -->
<g id="node1" class="node">
<title>Node8</title>
<polygon fill="#bfbfbf" stroke="#000000" points="950,-234.5 950,-275.5 1075,-275.5 1075,-234.5 950,-234.5"/>
<text text-anchor="start" x="958" y="-263.5" font-family="Helvetica,sans-Serif" font-size="10.00" fill="#000000">/mnt/hdd/C0de/smart</text>
<text text-anchor="start" x="958" y="-252.5" font-family="Helvetica,sans-Serif" font-size="10.00" fill="#000000">_engine/include/resource</text>
<text text-anchor="middle" x="1012.5" y="-241.5" font-family="Helvetica,sans-Serif" font-size="10.00" fill="#000000">_manager.h</text>
</g>
<!-- Node9 -->
<g id="node2" class="node">
<title>Node9</title>
<g id="a_node2"><a xlink:href="entity_8h.html" target="_top" xlink:title="/mnt/hdd/C0de/smart\l_engine/include/entity.h">
<polygon fill="none" stroke="#000000" points="700,-162 700,-192 819,-192 819,-162 700,-162"/>
<text text-anchor="start" x="708" y="-180" font-family="Helvetica,sans-Serif" font-size="10.00" fill="#000000">/mnt/hdd/C0de/smart</text>
<text text-anchor="middle" x="759.5" y="-169" font-family="Helvetica,sans-Serif" font-size="10.00" fill="#000000">_engine/include/entity.h</text>
</a>
</g>
</g>
<!-- Node8&#45;&gt;Node9 -->
<g id="edge1" class="edge">
<title>Node8&#45;&gt;Node9</title>
<path fill="none" stroke="#191970" d="M940.27,-232.7315C897.9726,-219.6911 845.6866,-203.5714 808.2458,-192.0284"/>
<polygon fill="#191970" stroke="#191970" points="939.3733,-236.1175 949.9607,-235.7191 941.4357,-229.4282 939.3733,-236.1175"/>
</g>
<!-- Node12 -->
<g id="node5" class="node">
<title>Node12</title>
<g id="a_node5"><a xlink:href="game_8cpp.html" target="_top" xlink:title="/mnt/hdd/C0de/smart\l_engine/src/game.cpp">
<polygon fill="none" stroke="#000000" points="946,-6 946,-36 1059,-36 1059,-6 946,-6"/>
<text text-anchor="start" x="954" y="-24" font-family="Helvetica,sans-Serif" font-size="10.00" fill="#000000">/mnt/hdd/C0de/smart</text>
<text text-anchor="middle" x="1002.5" y="-13" font-family="Helvetica,sans-Serif" font-size="10.00" fill="#000000">_engine/src/game.cpp</text>
</a>
</g>
</g>
<!-- Node8&#45;&gt;Node12 -->
<g id="edge11" class="edge">
<title>Node8&#45;&gt;Node12</title>
<path fill="none" stroke="#191970" d="M998.519,-224.9143C995.2192,-216.3979 992.1755,-206.9941 990.5,-198 979.501,-138.9563 992.2209,-67.1639 998.9072,-36.3026"/>
<polygon fill="#191970" stroke="#191970" points="995.3942,-226.5174 1002.4438,-234.4266 1001.8651,-223.8475 995.3942,-226.5174"/>
</g>
<!-- Node19 -->
<g id="node12" class="node">
<title>Node19</title>
<g id="a_node12"><a xlink:href="resource__manager_8cpp.html" target="_top" xlink:title="/mnt/hdd/C0de/smart\l_engine/src/resource\l_manager.cpp">
<polygon fill="none" stroke="#000000" points="1000,-156.5 1000,-197.5 1109,-197.5 1109,-156.5 1000,-156.5"/>
<text text-anchor="start" x="1008" y="-185.5" font-family="Helvetica,sans-Serif" font-size="10.00" fill="#000000">/mnt/hdd/C0de/smart</text>
<text text-anchor="start" x="1008" y="-174.5" font-family="Helvetica,sans-Serif" font-size="10.00" fill="#000000">_engine/src/resource</text>
<text text-anchor="middle" x="1054.5" y="-163.5" font-family="Helvetica,sans-Serif" font-size="10.00" fill="#000000">_manager.cpp</text>
</a>
</g>
</g>
<!-- Node8&#45;&gt;Node19 -->
<g id="edge12" class="edge">
<title>Node8&#45;&gt;Node19</title>
<path fill="none" stroke="#191970" d="M1028.5294,-225.2312C1033.4777,-216.0415 1038.8166,-206.1263 1043.3593,-197.6898"/>
<polygon fill="#191970" stroke="#191970" points="1025.4146,-223.6333 1023.7552,-234.0974 1031.5779,-226.9521 1025.4146,-223.6333"/>
</g>
<!-- Node20 -->
<g id="node13" class="node">
<title>Node20</title>
<g id="a_node13"><a xlink:href="text__renderer_8cpp.html" target="_top" xlink:title="/mnt/hdd/C0de/smart\l_engine/src/text_renderer.cpp">
<polygon fill="none" stroke="#000000" points="1127.5,-162 1127.5,-192 1273.5,-192 1273.5,-162 1127.5,-162"/>
<text text-anchor="start" x="1135.5" y="-180" font-family="Helvetica,sans-Serif" font-size="10.00" fill="#000000">/mnt/hdd/C0de/smart</text>
<text text-anchor="middle" x="1200.5" y="-169" font-family="Helvetica,sans-Serif" font-size="10.00" fill="#000000">_engine/src/text_renderer.cpp</text>
</a>
</g>
</g>
<!-- Node8&#45;&gt;Node20 -->
<g id="edge13" class="edge">
<title>Node8&#45;&gt;Node20</title>
<path fill="none" stroke="#191970" d="M1071.9894,-230.3182C1102.2228,-217.7746 1137.9871,-202.9362 1164.1002,-192.102"/>
<polygon fill="#191970" stroke="#191970" points="1070.2823,-227.2372 1062.387,-234.3022 1072.9648,-233.7028 1070.2823,-227.2372"/>
</g>
<!-- Node10 -->
<g id="node3" class="node">
<title>Node10</title>
<g id="a_node3"><a xlink:href="entity__manager_8h.html" target="_top" xlink:title="/mnt/hdd/C0de/smart\l_engine/include/entity\l_manager.h">
<polygon fill="none" stroke="#000000" points="543,-78.5 543,-119.5 654,-119.5 654,-78.5 543,-78.5"/>
<text text-anchor="start" x="551" y="-107.5" font-family="Helvetica,sans-Serif" font-size="10.00" fill="#000000">/mnt/hdd/C0de/smart</text>
<text text-anchor="start" x="551" y="-96.5" font-family="Helvetica,sans-Serif" font-size="10.00" fill="#000000">_engine/include/entity</text>
<text text-anchor="middle" x="598.5" y="-85.5" font-family="Helvetica,sans-Serif" font-size="10.00" fill="#000000">_manager.h</text>
</a>
</g>
</g>
<!-- Node9&#45;&gt;Node10 -->
<g id="edge2" class="edge">
<title>Node9&#45;&gt;Node10</title>
<path fill="none" stroke="#191970" d="M719.3255,-157.5366C695.4761,-145.9822 665.2602,-131.3435 641.0115,-119.5956"/>
<polygon fill="#191970" stroke="#191970" points="717.9321,-160.7506 728.4576,-161.9608 720.9841,-154.4509 717.9321,-160.7506"/>
</g>
<!-- Node18 -->
<g id="node11" class="node">
<title>Node18</title>
<g id="a_node11"><a xlink:href="entity_8cpp.html" target="_top" xlink:title="/mnt/hdd/C0de/smart\l_engine/src/entity.cpp">
<polygon fill="none" stroke="#000000" points="703,-84 703,-114 816,-114 816,-84 703,-84"/>
<text text-anchor="start" x="711" y="-102" font-family="Helvetica,sans-Serif" font-size="10.00" fill="#000000">/mnt/hdd/C0de/smart</text>
<text text-anchor="middle" x="759.5" y="-91" font-family="Helvetica,sans-Serif" font-size="10.00" fill="#000000">_engine/src/entity.cpp</text>
</a>
</g>
</g>
<!-- Node9&#45;&gt;Node18 -->
<g id="edge10" class="edge">
<title>Node9&#45;&gt;Node18</title>
<path fill="none" stroke="#191970" d="M759.5,-151.7875C759.5,-139.4187 759.5,-124.9264 759.5,-114.2592"/>
<polygon fill="#191970" stroke="#191970" points="756.0001,-151.9608 759.5,-161.9608 763.0001,-151.9608 756.0001,-151.9608"/>
</g>
<!-- Node11 -->
<g id="node4" class="node">
<title>Node11</title>
<g id="a_node4"><a xlink:href="entity__manager_8cpp.html" target="_top" xlink:title="/mnt/hdd/C0de/smart\l_engine/src/entity_manager.cpp">
<polygon fill="none" stroke="#000000" points="0,-6 0,-36 155,-36 155,-6 0,-6"/>
<text text-anchor="start" x="8" y="-24" font-family="Helvetica,sans-Serif" font-size="10.00" fill="#000000">/mnt/hdd/C0de/smart</text>
<text text-anchor="middle" x="77.5" y="-13" font-family="Helvetica,sans-Serif" font-size="10.00" fill="#000000">_engine/src/entity_manager.cpp</text>
</a>
</g>
</g>
<!-- Node10&#45;&gt;Node11 -->
<g id="edge3" class="edge">
<title>Node10&#45;&gt;Node11</title>
<path fill="none" stroke="#191970" d="M532.6453,-92.5532C447.3082,-83.6962 294.0933,-66.0803 164.5,-42 155.3341,-40.2968 145.6857,-38.2385 136.2844,-36.085"/>
<polygon fill="#191970" stroke="#191970" points="532.4036,-96.0468 542.7096,-93.5898 533.1209,-89.0836 532.4036,-96.0468"/>
</g>
<!-- Node10&#45;&gt;Node12 -->
<g id="edge4" class="edge">
<title>Node10&#45;&gt;Node12</title>
<path fill="none" stroke="#191970" d="M663.9185,-83.9058C673.8076,-81.8079 683.907,-79.7686 693.5,-78 800.8693,-58.205 830.136,-66.6314 936.5,-42 943.7629,-40.3181 951.3791,-38.2191 958.7513,-36.0037"/>
<polygon fill="#191970" stroke="#191970" points="663.1647,-80.4879 654.1261,-86.0154 664.6389,-87.3309 663.1647,-80.4879"/>
</g>
<!-- Node13 -->
<g id="node6" class="node">
<title>Node13</title>
<g id="a_node6"><a xlink:href="game__over__state_8cpp.html" target="_top" xlink:title="/mnt/hdd/C0de/smart\l_engine/src/game_over\l_state.cpp">
<polygon fill="none" stroke="#000000" points="173.5,-.5 173.5,-41.5 291.5,-41.5 291.5,-.5 173.5,-.5"/>
<text text-anchor="start" x="181.5" y="-29.5" font-family="Helvetica,sans-Serif" font-size="10.00" fill="#000000">/mnt/hdd/C0de/smart</text>
<text text-anchor="start" x="181.5" y="-18.5" font-family="Helvetica,sans-Serif" font-size="10.00" fill="#000000">_engine/src/game_over</text>
<text text-anchor="middle" x="232.5" y="-7.5" font-family="Helvetica,sans-Serif" font-size="10.00" fill="#000000">_state.cpp</text>
</a>
</g>
</g>
<!-- Node10&#45;&gt;Node13 -->
<g id="edge5" class="edge">
<title>Node10&#45;&gt;Node13</title>
<path fill="none" stroke="#191970" d="M532.6978,-88.5638C472.0102,-78.4315 379.6164,-61.7189 300.5,-42 297.6227,-41.2829 294.6872,-40.5156 291.7297,-39.7139"/>
<polygon fill="#191970" stroke="#191970" points="532.4655,-92.073 542.9033,-90.2556 533.6103,-85.1672 532.4655,-92.073"/>
</g>
<!-- Node14 -->
<g id="node7" class="node">
<title>Node14</title>
<g id="a_node7"><a xlink:href="game__play__state_8cpp.html" target="_top" xlink:title="/mnt/hdd/C0de/smart\l_engine/src/game_play\l_state.cpp">
<polygon fill="none" stroke="#000000" points="310,-.5 310,-41.5 427,-41.5 427,-.5 310,-.5"/>
<text text-anchor="start" x="318" y="-29.5" font-family="Helvetica,sans-Serif" font-size="10.00" fill="#000000">/mnt/hdd/C0de/smart</text>
<text text-anchor="start" x="318" y="-18.5" font-family="Helvetica,sans-Serif" font-size="10.00" fill="#000000">_engine/src/game_play</text>
<text text-anchor="middle" x="368.5" y="-7.5" font-family="Helvetica,sans-Serif" font-size="10.00" fill="#000000">_state.cpp</text>
</a>
</g>
</g>
<!-- Node10&#45;&gt;Node14 -->
<g id="edge6" class="edge">
<title>Node10&#45;&gt;Node14</title>
<path fill="none" stroke="#191970" d="M533.1694,-76.8444C499.8417,-65.542 459.6245,-51.9031 427.2782,-40.9335"/>
<polygon fill="#191970" stroke="#191970" points="532.2291,-80.2212 542.8234,-80.1184 534.4773,-73.5921 532.2291,-80.2212"/>
</g>
<!-- Node15 -->
<g id="node8" class="node">
<title>Node15</title>
<g id="a_node8"><a xlink:href="LoadingGameObjects_8cpp.html" target="_top" xlink:title="/mnt/hdd/C0de/smart\l_engine/src/LoadingGameObjects.cpp">
<polygon fill="none" stroke="#000000" points="445.5,-6 445.5,-36 627.5,-36 627.5,-6 445.5,-6"/>
<text text-anchor="start" x="453.5" y="-24" font-family="Helvetica,sans-Serif" font-size="10.00" fill="#000000">/mnt/hdd/C0de/smart</text>
<text text-anchor="middle" x="536.5" y="-13" font-family="Helvetica,sans-Serif" font-size="10.00" fill="#000000">_engine/src/LoadingGameObjects.cpp</text>
</a>
</g>
</g>
<!-- Node10&#45;&gt;Node15 -->
<g id="edge7" class="edge">
<title>Node10&#45;&gt;Node15</title>
<path fill="none" stroke="#191970" d="M575.4753,-70.0334C566.3653,-58.5725 556.2695,-45.8714 548.636,-36.2679"/>
<polygon fill="#191970" stroke="#191970" points="572.9228,-72.447 581.8851,-78.0974 578.4025,-68.0913 572.9228,-72.447"/>
</g>
<!-- Node16 -->
<g id="node9" class="node">
<title>Node16</title>
<g id="a_node9"><a xlink:href="main__menu__state_8cpp.html" target="_top" xlink:title="/mnt/hdd/C0de/smart\l_engine/src/main_menu\l_state.cpp">
<polygon fill="none" stroke="#000000" points="645.5,-.5 645.5,-41.5 765.5,-41.5 765.5,-.5 645.5,-.5"/>
<text text-anchor="start" x="653.5" y="-29.5" font-family="Helvetica,sans-Serif" font-size="10.00" fill="#000000">/mnt/hdd/C0de/smart</text>
<text text-anchor="start" x="653.5" y="-18.5" font-family="Helvetica,sans-Serif" font-size="10.00" fill="#000000">_engine/src/main_menu</text>
<text text-anchor="middle" x="705.5" y="-7.5" font-family="Helvetica,sans-Serif" font-size="10.00" fill="#000000">_state.cpp</text>
</a>
</g>
</g>
<!-- Node10&#45;&gt;Node16 -->
<g id="edge8" class="edge">
<title>Node10&#45;&gt;Node16</title>
<path fill="none" stroke="#191970" d="M635.2268,-72.2272C649.0148,-62.1761 664.4564,-50.9196 677.3455,-41.5239"/>
<polygon fill="#191970" stroke="#191970" points="632.9122,-69.5832 626.8931,-78.3022 637.0357,-75.2398 632.9122,-69.5832"/>
</g>
<!-- Node17 -->
<g id="node10" class="node">
<title>Node17</title>
<g id="a_node10"><a xlink:href="splash__state_8cpp.html" target="_top" xlink:title="/mnt/hdd/C0de/smart\l_engine/src/splash_state.cpp">
<polygon fill="none" stroke="#000000" points="783.5,-6 783.5,-36 927.5,-36 927.5,-6 783.5,-6"/>
<text text-anchor="start" x="791.5" y="-24" font-family="Helvetica,sans-Serif" font-size="10.00" fill="#000000">/mnt/hdd/C0de/smart</text>
<text text-anchor="middle" x="855.5" y="-13" font-family="Helvetica,sans-Serif" font-size="10.00" fill="#000000">_engine/src/splash_state.cpp</text>
</a>
</g>
</g>
<!-- Node10&#45;&gt;Node17 -->
<g id="edge9" class="edge">
<title>Node10&#45;&gt;Node17</title>
<path fill="none" stroke="#191970" d="M664.0463,-79.1066C708.2098,-65.7029 765.5496,-48.3001 805.924,-36.0464"/>
<polygon fill="#191970" stroke="#191970" points="662.8177,-75.8217 654.2652,-82.0752 664.8507,-82.52 662.8177,-75.8217"/>
</g>
</g>
</svg>
        <g id="navigator" transform="translate(0 0)" fill="#404254">
                <rect fill="#f2f5e9" fill-opacity="0.5" stroke="#606060" stroke-width=".5" x="0" y="0" width="60" height="60"/>
                <use id="zoomplus" xlink:href="#zoomPlus" x="17" y="9" onmousedown="handleZoom(evt,'in')"/>
                <use id="zoomminus" xlink:href="#zoomMin" x="42" y="9" onmousedown="handleZoom(evt,'out')"/>
                <use id="reset" xlink:href="#resetDef" x="30" y="36" onmousedown="handleReset()"/>
                <g id="arrowUp" xlink:href="#dirArrow" transform="translate(30 24)" onmousedown="handlePan(0,-1)">
                  <use xlink:href="#rim" fill="#404040">
                        <set attributeName="fill" to="#808080" begin="arrowUp.mouseover" end="arrowUp.mouseout"/>
                  </use>
                  <path fill="none" stroke="white" stroke-width="1.5" d="M0,-3.0v7 M-2.5,-0.5L0,-3.0L2.5,-0.5"/>
                </g>
                <g id="arrowRight" xlink:href="#dirArrow" transform="rotate(90) translate(36 -43)" onmousedown="handlePan(1,0)">
                  <use xlink:href="#rim" fill="#404040">
                        <set attributeName="fill" to="#808080" begin="arrowRight.mouseover" end="arrowRight.mouseout"/>
                  </use>
                  <path fill="none" stroke="white" stroke-width="1.5" d="M0,-3.0v7 M-2.5,-0.5L0,-3.0L2.5,-0.5"/>
                </g>
                <g id="arrowDown" xlink:href="#dirArrow" transform="rotate(180) translate(-30 -48)" onmousedown="handlePan(0,1)">
                  <use xlink:href="#rim" fill="#404040">
                        <set attributeName="fill" to="#808080" begin="arrowDown.mouseover" end="arrowDown.mouseout"/>
                  </use>
                  <path fill="none" stroke="white" stroke-width="1.5" d="M0,-3.0v7 M-2.5,-0.5L0,-3.0L2.5,-0.5"/>
                </g>
                <g id="arrowLeft" xlink:href="#dirArrow" transform="rotate(270) translate(-36 17)" onmousedown="handlePan(-1,0)">
                  <use xlink:href="#rim" fill="#404040">
                        <set attributeName="fill" to="#808080" begin="arrowLeft.mouseover" end="arrowLeft.mouseout"/>
                  </use>
                  <path fill="none" stroke="white" stroke-width="1.5" d="M0,-3.0v7 M-2.5,-0.5L0,-3.0L2.5,-0.5"/>
                </g>
        </g>
        <svg viewBox="0 0 15 15" width="100%" height="30px" preserveAspectRatio="xMaxYMin meet">
         <g id="arrow_out" transform="scale(0.3 0.3)">
          <a xlink:href="resource__manager_8h__dep__incl_org.svg" target="_base">
           <rect id="button" ry="5" rx="5" y="6" x="6" height="38" width="38"
                fill="#f2f5e9" fill-opacity="0.5" stroke="#606060" stroke-width="1.0"/>
           <path id="arrow"
             d="M 11.500037,31.436501 C 11.940474,20.09759 22.043105,11.32322 32.158766,21.979434 L 37.068811,17.246167 C 37.068811,17.246167 37.088388,32 37.088388,32 L 22.160133,31.978069 C 22.160133,31.978069 26.997745,27.140456 26.997745,27.140456 C 18.528582,18.264221 13.291696,25.230495 11.500037,31.436501 z"
             style="fill:#404040;"/>
          </a>
         </g>
        </svg>
</svg>
