<?xml version="1.0" encoding="UTF-8" standalone="no"?>
<!DOCTYPE svg PUBLIC "-//W3C//DTD SVG 1.1//EN"
 "http://www.w3.org/Graphics/SVG/1.1/DTD/svg11.dtd">
<!-- Generated by graphviz version 2.40.1 (20161225.0304)
 -->
<!-- Title: /mnt/hdd/C0de/smart_engine/include/SFMLOrthogonalLayer.hpp Pages: 1 -->
<!--zoomable 106 -->
<svg id="main" version="1.1" xmlns="http://www.w3.org/2000/svg" xmlns:xlink="http://www.w3.org/1999/xlink" xml:space="preserve" onload="init(evt)">
<style type="text/css"><![CDATA[
.edge:hover path { stroke: red; }
.edge:hover polygon { stroke: red; fill: red; }
]]></style>
<script type="text/javascript"><![CDATA[
var edges = document.getElementsByTagName('g');
if (edges && edges.length) {
  for (var i=0;i<edges.length;i++) {
    if (edges[i].id.substr(0,4)=='edge') {
      edges[i].setAttribute('class','edge');
    }
  }
}
]]></script>
        <defs>
                <circle id="rim" cx="0" cy="0" r="7"/>
                <circle id="rim2" cx="0" cy="0" r="3.5"/>
                <g id="zoomPlus">
                        <use xlink:href="#rim" fill="#404040">
                                <set attributeName="fill" to="#808080" begin="zoomplus.mouseover" end="zoomplus.mouseout"/>
                        </use>
                        <path d="M-4,0h8M0,-4v8" fill="none" stroke="white" stroke-width="1.5" pointer-events="none"/>
                </g>
                <g id="zoomMin">
                        <use xlink:href="#rim" fill="#404040">
                                <set attributeName="fill" to="#808080" begin="zoomminus.mouseover" end="zoomminus.mouseout"/>
                        </use>
                        <path d="M-4,0h8" fill="none" stroke="white" stroke-width="1.5" pointer-events="none"/>
                </g>
                <g id="dirArrow">
                        <path fill="none" stroke="white" stroke-width="1.5" d="M0,-3.0v7 M-2.5,-0.5L0,-3.0L2.5,-0.5"/>
                </g>
               <g id="resetDef">
                       <use xlink:href="#rim2" fill="#404040">
                               <set attributeName="fill" to="#808080" begin="reset.mouseover" end="reset.mouseout"/>
                       </use>
               </g>
        </defs>

<script type="text/javascript">
var viewWidth = 2018;
var viewHeight = 106;
var sectionId = 'dynsection-0';
</script>
<script xlink:href="svgpan.js"/>
<svg id="graph" class="graph">
<g id="viewport">
<title>/mnt/hdd/C0de/smart_engine/include/SFMLOrthogonalLayer.hpp</title>
<!-- Node0 -->
<g id="node1" class="node">
<title>Node0</title>
<polygon fill="#bfbfbf" stroke="#000000" points="1292.5,-56.5 1292.5,-97.5 1453.5,-97.5 1453.5,-56.5 1292.5,-56.5"/>
<text text-anchor="start" x="1300.5" y="-85.5" font-family="Helvetica,sans-Serif" font-size="10.00" fill="#000000">/mnt/hdd/C0de/smart</text>
<text text-anchor="start" x="1300.5" y="-74.5" font-family="Helvetica,sans-Serif" font-size="10.00" fill="#000000">_engine/include/SFMLOrthogonal</text>
<text text-anchor="middle" x="1373" y="-63.5" font-family="Helvetica,sans-Serif" font-size="10.00" fill="#000000">Layer.hpp</text>
</g>
<!-- Node1 -->
<g id="node2" class="node">
<title>Node1</title>
<polygon fill="none" stroke="#bfbfbf" points="0,-.5 0,-19.5 86,-19.5 86,-.5 0,-.5"/>
<text text-anchor="middle" x="43" y="-7.5" font-family="Helvetica,sans-Serif" font-size="10.00" fill="#000000">tmxlite/Map.hpp</text>
</g>
<!-- Node0&#45;&gt;Node1 -->
<g id="edge1" class="edge">
<title>Node0&#45;&gt;Node1</title>
<path fill="none" stroke="#191970" d="M1292.1512,-74.9344C1052.5757,-68.5732 348.0123,-48.0693 96.2605,-19.9532"/>
<polygon fill="#191970" stroke="#191970" points="96.3894,-16.4451 86.055,-18.7797 95.5897,-23.3992 96.3894,-16.4451"/>
</g>
<!-- Node2 -->
<g id="node3" class="node">
<title>Node2</title>
<polygon fill="none" stroke="#bfbfbf" points="104.5,-.5 104.5,-19.5 211.5,-19.5 211.5,-.5 104.5,-.5"/>
<text text-anchor="middle" x="158" y="-7.5" font-family="Helvetica,sans-Serif" font-size="10.00" fill="#000000">tmxlite/TileLayer.hpp</text>
</g>
<!-- Node0&#45;&gt;Node2 -->
<g id="edge2" class="edge">
<title>Node0&#45;&gt;Node2</title>
<path fill="none" stroke="#191970" d="M1292.4655,-76.0029C1105.9552,-73.0475 629.8297,-61.7953 221.796,-19.9624"/>
<polygon fill="#191970" stroke="#191970" points="221.8712,-16.4516 211.5644,-18.9055 221.1518,-23.4145 221.8712,-16.4516"/>
</g>
<!-- Node3 -->
<g id="node4" class="node">
<title>Node3</title>
<polygon fill="none" stroke="#bfbfbf" points="230,-.5 230,-19.5 340,-19.5 340,-.5 230,-.5"/>
<text text-anchor="middle" x="285" y="-7.5" font-family="Helvetica,sans-Serif" font-size="10.00" fill="#000000">tmxlite/detail/Log.hpp</text>
</g>
<!-- Node0&#45;&gt;Node3 -->
<g id="edge3" class="edge">
<title>Node0&#45;&gt;Node3</title>
<path fill="none" stroke="#191970" d="M1292.4628,-75.2378C1120.9679,-70.894 706.9251,-57.2643 350.1206,-20.0198"/>
<polygon fill="#191970" stroke="#191970" points="350.4236,-16.5325 340.1123,-18.9673 349.6914,-23.4941 350.4236,-16.5325"/>
</g>
<!-- Node4 -->
<g id="node5" class="node">
<title>Node4</title>
<polygon fill="none" stroke="#bfbfbf" points="358,-.5 358,-19.5 506,-19.5 506,-.5 358,-.5"/>
<text text-anchor="middle" x="432" y="-7.5" font-family="Helvetica,sans-Serif" font-size="10.00" fill="#000000">SFML/Graphics/Drawable.hpp</text>
</g>
<!-- Node0&#45;&gt;Node4 -->
<g id="edge4" class="edge">
<title>Node0&#45;&gt;Node4</title>
<path fill="none" stroke="#191970" d="M1292.4479,-73.0911C1142.102,-65.479 808.3299,-47.0901 516.552,-20.1019"/>
<polygon fill="#191970" stroke="#191970" points="516.4718,-16.5795 506.1906,-19.1383 515.8235,-23.5494 516.4718,-16.5795"/>
</g>
<!-- Node5 -->
<g id="node6" class="node">
<title>Node5</title>
<polygon fill="none" stroke="#bfbfbf" points="524.5,-.5 524.5,-19.5 691.5,-19.5 691.5,-.5 524.5,-.5"/>
<text text-anchor="middle" x="608" y="-7.5" font-family="Helvetica,sans-Serif" font-size="10.00" fill="#000000">SFML/Graphics/RenderStates.hpp</text>
</g>
<!-- Node0&#45;&gt;Node5 -->
<g id="edge5" class="edge">
<title>Node0&#45;&gt;Node5</title>
<path fill="none" stroke="#191970" d="M1292.2631,-70.7418C1167.9417,-60.9741 921.8753,-41.1223 701.772,-20.0557"/>
<polygon fill="#191970" stroke="#191970" points="701.9311,-16.555 691.6424,-19.0836 701.2623,-23.523 701.9311,-16.555"/>
</g>
<!-- Node6 -->
<g id="node7" class="node">
<title>Node6</title>
<polygon fill="none" stroke="#bfbfbf" points="710,-.5 710,-19.5 876,-19.5 876,-.5 710,-.5"/>
<text text-anchor="middle" x="793" y="-7.5" font-family="Helvetica,sans-Serif" font-size="10.00" fill="#000000">SFML/Graphics/RenderTarget.hpp</text>
</g>
<!-- Node0&#45;&gt;Node6 -->
<g id="edge6" class="edge">
<title>Node0&#45;&gt;Node6</title>
<path fill="none" stroke="#191970" d="M1292.3535,-67.6839C1185.5446,-55.3457 997.6077,-33.6357 885.2626,-20.6579"/>
<polygon fill="#191970" stroke="#191970" points="885.637,-17.178 875.3014,-19.5072 884.8336,-24.1317 885.637,-17.178"/>
</g>
<!-- Node7 -->
<g id="node8" class="node">
<title>Node7</title>
<polygon fill="none" stroke="#bfbfbf" points="894.5,-.5 894.5,-19.5 1029.5,-19.5 1029.5,-.5 894.5,-.5"/>
<text text-anchor="middle" x="962" y="-7.5" font-family="Helvetica,sans-Serif" font-size="10.00" fill="#000000">SFML/Graphics/Vertex.hpp</text>
</g>
<!-- Node0&#45;&gt;Node7 -->
<g id="edge7" class="edge">
<title>Node0&#45;&gt;Node7</title>
<path fill="none" stroke="#191970" d="M1292.29,-63.8429C1215.818,-51.3767 1102.2411,-32.8617 1030.1865,-21.1156"/>
<polygon fill="#191970" stroke="#191970" points="1030.7359,-17.659 1020.303,-19.5044 1029.6096,-24.5678 1030.7359,-17.659"/>
</g>
<!-- Node8 -->
<g id="node9" class="node">
<title>Node8</title>
<polygon fill="none" stroke="#bfbfbf" points="1048,-.5 1048,-19.5 1188,-19.5 1188,-.5 1048,-.5"/>
<text text-anchor="middle" x="1118" y="-7.5" font-family="Helvetica,sans-Serif" font-size="10.00" fill="#000000">SFML/Graphics/Texture.hpp</text>
</g>
<!-- Node0&#45;&gt;Node8 -->
<g id="edge8" class="edge">
<title>Node0&#45;&gt;Node8</title>
<path fill="none" stroke="#191970" d="M1294.7586,-56.4425C1251.9357,-45.191 1200.3524,-31.6377 1163.9943,-22.0848"/>
<polygon fill="#191970" stroke="#191970" points="1164.7243,-18.6578 1154.1631,-19.5017 1162.9454,-25.4281 1164.7243,-18.6578"/>
</g>
<!-- Node9 -->
<g id="node10" class="node">
<title>Node9</title>
<polygon fill="none" stroke="#bfbfbf" points="1206.5,-.5 1206.5,-19.5 1375.5,-19.5 1375.5,-.5 1206.5,-.5"/>
<text text-anchor="middle" x="1291" y="-7.5" font-family="Helvetica,sans-Serif" font-size="10.00" fill="#000000">SFML/Graphics/Transformable.hpp</text>
</g>
<!-- Node0&#45;&gt;Node9 -->
<g id="edge9" class="edge">
<title>Node0&#45;&gt;Node9</title>
<path fill="none" stroke="#191970" d="M1347.5042,-56.168C1335.6654,-46.4949 1321.8041,-35.1692 1310.7733,-26.1562"/>
<polygon fill="#191970" stroke="#191970" points="1312.9285,-23.3974 1302.9701,-19.7805 1308.4994,-28.8181 1312.9285,-23.3974"/>
</g>
<!-- Node10 -->
<g id="node11" class="node">
<title>Node10</title>
<polygon fill="none" stroke="#bfbfbf" points="1393.5,-.5 1393.5,-19.5 1516.5,-19.5 1516.5,-.5 1393.5,-.5"/>
<text text-anchor="middle" x="1455" y="-7.5" font-family="Helvetica,sans-Serif" font-size="10.00" fill="#000000">SFML/System/Time.hpp</text>
</g>
<!-- Node0&#45;&gt;Node10 -->
<g id="edge10" class="edge">
<title>Node0&#45;&gt;Node10</title>
<path fill="none" stroke="#191970" d="M1398.4958,-56.168C1410.3346,-46.4949 1424.1959,-35.1692 1435.2267,-26.1562"/>
<polygon fill="#191970" stroke="#191970" points="1437.5006,-28.8181 1443.0299,-19.7805 1433.0715,-23.3974 1437.5006,-28.8181"/>
</g>
<!-- Node11 -->
<g id="node12" class="node">
<title>Node11</title>
<polygon fill="none" stroke="#bfbfbf" points="1535,-.5 1535,-19.5 1587,-19.5 1587,-.5 1535,-.5"/>
<text text-anchor="middle" x="1561" y="-7.5" font-family="Helvetica,sans-Serif" font-size="10.00" fill="#000000">memory</text>
</g>
<!-- Node0&#45;&gt;Node11 -->
<g id="edge11" class="edge">
<title>Node0&#45;&gt;Node11</title>
<path fill="none" stroke="#191970" d="M1430.6838,-56.4425C1461.5022,-45.4593 1498.4748,-32.2829 1525.1535,-22.7751"/>
<polygon fill="#191970" stroke="#191970" points="1526.5954,-25.9769 1534.8401,-19.3229 1524.2454,-19.3831 1526.5954,-25.9769"/>
</g>
<!-- Node12 -->
<g id="node13" class="node">
<title>Node12</title>
<polygon fill="none" stroke="#bfbfbf" points="1605,-.5 1605,-19.5 1649,-19.5 1649,-.5 1605,-.5"/>
<text text-anchor="middle" x="1627" y="-7.5" font-family="Helvetica,sans-Serif" font-size="10.00" fill="#000000">vector</text>
</g>
<!-- Node0&#45;&gt;Node12 -->
<g id="edge12" class="edge">
<title>Node0&#45;&gt;Node12</title>
<path fill="none" stroke="#191970" d="M1453.5748,-57.6802C1493.6129,-47.7777 1542.8962,-35.138 1594.9495,-20.1928"/>
<polygon fill="#191970" stroke="#191970" points="1596.0642,-23.514 1604.6996,-17.3755 1594.121,-16.7891 1596.0642,-23.514"/>
</g>
<!-- Node13 -->
<g id="node14" class="node">
<title>Node13</title>
<polygon fill="none" stroke="#bfbfbf" points="1667,-.5 1667,-19.5 1705,-19.5 1705,-.5 1667,-.5"/>
<text text-anchor="middle" x="1686" y="-7.5" font-family="Helvetica,sans-Serif" font-size="10.00" fill="#000000">array</text>
</g>
<!-- Node0&#45;&gt;Node13 -->
<g id="edge13" class="edge">
<title>Node0&#45;&gt;Node13</title>
<path fill="none" stroke="#191970" d="M1453.585,-64.1113C1508.5975,-54.5648 1583.1836,-40.1602 1656.9143,-20.0077"/>
<polygon fill="#191970" stroke="#191970" points="1658.1358,-23.3013 1666.8384,-17.2585 1656.2669,-16.5553 1658.1358,-23.3013"/>
</g>
<!-- Node14 -->
<g id="node15" class="node">
<title>Node14</title>
<polygon fill="none" stroke="#bfbfbf" points="1723.5,-.5 1723.5,-19.5 1758.5,-19.5 1758.5,-.5 1723.5,-.5"/>
<text text-anchor="middle" x="1741" y="-7.5" font-family="Helvetica,sans-Serif" font-size="10.00" fill="#000000">map</text>
</g>
<!-- Node0&#45;&gt;Node14 -->
<g id="edge14" class="edge">
<title>Node0&#45;&gt;Node14</title>
<path fill="none" stroke="#191970" d="M1453.8371,-67.8656C1521.2008,-59.2524 1619.619,-44.3461 1713.7535,-19.6301"/>
<polygon fill="#191970" stroke="#191970" points="1714.6748,-23.0068 1723.4356,-17.0488 1712.8715,-16.2431 1714.6748,-23.0068"/>
</g>
<!-- Node15 -->
<g id="node16" class="node">
<title>Node15</title>
<polygon fill="none" stroke="#bfbfbf" points="1776.5,-.5 1776.5,-19.5 1817.5,-19.5 1817.5,-.5 1776.5,-.5"/>
<text text-anchor="middle" x="1797" y="-7.5" font-family="Helvetica,sans-Serif" font-size="10.00" fill="#000000">string</text>
</g>
<!-- Node0&#45;&gt;Node15 -->
<g id="edge15" class="edge">
<title>Node0&#45;&gt;Node15</title>
<path fill="none" stroke="#191970" d="M1453.6601,-69.8618C1531.8124,-61.9258 1653.6253,-46.864 1766.3949,-20.0612"/>
<polygon fill="#191970" stroke="#191970" points="1767.331,-23.4359 1776.2309,-17.6876 1765.6888,-16.6312 1767.331,-23.4359"/>
</g>
<!-- Node16 -->
<g id="node17" class="node">
<title>Node16</title>
<polygon fill="none" stroke="#bfbfbf" points="1836,-.5 1836,-19.5 1876,-19.5 1876,-.5 1836,-.5"/>
<text text-anchor="middle" x="1856" y="-7.5" font-family="Helvetica,sans-Serif" font-size="10.00" fill="#000000">limits</text>
</g>
<!-- Node0&#45;&gt;Node16 -->
<g id="edge16" class="edge">
<title>Node0&#45;&gt;Node16</title>
<path fill="none" stroke="#191970" d="M1453.8464,-71.9243C1543.1025,-65.1816 1690.9306,-50.6448 1825.7768,-19.8774"/>
<polygon fill="#191970" stroke="#191970" points="1826.9235,-23.2045 1835.8749,-17.5369 1825.3429,-16.3853 1826.9235,-23.2045"/>
</g>
<!-- Node17 -->
<g id="node18" class="node">
<title>Node17</title>
<polygon fill="none" stroke="#bfbfbf" points="1894,-.5 1894,-19.5 1948,-19.5 1948,-.5 1894,-.5"/>
<text text-anchor="middle" x="1921" y="-7.5" font-family="Helvetica,sans-Serif" font-size="10.00" fill="#000000">iostream</text>
</g>
<!-- Node0&#45;&gt;Node17 -->
<g id="edge17" class="edge">
<title>Node0&#45;&gt;Node17</title>
<path fill="none" stroke="#191970" d="M1453.8564,-72.0136C1553.1969,-64.9882 1726.8757,-49.7878 1884.1287,-19.901"/>
<polygon fill="#191970" stroke="#191970" points="1884.8252,-23.3313 1893.9835,-18.0044 1883.5022,-16.4574 1884.8252,-23.3313"/>
</g>
<!-- Node18 -->
<g id="node19" class="node">
<title>Node18</title>
<polygon fill="none" stroke="#bfbfbf" points="1966,-.5 1966,-19.5 2010,-19.5 2010,-.5 1966,-.5"/>
<text text-anchor="middle" x="1988" y="-7.5" font-family="Helvetica,sans-Serif" font-size="10.00" fill="#000000">cmath</text>
</g>
<!-- Node0&#45;&gt;Node18 -->
<g id="edge18" class="edge">
<title>Node0&#45;&gt;Node18</title>
<path fill="none" stroke="#191970" d="M1453.6396,-74.5944C1565.0725,-70.0592 1772.2593,-57.2627 1955.9649,-19.8246"/>
<polygon fill="#191970" stroke="#191970" points="1956.718,-23.243 1965.8026,-17.7913 1955.3011,-16.3879 1956.718,-23.243"/>
</g>
</g>
</svg>
        <g id="navigator" transform="translate(0 0)" fill="#404254">
                <rect fill="#f2f5e9" fill-opacity="0.5" stroke="#606060" stroke-width=".5" x="0" y="0" width="60" height="60"/>
                <use id="zoomplus" xlink:href="#zoomPlus" x="17" y="9" onmousedown="handleZoom(evt,'in')"/>
                <use id="zoomminus" xlink:href="#zoomMin" x="42" y="9" onmousedown="handleZoom(evt,'out')"/>
                <use id="reset" xlink:href="#resetDef" x="30" y="36" onmousedown="handleReset()"/>
                <g id="arrowUp" xlink:href="#dirArrow" transform="translate(30 24)" onmousedown="handlePan(0,-1)">
                  <use xlink:href="#rim" fill="#404040">
                        <set attributeName="fill" to="#808080" begin="arrowUp.mouseover" end="arrowUp.mouseout"/>
                  </use>
                  <path fill="none" stroke="white" stroke-width="1.5" d="M0,-3.0v7 M-2.5,-0.5L0,-3.0L2.5,-0.5"/>
                </g>
                <g id="arrowRight" xlink:href="#dirArrow" transform="rotate(90) translate(36 -43)" onmousedown="handlePan(1,0)">
                  <use xlink:href="#rim" fill="#404040">
                        <set attributeName="fill" to="#808080" begin="arrowRight.mouseover" end="arrowRight.mouseout"/>
                  </use>
                  <path fill="none" stroke="white" stroke-width="1.5" d="M0,-3.0v7 M-2.5,-0.5L0,-3.0L2.5,-0.5"/>
                </g>
                <g id="arrowDown" xlink:href="#dirArrow" transform="rotate(180) translate(-30 -48)" onmousedown="handlePan(0,1)">
                  <use xlink:href="#rim" fill="#404040">
                        <set attributeName="fill" to="#808080" begin="arrowDown.mouseover" end="arrowDown.mouseout"/>
                  </use>
                  <path fill="none" stroke="white" stroke-width="1.5" d="M0,-3.0v7 M-2.5,-0.5L0,-3.0L2.5,-0.5"/>
                </g>
                <g id="arrowLeft" xlink:href="#dirArrow" transform="rotate(270) translate(-36 17)" onmousedown="handlePan(-1,0)">
                  <use xlink:href="#rim" fill="#404040">
                        <set attributeName="fill" to="#808080" begin="arrowLeft.mouseover" end="arrowLeft.mouseout"/>
                  </use>
                  <path fill="none" stroke="white" stroke-width="1.5" d="M0,-3.0v7 M-2.5,-0.5L0,-3.0L2.5,-0.5"/>
                </g>
        </g>
        <svg viewBox="0 0 15 15" width="100%" height="30px" preserveAspectRatio="xMaxYMin meet">
         <g id="arrow_out" transform="scale(0.3 0.3)">
          <a xlink:href="SFMLOrthogonalLayer_8hpp__incl_org.svg" target="_base">
           <rect id="button" ry="5" rx="5" y="6" x="6" height="38" width="38"
                fill="#f2f5e9" fill-opacity="0.5" stroke="#606060" stroke-width="1.0"/>
           <path id="arrow"
             d="M 11.500037,31.436501 C 11.940474,20.09759 22.043105,11.32322 32.158766,21.979434 L 37.068811,17.246167 C 37.068811,17.246167 37.088388,32 37.088388,32 L 22.160133,31.978069 C 22.160133,31.978069 26.997745,27.140456 26.997745,27.140456 C 18.528582,18.264221 13.291696,25.230495 11.500037,31.436501 z"
             style="fill:#404040;"/>
          </a>
         </g>
        </svg>
</svg>
