<?xml version="1.0" encoding="UTF-8" standalone="no"?>
<!DOCTYPE svg PUBLIC "-//W3C//DTD SVG 1.1//EN"
 "http://www.w3.org/Graphics/SVG/1.1/DTD/svg11.dtd">
<!-- Generated by graphviz version 2.40.1 (20161225.0304)
 -->
<!-- Title: /mnt/hdd/C0de/smart_engine/src/shader.cpp Pages: 1 -->
<svg width="344pt" height="151pt"
 viewBox="0.00 0.00 343.50 151.00" xmlns="http://www.w3.org/2000/svg" xmlns:xlink="http://www.w3.org/1999/xlink">
<g id="graph0" class="graph" transform="scale(1 1) rotate(0) translate(4 147)">
<title>/mnt/hdd/C0de/smart_engine/src/shader.cpp</title>
<!-- Node0 -->
<g id="node1" class="node">
<title>Node0</title>
<polygon fill="#bfbfbf" stroke="#000000" points="121.5,-112.5 121.5,-142.5 239.5,-142.5 239.5,-112.5 121.5,-112.5"/>
<text text-anchor="start" x="129.5" y="-130.5" font-family="Helvetica,sans-Serif" font-size="10.00" fill="#000000">/mnt/hdd/C0de/smart</text>
<text text-anchor="middle" x="180.5" y="-119.5" font-family="Helvetica,sans-Serif" font-size="10.00" fill="#000000">_engine/src/shader.cpp</text>
</g>
<!-- Node1 -->
<g id="node2" class="node">
<title>Node1</title>
<g id="a_node2"><a xlink:href="shader_8h.html" target="_top" xlink:title="../include/shader.h">
<polygon fill="none" stroke="#000000" points="85,-56.5 85,-75.5 182,-75.5 182,-56.5 85,-56.5"/>
<text text-anchor="middle" x="133.5" y="-63.5" font-family="Helvetica,sans-Serif" font-size="10.00" fill="#000000">../include/shader.h</text>
</a>
</g>
</g>
<!-- Node0&#45;&gt;Node1 -->
<g id="edge1" class="edge">
<title>Node0&#45;&gt;Node1</title>
<path fill="none" stroke="#191970" d="M168.882,-112.2977C162.29,-103.672 154.0052,-92.8312 147.1099,-83.8087"/>
<polygon fill="#191970" stroke="#191970" points="149.8783,-81.6671 141.0253,-75.8469 144.3165,-85.9176 149.8783,-81.6671"/>
</g>
<!-- Node6 -->
<g id="node7" class="node">
<title>Node6</title>
<polygon fill="none" stroke="#bfbfbf" points="200.5,-56.5 200.5,-75.5 254.5,-75.5 254.5,-56.5 200.5,-56.5"/>
<text text-anchor="middle" x="227.5" y="-63.5" font-family="Helvetica,sans-Serif" font-size="10.00" fill="#000000">iostream</text>
</g>
<!-- Node0&#45;&gt;Node6 -->
<g id="edge6" class="edge">
<title>Node0&#45;&gt;Node6</title>
<path fill="none" stroke="#191970" d="M192.118,-112.2977C198.71,-103.672 206.9948,-92.8312 213.8901,-83.8087"/>
<polygon fill="#191970" stroke="#191970" points="216.6835,-85.9176 219.9747,-75.8469 211.1217,-81.6671 216.6835,-85.9176"/>
</g>
<!-- Node2 -->
<g id="node3" class="node">
<title>Node2</title>
<polygon fill="none" stroke="#bfbfbf" points="0,-.5 0,-19.5 41,-19.5 41,-.5 0,-.5"/>
<text text-anchor="middle" x="20.5" y="-7.5" font-family="Helvetica,sans-Serif" font-size="10.00" fill="#000000">string</text>
</g>
<!-- Node1&#45;&gt;Node2 -->
<g id="edge2" class="edge">
<title>Node1&#45;&gt;Node2</title>
<path fill="none" stroke="#191970" d="M114.0746,-56.3733C96.0979,-47.4644 69.1559,-34.1127 48.791,-24.0203"/>
<polygon fill="#191970" stroke="#191970" points="50.1861,-20.8055 39.6719,-19.5011 47.0778,-27.0776 50.1861,-20.8055"/>
</g>
<!-- Node3 -->
<g id="node4" class="node">
<title>Node3</title>
<polygon fill="none" stroke="#bfbfbf" points="59.5,-.5 59.5,-19.5 123.5,-19.5 123.5,-.5 59.5,-.5"/>
<text text-anchor="middle" x="91.5" y="-7.5" font-family="Helvetica,sans-Serif" font-size="10.00" fill="#000000">glad/glad.h</text>
</g>
<!-- Node1&#45;&gt;Node3 -->
<g id="edge3" class="edge">
<title>Node1&#45;&gt;Node3</title>
<path fill="none" stroke="#191970" d="M126.1842,-56.2455C120.2821,-48.3761 111.8258,-37.101 104.7406,-27.6542"/>
<polygon fill="#191970" stroke="#191970" points="107.5321,-25.5427 98.732,-19.6427 101.932,-29.7427 107.5321,-25.5427"/>
</g>
<!-- Node4 -->
<g id="node5" class="node">
<title>Node4</title>
<polygon fill="none" stroke="#bfbfbf" points="141.5,-.5 141.5,-19.5 211.5,-19.5 211.5,-.5 141.5,-.5"/>
<text text-anchor="middle" x="176.5" y="-7.5" font-family="Helvetica,sans-Serif" font-size="10.00" fill="#000000">glm/glm.hpp</text>
</g>
<!-- Node1&#45;&gt;Node4 -->
<g id="edge4" class="edge">
<title>Node1&#45;&gt;Node4</title>
<path fill="none" stroke="#191970" d="M140.99,-56.2455C147.0326,-48.3761 155.6903,-37.101 162.9441,-27.6542"/>
<polygon fill="#191970" stroke="#191970" points="165.7815,-29.7058 169.0958,-19.6427 160.2295,-25.4426 165.7815,-29.7058"/>
</g>
<!-- Node5 -->
<g id="node6" class="node">
<title>Node5</title>
<polygon fill="none" stroke="#bfbfbf" points="229.5,-.5 229.5,-19.5 335.5,-19.5 335.5,-.5 229.5,-.5"/>
<text text-anchor="middle" x="282.5" y="-7.5" font-family="Helvetica,sans-Serif" font-size="10.00" fill="#000000">glm/gtc/type_ptr.hpp</text>
</g>
<!-- Node1&#45;&gt;Node5 -->
<g id="edge5" class="edge">
<title>Node1&#45;&gt;Node5</title>
<path fill="none" stroke="#191970" d="M159.114,-56.3733C183.5687,-47.1822 220.6054,-33.2624 247.7209,-23.0713"/>
<polygon fill="#191970" stroke="#191970" points="249.0909,-26.2956 257.2202,-19.5011 246.6281,-19.7431 249.0909,-26.2956"/>
</g>
</g>
</svg>
