<?xml version="1.0" encoding="UTF-8" standalone="no"?>
<!DOCTYPE svg PUBLIC "-//W3C//DTD SVG 1.1//EN"
 "http://www.w3.org/Graphics/SVG/1.1/DTD/svg11.dtd">
<!-- Generated by graphviz version 2.40.1 (20161225.0304)
 -->
<!-- Title: /mnt/hdd/C0de/smart_engine/include/shader.h Pages: 1 -->
<!--zoomable 351 -->
<svg id="main" version="1.1" xmlns="http://www.w3.org/2000/svg" xmlns:xlink="http://www.w3.org/1999/xlink" xml:space="preserve" onload="init(evt)">
<style type="text/css"><![CDATA[
.edge:hover path { stroke: red; }
.edge:hover polygon { stroke: red; fill: red; }
]]></style>
<script type="text/javascript"><![CDATA[
var edges = document.getElementsByTagName('g');
if (edges && edges.length) {
  for (var i=0;i<edges.length;i++) {
    if (edges[i].id.substr(0,4)=='edge') {
      edges[i].setAttribute('class','edge');
    }
  }
}
]]></script>
        <defs>
                <circle id="rim" cx="0" cy="0" r="7"/>
                <circle id="rim2" cx="0" cy="0" r="3.5"/>
                <g id="zoomPlus">
                        <use xlink:href="#rim" fill="#404040">
                                <set attributeName="fill" to="#808080" begin="zoomplus.mouseover" end="zoomplus.mouseout"/>
                        </use>
                        <path d="M-4,0h8M0,-4v8" fill="none" stroke="white" stroke-width="1.5" pointer-events="none"/>
                </g>
                <g id="zoomMin">
                        <use xlink:href="#rim" fill="#404040">
                                <set attributeName="fill" to="#808080" begin="zoomminus.mouseover" end="zoomminus.mouseout"/>
                        </use>
                        <path d="M-4,0h8" fill="none" stroke="white" stroke-width="1.5" pointer-events="none"/>
                </g>
                <g id="dirArrow">
                        <path fill="none" stroke="white" stroke-width="1.5" d="M0,-3.0v7 M-2.5,-0.5L0,-3.0L2.5,-0.5"/>
                </g>
               <g id="resetDef">
                       <use xlink:href="#rim2" fill="#404040">
                               <set attributeName="fill" to="#808080" begin="reset.mouseover" end="reset.mouseout"/>
                       </use>
               </g>
        </defs>

<script type="text/javascript">
var viewWidth = 1404;
var viewHeight = 351;
var sectionId = 'dynsection-1';
</script>
<script xlink:href="svgpan.js"/>
<svg id="graph" class="graph">
<g id="viewport">
<title>/mnt/hdd/C0de/smart_engine/include/shader.h</title>
<!-- Node5 -->
<g id="node1" class="node">
<title>Node5</title>
<polygon fill="#bfbfbf" stroke="#000000" points="731,-312.5 731,-342.5 856,-342.5 856,-312.5 731,-312.5"/>
<text text-anchor="start" x="739" y="-330.5" font-family="Helvetica,sans-Serif" font-size="10.00" fill="#000000">/mnt/hdd/C0de/smart</text>
<text text-anchor="middle" x="793.5" y="-319.5" font-family="Helvetica,sans-Serif" font-size="10.00" fill="#000000">_engine/include/shader.h</text>
</g>
<!-- Node6 -->
<g id="node2" class="node">
<title>Node6</title>
<g id="a_node2"><a xlink:href="resource__manager_8h.html" target="_top" xlink:title="/mnt/hdd/C0de/smart\l_engine/include/resource\l_manager.h">
<polygon fill="none" stroke="#000000" points="519,-234.5 519,-275.5 644,-275.5 644,-234.5 519,-234.5"/>
<text text-anchor="start" x="527" y="-263.5" font-family="Helvetica,sans-Serif" font-size="10.00" fill="#000000">/mnt/hdd/C0de/smart</text>
<text text-anchor="start" x="527" y="-252.5" font-family="Helvetica,sans-Serif" font-size="10.00" fill="#000000">_engine/include/resource</text>
<text text-anchor="middle" x="581.5" y="-241.5" font-family="Helvetica,sans-Serif" font-size="10.00" fill="#000000">_manager.h</text>
</a>
</g>
</g>
<!-- Node5&#45;&gt;Node6 -->
<g id="edge1" class="edge">
<title>Node5&#45;&gt;Node6</title>
<path fill="none" stroke="#191970" d="M740.1054,-309.24C710.0718,-298.9691 672.4904,-286.117 641.4492,-275.5015"/>
<polygon fill="#191970" stroke="#191970" points="738.9789,-312.5538 749.5735,-312.478 741.244,-305.9304 738.9789,-312.5538"/>
</g>
<!-- Node19 -->
<g id="node15" class="node">
<title>Node19</title>
<g id="a_node15"><a xlink:href="sprite__renderer_8h.html" target="_top" xlink:title="/mnt/hdd/C0de/smart\l_engine/include/sprite\l_renderer.h">
<polygon fill="none" stroke="#000000" points="719,-78.5 719,-119.5 830,-119.5 830,-78.5 719,-78.5"/>
<text text-anchor="start" x="727" y="-107.5" font-family="Helvetica,sans-Serif" font-size="10.00" fill="#000000">/mnt/hdd/C0de/smart</text>
<text text-anchor="start" x="727" y="-96.5" font-family="Helvetica,sans-Serif" font-size="10.00" fill="#000000">_engine/include/sprite</text>
<text text-anchor="middle" x="774.5" y="-85.5" font-family="Helvetica,sans-Serif" font-size="10.00" fill="#000000">_renderer.h</text>
</a>
</g>
</g>
<!-- Node5&#45;&gt;Node19 -->
<g id="edge15" class="edge">
<title>Node5&#45;&gt;Node19</title>
<path fill="none" stroke="#191970" d="M791.3727,-301.916C787.5766,-256.2628 779.7075,-161.6266 776.2238,-119.7307"/>
<polygon fill="#191970" stroke="#191970" points="787.9072,-302.4771 792.2239,-312.1527 794.8831,-301.897 787.9072,-302.4771"/>
</g>
<!-- Node21 -->
<g id="node17" class="node">
<title>Node21</title>
<g id="a_node17"><a xlink:href="text__renderer_8h.html" target="_top" xlink:title="/mnt/hdd/C0de/smart\l_engine/include/text\l_renderer.h">
<polygon fill="none" stroke="#000000" points="848,-78.5 848,-119.5 957,-119.5 957,-78.5 848,-78.5"/>
<text text-anchor="start" x="856" y="-107.5" font-family="Helvetica,sans-Serif" font-size="10.00" fill="#000000">/mnt/hdd/C0de/smart</text>
<text text-anchor="start" x="856" y="-96.5" font-family="Helvetica,sans-Serif" font-size="10.00" fill="#000000">_engine/include/text</text>
<text text-anchor="middle" x="902.5" y="-85.5" font-family="Helvetica,sans-Serif" font-size="10.00" fill="#000000">_renderer.h</text>
</a>
</g>
</g>
<!-- Node5&#45;&gt;Node21 -->
<g id="edge22" class="edge">
<title>Node5&#45;&gt;Node21</title>
<path fill="none" stroke="#191970" d="M802.7048,-302.9834C810.0298,-283.9572 820.7947,-257.0317 831.5,-234 850.6984,-192.696 876.1495,-145.9531 890.7847,-119.7251"/>
<polygon fill="#191970" stroke="#191970" points="799.4037,-301.8171 799.109,-312.4078 805.9439,-304.3124 799.4037,-301.8171"/>
</g>
<!-- Node22 -->
<g id="node18" class="node">
<title>Node22</title>
<g id="a_node18"><a xlink:href="shader_8cpp.html" target="_top" xlink:title="/mnt/hdd/C0de/smart\l_engine/src/shader.cpp">
<polygon fill="none" stroke="#000000" points="840.5,-240 840.5,-270 958.5,-270 958.5,-240 840.5,-240"/>
<text text-anchor="start" x="848.5" y="-258" font-family="Helvetica,sans-Serif" font-size="10.00" fill="#000000">/mnt/hdd/C0de/smart</text>
<text text-anchor="middle" x="899.5" y="-247" font-family="Helvetica,sans-Serif" font-size="10.00" fill="#000000">_engine/src/shader.cpp</text>
</a>
</g>
</g>
<!-- Node5&#45;&gt;Node22 -->
<g id="edge29" class="edge">
<title>Node5&#45;&gt;Node22</title>
<path fill="none" stroke="#191970" d="M824.0131,-306.6302C841.1264,-294.9253 862.0797,-280.5941 877.5649,-270.0028"/>
<polygon fill="#191970" stroke="#191970" points="821.7414,-303.9436 815.4633,-312.478 825.6932,-309.7214 821.7414,-303.9436"/>
</g>
<!-- Node7 -->
<g id="node3" class="node">
<title>Node7</title>
<g id="a_node3"><a xlink:href="entity_8h.html" target="_top" xlink:title="/mnt/hdd/C0de/smart\l_engine/include/entity.h">
<polygon fill="none" stroke="#000000" points="522,-162 522,-192 641,-192 641,-162 522,-162"/>
<text text-anchor="start" x="530" y="-180" font-family="Helvetica,sans-Serif" font-size="10.00" fill="#000000">/mnt/hdd/C0de/smart</text>
<text text-anchor="middle" x="581.5" y="-169" font-family="Helvetica,sans-Serif" font-size="10.00" fill="#000000">_engine/include/entity.h</text>
</a>
</g>
</g>
<!-- Node6&#45;&gt;Node7 -->
<g id="edge2" class="edge">
<title>Node6&#45;&gt;Node7</title>
<path fill="none" stroke="#191970" d="M581.5,-224.0187C581.5,-213.1033 581.5,-201.3119 581.5,-192.2679"/>
<polygon fill="#191970" stroke="#191970" points="578.0001,-224.0974 581.5,-234.0974 585.0001,-224.0975 578.0001,-224.0974"/>
</g>
<!-- Node10 -->
<g id="node6" class="node">
<title>Node10</title>
<g id="a_node6"><a xlink:href="game_8cpp.html" target="_top" xlink:title="/mnt/hdd/C0de/smart\l_engine/src/game.cpp">
<polygon fill="none" stroke="#000000" points="374,-6 374,-36 487,-36 487,-6 374,-6"/>
<text text-anchor="start" x="382" y="-24" font-family="Helvetica,sans-Serif" font-size="10.00" fill="#000000">/mnt/hdd/C0de/smart</text>
<text text-anchor="middle" x="430.5" y="-13" font-family="Helvetica,sans-Serif" font-size="10.00" fill="#000000">_engine/src/game.cpp</text>
</a>
</g>
</g>
<!-- Node6&#45;&gt;Node10 -->
<g id="edge12" class="edge">
<title>Node6&#45;&gt;Node10</title>
<path fill="none" stroke="#191970" d="M543.6172,-228.1594C512.5207,-203.8015 470.3375,-164.8992 449.5,-120 436.607,-92.219 432.4624,-56.1571 431.1305,-36.1179"/>
<polygon fill="#191970" stroke="#191970" points="541.6007,-231.0238 551.6649,-234.3349 545.8622,-225.4704 541.6007,-231.0238"/>
</g>
<!-- Node17 -->
<g id="node13" class="node">
<title>Node17</title>
<g id="a_node13"><a xlink:href="resource__manager_8cpp.html" target="_top" xlink:title="/mnt/hdd/C0de/smart\l_engine/src/resource\l_manager.cpp">
<polygon fill="none" stroke="#000000" points="293,-156.5 293,-197.5 402,-197.5 402,-156.5 293,-156.5"/>
<text text-anchor="start" x="301" y="-185.5" font-family="Helvetica,sans-Serif" font-size="10.00" fill="#000000">/mnt/hdd/C0de/smart</text>
<text text-anchor="start" x="301" y="-174.5" font-family="Helvetica,sans-Serif" font-size="10.00" fill="#000000">_engine/src/resource</text>
<text text-anchor="middle" x="347.5" y="-163.5" font-family="Helvetica,sans-Serif" font-size="10.00" fill="#000000">_manager.cpp</text>
</a>
</g>
</g>
<!-- Node6&#45;&gt;Node17 -->
<g id="edge13" class="edge">
<title>Node6&#45;&gt;Node17</title>
<path fill="none" stroke="#191970" d="M510.0936,-231.1979C475.345,-219.615 434.2359,-205.912 402.0477,-195.1826"/>
<polygon fill="#191970" stroke="#191970" points="509.1195,-234.5624 519.7132,-234.4044 511.3331,-227.9217 509.1195,-234.5624"/>
</g>
<!-- Node18 -->
<g id="node14" class="node">
<title>Node18</title>
<g id="a_node14"><a xlink:href="text__renderer_8cpp.html" target="_top" xlink:title="/mnt/hdd/C0de/smart\l_engine/src/text_renderer.cpp">
<polygon fill="none" stroke="#000000" points="1249.5,-6 1249.5,-36 1395.5,-36 1395.5,-6 1249.5,-6"/>
<text text-anchor="start" x="1257.5" y="-24" font-family="Helvetica,sans-Serif" font-size="10.00" fill="#000000">/mnt/hdd/C0de/smart</text>
<text text-anchor="middle" x="1322.5" y="-13" font-family="Helvetica,sans-Serif" font-size="10.00" fill="#000000">_engine/src/text_renderer.cpp</text>
</a>
</g>
</g>
<!-- Node6&#45;&gt;Node18 -->
<g id="edge14" class="edge">
<title>Node6&#45;&gt;Node18</title>
<path fill="none" stroke="#191970" d="M653.6712,-232.2091C804.2264,-184.6654 1148.2782,-76.0174 1274.7313,-36.0849"/>
<polygon fill="#191970" stroke="#191970" points="652.5205,-228.902 644.0386,-235.251 654.6284,-235.5771 652.5205,-228.902"/>
</g>
<!-- Node8 -->
<g id="node4" class="node">
<title>Node8</title>
<g id="a_node4"><a xlink:href="entity__manager_8h.html" target="_top" xlink:title="/mnt/hdd/C0de/smart\l_engine/include/entity\l_manager.h">
<polygon fill="none" stroke="#000000" points="459,-78.5 459,-119.5 570,-119.5 570,-78.5 459,-78.5"/>
<text text-anchor="start" x="467" y="-107.5" font-family="Helvetica,sans-Serif" font-size="10.00" fill="#000000">/mnt/hdd/C0de/smart</text>
<text text-anchor="start" x="467" y="-96.5" font-family="Helvetica,sans-Serif" font-size="10.00" fill="#000000">_engine/include/entity</text>
<text text-anchor="middle" x="514.5" y="-85.5" font-family="Helvetica,sans-Serif" font-size="10.00" fill="#000000">_manager.h</text>
</a>
</g>
</g>
<!-- Node7&#45;&gt;Node8 -->
<g id="edge3" class="edge">
<title>Node7&#45;&gt;Node8</title>
<path fill="none" stroke="#191970" d="M561.8124,-154.0801C552.432,-143.1596 541.2999,-130.1999 532.1911,-119.5956"/>
<polygon fill="#191970" stroke="#191970" points="559.4108,-156.6557 568.5817,-161.9608 564.7208,-152.0945 559.4108,-156.6557"/>
</g>
<!-- Node16 -->
<g id="node12" class="node">
<title>Node16</title>
<g id="a_node12"><a xlink:href="entity_8cpp.html" target="_top" xlink:title="/mnt/hdd/C0de/smart\l_engine/src/entity.cpp">
<polygon fill="none" stroke="#000000" points="588,-84 588,-114 701,-114 701,-84 588,-84"/>
<text text-anchor="start" x="596" y="-102" font-family="Helvetica,sans-Serif" font-size="10.00" fill="#000000">/mnt/hdd/C0de/smart</text>
<text text-anchor="middle" x="644.5" y="-91" font-family="Helvetica,sans-Serif" font-size="10.00" fill="#000000">_engine/src/entity.cpp</text>
</a>
</g>
</g>
<!-- Node7&#45;&gt;Node16 -->
<g id="edge11" class="edge">
<title>Node7&#45;&gt;Node16</title>
<path fill="none" stroke="#191970" d="M600.0676,-154.0116C610.424,-141.1894 623.0373,-125.5729 632.1753,-114.2592"/>
<polygon fill="#191970" stroke="#191970" points="597.2076,-151.9822 593.647,-161.9608 602.6532,-156.3806 597.2076,-151.9822"/>
</g>
<!-- Node9 -->
<g id="node5" class="node">
<title>Node9</title>
<g id="a_node5"><a xlink:href="entity__manager_8cpp.html" target="_top" xlink:title="/mnt/hdd/C0de/smart\l_engine/src/entity_manager.cpp">
<polygon fill="none" stroke="#000000" points="0,-6 0,-36 155,-36 155,-6 0,-6"/>
<text text-anchor="start" x="8" y="-24" font-family="Helvetica,sans-Serif" font-size="10.00" fill="#000000">/mnt/hdd/C0de/smart</text>
<text text-anchor="middle" x="77.5" y="-13" font-family="Helvetica,sans-Serif" font-size="10.00" fill="#000000">_engine/src/entity_manager.cpp</text>
</a>
</g>
</g>
<!-- Node8&#45;&gt;Node9 -->
<g id="edge4" class="edge">
<title>Node8&#45;&gt;Node9</title>
<path fill="none" stroke="#191970" d="M448.7227,-89.7999C378.1775,-79.5806 263.0011,-61.8794 164.5,-42 155.6661,-40.2171 146.3693,-38.1642 137.2728,-36.0551"/>
<polygon fill="#191970" stroke="#191970" points="448.4028,-93.2899 458.7999,-91.2527 449.4017,-86.3615 448.4028,-93.2899"/>
</g>
<!-- Node8&#45;&gt;Node10 -->
<g id="edge5" class="edge">
<title>Node8&#45;&gt;Node10</title>
<path fill="none" stroke="#191970" d="M484.3263,-70.9816C471.6176,-59.1807 457.3361,-45.9193 446.6789,-36.0233"/>
<polygon fill="#191970" stroke="#191970" points="482.28,-73.8577 491.9895,-78.0974 487.0432,-68.7281 482.28,-73.8577"/>
</g>
<!-- Node11 -->
<g id="node7" class="node">
<title>Node11</title>
<g id="a_node7"><a xlink:href="game__over__state_8cpp.html" target="_top" xlink:title="/mnt/hdd/C0de/smart\l_engine/src/game_over\l_state.cpp">
<polygon fill="none" stroke="#000000" points="505.5,-.5 505.5,-41.5 623.5,-41.5 623.5,-.5 505.5,-.5"/>
<text text-anchor="start" x="513.5" y="-29.5" font-family="Helvetica,sans-Serif" font-size="10.00" fill="#000000">/mnt/hdd/C0de/smart</text>
<text text-anchor="start" x="513.5" y="-18.5" font-family="Helvetica,sans-Serif" font-size="10.00" fill="#000000">_engine/src/game_over</text>
<text text-anchor="middle" x="564.5" y="-7.5" font-family="Helvetica,sans-Serif" font-size="10.00" fill="#000000">_state.cpp</text>
</a>
</g>
</g>
<!-- Node8&#45;&gt;Node11 -->
<g id="edge6" class="edge">
<title>Node8&#45;&gt;Node11</title>
<path fill="none" stroke="#191970" d="M533.3986,-69.5181C539.3409,-60.2482 545.773,-50.2141 551.2373,-41.6898"/>
<polygon fill="#191970" stroke="#191970" points="530.3492,-67.7898 527.8991,-78.0974 536.2424,-71.5675 530.3492,-67.7898"/>
</g>
<!-- Node12 -->
<g id="node8" class="node">
<title>Node12</title>
<g id="a_node8"><a xlink:href="game__play__state_8cpp.html" target="_top" xlink:title="/mnt/hdd/C0de/smart\l_engine/src/game_play\l_state.cpp">
<polygon fill="none" stroke="#000000" points="642,-.5 642,-41.5 759,-41.5 759,-.5 642,-.5"/>
<text text-anchor="start" x="650" y="-29.5" font-family="Helvetica,sans-Serif" font-size="10.00" fill="#000000">/mnt/hdd/C0de/smart</text>
<text text-anchor="start" x="650" y="-18.5" font-family="Helvetica,sans-Serif" font-size="10.00" fill="#000000">_engine/src/game_play</text>
<text text-anchor="middle" x="700.5" y="-7.5" font-family="Helvetica,sans-Serif" font-size="10.00" fill="#000000">_state.cpp</text>
</a>
</g>
</g>
<!-- Node8&#45;&gt;Node12 -->
<g id="edge7" class="edge">
<title>Node8&#45;&gt;Node12</title>
<path fill="none" stroke="#191970" d="M573.3011,-74.3415C598.4901,-63.7784 627.5679,-51.5844 651.5585,-41.5239"/>
<polygon fill="#191970" stroke="#191970" points="571.7246,-71.2072 563.8563,-78.3022 574.4318,-77.6626 571.7246,-71.2072"/>
</g>
<!-- Node13 -->
<g id="node9" class="node">
<title>Node13</title>
<g id="a_node9"><a xlink:href="LoadingGameObjects_8cpp.html" target="_top" xlink:title="/mnt/hdd/C0de/smart\l_engine/src/LoadingGameObjects.cpp">
<polygon fill="none" stroke="#000000" points="173.5,-6 173.5,-36 355.5,-36 355.5,-6 173.5,-6"/>
<text text-anchor="start" x="181.5" y="-24" font-family="Helvetica,sans-Serif" font-size="10.00" fill="#000000">/mnt/hdd/C0de/smart</text>
<text text-anchor="middle" x="264.5" y="-13" font-family="Helvetica,sans-Serif" font-size="10.00" fill="#000000">_engine/src/LoadingGameObjects.cpp</text>
</a>
</g>
</g>
<!-- Node8&#45;&gt;Node13 -->
<g id="edge8" class="edge">
<title>Node8&#45;&gt;Node13</title>
<path fill="none" stroke="#191970" d="M448.9764,-78.5566C406.3453,-65.2557 351.6792,-48.1999 312.9526,-36.1172"/>
<polygon fill="#191970" stroke="#191970" points="448.1177,-81.955 458.7063,-81.5924 450.2026,-75.2727 448.1177,-81.955"/>
</g>
<!-- Node14 -->
<g id="node10" class="node">
<title>Node14</title>
<g id="a_node10"><a xlink:href="main__menu__state_8cpp.html" target="_top" xlink:title="/mnt/hdd/C0de/smart\l_engine/src/main_menu\l_state.cpp">
<polygon fill="none" stroke="#000000" points="777.5,-.5 777.5,-41.5 897.5,-41.5 897.5,-.5 777.5,-.5"/>
<text text-anchor="start" x="785.5" y="-29.5" font-family="Helvetica,sans-Serif" font-size="10.00" fill="#000000">/mnt/hdd/C0de/smart</text>
<text text-anchor="start" x="785.5" y="-18.5" font-family="Helvetica,sans-Serif" font-size="10.00" fill="#000000">_engine/src/main_menu</text>
<text text-anchor="middle" x="837.5" y="-7.5" font-family="Helvetica,sans-Serif" font-size="10.00" fill="#000000">_state.cpp</text>
</a>
</g>
</g>
<!-- Node8&#45;&gt;Node14 -->
<g id="edge9" class="edge">
<title>Node8&#45;&gt;Node14</title>
<path fill="none" stroke="#191970" d="M580.0874,-77.7361C663.0959,-57.0121 687.5198,-61.5589 767.5,-42 770.7044,-41.2164 773.98,-40.3753 777.2792,-39.4965"/>
<polygon fill="#191970" stroke="#191970" points="579.0498,-74.3885 570.2225,-80.2476 580.7769,-81.1721 579.0498,-74.3885"/>
</g>
<!-- Node15 -->
<g id="node11" class="node">
<title>Node15</title>
<g id="a_node11"><a xlink:href="splash__state_8cpp.html" target="_top" xlink:title="/mnt/hdd/C0de/smart\l_engine/src/splash_state.cpp">
<polygon fill="none" stroke="#000000" points="915.5,-6 915.5,-36 1059.5,-36 1059.5,-6 915.5,-6"/>
<text text-anchor="start" x="923.5" y="-24" font-family="Helvetica,sans-Serif" font-size="10.00" fill="#000000">/mnt/hdd/C0de/smart</text>
<text text-anchor="middle" x="987.5" y="-13" font-family="Helvetica,sans-Serif" font-size="10.00" fill="#000000">_engine/src/splash_state.cpp</text>
</a>
</g>
</g>
<!-- Node8&#45;&gt;Node15 -->
<g id="edge10" class="edge">
<title>Node8&#45;&gt;Node15</title>
<path fill="none" stroke="#191970" d="M580.2138,-77.8391C723.7014,-47.9133 765.4955,-67.8766 906.5,-42 915.3591,-40.3742 924.678,-38.3042 933.7146,-36.1004"/>
<polygon fill="#191970" stroke="#191970" points="579.2102,-74.4744 570.1595,-79.9821 580.6695,-81.3206 579.2102,-74.4744"/>
</g>
<!-- Node19&#45;&gt;Node10 -->
<g id="edge16" class="edge">
<title>Node19&#45;&gt;Node10</title>
<path fill="none" stroke="#191970" d="M708.996,-78.071C614.4126,-55.7728 586.7106,-63.8603 496.5,-42 489.4883,-40.3009 482.1379,-38.2447 474.9926,-36.0921"/>
<polygon fill="#191970" stroke="#191970" points="708.441,-81.5374 718.9828,-80.4783 710.0815,-74.7323 708.441,-81.5374"/>
</g>
<!-- Node19&#45;&gt;Node11 -->
<g id="edge17" class="edge">
<title>Node19&#45;&gt;Node11</title>
<path fill="none" stroke="#191970" d="M709.5096,-74.8607C680.8012,-64.1976 647.4006,-51.7917 619.896,-41.5757"/>
<polygon fill="#191970" stroke="#191970" points="708.4573,-78.2035 719.0503,-78.4044 710.8947,-71.6415 708.4573,-78.2035"/>
</g>
<!-- Node19&#45;&gt;Node12 -->
<g id="edge18" class="edge">
<title>Node19&#45;&gt;Node12</title>
<path fill="none" stroke="#191970" d="M747.6142,-70.6609C738.523,-61.0783 728.5495,-50.5657 720.1288,-41.6898"/>
<polygon fill="#191970" stroke="#191970" points="745.2476,-73.2517 754.6694,-78.0974 750.3259,-68.4338 745.2476,-73.2517"/>
</g>
<!-- Node19&#45;&gt;Node14 -->
<g id="edge19" class="edge">
<title>Node19&#45;&gt;Node14</title>
<path fill="none" stroke="#191970" d="M797.85,-70.0905C805.4648,-60.6626 813.762,-50.3899 820.789,-41.6898"/>
<polygon fill="#191970" stroke="#191970" points="794.9434,-68.1188 791.3828,-78.0974 800.3891,-72.5172 794.9434,-68.1188"/>
</g>
<!-- Node19&#45;&gt;Node15 -->
<g id="edge20" class="edge">
<title>Node19&#45;&gt;Node15</title>
<path fill="none" stroke="#191970" d="M839.7732,-75.0972C874.4704,-62.3911 916.0716,-47.1569 946.2732,-36.0971"/>
<polygon fill="#191970" stroke="#191970" points="838.3717,-71.883 830.185,-78.6083 840.7788,-78.4561 838.3717,-71.883"/>
</g>
<!-- Node20 -->
<g id="node16" class="node">
<title>Node20</title>
<g id="a_node16"><a xlink:href="sprite__renderer_8cpp.html" target="_top" xlink:title="/mnt/hdd/C0de/smart\l_engine/src/sprite_renderer.cpp">
<polygon fill="none" stroke="#000000" points="1078,-6 1078,-36 1231,-36 1231,-6 1078,-6"/>
<text text-anchor="start" x="1086" y="-24" font-family="Helvetica,sans-Serif" font-size="10.00" fill="#000000">/mnt/hdd/C0de/smart</text>
<text text-anchor="middle" x="1154.5" y="-13" font-family="Helvetica,sans-Serif" font-size="10.00" fill="#000000">_engine/src/sprite_renderer.cpp</text>
</a>
</g>
</g>
<!-- Node19&#45;&gt;Node20 -->
<g id="edge21" class="edge">
<title>Node19&#45;&gt;Node20</title>
<path fill="none" stroke="#191970" d="M840.1719,-77.7673C940.9135,-54.2949 970.2127,-61.6559 1068.5,-42 1077.3918,-40.2218 1086.753,-38.1478 1095.8949,-36.0088"/>
<polygon fill="#191970" stroke="#191970" points="839.1154,-74.4208 830.1949,-80.137 840.7331,-81.2313 839.1154,-74.4208"/>
</g>
<!-- Node21&#45;&gt;Node10 -->
<g id="edge23" class="edge">
<title>Node21&#45;&gt;Node10</title>
<path fill="none" stroke="#191970" d="M837.817,-78.1156C687.1539,-47.1422 642.8798,-72.6592 496.5,-42 488.9678,-40.4224 481.0768,-38.3211 473.477,-36.0565"/>
<polygon fill="#191970" stroke="#191970" points="837.3903,-81.6025 847.897,-80.2387 838.833,-74.7528 837.3903,-81.6025"/>
</g>
<!-- Node21&#45;&gt;Node11 -->
<g id="edge24" class="edge">
<title>Node21&#45;&gt;Node11</title>
<path fill="none" stroke="#191970" d="M837.8893,-78.0372C746.5161,-55.9856 719.7724,-63.0124 632.5,-42 629.617,-41.3059 626.6769,-40.5573 623.7158,-39.7707"/>
<polygon fill="#191970" stroke="#191970" points="837.2915,-81.4946 847.8386,-80.4902 838.9672,-74.6981 837.2915,-81.4946"/>
</g>
<!-- Node21&#45;&gt;Node12 -->
<g id="edge25" class="edge">
<title>Node21&#45;&gt;Node12</title>
<path fill="none" stroke="#191970" d="M839.6249,-74.7215C812.0914,-64.0897 780.1275,-51.7473 753.7857,-41.5757"/>
<polygon fill="#191970" stroke="#191970" points="838.5732,-78.0672 849.1626,-78.4044 841.0947,-71.5371 838.5732,-78.0672"/>
</g>
<!-- Node21&#45;&gt;Node14 -->
<g id="edge26" class="edge">
<title>Node21&#45;&gt;Node14</title>
<path fill="none" stroke="#191970" d="M878.6466,-70.376C870.7253,-60.8703 862.0648,-50.4778 854.7415,-41.6898"/>
<polygon fill="#191970" stroke="#191970" points="875.9905,-72.6559 885.0812,-78.0974 881.3681,-68.1745 875.9905,-72.6559"/>
</g>
<!-- Node21&#45;&gt;Node15 -->
<g id="edge27" class="edge">
<title>Node21&#45;&gt;Node15</title>
<path fill="none" stroke="#191970" d="M932.6694,-71.3152C945.6199,-59.4312 960.2427,-46.0126 971.1284,-36.0233"/>
<polygon fill="#191970" stroke="#191970" points="930.28,-68.7574 925.2784,-78.0974 935.0128,-73.915 930.28,-68.7574"/>
</g>
<!-- Node21&#45;&gt;Node18 -->
<g id="edge28" class="edge">
<title>Node21&#45;&gt;Node18</title>
<path fill="none" stroke="#191970" d="M967.3807,-89.7075C1035.651,-79.5449 1146.0891,-62.0133 1240.5,-42 1248.8381,-40.2325 1257.6072,-38.1879 1266.1838,-36.0826"/>
<polygon fill="#191970" stroke="#191970" points="966.5875,-86.2867 957.208,-91.2137 967.6128,-93.2112 966.5875,-86.2867"/>
</g>
</g>
</svg>
        <g id="navigator" transform="translate(0 0)" fill="#404254">
                <rect fill="#f2f5e9" fill-opacity="0.5" stroke="#606060" stroke-width=".5" x="0" y="0" width="60" height="60"/>
                <use id="zoomplus" xlink:href="#zoomPlus" x="17" y="9" onmousedown="handleZoom(evt,'in')"/>
                <use id="zoomminus" xlink:href="#zoomMin" x="42" y="9" onmousedown="handleZoom(evt,'out')"/>
                <use id="reset" xlink:href="#resetDef" x="30" y="36" onmousedown="handleReset()"/>
                <g id="arrowUp" xlink:href="#dirArrow" transform="translate(30 24)" onmousedown="handlePan(0,-1)">
                  <use xlink:href="#rim" fill="#404040">
                        <set attributeName="fill" to="#808080" begin="arrowUp.mouseover" end="arrowUp.mouseout"/>
                  </use>
                  <path fill="none" stroke="white" stroke-width="1.5" d="M0,-3.0v7 M-2.5,-0.5L0,-3.0L2.5,-0.5"/>
                </g>
                <g id="arrowRight" xlink:href="#dirArrow" transform="rotate(90) translate(36 -43)" onmousedown="handlePan(1,0)">
                  <use xlink:href="#rim" fill="#404040">
                        <set attributeName="fill" to="#808080" begin="arrowRight.mouseover" end="arrowRight.mouseout"/>
                  </use>
                  <path fill="none" stroke="white" stroke-width="1.5" d="M0,-3.0v7 M-2.5,-0.5L0,-3.0L2.5,-0.5"/>
                </g>
                <g id="arrowDown" xlink:href="#dirArrow" transform="rotate(180) translate(-30 -48)" onmousedown="handlePan(0,1)">
                  <use xlink:href="#rim" fill="#404040">
                        <set attributeName="fill" to="#808080" begin="arrowDown.mouseover" end="arrowDown.mouseout"/>
                  </use>
                  <path fill="none" stroke="white" stroke-width="1.5" d="M0,-3.0v7 M-2.5,-0.5L0,-3.0L2.5,-0.5"/>
                </g>
                <g id="arrowLeft" xlink:href="#dirArrow" transform="rotate(270) translate(-36 17)" onmousedown="handlePan(-1,0)">
                  <use xlink:href="#rim" fill="#404040">
                        <set attributeName="fill" to="#808080" begin="arrowLeft.mouseover" end="arrowLeft.mouseout"/>
                  </use>
                  <path fill="none" stroke="white" stroke-width="1.5" d="M0,-3.0v7 M-2.5,-0.5L0,-3.0L2.5,-0.5"/>
                </g>
        </g>
        <svg viewBox="0 0 15 15" width="100%" height="30px" preserveAspectRatio="xMaxYMin meet">
         <g id="arrow_out" transform="scale(0.3 0.3)">
          <a xlink:href="shader_8h__dep__incl_org.svg" target="_base">
           <rect id="button" ry="5" rx="5" y="6" x="6" height="38" width="38"
                fill="#f2f5e9" fill-opacity="0.5" stroke="#606060" stroke-width="1.0"/>
           <path id="arrow"
             d="M 11.500037,31.436501 C 11.940474,20.09759 22.043105,11.32322 32.158766,21.979434 L 37.068811,17.246167 C 37.068811,17.246167 37.088388,32 37.088388,32 L 22.160133,31.978069 C 22.160133,31.978069 26.997745,27.140456 26.997745,27.140456 C 18.528582,18.264221 13.291696,25.230495 11.500037,31.436501 z"
             style="fill:#404040;"/>
          </a>
         </g>
        </svg>
</svg>
