<?xml version="1.0" encoding="UTF-8" standalone="no"?>
<!DOCTYPE svg PUBLIC "-//W3C//DTD SVG 1.1//EN"
 "http://www.w3.org/Graphics/SVG/1.1/DTD/svg11.dtd">
<!-- Generated by graphviz version 2.40.1 (20161225.0304)
 -->
<!-- Title: /mnt/hdd/C0de/smart_engine/include/shader.h Pages: 1 -->
<svg width="344pt" height="95pt"
 viewBox="0.00 0.00 343.50 95.00" xmlns="http://www.w3.org/2000/svg" xmlns:xlink="http://www.w3.org/1999/xlink">
<g id="graph0" class="graph" transform="scale(1 1) rotate(0) translate(4 91)">
<title>/mnt/hdd/C0de/smart_engine/include/shader.h</title>
<!-- Node0 -->
<g id="node1" class="node">
<title>Node0</title>
<polygon fill="#bfbfbf" stroke="#000000" points="71,-56.5 71,-86.5 196,-86.5 196,-56.5 71,-56.5"/>
<text text-anchor="start" x="79" y="-74.5" font-family="Helvetica,sans-Serif" font-size="10.00" fill="#000000">/mnt/hdd/C0de/smart</text>
<text text-anchor="middle" x="133.5" y="-63.5" font-family="Helvetica,sans-Serif" font-size="10.00" fill="#000000">_engine/include/shader.h</text>
</g>
<!-- Node1 -->
<g id="node2" class="node">
<title>Node1</title>
<polygon fill="none" stroke="#bfbfbf" points="0,-.5 0,-19.5 41,-19.5 41,-.5 0,-.5"/>
<text text-anchor="middle" x="20.5" y="-7.5" font-family="Helvetica,sans-Serif" font-size="10.00" fill="#000000">string</text>
</g>
<!-- Node0&#45;&gt;Node1 -->
<g id="edge1" class="edge">
<title>Node0&#45;&gt;Node1</title>
<path fill="none" stroke="#191970" d="M105.8571,-56.4554C87.9951,-46.734 64.8732,-34.15 47.2005,-24.5317"/>
<polygon fill="#191970" stroke="#191970" points="48.4675,-21.2365 38.011,-19.5303 45.1213,-27.3849 48.4675,-21.2365"/>
</g>
<!-- Node2 -->
<g id="node3" class="node">
<title>Node2</title>
<polygon fill="none" stroke="#bfbfbf" points="59.5,-.5 59.5,-19.5 123.5,-19.5 123.5,-.5 59.5,-.5"/>
<text text-anchor="middle" x="91.5" y="-7.5" font-family="Helvetica,sans-Serif" font-size="10.00" fill="#000000">glad/glad.h</text>
</g>
<!-- Node0&#45;&gt;Node2 -->
<g id="edge2" class="edge">
<title>Node0&#45;&gt;Node2</title>
<path fill="none" stroke="#191970" d="M123.118,-56.2977C117.3487,-47.8498 110.1284,-37.2773 104.0447,-28.369"/>
<polygon fill="#191970" stroke="#191970" points="106.7547,-26.1311 98.2247,-19.8469 100.9741,-30.0788 106.7547,-26.1311"/>
</g>
<!-- Node3 -->
<g id="node4" class="node">
<title>Node3</title>
<polygon fill="none" stroke="#bfbfbf" points="141.5,-.5 141.5,-19.5 211.5,-19.5 211.5,-.5 141.5,-.5"/>
<text text-anchor="middle" x="176.5" y="-7.5" font-family="Helvetica,sans-Serif" font-size="10.00" fill="#000000">glm/glm.hpp</text>
</g>
<!-- Node0&#45;&gt;Node3 -->
<g id="edge3" class="edge">
<title>Node0&#45;&gt;Node3</title>
<path fill="none" stroke="#191970" d="M144.1292,-56.2977C150.0981,-47.7609 157.5838,-37.0545 163.8529,-28.0883"/>
<polygon fill="#191970" stroke="#191970" points="166.7534,-30.048 169.6152,-19.8469 161.0165,-26.0368 166.7534,-30.048"/>
</g>
<!-- Node4 -->
<g id="node5" class="node">
<title>Node4</title>
<polygon fill="none" stroke="#bfbfbf" points="229.5,-.5 229.5,-19.5 335.5,-19.5 335.5,-.5 229.5,-.5"/>
<text text-anchor="middle" x="282.5" y="-7.5" font-family="Helvetica,sans-Serif" font-size="10.00" fill="#000000">glm/gtc/type_ptr.hpp</text>
</g>
<!-- Node0&#45;&gt;Node4 -->
<g id="edge4" class="edge">
<title>Node0&#45;&gt;Node4</title>
<path fill="none" stroke="#191970" d="M169.9495,-56.4554C194.3744,-46.374 226.2581,-33.2139 249.8521,-23.4755"/>
<polygon fill="#191970" stroke="#191970" points="251.5021,-26.5809 259.4103,-19.5303 248.8313,-20.1104 251.5021,-26.5809"/>
</g>
</g>
</svg>
