<?xml version="1.0" encoding="UTF-8" standalone="no"?>
<!DOCTYPE svg PUBLIC "-//W3C//DTD SVG 1.1//EN"
 "http://www.w3.org/Graphics/SVG/1.1/DTD/svg11.dtd">
<!-- Generated by graphviz version 2.40.1 (20161225.0304)
 -->
<!-- Title: /mnt/hdd/C0de/smart_engine/src/splash_state.cpp Pages: 1 -->
<svg width="1830pt" height="330pt"
 viewBox="0.00 0.00 1829.58 330.00" xmlns="http://www.w3.org/2000/svg" xmlns:xlink="http://www.w3.org/1999/xlink">
<g id="graph0" class="graph" transform="scale(1 1) rotate(0) translate(4 326)">
<title>/mnt/hdd/C0de/smart_engine/src/splash_state.cpp</title>
<!-- Node0 -->
<g id="node1" class="node">
<title>Node0</title>
<polygon fill="#bfbfbf" stroke="#000000" points="734.0824,-291.5 734.0824,-321.5 878.0824,-321.5 878.0824,-291.5 734.0824,-291.5"/>
<text text-anchor="start" x="742.0824" y="-309.5" font-family="Helvetica,sans-Serif" font-size="10.00" fill="#000000">/mnt/hdd/C0de/smart</text>
<text text-anchor="middle" x="806.0824" y="-298.5" font-family="Helvetica,sans-Serif" font-size="10.00" fill="#000000">_engine/src/splash_state.cpp</text>
</g>
<!-- Node1 -->
<g id="node2" class="node">
<title>Node1</title>
<g id="a_node2"><a xlink:href="sprite__renderer_8h.html" target="_top" xlink:title="../include/sprite_renderer.h">
<polygon fill="none" stroke="#000000" points="200.0824,-123.5 200.0824,-142.5 332.0824,-142.5 332.0824,-123.5 200.0824,-123.5"/>
<text text-anchor="middle" x="266.0824" y="-130.5" font-family="Helvetica,sans-Serif" font-size="10.00" fill="#000000">../include/sprite_renderer.h</text>
</a>
</g>
</g>
<!-- Node0&#45;&gt;Node1 -->
<g id="edge1" class="edge">
<title>Node0&#45;&gt;Node1</title>
<path fill="none" stroke="#191970" d="M759.1056,-291.4065C654.2741,-257.7246 402.8329,-176.9374 305.4976,-145.6639"/>
<polygon fill="#191970" stroke="#191970" points="306.3473,-142.2608 295.756,-142.534 304.206,-148.9253 306.3473,-142.2608"/>
</g>
<!-- Node7 -->
<g id="node8" class="node">
<title>Node7</title>
<polygon fill="none" stroke="#bfbfbf" points="14.5824,-62 14.5824,-81 97.5824,-81 97.5824,-62 14.5824,-62"/>
<text text-anchor="middle" x="56.0824" y="-69" font-family="Helvetica,sans-Serif" font-size="10.00" fill="#000000">unordered_map</text>
</g>
<!-- Node0&#45;&gt;Node7 -->
<g id="edge56" class="edge">
<title>Node0&#45;&gt;Node7</title>
<path fill="none" stroke="#191970" d="M733.7188,-304.9436C631.9662,-301.5015 441.335,-290.4527 283.0824,-255 159.5076,-227.316 86.237,-251.591 21.0824,-143 10.2831,-125.0011 24.616,-103.1933 38.0621,-88.4307"/>
<polygon fill="#191970" stroke="#191970" points="40.8065,-90.6292 45.2756,-81.023 35.7915,-85.7456 40.8065,-90.6292"/>
</g>
<!-- Node16 -->
<g id="node17" class="node">
<title>Node16</title>
<g id="a_node17"><a xlink:href="text__renderer_8h.html" target="_top" xlink:title="../include/text_renderer.h">
<polygon fill="none" stroke="#000000" points="512.5824,-123.5 512.5824,-142.5 637.5824,-142.5 637.5824,-123.5 512.5824,-123.5"/>
<text text-anchor="middle" x="575.0824" y="-130.5" font-family="Helvetica,sans-Serif" font-size="10.00" fill="#000000">../include/text_renderer.h</text>
</a>
</g>
</g>
<!-- Node0&#45;&gt;Node16 -->
<g id="edge20" class="edge">
<title>Node0&#45;&gt;Node16</title>
<path fill="none" stroke="#191970" d="M782.8388,-291.37C767.6385,-281.3246 747.4536,-267.6972 730.0824,-255 680.2591,-218.5822 623.7725,-172.9806 594.6936,-149.1716"/>
<polygon fill="#191970" stroke="#191970" points="596.8664,-146.427 586.9162,-142.7878 592.4252,-151.8377 596.8664,-146.427"/>
</g>
<!-- Node19 -->
<g id="node20" class="node">
<title>Node19</title>
<g id="a_node20"><a xlink:href="entity__manager_8h.html" target="_top" xlink:title="../include/entity_manager.h">
<polygon fill="none" stroke="#000000" points="739.0824,-235.5 739.0824,-254.5 873.0824,-254.5 873.0824,-235.5 739.0824,-235.5"/>
<text text-anchor="middle" x="806.0824" y="-242.5" font-family="Helvetica,sans-Serif" font-size="10.00" fill="#000000">../include/entity_manager.h</text>
</a>
</g>
</g>
<!-- Node0&#45;&gt;Node19 -->
<g id="edge28" class="edge">
<title>Node0&#45;&gt;Node19</title>
<path fill="none" stroke="#191970" d="M806.0824,-291.2977C806.0824,-283.3834 806.0824,-273.6043 806.0824,-265.0759"/>
<polygon fill="#191970" stroke="#191970" points="809.5825,-264.8469 806.0824,-254.8469 802.5825,-264.847 809.5825,-264.8469"/>
</g>
<!-- Node28 -->
<g id="node29" class="node">
<title>Node28</title>
<g id="a_node29"><a xlink:href="LoadingGameObjects_8h.html" target="_top" xlink:title="../include/LoadingGameObjects.h">
<polygon fill="none" stroke="#000000" points="1262.5824,-123.5 1262.5824,-142.5 1423.5824,-142.5 1423.5824,-123.5 1262.5824,-123.5"/>
<text text-anchor="middle" x="1343.0824" y="-130.5" font-family="Helvetica,sans-Serif" font-size="10.00" fill="#000000">../include/LoadingGameObjects.h</text>
</a>
</g>
</g>
<!-- Node0&#45;&gt;Node28 -->
<g id="edge51" class="edge">
<title>Node0&#45;&gt;Node28</title>
<path fill="none" stroke="#191970" d="M878.1711,-299.5091C1036.8047,-283.3995 1404.9556,-241.7567 1441.0824,-199 1460.7832,-175.6837 1424.466,-157.1732 1390.5995,-145.7599"/>
<polygon fill="#191970" stroke="#191970" points="1391.2893,-142.3057 1380.6983,-142.5896 1389.1547,-148.9724 1391.2893,-142.3057"/>
</g>
<!-- Node30 -->
<g id="node31" class="node">
<title>Node30</title>
<polygon fill="none" stroke="#bfbfbf" points="1689.5824,-62 1689.5824,-81 1732.5824,-81 1732.5824,-62 1689.5824,-62"/>
<text text-anchor="middle" x="1711.0824" y="-69" font-family="Helvetica,sans-Serif" font-size="10.00" fill="#000000">cstdio</text>
</g>
<!-- Node0&#45;&gt;Node30 -->
<g id="edge55" class="edge">
<title>Node0&#45;&gt;Node30</title>
<path fill="none" stroke="#191970" d="M878.0984,-304.5388C1064.5371,-299.0964 1553.2037,-282.3764 1621.0824,-255 1692.4366,-226.2218 1720.7578,-212.8193 1753.0824,-143 1762.1989,-123.3088 1746.0207,-102.019 1731.1733,-87.8392"/>
<polygon fill="#191970" stroke="#191970" points="1733.455,-85.1842 1723.6713,-81.1183 1728.784,-90.3979 1733.455,-85.1842"/>
</g>
<!-- Node31 -->
<g id="node32" class="node">
<title>Node31</title>
<g id="a_node32"><a xlink:href="splash__state_8h.html" target="_top" xlink:title="../include/splash_state.h">
<polygon fill="none" stroke="#000000" points="1488.5824,-235.5 1488.5824,-254.5 1611.5824,-254.5 1611.5824,-235.5 1488.5824,-235.5"/>
<text text-anchor="middle" x="1550.0824" y="-242.5" font-family="Helvetica,sans-Serif" font-size="10.00" fill="#000000">../include/splash_state.h</text>
</a>
</g>
</g>
<!-- Node0&#45;&gt;Node31 -->
<g id="edge57" class="edge">
<title>Node0&#45;&gt;Node31</title>
<path fill="none" stroke="#191970" d="M878.3582,-302.2086C1001.0277,-294.6385 1257.7434,-277.5557 1474.0824,-255 1475.3853,-254.8642 1476.7005,-254.724 1478.0249,-254.58"/>
<polygon fill="#191970" stroke="#191970" points="1478.7728,-258.0176 1488.3135,-253.4104 1477.9821,-251.0624 1478.7728,-258.0176"/>
</g>
<!-- Node37 -->
<g id="node38" class="node">
<title>Node37</title>
<g id="a_node38"><a xlink:href="game__text_8h.html" target="_top" xlink:title="../include/game_text.h">
<polygon fill="none" stroke="#000000" points="30.5824,-123.5 30.5824,-142.5 143.5824,-142.5 143.5824,-123.5 30.5824,-123.5"/>
<text text-anchor="middle" x="87.0824" y="-130.5" font-family="Helvetica,sans-Serif" font-size="10.00" fill="#000000">../include/game_text.h</text>
</a>
</g>
</g>
<!-- Node0&#45;&gt;Node37 -->
<g id="edge71" class="edge">
<title>Node0&#45;&gt;Node37</title>
<path fill="none" stroke="#191970" d="M733.9167,-299.8122C587.0311,-285.349 258.7075,-248.4364 158.0824,-199 134.8867,-187.6041 113.9715,-166.1316 100.9473,-150.7719"/>
<polygon fill="#191970" stroke="#191970" points="103.6025,-148.4901 94.5591,-142.9705 98.1866,-152.9249 103.6025,-148.4901"/>
</g>
<!-- Node38 -->
<g id="node39" class="node">
<title>Node38</title>
<g id="a_node39"><a xlink:href="map_8cpp.html" target="_top" xlink:title="map.cpp">
<polygon fill="none" stroke="#000000" points="1028.0824,-235.5 1028.0824,-254.5 1082.0824,-254.5 1082.0824,-235.5 1028.0824,-235.5"/>
<text text-anchor="middle" x="1055.0824" y="-242.5" font-family="Helvetica,sans-Serif" font-size="10.00" fill="#000000">map.cpp</text>
</a>
</g>
</g>
<!-- Node0&#45;&gt;Node38 -->
<g id="edge74" class="edge">
<title>Node0&#45;&gt;Node38</title>
<path fill="none" stroke="#191970" d="M866.9946,-291.4554C914.2784,-279.7769 978.2891,-263.967 1018.1143,-254.1307"/>
<polygon fill="#191970" stroke="#191970" points="1019.0688,-257.5002 1027.9378,-251.7044 1017.3903,-250.7044 1019.0688,-257.5002"/>
</g>
<!-- Node2 -->
<g id="node3" class="node">
<title>Node2</title>
<polygon fill="none" stroke="#bfbfbf" points="183.0824,-62 183.0824,-81 227.0824,-81 227.0824,-62 183.0824,-62"/>
<text text-anchor="middle" x="205.0824" y="-69" font-family="Helvetica,sans-Serif" font-size="10.00" fill="#000000">cmath</text>
</g>
<!-- Node1&#45;&gt;Node2 -->
<g id="edge2" class="edge">
<title>Node1&#45;&gt;Node2</title>
<path fill="none" stroke="#191970" d="M256.5511,-123.3906C247.2945,-114.0581 233.0434,-99.6902 221.8821,-88.4374"/>
<polygon fill="#191970" stroke="#191970" points="224.2752,-85.88 214.748,-81.2449 219.3052,-90.8095 224.2752,-85.88"/>
</g>
<!-- Node3 -->
<g id="node4" class="node">
<title>Node3</title>
<polygon fill="none" stroke="#bfbfbf" points="457.0824,-.5 457.0824,-19.5 521.0824,-19.5 521.0824,-.5 457.0824,-.5"/>
<text text-anchor="middle" x="489.0824" y="-7.5" font-family="Helvetica,sans-Serif" font-size="10.00" fill="#000000">glad/glad.h</text>
</g>
<!-- Node1&#45;&gt;Node3 -->
<g id="edge3" class="edge">
<title>Node1&#45;&gt;Node3</title>
<path fill="none" stroke="#191970" d="M274.1465,-123.3152C288.0625,-107.1808 318.1774,-74.7266 350.0824,-56 366.7426,-46.2213 412.6197,-31.8385 447.1465,-21.7661"/>
<polygon fill="#191970" stroke="#191970" points="448.3655,-25.0571 457.0003,-18.9179 446.4217,-18.3324 448.3655,-25.0571"/>
</g>
<!-- Node4 -->
<g id="node5" class="node">
<title>Node4</title>
<polygon fill="none" stroke="#bfbfbf" points="818.0824,-62 818.0824,-81 898.0824,-81 898.0824,-62 818.0824,-62"/>
<text text-anchor="middle" x="858.0824" y="-69" font-family="Helvetica,sans-Serif" font-size="10.00" fill="#000000">GLFW/glfw3.h</text>
</g>
<!-- Node1&#45;&gt;Node4 -->
<g id="edge4" class="edge">
<title>Node1&#45;&gt;Node4</title>
<path fill="none" stroke="#191970" d="M332.3144,-123.9899C335.2761,-123.6435 338.2093,-123.3116 341.0824,-123 531.7439,-102.3206 580.9189,-111.8457 771.0824,-87 783.0862,-85.4317 795.9555,-83.3576 808.0165,-81.2385"/>
<polygon fill="#191970" stroke="#191970" points="808.6978,-84.6722 817.9208,-79.458 807.4592,-77.7826 808.6978,-84.6722"/>
</g>
<!-- Node5 -->
<g id="node6" class="node">
<title>Node5</title>
<polygon fill="none" stroke="#bfbfbf" points="708.0824,-62 708.0824,-81 762.0824,-81 762.0824,-62 708.0824,-62"/>
<text text-anchor="middle" x="735.0824" y="-69" font-family="Helvetica,sans-Serif" font-size="10.00" fill="#000000">iostream</text>
</g>
<!-- Node1&#45;&gt;Node5 -->
<g id="edge5" class="edge">
<title>Node1&#45;&gt;Node5</title>
<path fill="none" stroke="#191970" d="M332.3331,-124.1462C335.2898,-123.7575 338.2168,-123.374 341.0824,-123 466.3706,-106.6505 497.8352,-103.6607 623.0824,-87 647.9982,-83.6856 676.0096,-79.809 697.7863,-76.7618"/>
<polygon fill="#191970" stroke="#191970" points="698.518,-80.1935 707.935,-75.3386 697.5458,-73.2613 698.518,-80.1935"/>
</g>
<!-- Node6 -->
<g id="node7" class="node">
<title>Node6</title>
<polygon fill="none" stroke="#bfbfbf" points="273.5824,-.5 273.5824,-19.5 314.5824,-19.5 314.5824,-.5 273.5824,-.5"/>
<text text-anchor="middle" x="294.0824" y="-7.5" font-family="Helvetica,sans-Serif" font-size="10.00" fill="#000000">string</text>
</g>
<!-- Node1&#45;&gt;Node6 -->
<g id="edge6" class="edge">
<title>Node1&#45;&gt;Node6</title>
<path fill="none" stroke="#191970" d="M267.2355,-123.4239C269.1039,-108.77 273.1877,-79.9597 279.0824,-56 281.2591,-47.1525 284.2841,-37.5442 287.0479,-29.4082"/>
<polygon fill="#191970" stroke="#191970" points="290.4288,-30.3435 290.4371,-19.7487 283.8236,-28.0259 290.4288,-30.3435"/>
</g>
<!-- Node1&#45;&gt;Node7 -->
<g id="edge7" class="edge">
<title>Node1&#45;&gt;Node7</title>
<path fill="none" stroke="#191970" d="M232.0016,-123.4221C199.5686,-114.2551 149.4232,-99.9466 106.0824,-87 102.904,-86.0506 99.6155,-85.0568 96.313,-84.0506"/>
<polygon fill="#191970" stroke="#191970" points="97.0459,-80.6145 86.4591,-81.0267 94.9923,-87.3065 97.0459,-80.6145"/>
</g>
<!-- Node8 -->
<g id="node9" class="node">
<title>Node8</title>
<polygon fill="none" stroke="#bfbfbf" points="1473.0824,-62 1473.0824,-81 1525.0824,-81 1525.0824,-62 1473.0824,-62"/>
<text text-anchor="middle" x="1499.0824" y="-69" font-family="Helvetica,sans-Serif" font-size="10.00" fill="#000000">memory</text>
</g>
<!-- Node1&#45;&gt;Node8 -->
<g id="edge8" class="edge">
<title>Node1&#45;&gt;Node8</title>
<path fill="none" stroke="#191970" d="M332.2967,-123.8043C335.2632,-123.5082 338.2022,-123.2376 341.0824,-123 589.9211,-102.4745 1220.6628,-142.5775 1464.0824,-87 1466.5768,-86.4305 1469.1125,-85.6817 1471.6207,-84.8205"/>
<polygon fill="#191970" stroke="#191970" points="1473.0154,-88.0324 1481.0125,-81.0827 1470.427,-81.5286 1473.0154,-88.0324"/>
</g>
<!-- Node9 -->
<g id="node10" class="node">
<title>Node9</title>
<g id="a_node10"><a xlink:href="texture_8h.html" target="_top" xlink:title="texture.h">
<polygon fill="none" stroke="#000000" points="431.5824,-62 431.5824,-81 486.5824,-81 486.5824,-62 431.5824,-62"/>
<text text-anchor="middle" x="459.0824" y="-69" font-family="Helvetica,sans-Serif" font-size="10.00" fill="#000000">texture.h</text>
</a>
</g>
</g>
<!-- Node1&#45;&gt;Node9 -->
<g id="edge9" class="edge">
<title>Node1&#45;&gt;Node9</title>
<path fill="none" stroke="#191970" d="M302.6955,-123.429C334.5428,-114.8139 381.778,-101.3355 422.0824,-87 423.9525,-86.3348 425.8648,-85.6257 427.7867,-84.8905"/>
<polygon fill="#191970" stroke="#191970" points="429.3362,-88.0406 437.3256,-81.0821 426.7406,-81.5396 429.3362,-88.0406"/>
</g>
<!-- Node10 -->
<g id="node11" class="node">
<title>Node10</title>
<g id="a_node11"><a xlink:href="shader_8h.html" target="_top" xlink:title="shader.h">
<polygon fill="none" stroke="#000000" points="359.0824,-62 359.0824,-81 413.0824,-81 413.0824,-62 359.0824,-62"/>
<text text-anchor="middle" x="386.0824" y="-69" font-family="Helvetica,sans-Serif" font-size="10.00" fill="#000000">shader.h</text>
</a>
</g>
</g>
<!-- Node1&#45;&gt;Node10 -->
<g id="edge11" class="edge">
<title>Node1&#45;&gt;Node10</title>
<path fill="none" stroke="#191970" d="M284.8324,-123.3906C304.5583,-113.2811 335.8136,-97.2628 358.3824,-85.6962"/>
<polygon fill="#191970" stroke="#191970" points="360.161,-88.7176 367.4641,-81.0419 356.9684,-82.4881 360.161,-88.7176"/>
</g>
<!-- Node13 -->
<g id="node14" class="node">
<title>Node13</title>
<g id="a_node14"><a xlink:href="sprite_8h.html" target="_top" xlink:title="sprite.h">
<polygon fill="none" stroke="#000000" points="115.5824,-62 115.5824,-81 164.5824,-81 164.5824,-62 115.5824,-62"/>
<text text-anchor="middle" x="140.0824" y="-69" font-family="Helvetica,sans-Serif" font-size="10.00" fill="#000000">sprite.h</text>
</a>
</g>
</g>
<!-- Node1&#45;&gt;Node13 -->
<g id="edge16" class="edge">
<title>Node1&#45;&gt;Node13</title>
<path fill="none" stroke="#191970" d="M246.3949,-123.3906C225.5902,-113.2359 192.5714,-97.1196 168.8505,-85.5416"/>
<polygon fill="#191970" stroke="#191970" points="170.1535,-82.283 159.6316,-81.0419 167.0831,-88.5736 170.1535,-82.283"/>
</g>
<!-- Node9&#45;&gt;Node3 -->
<g id="edge10" class="edge">
<title>Node9&#45;&gt;Node3</title>
<path fill="none" stroke="#191970" d="M463.7699,-61.8906C468.0597,-53.0965 474.5306,-39.8312 479.8558,-28.9145"/>
<polygon fill="#191970" stroke="#191970" points="483.0902,-30.2671 484.3288,-19.7449 476.7988,-27.1981 483.0902,-30.2671"/>
</g>
<!-- Node10&#45;&gt;Node3 -->
<g id="edge13" class="edge">
<title>Node10&#45;&gt;Node3</title>
<path fill="none" stroke="#191970" d="M402.1761,-61.8906C418.8052,-51.9616 444.98,-36.333 464.2618,-24.8201"/>
<polygon fill="#191970" stroke="#191970" points="466.31,-27.6736 473.1017,-19.5419 462.7214,-21.6634 466.31,-27.6736"/>
</g>
<!-- Node10&#45;&gt;Node6 -->
<g id="edge12" class="edge">
<title>Node10&#45;&gt;Node6</title>
<path fill="none" stroke="#191970" d="M371.7074,-61.8906C356.9892,-52.0519 333.8992,-36.6167 316.7235,-25.1351"/>
<polygon fill="#191970" stroke="#191970" points="318.6151,-22.1896 308.3564,-19.5419 314.7249,-28.0091 318.6151,-22.1896"/>
</g>
<!-- Node11 -->
<g id="node12" class="node">
<title>Node11</title>
<polygon fill="none" stroke="#bfbfbf" points="700.0824,-.5 700.0824,-19.5 770.0824,-19.5 770.0824,-.5 700.0824,-.5"/>
<text text-anchor="middle" x="735.0824" y="-7.5" font-family="Helvetica,sans-Serif" font-size="10.00" fill="#000000">glm/glm.hpp</text>
</g>
<!-- Node10&#45;&gt;Node11 -->
<g id="edge14" class="edge">
<title>Node10&#45;&gt;Node11</title>
<path fill="none" stroke="#191970" d="M405.9277,-61.8613C411.0913,-59.6591 416.7141,-57.5219 422.0824,-56 514.9928,-29.6607 627.9288,-17.8028 689.5531,-12.959"/>
<polygon fill="#191970" stroke="#191970" points="690.0128,-16.4342 699.7192,-12.1873 689.4829,-9.4543 690.0128,-16.4342"/>
</g>
<!-- Node12 -->
<g id="node13" class="node">
<title>Node12</title>
<polygon fill="none" stroke="#bfbfbf" points="333.0824,-.5 333.0824,-19.5 439.0824,-19.5 439.0824,-.5 333.0824,-.5"/>
<text text-anchor="middle" x="386.0824" y="-7.5" font-family="Helvetica,sans-Serif" font-size="10.00" fill="#000000">glm/gtc/type_ptr.hpp</text>
</g>
<!-- Node10&#45;&gt;Node12 -->
<g id="edge15" class="edge">
<title>Node10&#45;&gt;Node12</title>
<path fill="none" stroke="#191970" d="M386.0824,-61.8906C386.0824,-53.3657 386.0824,-40.6392 386.0824,-29.9235"/>
<polygon fill="#191970" stroke="#191970" points="389.5825,-29.7448 386.0824,-19.7449 382.5825,-29.7449 389.5825,-29.7448"/>
</g>
<!-- Node13&#45;&gt;Node11 -->
<g id="edge19" class="edge">
<title>Node13&#45;&gt;Node11</title>
<path fill="none" stroke="#191970" d="M158.0068,-61.9326C163.0749,-59.6167 168.6835,-57.4061 174.0824,-56 223.4159,-43.1519 565.0559,-20.6864 689.701,-12.8183"/>
<polygon fill="#191970" stroke="#191970" points="690.2736,-16.2893 700.034,-12.1682 689.8339,-9.3032 690.2736,-16.2893"/>
</g>
<!-- Node14 -->
<g id="node15" class="node">
<title>Node14</title>
<polygon fill="none" stroke="#bfbfbf" points="2.0824,-.5 2.0824,-19.5 48.0824,-19.5 48.0824,-.5 2.0824,-.5"/>
<text text-anchor="middle" x="25.0824" y="-7.5" font-family="Helvetica,sans-Serif" font-size="10.00" fill="#000000">stdio.h</text>
</g>
<!-- Node13&#45;&gt;Node14 -->
<g id="edge17" class="edge">
<title>Node13&#45;&gt;Node14</title>
<path fill="none" stroke="#191970" d="M122.1136,-61.8906C103.294,-51.8262 73.5239,-35.9057 51.9183,-24.3514"/>
<polygon fill="#191970" stroke="#191970" points="53.3937,-21.1714 42.925,-19.5419 50.0926,-27.3442 53.3937,-21.1714"/>
</g>
<!-- Node15 -->
<g id="node16" class="node">
<title>Node15</title>
<polygon fill="none" stroke="#bfbfbf" points="105.0824,-.5 105.0824,-19.5 175.0824,-19.5 175.0824,-.5 105.0824,-.5"/>
<text text-anchor="middle" x="140.0824" y="-7.5" font-family="Helvetica,sans-Serif" font-size="10.00" fill="#000000">glm/fwd.hpp</text>
</g>
<!-- Node13&#45;&gt;Node15 -->
<g id="edge18" class="edge">
<title>Node13&#45;&gt;Node15</title>
<path fill="none" stroke="#191970" d="M140.0824,-61.8906C140.0824,-53.3657 140.0824,-40.6392 140.0824,-29.9235"/>
<polygon fill="#191970" stroke="#191970" points="143.5825,-29.7448 140.0824,-19.7449 136.5825,-29.7449 143.5825,-29.7448"/>
</g>
<!-- Node16&#45;&gt;Node3 -->
<g id="edge22" class="edge">
<title>Node16&#45;&gt;Node3</title>
<path fill="none" stroke="#191970" d="M588.972,-123.2668C608.453,-108.4076 639.742,-79.3329 623.0824,-56 612.1227,-40.6503 566.204,-27.183 531.1452,-18.8515"/>
<polygon fill="#191970" stroke="#191970" points="531.6556,-15.3774 521.1245,-16.5375 530.0805,-22.1979 531.6556,-15.3774"/>
</g>
<!-- Node16&#45;&gt;Node5 -->
<g id="edge24" class="edge">
<title>Node16&#45;&gt;Node5</title>
<path fill="none" stroke="#191970" d="M600.0824,-123.3906C627.0882,-113.0103 670.3008,-96.4004 700.5418,-84.7766"/>
<polygon fill="#191970" stroke="#191970" points="702.1795,-87.8968 710.2579,-81.0419 699.668,-81.3628 702.1795,-87.8968"/>
</g>
<!-- Node16&#45;&gt;Node9 -->
<g id="edge26" class="edge">
<title>Node16&#45;&gt;Node9</title>
<path fill="none" stroke="#191970" d="M556.9574,-123.3906C537.9741,-113.3262 507.9451,-97.4057 486.1517,-85.8514"/>
<polygon fill="#191970" stroke="#191970" points="487.5547,-82.6338 477.0801,-81.0419 484.2758,-88.8184 487.5547,-82.6338"/>
</g>
<!-- Node16&#45;&gt;Node10 -->
<g id="edge27" class="edge">
<title>Node16&#45;&gt;Node10</title>
<path fill="none" stroke="#191970" d="M539.1506,-123.4522C507.9015,-114.8518 461.5663,-101.382 422.0824,-87 420.2602,-86.3363 418.3975,-85.6282 416.526,-84.8939"/>
<polygon fill="#191970" stroke="#191970" points="417.821,-81.6422 407.2407,-81.0877 415.166,-88.1191 417.821,-81.6422"/>
</g>
<!-- Node16&#45;&gt;Node11 -->
<g id="edge23" class="edge">
<title>Node16&#45;&gt;Node11</title>
<path fill="none" stroke="#191970" d="M589.2202,-123.3893C602.517,-114.2581 622.894,-100.026 640.0824,-87 666.7875,-66.7619 696.6731,-42.2109 715.6671,-26.3573"/>
<polygon fill="#191970" stroke="#191970" points="718.1584,-28.8363 723.5772,-19.732 713.6636,-23.4699 718.1584,-28.8363"/>
</g>
<!-- Node17 -->
<g id="node18" class="node">
<title>Node17</title>
<polygon fill="none" stroke="#bfbfbf" points="504.5824,-62 504.5824,-81 539.5824,-81 539.5824,-62 504.5824,-62"/>
<text text-anchor="middle" x="522.0824" y="-69" font-family="Helvetica,sans-Serif" font-size="10.00" fill="#000000">map</text>
</g>
<!-- Node16&#45;&gt;Node17 -->
<g id="edge21" class="edge">
<title>Node16&#45;&gt;Node17</title>
<path fill="none" stroke="#191970" d="M566.8011,-123.3906C558.9131,-114.2376 546.851,-100.2409 537.2412,-89.09"/>
<polygon fill="#191970" stroke="#191970" points="539.6599,-86.5352 530.4804,-81.2449 534.3573,-91.1049 539.6599,-86.5352"/>
</g>
<!-- Node18 -->
<g id="node19" class="node">
<title>Node18</title>
<polygon fill="none" stroke="#bfbfbf" points="558.0824,-62 558.0824,-81 614.0824,-81 614.0824,-62 558.0824,-62"/>
<text text-anchor="middle" x="586.0824" y="-69" font-family="Helvetica,sans-Serif" font-size="10.00" fill="#000000">ft2build.h</text>
</g>
<!-- Node16&#45;&gt;Node18 -->
<g id="edge25" class="edge">
<title>Node16&#45;&gt;Node18</title>
<path fill="none" stroke="#191970" d="M576.8011,-123.3906C578.3259,-114.8657 580.6022,-102.1392 582.5188,-91.4235"/>
<polygon fill="#191970" stroke="#191970" points="586.024,-91.7049 584.3394,-81.2449 579.1333,-90.4724 586.024,-91.7049"/>
</g>
<!-- Node19&#45;&gt;Node7 -->
<g id="edge40" class="edge">
<title>Node19&#45;&gt;Node7</title>
<path fill="none" stroke="#191970" d="M738.8449,-240.9468C623.8835,-232.4672 383.3429,-207.9345 191.0824,-143 188.2375,-142.0392 121.8225,-106.6371 83.2276,-86.0169"/>
<polygon fill="#191970" stroke="#191970" points="84.5396,-82.7496 74.0704,-81.1229 81.2401,-88.9233 84.5396,-82.7496"/>
</g>
<!-- Node20 -->
<g id="node21" class="node">
<title>Node20</title>
<g id="a_node21"><a xlink:href="entity_8h.html" target="_top" xlink:title="entity.h">
<polygon fill="none" stroke="#000000" points="709.5824,-179.5 709.5824,-198.5 758.5824,-198.5 758.5824,-179.5 709.5824,-179.5"/>
<text text-anchor="middle" x="734.0824" y="-186.5" font-family="Helvetica,sans-Serif" font-size="10.00" fill="#000000">entity.h</text>
</a>
</g>
</g>
<!-- Node19&#45;&gt;Node20 -->
<g id="edge29" class="edge">
<title>Node19&#45;&gt;Node20</title>
<path fill="none" stroke="#191970" d="M793.5409,-235.2455C782.8037,-226.8943 767.135,-214.7076 754.5777,-204.9408"/>
<polygon fill="#191970" stroke="#191970" points="756.5225,-202.0194 746.4801,-198.6427 752.2248,-207.5449 756.5225,-202.0194"/>
</g>
<!-- Node23 -->
<g id="node24" class="node">
<title>Node23</title>
<polygon fill="none" stroke="#bfbfbf" points="1337.0824,-62 1337.0824,-81 1381.0824,-81 1381.0824,-62 1337.0824,-62"/>
<text text-anchor="middle" x="1359.0824" y="-69" font-family="Helvetica,sans-Serif" font-size="10.00" fill="#000000">vector</text>
</g>
<!-- Node19&#45;&gt;Node23 -->
<g id="edge41" class="edge">
<title>Node19&#45;&gt;Node23</title>
<path fill="none" stroke="#191970" d="M827.0424,-235.3534C846.4291,-226.3128 875.9551,-212.243 901.0824,-199 916.932,-190.6467 919.4102,-185.5594 936.0824,-179 1102.6133,-113.4809 1159.7977,-147.8733 1328.0824,-87 1329.497,-86.4883 1330.9309,-85.9287 1332.367,-85.3355"/>
<polygon fill="#191970" stroke="#191970" points="1334.0449,-88.4171 1341.6911,-81.0832 1331.1403,-82.0482 1334.0449,-88.4171"/>
</g>
<!-- Node24 -->
<g id="node25" class="node">
<title>Node24</title>
<g id="a_node25"><a xlink:href="Lines_8cpp.html" target="_top" xlink:title="../src/Lines.cpp">
<polygon fill="none" stroke="#000000" points="944.0824,-123.5 944.0824,-142.5 1028.0824,-142.5 1028.0824,-123.5 944.0824,-123.5"/>
<text text-anchor="middle" x="986.0824" y="-130.5" font-family="Helvetica,sans-Serif" font-size="10.00" fill="#000000">../src/Lines.cpp</text>
</a>
</g>
</g>
<!-- Node19&#45;&gt;Node24 -->
<g id="edge42" class="edge">
<title>Node19&#45;&gt;Node24</title>
<path fill="none" stroke="#191970" d="M819.1559,-235.3837C837.373,-222.1305 871.5937,-197.7621 902.0824,-179 920.4301,-167.7092 941.7234,-156.0638 958.2804,-147.3152"/>
<polygon fill="#191970" stroke="#191970" points="960.191,-150.2655 967.4236,-142.5234 956.9416,-144.0654 960.191,-150.2655"/>
</g>
<!-- Node20&#45;&gt;Node5 -->
<g id="edge32" class="edge">
<title>Node20&#45;&gt;Node5</title>
<path fill="none" stroke="#191970" d="M718.4302,-179.4827C700.8546,-167.4653 675.9104,-145.6142 685.0824,-123 690.8301,-108.8284 702.5571,-96.4093 713.2099,-87.3189"/>
<polygon fill="#191970" stroke="#191970" points="715.422,-90.0314 721.03,-81.0425 711.0404,-84.5723 715.422,-90.0314"/>
</g>
<!-- Node20&#45;&gt;Node8 -->
<g id="edge33" class="edge">
<title>Node20&#45;&gt;Node8</title>
<path fill="none" stroke="#191970" d="M758.764,-187.6266C881.1354,-180.7861 1417.5296,-150.4276 1433.0824,-143 1457.2632,-131.4519 1476.8178,-106.7632 1488.1953,-89.6522"/>
<polygon fill="#191970" stroke="#191970" points="1491.247,-91.3755 1493.6523,-81.0573 1485.3374,-87.6235 1491.247,-91.3755"/>
</g>
<!-- Node20&#45;&gt;Node9 -->
<g id="edge30" class="edge">
<title>Node20&#45;&gt;Node9</title>
<path fill="none" stroke="#191970" d="M709.3983,-186.5885C656.9325,-181.0687 536.3976,-166.1783 503.0824,-143 484.8271,-130.2993 472.7025,-107.3394 465.8854,-90.8611"/>
<polygon fill="#191970" stroke="#191970" points="469.0075,-89.2269 462.161,-81.1414 462.4709,-91.7317 469.0075,-89.2269"/>
</g>
<!-- Node20&#45;&gt;Node11 -->
<g id="edge39" class="edge">
<title>Node20&#45;&gt;Node11</title>
<path fill="none" stroke="#191970" d="M749.7004,-179.4791C761.3296,-171.3972 776.3156,-158.6339 783.0824,-143 791.8019,-122.8547 783.1903,-83.0668 771.0824,-56 766.4108,-45.5569 758.8656,-35.3849 751.8865,-27.2731"/>
<polygon fill="#191970" stroke="#191970" points="754.2739,-24.6955 744.9628,-19.6404 749.0892,-29.3987 754.2739,-24.6955"/>
</g>
<!-- Node21 -->
<g id="node22" class="node">
<title>Node21</title>
<polygon fill="none" stroke="#bfbfbf" points="694.0824,-123.5 694.0824,-142.5 774.0824,-142.5 774.0824,-123.5 694.0824,-123.5"/>
<text text-anchor="middle" x="734.0824" y="-130.5" font-family="Helvetica,sans-Serif" font-size="10.00" fill="#000000">box2d/box2d.h</text>
</g>
<!-- Node20&#45;&gt;Node21 -->
<g id="edge31" class="edge">
<title>Node20&#45;&gt;Node21</title>
<path fill="none" stroke="#191970" d="M734.0824,-179.2455C734.0824,-171.9382 734.0824,-161.6944 734.0824,-152.7046"/>
<polygon fill="#191970" stroke="#191970" points="737.5825,-152.6426 734.0824,-142.6427 730.5825,-152.6427 737.5825,-152.6426"/>
</g>
<!-- Node22 -->
<g id="node23" class="node">
<title>Node22</title>
<g id="a_node23"><a xlink:href="resource__manager_8h.html" target="_top" xlink:title="resource_manager.h">
<polygon fill="none" stroke="#000000" points="350.5824,-123.5 350.5824,-142.5 455.5824,-142.5 455.5824,-123.5 350.5824,-123.5"/>
<text text-anchor="middle" x="403.0824" y="-130.5" font-family="Helvetica,sans-Serif" font-size="10.00" fill="#000000">resource_manager.h</text>
</a>
</g>
</g>
<!-- Node20&#45;&gt;Node22 -->
<g id="edge34" class="edge">
<title>Node20&#45;&gt;Node22</title>
<path fill="none" stroke="#191970" d="M709.474,-184.8366C658.3895,-176.1939 539.4651,-156.0738 465.7108,-143.5957"/>
<polygon fill="#191970" stroke="#191970" points="466.0591,-140.105 455.6153,-141.8877 464.8913,-147.0069 466.0591,-140.105"/>
</g>
<!-- Node22&#45;&gt;Node6 -->
<g id="edge36" class="edge">
<title>Node22&#45;&gt;Node6</title>
<path fill="none" stroke="#191970" d="M390.5868,-123.496C379.37,-114.6636 362.7671,-100.8256 350.0824,-87 332.8941,-68.2658 316.1444,-44.247 305.5113,-28.0569"/>
<polygon fill="#191970" stroke="#191970" points="308.3673,-26.0278 300.0004,-19.5281 302.4879,-29.8268 308.3673,-26.0278"/>
</g>
<!-- Node22&#45;&gt;Node9 -->
<g id="edge37" class="edge">
<title>Node22&#45;&gt;Node9</title>
<path fill="none" stroke="#191970" d="M411.8324,-123.3906C420.2486,-114.1478 433.1621,-99.966 443.3634,-88.7628"/>
<polygon fill="#191970" stroke="#191970" points="446.0642,-90.9953 450.209,-81.2449 440.8884,-86.2824 446.0642,-90.9953"/>
</g>
<!-- Node22&#45;&gt;Node10 -->
<g id="edge38" class="edge">
<title>Node22&#45;&gt;Node10</title>
<path fill="none" stroke="#191970" d="M400.4261,-123.3906C398.0449,-114.776 394.4776,-101.8708 391.4963,-91.0858"/>
<polygon fill="#191970" stroke="#191970" points="394.814,-89.9509 388.7761,-81.2449 388.067,-91.8159 394.814,-89.9509"/>
</g>
<!-- Node22&#45;&gt;Node17 -->
<g id="edge35" class="edge">
<title>Node22&#45;&gt;Node17</title>
<path fill="none" stroke="#191970" d="M422.9921,-123.4549C441.7409,-114.3701 470.5341,-100.1693 495.0824,-87 495.6182,-86.7125 496.1591,-86.4204 496.7035,-86.1246"/>
<polygon fill="#191970" stroke="#191970" points="498.5749,-89.0885 505.603,-81.1603 495.1648,-82.9753 498.5749,-89.0885"/>
</g>
<!-- Node24&#45;&gt;Node3 -->
<g id="edge47" class="edge">
<title>Node24&#45;&gt;Node3</title>
<path fill="none" stroke="#191970" d="M976.4146,-123.2452C956.283,-102.9788 911.3689,-58.0237 907.0824,-56 873.6067,-40.1956 630.7968,-20.5599 531.3656,-13.0842"/>
<polygon fill="#191970" stroke="#191970" points="531.5965,-9.5918 521.3635,-12.3369 531.0749,-16.5723 531.5965,-9.5918"/>
</g>
<!-- Node24&#45;&gt;Node4 -->
<g id="edge48" class="edge">
<title>Node24&#45;&gt;Node4</title>
<path fill="none" stroke="#191970" d="M966.0824,-123.3906C944.8535,-113.1908 911.1061,-96.9763 886.9864,-85.3875"/>
<polygon fill="#191970" stroke="#191970" points="888.4713,-82.2179 877.9419,-81.0419 885.4398,-88.5275 888.4713,-82.2179"/>
</g>
<!-- Node24&#45;&gt;Node5 -->
<g id="edge44" class="edge">
<title>Node24&#45;&gt;Node5</title>
<path fill="none" stroke="#191970" d="M947.139,-123.4581C899.2888,-111.7338 818.7072,-91.9897 771.8672,-80.513"/>
<polygon fill="#191970" stroke="#191970" points="772.6734,-77.1071 762.1277,-78.1266 771.0074,-83.906 772.6734,-77.1071"/>
</g>
<!-- Node24&#45;&gt;Node11 -->
<g id="edge49" class="edge">
<title>Node24&#45;&gt;Node11</title>
<path fill="none" stroke="#191970" d="M983.1783,-123.4839C977.6345,-107.002 963.9236,-73.2559 940.0824,-56 914.9437,-37.805 832.656,-23.4751 780.2962,-15.9106"/>
<polygon fill="#191970" stroke="#191970" points="780.6409,-12.4246 770.2491,-14.4888 779.66,-19.3555 780.6409,-12.4246"/>
</g>
<!-- Node24&#45;&gt;Node23 -->
<g id="edge45" class="edge">
<title>Node24&#45;&gt;Node23</title>
<path fill="none" stroke="#191970" d="M1028.2411,-125.2318C1032.9057,-124.4438 1037.5911,-123.6832 1042.0824,-123 1168.7395,-103.733 1205.4813,-124.1782 1328.0824,-87 1329.7451,-86.4958 1331.4271,-85.9081 1333.1029,-85.2623"/>
<polygon fill="#191970" stroke="#191970" points="1334.7409,-88.3644 1342.4554,-81.1023 1331.896,-81.9685 1334.7409,-88.3644"/>
</g>
<!-- Node25 -->
<g id="node26" class="node">
<title>Node25</title>
<polygon fill="none" stroke="#bfbfbf" points="992.5824,-56.5 992.5824,-86.5 1091.5824,-86.5 1091.5824,-56.5 992.5824,-56.5"/>
<text text-anchor="start" x="1000.5824" y="-74.5" font-family="Helvetica,sans-Serif" font-size="10.00" fill="#000000">glm/ext/matrix_clip</text>
<text text-anchor="middle" x="1042.0824" y="-63.5" font-family="Helvetica,sans-Serif" font-size="10.00" fill="#000000">_space.hpp</text>
</g>
<!-- Node24&#45;&gt;Node25 -->
<g id="edge43" class="edge">
<title>Node24&#45;&gt;Node25</title>
<path fill="none" stroke="#191970" d="M994.8324,-123.3906C1001.9903,-115.5298 1012.4011,-104.0964 1021.6299,-93.9612"/>
<polygon fill="#191970" stroke="#191970" points="1024.2384,-96.295 1028.3832,-86.5446 1019.0626,-91.5821 1024.2384,-96.295"/>
</g>
<!-- Node26 -->
<g id="node27" class="node">
<title>Node26</title>
<polygon fill="none" stroke="#bfbfbf" points="1109.5824,-62 1109.5824,-81 1156.5824,-81 1156.5824,-62 1109.5824,-62"/>
<text text-anchor="middle" x="1133.0824" y="-69" font-family="Helvetica,sans-Serif" font-size="10.00" fill="#000000">math.h</text>
</g>
<!-- Node24&#45;&gt;Node26 -->
<g id="edge46" class="edge">
<title>Node24&#45;&gt;Node26</title>
<path fill="none" stroke="#191970" d="M1011.421,-123.4559C1034.8655,-114.4859 1070.5921,-100.4624 1101.0824,-87 1102.2577,-86.4811 1103.4534,-85.9441 1104.6584,-85.3954"/>
<polygon fill="#191970" stroke="#191970" points="1106.3255,-88.4794 1113.8944,-81.0657 1103.3543,-82.1413 1106.3255,-88.4794"/>
</g>
<!-- Node27 -->
<g id="node28" class="node">
<title>Node27</title>
<polygon fill="none" stroke="#bfbfbf" points="1175.0824,-62 1175.0824,-81 1319.0824,-81 1319.0824,-62 1175.0824,-62"/>
<text text-anchor="middle" x="1247.0824" y="-69" font-family="Helvetica,sans-Serif" font-size="10.00" fill="#000000">glm/gtc/matrix_transform.hpp</text>
</g>
<!-- Node24&#45;&gt;Node27 -->
<g id="edge50" class="edge">
<title>Node24&#45;&gt;Node27</title>
<path fill="none" stroke="#191970" d="M1026.5773,-123.4581C1072.3899,-112.6632 1147.0561,-95.0694 1196.623,-83.3899"/>
<polygon fill="#191970" stroke="#191970" points="1197.5618,-86.7646 1206.4925,-81.0643 1195.9563,-79.9512 1197.5618,-86.7646"/>
</g>
<!-- Node28&#45;&gt;Node8 -->
<g id="edge52" class="edge">
<title>Node28&#45;&gt;Node8</title>
<path fill="none" stroke="#191970" d="M1369.6794,-123.3551C1394.3032,-114.3157 1431.8651,-100.2467 1464.0824,-87 1465.6459,-86.3572 1467.2442,-85.689 1468.855,-85.007"/>
<polygon fill="#191970" stroke="#191970" points="1470.271,-88.208 1478.0617,-81.0277 1467.4938,-81.7824 1470.271,-88.208"/>
</g>
<!-- Node28&#45;&gt;Node23 -->
<g id="edge53" class="edge">
<title>Node28&#45;&gt;Node23</title>
<path fill="none" stroke="#191970" d="M1345.5824,-123.3906C1347.8236,-114.776 1351.181,-101.8708 1353.9869,-91.0858"/>
<polygon fill="#191970" stroke="#191970" points="1357.4165,-91.804 1356.5471,-81.2449 1350.642,-90.0414 1357.4165,-91.804"/>
</g>
<!-- Node29 -->
<g id="node30" class="node">
<title>Node29</title>
<polygon fill="none" stroke="#bfbfbf" points="1399.0824,-62 1399.0824,-81 1455.0824,-81 1455.0824,-62 1399.0824,-62"/>
<text text-anchor="middle" x="1427.0824" y="-69" font-family="Helvetica,sans-Serif" font-size="10.00" fill="#000000">tinyxml.h</text>
</g>
<!-- Node28&#45;&gt;Node29 -->
<g id="edge54" class="edge">
<title>Node28&#45;&gt;Node29</title>
<path fill="none" stroke="#191970" d="M1356.2074,-123.3906C1369.5224,-113.6421 1390.3417,-98.3994 1405.9771,-86.9521"/>
<polygon fill="#191970" stroke="#191970" points="1408.0485,-89.7734 1414.0496,-81.0419 1403.9133,-84.1253 1408.0485,-89.7734"/>
</g>
<!-- Node32 -->
<g id="node33" class="node">
<title>Node32</title>
<g id="a_node33"><a xlink:href="state_8h.html" target="_top" xlink:title="state.h">
<polygon fill="none" stroke="#000000" points="1774.5824,-62 1774.5824,-81 1821.5824,-81 1821.5824,-62 1774.5824,-62"/>
<text text-anchor="middle" x="1798.0824" y="-69" font-family="Helvetica,sans-Serif" font-size="10.00" fill="#000000">state.h</text>
</a>
</g>
</g>
<!-- Node31&#45;&gt;Node32 -->
<g id="edge58" class="edge">
<title>Node31&#45;&gt;Node32</title>
<path fill="none" stroke="#191970" d="M1581.0204,-235.3866C1623.7073,-220.9025 1701.2573,-190.0686 1753.0824,-143 1769.2922,-128.2779 1781.9002,-106.4094 1789.5944,-90.7371"/>
<polygon fill="#191970" stroke="#191970" points="1792.8623,-92.0113 1793.9294,-81.4703 1786.5218,-89.0451 1792.8623,-92.0113"/>
</g>
<!-- Node33 -->
<g id="node34" class="node">
<title>Node33</title>
<g id="a_node34"><a xlink:href="game_8h.html" target="_top" xlink:title="game.h">
<polygon fill="none" stroke="#000000" points="1506.5824,-179.5 1506.5824,-198.5 1555.5824,-198.5 1555.5824,-179.5 1506.5824,-179.5"/>
<text text-anchor="middle" x="1531.0824" y="-186.5" font-family="Helvetica,sans-Serif" font-size="10.00" fill="#000000">game.h</text>
</a>
</g>
</g>
<!-- Node31&#45;&gt;Node33 -->
<g id="edge59" class="edge">
<title>Node31&#45;&gt;Node33</title>
<path fill="none" stroke="#191970" d="M1546.7728,-235.2455C1544.2391,-227.7776 1540.6647,-217.2427 1537.5674,-208.1137"/>
<polygon fill="#191970" stroke="#191970" points="1540.8815,-206.9879 1534.354,-198.6427 1534.2526,-209.237 1540.8815,-206.9879"/>
</g>
<!-- Node33&#45;&gt;Node4 -->
<g id="edge70" class="edge">
<title>Node33&#45;&gt;Node4</title>
<path fill="none" stroke="#191970" d="M1506.2786,-185.9765C1488.2182,-183.8403 1463.1578,-181.0109 1441.0824,-179 1328.8185,-168.7736 1038.4816,-187.9039 935.0824,-143 908.2942,-131.3665 884.8975,-106.321 871.1268,-89.1879"/>
<polygon fill="#191970" stroke="#191970" points="873.7255,-86.8272 864.8361,-81.0626 868.1905,-91.1125 873.7255,-86.8272"/>
</g>
<!-- Node33&#45;&gt;Node5 -->
<g id="edge61" class="edge">
<title>Node33&#45;&gt;Node5</title>
<path fill="none" stroke="#191970" d="M1506.2814,-185.9451C1488.2224,-183.7936 1463.1625,-180.959 1441.0824,-179 1200.6073,-157.6646 1133.4514,-200.9191 899.0824,-143 877.8352,-137.7492 874.1257,-131.7909 854.0824,-123 824.548,-110.0463 790.8022,-95.4625 766.8078,-85.1298"/>
<polygon fill="#191970" stroke="#191970" points="768.0511,-81.8546 757.482,-81.1165 765.2839,-88.2845 768.0511,-81.8546"/>
</g>
<!-- Node33&#45;&gt;Node8 -->
<g id="edge60" class="edge">
<title>Node33&#45;&gt;Node8</title>
<path fill="none" stroke="#191970" d="M1525.4572,-179.4796C1520.3631,-170.4121 1513.0648,-156.2232 1509.0824,-143 1504.0057,-126.1435 1501.4895,-106.2611 1500.2523,-91.7472"/>
<polygon fill="#191970" stroke="#191970" points="1503.7179,-91.1419 1499.5099,-81.4186 1496.7359,-91.6438 1503.7179,-91.1419"/>
</g>
<!-- Node34 -->
<g id="node35" class="node">
<title>Node34</title>
<g id="a_node35"><a xlink:href="Orthographic__camera_8h.html" target="_top" xlink:title="Orthographic_camera.h">
<polygon fill="none" stroke="#000000" points="1518.0824,-123.5 1518.0824,-142.5 1636.0824,-142.5 1636.0824,-123.5 1518.0824,-123.5"/>
<text text-anchor="middle" x="1577.0824" y="-130.5" font-family="Helvetica,sans-Serif" font-size="10.00" fill="#000000">Orthographic_camera.h</text>
</a>
</g>
</g>
<!-- Node33&#45;&gt;Node34 -->
<g id="edge62" class="edge">
<title>Node33&#45;&gt;Node34</title>
<path fill="none" stroke="#191970" d="M1539.095,-179.2455C1545.5591,-171.3761 1554.8208,-160.101 1562.5807,-150.6542"/>
<polygon fill="#191970" stroke="#191970" points="1565.5187,-152.5916 1569.1616,-142.6427 1560.1096,-148.1484 1565.5187,-152.5916"/>
</g>
<!-- Node35 -->
<g id="node36" class="node">
<title>Node35</title>
<g id="a_node36"><a xlink:href="state__machine_8h.html" target="_top" xlink:title="state_machine.h">
<polygon fill="none" stroke="#000000" points="1654.5824,-123.5 1654.5824,-142.5 1743.5824,-142.5 1743.5824,-123.5 1654.5824,-123.5"/>
<text text-anchor="middle" x="1699.0824" y="-130.5" font-family="Helvetica,sans-Serif" font-size="10.00" fill="#000000">state_machine.h</text>
</a>
</g>
</g>
<!-- Node33&#45;&gt;Node35 -->
<g id="edge65" class="edge">
<title>Node33&#45;&gt;Node35</title>
<path fill="none" stroke="#191970" d="M1555.8714,-180.737C1583.5814,-171.5003 1628.7824,-156.4333 1660.9888,-145.6979"/>
<polygon fill="#191970" stroke="#191970" points="1662.1529,-148.9992 1670.5329,-142.5165 1659.9393,-142.3584 1662.1529,-148.9992"/>
</g>
<!-- Node34&#45;&gt;Node11 -->
<g id="edge64" class="edge">
<title>Node34&#45;&gt;Node11</title>
<path fill="none" stroke="#191970" d="M1574.8982,-123.3639C1570.4816,-106.3765 1558.7379,-71.4407 1534.0824,-56 1501.9804,-35.896 944.7113,-16.6614 780.3534,-11.4051"/>
<polygon fill="#191970" stroke="#191970" points="780.2116,-7.8989 770.1054,-11.0792 779.9891,-14.8954 780.2116,-7.8989"/>
</g>
<!-- Node34&#45;&gt;Node30 -->
<g id="edge63" class="edge">
<title>Node34&#45;&gt;Node30</title>
<path fill="none" stroke="#191970" d="M1599.9854,-123.342C1621.1793,-114.2936 1653.4832,-100.2186 1681.0824,-87 1682.0605,-86.5315 1683.054,-86.0498 1684.0554,-85.5592"/>
<polygon fill="#191970" stroke="#191970" points="1685.7218,-88.639 1693.086,-81.0219 1682.5791,-82.3841 1685.7218,-88.639"/>
</g>
<!-- Node35&#45;&gt;Node8 -->
<g id="edge67" class="edge">
<title>Node35&#45;&gt;Node8</title>
<path fill="none" stroke="#191970" d="M1667.8324,-123.3906C1631.8286,-112.3194 1572.7798,-94.162 1534.9371,-82.5253"/>
<polygon fill="#191970" stroke="#191970" points="1535.9187,-79.1655 1525.3316,-79.5716 1533.8612,-85.8563 1535.9187,-79.1655"/>
</g>
<!-- Node35&#45;&gt;Node30 -->
<g id="edge66" class="edge">
<title>Node35&#45;&gt;Node30</title>
<path fill="none" stroke="#191970" d="M1700.9574,-123.3906C1702.6383,-114.776 1705.1564,-101.8708 1707.2608,-91.0858"/>
<polygon fill="#191970" stroke="#191970" points="1710.701,-91.7301 1709.181,-81.2449 1703.8306,-90.3895 1710.701,-91.7301"/>
</g>
<!-- Node35&#45;&gt;Node32 -->
<g id="edge69" class="edge">
<title>Node35&#45;&gt;Node32</title>
<path fill="none" stroke="#191970" d="M1714.5511,-123.3906C1730.5344,-113.4616 1755.6927,-97.833 1774.2257,-86.3201"/>
<polygon fill="#191970" stroke="#191970" points="1776.0747,-89.2918 1782.7223,-81.0419 1772.3809,-83.3457 1776.0747,-89.2918"/>
</g>
<!-- Node36 -->
<g id="node37" class="node">
<title>Node36</title>
<polygon fill="none" stroke="#bfbfbf" points="1630.5824,-62 1630.5824,-81 1671.5824,-81 1671.5824,-62 1630.5824,-62"/>
<text text-anchor="middle" x="1651.0824" y="-69" font-family="Helvetica,sans-Serif" font-size="10.00" fill="#000000">stack</text>
</g>
<!-- Node35&#45;&gt;Node36 -->
<g id="edge68" class="edge">
<title>Node35&#45;&gt;Node36</title>
<path fill="none" stroke="#191970" d="M1691.5824,-123.3906C1684.5086,-114.3273 1673.7282,-100.5149 1665.0678,-89.4188"/>
<polygon fill="#191970" stroke="#191970" points="1667.6,-86.9746 1658.6881,-81.2449 1662.0818,-91.2815 1667.6,-86.9746"/>
</g>
<!-- Node37&#45;&gt;Node5 -->
<g id="edge73" class="edge">
<title>Node37&#45;&gt;Node5</title>
<path fill="none" stroke="#191970" d="M143.7447,-127.4199C159.1019,-125.9435 175.7261,-124.3781 191.0824,-123 382.9768,-105.7794 431.5883,-108.2137 623.0824,-87 648.0649,-84.2324 676.0762,-80.3556 697.8363,-77.1716"/>
<polygon fill="#191970" stroke="#191970" points="698.5953,-80.5975 707.9757,-75.6721 697.5712,-73.6728 698.5953,-80.5975"/>
</g>
<!-- Node37&#45;&gt;Node14 -->
<g id="edge72" class="edge">
<title>Node37&#45;&gt;Node14</title>
<path fill="none" stroke="#191970" d="M53.5822,-123.3574C35.8212,-116.3494 15.5584,-104.8886 5.0824,-87 -5.6532,-68.6682 3.7317,-44.5682 12.9346,-28.2492"/>
<polygon fill="#191970" stroke="#191970" points="15.9643,-30.0032 18.1786,-19.6424 9.9865,-26.361 15.9643,-30.0032"/>
</g>
<!-- Node38&#45;&gt;Node5 -->
<g id="edge79" class="edge">
<title>Node38&#45;&gt;Node5</title>
<path fill="none" stroke="#191970" d="M1027.9672,-236.2262C1003.416,-227.8855 966.5392,-214.3589 936.0824,-199 867.3712,-164.3499 792.2672,-112.6452 756.4283,-87.0321"/>
<polygon fill="#191970" stroke="#191970" points="758.3529,-84.105 748.1905,-81.1087 754.2663,-89.7883 758.3529,-84.105"/>
</g>
<!-- Node39 -->
<g id="node40" class="node">
<title>Node39</title>
<polygon fill="none" stroke="#bfbfbf" points="1070.0824,-179.5 1070.0824,-198.5 1156.0824,-198.5 1156.0824,-179.5 1070.0824,-179.5"/>
<text text-anchor="middle" x="1113.0824" y="-186.5" font-family="Helvetica,sans-Serif" font-size="10.00" fill="#000000">tmxlite/Map.hpp</text>
</g>
<!-- Node38&#45;&gt;Node39 -->
<g id="edge75" class="edge">
<title>Node38&#45;&gt;Node39</title>
<path fill="none" stroke="#191970" d="M1065.1852,-235.2455C1073.5852,-227.1352 1085.7318,-215.4075 1095.6908,-205.7919"/>
<polygon fill="#191970" stroke="#191970" points="1098.3324,-208.1066 1103.0953,-198.6427 1093.4702,-203.0707 1098.3324,-208.1066"/>
</g>
<!-- Node40 -->
<g id="node41" class="node">
<title>Node40</title>
<polygon fill="none" stroke="#bfbfbf" points="1174.0824,-179.5 1174.0824,-198.5 1296.0824,-198.5 1296.0824,-179.5 1174.0824,-179.5"/>
<text text-anchor="middle" x="1235.0824" y="-186.5" font-family="Helvetica,sans-Serif" font-size="10.00" fill="#000000">tmxlite/ObjectGroup.hpp</text>
</g>
<!-- Node38&#45;&gt;Node40 -->
<g id="edge76" class="edge">
<title>Node38&#45;&gt;Node40</title>
<path fill="none" stroke="#191970" d="M1082.4205,-236.4948C1112.3177,-227.1935 1160.5294,-212.1943 1194.7683,-201.5422"/>
<polygon fill="#191970" stroke="#191970" points="1195.9594,-204.8371 1204.4682,-198.5244 1193.8799,-198.1531 1195.9594,-204.8371"/>
</g>
<!-- Node41 -->
<g id="node42" class="node">
<title>Node41</title>
<polygon fill="none" stroke="#bfbfbf" points="1314.0824,-179.5 1314.0824,-198.5 1432.0824,-198.5 1432.0824,-179.5 1314.0824,-179.5"/>
<text text-anchor="middle" x="1373.0824" y="-186.5" font-family="Helvetica,sans-Serif" font-size="10.00" fill="#000000">tmxlite/LayerGroup.hpp</text>
</g>
<!-- Node38&#45;&gt;Node41 -->
<g id="edge77" class="edge">
<title>Node38&#45;&gt;Node41</title>
<path fill="none" stroke="#191970" d="M1082.1949,-240.2255C1132.0852,-231.4398 1239.6728,-212.4935 1309.0963,-200.268"/>
<polygon fill="#191970" stroke="#191970" points="1309.8094,-203.6964 1319.0508,-198.515 1308.5953,-196.8024 1309.8094,-203.6964"/>
</g>
<!-- Node42 -->
<g id="node43" class="node">
<title>Node42</title>
<polygon fill="none" stroke="#bfbfbf" points="944.5824,-179.5 944.5824,-198.5 1051.5824,-198.5 1051.5824,-179.5 944.5824,-179.5"/>
<text text-anchor="middle" x="998.0824" y="-186.5" font-family="Helvetica,sans-Serif" font-size="10.00" fill="#000000">tmxlite/TileLayer.hpp</text>
</g>
<!-- Node38&#45;&gt;Node42 -->
<g id="edge78" class="edge">
<title>Node38&#45;&gt;Node42</title>
<path fill="none" stroke="#191970" d="M1045.1537,-235.2455C1036.8986,-227.1352 1024.9615,-215.4075 1015.1742,-205.7919"/>
<polygon fill="#191970" stroke="#191970" points="1017.4835,-203.1542 1007.8973,-198.6427 1012.5778,-208.1476 1017.4835,-203.1542"/>
</g>
</g>
</svg>
