<?xml version="1.0" encoding="UTF-8" standalone="no"?>
<!DOCTYPE svg PUBLIC "-//W3C//DTD SVG 1.1//EN"
 "http://www.w3.org/Graphics/SVG/1.1/DTD/svg11.dtd">
<!-- Generated by graphviz version 2.40.1 (20161225.0304)
 -->
<!-- Title: /mnt/hdd/C0de/smart_engine/src/sprite.cpp Pages: 1 -->
<svg width="230pt" height="151pt"
 viewBox="0.00 0.00 230.00 151.00" xmlns="http://www.w3.org/2000/svg" xmlns:xlink="http://www.w3.org/1999/xlink">
<g id="graph0" class="graph" transform="scale(1 1) rotate(0) translate(4 147)">
<title>/mnt/hdd/C0de/smart_engine/src/sprite.cpp</title>
<!-- Node0 -->
<g id="node1" class="node">
<title>Node0</title>
<polygon fill="#bfbfbf" stroke="#000000" points="42.5,-112.5 42.5,-142.5 155.5,-142.5 155.5,-112.5 42.5,-112.5"/>
<text text-anchor="start" x="50.5" y="-130.5" font-family="Helvetica,sans-Serif" font-size="10.00" fill="#000000">/mnt/hdd/C0de/smart</text>
<text text-anchor="middle" x="99" y="-119.5" font-family="Helvetica,sans-Serif" font-size="10.00" fill="#000000">_engine/src/sprite.cpp</text>
</g>
<!-- Node1 -->
<g id="node2" class="node">
<title>Node1</title>
<g id="a_node2"><a xlink:href="sprite_8h.html" target="_top" xlink:title="../include/sprite.h">
<polygon fill="none" stroke="#000000" points="53,-56.5 53,-75.5 145,-75.5 145,-56.5 53,-56.5"/>
<text text-anchor="middle" x="99" y="-63.5" font-family="Helvetica,sans-Serif" font-size="10.00" fill="#000000">../include/sprite.h</text>
</a>
</g>
</g>
<!-- Node0&#45;&gt;Node1 -->
<g id="edge1" class="edge">
<title>Node0&#45;&gt;Node1</title>
<path fill="none" stroke="#191970" d="M99,-112.2977C99,-104.3834 99,-94.6043 99,-86.0759"/>
<polygon fill="#191970" stroke="#191970" points="102.5001,-85.8469 99,-75.8469 95.5001,-85.847 102.5001,-85.8469"/>
</g>
<!-- Node2 -->
<g id="node3" class="node">
<title>Node2</title>
<polygon fill="none" stroke="#bfbfbf" points="0,-.5 0,-19.5 46,-19.5 46,-.5 0,-.5"/>
<text text-anchor="middle" x="23" y="-7.5" font-family="Helvetica,sans-Serif" font-size="10.00" fill="#000000">stdio.h</text>
</g>
<!-- Node1&#45;&gt;Node2 -->
<g id="edge2" class="edge">
<title>Node1&#45;&gt;Node2</title>
<path fill="none" stroke="#191970" d="M85.7618,-56.2455C74.319,-47.814 57.5704,-35.4729 44.2525,-25.6598"/>
<polygon fill="#191970" stroke="#191970" points="46.2133,-22.757 36.0865,-19.6427 42.0609,-28.3924 46.2133,-22.757"/>
</g>
<!-- Node3 -->
<g id="node4" class="node">
<title>Node3</title>
<polygon fill="none" stroke="#bfbfbf" points="64,-.5 64,-19.5 134,-19.5 134,-.5 64,-.5"/>
<text text-anchor="middle" x="99" y="-7.5" font-family="Helvetica,sans-Serif" font-size="10.00" fill="#000000">glm/fwd.hpp</text>
</g>
<!-- Node1&#45;&gt;Node3 -->
<g id="edge3" class="edge">
<title>Node1&#45;&gt;Node3</title>
<path fill="none" stroke="#191970" d="M99,-56.2455C99,-48.9382 99,-38.6944 99,-29.7046"/>
<polygon fill="#191970" stroke="#191970" points="102.5001,-29.6426 99,-19.6427 95.5001,-29.6427 102.5001,-29.6426"/>
</g>
<!-- Node4 -->
<g id="node5" class="node">
<title>Node4</title>
<polygon fill="none" stroke="#bfbfbf" points="152,-.5 152,-19.5 222,-19.5 222,-.5 152,-.5"/>
<text text-anchor="middle" x="187" y="-7.5" font-family="Helvetica,sans-Serif" font-size="10.00" fill="#000000">glm/glm.hpp</text>
</g>
<!-- Node1&#45;&gt;Node4 -->
<g id="edge4" class="edge">
<title>Node1&#45;&gt;Node4</title>
<path fill="none" stroke="#191970" d="M114.3284,-56.2455C127.8303,-47.6534 147.7122,-35.0014 163.2686,-25.1018"/>
<polygon fill="#191970" stroke="#191970" points="165.2897,-27.9643 171.8472,-19.6427 161.5315,-22.0587 165.2897,-27.9643"/>
</g>
</g>
</svg>
