<?xml version="1.0" encoding="UTF-8" standalone="no"?>
<!DOCTYPE svg PUBLIC "-//W3C//DTD SVG 1.1//EN"
 "http://www.w3.org/Graphics/SVG/1.1/DTD/svg11.dtd">
<!-- Generated by graphviz version 2.40.1 (20161225.0304)
 -->
<!-- Title: /mnt/hdd/C0de/smart_engine/src/sprite_renderer.cpp Pages: 1 -->
<!--zoomable 207 -->
<svg id="main" version="1.1" xmlns="http://www.w3.org/2000/svg" xmlns:xlink="http://www.w3.org/1999/xlink" xml:space="preserve" onload="init(evt)">
<style type="text/css"><![CDATA[
.edge:hover path { stroke: red; }
.edge:hover polygon { stroke: red; fill: red; }
]]></style>
<script type="text/javascript"><![CDATA[
var edges = document.getElementsByTagName('g');
if (edges && edges.length) {
  for (var i=0;i<edges.length;i++) {
    if (edges[i].id.substr(0,4)=='edge') {
      edges[i].setAttribute('class','edge');
    }
  }
}
]]></script>
        <defs>
                <circle id="rim" cx="0" cy="0" r="7"/>
                <circle id="rim2" cx="0" cy="0" r="3.5"/>
                <g id="zoomPlus">
                        <use xlink:href="#rim" fill="#404040">
                                <set attributeName="fill" to="#808080" begin="zoomplus.mouseover" end="zoomplus.mouseout"/>
                        </use>
                        <path d="M-4,0h8M0,-4v8" fill="none" stroke="white" stroke-width="1.5" pointer-events="none"/>
                </g>
                <g id="zoomMin">
                        <use xlink:href="#rim" fill="#404040">
                                <set attributeName="fill" to="#808080" begin="zoomminus.mouseover" end="zoomminus.mouseout"/>
                        </use>
                        <path d="M-4,0h8" fill="none" stroke="white" stroke-width="1.5" pointer-events="none"/>
                </g>
                <g id="dirArrow">
                        <path fill="none" stroke="white" stroke-width="1.5" d="M0,-3.0v7 M-2.5,-0.5L0,-3.0L2.5,-0.5"/>
                </g>
               <g id="resetDef">
                       <use xlink:href="#rim2" fill="#404040">
                               <set attributeName="fill" to="#808080" begin="reset.mouseover" end="reset.mouseout"/>
                       </use>
               </g>
        </defs>

<script type="text/javascript">
var viewWidth = 790;
var viewHeight = 207;
var sectionId = 'dynsection-0';
</script>
<script xlink:href="svgpan.js"/>
<svg id="graph" class="graph">
<g id="viewport">
<title>/mnt/hdd/C0de/smart_engine/src/sprite_renderer.cpp</title>
<!-- Node0 -->
<g id="node1" class="node">
<title>Node0</title>
<polygon fill="#bfbfbf" stroke="#000000" points="541.5,-168.5 541.5,-198.5 694.5,-198.5 694.5,-168.5 541.5,-168.5"/>
<text text-anchor="start" x="549.5" y="-186.5" font-family="Helvetica,sans-Serif" font-size="10.00" fill="#000000">/mnt/hdd/C0de/smart</text>
<text text-anchor="middle" x="618" y="-175.5" font-family="Helvetica,sans-Serif" font-size="10.00" fill="#000000">_engine/src/sprite_renderer.cpp</text>
</g>
<!-- Node1 -->
<g id="node2" class="node">
<title>Node1</title>
<g id="a_node2"><a xlink:href="sprite__renderer_8h.html" target="_top" xlink:title="../include/sprite_renderer.h">
<polygon fill="none" stroke="#000000" points="281,-112.5 281,-131.5 413,-131.5 413,-112.5 281,-112.5"/>
<text text-anchor="middle" x="347" y="-119.5" font-family="Helvetica,sans-Serif" font-size="10.00" fill="#000000">../include/sprite_renderer.h</text>
</a>
</g>
</g>
<!-- Node0&#45;&gt;Node1 -->
<g id="edge1" class="edge">
<title>Node0&#45;&gt;Node1</title>
<path fill="none" stroke="#191970" d="M551.7059,-168.4554C504.6048,-157.7664 442.2531,-143.6165 398.7917,-133.7535"/>
<polygon fill="#191970" stroke="#191970" points="399.522,-130.3303 388.9954,-131.5303 397.9728,-137.1567 399.522,-130.3303"/>
</g>
<!-- Node5 -->
<g id="node6" class="node">
<title>Node5</title>
<polygon fill="none" stroke="#bfbfbf" points="0,-56.5 0,-75.5 54,-75.5 54,-56.5 0,-56.5"/>
<text text-anchor="middle" x="27" y="-63.5" font-family="Helvetica,sans-Serif" font-size="10.00" fill="#000000">iostream</text>
</g>
<!-- Node0&#45;&gt;Node5 -->
<g id="edge21" class="edge">
<title>Node0&#45;&gt;Node5</title>
<path fill="none" stroke="#191970" d="M541.2765,-174.6597C470.8632,-165.9369 363.8564,-151.142 272,-132 197.3161,-116.4366 111.5564,-91.726 63.8846,-77.3666"/>
<polygon fill="#191970" stroke="#191970" points="64.8929,-74.015 54.3077,-74.4666 62.8641,-80.7146 64.8929,-74.015"/>
</g>
<!-- Node7 -->
<g id="node8" class="node">
<title>Node7</title>
<polygon fill="none" stroke="#bfbfbf" points="522.5,-56.5 522.5,-75.5 605.5,-75.5 605.5,-56.5 522.5,-56.5"/>
<text text-anchor="middle" x="564" y="-63.5" font-family="Helvetica,sans-Serif" font-size="10.00" fill="#000000">unordered_map</text>
</g>
<!-- Node0&#45;&gt;Node7 -->
<g id="edge24" class="edge">
<title>Node0&#45;&gt;Node7</title>
<path fill="none" stroke="#191970" d="M610.9404,-168.1389C601.0787,-146.6806 583.1982,-107.7738 572.5804,-84.6702"/>
<polygon fill="#191970" stroke="#191970" points="575.7494,-83.1843 568.3933,-75.5595 569.389,-86.1074 575.7494,-83.1843"/>
</g>
<!-- Node8 -->
<g id="node9" class="node">
<title>Node8</title>
<polygon fill="none" stroke="#bfbfbf" points="624,-56.5 624,-75.5 676,-75.5 676,-56.5 624,-56.5"/>
<text text-anchor="middle" x="650" y="-63.5" font-family="Helvetica,sans-Serif" font-size="10.00" fill="#000000">memory</text>
</g>
<!-- Node0&#45;&gt;Node8 -->
<g id="edge23" class="edge">
<title>Node0&#45;&gt;Node8</title>
<path fill="none" stroke="#191970" d="M622.1834,-168.1389C627.975,-146.873 638.4336,-108.4702 644.745,-85.2956"/>
<polygon fill="#191970" stroke="#191970" points="648.1458,-86.1278 647.3966,-75.5595 641.3918,-84.2883 648.1458,-86.1278"/>
</g>
<!-- Node15 -->
<g id="node16" class="node">
<title>Node15</title>
<polygon fill="none" stroke="#bfbfbf" points="619,-.5 619,-19.5 689,-19.5 689,-.5 619,-.5"/>
<text text-anchor="middle" x="654" y="-7.5" font-family="Helvetica,sans-Serif" font-size="10.00" fill="#000000">glm/fwd.hpp</text>
</g>
<!-- Node0&#45;&gt;Node15 -->
<g id="edge20" class="edge">
<title>Node0&#45;&gt;Node15</title>
<path fill="none" stroke="#191970" d="M631.2615,-168.4617C647.6163,-148.8112 674.5346,-112.5772 685,-76 687.4451,-67.454 687.5971,-64.501 685,-56 681.8591,-45.7192 675.5634,-35.6582 669.4612,-27.5799"/>
<polygon fill="#191970" stroke="#191970" points="672.0816,-25.2539 663.0741,-19.6757 666.637,-29.6535 672.0816,-25.2539"/>
</g>
<!-- Node16 -->
<g id="node17" class="node">
<title>Node16</title>
<polygon fill="none" stroke="#bfbfbf" points="732.5,-112.5 732.5,-131.5 781.5,-131.5 781.5,-112.5 732.5,-112.5"/>
<text text-anchor="middle" x="757" y="-119.5" font-family="Helvetica,sans-Serif" font-size="10.00" fill="#000000">istream</text>
</g>
<!-- Node0&#45;&gt;Node16 -->
<g id="edge22" class="edge">
<title>Node0&#45;&gt;Node16</title>
<path fill="none" stroke="#191970" d="M652.0032,-168.4554C674.6871,-158.419 704.2673,-145.3314 726.2479,-135.6061"/>
<polygon fill="#191970" stroke="#191970" points="727.7312,-138.7772 735.4599,-131.5303 724.8989,-132.3758 727.7312,-138.7772"/>
</g>
<!-- Node2 -->
<g id="node3" class="node">
<title>Node2</title>
<polygon fill="none" stroke="#bfbfbf" points="460,-56.5 460,-75.5 504,-75.5 504,-56.5 460,-56.5"/>
<text text-anchor="middle" x="482" y="-63.5" font-family="Helvetica,sans-Serif" font-size="10.00" fill="#000000">cmath</text>
</g>
<!-- Node1&#45;&gt;Node2 -->
<g id="edge2" class="edge">
<title>Node1&#45;&gt;Node2</title>
<path fill="none" stroke="#191970" d="M370.2073,-112.3733C392.4361,-103.1524 426.1388,-89.1721 450.7275,-78.9723"/>
<polygon fill="#191970" stroke="#191970" points="452.0937,-82.1948 459.9895,-75.1303 449.4115,-75.729 452.0937,-82.1948"/>
</g>
<!-- Node3 -->
<g id="node4" class="node">
<title>Node3</title>
<polygon fill="none" stroke="#bfbfbf" points="152,-.5 152,-19.5 216,-19.5 216,-.5 152,-.5"/>
<text text-anchor="middle" x="184" y="-7.5" font-family="Helvetica,sans-Serif" font-size="10.00" fill="#000000">glad/glad.h</text>
</g>
<!-- Node1&#45;&gt;Node3 -->
<g id="edge3" class="edge">
<title>Node1&#45;&gt;Node3</title>
<path fill="none" stroke="#191970" d="M280.9489,-118.9003C216.0216,-114.3048 123.4824,-103.0761 101,-76 83.1713,-54.5284 115.5621,-35.3428 144.9479,-23.265"/>
<polygon fill="#191970" stroke="#191970" points="146.2786,-26.5028 154.3157,-19.5995 143.7279,-19.9841 146.2786,-26.5028"/>
</g>
<!-- Node4 -->
<g id="node5" class="node">
<title>Node4</title>
<polygon fill="none" stroke="#bfbfbf" points="110,-56.5 110,-75.5 190,-75.5 190,-56.5 110,-56.5"/>
<text text-anchor="middle" x="150" y="-63.5" font-family="Helvetica,sans-Serif" font-size="10.00" fill="#000000">GLFW/glfw3.h</text>
</g>
<!-- Node1&#45;&gt;Node4 -->
<g id="edge4" class="edge">
<title>Node1&#45;&gt;Node4</title>
<path fill="none" stroke="#191970" d="M313.1345,-112.3733C279.951,-102.9404 229.245,-88.5265 193.1806,-78.2747"/>
<polygon fill="#191970" stroke="#191970" points="193.9995,-74.8689 183.4236,-75.5011 192.0855,-81.6021 193.9995,-74.8689"/>
</g>
<!-- Node1&#45;&gt;Node5 -->
<g id="edge5" class="edge">
<title>Node1&#45;&gt;Node5</title>
<path fill="none" stroke="#191970" d="M280.7865,-112.5292C224.0923,-104.075 140.3905,-90.7736 68,-76 66.7482,-75.7445 65.4767,-75.4775 64.194,-75.2016"/>
<polygon fill="#191970" stroke="#191970" points="64.8081,-71.7521 54.2823,-72.9595 63.2636,-78.5796 64.8081,-71.7521"/>
</g>
<!-- Node6 -->
<g id="node7" class="node">
<title>Node6</title>
<polygon fill="none" stroke="#bfbfbf" points="234.5,-.5 234.5,-19.5 275.5,-19.5 275.5,-.5 234.5,-.5"/>
<text text-anchor="middle" x="255" y="-7.5" font-family="Helvetica,sans-Serif" font-size="10.00" fill="#000000">string</text>
</g>
<!-- Node1&#45;&gt;Node6 -->
<g id="edge6" class="edge">
<title>Node1&#45;&gt;Node6</title>
<path fill="none" stroke="#191970" d="M339.1561,-112.4509C323.6758,-93.6054 288.9947,-51.3849 269.3273,-27.4419"/>
<polygon fill="#191970" stroke="#191970" points="271.876,-25.0306 262.824,-19.5249 266.4669,-29.4738 271.876,-25.0306"/>
</g>
<!-- Node1&#45;&gt;Node7 -->
<g id="edge7" class="edge">
<title>Node1&#45;&gt;Node7</title>
<path fill="none" stroke="#191970" d="M384.3036,-112.3733C421.1685,-102.8598 477.666,-88.2797 517.4506,-78.0127"/>
<polygon fill="#191970" stroke="#191970" points="518.375,-81.3889 527.1831,-75.5011 516.6258,-74.611 518.375,-81.3889"/>
</g>
<!-- Node1&#45;&gt;Node8 -->
<g id="edge8" class="edge">
<title>Node1&#45;&gt;Node8</title>
<path fill="none" stroke="#191970" d="M413.2016,-112.6799C465.3425,-104.8719 540.014,-92.6612 613.7778,-76.1"/>
<polygon fill="#191970" stroke="#191970" points="614.7304,-79.4728 623.7057,-73.843 613.1786,-72.647 614.7304,-79.4728"/>
</g>
<!-- Node9 -->
<g id="node10" class="node">
<title>Node9</title>
<g id="a_node10"><a xlink:href="texture_8h.html" target="_top" xlink:title="texture.h">
<polygon fill="none" stroke="#000000" points="208.5,-56.5 208.5,-75.5 263.5,-75.5 263.5,-56.5 208.5,-56.5"/>
<text text-anchor="middle" x="236" y="-63.5" font-family="Helvetica,sans-Serif" font-size="10.00" fill="#000000">texture.h</text>
</a>
</g>
</g>
<!-- Node1&#45;&gt;Node9 -->
<g id="edge9" class="edge">
<title>Node1&#45;&gt;Node9</title>
<path fill="none" stroke="#191970" d="M327.9184,-112.3733C310.2598,-103.4644 283.7947,-90.1127 263.7902,-80.0203"/>
<polygon fill="#191970" stroke="#191970" points="265.3372,-76.8806 254.8326,-75.5011 262.1842,-83.1303 265.3372,-76.8806"/>
</g>
<!-- Node10 -->
<g id="node11" class="node">
<title>Node10</title>
<g id="a_node11"><a xlink:href="shader_8h.html" target="_top" xlink:title="shader.h">
<polygon fill="none" stroke="#000000" points="320,-56.5 320,-75.5 374,-75.5 374,-56.5 320,-56.5"/>
<text text-anchor="middle" x="347" y="-63.5" font-family="Helvetica,sans-Serif" font-size="10.00" fill="#000000">shader.h</text>
</a>
</g>
</g>
<!-- Node1&#45;&gt;Node10 -->
<g id="edge11" class="edge">
<title>Node1&#45;&gt;Node10</title>
<path fill="none" stroke="#191970" d="M347,-112.2455C347,-104.9382 347,-94.6944 347,-85.7046"/>
<polygon fill="#191970" stroke="#191970" points="350.5001,-85.6426 347,-75.6427 343.5001,-85.6427 350.5001,-85.6426"/>
</g>
<!-- Node13 -->
<g id="node14" class="node">
<title>Node13</title>
<g id="a_node14"><a xlink:href="sprite_8h.html" target="_top" xlink:title="sprite.h">
<polygon fill="none" stroke="#000000" points="392.5,-56.5 392.5,-75.5 441.5,-75.5 441.5,-56.5 392.5,-56.5"/>
<text text-anchor="middle" x="417" y="-63.5" font-family="Helvetica,sans-Serif" font-size="10.00" fill="#000000">sprite.h</text>
</a>
</g>
</g>
<!-- Node1&#45;&gt;Node13 -->
<g id="edge16" class="edge">
<title>Node1&#45;&gt;Node13</title>
<path fill="none" stroke="#191970" d="M359.1931,-112.2455C369.6321,-103.8943 384.8655,-91.7076 397.074,-81.9408"/>
<polygon fill="#191970" stroke="#191970" points="399.3244,-84.6227 404.9467,-75.6427 394.9515,-79.1566 399.3244,-84.6227"/>
</g>
<!-- Node9&#45;&gt;Node3 -->
<g id="edge10" class="edge">
<title>Node9&#45;&gt;Node3</title>
<path fill="none" stroke="#191970" d="M226.9423,-56.2455C219.4858,-48.2155 208.7366,-36.6394 199.8583,-27.0781"/>
<polygon fill="#191970" stroke="#191970" points="202.3232,-24.589 192.9539,-19.6427 197.1937,-29.3522 202.3232,-24.589"/>
</g>
<!-- Node10&#45;&gt;Node3 -->
<g id="edge13" class="edge">
<title>Node10&#45;&gt;Node3</title>
<path fill="none" stroke="#191970" d="M319.7175,-56.6269C292.8473,-47.3954 251.5874,-33.2202 221.6133,-22.9224"/>
<polygon fill="#191970" stroke="#191970" points="222.5126,-19.5306 211.9179,-19.5914 220.2381,-26.1508 222.5126,-19.5306"/>
</g>
<!-- Node10&#45;&gt;Node6 -->
<g id="edge12" class="edge">
<title>Node10&#45;&gt;Node6</title>
<path fill="none" stroke="#191970" d="M330.9748,-56.2455C316.8592,-47.6534 296.0737,-35.0014 279.8101,-25.1018"/>
<polygon fill="#191970" stroke="#191970" points="281.2034,-21.8525 270.8415,-19.6427 277.5637,-27.8319 281.2034,-21.8525"/>
</g>
<!-- Node11 -->
<g id="node12" class="node">
<title>Node11</title>
<polygon fill="none" stroke="#bfbfbf" points="418,-.5 418,-19.5 488,-19.5 488,-.5 418,-.5"/>
<text text-anchor="middle" x="453" y="-7.5" font-family="Helvetica,sans-Serif" font-size="10.00" fill="#000000">glm/glm.hpp</text>
</g>
<!-- Node10&#45;&gt;Node11 -->
<g id="edge14" class="edge">
<title>Node10&#45;&gt;Node11</title>
<path fill="none" stroke="#191970" d="M365.4638,-56.2455C382.1074,-47.4527 406.7993,-34.4079 425.7192,-24.4125"/>
<polygon fill="#191970" stroke="#191970" points="427.5408,-27.4086 434.7478,-19.6427 424.2709,-21.2193 427.5408,-27.4086"/>
</g>
<!-- Node12 -->
<g id="node13" class="node">
<title>Node12</title>
<polygon fill="none" stroke="#bfbfbf" points="294,-.5 294,-19.5 400,-19.5 400,-.5 294,-.5"/>
<text text-anchor="middle" x="347" y="-7.5" font-family="Helvetica,sans-Serif" font-size="10.00" fill="#000000">glm/gtc/type_ptr.hpp</text>
</g>
<!-- Node10&#45;&gt;Node12 -->
<g id="edge15" class="edge">
<title>Node10&#45;&gt;Node12</title>
<path fill="none" stroke="#191970" d="M347,-56.2455C347,-48.9382 347,-38.6944 347,-29.7046"/>
<polygon fill="#191970" stroke="#191970" points="350.5001,-29.6426 347,-19.6427 343.5001,-29.6427 350.5001,-29.6426"/>
</g>
<!-- Node13&#45;&gt;Node11 -->
<g id="edge19" class="edge">
<title>Node13&#45;&gt;Node11</title>
<path fill="none" stroke="#191970" d="M423.2707,-56.2455C428.2264,-48.5367 435.283,-37.5598 441.2776,-28.2348"/>
<polygon fill="#191970" stroke="#191970" points="444.3376,-29.9471 446.8011,-19.6427 438.4494,-26.1618 444.3376,-29.9471"/>
</g>
<!-- Node14 -->
<g id="node15" class="node">
<title>Node14</title>
<polygon fill="none" stroke="#bfbfbf" points="506,-.5 506,-19.5 552,-19.5 552,-.5 506,-.5"/>
<text text-anchor="middle" x="529" y="-7.5" font-family="Helvetica,sans-Serif" font-size="10.00" fill="#000000">stdio.h</text>
</g>
<!-- Node13&#45;&gt;Node14 -->
<g id="edge17" class="edge">
<title>Node13&#45;&gt;Node14</title>
<path fill="none" stroke="#191970" d="M436.2535,-56.3733C454.0712,-47.4644 480.7747,-34.1127 500.9594,-24.0203"/>
<polygon fill="#191970" stroke="#191970" points="502.6187,-27.1038 509.9978,-19.5011 499.4882,-20.8428 502.6187,-27.1038"/>
</g>
<!-- Node13&#45;&gt;Node15 -->
<g id="edge18" class="edge">
<title>Node13&#45;&gt;Node15</title>
<path fill="none" stroke="#191970" d="M441.832,-58.4996C444.9113,-57.6277 448.0227,-56.7744 451,-56 505.0034,-41.9547 567.7159,-28.1171 608.9834,-19.3467"/>
<polygon fill="#191970" stroke="#191970" points="609.9356,-22.7228 618.9948,-17.229 608.4869,-15.8743 609.9356,-22.7228"/>
</g>
</g>
</svg>
        <g id="navigator" transform="translate(0 0)" fill="#404254">
                <rect fill="#f2f5e9" fill-opacity="0.5" stroke="#606060" stroke-width=".5" x="0" y="0" width="60" height="60"/>
                <use id="zoomplus" xlink:href="#zoomPlus" x="17" y="9" onmousedown="handleZoom(evt,'in')"/>
                <use id="zoomminus" xlink:href="#zoomMin" x="42" y="9" onmousedown="handleZoom(evt,'out')"/>
                <use id="reset" xlink:href="#resetDef" x="30" y="36" onmousedown="handleReset()"/>
                <g id="arrowUp" xlink:href="#dirArrow" transform="translate(30 24)" onmousedown="handlePan(0,-1)">
                  <use xlink:href="#rim" fill="#404040">
                        <set attributeName="fill" to="#808080" begin="arrowUp.mouseover" end="arrowUp.mouseout"/>
                  </use>
                  <path fill="none" stroke="white" stroke-width="1.5" d="M0,-3.0v7 M-2.5,-0.5L0,-3.0L2.5,-0.5"/>
                </g>
                <g id="arrowRight" xlink:href="#dirArrow" transform="rotate(90) translate(36 -43)" onmousedown="handlePan(1,0)">
                  <use xlink:href="#rim" fill="#404040">
                        <set attributeName="fill" to="#808080" begin="arrowRight.mouseover" end="arrowRight.mouseout"/>
                  </use>
                  <path fill="none" stroke="white" stroke-width="1.5" d="M0,-3.0v7 M-2.5,-0.5L0,-3.0L2.5,-0.5"/>
                </g>
                <g id="arrowDown" xlink:href="#dirArrow" transform="rotate(180) translate(-30 -48)" onmousedown="handlePan(0,1)">
                  <use xlink:href="#rim" fill="#404040">
                        <set attributeName="fill" to="#808080" begin="arrowDown.mouseover" end="arrowDown.mouseout"/>
                  </use>
                  <path fill="none" stroke="white" stroke-width="1.5" d="M0,-3.0v7 M-2.5,-0.5L0,-3.0L2.5,-0.5"/>
                </g>
                <g id="arrowLeft" xlink:href="#dirArrow" transform="rotate(270) translate(-36 17)" onmousedown="handlePan(-1,0)">
                  <use xlink:href="#rim" fill="#404040">
                        <set attributeName="fill" to="#808080" begin="arrowLeft.mouseover" end="arrowLeft.mouseout"/>
                  </use>
                  <path fill="none" stroke="white" stroke-width="1.5" d="M0,-3.0v7 M-2.5,-0.5L0,-3.0L2.5,-0.5"/>
                </g>
        </g>
        <svg viewBox="0 0 15 15" width="100%" height="30px" preserveAspectRatio="xMaxYMin meet">
         <g id="arrow_out" transform="scale(0.3 0.3)">
          <a xlink:href="sprite__renderer_8cpp__incl_org.svg" target="_base">
           <rect id="button" ry="5" rx="5" y="6" x="6" height="38" width="38"
                fill="#f2f5e9" fill-opacity="0.5" stroke="#606060" stroke-width="1.0"/>
           <path id="arrow"
             d="M 11.500037,31.436501 C 11.940474,20.09759 22.043105,11.32322 32.158766,21.979434 L 37.068811,17.246167 C 37.068811,17.246167 37.088388,32 37.088388,32 L 22.160133,31.978069 C 22.160133,31.978069 26.997745,27.140456 26.997745,27.140456 C 18.528582,18.264221 13.291696,25.230495 11.500037,31.436501 z"
             style="fill:#404040;"/>
          </a>
         </g>
        </svg>
</svg>
