<?xml version="1.0" encoding="UTF-8" standalone="no"?>
<!DOCTYPE svg PUBLIC "-//W3C//DTD SVG 1.1//EN"
 "http://www.w3.org/Graphics/SVG/1.1/DTD/svg11.dtd">
<!-- Generated by graphviz version 2.40.1 (20161225.0304)
 -->
<!-- Title: /mnt/hdd/C0de/smart_engine/include/sprite.h Pages: 1 -->
<svg width="865pt" height="195pt"
 viewBox="0.00 0.00 865.00 195.00" xmlns="http://www.w3.org/2000/svg" xmlns:xlink="http://www.w3.org/1999/xlink">
<g id="graph0" class="graph" transform="scale(1 1) rotate(0) translate(4 191)">
<title>/mnt/hdd/C0de/smart_engine/include/sprite.h</title>
<!-- Node4 -->
<g id="node1" class="node">
<title>Node4</title>
<polygon fill="#bfbfbf" stroke="#000000" points="500,-156.5 500,-186.5 619,-186.5 619,-156.5 500,-156.5"/>
<text text-anchor="start" x="508" y="-174.5" font-family="Helvetica,sans-Serif" font-size="10.00" fill="#000000">/mnt/hdd/C0de/smart</text>
<text text-anchor="middle" x="559.5" y="-163.5" font-family="Helvetica,sans-Serif" font-size="10.00" fill="#000000">_engine/include/sprite.h</text>
</g>
<!-- Node5 -->
<g id="node2" class="node">
<title>Node5</title>
<g id="a_node2"><a xlink:href="sprite__renderer_8h.html" target="_top" xlink:title="/mnt/hdd/C0de/smart\l_engine/include/sprite\l_renderer.h">
<polygon fill="none" stroke="#000000" points="339,-78.5 339,-119.5 450,-119.5 450,-78.5 339,-78.5"/>
<text text-anchor="start" x="347" y="-107.5" font-family="Helvetica,sans-Serif" font-size="10.00" fill="#000000">/mnt/hdd/C0de/smart</text>
<text text-anchor="start" x="347" y="-96.5" font-family="Helvetica,sans-Serif" font-size="10.00" fill="#000000">_engine/include/sprite</text>
<text text-anchor="middle" x="394.5" y="-85.5" font-family="Helvetica,sans-Serif" font-size="10.00" fill="#000000">_renderer.h</text>
</a>
</g>
</g>
<!-- Node4&#45;&gt;Node5 -->
<g id="edge1" class="edge">
<title>Node4&#45;&gt;Node5</title>
<path fill="none" stroke="#191970" d="M516.1097,-152.4346C493.0516,-142.303 464.6905,-129.8413 441.1586,-119.5015"/>
<polygon fill="#191970" stroke="#191970" points="514.7487,-155.6595 525.3119,-156.478 517.5647,-149.2508 514.7487,-155.6595"/>
</g>
<!-- Node12 -->
<g id="node9" class="node">
<title>Node12</title>
<g id="a_node9"><a xlink:href="LoadingGameObjects_8cpp.html" target="_top" xlink:title="/mnt/hdd/C0de/smart\l_engine/src/LoadingGameObjects.cpp">
<polygon fill="none" stroke="#000000" points="468.5,-84 468.5,-114 650.5,-114 650.5,-84 468.5,-84"/>
<text text-anchor="start" x="476.5" y="-102" font-family="Helvetica,sans-Serif" font-size="10.00" fill="#000000">/mnt/hdd/C0de/smart</text>
<text text-anchor="middle" x="559.5" y="-91" font-family="Helvetica,sans-Serif" font-size="10.00" fill="#000000">_engine/src/LoadingGameObjects.cpp</text>
</a>
</g>
</g>
<!-- Node4&#45;&gt;Node12 -->
<g id="edge8" class="edge">
<title>Node4&#45;&gt;Node12</title>
<path fill="none" stroke="#191970" d="M559.5,-146.3409C559.5,-135.5601 559.5,-123.3309 559.5,-114.0028"/>
<polygon fill="#191970" stroke="#191970" points="556.0001,-146.4779 559.5,-156.478 563.0001,-146.478 556.0001,-146.4779"/>
</g>
<!-- Node13 -->
<g id="node10" class="node">
<title>Node13</title>
<g id="a_node10"><a xlink:href="sprite_8cpp.html" target="_top" xlink:title="/mnt/hdd/C0de/smart\l_engine/src/sprite.cpp">
<polygon fill="none" stroke="#000000" points="669,-84 669,-114 782,-114 782,-84 669,-84"/>
<text text-anchor="start" x="677" y="-102" font-family="Helvetica,sans-Serif" font-size="10.00" fill="#000000">/mnt/hdd/C0de/smart</text>
<text text-anchor="middle" x="725.5" y="-91" font-family="Helvetica,sans-Serif" font-size="10.00" fill="#000000">_engine/src/sprite.cpp</text>
</a>
</g>
</g>
<!-- Node4&#45;&gt;Node13 -->
<g id="edge9" class="edge">
<title>Node4&#45;&gt;Node13</title>
<path fill="none" stroke="#191970" d="M603.2756,-152.3811C630.7515,-140.3811 665.6747,-125.1285 691.1488,-114.0028"/>
<polygon fill="#191970" stroke="#191970" points="601.6586,-149.2681 593.8953,-156.478 604.4603,-155.6829 601.6586,-149.2681"/>
</g>
<!-- Node6 -->
<g id="node3" class="node">
<title>Node6</title>
<g id="a_node3"><a xlink:href="game_8cpp.html" target="_top" xlink:title="/mnt/hdd/C0de/smart\l_engine/src/game.cpp">
<polygon fill="none" stroke="#000000" points="0,-6 0,-36 113,-36 113,-6 0,-6"/>
<text text-anchor="start" x="8" y="-24" font-family="Helvetica,sans-Serif" font-size="10.00" fill="#000000">/mnt/hdd/C0de/smart</text>
<text text-anchor="middle" x="56.5" y="-13" font-family="Helvetica,sans-Serif" font-size="10.00" fill="#000000">_engine/src/game.cpp</text>
</a>
</g>
</g>
<!-- Node5&#45;&gt;Node6 -->
<g id="edge2" class="edge">
<title>Node5&#45;&gt;Node6</title>
<path fill="none" stroke="#191970" d="M328.865,-87.1821C273.5005,-76.752 192.3417,-60.3784 122.5,-42 115.7555,-40.2252 108.6792,-38.1767 101.7678,-36.0696"/>
<polygon fill="#191970" stroke="#191970" points="328.4208,-90.6596 338.8941,-89.0596 329.7089,-83.7791 328.4208,-90.6596"/>
</g>
<!-- Node7 -->
<g id="node4" class="node">
<title>Node7</title>
<g id="a_node4"><a xlink:href="game__over__state_8cpp.html" target="_top" xlink:title="/mnt/hdd/C0de/smart\l_engine/src/game_over\l_state.cpp">
<polygon fill="none" stroke="#000000" points="131.5,-.5 131.5,-41.5 249.5,-41.5 249.5,-.5 131.5,-.5"/>
<text text-anchor="start" x="139.5" y="-29.5" font-family="Helvetica,sans-Serif" font-size="10.00" fill="#000000">/mnt/hdd/C0de/smart</text>
<text text-anchor="start" x="139.5" y="-18.5" font-family="Helvetica,sans-Serif" font-size="10.00" fill="#000000">_engine/src/game_over</text>
<text text-anchor="middle" x="190.5" y="-7.5" font-family="Helvetica,sans-Serif" font-size="10.00" fill="#000000">_state.cpp</text>
</a>
</g>
</g>
<!-- Node5&#45;&gt;Node7 -->
<g id="edge3" class="edge">
<title>Node5&#45;&gt;Node7</title>
<path fill="none" stroke="#191970" d="M331.0024,-74.7215C303.1962,-64.0897 270.9159,-51.7473 244.3133,-41.5757"/>
<polygon fill="#191970" stroke="#191970" points="330.044,-78.1021 340.6346,-78.4044 332.544,-71.5638 330.044,-78.1021"/>
</g>
<!-- Node8 -->
<g id="node5" class="node">
<title>Node8</title>
<g id="a_node5"><a xlink:href="game__play__state_8cpp.html" target="_top" xlink:title="/mnt/hdd/C0de/smart\l_engine/src/game_play\l_state.cpp">
<polygon fill="none" stroke="#000000" points="268,-.5 268,-41.5 385,-41.5 385,-.5 268,-.5"/>
<text text-anchor="start" x="276" y="-29.5" font-family="Helvetica,sans-Serif" font-size="10.00" fill="#000000">/mnt/hdd/C0de/smart</text>
<text text-anchor="start" x="276" y="-18.5" font-family="Helvetica,sans-Serif" font-size="10.00" fill="#000000">_engine/src/game_play</text>
<text text-anchor="middle" x="326.5" y="-7.5" font-family="Helvetica,sans-Serif" font-size="10.00" fill="#000000">_state.cpp</text>
</a>
</g>
</g>
<!-- Node5&#45;&gt;Node8 -->
<g id="edge4" class="edge">
<title>Node5&#45;&gt;Node8</title>
<path fill="none" stroke="#191970" d="M369.5457,-70.376C361.2587,-60.8703 352.1986,-50.4778 344.5373,-41.6898"/>
<polygon fill="#191970" stroke="#191970" points="367.0676,-72.8597 376.2772,-78.0974 372.3441,-68.2597 367.0676,-72.8597"/>
</g>
<!-- Node9 -->
<g id="node6" class="node">
<title>Node9</title>
<g id="a_node6"><a xlink:href="main__menu__state_8cpp.html" target="_top" xlink:title="/mnt/hdd/C0de/smart\l_engine/src/main_menu\l_state.cpp">
<polygon fill="none" stroke="#000000" points="403.5,-.5 403.5,-41.5 523.5,-41.5 523.5,-.5 403.5,-.5"/>
<text text-anchor="start" x="411.5" y="-29.5" font-family="Helvetica,sans-Serif" font-size="10.00" fill="#000000">/mnt/hdd/C0de/smart</text>
<text text-anchor="start" x="411.5" y="-18.5" font-family="Helvetica,sans-Serif" font-size="10.00" fill="#000000">_engine/src/main_menu</text>
<text text-anchor="middle" x="463.5" y="-7.5" font-family="Helvetica,sans-Serif" font-size="10.00" fill="#000000">_state.cpp</text>
</a>
</g>
</g>
<!-- Node5&#45;&gt;Node9 -->
<g id="edge5" class="edge">
<title>Node5&#45;&gt;Node9</title>
<path fill="none" stroke="#191970" d="M419.8213,-70.376C428.2301,-60.8703 437.4235,-50.4778 445.1975,-41.6898"/>
<polygon fill="#191970" stroke="#191970" points="416.995,-68.2884 412.9907,-78.0974 422.238,-72.9265 416.995,-68.2884"/>
</g>
<!-- Node10 -->
<g id="node7" class="node">
<title>Node10</title>
<g id="a_node7"><a xlink:href="splash__state_8cpp.html" target="_top" xlink:title="/mnt/hdd/C0de/smart\l_engine/src/splash_state.cpp">
<polygon fill="none" stroke="#000000" points="541.5,-6 541.5,-36 685.5,-36 685.5,-6 541.5,-6"/>
<text text-anchor="start" x="549.5" y="-24" font-family="Helvetica,sans-Serif" font-size="10.00" fill="#000000">/mnt/hdd/C0de/smart</text>
<text text-anchor="middle" x="613.5" y="-13" font-family="Helvetica,sans-Serif" font-size="10.00" fill="#000000">_engine/src/splash_state.cpp</text>
</a>
</g>
</g>
<!-- Node5&#45;&gt;Node10 -->
<g id="edge6" class="edge">
<title>Node5&#45;&gt;Node10</title>
<path fill="none" stroke="#191970" d="M459.5227,-75.8412C495.6193,-62.9849 539.4847,-47.3616 571.1484,-36.0841"/>
<polygon fill="#191970" stroke="#191970" points="458.2921,-72.5641 450.0461,-79.2165 460.6407,-79.1583 458.2921,-72.5641"/>
</g>
<!-- Node11 -->
<g id="node8" class="node">
<title>Node11</title>
<g id="a_node8"><a xlink:href="sprite__renderer_8cpp.html" target="_top" xlink:title="/mnt/hdd/C0de/smart\l_engine/src/sprite_renderer.cpp">
<polygon fill="none" stroke="#000000" points="704,-6 704,-36 857,-36 857,-6 704,-6"/>
<text text-anchor="start" x="712" y="-24" font-family="Helvetica,sans-Serif" font-size="10.00" fill="#000000">/mnt/hdd/C0de/smart</text>
<text text-anchor="middle" x="780.5" y="-13" font-family="Helvetica,sans-Serif" font-size="10.00" fill="#000000">_engine/src/sprite_renderer.cpp</text>
</a>
</g>
</g>
<!-- Node5&#45;&gt;Node11 -->
<g id="edge7" class="edge">
<title>Node5&#45;&gt;Node11</title>
<path fill="none" stroke="#191970" d="M459.9785,-78.0882C564.1221,-54.19 593.9929,-61.93 694.5,-42 703.3947,-40.2362 712.7574,-38.17 721.9,-36.0345"/>
<polygon fill="#191970" stroke="#191970" points="458.9437,-74.7357 450.0033,-80.4207 460.5376,-81.5518 458.9437,-74.7357"/>
</g>
</g>
</svg>
