<?xml version="1.0" encoding="UTF-8" standalone="no"?>
<!DOCTYPE svg PUBLIC "-//W3C//DTD SVG 1.1//EN"
 "http://www.w3.org/Graphics/SVG/1.1/DTD/svg11.dtd">
<!-- Generated by graphviz version 2.40.1 (20161225.0304)
 -->
<!-- Title: /mnt/hdd/C0de/smart_engine/src/state_machine.cpp Pages: 1 -->
<svg width="314pt" height="151pt"
 viewBox="0.00 0.00 313.50 151.00" xmlns="http://www.w3.org/2000/svg" xmlns:xlink="http://www.w3.org/1999/xlink">
<g id="graph0" class="graph" transform="scale(1 1) rotate(0) translate(4 147)">
<title>/mnt/hdd/C0de/smart_engine/src/state_machine.cpp</title>
<!-- Node0 -->
<g id="node1" class="node">
<title>Node0</title>
<polygon fill="#bfbfbf" stroke="#000000" points="92.5,-112.5 92.5,-142.5 244.5,-142.5 244.5,-112.5 92.5,-112.5"/>
<text text-anchor="start" x="100.5" y="-130.5" font-family="Helvetica,sans-Serif" font-size="10.00" fill="#000000">/mnt/hdd/C0de/smart</text>
<text text-anchor="middle" x="168.5" y="-119.5" font-family="Helvetica,sans-Serif" font-size="10.00" fill="#000000">_engine/src/state_machine.cpp</text>
</g>
<!-- Node1 -->
<g id="node2" class="node">
<title>Node1</title>
<g id="a_node2"><a xlink:href="state__machine_8h.html" target="_top" xlink:title="../include/state_machine.h">
<polygon fill="none" stroke="#000000" points="56,-56.5 56,-75.5 187,-75.5 187,-56.5 56,-56.5"/>
<text text-anchor="middle" x="121.5" y="-63.5" font-family="Helvetica,sans-Serif" font-size="10.00" fill="#000000">../include/state_machine.h</text>
</a>
</g>
</g>
<!-- Node0&#45;&gt;Node1 -->
<g id="edge1" class="edge">
<title>Node0&#45;&gt;Node1</title>
<path fill="none" stroke="#191970" d="M156.882,-112.2977C150.29,-103.672 142.0052,-92.8312 135.1099,-83.8087"/>
<polygon fill="#191970" stroke="#191970" points="137.8783,-81.6671 129.0253,-75.8469 132.3165,-85.9176 137.8783,-81.6671"/>
</g>
<!-- Node2 -->
<g id="node3" class="node">
<title>Node2</title>
<polygon fill="none" stroke="#bfbfbf" points="0,-.5 0,-19.5 43,-19.5 43,-.5 0,-.5"/>
<text text-anchor="middle" x="21.5" y="-7.5" font-family="Helvetica,sans-Serif" font-size="10.00" fill="#000000">cstdio</text>
</g>
<!-- Node0&#45;&gt;Node2 -->
<g id="edge6" class="edge">
<title>Node0&#45;&gt;Node2</title>
<path fill="none" stroke="#191970" d="M108.3869,-112.4746C86.9131,-104.5929 63.9805,-92.9337 47.5,-76 35.1796,-63.3408 28.5031,-44.1476 25.0138,-29.7166"/>
<polygon fill="#191970" stroke="#191970" points="28.4105,-28.8614 22.926,-19.7966 21.5606,-30.303 28.4105,-28.8614"/>
</g>
<!-- Node4 -->
<g id="node5" class="node">
<title>Node4</title>
<polygon fill="none" stroke="#bfbfbf" points="197,-.5 197,-19.5 238,-19.5 238,-.5 197,-.5"/>
<text text-anchor="middle" x="217.5" y="-7.5" font-family="Helvetica,sans-Serif" font-size="10.00" fill="#000000">stack</text>
</g>
<!-- Node0&#45;&gt;Node4 -->
<g id="edge7" class="edge">
<title>Node0&#45;&gt;Node4</title>
<path fill="none" stroke="#191970" d="M177.8722,-112.1063C183.7306,-102.0669 191.1515,-88.5446 196.5,-76 202.9844,-60.7911 208.5613,-42.8798 212.335,-29.5566"/>
<polygon fill="#191970" stroke="#191970" points="215.7948,-30.1737 215.061,-19.6043 209.0435,-28.3244 215.7948,-30.1737"/>
</g>
<!-- Node6 -->
<g id="node7" class="node">
<title>Node6</title>
<polygon fill="none" stroke="#bfbfbf" points="243.5,-56.5 243.5,-75.5 305.5,-75.5 305.5,-56.5 243.5,-56.5"/>
<text text-anchor="middle" x="274.5" y="-63.5" font-family="Helvetica,sans-Serif" font-size="10.00" fill="#000000">type_traits</text>
</g>
<!-- Node0&#45;&gt;Node6 -->
<g id="edge8" class="edge">
<title>Node0&#45;&gt;Node6</title>
<path fill="none" stroke="#191970" d="M194.4305,-112.4554C211.0309,-102.8241 232.4744,-90.3828 248.9917,-80.7996"/>
<polygon fill="#191970" stroke="#191970" points="251.1806,-83.5761 258.0738,-75.5303 247.6677,-77.5214 251.1806,-83.5761"/>
</g>
<!-- Node1&#45;&gt;Node2 -->
<g id="edge2" class="edge">
<title>Node1&#45;&gt;Node2</title>
<path fill="none" stroke="#191970" d="M104.0813,-56.2455C88.4515,-47.4928 65.2981,-34.527 47.4815,-24.5496"/>
<polygon fill="#191970" stroke="#191970" points="49.1543,-21.475 38.7191,-19.6427 45.734,-27.5825 49.1543,-21.475"/>
</g>
<!-- Node3 -->
<g id="node4" class="node">
<title>Node3</title>
<polygon fill="none" stroke="#bfbfbf" points="61.5,-.5 61.5,-19.5 113.5,-19.5 113.5,-.5 61.5,-.5"/>
<text text-anchor="middle" x="87.5" y="-7.5" font-family="Helvetica,sans-Serif" font-size="10.00" fill="#000000">memory</text>
</g>
<!-- Node1&#45;&gt;Node3 -->
<g id="edge3" class="edge">
<title>Node1&#45;&gt;Node3</title>
<path fill="none" stroke="#191970" d="M115.5777,-56.2455C110.8973,-48.5367 104.2327,-37.5598 98.5711,-28.2348"/>
<polygon fill="#191970" stroke="#191970" points="101.5361,-26.3741 93.3545,-19.6427 95.5525,-30.007 101.5361,-26.3741"/>
</g>
<!-- Node1&#45;&gt;Node4 -->
<g id="edge4" class="edge">
<title>Node1&#45;&gt;Node4</title>
<path fill="none" stroke="#191970" d="M138.2219,-56.2455C153.0889,-47.5731 175.0466,-34.7645 192.0858,-24.825"/>
<polygon fill="#191970" stroke="#191970" points="194.0955,-27.7047 200.9697,-19.6427 190.5683,-21.6582 194.0955,-27.7047"/>
</g>
<!-- Node5 -->
<g id="node6" class="node">
<title>Node5</title>
<g id="a_node6"><a xlink:href="state_8h.html" target="_top" xlink:title="state.h">
<polygon fill="none" stroke="#000000" points="132,-.5 132,-19.5 179,-19.5 179,-.5 132,-.5"/>
<text text-anchor="middle" x="155.5" y="-7.5" font-family="Helvetica,sans-Serif" font-size="10.00" fill="#000000">state.h</text>
</a>
</g>
</g>
<!-- Node1&#45;&gt;Node5 -->
<g id="edge5" class="edge">
<title>Node1&#45;&gt;Node5</title>
<path fill="none" stroke="#191970" d="M127.4223,-56.2455C132.1027,-48.5367 138.7673,-37.5598 144.4289,-28.2348"/>
<polygon fill="#191970" stroke="#191970" points="147.4475,-30.007 149.6455,-19.6427 141.4639,-26.3741 147.4475,-30.007"/>
</g>
</g>
</svg>
