<?xml version="1.0" encoding="UTF-8" standalone="no"?>
<!DOCTYPE svg PUBLIC "-//W3C//DTD SVG 1.1//EN"
 "http://www.w3.org/Graphics/SVG/1.1/DTD/svg11.dtd">
<!-- Generated by graphviz version 2.40.1 (20161225.0304)
 -->
<!-- Title: /mnt/hdd/C0de/smart_engine/include/state.h Pages: 1 -->
<svg width="716pt" height="340pt"
 viewBox="0.00 0.00 716.00 340.00" xmlns="http://www.w3.org/2000/svg" xmlns:xlink="http://www.w3.org/1999/xlink">
<g id="graph0" class="graph" transform="scale(1 1) rotate(0) translate(4 336)">
<title>/mnt/hdd/C0de/smart_engine/include/state.h</title>
<!-- Node1 -->
<g id="node1" class="node">
<title>Node1</title>
<polygon fill="#bfbfbf" stroke="#000000" points="264.5,-301.5 264.5,-331.5 381.5,-331.5 381.5,-301.5 264.5,-301.5"/>
<text text-anchor="start" x="272.5" y="-319.5" font-family="Helvetica,sans-Serif" font-size="10.00" fill="#000000">/mnt/hdd/C0de/smart</text>
<text text-anchor="middle" x="323" y="-308.5" font-family="Helvetica,sans-Serif" font-size="10.00" fill="#000000">_engine/include/state.h</text>
</g>
<!-- Node2 -->
<g id="node2" class="node">
<title>Node2</title>
<g id="a_node2"><a xlink:href="state__machine_8h.html" target="_top" xlink:title="/mnt/hdd/C0de/smart\l_engine/include/state\l_machine.h">
<polygon fill="none" stroke="#000000" points="268.5,-223.5 268.5,-264.5 377.5,-264.5 377.5,-223.5 268.5,-223.5"/>
<text text-anchor="start" x="276.5" y="-252.5" font-family="Helvetica,sans-Serif" font-size="10.00" fill="#000000">/mnt/hdd/C0de/smart</text>
<text text-anchor="start" x="276.5" y="-241.5" font-family="Helvetica,sans-Serif" font-size="10.00" fill="#000000">_engine/include/state</text>
<text text-anchor="middle" x="323" y="-230.5" font-family="Helvetica,sans-Serif" font-size="10.00" fill="#000000">_machine.h</text>
</a>
</g>
</g>
<!-- Node1&#45;&gt;Node2 -->
<g id="edge1" class="edge">
<title>Node1&#45;&gt;Node2</title>
<path fill="none" stroke="#191970" d="M323,-291.4016C323,-282.6173 323,-272.8652 323,-264.5015"/>
<polygon fill="#191970" stroke="#191970" points="319.5001,-291.4779 323,-301.478 326.5001,-291.478 319.5001,-291.4779"/>
</g>
<!-- Node4 -->
<g id="node4" class="node">
<title>Node4</title>
<g id="a_node4"><a xlink:href="game__over__state_8h.html" target="_top" xlink:title="/mnt/hdd/C0de/smart\l_engine/include/game\l_over_state.h">
<polygon fill="none" stroke="#000000" points="6.5,-78.5 6.5,-119.5 117.5,-119.5 117.5,-78.5 6.5,-78.5"/>
<text text-anchor="start" x="14.5" y="-107.5" font-family="Helvetica,sans-Serif" font-size="10.00" fill="#000000">/mnt/hdd/C0de/smart</text>
<text text-anchor="start" x="14.5" y="-96.5" font-family="Helvetica,sans-Serif" font-size="10.00" fill="#000000">_engine/include/game</text>
<text text-anchor="middle" x="62" y="-85.5" font-family="Helvetica,sans-Serif" font-size="10.00" fill="#000000">_over_state.h</text>
</a>
</g>
</g>
<!-- Node1&#45;&gt;Node4 -->
<g id="edge18" class="edge">
<title>Node1&#45;&gt;Node4</title>
<path fill="none" stroke="#191970" d="M254.6236,-300.515C230.1045,-292.5587 203.2857,-281.0987 182,-265 128.8201,-224.7791 89.1675,-154.4262 71.7546,-119.6561"/>
<polygon fill="#191970" stroke="#191970" points="253.6599,-303.8806 264.248,-303.5009 255.7341,-297.1949 253.6599,-303.8806"/>
</g>
<!-- Node7 -->
<g id="node7" class="node">
<title>Node7</title>
<g id="a_node7"><a xlink:href="game__play__state_8h.html" target="_top" xlink:title="/mnt/hdd/C0de/smart\l_engine/include/game\l_play_state.h">
<polygon fill="none" stroke="#000000" points="135.5,-78.5 135.5,-119.5 246.5,-119.5 246.5,-78.5 135.5,-78.5"/>
<text text-anchor="start" x="143.5" y="-107.5" font-family="Helvetica,sans-Serif" font-size="10.00" fill="#000000">/mnt/hdd/C0de/smart</text>
<text text-anchor="start" x="143.5" y="-96.5" font-family="Helvetica,sans-Serif" font-size="10.00" fill="#000000">_engine/include/game</text>
<text text-anchor="middle" x="191" y="-85.5" font-family="Helvetica,sans-Serif" font-size="10.00" fill="#000000">_play_state.h</text>
</a>
</g>
</g>
<!-- Node1&#45;&gt;Node7 -->
<g id="edge19" class="edge">
<title>Node1&#45;&gt;Node7</title>
<path fill="none" stroke="#191970" d="M280.679,-296.5758C241.4756,-275.5107 185.63,-238.221 161,-187 150.3677,-164.8889 162.9375,-138.0113 174.9051,-119.8224"/>
<polygon fill="#191970" stroke="#191970" points="279.279,-299.7933 289.7622,-301.328 282.5241,-293.591 279.279,-299.7933"/>
</g>
<!-- Node9 -->
<g id="node9" class="node">
<title>Node9</title>
<g id="a_node9"><a xlink:href="main__menu__state_8h.html" target="_top" xlink:title="/mnt/hdd/C0de/smart\l_engine/include/main\l_menu_state.h">
<polygon fill="none" stroke="#000000" points="431.5,-78.5 431.5,-119.5 540.5,-119.5 540.5,-78.5 431.5,-78.5"/>
<text text-anchor="start" x="439.5" y="-107.5" font-family="Helvetica,sans-Serif" font-size="10.00" fill="#000000">/mnt/hdd/C0de/smart</text>
<text text-anchor="start" x="439.5" y="-96.5" font-family="Helvetica,sans-Serif" font-size="10.00" fill="#000000">_engine/include/main</text>
<text text-anchor="middle" x="486" y="-85.5" font-family="Helvetica,sans-Serif" font-size="10.00" fill="#000000">_menu_state.h</text>
</a>
</g>
</g>
<!-- Node1&#45;&gt;Node9 -->
<g id="edge20" class="edge">
<title>Node1&#45;&gt;Node9</title>
<path fill="none" stroke="#191970" d="M357.8056,-295.8581C392.0471,-273.5661 442.8763,-234.7497 469,-187 480.5012,-165.9777 484.317,-138.4027 485.5318,-119.7661"/>
<polygon fill="#191970" stroke="#191970" points="355.6071,-293.1087 349.0529,-301.4329 359.3676,-299.0128 355.6071,-293.1087"/>
</g>
<!-- Node11 -->
<g id="node11" class="node">
<title>Node11</title>
<g id="a_node11"><a xlink:href="splash__state_8h.html" target="_top" xlink:title="/mnt/hdd/C0de/smart\l_engine/include/splash\l_state.h">
<polygon fill="none" stroke="#000000" points="559,-78.5 559,-119.5 675,-119.5 675,-78.5 559,-78.5"/>
<text text-anchor="start" x="567" y="-107.5" font-family="Helvetica,sans-Serif" font-size="10.00" fill="#000000">/mnt/hdd/C0de/smart</text>
<text text-anchor="start" x="567" y="-96.5" font-family="Helvetica,sans-Serif" font-size="10.00" fill="#000000">_engine/include/splash</text>
<text text-anchor="middle" x="617" y="-85.5" font-family="Helvetica,sans-Serif" font-size="10.00" fill="#000000">_state.h</text>
</a>
</g>
</g>
<!-- Node1&#45;&gt;Node11 -->
<g id="edge21" class="edge">
<title>Node1&#45;&gt;Node11</title>
<path fill="none" stroke="#191970" d="M373.4627,-297.5292C393.6651,-288.9225 416.6803,-277.7937 436,-265 502.1229,-221.2126 567.7096,-153.4235 598.6334,-119.6253"/>
<polygon fill="#191970" stroke="#191970" points="371.9892,-294.3513 364.1018,-301.4252 374.679,-300.814 371.9892,-294.3513"/>
</g>
<!-- Node3 -->
<g id="node3" class="node">
<title>Node3</title>
<g id="a_node3"><a xlink:href="game_8h.html" target="_top" xlink:title="/mnt/hdd/C0de/smart\l_engine/include/game.h">
<polygon fill="none" stroke="#000000" points="340.5,-156.5 340.5,-186.5 459.5,-186.5 459.5,-156.5 340.5,-156.5"/>
<text text-anchor="start" x="348.5" y="-174.5" font-family="Helvetica,sans-Serif" font-size="10.00" fill="#000000">/mnt/hdd/C0de/smart</text>
<text text-anchor="middle" x="400" y="-163.5" font-family="Helvetica,sans-Serif" font-size="10.00" fill="#000000">_engine/include/game.h</text>
</a>
</g>
</g>
<!-- Node2&#45;&gt;Node3 -->
<g id="edge2" class="edge">
<title>Node2&#45;&gt;Node3</title>
<path fill="none" stroke="#191970" d="M352.4315,-216.2885C363.1421,-206.2038 374.8456,-195.1843 383.9637,-186.5991"/>
<polygon fill="#191970" stroke="#191970" points="349.7405,-214.015 344.8591,-223.4183 354.5391,-219.1114 349.7405,-214.015"/>
</g>
<!-- Node14 -->
<g id="node14" class="node">
<title>Node14</title>
<g id="a_node14"><a xlink:href="state__machine_8cpp.html" target="_top" xlink:title="/mnt/hdd/C0de/smart\l_engine/src/state_machine.cpp">
<polygon fill="none" stroke="#000000" points="170,-156.5 170,-186.5 322,-186.5 322,-156.5 170,-156.5"/>
<text text-anchor="start" x="178" y="-174.5" font-family="Helvetica,sans-Serif" font-size="10.00" fill="#000000">/mnt/hdd/C0de/smart</text>
<text text-anchor="middle" x="246" y="-163.5" font-family="Helvetica,sans-Serif" font-size="10.00" fill="#000000">_engine/src/state_machine.cpp</text>
</a>
</g>
</g>
<!-- Node2&#45;&gt;Node14 -->
<g id="edge17" class="edge">
<title>Node2&#45;&gt;Node14</title>
<path fill="none" stroke="#191970" d="M293.5685,-216.2885C282.8579,-206.2038 271.1544,-195.1843 262.0363,-186.5991"/>
<polygon fill="#191970" stroke="#191970" points="291.4609,-219.1114 301.1409,-223.4183 296.2595,-214.015 291.4609,-219.1114"/>
</g>
<!-- Node3&#45;&gt;Node4 -->
<g id="edge3" class="edge">
<title>Node3&#45;&gt;Node4</title>
<path fill="none" stroke="#191970" d="M330.2117,-155.9158C238.5363,-138.1417 212.6658,-141.7095 126,-120 123.2776,-119.318 120.5031,-118.5794 117.7102,-117.8006"/>
<polygon fill="#191970" stroke="#191970" points="329.7093,-159.384 340.1976,-157.885 331.0637,-152.5163 329.7093,-159.384"/>
</g>
<!-- Node5 -->
<g id="node5" class="node">
<title>Node5</title>
<g id="a_node5"><a xlink:href="game_8cpp.html" target="_top" xlink:title="/mnt/hdd/C0de/smart\l_engine/src/game.cpp">
<polygon fill="none" stroke="#000000" points="294.5,-6 294.5,-36 407.5,-36 407.5,-6 294.5,-6"/>
<text text-anchor="start" x="302.5" y="-24" font-family="Helvetica,sans-Serif" font-size="10.00" fill="#000000">/mnt/hdd/C0de/smart</text>
<text text-anchor="middle" x="351" y="-13" font-family="Helvetica,sans-Serif" font-size="10.00" fill="#000000">_engine/src/game.cpp</text>
</a>
</g>
</g>
<!-- Node3&#45;&gt;Node5 -->
<g id="edge15" class="edge">
<title>Node3&#45;&gt;Node5</title>
<path fill="none" stroke="#191970" d="M398.1088,-146.1205C396.1002,-126.9528 392.0463,-100.2403 384,-78 378.5538,-62.9464 369.195,-47.3106 361.8318,-36.2314"/>
<polygon fill="#191970" stroke="#191970" points="394.6334,-146.5486 399.0483,-156.1798 401.6031,-145.8976 394.6334,-146.5486"/>
</g>
<!-- Node3&#45;&gt;Node7 -->
<g id="edge6" class="edge">
<title>Node3&#45;&gt;Node7</title>
<path fill="none" stroke="#191970" d="M347.0253,-153.1236C316.3259,-142.4743 277.7135,-129.08 246.5815,-118.2807"/>
<polygon fill="#191970" stroke="#191970" points="346.1003,-156.5073 356.6951,-156.478 348.3944,-149.8939 346.1003,-156.5073"/>
</g>
<!-- Node3&#45;&gt;Node9 -->
<g id="edge9" class="edge">
<title>Node3&#45;&gt;Node9</title>
<path fill="none" stroke="#191970" d="M425.7161,-149.8207C437.1123,-140.2135 450.4516,-128.9681 461.681,-119.5015"/>
<polygon fill="#191970" stroke="#191970" points="423.209,-147.3565 417.8193,-156.478 427.7209,-152.7084 423.209,-147.3565"/>
</g>
<!-- Node3&#45;&gt;Node11 -->
<g id="edge12" class="edge">
<title>Node3&#45;&gt;Node11</title>
<path fill="none" stroke="#191970" d="M454.5518,-153.2742C486.3665,-142.6448 526.4818,-129.2422 558.8881,-118.4153"/>
<polygon fill="#191970" stroke="#191970" points="453.3381,-149.9894 444.9625,-156.478 455.5563,-156.6287 453.3381,-149.9894"/>
</g>
<!-- Node13 -->
<g id="node13" class="node">
<title>Node13</title>
<g id="a_node13"><a xlink:href="main_8cpp.html" target="_top" xlink:title="/mnt/hdd/C0de/smart\l_engine/src/main.cpp">
<polygon fill="none" stroke="#000000" points="265,-84 265,-114 375,-114 375,-84 265,-84"/>
<text text-anchor="start" x="273" y="-102" font-family="Helvetica,sans-Serif" font-size="10.00" fill="#000000">/mnt/hdd/C0de/smart</text>
<text text-anchor="middle" x="320" y="-91" font-family="Helvetica,sans-Serif" font-size="10.00" fill="#000000">_engine/src/main.cpp</text>
</a>
</g>
</g>
<!-- Node3&#45;&gt;Node13 -->
<g id="edge16" class="edge">
<title>Node3&#45;&gt;Node13</title>
<path fill="none" stroke="#191970" d="M375.8984,-149.6579C363.1882,-138.1393 347.9201,-124.3026 336.5548,-114.0028"/>
<polygon fill="#191970" stroke="#191970" points="373.6637,-152.3562 383.4239,-156.478 378.3644,-147.1693 373.6637,-152.3562"/>
</g>
<!-- Node4&#45;&gt;Node5 -->
<g id="edge4" class="edge">
<title>Node4&#45;&gt;Node5</title>
<path fill="none" stroke="#191970" d="M127.6984,-77.5788C189.5118,-59.8369 250.9503,-44.5854 294.3036,-34.2177"/>
<polygon fill="#191970" stroke="#191970" points="126.4116,-74.3074 117.7773,-80.4473 128.3559,-81.032 126.4116,-74.3074"/>
</g>
<!-- Node6 -->
<g id="node6" class="node">
<title>Node6</title>
<g id="a_node6"><a xlink:href="game__over__state_8cpp.html" target="_top" xlink:title="/mnt/hdd/C0de/smart\l_engine/src/game_over\l_state.cpp">
<polygon fill="none" stroke="#000000" points="0,-.5 0,-41.5 118,-41.5 118,-.5 0,-.5"/>
<text text-anchor="start" x="8" y="-29.5" font-family="Helvetica,sans-Serif" font-size="10.00" fill="#000000">/mnt/hdd/C0de/smart</text>
<text text-anchor="start" x="8" y="-18.5" font-family="Helvetica,sans-Serif" font-size="10.00" fill="#000000">_engine/src/game_over</text>
<text text-anchor="middle" x="59" y="-7.5" font-family="Helvetica,sans-Serif" font-size="10.00" fill="#000000">_state.cpp</text>
</a>
</g>
</g>
<!-- Node4&#45;&gt;Node6 -->
<g id="edge5" class="edge">
<title>Node4&#45;&gt;Node6</title>
<path fill="none" stroke="#191970" d="M60.8107,-68.0789C60.4699,-59.2178 60.1067,-49.7747 59.7958,-41.6898"/>
<polygon fill="#191970" stroke="#191970" points="57.3142,-68.2394 61.1961,-78.0974 64.309,-67.9703 57.3142,-68.2394"/>
</g>
<!-- Node7&#45;&gt;Node5 -->
<g id="edge7" class="edge">
<title>Node7&#45;&gt;Node5</title>
<path fill="none" stroke="#191970" d="M242.6341,-73.8284C268.1491,-61.3898 298.0861,-46.7955 320.0215,-36.102"/>
<polygon fill="#191970" stroke="#191970" points="240.912,-70.7741 233.457,-78.3022 243.9795,-77.0662 240.912,-70.7741"/>
</g>
<!-- Node8 -->
<g id="node8" class="node">
<title>Node8</title>
<g id="a_node8"><a xlink:href="game__play__state_8cpp.html" target="_top" xlink:title="/mnt/hdd/C0de/smart\l_engine/src/game_play\l_state.cpp">
<polygon fill="none" stroke="#000000" points="136.5,-.5 136.5,-41.5 253.5,-41.5 253.5,-.5 136.5,-.5"/>
<text text-anchor="start" x="144.5" y="-29.5" font-family="Helvetica,sans-Serif" font-size="10.00" fill="#000000">/mnt/hdd/C0de/smart</text>
<text text-anchor="start" x="144.5" y="-18.5" font-family="Helvetica,sans-Serif" font-size="10.00" fill="#000000">_engine/src/game_play</text>
<text text-anchor="middle" x="195" y="-7.5" font-family="Helvetica,sans-Serif" font-size="10.00" fill="#000000">_state.cpp</text>
</a>
</g>
</g>
<!-- Node7&#45;&gt;Node8 -->
<g id="edge8" class="edge">
<title>Node7&#45;&gt;Node8</title>
<path fill="none" stroke="#191970" d="M192.5857,-68.0789C193.0401,-59.2178 193.5244,-49.7747 193.939,-41.6898"/>
<polygon fill="#191970" stroke="#191970" points="189.0888,-67.9313 192.0719,-78.0974 196.0796,-68.2898 189.0888,-67.9313"/>
</g>
<!-- Node9&#45;&gt;Node5 -->
<g id="edge10" class="edge">
<title>Node9&#45;&gt;Node5</title>
<path fill="none" stroke="#191970" d="M441.2972,-73.1717C420.0213,-60.879 395.3214,-46.6079 377.1381,-36.102"/>
<polygon fill="#191970" stroke="#191970" points="439.7673,-76.3299 450.1769,-78.3022 443.2692,-70.2689 439.7673,-76.3299"/>
</g>
<!-- Node10 -->
<g id="node10" class="node">
<title>Node10</title>
<g id="a_node10"><a xlink:href="main__menu__state_8cpp.html" target="_top" xlink:title="/mnt/hdd/C0de/smart\l_engine/src/main_menu\l_state.cpp">
<polygon fill="none" stroke="#000000" points="426,-.5 426,-41.5 546,-41.5 546,-.5 426,-.5"/>
<text text-anchor="start" x="434" y="-29.5" font-family="Helvetica,sans-Serif" font-size="10.00" fill="#000000">/mnt/hdd/C0de/smart</text>
<text text-anchor="start" x="434" y="-18.5" font-family="Helvetica,sans-Serif" font-size="10.00" fill="#000000">_engine/src/main_menu</text>
<text text-anchor="middle" x="486" y="-7.5" font-family="Helvetica,sans-Serif" font-size="10.00" fill="#000000">_state.cpp</text>
</a>
</g>
</g>
<!-- Node9&#45;&gt;Node10 -->
<g id="edge11" class="edge">
<title>Node9&#45;&gt;Node10</title>
<path fill="none" stroke="#191970" d="M486,-68.0789C486,-59.2178 486,-49.7747 486,-41.6898"/>
<polygon fill="#191970" stroke="#191970" points="482.5001,-68.0974 486,-78.0974 489.5001,-68.0975 482.5001,-68.0974"/>
</g>
<!-- Node11&#45;&gt;Node5 -->
<g id="edge13" class="edge">
<title>Node11&#45;&gt;Node5</title>
<path fill="none" stroke="#191970" d="M549.0125,-77.7668C489.5329,-60.6408 472.7641,-58.4101 417,-42 410.6556,-40.133 403.9909,-38.0989 397.4364,-36.0557"/>
<polygon fill="#191970" stroke="#191970" points="548.3585,-81.2214 558.9378,-80.6478 550.3099,-74.4989 548.3585,-81.2214"/>
</g>
<!-- Node12 -->
<g id="node12" class="node">
<title>Node12</title>
<g id="a_node12"><a xlink:href="splash__state_8cpp.html" target="_top" xlink:title="/mnt/hdd/C0de/smart\l_engine/src/splash_state.cpp">
<polygon fill="none" stroke="#000000" points="564,-6 564,-36 708,-36 708,-6 564,-6"/>
<text text-anchor="start" x="572" y="-24" font-family="Helvetica,sans-Serif" font-size="10.00" fill="#000000">/mnt/hdd/C0de/smart</text>
<text text-anchor="middle" x="636" y="-13" font-family="Helvetica,sans-Serif" font-size="10.00" fill="#000000">_engine/src/splash_state.cpp</text>
</a>
</g>
</g>
<!-- Node11&#45;&gt;Node12 -->
<g id="edge14" class="edge">
<title>Node11&#45;&gt;Node12</title>
<path fill="none" stroke="#191970" d="M624.4646,-68.3561C627.1463,-57.3467 630.0552,-45.4052 632.2809,-36.2679"/>
<polygon fill="#191970" stroke="#191970" points="621.0579,-67.5532 622.0917,-78.0974 627.859,-69.2099 621.0579,-67.5532"/>
</g>
</g>
</svg>
