<?xml version="1.0" encoding="UTF-8" standalone="no"?>
<!DOCTYPE svg PUBLIC "-//W3C//DTD SVG 1.1//EN"
 "http://www.w3.org/Graphics/SVG/1.1/DTD/svg11.dtd">
<!-- Generated by graphviz version 2.40.1 (20161225.0304)
 -->
<!-- Title: /mnt/hdd/C0de/smart_engine/include/stb_image.h Pages: 1 -->
<svg width="598pt" height="106pt"
 viewBox="0.00 0.00 597.50 106.00" xmlns="http://www.w3.org/2000/svg" xmlns:xlink="http://www.w3.org/1999/xlink">
<g id="graph0" class="graph" transform="scale(1 1) rotate(0) translate(4 102)">
<title>/mnt/hdd/C0de/smart_engine/include/stb_image.h</title>
<!-- Node0 -->
<g id="node1" class="node">
<title>Node0</title>
<polygon fill="#bfbfbf" stroke="#000000" points="240.5,-56.5 240.5,-97.5 349.5,-97.5 349.5,-56.5 240.5,-56.5"/>
<text text-anchor="start" x="248.5" y="-85.5" font-family="Helvetica,sans-Serif" font-size="10.00" fill="#000000">/mnt/hdd/C0de/smart</text>
<text text-anchor="start" x="248.5" y="-74.5" font-family="Helvetica,sans-Serif" font-size="10.00" fill="#000000">_engine/include/stb</text>
<text text-anchor="middle" x="295" y="-63.5" font-family="Helvetica,sans-Serif" font-size="10.00" fill="#000000">_image.h</text>
</g>
<!-- Node1 -->
<g id="node2" class="node">
<title>Node1</title>
<polygon fill="none" stroke="#bfbfbf" points="0,-.5 0,-19.5 46,-19.5 46,-.5 0,-.5"/>
<text text-anchor="middle" x="23" y="-7.5" font-family="Helvetica,sans-Serif" font-size="10.00" fill="#000000">stdio.h</text>
</g>
<!-- Node0&#45;&gt;Node1 -->
<g id="edge1" class="edge">
<title>Node0&#45;&gt;Node1</title>
<path fill="none" stroke="#191970" d="M240.3938,-65.1707C193.7627,-54.8109 124.7274,-38.8652 55.7463,-20.0731"/>
<polygon fill="#191970" stroke="#191970" points="56.5852,-16.674 46.0154,-17.4028 54.7327,-23.4244 56.5852,-16.674"/>
</g>
<!-- Node2 -->
<g id="node3" class="node">
<title>Node2</title>
<polygon fill="none" stroke="#bfbfbf" points="64,-.5 64,-19.5 112,-19.5 112,-.5 64,-.5"/>
<text text-anchor="middle" x="88" y="-7.5" font-family="Helvetica,sans-Serif" font-size="10.00" fill="#000000">stdlib.h</text>
</g>
<!-- Node0&#45;&gt;Node2 -->
<g id="edge2" class="edge">
<title>Node0&#45;&gt;Node2</title>
<path fill="none" stroke="#191970" d="M240.3424,-59.3089C202.7292,-47.1346 153.9494,-31.346 121.8485,-20.9558"/>
<polygon fill="#191970" stroke="#191970" points="122.6394,-17.5331 112.0475,-17.7835 120.4838,-24.1929 122.6394,-17.5331"/>
</g>
<!-- Node3 -->
<g id="node4" class="node">
<title>Node3</title>
<polygon fill="none" stroke="#bfbfbf" points="130,-.5 130,-19.5 182,-19.5 182,-.5 130,-.5"/>
<text text-anchor="middle" x="156" y="-7.5" font-family="Helvetica,sans-Serif" font-size="10.00" fill="#000000">stdarg.h</text>
</g>
<!-- Node0&#45;&gt;Node3 -->
<g id="edge3" class="edge">
<title>Node0&#45;&gt;Node3</title>
<path fill="none" stroke="#191970" d="M252.1612,-56.3511C230.4611,-45.8913 204.6736,-33.4614 185.2683,-24.1077"/>
<polygon fill="#191970" stroke="#191970" points="186.5577,-20.8439 176.0298,-19.6546 183.5182,-27.1496 186.5577,-20.8439"/>
</g>
<!-- Node4 -->
<g id="node5" class="node">
<title>Node4</title>
<polygon fill="none" stroke="#bfbfbf" points="200,-.5 200,-19.5 252,-19.5 252,-.5 200,-.5"/>
<text text-anchor="middle" x="226" y="-7.5" font-family="Helvetica,sans-Serif" font-size="10.00" fill="#000000">stddef.h</text>
</g>
<!-- Node0&#45;&gt;Node4 -->
<g id="edge4" class="edge">
<title>Node0&#45;&gt;Node4</title>
<path fill="none" stroke="#191970" d="M273.5462,-56.168C263.8773,-46.7794 252.6051,-35.834 243.4636,-26.9574"/>
<polygon fill="#191970" stroke="#191970" points="245.685,-24.2358 236.0724,-19.7805 240.8085,-29.2578 245.685,-24.2358"/>
</g>
<!-- Node5 -->
<g id="node6" class="node">
<title>Node5</title>
<polygon fill="none" stroke="#bfbfbf" points="270.5,-.5 270.5,-19.5 319.5,-19.5 319.5,-.5 270.5,-.5"/>
<text text-anchor="middle" x="295" y="-7.5" font-family="Helvetica,sans-Serif" font-size="10.00" fill="#000000">string.h</text>
</g>
<!-- Node0&#45;&gt;Node5 -->
<g id="edge5" class="edge">
<title>Node0&#45;&gt;Node5</title>
<path fill="none" stroke="#191970" d="M295,-56.168C295,-47.8226 295,-38.2471 295,-29.9879"/>
<polygon fill="#191970" stroke="#191970" points="298.5001,-29.7804 295,-19.7805 291.5001,-29.7805 298.5001,-29.7804"/>
</g>
<!-- Node6 -->
<g id="node7" class="node">
<title>Node6</title>
<polygon fill="none" stroke="#bfbfbf" points="338,-.5 338,-19.5 386,-19.5 386,-.5 338,-.5"/>
<text text-anchor="middle" x="362" y="-7.5" font-family="Helvetica,sans-Serif" font-size="10.00" fill="#000000">limits.h</text>
</g>
<!-- Node0&#45;&gt;Node6 -->
<g id="edge6" class="edge">
<title>Node0&#45;&gt;Node6</title>
<path fill="none" stroke="#191970" d="M315.832,-56.168C325.2206,-46.7794 336.166,-35.834 345.0426,-26.9574"/>
<polygon fill="#191970" stroke="#191970" points="347.6233,-29.3265 352.2195,-19.7805 342.6735,-24.3767 347.6233,-29.3265"/>
</g>
<!-- Node7 -->
<g id="node8" class="node">
<title>Node7</title>
<polygon fill="none" stroke="#bfbfbf" points="404.5,-.5 404.5,-19.5 451.5,-19.5 451.5,-.5 404.5,-.5"/>
<text text-anchor="middle" x="428" y="-7.5" font-family="Helvetica,sans-Serif" font-size="10.00" fill="#000000">math.h</text>
</g>
<!-- Node0&#45;&gt;Node7 -->
<g id="edge7" class="edge">
<title>Node0&#45;&gt;Node7</title>
<path fill="none" stroke="#191970" d="M335.9896,-56.3511C356.6583,-45.9391 381.2022,-33.5748 399.7403,-24.2361"/>
<polygon fill="#191970" stroke="#191970" points="401.4787,-27.2795 408.8348,-19.6546 398.3294,-21.0279 401.4787,-27.2795"/>
</g>
<!-- Node8 -->
<g id="node9" class="node">
<title>Node8</title>
<polygon fill="none" stroke="#bfbfbf" points="470,-.5 470,-19.5 522,-19.5 522,-.5 470,-.5"/>
<text text-anchor="middle" x="496" y="-7.5" font-family="Helvetica,sans-Serif" font-size="10.00" fill="#000000">assert.h</text>
</g>
<!-- Node0&#45;&gt;Node8 -->
<g id="edge8" class="edge">
<title>Node0&#45;&gt;Node8</title>
<path fill="none" stroke="#191970" d="M349.6586,-58.7805C384.7516,-47.0828 429.3353,-32.2216 460.019,-21.9937"/>
<polygon fill="#191970" stroke="#191970" points="461.478,-25.1967 469.8581,-18.714 459.2644,-18.5559 461.478,-25.1967"/>
</g>
<!-- Node9 -->
<g id="node10" class="node">
<title>Node9</title>
<polygon fill="none" stroke="#bfbfbf" points="540.5,-.5 540.5,-19.5 589.5,-19.5 589.5,-.5 540.5,-.5"/>
<text text-anchor="middle" x="565" y="-7.5" font-family="Helvetica,sans-Serif" font-size="10.00" fill="#000000">stdint.h</text>
</g>
<!-- Node0&#45;&gt;Node9 -->
<g id="edge9" class="edge">
<title>Node0&#45;&gt;Node9</title>
<path fill="none" stroke="#191970" d="M349.5586,-64.6232C395.2671,-54.0725 462.4499,-38.1445 530.1651,-20.1318"/>
<polygon fill="#191970" stroke="#191970" points="531.4011,-23.4244 540.1573,-17.4595 529.5925,-16.662 531.4011,-23.4244"/>
</g>
</g>
</svg>
