<?xml version="1.0" encoding="UTF-8" standalone="no"?>
<!DOCTYPE svg PUBLIC "-//W3C//DTD SVG 1.1//EN"
 "http://www.w3.org/Graphics/SVG/1.1/DTD/svg11.dtd">
<!-- Generated by graphviz version 2.40.1 (20161225.0304)
 -->
<!-- Title: /mnt/hdd/C0de/smart_engine/include/text_renderer.h Pages: 1 -->
<!--zoomable 128 -->
<svg id="main" version="1.1" xmlns="http://www.w3.org/2000/svg" xmlns:xlink="http://www.w3.org/1999/xlink" xml:space="preserve" onload="init(evt)">
<style type="text/css"><![CDATA[
.edge:hover path { stroke: red; }
.edge:hover polygon { stroke: red; fill: red; }
]]></style>
<script type="text/javascript"><![CDATA[
var edges = document.getElementsByTagName('g');
if (edges && edges.length) {
  for (var i=0;i<edges.length;i++) {
    if (edges[i].id.substr(0,4)=='edge') {
      edges[i].setAttribute('class','edge');
    }
  }
}
]]></script>
        <defs>
                <circle id="rim" cx="0" cy="0" r="7"/>
                <circle id="rim2" cx="0" cy="0" r="3.5"/>
                <g id="zoomPlus">
                        <use xlink:href="#rim" fill="#404040">
                                <set attributeName="fill" to="#808080" begin="zoomplus.mouseover" end="zoomplus.mouseout"/>
                        </use>
                        <path d="M-4,0h8M0,-4v8" fill="none" stroke="white" stroke-width="1.5" pointer-events="none"/>
                </g>
                <g id="zoomMin">
                        <use xlink:href="#rim" fill="#404040">
                                <set attributeName="fill" to="#808080" begin="zoomminus.mouseover" end="zoomminus.mouseout"/>
                        </use>
                        <path d="M-4,0h8" fill="none" stroke="white" stroke-width="1.5" pointer-events="none"/>
                </g>
                <g id="dirArrow">
                        <path fill="none" stroke="white" stroke-width="1.5" d="M0,-3.0v7 M-2.5,-0.5L0,-3.0L2.5,-0.5"/>
                </g>
               <g id="resetDef">
                       <use xlink:href="#rim2" fill="#404040">
                               <set attributeName="fill" to="#808080" begin="reset.mouseover" end="reset.mouseout"/>
                       </use>
               </g>
        </defs>

<script type="text/javascript">
var viewWidth = 858;
var viewHeight = 128;
var sectionId = 'dynsection-1';
</script>
<script xlink:href="svgpan.js"/>
<svg id="graph" class="graph">
<g id="viewport">
<title>/mnt/hdd/C0de/smart_engine/include/text_renderer.h</title>
<!-- Node10 -->
<g id="node1" class="node">
<title>Node10</title>
<polygon fill="#bfbfbf" stroke="#000000" points="340,-78.5 340,-119.5 449,-119.5 449,-78.5 340,-78.5"/>
<text text-anchor="start" x="348" y="-107.5" font-family="Helvetica,sans-Serif" font-size="10.00" fill="#000000">/mnt/hdd/C0de/smart</text>
<text text-anchor="start" x="348" y="-96.5" font-family="Helvetica,sans-Serif" font-size="10.00" fill="#000000">_engine/include/text</text>
<text text-anchor="middle" x="394.5" y="-85.5" font-family="Helvetica,sans-Serif" font-size="10.00" fill="#000000">_renderer.h</text>
</g>
<!-- Node11 -->
<g id="node2" class="node">
<title>Node11</title>
<g id="a_node2"><a xlink:href="game_8cpp.html" target="_top" xlink:title="/mnt/hdd/C0de/smart\l_engine/src/game.cpp">
<polygon fill="none" stroke="#000000" points="0,-6 0,-36 113,-36 113,-6 0,-6"/>
<text text-anchor="start" x="8" y="-24" font-family="Helvetica,sans-Serif" font-size="10.00" fill="#000000">/mnt/hdd/C0de/smart</text>
<text text-anchor="middle" x="56.5" y="-13" font-family="Helvetica,sans-Serif" font-size="10.00" fill="#000000">_engine/src/game.cpp</text>
</a>
</g>
</g>
<!-- Node10&#45;&gt;Node11 -->
<g id="edge1" class="edge">
<title>Node10&#45;&gt;Node11</title>
<path fill="none" stroke="#191970" d="M329.9066,-87.3781C274.5218,-76.9579 192.7809,-60.494 122.5,-42 115.7555,-40.2252 108.6792,-38.1767 101.7678,-36.0696"/>
<polygon fill="#191970" stroke="#191970" points="329.4598,-90.8552 339.9327,-89.2526 330.7462,-83.9744 329.4598,-90.8552"/>
</g>
<!-- Node12 -->
<g id="node3" class="node">
<title>Node12</title>
<g id="a_node3"><a xlink:href="game__over__state_8cpp.html" target="_top" xlink:title="/mnt/hdd/C0de/smart\l_engine/src/game_over\l_state.cpp">
<polygon fill="none" stroke="#000000" points="131.5,-.5 131.5,-41.5 249.5,-41.5 249.5,-.5 131.5,-.5"/>
<text text-anchor="start" x="139.5" y="-29.5" font-family="Helvetica,sans-Serif" font-size="10.00" fill="#000000">/mnt/hdd/C0de/smart</text>
<text text-anchor="start" x="139.5" y="-18.5" font-family="Helvetica,sans-Serif" font-size="10.00" fill="#000000">_engine/src/game_over</text>
<text text-anchor="middle" x="190.5" y="-7.5" font-family="Helvetica,sans-Serif" font-size="10.00" fill="#000000">_state.cpp</text>
</a>
</g>
</g>
<!-- Node10&#45;&gt;Node12 -->
<g id="edge2" class="edge">
<title>Node10&#45;&gt;Node12</title>
<path fill="none" stroke="#191970" d="M331.0024,-74.7215C303.1962,-64.0897 270.9159,-51.7473 244.3133,-41.5757"/>
<polygon fill="#191970" stroke="#191970" points="330.044,-78.1021 340.6346,-78.4044 332.544,-71.5638 330.044,-78.1021"/>
</g>
<!-- Node13 -->
<g id="node4" class="node">
<title>Node13</title>
<g id="a_node4"><a xlink:href="game__play__state_8cpp.html" target="_top" xlink:title="/mnt/hdd/C0de/smart\l_engine/src/game_play\l_state.cpp">
<polygon fill="none" stroke="#000000" points="268,-.5 268,-41.5 385,-41.5 385,-.5 268,-.5"/>
<text text-anchor="start" x="276" y="-29.5" font-family="Helvetica,sans-Serif" font-size="10.00" fill="#000000">/mnt/hdd/C0de/smart</text>
<text text-anchor="start" x="276" y="-18.5" font-family="Helvetica,sans-Serif" font-size="10.00" fill="#000000">_engine/src/game_play</text>
<text text-anchor="middle" x="326.5" y="-7.5" font-family="Helvetica,sans-Serif" font-size="10.00" fill="#000000">_state.cpp</text>
</a>
</g>
</g>
<!-- Node10&#45;&gt;Node13 -->
<g id="edge3" class="edge">
<title>Node10&#45;&gt;Node13</title>
<path fill="none" stroke="#191970" d="M369.5457,-70.376C361.2587,-60.8703 352.1986,-50.4778 344.5373,-41.6898"/>
<polygon fill="#191970" stroke="#191970" points="367.0676,-72.8597 376.2772,-78.0974 372.3441,-68.2597 367.0676,-72.8597"/>
</g>
<!-- Node14 -->
<g id="node5" class="node">
<title>Node14</title>
<g id="a_node5"><a xlink:href="main__menu__state_8cpp.html" target="_top" xlink:title="/mnt/hdd/C0de/smart\l_engine/src/main_menu\l_state.cpp">
<polygon fill="none" stroke="#000000" points="403.5,-.5 403.5,-41.5 523.5,-41.5 523.5,-.5 403.5,-.5"/>
<text text-anchor="start" x="411.5" y="-29.5" font-family="Helvetica,sans-Serif" font-size="10.00" fill="#000000">/mnt/hdd/C0de/smart</text>
<text text-anchor="start" x="411.5" y="-18.5" font-family="Helvetica,sans-Serif" font-size="10.00" fill="#000000">_engine/src/main_menu</text>
<text text-anchor="middle" x="463.5" y="-7.5" font-family="Helvetica,sans-Serif" font-size="10.00" fill="#000000">_state.cpp</text>
</a>
</g>
</g>
<!-- Node10&#45;&gt;Node14 -->
<g id="edge4" class="edge">
<title>Node10&#45;&gt;Node14</title>
<path fill="none" stroke="#191970" d="M419.8213,-70.376C428.2301,-60.8703 437.4235,-50.4778 445.1975,-41.6898"/>
<polygon fill="#191970" stroke="#191970" points="416.995,-68.2884 412.9907,-78.0974 422.238,-72.9265 416.995,-68.2884"/>
</g>
<!-- Node15 -->
<g id="node6" class="node">
<title>Node15</title>
<g id="a_node6"><a xlink:href="splash__state_8cpp.html" target="_top" xlink:title="/mnt/hdd/C0de/smart\l_engine/src/splash_state.cpp">
<polygon fill="none" stroke="#000000" points="541.5,-6 541.5,-36 685.5,-36 685.5,-6 541.5,-6"/>
<text text-anchor="start" x="549.5" y="-24" font-family="Helvetica,sans-Serif" font-size="10.00" fill="#000000">/mnt/hdd/C0de/smart</text>
<text text-anchor="middle" x="613.5" y="-13" font-family="Helvetica,sans-Serif" font-size="10.00" fill="#000000">_engine/src/splash_state.cpp</text>
</a>
</g>
</g>
<!-- Node10&#45;&gt;Node15 -->
<g id="edge5" class="edge">
<title>Node10&#45;&gt;Node15</title>
<path fill="none" stroke="#191970" d="M458.7109,-76.1304C494.9686,-63.2167 539.2681,-47.4388 571.1712,-36.076"/>
<polygon fill="#191970" stroke="#191970" points="457.444,-72.8661 449.198,-79.5185 459.7927,-79.4604 457.444,-72.8661"/>
</g>
<!-- Node16 -->
<g id="node7" class="node">
<title>Node16</title>
<g id="a_node7"><a xlink:href="text__renderer_8cpp.html" target="_top" xlink:title="/mnt/hdd/C0de/smart\l_engine/src/text_renderer.cpp">
<polygon fill="none" stroke="#000000" points="703.5,-6 703.5,-36 849.5,-36 849.5,-6 703.5,-6"/>
<text text-anchor="start" x="711.5" y="-24" font-family="Helvetica,sans-Serif" font-size="10.00" fill="#000000">/mnt/hdd/C0de/smart</text>
<text text-anchor="middle" x="776.5" y="-13" font-family="Helvetica,sans-Serif" font-size="10.00" fill="#000000">_engine/src/text_renderer.cpp</text>
</a>
</g>
</g>
<!-- Node10&#45;&gt;Node16 -->
<g id="edge6" class="edge">
<title>Node10&#45;&gt;Node16</title>
<path fill="none" stroke="#191970" d="M459.0412,-87.9488C519.9585,-77.232 613.7439,-59.9938 694.5,-42 702.676,-40.1783 711.2763,-38.1267 719.7067,-36.0379"/>
<polygon fill="#191970" stroke="#191970" points="458.4265,-84.5031 449.1809,-89.677 459.635,-91.398 458.4265,-84.5031"/>
</g>
</g>
</svg>
        <g id="navigator" transform="translate(0 0)" fill="#404254">
                <rect fill="#f2f5e9" fill-opacity="0.5" stroke="#606060" stroke-width=".5" x="0" y="0" width="60" height="60"/>
                <use id="zoomplus" xlink:href="#zoomPlus" x="17" y="9" onmousedown="handleZoom(evt,'in')"/>
                <use id="zoomminus" xlink:href="#zoomMin" x="42" y="9" onmousedown="handleZoom(evt,'out')"/>
                <use id="reset" xlink:href="#resetDef" x="30" y="36" onmousedown="handleReset()"/>
                <g id="arrowUp" xlink:href="#dirArrow" transform="translate(30 24)" onmousedown="handlePan(0,-1)">
                  <use xlink:href="#rim" fill="#404040">
                        <set attributeName="fill" to="#808080" begin="arrowUp.mouseover" end="arrowUp.mouseout"/>
                  </use>
                  <path fill="none" stroke="white" stroke-width="1.5" d="M0,-3.0v7 M-2.5,-0.5L0,-3.0L2.5,-0.5"/>
                </g>
                <g id="arrowRight" xlink:href="#dirArrow" transform="rotate(90) translate(36 -43)" onmousedown="handlePan(1,0)">
                  <use xlink:href="#rim" fill="#404040">
                        <set attributeName="fill" to="#808080" begin="arrowRight.mouseover" end="arrowRight.mouseout"/>
                  </use>
                  <path fill="none" stroke="white" stroke-width="1.5" d="M0,-3.0v7 M-2.5,-0.5L0,-3.0L2.5,-0.5"/>
                </g>
                <g id="arrowDown" xlink:href="#dirArrow" transform="rotate(180) translate(-30 -48)" onmousedown="handlePan(0,1)">
                  <use xlink:href="#rim" fill="#404040">
                        <set attributeName="fill" to="#808080" begin="arrowDown.mouseover" end="arrowDown.mouseout"/>
                  </use>
                  <path fill="none" stroke="white" stroke-width="1.5" d="M0,-3.0v7 M-2.5,-0.5L0,-3.0L2.5,-0.5"/>
                </g>
                <g id="arrowLeft" xlink:href="#dirArrow" transform="rotate(270) translate(-36 17)" onmousedown="handlePan(-1,0)">
                  <use xlink:href="#rim" fill="#404040">
                        <set attributeName="fill" to="#808080" begin="arrowLeft.mouseover" end="arrowLeft.mouseout"/>
                  </use>
                  <path fill="none" stroke="white" stroke-width="1.5" d="M0,-3.0v7 M-2.5,-0.5L0,-3.0L2.5,-0.5"/>
                </g>
        </g>
        <svg viewBox="0 0 15 15" width="100%" height="30px" preserveAspectRatio="xMaxYMin meet">
         <g id="arrow_out" transform="scale(0.3 0.3)">
          <a xlink:href="text__renderer_8h__dep__incl_org.svg" target="_base">
           <rect id="button" ry="5" rx="5" y="6" x="6" height="38" width="38"
                fill="#f2f5e9" fill-opacity="0.5" stroke="#606060" stroke-width="1.0"/>
           <path id="arrow"
             d="M 11.500037,31.436501 C 11.940474,20.09759 22.043105,11.32322 32.158766,21.979434 L 37.068811,17.246167 C 37.068811,17.246167 37.088388,32 37.088388,32 L 22.160133,31.978069 C 22.160133,31.978069 26.997745,27.140456 26.997745,27.140456 C 18.528582,18.264221 13.291696,25.230495 11.500037,31.436501 z"
             style="fill:#404040;"/>
          </a>
         </g>
        </svg>
</svg>
