<?xml version="1.0" encoding="UTF-8" standalone="no"?>
<!DOCTYPE svg PUBLIC "-//W3C//DTD SVG 1.1//EN"
 "http://www.w3.org/Graphics/SVG/1.1/DTD/svg11.dtd">
<!-- Generated by graphviz version 2.40.1 (20161225.0304)
 -->
<!-- Title: /mnt/hdd/C0de/smart_engine/src/text_renderer.cpp Pages: 1 -->
<svg width="489pt" height="218pt"
 viewBox="0.00 0.00 488.50 218.00" xmlns="http://www.w3.org/2000/svg" xmlns:xlink="http://www.w3.org/1999/xlink">
<g id="graph0" class="graph" transform="scale(1 1) rotate(0) translate(4 214)">
<title>/mnt/hdd/C0de/smart_engine/src/text_renderer.cpp</title>
<!-- Node0 -->
<g id="node1" class="node">
<title>Node0</title>
<polygon fill="#bfbfbf" stroke="#000000" points="148.5,-179.5 148.5,-209.5 294.5,-209.5 294.5,-179.5 148.5,-179.5"/>
<text text-anchor="start" x="156.5" y="-197.5" font-family="Helvetica,sans-Serif" font-size="10.00" fill="#000000">/mnt/hdd/C0de/smart</text>
<text text-anchor="middle" x="221.5" y="-186.5" font-family="Helvetica,sans-Serif" font-size="10.00" fill="#000000">_engine/src/text_renderer.cpp</text>
</g>
<!-- Node1 -->
<g id="node2" class="node">
<title>Node1</title>
<g id="a_node2"><a xlink:href="text__renderer_8h.html" target="_top" xlink:title="../include/text_renderer.h">
<polygon fill="none" stroke="#000000" points="224,-118 224,-137 349,-137 349,-118 224,-118"/>
<text text-anchor="middle" x="286.5" y="-125" font-family="Helvetica,sans-Serif" font-size="10.00" fill="#000000">../include/text_renderer.h</text>
</a>
</g>
</g>
<!-- Node0&#45;&gt;Node1 -->
<g id="edge1" class="edge">
<title>Node0&#45;&gt;Node1</title>
<path fill="none" stroke="#191970" d="M236.2495,-179.2967C246.3768,-168.8578 259.8212,-154.9997 270.2552,-144.2446"/>
<polygon fill="#191970" stroke="#191970" points="272.7792,-146.6695 277.2303,-137.055 267.755,-141.7953 272.7792,-146.6695"/>
</g>
<!-- Node11 -->
<g id="node12" class="node">
<title>Node11</title>
<g id="a_node12"><a xlink:href="resource__manager_8h.html" target="_top" xlink:title="../include/resource\l_manager.h">
<polygon fill="none" stroke="#000000" points="109,-112.5 109,-142.5 206,-142.5 206,-112.5 109,-112.5"/>
<text text-anchor="start" x="117" y="-130.5" font-family="Helvetica,sans-Serif" font-size="10.00" fill="#000000">../include/resource</text>
<text text-anchor="middle" x="157.5" y="-119.5" font-family="Helvetica,sans-Serif" font-size="10.00" fill="#000000">_manager.h</text>
</a>
</g>
</g>
<!-- Node0&#45;&gt;Node11 -->
<g id="edge14" class="edge">
<title>Node0&#45;&gt;Node11</title>
<path fill="none" stroke="#191970" d="M206.9774,-179.2967C198.7128,-170.6446 188.2045,-159.6438 178.9998,-150.0076"/>
<polygon fill="#191970" stroke="#191970" points="181.4034,-147.4567 171.9651,-142.6432 176.3416,-152.2919 181.4034,-147.4567"/>
</g>
<!-- Node2 -->
<g id="node3" class="node">
<title>Node2</title>
<polygon fill="none" stroke="#bfbfbf" points="223,-56.5 223,-75.5 258,-75.5 258,-56.5 223,-56.5"/>
<text text-anchor="middle" x="240.5" y="-63.5" font-family="Helvetica,sans-Serif" font-size="10.00" fill="#000000">map</text>
</g>
<!-- Node1&#45;&gt;Node2 -->
<g id="edge2" class="edge">
<title>Node1&#45;&gt;Node2</title>
<path fill="none" stroke="#191970" d="M279.3125,-117.8906C272.5334,-108.8273 262.2022,-95.0149 253.9027,-83.9188"/>
<polygon fill="#191970" stroke="#191970" points="256.5812,-81.6563 247.7888,-75.7449 250.9757,-85.849 256.5812,-81.6563"/>
</g>
<!-- Node3 -->
<g id="node4" class="node">
<title>Node3</title>
<polygon fill="none" stroke="#bfbfbf" points="183.5,-.5 183.5,-19.5 247.5,-19.5 247.5,-.5 183.5,-.5"/>
<text text-anchor="middle" x="215.5" y="-7.5" font-family="Helvetica,sans-Serif" font-size="10.00" fill="#000000">glad/glad.h</text>
</g>
<!-- Node1&#45;&gt;Node3 -->
<g id="edge3" class="edge">
<title>Node1&#45;&gt;Node3</title>
<path fill="none" stroke="#191970" d="M285.4902,-117.551C283.6447,-103.0579 278.7224,-75.721 266.5,-56 259.2372,-44.2813 248.1312,-33.7645 238.1352,-25.7545"/>
<polygon fill="#191970" stroke="#191970" points="240.1853,-22.9164 230.1084,-19.6443 235.9454,-28.4863 240.1853,-22.9164"/>
</g>
<!-- Node4 -->
<g id="node5" class="node">
<title>Node4</title>
<polygon fill="none" stroke="#bfbfbf" points="281.5,-.5 281.5,-19.5 351.5,-19.5 351.5,-.5 281.5,-.5"/>
<text text-anchor="middle" x="316.5" y="-7.5" font-family="Helvetica,sans-Serif" font-size="10.00" fill="#000000">glm/glm.hpp</text>
</g>
<!-- Node1&#45;&gt;Node4 -->
<g id="edge4" class="edge">
<title>Node1&#45;&gt;Node4</title>
<path fill="none" stroke="#191970" d="M289.2649,-117.6485C292.1491,-107.2991 296.7627,-90.5373 300.5,-76 304.4906,-60.4774 308.7546,-42.8302 311.8764,-29.6915"/>
<polygon fill="#191970" stroke="#191970" points="315.3058,-30.398 314.1991,-19.8611 308.4934,-28.7883 315.3058,-30.398"/>
</g>
<!-- Node5 -->
<g id="node6" class="node">
<title>Node5</title>
<polygon fill="none" stroke="#bfbfbf" points="352.5,-56.5 352.5,-75.5 406.5,-75.5 406.5,-56.5 352.5,-56.5"/>
<text text-anchor="middle" x="379.5" y="-63.5" font-family="Helvetica,sans-Serif" font-size="10.00" fill="#000000">iostream</text>
</g>
<!-- Node1&#45;&gt;Node5 -->
<g id="edge5" class="edge">
<title>Node1&#45;&gt;Node5</title>
<path fill="none" stroke="#191970" d="M301.0313,-117.8906C315.9094,-108.0519 339.2504,-92.6167 356.6128,-81.1351"/>
<polygon fill="#191970" stroke="#191970" points="358.6602,-83.9773 365.0708,-75.5419 354.799,-78.1385 358.6602,-83.9773"/>
</g>
<!-- Node6 -->
<g id="node7" class="node">
<title>Node6</title>
<polygon fill="none" stroke="#bfbfbf" points="424.5,-56.5 424.5,-75.5 480.5,-75.5 480.5,-56.5 424.5,-56.5"/>
<text text-anchor="middle" x="452.5" y="-63.5" font-family="Helvetica,sans-Serif" font-size="10.00" fill="#000000">ft2build.h</text>
</g>
<!-- Node1&#45;&gt;Node6 -->
<g id="edge6" class="edge">
<title>Node1&#45;&gt;Node6</title>
<path fill="none" stroke="#191970" d="M312.4375,-117.8906C340.5778,-107.4652 385.6793,-90.7559 417.0726,-79.1252"/>
<polygon fill="#191970" stroke="#191970" points="418.5834,-82.298 426.7446,-75.5419 416.1515,-75.734 418.5834,-82.298"/>
</g>
<!-- Node7 -->
<g id="node8" class="node">
<title>Node7</title>
<g id="a_node8"><a xlink:href="texture_8h.html" target="_top" xlink:title="texture.h">
<polygon fill="none" stroke="#000000" points="150,-56.5 150,-75.5 205,-75.5 205,-56.5 150,-56.5"/>
<text text-anchor="middle" x="177.5" y="-63.5" font-family="Helvetica,sans-Serif" font-size="10.00" fill="#000000">texture.h</text>
</a>
</g>
</g>
<!-- Node1&#45;&gt;Node7 -->
<g id="edge7" class="edge">
<title>Node1&#45;&gt;Node7</title>
<path fill="none" stroke="#191970" d="M269.4688,-117.8906C251.711,-107.8713 223.667,-92.0483 203.2118,-80.5071"/>
<polygon fill="#191970" stroke="#191970" points="204.8409,-77.4077 194.4117,-75.5419 201.4011,-83.5042 204.8409,-77.4077"/>
</g>
<!-- Node8 -->
<g id="node9" class="node">
<title>Node8</title>
<g id="a_node9"><a xlink:href="shader_8h.html" target="_top" xlink:title="shader.h">
<polygon fill="none" stroke="#000000" points="77.5,-56.5 77.5,-75.5 131.5,-75.5 131.5,-56.5 77.5,-56.5"/>
<text text-anchor="middle" x="104.5" y="-63.5" font-family="Helvetica,sans-Serif" font-size="10.00" fill="#000000">shader.h</text>
</a>
</g>
</g>
<!-- Node1&#45;&gt;Node8 -->
<g id="edge9" class="edge">
<title>Node1&#45;&gt;Node8</title>
<path fill="none" stroke="#191970" d="M258.0625,-117.8906C226.5788,-107.2519 175.7305,-90.0696 141.2491,-78.418"/>
<polygon fill="#191970" stroke="#191970" points="142.1449,-75.0263 131.5507,-75.1408 139.904,-81.6579 142.1449,-75.0263"/>
</g>
<!-- Node7&#45;&gt;Node3 -->
<g id="edge8" class="edge">
<title>Node7&#45;&gt;Node3</title>
<path fill="none" stroke="#191970" d="M184.1191,-56.2455C189.4046,-48.4564 196.9541,-37.3308 203.3238,-27.9439"/>
<polygon fill="#191970" stroke="#191970" points="206.2379,-29.8827 208.9568,-19.6427 200.4455,-25.9522 206.2379,-29.8827"/>
</g>
<!-- Node8&#45;&gt;Node3 -->
<g id="edge11" class="edge">
<title>Node8&#45;&gt;Node3</title>
<path fill="none" stroke="#191970" d="M123.5816,-56.3733C141.2402,-47.4644 167.7053,-34.1127 187.7098,-24.0203"/>
<polygon fill="#191970" stroke="#191970" points="189.3158,-27.1303 196.6674,-19.5011 186.1628,-20.8806 189.3158,-27.1303"/>
</g>
<!-- Node8&#45;&gt;Node4 -->
<g id="edge12" class="edge">
<title>Node8&#45;&gt;Node4</title>
<path fill="none" stroke="#191970" d="M131.6146,-58.4203C134.611,-57.597 137.619,-56.7766 140.5,-56 184.9062,-44.0301 235.7431,-30.7933 271.3253,-21.6042"/>
<polygon fill="#191970" stroke="#191970" points="272.5869,-24.8934 281.3957,-19.0064 270.8384,-18.1153 272.5869,-24.8934"/>
</g>
<!-- Node9 -->
<g id="node10" class="node">
<title>Node9</title>
<polygon fill="none" stroke="#bfbfbf" points="0,-.5 0,-19.5 41,-19.5 41,-.5 0,-.5"/>
<text text-anchor="middle" x="20.5" y="-7.5" font-family="Helvetica,sans-Serif" font-size="10.00" fill="#000000">string</text>
</g>
<!-- Node8&#45;&gt;Node9 -->
<g id="edge10" class="edge">
<title>Node8&#45;&gt;Node9</title>
<path fill="none" stroke="#191970" d="M89.8683,-56.2455C77.1006,-47.7337 58.3562,-35.2375 43.5701,-25.3801"/>
<polygon fill="#191970" stroke="#191970" points="45.226,-22.2775 34.964,-19.6427 41.3431,-28.1019 45.226,-22.2775"/>
</g>
<!-- Node10 -->
<g id="node11" class="node">
<title>Node10</title>
<polygon fill="none" stroke="#bfbfbf" points="59.5,-.5 59.5,-19.5 165.5,-19.5 165.5,-.5 59.5,-.5"/>
<text text-anchor="middle" x="112.5" y="-7.5" font-family="Helvetica,sans-Serif" font-size="10.00" fill="#000000">glm/gtc/type_ptr.hpp</text>
</g>
<!-- Node8&#45;&gt;Node10 -->
<g id="edge13" class="edge">
<title>Node8&#45;&gt;Node10</title>
<path fill="none" stroke="#191970" d="M105.8935,-56.2455C106.9374,-48.9382 108.4008,-38.6944 109.6851,-29.7046"/>
<polygon fill="#191970" stroke="#191970" points="113.173,-30.0372 111.1225,-19.6427 106.2434,-29.0472 113.173,-30.0372"/>
</g>
<!-- Node11&#45;&gt;Node2 -->
<g id="edge15" class="edge">
<title>Node11&#45;&gt;Node2</title>
<path fill="none" stroke="#191970" d="M178.0169,-112.2977C190.4982,-103.0495 206.4159,-91.2551 219.0614,-81.8853"/>
<polygon fill="#191970" stroke="#191970" points="221.2596,-84.6126 227.2106,-75.8469 217.0922,-78.9882 221.2596,-84.6126"/>
</g>
<!-- Node11&#45;&gt;Node7 -->
<g id="edge17" class="edge">
<title>Node11&#45;&gt;Node7</title>
<path fill="none" stroke="#191970" d="M162.4438,-112.2977C165.0754,-104.2055 168.341,-94.1639 171.1576,-85.5029"/>
<polygon fill="#191970" stroke="#191970" points="174.5335,-86.4391 174.2977,-75.8469 167.8766,-84.2743 174.5335,-86.4391"/>
</g>
<!-- Node11&#45;&gt;Node8 -->
<g id="edge18" class="edge">
<title>Node11&#45;&gt;Node8</title>
<path fill="none" stroke="#191970" d="M144.3989,-112.2977C136.8887,-103.5831 127.43,-92.6075 119.6073,-83.5302"/>
<polygon fill="#191970" stroke="#191970" points="122.1655,-81.1372 112.986,-75.8469 116.8629,-85.707 122.1655,-81.1372"/>
</g>
<!-- Node11&#45;&gt;Node9 -->
<g id="edge16" class="edge">
<title>Node11&#45;&gt;Node9</title>
<path fill="none" stroke="#191970" d="M124.0328,-112.3608C106.3418,-103.362 84.9467,-90.8161 68.5,-76 53.2758,-62.2852 39.9336,-43.0021 31.2058,-28.8193"/>
<polygon fill="#191970" stroke="#191970" points="34.0511,-26.7559 25.9343,-19.9465 28.033,-30.3314 34.0511,-26.7559"/>
</g>
</g>
</svg>
