<?xml version="1.0" encoding="UTF-8" standalone="no"?>
<!DOCTYPE svg PUBLIC "-//W3C//DTD SVG 1.1//EN"
 "http://www.w3.org/Graphics/SVG/1.1/DTD/svg11.dtd">
<!-- Generated by graphviz version 2.40.1 (20161225.0304)
 -->
<!-- Title: /mnt/hdd/C0de/smart_engine/include/texture.h Pages: 1 -->
<!--zoomable 351 -->
<svg id="main" version="1.1" xmlns="http://www.w3.org/2000/svg" xmlns:xlink="http://www.w3.org/1999/xlink" xml:space="preserve" onload="init(evt)">
<style type="text/css"><![CDATA[
.edge:hover path { stroke: red; }
.edge:hover polygon { stroke: red; fill: red; }
]]></style>
<script type="text/javascript"><![CDATA[
var edges = document.getElementsByTagName('g');
if (edges && edges.length) {
  for (var i=0;i<edges.length;i++) {
    if (edges[i].id.substr(0,4)=='edge') {
      edges[i].setAttribute('class','edge');
    }
  }
}
]]></script>
        <defs>
                <circle id="rim" cx="0" cy="0" r="7"/>
                <circle id="rim2" cx="0" cy="0" r="3.5"/>
                <g id="zoomPlus">
                        <use xlink:href="#rim" fill="#404040">
                                <set attributeName="fill" to="#808080" begin="zoomplus.mouseover" end="zoomplus.mouseout"/>
                        </use>
                        <path d="M-4,0h8M0,-4v8" fill="none" stroke="white" stroke-width="1.5" pointer-events="none"/>
                </g>
                <g id="zoomMin">
                        <use xlink:href="#rim" fill="#404040">
                                <set attributeName="fill" to="#808080" begin="zoomminus.mouseover" end="zoomminus.mouseout"/>
                        </use>
                        <path d="M-4,0h8" fill="none" stroke="white" stroke-width="1.5" pointer-events="none"/>
                </g>
                <g id="dirArrow">
                        <path fill="none" stroke="white" stroke-width="1.5" d="M0,-3.0v7 M-2.5,-0.5L0,-3.0L2.5,-0.5"/>
                </g>
               <g id="resetDef">
                       <use xlink:href="#rim2" fill="#404040">
                               <set attributeName="fill" to="#808080" begin="reset.mouseover" end="reset.mouseout"/>
                       </use>
               </g>
        </defs>

<script type="text/javascript">
var viewWidth = 1403;
var viewHeight = 351;
var sectionId = 'dynsection-1';
</script>
<script xlink:href="svgpan.js"/>
<svg id="graph" class="graph">
<g id="viewport">
<title>/mnt/hdd/C0de/smart_engine/include/texture.h</title>
<!-- Node2 -->
<g id="node1" class="node">
<title>Node2</title>
<polygon fill="#bfbfbf" stroke="#000000" points="751.5,-312.5 751.5,-342.5 876.5,-342.5 876.5,-312.5 751.5,-312.5"/>
<text text-anchor="start" x="759.5" y="-330.5" font-family="Helvetica,sans-Serif" font-size="10.00" fill="#000000">/mnt/hdd/C0de/smart</text>
<text text-anchor="middle" x="814" y="-319.5" font-family="Helvetica,sans-Serif" font-size="10.00" fill="#000000">_engine/include/texture.h</text>
</g>
<!-- Node3 -->
<g id="node2" class="node">
<title>Node3</title>
<g id="a_node2"><a xlink:href="entity_8h.html" target="_top" xlink:title="/mnt/hdd/C0de/smart\l_engine/include/entity.h">
<polygon fill="none" stroke="#000000" points="583.5,-162 583.5,-192 702.5,-192 702.5,-162 583.5,-162"/>
<text text-anchor="start" x="591.5" y="-180" font-family="Helvetica,sans-Serif" font-size="10.00" fill="#000000">/mnt/hdd/C0de/smart</text>
<text text-anchor="middle" x="643" y="-169" font-family="Helvetica,sans-Serif" font-size="10.00" fill="#000000">_engine/include/entity.h</text>
</a>
</g>
</g>
<!-- Node2&#45;&gt;Node3 -->
<g id="edge1" class="edge">
<title>Node2&#45;&gt;Node3</title>
<path fill="none" stroke="#191970" d="M788.7475,-305.2749C753.4783,-274.2338 690.4,-218.7176 660.1291,-192.0756"/>
<polygon fill="#191970" stroke="#191970" points="786.8435,-308.2616 796.6626,-312.241 791.4682,-303.0069 786.8435,-308.2616"/>
</g>
<!-- Node13 -->
<g id="node12" class="node">
<title>Node13</title>
<g id="a_node12"><a xlink:href="resource__manager_8h.html" target="_top" xlink:title="/mnt/hdd/C0de/smart\l_engine/include/resource\l_manager.h">
<polygon fill="none" stroke="#000000" points="450.5,-234.5 450.5,-275.5 575.5,-275.5 575.5,-234.5 450.5,-234.5"/>
<text text-anchor="start" x="458.5" y="-263.5" font-family="Helvetica,sans-Serif" font-size="10.00" fill="#000000">/mnt/hdd/C0de/smart</text>
<text text-anchor="start" x="458.5" y="-252.5" font-family="Helvetica,sans-Serif" font-size="10.00" fill="#000000">_engine/include/resource</text>
<text text-anchor="middle" x="513" y="-241.5" font-family="Helvetica,sans-Serif" font-size="10.00" fill="#000000">_manager.h</text>
</a>
</g>
</g>
<!-- Node2&#45;&gt;Node13 -->
<g id="edge11" class="edge">
<title>Node2&#45;&gt;Node13</title>
<path fill="none" stroke="#191970" d="M741.7232,-310.0911C691.0313,-297.8813 623.9415,-281.7218 575.5459,-270.065"/>
<polygon fill="#191970" stroke="#191970" points="741.091,-313.5389 751.6326,-312.478 742.7302,-306.7335 741.091,-313.5389"/>
</g>
<!-- Node16 -->
<g id="node15" class="node">
<title>Node16</title>
<g id="a_node15"><a xlink:href="sprite__renderer_8h.html" target="_top" xlink:title="/mnt/hdd/C0de/smart\l_engine/include/sprite\l_renderer.h">
<polygon fill="none" stroke="#000000" points="928.5,-78.5 928.5,-119.5 1039.5,-119.5 1039.5,-78.5 928.5,-78.5"/>
<text text-anchor="start" x="936.5" y="-107.5" font-family="Helvetica,sans-Serif" font-size="10.00" fill="#000000">/mnt/hdd/C0de/smart</text>
<text text-anchor="start" x="936.5" y="-96.5" font-family="Helvetica,sans-Serif" font-size="10.00" fill="#000000">_engine/include/sprite</text>
<text text-anchor="middle" x="984" y="-85.5" font-family="Helvetica,sans-Serif" font-size="10.00" fill="#000000">_renderer.h</text>
</a>
</g>
</g>
<!-- Node2&#45;&gt;Node16 -->
<g id="edge16" class="edge">
<title>Node2&#45;&gt;Node16</title>
<path fill="none" stroke="#191970" d="M827.1607,-303.7524C838.1545,-284.4716 854.6222,-256.8349 871,-234 901.4611,-191.5292 941.6467,-145.5621 964.9742,-119.7193"/>
<polygon fill="#191970" stroke="#191970" points="824.097,-302.0599 822.2279,-312.4885 830.1924,-305.5017 824.097,-302.0599"/>
</g>
<!-- Node18 -->
<g id="node17" class="node">
<title>Node18</title>
<g id="a_node17"><a xlink:href="text__renderer_8h.html" target="_top" xlink:title="/mnt/hdd/C0de/smart\l_engine/include/text\l_renderer.h">
<polygon fill="none" stroke="#000000" points="801.5,-78.5 801.5,-119.5 910.5,-119.5 910.5,-78.5 801.5,-78.5"/>
<text text-anchor="start" x="809.5" y="-107.5" font-family="Helvetica,sans-Serif" font-size="10.00" fill="#000000">/mnt/hdd/C0de/smart</text>
<text text-anchor="start" x="809.5" y="-96.5" font-family="Helvetica,sans-Serif" font-size="10.00" fill="#000000">_engine/include/text</text>
<text text-anchor="middle" x="856" y="-85.5" font-family="Helvetica,sans-Serif" font-size="10.00" fill="#000000">_renderer.h</text>
</a>
</g>
</g>
<!-- Node2&#45;&gt;Node18 -->
<g id="edge23" class="edge">
<title>Node2&#45;&gt;Node18</title>
<path fill="none" stroke="#191970" d="M816.2406,-301.8622C819.4951,-268.1232 826.4388,-207.1101 838,-156 840.7704,-143.7526 844.9432,-130.3488 848.5737,-119.6179"/>
<polygon fill="#191970" stroke="#191970" points="812.7198,-301.9232 815.2769,-312.2048 819.6896,-302.5726 812.7198,-301.9232"/>
</g>
<!-- Node19 -->
<g id="node18" class="node">
<title>Node19</title>
<g id="a_node18"><a xlink:href="texture_8cpp.html" target="_top" xlink:title="/mnt/hdd/C0de/smart\l_engine/src/texture.cpp">
<polygon fill="none" stroke="#000000" points="880.5,-240 880.5,-270 999.5,-270 999.5,-240 880.5,-240"/>
<text text-anchor="start" x="888.5" y="-258" font-family="Helvetica,sans-Serif" font-size="10.00" fill="#000000">/mnt/hdd/C0de/smart</text>
<text text-anchor="middle" x="940" y="-247" font-family="Helvetica,sans-Serif" font-size="10.00" fill="#000000">_engine/src/texture.cpp</text>
</a>
</g>
</g>
<!-- Node2&#45;&gt;Node19 -->
<g id="edge30" class="edge">
<title>Node2&#45;&gt;Node19</title>
<path fill="none" stroke="#191970" d="M848.8779,-307.4313C869.4666,-295.5847 895.0971,-280.837 913.9262,-270.0028"/>
<polygon fill="#191970" stroke="#191970" points="847.0293,-304.457 840.1073,-312.478 850.5204,-310.5243 847.0293,-304.457"/>
</g>
<!-- Node4 -->
<g id="node3" class="node">
<title>Node4</title>
<g id="a_node3"><a xlink:href="entity__manager_8h.html" target="_top" xlink:title="/mnt/hdd/C0de/smart\l_engine/include/entity\l_manager.h">
<polygon fill="none" stroke="#000000" points="672.5,-78.5 672.5,-119.5 783.5,-119.5 783.5,-78.5 672.5,-78.5"/>
<text text-anchor="start" x="680.5" y="-107.5" font-family="Helvetica,sans-Serif" font-size="10.00" fill="#000000">/mnt/hdd/C0de/smart</text>
<text text-anchor="start" x="680.5" y="-96.5" font-family="Helvetica,sans-Serif" font-size="10.00" fill="#000000">_engine/include/entity</text>
<text text-anchor="middle" x="728" y="-85.5" font-family="Helvetica,sans-Serif" font-size="10.00" fill="#000000">_manager.h</text>
</a>
</g>
</g>
<!-- Node3&#45;&gt;Node4 -->
<g id="edge2" class="edge">
<title>Node3&#45;&gt;Node4</title>
<path fill="none" stroke="#191970" d="M666.9326,-155.0383C679.0444,-143.924 693.6603,-130.5118 705.5561,-119.5956"/>
<polygon fill="#191970" stroke="#191970" points="664.3904,-152.6208 659.3889,-161.9608 669.1232,-157.7784 664.3904,-152.6208"/>
</g>
<!-- Node12 -->
<g id="node11" class="node">
<title>Node12</title>
<g id="a_node11"><a xlink:href="entity_8cpp.html" target="_top" xlink:title="/mnt/hdd/C0de/smart\l_engine/src/entity.cpp">
<polygon fill="none" stroke="#000000" points="541.5,-84 541.5,-114 654.5,-114 654.5,-84 541.5,-84"/>
<text text-anchor="start" x="549.5" y="-102" font-family="Helvetica,sans-Serif" font-size="10.00" fill="#000000">/mnt/hdd/C0de/smart</text>
<text text-anchor="middle" x="598" y="-91" font-family="Helvetica,sans-Serif" font-size="10.00" fill="#000000">_engine/src/entity.cpp</text>
</a>
</g>
</g>
<!-- Node3&#45;&gt;Node12 -->
<g id="edge10" class="edge">
<title>Node3&#45;&gt;Node12</title>
<path fill="none" stroke="#191970" d="M629.313,-153.2759C621.9977,-140.596 613.2062,-125.3574 606.8034,-114.2592"/>
<polygon fill="#191970" stroke="#191970" points="626.2946,-155.048 634.3235,-161.9608 632.3579,-151.5499 626.2946,-155.048"/>
</g>
<!-- Node5 -->
<g id="node4" class="node">
<title>Node5</title>
<g id="a_node4"><a xlink:href="entity__manager_8cpp.html" target="_top" xlink:title="/mnt/hdd/C0de/smart\l_engine/src/entity_manager.cpp">
<polygon fill="none" stroke="#000000" points="364.5,-6 364.5,-36 519.5,-36 519.5,-6 364.5,-6"/>
<text text-anchor="start" x="372.5" y="-24" font-family="Helvetica,sans-Serif" font-size="10.00" fill="#000000">/mnt/hdd/C0de/smart</text>
<text text-anchor="middle" x="442" y="-13" font-family="Helvetica,sans-Serif" font-size="10.00" fill="#000000">_engine/src/entity_manager.cpp</text>
</a>
</g>
</g>
<!-- Node4&#45;&gt;Node5 -->
<g id="edge3" class="edge">
<title>Node4&#45;&gt;Node5</title>
<path fill="none" stroke="#191970" d="M662.5298,-77.9632C621.2536,-66.3016 552.2654,-48.7186 501.927,-36.025"/>
<polygon fill="#191970" stroke="#191970" points="661.821,-81.401 672.3985,-80.7938 663.7511,-74.6723 661.821,-81.401"/>
</g>
<!-- Node6 -->
<g id="node5" class="node">
<title>Node6</title>
<g id="a_node5"><a xlink:href="game_8cpp.html" target="_top" xlink:title="/mnt/hdd/C0de/smart\l_engine/src/game.cpp">
<polygon fill="none" stroke="#000000" points="537.5,-6 537.5,-36 650.5,-36 650.5,-6 537.5,-6"/>
<text text-anchor="start" x="545.5" y="-24" font-family="Helvetica,sans-Serif" font-size="10.00" fill="#000000">/mnt/hdd/C0de/smart</text>
<text text-anchor="middle" x="594" y="-13" font-family="Helvetica,sans-Serif" font-size="10.00" fill="#000000">_engine/src/game.cpp</text>
</a>
</g>
</g>
<!-- Node4&#45;&gt;Node6 -->
<g id="edge4" class="edge">
<title>Node4&#45;&gt;Node6</title>
<path fill="none" stroke="#191970" d="M683.6284,-73.1717C662.51,-60.879 637.9931,-46.6079 619.9445,-36.102"/>
<polygon fill="#191970" stroke="#191970" points="682.039,-76.2963 692.4423,-78.3022 685.5605,-70.2466 682.039,-76.2963"/>
</g>
<!-- Node7 -->
<g id="node6" class="node">
<title>Node7</title>
<g id="a_node6"><a xlink:href="game__over__state_8cpp.html" target="_top" xlink:title="/mnt/hdd/C0de/smart\l_engine/src/game_over\l_state.cpp">
<polygon fill="none" stroke="#000000" points="669,-.5 669,-41.5 787,-41.5 787,-.5 669,-.5"/>
<text text-anchor="start" x="677" y="-29.5" font-family="Helvetica,sans-Serif" font-size="10.00" fill="#000000">/mnt/hdd/C0de/smart</text>
<text text-anchor="start" x="677" y="-18.5" font-family="Helvetica,sans-Serif" font-size="10.00" fill="#000000">_engine/src/game_over</text>
<text text-anchor="middle" x="728" y="-7.5" font-family="Helvetica,sans-Serif" font-size="10.00" fill="#000000">_state.cpp</text>
</a>
</g>
</g>
<!-- Node4&#45;&gt;Node7 -->
<g id="edge5" class="edge">
<title>Node4&#45;&gt;Node7</title>
<path fill="none" stroke="#191970" d="M728,-68.0789C728,-59.2178 728,-49.7747 728,-41.6898"/>
<polygon fill="#191970" stroke="#191970" points="724.5001,-68.0974 728,-78.0974 731.5001,-68.0975 724.5001,-68.0974"/>
</g>
<!-- Node8 -->
<g id="node7" class="node">
<title>Node8</title>
<g id="a_node7"><a xlink:href="game__play__state_8cpp.html" target="_top" xlink:title="/mnt/hdd/C0de/smart\l_engine/src/game_play\l_state.cpp">
<polygon fill="none" stroke="#000000" points="805.5,-.5 805.5,-41.5 922.5,-41.5 922.5,-.5 805.5,-.5"/>
<text text-anchor="start" x="813.5" y="-29.5" font-family="Helvetica,sans-Serif" font-size="10.00" fill="#000000">/mnt/hdd/C0de/smart</text>
<text text-anchor="start" x="813.5" y="-18.5" font-family="Helvetica,sans-Serif" font-size="10.00" fill="#000000">_engine/src/game_play</text>
<text text-anchor="middle" x="864" y="-7.5" font-family="Helvetica,sans-Serif" font-size="10.00" fill="#000000">_state.cpp</text>
</a>
</g>
</g>
<!-- Node4&#45;&gt;Node8 -->
<g id="edge6" class="edge">
<title>Node4&#45;&gt;Node8</title>
<path fill="none" stroke="#191970" d="M773.198,-73.0776C791.0922,-62.8148 811.3688,-51.1856 828.2148,-41.5239"/>
<polygon fill="#191970" stroke="#191970" points="771.0217,-70.2909 764.0884,-78.3022 774.5043,-76.3631 771.0217,-70.2909"/>
</g>
<!-- Node9 -->
<g id="node8" class="node">
<title>Node9</title>
<g id="a_node8"><a xlink:href="LoadingGameObjects_8cpp.html" target="_top" xlink:title="/mnt/hdd/C0de/smart\l_engine/src/LoadingGameObjects.cpp">
<polygon fill="none" stroke="#000000" points="0,-6 0,-36 182,-36 182,-6 0,-6"/>
<text text-anchor="start" x="8" y="-24" font-family="Helvetica,sans-Serif" font-size="10.00" fill="#000000">/mnt/hdd/C0de/smart</text>
<text text-anchor="middle" x="91" y="-13" font-family="Helvetica,sans-Serif" font-size="10.00" fill="#000000">_engine/src/LoadingGameObjects.cpp</text>
</a>
</g>
</g>
<!-- Node4&#45;&gt;Node9 -->
<g id="edge7" class="edge">
<title>Node4&#45;&gt;Node9</title>
<path fill="none" stroke="#191970" d="M662.2084,-78.1032C454.7449,-38.4334 396.0282,-71.2188 191,-42 179.7601,-40.3982 167.8901,-38.2848 156.4077,-36.0157"/>
<polygon fill="#191970" stroke="#191970" points="661.7169,-81.5731 672.2013,-80.0475 663.0539,-74.702 661.7169,-81.5731"/>
</g>
<!-- Node10 -->
<g id="node9" class="node">
<title>Node10</title>
<g id="a_node9"><a xlink:href="main__menu__state_8cpp.html" target="_top" xlink:title="/mnt/hdd/C0de/smart\l_engine/src/main_menu\l_state.cpp">
<polygon fill="none" stroke="#000000" points="941,-.5 941,-41.5 1061,-41.5 1061,-.5 941,-.5"/>
<text text-anchor="start" x="949" y="-29.5" font-family="Helvetica,sans-Serif" font-size="10.00" fill="#000000">/mnt/hdd/C0de/smart</text>
<text text-anchor="start" x="949" y="-18.5" font-family="Helvetica,sans-Serif" font-size="10.00" fill="#000000">_engine/src/main_menu</text>
<text text-anchor="middle" x="1001" y="-7.5" font-family="Helvetica,sans-Serif" font-size="10.00" fill="#000000">_state.cpp</text>
</a>
</g>
</g>
<!-- Node4&#45;&gt;Node10 -->
<g id="edge8" class="edge">
<title>Node4&#45;&gt;Node10</title>
<path fill="none" stroke="#191970" d="M793.5877,-77.6091C854.937,-59.919 872.5387,-58.3333 931,-42 934.1772,-41.1123 937.431,-40.1884 940.7132,-39.2446"/>
<polygon fill="#191970" stroke="#191970" points="792.4047,-74.3081 783.7824,-80.4649 794.3622,-81.0289 792.4047,-74.3081"/>
</g>
<!-- Node11 -->
<g id="node10" class="node">
<title>Node11</title>
<g id="a_node10"><a xlink:href="splash__state_8cpp.html" target="_top" xlink:title="/mnt/hdd/C0de/smart\l_engine/src/splash_state.cpp">
<polygon fill="none" stroke="#000000" points="1079,-6 1079,-36 1223,-36 1223,-6 1079,-6"/>
<text text-anchor="start" x="1087" y="-24" font-family="Helvetica,sans-Serif" font-size="10.00" fill="#000000">/mnt/hdd/C0de/smart</text>
<text text-anchor="middle" x="1151" y="-13" font-family="Helvetica,sans-Serif" font-size="10.00" fill="#000000">_engine/src/splash_state.cpp</text>
</a>
</g>
</g>
<!-- Node4&#45;&gt;Node11 -->
<g id="edge9" class="edge">
<title>Node4&#45;&gt;Node11</title>
<path fill="none" stroke="#191970" d="M793.7478,-77.7991C915.3682,-51.2325 950.9089,-65.0551 1070,-42 1078.7002,-40.3157 1087.8532,-38.2417 1096.7493,-36.0595"/>
<polygon fill="#191970" stroke="#191970" points="792.6713,-74.4531 783.6741,-80.0478 794.1964,-81.285 792.6713,-74.4531"/>
</g>
<!-- Node13&#45;&gt;Node3 -->
<g id="edge12" class="edge">
<title>Node13&#45;&gt;Node3</title>
<path fill="none" stroke="#191970" d="M556.3217,-229.007C576.7473,-216.7516 600.3983,-202.561 617.83,-192.102"/>
<polygon fill="#191970" stroke="#191970" points="554.2705,-226.156 547.4963,-234.3022 557.872,-232.1584 554.2705,-226.156"/>
</g>
<!-- Node13&#45;&gt;Node6 -->
<g id="edge13" class="edge">
<title>Node13&#45;&gt;Node6</title>
<path fill="none" stroke="#191970" d="M509.971,-224.2109C507.7257,-187.3824 508.3741,-124.8394 532,-78 540.692,-60.7676 556.9043,-46.1516 570.5706,-36.0354"/>
<polygon fill="#191970" stroke="#191970" points="506.4901,-224.6037 510.7011,-234.3257 513.472,-224.0996 506.4901,-224.6037"/>
</g>
<!-- Node14 -->
<g id="node13" class="node">
<title>Node14</title>
<g id="a_node13"><a xlink:href="resource__manager_8cpp.html" target="_top" xlink:title="/mnt/hdd/C0de/smart\l_engine/src/resource\l_manager.cpp">
<polygon fill="none" stroke="#000000" points="375.5,-156.5 375.5,-197.5 484.5,-197.5 484.5,-156.5 375.5,-156.5"/>
<text text-anchor="start" x="383.5" y="-185.5" font-family="Helvetica,sans-Serif" font-size="10.00" fill="#000000">/mnt/hdd/C0de/smart</text>
<text text-anchor="start" x="383.5" y="-174.5" font-family="Helvetica,sans-Serif" font-size="10.00" fill="#000000">_engine/src/resource</text>
<text text-anchor="middle" x="430" y="-163.5" font-family="Helvetica,sans-Serif" font-size="10.00" fill="#000000">_manager.cpp</text>
</a>
</g>
</g>
<!-- Node13&#45;&gt;Node14 -->
<g id="edge14" class="edge">
<title>Node13&#45;&gt;Node14</title>
<path fill="none" stroke="#191970" d="M483.4488,-227.229C473.0912,-217.4953 461.6479,-206.7414 452.0161,-197.6898"/>
<polygon fill="#191970" stroke="#191970" points="481.0735,-229.7997 490.7575,-234.0974 485.8672,-224.6987 481.0735,-229.7997"/>
</g>
<!-- Node15 -->
<g id="node14" class="node">
<title>Node15</title>
<g id="a_node14"><a xlink:href="text__renderer_8cpp.html" target="_top" xlink:title="/mnt/hdd/C0de/smart\l_engine/src/text_renderer.cpp">
<polygon fill="none" stroke="#000000" points="200,-6 200,-36 346,-36 346,-6 200,-6"/>
<text text-anchor="start" x="208" y="-24" font-family="Helvetica,sans-Serif" font-size="10.00" fill="#000000">/mnt/hdd/C0de/smart</text>
<text text-anchor="middle" x="273" y="-13" font-family="Helvetica,sans-Serif" font-size="10.00" fill="#000000">_engine/src/text_renderer.cpp</text>
</a>
</g>
</g>
<!-- Node13&#45;&gt;Node15 -->
<g id="edge15" class="edge">
<title>Node13&#45;&gt;Node15</title>
<path fill="none" stroke="#191970" d="M440.6785,-238.3333C414.8671,-229.6268 387.0092,-216.7434 366,-198 314.1948,-151.782 286.5726,-69.7474 276.9668,-36.0689"/>
<polygon fill="#191970" stroke="#191970" points="439.8611,-241.7467 450.4523,-241.4692 441.9997,-235.0814 439.8611,-241.7467"/>
</g>
<!-- Node16&#45;&gt;Node6 -->
<g id="edge17" class="edge">
<title>Node16&#45;&gt;Node6</title>
<path fill="none" stroke="#191970" d="M918.3082,-78.0543C803.888,-52.8632 770.2388,-67.0085 660,-42 652.7296,-40.3507 645.1096,-38.2685 637.7358,-36.0598"/>
<polygon fill="#191970" stroke="#191970" points="917.6281,-81.4888 928.1531,-80.2739 919.1677,-74.6602 917.6281,-81.4888"/>
</g>
<!-- Node16&#45;&gt;Node7 -->
<g id="edge18" class="edge">
<title>Node16&#45;&gt;Node7</title>
<path fill="none" stroke="#191970" d="M918.6713,-77.9369C862.9699,-60.9057 847.6703,-57.5391 796,-42 793.1603,-41.146 790.2553,-40.2675 787.3224,-39.3767"/>
<polygon fill="#191970" stroke="#191970" points="917.776,-81.3232 928.3629,-80.9128 919.8308,-74.6316 917.776,-81.3232"/>
</g>
<!-- Node16&#45;&gt;Node8 -->
<g id="edge19" class="edge">
<title>Node16&#45;&gt;Node8</title>
<path fill="none" stroke="#191970" d="M943.6843,-72.7948C928.0024,-62.6016 910.303,-51.0969 895.5752,-41.5239"/>
<polygon fill="#191970" stroke="#191970" points="941.8653,-75.7868 952.1573,-78.3022 945.6803,-69.9177 941.8653,-75.7868"/>
</g>
<!-- Node16&#45;&gt;Node10 -->
<g id="edge20" class="edge">
<title>Node16&#45;&gt;Node10</title>
<path fill="none" stroke="#191970" d="M990.7392,-68.0789C992.6705,-59.2178 994.7286,-49.7747 996.4907,-41.6898"/>
<polygon fill="#191970" stroke="#191970" points="987.2655,-67.5814 988.5557,-78.0974 994.105,-69.0721 987.2655,-67.5814"/>
</g>
<!-- Node16&#45;&gt;Node11 -->
<g id="edge21" class="edge">
<title>Node16&#45;&gt;Node11</title>
<path fill="none" stroke="#191970" d="M1037.543,-73.9919C1064.2501,-61.5179 1095.6707,-46.8424 1118.6662,-36.102"/>
<polygon fill="#191970" stroke="#191970" points="1035.8938,-70.8992 1028.3145,-78.3022 1038.8561,-77.2415 1035.8938,-70.8992"/>
</g>
<!-- Node17 -->
<g id="node16" class="node">
<title>Node17</title>
<g id="a_node16"><a xlink:href="sprite__renderer_8cpp.html" target="_top" xlink:title="/mnt/hdd/C0de/smart\l_engine/src/sprite_renderer.cpp">
<polygon fill="none" stroke="#000000" points="1241.5,-6 1241.5,-36 1394.5,-36 1394.5,-6 1241.5,-6"/>
<text text-anchor="start" x="1249.5" y="-24" font-family="Helvetica,sans-Serif" font-size="10.00" fill="#000000">/mnt/hdd/C0de/smart</text>
<text text-anchor="middle" x="1318" y="-13" font-family="Helvetica,sans-Serif" font-size="10.00" fill="#000000">_engine/src/sprite_renderer.cpp</text>
</a>
</g>
</g>
<!-- Node16&#45;&gt;Node17 -->
<g id="edge22" class="edge">
<title>Node16&#45;&gt;Node17</title>
<path fill="none" stroke="#191970" d="M1049.7367,-84.1468C1099.7537,-72.7835 1170.2674,-56.6307 1232,-42 1240.0757,-40.0861 1248.571,-38.0452 1256.9495,-36.0161"/>
<polygon fill="#191970" stroke="#191970" points="1048.6776,-80.7981 1039.7006,-86.4251 1050.2273,-87.6244 1048.6776,-80.7981"/>
</g>
<!-- Node18&#45;&gt;Node6 -->
<g id="edge24" class="edge">
<title>Node18&#45;&gt;Node6</title>
<path fill="none" stroke="#191970" d="M791.354,-77.8785C732.08,-60.3427 715.3579,-58.348 660,-42 653.6574,-40.1269 646.9937,-38.0894 640.4397,-36.0445"/>
<polygon fill="#191970" stroke="#191970" points="790.6616,-81.3243 801.2449,-80.8309 792.6638,-74.6168 790.6616,-81.3243"/>
</g>
<!-- Node18&#45;&gt;Node7 -->
<g id="edge25" class="edge">
<title>Node18&#45;&gt;Node7</title>
<path fill="none" stroke="#191970" d="M813.4607,-73.0776C796.6191,-62.8148 777.5353,-51.1856 761.6802,-41.5239"/>
<polygon fill="#191970" stroke="#191970" points="811.6737,-76.0873 822.0344,-78.3022 815.3163,-70.1097 811.6737,-76.0873"/>
</g>
<!-- Node18&#45;&gt;Node8 -->
<g id="edge26" class="edge">
<title>Node18&#45;&gt;Node8</title>
<path fill="none" stroke="#191970" d="M859.1714,-68.0789C860.0802,-59.2178 861.0487,-49.7747 861.878,-41.6898"/>
<polygon fill="#191970" stroke="#191970" points="855.6825,-67.7925 858.1439,-78.0974 862.646,-68.5067 855.6825,-67.7925"/>
</g>
<!-- Node18&#45;&gt;Node10 -->
<g id="edge27" class="edge">
<title>Node18&#45;&gt;Node10</title>
<path fill="none" stroke="#191970" d="M903.4029,-73.5005C922.6717,-63.1352 944.6386,-51.3185 962.8467,-41.5239"/>
<polygon fill="#191970" stroke="#191970" points="901.6252,-70.4825 894.4767,-78.3022 904.9414,-76.6471 901.6252,-70.4825"/>
</g>
<!-- Node18&#45;&gt;Node11 -->
<g id="edge28" class="edge">
<title>Node18&#45;&gt;Node11</title>
<path fill="none" stroke="#191970" d="M920.2891,-77.7302C987.0351,-59.0031 1006.0567,-57.9097 1070,-42 1077.6127,-40.1059 1085.6179,-38.0765 1093.5112,-36.0531"/>
<polygon fill="#191970" stroke="#191970" points="919.2106,-74.398 910.5445,-80.4931 921.1201,-81.1325 919.2106,-74.398"/>
</g>
<!-- Node18&#45;&gt;Node15 -->
<g id="edge29" class="edge">
<title>Node18&#45;&gt;Node15</title>
<path fill="none" stroke="#191970" d="M791.5524,-78.1845C599.1654,-40.4963 543.9961,-73.7525 355,-42 345.7248,-40.4417 335.9623,-38.3501 326.5357,-36.0891"/>
<polygon fill="#191970" stroke="#191970" points="790.9226,-81.6278 801.4145,-80.1545 792.2939,-74.7634 790.9226,-81.6278"/>
</g>
</g>
</svg>
        <g id="navigator" transform="translate(0 0)" fill="#404254">
                <rect fill="#f2f5e9" fill-opacity="0.5" stroke="#606060" stroke-width=".5" x="0" y="0" width="60" height="60"/>
                <use id="zoomplus" xlink:href="#zoomPlus" x="17" y="9" onmousedown="handleZoom(evt,'in')"/>
                <use id="zoomminus" xlink:href="#zoomMin" x="42" y="9" onmousedown="handleZoom(evt,'out')"/>
                <use id="reset" xlink:href="#resetDef" x="30" y="36" onmousedown="handleReset()"/>
                <g id="arrowUp" xlink:href="#dirArrow" transform="translate(30 24)" onmousedown="handlePan(0,-1)">
                  <use xlink:href="#rim" fill="#404040">
                        <set attributeName="fill" to="#808080" begin="arrowUp.mouseover" end="arrowUp.mouseout"/>
                  </use>
                  <path fill="none" stroke="white" stroke-width="1.5" d="M0,-3.0v7 M-2.5,-0.5L0,-3.0L2.5,-0.5"/>
                </g>
                <g id="arrowRight" xlink:href="#dirArrow" transform="rotate(90) translate(36 -43)" onmousedown="handlePan(1,0)">
                  <use xlink:href="#rim" fill="#404040">
                        <set attributeName="fill" to="#808080" begin="arrowRight.mouseover" end="arrowRight.mouseout"/>
                  </use>
                  <path fill="none" stroke="white" stroke-width="1.5" d="M0,-3.0v7 M-2.5,-0.5L0,-3.0L2.5,-0.5"/>
                </g>
                <g id="arrowDown" xlink:href="#dirArrow" transform="rotate(180) translate(-30 -48)" onmousedown="handlePan(0,1)">
                  <use xlink:href="#rim" fill="#404040">
                        <set attributeName="fill" to="#808080" begin="arrowDown.mouseover" end="arrowDown.mouseout"/>
                  </use>
                  <path fill="none" stroke="white" stroke-width="1.5" d="M0,-3.0v7 M-2.5,-0.5L0,-3.0L2.5,-0.5"/>
                </g>
                <g id="arrowLeft" xlink:href="#dirArrow" transform="rotate(270) translate(-36 17)" onmousedown="handlePan(-1,0)">
                  <use xlink:href="#rim" fill="#404040">
                        <set attributeName="fill" to="#808080" begin="arrowLeft.mouseover" end="arrowLeft.mouseout"/>
                  </use>
                  <path fill="none" stroke="white" stroke-width="1.5" d="M0,-3.0v7 M-2.5,-0.5L0,-3.0L2.5,-0.5"/>
                </g>
        </g>
        <svg viewBox="0 0 15 15" width="100%" height="30px" preserveAspectRatio="xMaxYMin meet">
         <g id="arrow_out" transform="scale(0.3 0.3)">
          <a xlink:href="texture_8h__dep__incl_org.svg" target="_base">
           <rect id="button" ry="5" rx="5" y="6" x="6" height="38" width="38"
                fill="#f2f5e9" fill-opacity="0.5" stroke="#606060" stroke-width="1.0"/>
           <path id="arrow"
             d="M 11.500037,31.436501 C 11.940474,20.09759 22.043105,11.32322 32.158766,21.979434 L 37.068811,17.246167 C 37.068811,17.246167 37.088388,32 37.088388,32 L 22.160133,31.978069 C 22.160133,31.978069 26.997745,27.140456 26.997745,27.140456 C 18.528582,18.264221 13.291696,25.230495 11.500037,31.436501 z"
             style="fill:#404040;"/>
          </a>
         </g>
        </svg>
</svg>
