<?xml version="1.0" encoding="UTF-8" standalone="no"?>
<!DOCTYPE svg PUBLIC "-//W3C//DTD SVG 1.1//EN"
 "http://www.w3.org/Graphics/SVG/1.1/DTD/svg11.dtd">
<!-- Generated by graphviz version 2.40.1 (20161225.0304)
 -->
<!-- Title: /mnt/hdd/C0de/smart_engine/src/texture.cpp Pages: 1 -->
<svg width="178pt" height="151pt"
 viewBox="0.00 0.00 178.00 151.00" xmlns="http://www.w3.org/2000/svg" xmlns:xlink="http://www.w3.org/1999/xlink">
<g id="graph0" class="graph" transform="scale(1 1) rotate(0) translate(4 147)">
<title>/mnt/hdd/C0de/smart_engine/src/texture.cpp</title>
<!-- Node0 -->
<g id="node1" class="node">
<title>Node0</title>
<polygon fill="#bfbfbf" stroke="#000000" points="14.5,-112.5 14.5,-142.5 133.5,-142.5 133.5,-112.5 14.5,-112.5"/>
<text text-anchor="start" x="22.5" y="-130.5" font-family="Helvetica,sans-Serif" font-size="10.00" fill="#000000">/mnt/hdd/C0de/smart</text>
<text text-anchor="middle" x="74" y="-119.5" font-family="Helvetica,sans-Serif" font-size="10.00" fill="#000000">_engine/src/texture.cpp</text>
</g>
<!-- Node1 -->
<g id="node2" class="node">
<title>Node1</title>
<polygon fill="none" stroke="#bfbfbf" points="0,-56.5 0,-75.5 54,-75.5 54,-56.5 0,-56.5"/>
<text text-anchor="middle" x="27" y="-63.5" font-family="Helvetica,sans-Serif" font-size="10.00" fill="#000000">iostream</text>
</g>
<!-- Node0&#45;&gt;Node1 -->
<g id="edge1" class="edge">
<title>Node0&#45;&gt;Node1</title>
<path fill="none" stroke="#191970" d="M62.382,-112.2977C55.79,-103.672 47.5052,-92.8312 40.6099,-83.8087"/>
<polygon fill="#191970" stroke="#191970" points="43.3783,-81.6671 34.5253,-75.8469 37.8165,-85.9176 43.3783,-81.6671"/>
</g>
<!-- Node2 -->
<g id="node3" class="node">
<title>Node2</title>
<g id="a_node3"><a xlink:href="texture_8h.html" target="_top" xlink:title="../include/texture.h">
<polygon fill="none" stroke="#000000" points="72,-56.5 72,-75.5 170,-75.5 170,-56.5 72,-56.5"/>
<text text-anchor="middle" x="121" y="-63.5" font-family="Helvetica,sans-Serif" font-size="10.00" fill="#000000">../include/texture.h</text>
</a>
</g>
</g>
<!-- Node0&#45;&gt;Node2 -->
<g id="edge2" class="edge">
<title>Node0&#45;&gt;Node2</title>
<path fill="none" stroke="#191970" d="M85.618,-112.2977C92.21,-103.672 100.4948,-92.8312 107.3901,-83.8087"/>
<polygon fill="#191970" stroke="#191970" points="110.1835,-85.9176 113.4747,-75.8469 104.6217,-81.6671 110.1835,-85.9176"/>
</g>
<!-- Node3 -->
<g id="node4" class="node">
<title>Node3</title>
<polygon fill="none" stroke="#bfbfbf" points="89,-.5 89,-19.5 153,-19.5 153,-.5 89,-.5"/>
<text text-anchor="middle" x="121" y="-7.5" font-family="Helvetica,sans-Serif" font-size="10.00" fill="#000000">glad/glad.h</text>
</g>
<!-- Node2&#45;&gt;Node3 -->
<g id="edge3" class="edge">
<title>Node2&#45;&gt;Node3</title>
<path fill="none" stroke="#191970" d="M121,-56.2455C121,-48.9382 121,-38.6944 121,-29.7046"/>
<polygon fill="#191970" stroke="#191970" points="124.5001,-29.6426 121,-19.6427 117.5001,-29.6427 124.5001,-29.6426"/>
</g>
</g>
</svg>
