<?xml version="1.0" encoding="UTF-8" standalone="no"?>
<!DOCTYPE svg PUBLIC "-//W3C//DTD SVG 1.1//EN"
 "http://www.w3.org/Graphics/SVG/1.1/DTD/svg11.dtd">
<!-- Generated by graphviz version 2.40.1 (20161225.0304)
 -->
<!-- Title: /mnt/hdd/C0de/smart_engine/include/text_renderer.h Pages: 1 -->
<svg width="411pt" height="162pt"
 viewBox="0.00 0.00 410.50 162.00" xmlns="http://www.w3.org/2000/svg" xmlns:xlink="http://www.w3.org/1999/xlink">
<g id="graph0" class="graph" transform="scale(1 1) rotate(0) translate(4 158)">
<title>/mnt/hdd/C0de/smart_engine/include/text_renderer.h</title>
<!-- Node0 -->
<g id="node1" class="node">
<title>Node0</title>
<polygon fill="#bfbfbf" stroke="#000000" points="120,-112.5 120,-153.5 229,-153.5 229,-112.5 120,-112.5"/>
<text text-anchor="start" x="128" y="-141.5" font-family="Helvetica,sans-Serif" font-size="10.00" fill="#000000">/mnt/hdd/C0de/smart</text>
<text text-anchor="start" x="128" y="-130.5" font-family="Helvetica,sans-Serif" font-size="10.00" fill="#000000">_engine/include/text</text>
<text text-anchor="middle" x="174.5" y="-119.5" font-family="Helvetica,sans-Serif" font-size="10.00" fill="#000000">_renderer.h</text>
</g>
<!-- Node1 -->
<g id="node2" class="node">
<title>Node1</title>
<polygon fill="none" stroke="#bfbfbf" points="0,-56.5 0,-75.5 35,-75.5 35,-56.5 0,-56.5"/>
<text text-anchor="middle" x="17.5" y="-63.5" font-family="Helvetica,sans-Serif" font-size="10.00" fill="#000000">map</text>
</g>
<!-- Node0&#45;&gt;Node1 -->
<g id="edge1" class="edge">
<title>Node0&#45;&gt;Node1</title>
<path fill="none" stroke="#191970" d="M126.1138,-112.3511C99.2722,-100.8964 66.8941,-87.079 44.51,-77.5266"/>
<polygon fill="#191970" stroke="#191970" points="45.8509,-74.2935 35.2796,-73.5875 43.1033,-80.7317 45.8509,-74.2935"/>
</g>
<!-- Node2 -->
<g id="node3" class="node">
<title>Node2</title>
<polygon fill="none" stroke="#bfbfbf" points="57.5,-.5 57.5,-19.5 121.5,-19.5 121.5,-.5 57.5,-.5"/>
<text text-anchor="middle" x="89.5" y="-7.5" font-family="Helvetica,sans-Serif" font-size="10.00" fill="#000000">glad/glad.h</text>
</g>
<!-- Node0&#45;&gt;Node2 -->
<g id="edge2" class="edge">
<title>Node0&#45;&gt;Node2</title>
<path fill="none" stroke="#191970" d="M160.2729,-112.4126C143.9071,-88.7303 117.3046,-50.2348 101.7989,-27.7972"/>
<polygon fill="#191970" stroke="#191970" points="104.6421,-25.7551 96.0776,-19.5182 98.8834,-29.7347 104.6421,-25.7551"/>
</g>
<!-- Node3 -->
<g id="node4" class="node">
<title>Node3</title>
<polygon fill="none" stroke="#bfbfbf" points="139.5,-.5 139.5,-19.5 209.5,-19.5 209.5,-.5 139.5,-.5"/>
<text text-anchor="middle" x="174.5" y="-7.5" font-family="Helvetica,sans-Serif" font-size="10.00" fill="#000000">glm/glm.hpp</text>
</g>
<!-- Node0&#45;&gt;Node3 -->
<g id="edge3" class="edge">
<title>Node0&#45;&gt;Node3</title>
<path fill="none" stroke="#191970" d="M174.5,-112.4126C174.5,-89.3618 174.5,-52.2774 174.5,-29.6259"/>
<polygon fill="#191970" stroke="#191970" points="178.0001,-29.5181 174.5,-19.5182 171.0001,-29.5182 178.0001,-29.5181"/>
</g>
<!-- Node4 -->
<g id="node5" class="node">
<title>Node4</title>
<polygon fill="none" stroke="#bfbfbf" points="274.5,-56.5 274.5,-75.5 328.5,-75.5 328.5,-56.5 274.5,-56.5"/>
<text text-anchor="middle" x="301.5" y="-63.5" font-family="Helvetica,sans-Serif" font-size="10.00" fill="#000000">iostream</text>
</g>
<!-- Node0&#45;&gt;Node4 -->
<g id="edge4" class="edge">
<title>Node0&#45;&gt;Node4</title>
<path fill="none" stroke="#191970" d="M213.6405,-112.3511C233.1956,-102.0346 256.3836,-89.8015 274.0266,-80.4939"/>
<polygon fill="#191970" stroke="#191970" points="275.9879,-83.4164 283.1994,-75.6546 272.7216,-77.2251 275.9879,-83.4164"/>
</g>
<!-- Node5 -->
<g id="node6" class="node">
<title>Node5</title>
<polygon fill="none" stroke="#bfbfbf" points="346.5,-56.5 346.5,-75.5 402.5,-75.5 402.5,-56.5 346.5,-56.5"/>
<text text-anchor="middle" x="374.5" y="-63.5" font-family="Helvetica,sans-Serif" font-size="10.00" fill="#000000">ft2build.h</text>
</g>
<!-- Node0&#45;&gt;Node5 -->
<g id="edge5" class="edge">
<title>Node0&#45;&gt;Node5</title>
<path fill="none" stroke="#191970" d="M229.1509,-114.692C263.2335,-103.2743 306.2328,-88.8695 336.594,-78.6985"/>
<polygon fill="#191970" stroke="#191970" points="338.0045,-81.9173 346.3747,-75.422 335.7809,-75.2798 338.0045,-81.9173"/>
</g>
<!-- Node6 -->
<g id="node7" class="node">
<title>Node6</title>
<g id="a_node7"><a xlink:href="texture_8h.html" target="_top" xlink:title="texture.h">
<polygon fill="none" stroke="#000000" points="53,-56.5 53,-75.5 108,-75.5 108,-56.5 53,-56.5"/>
<text text-anchor="middle" x="80.5" y="-63.5" font-family="Helvetica,sans-Serif" font-size="10.00" fill="#000000">texture.h</text>
</a>
</g>
</g>
<!-- Node0&#45;&gt;Node6 -->
<g id="edge6" class="edge">
<title>Node0&#45;&gt;Node6</title>
<path fill="none" stroke="#191970" d="M145.5299,-112.3511C131.5921,-102.4167 115.1608,-90.7051 102.3022,-81.5398"/>
<polygon fill="#191970" stroke="#191970" points="104.22,-78.6087 94.0453,-75.6546 100.157,-84.309 104.22,-78.6087"/>
</g>
<!-- Node7 -->
<g id="node8" class="node">
<title>Node7</title>
<g id="a_node8"><a xlink:href="shader_8h.html" target="_top" xlink:title="shader.h">
<polygon fill="none" stroke="#000000" points="202.5,-56.5 202.5,-75.5 256.5,-75.5 256.5,-56.5 202.5,-56.5"/>
<text text-anchor="middle" x="229.5" y="-63.5" font-family="Helvetica,sans-Serif" font-size="10.00" fill="#000000">shader.h</text>
</a>
</g>
</g>
<!-- Node0&#45;&gt;Node7 -->
<g id="edge8" class="edge">
<title>Node0&#45;&gt;Node7</title>
<path fill="none" stroke="#191970" d="M191.6009,-112.168C199.0744,-103.0639 207.7496,-92.4959 214.9127,-83.7699"/>
<polygon fill="#191970" stroke="#191970" points="217.8315,-85.7305 221.4713,-75.7805 212.421,-81.289 217.8315,-85.7305"/>
</g>
<!-- Node6&#45;&gt;Node2 -->
<g id="edge7" class="edge">
<title>Node6&#45;&gt;Node2</title>
<path fill="none" stroke="#191970" d="M82.0677,-56.2455C83.2421,-48.9382 84.8884,-38.6944 86.3332,-29.7046"/>
<polygon fill="#191970" stroke="#191970" points="89.8191,-30.0714 87.9503,-19.6427 82.9078,-28.9606 89.8191,-30.0714"/>
</g>
<!-- Node7&#45;&gt;Node2 -->
<g id="edge10" class="edge">
<title>Node7&#45;&gt;Node2</title>
<path fill="none" stroke="#191970" d="M205.4331,-56.3733C182.6572,-47.2629 148.2656,-33.5062 122.851,-23.3404"/>
<polygon fill="#191970" stroke="#191970" points="123.8375,-19.9654 113.2528,-19.5011 121.2377,-26.4648 123.8375,-19.9654"/>
</g>
<!-- Node7&#45;&gt;Node3 -->
<g id="edge11" class="edge">
<title>Node7&#45;&gt;Node3</title>
<path fill="none" stroke="#191970" d="M219.9197,-56.2455C211.9542,-48.1352 200.4359,-36.4075 190.9921,-26.7919"/>
<polygon fill="#191970" stroke="#191970" points="193.4747,-24.3247 183.9705,-19.6427 188.4805,-29.2297 193.4747,-24.3247"/>
</g>
<!-- Node8 -->
<g id="node9" class="node">
<title>Node8</title>
<polygon fill="none" stroke="#bfbfbf" points="228,-.5 228,-19.5 269,-19.5 269,-.5 228,-.5"/>
<text text-anchor="middle" x="248.5" y="-7.5" font-family="Helvetica,sans-Serif" font-size="10.00" fill="#000000">string</text>
</g>
<!-- Node7&#45;&gt;Node8 -->
<g id="edge9" class="edge">
<title>Node7&#45;&gt;Node8</title>
<path fill="none" stroke="#191970" d="M232.8095,-56.2455C235.3433,-48.7776 238.9177,-38.2427 242.015,-29.1137"/>
<polygon fill="#191970" stroke="#191970" points="245.3298,-30.237 245.2284,-19.6427 238.7009,-27.9879 245.3298,-30.237"/>
</g>
<!-- Node9 -->
<g id="node10" class="node">
<title>Node9</title>
<polygon fill="none" stroke="#bfbfbf" points="287.5,-.5 287.5,-19.5 393.5,-19.5 393.5,-.5 287.5,-.5"/>
<text text-anchor="middle" x="340.5" y="-7.5" font-family="Helvetica,sans-Serif" font-size="10.00" fill="#000000">glm/gtc/type_ptr.hpp</text>
</g>
<!-- Node7&#45;&gt;Node9 -->
<g id="edge12" class="edge">
<title>Node7&#45;&gt;Node9</title>
<path fill="none" stroke="#191970" d="M248.5816,-56.3733C266.2402,-47.4644 292.7053,-34.1127 312.7098,-24.0203"/>
<polygon fill="#191970" stroke="#191970" points="314.3158,-27.1303 321.6674,-19.5011 311.1628,-20.8806 314.3158,-27.1303"/>
</g>
</g>
</svg>
